<svg width="323" height="122" viewBox="0 0 323 122" fill="none" xmlns="http://www.w3.org/2000/svg">
<path d="M118.512 36.6905C118.512 29.1571 119.612 22.8088 121.813 17.4761C126.214 6.89558 134.51 0.970459 145.683 0.970459C151.354 0.970459 156.179 2.40942 160.326 5.20269C168.452 10.9585 173.023 21.7084 173.023 36.6905C173.023 44.2238 171.922 50.5722 169.722 55.9048C165.32 66.57 156.94 72.4105 145.683 72.4105C140.096 72.4105 135.271 70.9715 131.208 68.0936C123.083 62.4224 118.512 51.5879 118.512 36.6905ZM133.071 36.6905C133.071 51.1647 137.557 59.2906 145.683 59.2906C153.893 59.2906 158.464 50.9954 158.464 36.7751C158.464 22.3009 153.808 14.0904 145.683 14.0904C137.557 14.0904 133.071 22.2162 133.071 36.6905Z" fill="#F16122"/>
<path d="M56.2861 36.6905C56.2861 29.1571 57.3865 22.8088 59.5873 17.4761C63.9888 6.89558 72.284 0.970459 83.457 0.970459C89.1282 0.970459 93.953 2.40942 98.1005 5.20269C106.226 10.9585 110.797 21.7084 110.797 36.6905C110.797 44.2238 109.697 50.5722 107.496 55.9048C103.095 66.57 94.7148 72.4105 83.457 72.4105C77.8705 72.4105 73.0458 70.9715 68.9828 68.0936C60.8569 62.4224 56.2861 51.5879 56.2861 36.6905ZM70.845 36.6905C70.845 51.1647 75.3312 59.2906 83.457 59.2906C91.6676 59.2906 96.2384 50.9954 96.2384 36.7751C96.2384 22.3009 91.5829 14.0904 83.457 14.0904C75.3312 14.0904 70.845 22.2162 70.845 36.6905Z" fill="#F16122"/>
<path d="M4.38215 71.44V60.9011C4.38215 56.9274 5.07323 53.2993 6.45538 50.103C9.1333 43.7106 15.2666 38.3547 25.7191 32.4806C33.321 28.2477 35.8261 25.2243 35.8261 20.8187C35.8261 15.9811 32.1116 12.8713 25.8055 12.8713C19.3267 12.8713 12.7615 16.9314 8.87415 23.7557L3 12.0938C8.44222 4.57838 17.4262 0 26.4966 0C41.2683 0 50.5115 8.12014 50.5115 20.8187C50.5115 29.5435 45.3284 36.1087 31.8524 43.6242C28.4834 45.611 25.8919 47.3387 23.9914 48.8936C20.1041 52.0899 18.722 54.7678 18.722 58.5687H51.2889V71.44H4.38215Z" fill="#F16122"/>
<path d="M321.937 52.5642L319.531 59.2474C314.229 55.9504 307.991 53.2326 302.957 51.5395V71.3215H295.917V33.1387H302.957V44.4108C309.818 46.6386 316.679 49.5346 321.937 52.5642Z" fill="#F16122"/>
<path d="M272.646 41.1139L269.661 47.1287C265.206 44.4109 260.929 42.807 255.85 41.2476L258.746 35.4556C263.78 36.8813 268.236 38.7971 272.646 41.1139ZM257.409 70.4305L256.83 63.4355C263.023 62.589 269.171 60.7623 274.34 57.2425C279.641 53.6336 283.83 47.2178 286.057 39.2427L291.537 44.0099C289.087 51.5396 284.854 58.089 279.285 62.4553C273.805 66.7325 265.161 69.6285 257.409 70.4305Z" fill="#F16122"/>
<path d="M247.703 32.292L253.272 36.3464C249.44 40.4899 245.653 43.9206 241.599 46.8612V71.4105H234.515V51.3166C230.371 53.5888 225.827 55.6383 221.416 57.3314L216.782 51.8067C229.391 47.6186 240.129 41.2919 247.703 32.292Z" fill="#F16122"/>
<path d="M212.805 40.891V46.5048H198.281V71.2323H191.419V46.5048H176.895V40.2672H191.419V33.2723H198.281V40.2672H207.459C206.167 39.3316 205.365 37.8168 205.365 36.1237C205.365 33.2723 207.726 31 210.667 31C213.607 31 215.924 33.2723 215.924 36.1237C215.924 38.2178 214.632 40.0445 212.805 40.891ZM210.667 33.5841C209.241 33.5841 208.083 34.7871 208.083 36.1237C208.083 37.594 209.196 38.7079 210.667 38.7079C212.092 38.7079 213.251 37.5494 213.251 36.1237C213.251 34.7871 212.092 33.5841 210.667 33.5841ZM202.246 51.0048L208.528 49.5345C209.776 55.1038 212.003 61.1631 214.498 65.1284L208.172 68.0244C205.32 63.6136 203.36 57.1532 202.246 51.0048ZM181.306 68.2026L175.023 65.6185C178.053 61.6532 179.924 55.9057 180.949 49.7127L187.276 51.0048C186.251 57.6879 184.424 64.0146 181.306 68.2026Z" fill="#F16122"/>
<path d="M40.3685 93.9344C42.0215 95.0944 43.9065 96.8924 45.1245 98.5164L41.9345 101.706C40.4265 99.8214 39.3535 98.4874 37.4105 97.0084L40.3685 93.9344ZM45.9365 115.597C46.9225 116.061 48.3435 116.293 49.4455 116.293H64.8155L63.9165 120.411H48.8655C47.7925 120.411 46.2555 120.005 45.2985 119.512C44.2255 118.99 43.5585 118.323 42.8045 117.424C41.5865 118.787 40.0495 120.237 38.5125 121.194L36.9175 116.554C37.9615 116.061 38.9185 115.452 39.8175 114.698V108.492H37.2655V104.403H43.9645V112.784C44.1965 114.031 44.5735 114.872 45.7335 115.481V100.169H49.7645C49.2135 99.7924 48.6045 99.4444 47.9955 99.0964L49.7065 97.9074H45.6175V94.5724H62.6985V97.9074C61.4515 98.8354 60.2915 99.4734 58.8995 100.169H63.4235V113.103C63.4235 113.712 63.3075 114.524 62.8725 114.93C62.4955 115.336 61.7125 115.597 61.1615 115.597H57.6815L57.0145 112.291H58.7255C59.2185 112.291 59.3635 112.059 59.3635 111.624V110.899H56.5215V115.481H52.4905V110.899H49.7355V115.597H45.9365ZM52.3455 97.9074C53.0125 98.4294 53.7665 99.0094 54.4045 99.5894C55.4485 98.9804 55.9705 98.7194 56.9565 97.9074H52.3455ZM52.4905 103.069H49.7355V104.49H52.4905V103.069ZM59.3635 103.069H56.5215V104.49H59.3635V103.069ZM52.4905 106.926H49.7355V108.347H52.4905V106.926ZM59.3635 106.926H56.5215V108.347H59.3635V106.926ZM70.7025 104.693H66.8455V97.1534H70.4125C70.0355 96.3124 69.5715 95.5004 69.0785 94.7464L73.5445 93.7604C74.1245 94.6594 74.7915 96.1384 75.2265 97.1534H77.4885V93.7314H81.8675V97.1534H84.3035C84.9415 95.9354 85.3475 94.9494 85.8695 93.7024L90.2485 94.7464C89.9295 95.5584 89.6105 96.3704 89.1465 97.1534H92.6845V104.693H88.7985V108.985H81.8965V110.319H91.5245V117.047C91.5245 117.743 91.4955 118.642 90.9735 119.222C90.4805 119.744 89.5815 119.976 88.8565 119.976H84.7095L83.8395 116.119H86.3335C86.7975 116.119 87.2035 116.061 87.2035 115.365V113.683H81.8965V120.991H77.4885V113.683H72.2975V119.976H67.8895V110.319H77.4885V108.985H70.7025V104.693ZM71.0795 101.735H88.4215V100.575H71.0795V101.735ZM84.6225 104.49H74.8785V106.259H84.6225V104.49ZM121.887 112.784L120.698 116.757C119.045 115.713 117.595 114.93 116.145 114.321C116.058 115.974 115.594 117.105 114.898 117.917C113.883 119.106 112.23 119.686 110.171 119.686C106.604 119.686 103.646 117.656 103.646 114.321C103.646 111.943 105.067 110.319 107.039 109.594C107.938 109.246 108.924 109.13 109.939 109.13C110.49 109.13 111.128 109.159 111.766 109.246C111.766 107.709 111.766 105.621 111.737 103.446C109.272 103.475 106.778 103.417 104.197 103.301L104.342 99.3284C106.865 99.4444 109.272 99.5024 111.708 99.5024C111.679 97.7334 111.679 96.1384 111.65 94.9784H116C116.029 96.6314 116.029 98.0814 116.058 99.4154C117.682 99.3574 119.335 99.2704 121.046 99.1544L121.104 103.098C119.393 103.214 117.74 103.301 116.087 103.359C116.116 105.302 116.116 107.448 116.145 110.232C118.03 110.87 120.089 111.798 121.887 112.784ZM98.4265 95.4424L102.805 95.7324C101.964 99.8794 101.471 104.693 101.471 108.956C101.471 112.059 101.79 115.394 102.312 118.729L97.9625 119.222C97.4695 115.829 97.1795 112.436 97.1795 108.956C97.1795 104.461 97.7305 99.6764 98.4265 95.4424ZM109.91 116.032C110.751 116.032 111.157 115.8 111.447 115.336C111.708 114.93 111.824 114.147 111.853 112.929C111.099 112.813 110.403 112.726 109.91 112.726C109.388 112.726 109.04 112.755 108.663 112.871C107.938 113.103 107.532 113.683 107.532 114.292C107.532 115.452 108.576 116.032 109.91 116.032ZM134.096 119.251H129.311V101.3L125.164 104.577L123.511 100.546L130.007 95.7614H134.096V119.251ZM138.208 107.506C138.208 104.925 138.585 102.75 139.339 100.923C140.847 97.2984 143.689 95.2684 147.517 95.2684C149.46 95.2684 151.113 95.7614 152.534 96.7184C155.318 98.6904 156.884 102.373 156.884 107.506C156.884 110.087 156.507 112.262 155.753 114.089C154.245 117.743 151.374 119.744 147.517 119.744C145.603 119.744 143.95 119.251 142.558 118.265C139.774 116.322 138.208 112.61 138.208 107.506ZM143.196 107.506C143.196 112.465 144.733 115.249 147.517 115.249C150.33 115.249 151.896 112.407 151.896 107.535C151.896 102.576 150.301 99.7634 147.517 99.7634C144.733 99.7634 143.196 102.547 143.196 107.506ZM159.675 107.506C159.675 104.925 160.052 102.75 160.806 100.923C162.314 97.2984 165.156 95.2684 168.984 95.2684C170.927 95.2684 172.58 95.7614 174.001 96.7184C176.785 98.6904 178.351 102.373 178.351 107.506C178.351 110.087 177.974 112.262 177.22 114.089C175.712 117.743 172.841 119.744 168.984 119.744C167.07 119.744 165.417 119.251 164.025 118.265C161.241 116.322 159.675 112.61 159.675 107.506ZM164.663 107.506C164.663 112.465 166.2 115.249 168.984 115.249C171.797 115.249 173.363 112.407 173.363 107.535C173.363 102.576 171.768 99.7634 168.984 99.7634C166.2 99.7634 164.663 102.547 164.663 107.506ZM205.937 99.9954V103.649H196.483V119.744H192.017V103.649H182.563V99.5894H192.017V95.0364H196.483V99.5894H202.457C201.616 98.9804 201.094 97.9944 201.094 96.8924C201.094 95.0364 202.631 93.5574 204.545 93.5574C206.459 93.5574 207.967 95.0364 207.967 96.8924C207.967 98.2554 207.126 99.4444 205.937 99.9954ZM204.545 95.2394C203.617 95.2394 202.863 96.0224 202.863 96.8924C202.863 97.8494 203.588 98.5744 204.545 98.5744C205.473 98.5744 206.227 97.8204 206.227 96.8924C206.227 96.0224 205.473 95.2394 204.545 95.2394ZM199.064 106.578L203.153 105.621C203.965 109.246 205.415 113.19 207.039 115.771L202.921 117.656C201.065 114.785 199.789 110.58 199.064 106.578ZM185.434 117.772L181.345 116.09C183.317 113.509 184.535 109.768 185.202 105.737L189.32 106.578C188.653 110.928 187.464 115.046 185.434 117.772ZM228.935 94.3984L232.56 97.0374C230.066 99.7344 227.601 101.967 224.962 103.881V119.86H220.351V106.781C217.654 108.26 214.696 109.594 211.825 110.696L208.809 107.1C217.016 104.374 224.005 100.256 228.935 94.3984ZM247.279 100.14L245.336 104.055C242.436 102.286 239.652 101.242 236.346 100.227L238.231 96.4574C241.508 97.3854 244.408 98.6324 247.279 100.14ZM237.361 119.222L236.984 114.669C241.015 114.118 245.017 112.929 248.381 110.638C251.832 108.289 254.558 104.113 256.008 98.9224L259.575 102.025C257.98 106.926 255.225 111.189 251.6 114.031C248.033 116.815 242.407 118.7 237.361 119.222ZM281.009 107.593L279.443 111.943C275.992 109.797 271.932 108.028 268.655 106.926V119.802H264.073V94.9494H268.655V102.286C273.121 103.736 277.587 105.621 281.009 107.593Z" fill="#F16122"/>
</svg>
