<svg width="143" height="67" viewBox="0 0 143 67" fill="none" xmlns="http://www.w3.org/2000/svg">
<path d="M3.044 21.96C3.044 17.688 3.716 13.944 5.06 10.728C7.748 4.344 12.788 0.695998 19.46 0.695998C23.828 0.695998 27.668 2.184 31.076 5.16L28.244 11.496C25.508 8.616 23.108 7.464 20.084 7.464C14.324 7.464 11.156 11.832 10.82 20.088C12.404 16.632 15.428 14.904 19.892 14.904C22.244 14.904 24.356 15.432 26.18 16.536C29.78 18.696 31.892 22.632 31.892 27.672C31.892 30.312 31.316 32.664 30.116 34.68C27.764 38.76 23.492 41.208 17.924 41.208C8.516 41.208 3.044 34.104 3.044 21.96ZM11.78 28.008C11.78 31.992 14.324 34.824 17.924 34.824C21.62 34.824 24.212 31.992 24.212 27.96C24.212 23.928 21.764 21.24 17.972 21.24C14.324 21.24 11.78 23.928 11.78 28.008ZM36.3665 20.952C36.3665 16.68 36.9905 13.08 38.2385 10.056C40.7345 4.056 45.4385 0.695998 51.7745 0.695998C54.9905 0.695998 57.7265 1.512 60.0785 3.096C64.6865 6.36 67.2785 12.456 67.2785 20.952C67.2785 25.224 66.6545 28.824 65.4065 31.848C62.9105 37.896 58.1585 41.208 51.7745 41.208C48.6065 41.208 45.8705 40.392 43.5665 38.76C38.9585 35.544 36.3665 29.4 36.3665 20.952ZM44.6225 20.952C44.6225 29.16 47.1665 33.768 51.7745 33.768C56.4305 33.768 59.0225 29.064 59.0225 21C59.0225 12.792 56.3825 8.136 51.7745 8.136C47.1665 8.136 44.6225 12.744 44.6225 20.952ZM71.9168 20.324H90.2708V40.357H71.9168V20.324ZM75.4818 28.535H86.6368V23.728H75.4818V28.535ZM75.4818 31.847V36.953H86.6368V31.847H75.4818ZM96.6648 24.602C96.0668 25.177 95.6297 25.522 94.8938 25.913L92.9618 23.245C94.5488 22.302 96.2278 20.968 97.0098 19.243L100.414 19.657C100.207 20.163 100.046 20.462 99.7698 20.945H114.352V24.027H112.489V26.258H114.904V29.363H112.489V31.617H114.352V34.699H93.8588V31.617H96.3888V29.363H93.3298V26.258H96.6648V24.602ZM100.943 24.027H99.3098V26.258H100.943V24.027ZM105.221 24.027H103.542V26.258H105.221V24.027ZM109.476 24.027H107.797V26.258H109.476V24.027ZM100.943 29.363H99.3098V31.617H100.943V29.363ZM105.221 29.363H103.542V31.617H105.221V29.363ZM109.476 29.363H107.797V31.617H109.476V29.363ZM98.6657 35.849C98.0218 37.919 97.3318 39.621 95.9518 41.3L93.0538 39.322C94.2958 38.011 95.0778 36.447 95.6988 34.745L98.6657 35.849ZM112.075 34.745C113.386 36.493 114.145 37.758 115.088 39.736L111.914 41.254C111.178 39.414 110.166 37.666 109.108 35.987L112.075 34.745ZM107.291 35.343C107.889 36.792 108.74 39.207 108.97 40.725L105.566 41.001C105.336 39.092 104.899 37.367 104.255 35.573L107.291 35.343ZM102.645 35.504C102.921 37.022 103.059 39.322 103.059 40.863L99.6318 40.955C99.8158 39.874 99.8158 38.448 99.8158 37.344C99.8158 36.723 99.8158 36.171 99.7698 35.596L102.645 35.504ZM125.231 33.894L124.334 35.941C123.805 35.159 123.506 34.561 123.092 33.687V41.047H119.826V34.055C119.021 35.734 118.239 36.838 117.043 38.241L115.893 34.193C117.48 32.928 118.561 31.318 119.458 29.501H116.353V26.396H119.826V19.473H123.092V26.396H126.266V28.259L128.221 26.005C129.67 26.879 130.889 27.891 132.062 29.11L129.716 31.64C128.75 30.467 127.554 29.294 126.266 28.535V29.501H123.322C123.943 30.72 124.794 31.778 125.76 32.744L125.576 33.181L132.568 31.824V23.682L130.521 25.959C129.371 24.556 128.405 23.636 126.933 22.578L129.003 20.324C130.314 21.129 131.51 22.072 132.568 23.176V19.427H136.064V31.134L137.697 30.812L137.996 34.193L136.064 34.561V40.978H132.568V35.251L125.622 36.585L125.231 33.894ZM127.117 20.853C126.818 22.44 126.197 24.257 125.507 25.706L123.23 24.671C123.759 23.406 124.288 21.589 124.472 20.209L127.117 20.853ZM118.331 20.278C118.86 21.635 119.274 23.268 119.481 24.694L117.066 25.683C116.951 23.958 116.652 22.555 116.008 20.968L118.331 20.278Z" fill="#F16122"/>
<path d="M14.7486 51.496C15.6606 52.136 16.7006 53.128 17.3726 54.024L15.6126 55.784C14.7806 54.744 14.1886 54.008 13.1166 53.192L14.7486 51.496ZM17.8206 63.448C18.3646 63.704 19.1486 63.832 19.7566 63.832H28.2366L27.7406 66.104H19.4366C18.8446 66.104 17.9966 65.88 17.4686 65.608C16.8766 65.32 16.5086 64.952 16.0926 64.456C15.4206 65.208 14.5726 66.008 13.7246 66.536L12.8446 63.976C13.4206 63.704 13.9486 63.368 14.4446 62.952V59.528H13.0366V57.272H16.7326V61.896C16.8606 62.584 17.0686 63.048 17.7086 63.384V54.936H19.9326C19.6286 54.728 19.2926 54.536 18.9566 54.344L19.9006 53.688H17.6446V51.848H27.0686V53.688C26.3806 54.2 25.7406 54.552 24.9726 54.936H27.4686V62.072C27.4686 62.408 27.4046 62.856 27.1646 63.08C26.9566 63.304 26.5246 63.448 26.2206 63.448H24.3006L23.9326 61.624H24.8766C25.1486 61.624 25.2286 61.496 25.2286 61.256V60.856H23.6606V63.384H21.4366V60.856H19.9166V63.448H17.8206ZM21.3566 53.688C21.7246 53.976 22.1406 54.296 22.4926 54.616C23.0686 54.28 23.3566 54.136 23.9006 53.688H21.3566ZM21.4366 56.536H19.9166V57.32H21.4366V56.536ZM25.2286 56.536H23.6606V57.32H25.2286V56.536ZM21.4366 58.664H19.9166V59.448H21.4366V58.664ZM25.2286 58.664H23.6606V59.448H25.2286V58.664ZM31.4846 57.432H29.3566V53.272H31.3246C31.1166 52.808 30.8606 52.36 30.5886 51.944L33.0526 51.4C33.3726 51.896 33.7406 52.712 33.9806 53.272H35.2286V51.384H37.6446V53.272H38.9886C39.3406 52.6 39.5646 52.056 39.8526 51.368L42.2686 51.944C42.0926 52.392 41.9166 52.84 41.6606 53.272H43.6126V57.432H41.4686V59.8H37.6606V60.536H42.9726V64.248C42.9726 64.632 42.9566 65.128 42.6686 65.448C42.3966 65.736 41.9006 65.864 41.5006 65.864H39.2126L38.7326 63.736H40.1086C40.3646 63.736 40.5886 63.704 40.5886 63.32V62.392H37.6606V66.424H35.2286V62.392H32.3646V65.864H29.9326V60.536H35.2286V59.8H31.4846V57.432ZM31.6926 55.8H41.2606V55.16H31.6926V55.8ZM39.1646 57.32H33.7886V58.296H39.1646V57.32ZM59.7246 61.896L59.0686 64.088C58.1566 63.512 57.3566 63.08 56.5566 62.744C56.5086 63.656 56.2526 64.28 55.8686 64.728C55.3086 65.384 54.3966 65.704 53.2606 65.704C51.2926 65.704 49.6606 64.584 49.6606 62.744C49.6606 61.432 50.4446 60.536 51.5326 60.136C52.0286 59.944 52.5726 59.88 53.1326 59.88C53.4366 59.88 53.7886 59.896 54.1406 59.944C54.1406 59.096 54.1406 57.944 54.1246 56.744C52.7646 56.76 51.3886 56.728 49.9646 56.664L50.0446 54.472C51.4366 54.536 52.7646 54.568 54.1086 54.568C54.0926 53.592 54.0926 52.712 54.0766 52.072H56.4766C56.4926 52.984 56.4926 53.784 56.5086 54.52C57.4046 54.488 58.3166 54.44 59.2606 54.376L59.2926 56.552C58.3486 56.616 57.4366 56.664 56.5246 56.696C56.5406 57.768 56.5406 58.952 56.5566 60.488C57.5966 60.84 58.7326 61.352 59.7246 61.896ZM46.7806 52.328L49.1966 52.488C48.7326 54.776 48.4606 57.432 48.4606 59.784C48.4606 61.496 48.6366 63.336 48.9246 65.176L46.5246 65.448C46.2526 63.576 46.0926 61.704 46.0926 59.784C46.0926 57.304 46.3966 54.664 46.7806 52.328ZM53.1166 63.688C53.5806 63.688 53.8046 63.56 53.9646 63.304C54.1086 63.08 54.1726 62.648 54.1886 61.976C53.7726 61.912 53.3886 61.864 53.1166 61.864C52.8286 61.864 52.6366 61.88 52.4286 61.944C52.0286 62.072 51.8046 62.392 51.8046 62.728C51.8046 63.368 52.3806 63.688 53.1166 63.688ZM67.3086 61.656C67.3086 60.584 66.4126 59.944 64.9886 59.944H63.4686V57.608H65.1326C66.3326 57.608 67.1006 56.984 67.1006 56.072C67.1006 55.128 66.3486 54.584 65.1806 54.584C64.0446 54.584 63.0526 55.112 62.2046 56.152L61.2286 54.008C62.2686 52.824 63.6446 52.232 65.3406 52.232C66.2046 52.232 66.9726 52.376 67.6286 52.664C68.9566 53.24 69.7086 54.28 69.7086 55.64C69.7086 57 68.8926 58.104 67.4846 58.68C69.1646 59.176 70.0126 60.248 70.0126 61.864C70.0126 62.648 69.8206 63.32 69.4366 63.896C68.6686 65.064 67.2446 65.736 65.3886 65.736C63.4846 65.736 61.9326 65.064 60.7166 63.736L61.8366 61.576C62.7966 62.776 63.9166 63.368 65.1806 63.368C66.4606 63.368 67.3086 62.68 67.3086 61.656ZM71.4477 58.984C71.4477 57.56 71.6557 56.36 72.0717 55.352C72.9037 53.352 74.4717 52.232 76.5837 52.232C77.6557 52.232 78.5677 52.504 79.3517 53.032C80.8877 54.12 81.7517 56.152 81.7517 58.984C81.7517 60.408 81.5437 61.608 81.1277 62.616C80.2957 64.632 78.7117 65.736 76.5837 65.736C75.5277 65.736 74.6157 65.464 73.8477 64.92C72.3117 63.848 71.4477 61.8 71.4477 58.984ZM74.1997 58.984C74.1997 61.72 75.0477 63.256 76.5837 63.256C78.1357 63.256 78.9997 61.688 78.9997 59C78.9997 56.264 78.1197 54.712 76.5837 54.712C75.0477 54.712 74.1997 56.248 74.1997 58.984ZM84.1394 52.008H96.9074V65.944H84.1394V52.008ZM86.6194 57.72H94.3794V54.376H86.6194V57.72ZM86.6194 60.024V63.576H94.3794V60.024H86.6194ZM101.355 54.984C100.939 55.384 100.635 55.624 100.123 55.896L98.7794 54.04C99.8834 53.384 101.051 52.456 101.595 51.256L103.963 51.544C103.819 51.896 103.707 52.104 103.515 52.44H113.659V54.584H112.363V56.136H114.043V58.296H112.363V59.864H113.659V62.008H99.4034V59.864H101.163V58.296H99.0354V56.136H101.355V54.984ZM104.331 54.584H103.195V56.136H104.331V54.584ZM107.307 54.584H106.139V56.136H107.307V54.584ZM110.267 54.584H109.099V56.136H110.267V54.584ZM104.331 58.296H103.195V59.864H104.331V58.296ZM107.307 58.296H106.139V59.864H107.307V58.296ZM110.267 58.296H109.099V59.864H110.267V58.296ZM102.747 62.808C102.299 64.248 101.819 65.432 100.859 66.6L98.8434 65.224C99.7074 64.312 100.251 63.224 100.683 62.04L102.747 62.808ZM112.075 62.04C112.987 63.256 113.515 64.136 114.171 65.512L111.963 66.568C111.451 65.288 110.747 64.072 110.011 62.904L112.075 62.04ZM108.747 62.456C109.163 63.464 109.755 65.144 109.915 66.2L107.547 66.392C107.387 65.064 107.083 63.864 106.635 62.616L108.747 62.456ZM105.515 62.568C105.707 63.624 105.803 65.224 105.803 66.296L103.419 66.36C103.547 65.608 103.547 64.616 103.547 63.848C103.547 63.416 103.547 63.032 103.515 62.632L105.515 62.568ZM121.227 61.448L120.603 62.872C120.235 62.328 120.027 61.912 119.739 61.304V66.424H117.467V61.56C116.907 62.728 116.363 63.496 115.531 64.472L114.731 61.656C115.835 60.776 116.587 59.656 117.211 58.392H115.051V56.232H117.467V51.416H119.739V56.232H121.947V57.528L123.307 55.96C124.315 56.568 125.163 57.272 125.979 58.12L124.347 59.88C123.675 59.064 122.843 58.248 121.947 57.72V58.392H119.899C120.331 59.24 120.923 59.976 121.595 60.648L121.467 60.952L126.331 60.008V54.344L124.907 55.928C124.107 54.952 123.435 54.312 122.411 53.576L123.851 52.008C124.763 52.568 125.595 53.224 126.331 53.992V51.384H128.763V59.528L129.899 59.304L130.107 61.656L128.763 61.912V66.376H126.331V62.392L121.499 63.32L121.227 61.448ZM122.539 52.376C122.331 53.48 121.899 54.744 121.419 55.752L119.835 55.032C120.203 54.152 120.571 52.888 120.699 51.928L122.539 52.376ZM116.427 51.976C116.795 52.92 117.083 54.056 117.227 55.048L115.547 55.736C115.467 54.536 115.259 53.56 114.811 52.456L116.427 51.976Z" fill="#F16122"/>
</svg>
