<svg width="20" height="19" viewBox="0 0 100 95" xmlns="http://www.w3.org/2000/svg"><g fill="#111" fill-rule="nonzero"><path d="M60.154 68.73c-2.885 2.732-6.27 4.885-10.116 6.155-3.807-1.27-7.269-3.423-10.115-6.154h20.23z"/><path d="M31.077 28.577c-4-3.385-8.77-5.923-14-7.308V53.77c0 18.23 14.692 32.807 32.961 32.807C68.308 86.577 83 71.962 83 53.769V21.308c-5.23 1.423-9.962 3.846-14 7.269-5.385-3.808-11.923-6-18.962-6-7.115 0-13.653 2.23-18.961 6zm.038-9.462C36.77 16.154 43.192 14.538 50 14.538c6.77 0 13.192 1.654 18.885 4.577a61.334 61.334 0 0 1 4.153-2.346c-6-5.615-14.115-9-23-9-8.884 0-16.961 3.462-23.038 9.077 1.308.654 2.885 1.5 4.115 2.27zm-11.923-5.269C26.808 5.385 37.808.038 50.115.038c12.27 0 23.308 5.308 30.923 13.808 3.231-.884 6.577-1.346 10.039-1.5V26.27a18.661 18.661 0 0 1 8.846 15.885c0 6.73-3.538 12.615-8.885 15.923l-.038.346c-2.23 20.462-19.846 36.154-41.077 36.154-21.23 0-38.615-16-40.846-36.5-5.308-3.385-8.808-9.27-8.808-16 0-6.692 3.5-12.577 8.808-15.885V12.27c3.461.193 6.808.731 10.115 1.577z"/><path d="M60.27 53.808c5.5-.654 14.692-.539 14.692-.539-.154 1.654.038 6.539-5.27 9.5-.884.5-3.077 1.231-5.115 1.308-5.115.23-12.346.346-12.346.346 1.307-5.77 3.461-10.038 8.038-10.615zM39.77 53.808c4.576.5 6.692 4.807 7.96 10.577 0 0-7.23-.039-12.345-.347-2.039-.076-4.231-.807-5.116-1.307C25 59.654 25.154 54.846 25 53.23c.038.038 9.27 0 14.77.577zM59.692 79.846c-2.769 1.692-6.115 2.654-9.654 2.654-3.615 0-6.923-.962-9.653-2.654 0 0 .192-1.077.73-1.923.693-1 1.27-1.308 1.27-1.308a27.26 27.26 0 0 0 7.653 1.077c2.693 0 5.27-.346 7.654-1.077 0 0 .731.385 1.346 1.462.616 1 .654 1.77.654 1.77zM92.423 7.346c.923 0 1.692.654 1.692 1.654 0 1-.807 1.654-1.692 1.654-.923 0-1.692-.654-1.692-1.654 0-1 .807-1.654 1.692-1.654zm0 3c.692 0 1.23-.538 1.23-1.308 0-.73-.538-1.269-1.23-1.269s-1.23.539-1.23 1.27c-.04.73.576 1.307 1.23 1.307zm-.654-2.27h.693c.461 0 .73.155.73.54 0 .346-.23.46-.5.5l.5.807h-.346l-.461-.77h-.231v.77h-.346l-.039-1.846zm.346.809h.347c.23 0 .346-.039.346-.27 0-.192-.231-.23-.346-.23h-.347v.5z"/></g></svg>