<svg width="17" height="16" xmlns="http://www.w3.org/2000/svg"><path d="M13.166 6.618l-3.953 3.991c-.223.225-.51.338-.798.338a1.12 1.12 0 0 1-.797-.338L3.664 6.618a1.259 1.259 0 0 1-.034-1.715c.44-.484 1.17-.5 1.63-.036l3.155 3.186 3.156-3.186a1.113 1.113 0 0 1 1.63.035 1.26 1.26 0 0 1-.035 1.716zm3.56-5.562C16.506.425 15.93 0 15.292 0H1.524C.896 0 .324.416.1 1.035c-.066.184-.1.375-.1.57v5.338l.058 1.062a8.738 8.738 0 0 0 3.377 6.074l.021.016A8.115 8.115 0 0 0 8.415 15.8c.516 0 1.036-.05 1.546-.15l.184-.039a.233.233 0 0 0 .054-.02 8.125 8.125 0 0 0 3.153-1.496l.021-.016a8.736 8.736 0 0 0 3.377-6.075l.058-1.061V1.604c0-.184-.02-.367-.083-.548z" fill="#FFF" fill-rule="evenodd"/></svg>