<svg width="32" height="32" viewBox="0 0 32 32" fill="none" xmlns="http://www.w3.org/2000/svg">
<path fill-rule="evenodd" clip-rule="evenodd" d="M7.71022 12.2219L8.411 19.9062H23.5891L24.2899 12.2219L21.5954 14.1461L20.2821 15.0844L19.3876 13.7414L16.0001 8.66016L12.6126 13.7414L11.7173 15.0844L10.4048 14.1461L7.71022 12.2219ZM16 5.84375L20.6875 12.875L26.1562 8.96875L25.0156 21.4687H24.5937H23.4461H8.55391H7.40625H6.98438L5.84375 8.96875L11.3125 12.875L16 5.84375ZM8.83818 24.5867L23.1608 24.5937L23.3038 23.0312H24.8726L24.7179 24.7297C24.6476 25.5367 23.9718 26.1562 23.1608 26.1562H8.83896C8.02803 26.1562 7.35225 25.5367 7.28193 24.7297L7.12725 23.0312H8.69599L8.83818 24.5867Z" fill="#F53A3A"/>
</svg>
