<svg width="32" height="32" viewBox="0 0 32 32" fill="none" xmlns="http://www.w3.org/2000/svg">
<path fill-rule="evenodd" clip-rule="evenodd" d="M9.92346 6.9058C11.7221 5.70397 13.8368 5.0625 16 5.0625C18.9008 5.0625 21.6828 6.21484 23.734 8.26602C25.7852 10.3172 26.9375 13.0992 26.9375 16C26.9375 18.1632 26.296 20.2779 25.0942 22.0765C23.8924 23.8752 22.1842 25.2771 20.1856 26.1049C18.187 26.9328 15.9879 27.1494 13.8662 26.7273C11.7445 26.3053 9.79566 25.2636 8.26602 23.734C6.73639 22.2043 5.69469 20.2555 5.27267 18.1338C4.85064 16.0121 5.06724 13.813 5.89507 11.8144C6.72291 9.81583 8.12479 8.10763 9.92346 6.9058ZM10.7915 23.795C12.3332 24.8252 14.1458 25.375 16 25.375C18.4864 25.375 20.871 24.3873 22.6291 22.6291C24.3873 20.871 25.375 18.4864 25.375 16C25.375 14.1458 24.8252 12.3332 23.795 10.7915C22.7649 9.24982 21.3007 8.0482 19.5877 7.33863C17.8746 6.62906 15.9896 6.4434 14.171 6.80514C12.3525 7.16687 10.682 8.05976 9.37088 9.37087C8.05976 10.682 7.16688 12.3525 6.80514 14.171C6.44341 15.9896 6.62906 17.8746 7.33863 19.5877C8.04821 21.3007 9.24982 22.7649 10.7915 23.795ZM13.4844 11.5313V20.7578H15.4375V17.7891H16.6094C17.2747 17.8047 17.9355 17.6768 18.5469 17.4141C19.0721 17.1912 19.5203 16.819 19.836 16.3438C20.1505 15.8413 20.3082 15.2565 20.2891 14.6641C20.308 14.0667 20.1504 13.477 19.836 12.9688C19.5228 12.4913 19.0738 12.1185 18.5469 11.8984C17.9337 11.6423 17.2738 11.5172 16.6094 11.5313H13.4844ZM15.4375 13.2266H16.4844C16.9415 13.2076 17.3936 13.3274 17.7813 13.5703C17.9495 13.6958 18.083 13.862 18.1691 14.0534C18.2553 14.2448 18.2912 14.455 18.2735 14.6641C18.2915 14.871 18.2556 15.079 18.1693 15.2679C18.0831 15.4569 17.9494 15.6203 17.7813 15.7422C17.3927 15.9823 16.9407 16.0994 16.4844 16.0781H15.4375V13.2266Z" fill="#F53A3A"/>
</svg>
