<svg width="32" height="32" viewBox="0 0 32 32" fill="none" xmlns="http://www.w3.org/2000/svg">
<mask id="mask0_2933_1558" style="mask-type:alpha" maskUnits="userSpaceOnUse" x="3" y="4" width="26" height="24">
<path fill-rule="evenodd" clip-rule="evenodd" d="M19.1252 7.75H12.8752V6.25H19.1252V7.75ZM14.4376 16.7499V15.2499V10.7499H17.5626V15.2499V16.7499H18.6173L15.9931 19.4087L13.3759 16.7499H14.4376ZM15.9924 21.25C16.2026 21.25 16.4127 21.1697 16.5674 21.0077L22.2502 15.25H19.1252V9.24996H12.8752V15.25H9.75023L15.4159 21.0062C15.5705 21.169 15.7815 21.25 15.9924 21.25ZM25.375 19.75V23.5H6.625V19.75H5.0625V23.5C5.0625 24.325 5.76562 25 6.625 25H25.375C26.2344 25 26.9375 24.325 26.9375 23.5V19.75H25.375Z" fill="black"/>
</mask>
<g mask="url(#mask0_2933_1558)">
<rect x="3.5" y="3.00006" width="25" height="25" fill="#F53A3A"/>
</g>
</svg>
