<svg width="48" height="48" viewBox="0 0 48 48" fill="none" xmlns="http://www.w3.org/2000/svg">
<path fill-rule="evenodd" clip-rule="evenodd" d="M22.5 40.5H25.5V24H22.5V40.5ZM40.5 21H28.5V16.5H31.5H40.5V21ZM22.5 21H25.5V16.5H22.5V21ZM7.5 21V16.5H16.5H19.5V21H7.5ZM28.5 10.5C28.5 8.8455 29.8455 7.5 31.5 7.5C33.1545 7.5 34.5 8.8455 34.5 10.5C34.5 12.1545 33.1545 13.5 31.5 13.5H28.5V10.5ZM13.5 10.5C13.5 8.8455 14.8455 7.5 16.5 7.5C18.1545 7.5 19.5 8.8455 19.5 10.5V13.5H16.5C14.8455 13.5 13.5 12.1545 13.5 10.5ZM43.5 24V16.5C43.5 14.85 42.15 13.5 40.5 13.5H36.6675C37.1835 12.615 37.5 11.598 37.5 10.5C37.5 7.1865 34.8135 4.5 31.5 4.5C28.1865 4.5 25.5 7.1865 25.5 10.5V13.5H22.5V10.5C22.5 7.1865 19.8135 4.5 16.5 4.5C13.1865 4.5 10.5 7.1865 10.5 10.5C10.5 11.598 10.8165 12.615 11.3325 13.5H7.5C5.85 13.5 4.5 14.85 4.5 16.5V24H19.5V40.5H10.5V27H7.5V40.5C7.5 42.15 8.85 43.5 10.5 43.5H37.5C39.15 43.5 40.5 42.15 40.5 40.5V27H37.5V40.5H28.5V24H43.5Z" fill="#D80000"/>
</svg>
