<svg width="23" height="16" viewBox="0 0 23 16" fill="none" xmlns="http://www.w3.org/2000/svg">
<path d="M10.0078 15.0633L0.494607 4.18929C-0.628098 2.90988 0.284347 0.900513 1.98824 0.900513H21.0147C21.3961 0.900186 21.7694 1.00978 22.09 1.21618C22.4107 1.42258 22.665 1.71703 22.8227 2.06426C22.9803 2.4115 23.0344 2.79681 22.9787 3.17405C22.923 3.55128 22.7597 3.90445 22.5084 4.19127L12.9951 15.0613C12.8089 15.2743 12.5793 15.4451 12.3217 15.5621C12.0641 15.6791 11.7844 15.7396 11.5015 15.7396C11.2185 15.7396 10.9389 15.6791 10.6813 15.5621C10.4236 15.4451 10.194 15.2743 10.0078 15.0613V15.0633Z" fill="white"/>
</svg>
