<svg width="39" height="40" viewBox="0 0 39 40" fill="none" xmlns="http://www.w3.org/2000/svg">
<g clip-path="url(#clip0_1685_1492)">
<path d="M34.125 3.33801C34.7715 3.33801 35.3915 3.59482 35.8486 4.05194C36.3057 4.50906 36.5625 5.12905 36.5625 5.77551V25.2755C36.5625 25.922 36.3057 26.542 35.8486 26.9991C35.3915 27.4562 34.7715 27.713 34.125 27.713H10.7591C9.4663 27.7133 8.22653 28.2271 7.3125 29.1414L2.4375 34.0164V5.77551C2.4375 5.12905 2.69431 4.50906 3.15143 4.05194C3.60855 3.59482 4.22853 3.33801 4.875 3.33801H34.125ZM4.875 0.900513C3.58207 0.900513 2.34209 1.41413 1.42785 2.32837C0.513615 3.24261 0 4.48258 0 5.77551L0 36.9585C5.12238e-05 37.1996 0.0716444 37.4353 0.205718 37.6358C0.339792 37.8362 0.53032 37.9924 0.753186 38.0845C0.976052 38.1766 1.22124 38.2006 1.45771 38.1533C1.69419 38.106 1.91132 37.9896 2.08162 37.8189L9.03581 30.8647C9.49283 30.4076 10.1127 30.1507 10.7591 30.1505H34.125C35.4179 30.1505 36.6579 29.6369 37.5721 28.7227C38.4864 27.8084 39 26.5685 39 25.2755V5.77551C39 4.48258 38.4864 3.24261 37.5721 2.32837C36.6579 1.41413 35.4179 0.900513 34.125 0.900513L4.875 0.900513Z" fill="white"/>
<path d="M19.5001 10.6334C23.5561 6.46289 33.6985 13.7608 19.5001 23.1427C5.30166 13.7583 15.4441 6.46289 19.5001 10.6334Z" fill="white"/>
</g>
<defs>
<clipPath id="clip0_1685_1492">
<rect width="39" height="39" fill="white" transform="translate(0 0.900513)"/>
</clipPath>
</defs>
</svg>
