<svg width="39" height="40" viewBox="0 0 39 40" fill="none" xmlns="http://www.w3.org/2000/svg">
<path d="M10.9262 20.0588L17.3654 14.006L17.2754 13.9382L17.081 13.7536L17.0572 13.7747L10.2402 7.53551L8.57833 6.00979C8.57764 6.0107 8.57712 6.01184 8.57644 6.01245L8.56654 6.00354C7.37485 7.69547 6.74487 9.65492 6.74487 11.6697C6.74487 14.4662 7.33301 16.7365 10.2606 19.4096L10.9262 20.0588Z" fill="white"/>
<path d="M27.6543 19.4099C30.5822 16.7362 31.1703 14.4661 31.1703 11.6696C31.1703 8.79529 29.9025 6.09065 27.6007 4.05366C25.3031 2.02018 22.2467 0.900452 18.9945 0.900452H18.9207C15.6642 0.900452 12.6055 2.02018 10.308 4.05366C10.2005 4.14819 10.0932 4.24333 10 4.36041L14.0006 8.02275C15.5747 7.6655 17.2549 7.48444 18.9946 7.48444C21.3767 7.48444 23.6717 7.83194 25.6791 8.47224C25.8864 8.53973 26.093 8.60775 26.2927 8.68118L10.9299 23.129L5.45768 28.1489L2.02394 31.3208L0.00189357 33.1783L0.011792 33.1795L0 33.1902L6.00244 33.9309L6.54711 38.8299L8.86232 36.7034L16.1276 30.0843L26.1761 20.8546L27.6543 19.4099Z" fill="white"/>
<path d="M38.9832 33.8465L39 33.8444L33.1484 28.4717L27.4677 23.2735L27.2868 23.1074L27.2865 23.1077L27.2769 23.0988L20.4612 29.373L23.7482 32.3746L26.299 34.6866L27.045 35.3678L27.0481 35.3655L31.9878 39.9004L32.558 34.6701L36.6012 34.1517L38.99 33.8526L38.9832 33.8465ZM27.2771 25.6752L31.6836 29.7213L33.6515 31.5107L34.806 32.5707L32.2732 32.8876L30.6992 33.0939L30.5451 34.4832L30.4658 35.3223L30.4068 35.8546L27.093 32.8123L27.0833 32.8209H27.0831L27.0764 32.8266L25.2092 31.1216L23.2722 29.3696L27.1555 25.7869L27.2771 25.6752Z" fill="white"/>
</svg>
