<svg width="96" height="96" viewBox="0 0 96 96" fill="none" xmlns="http://www.w3.org/2000/svg">
<g clip-path="url(#clip0_2566_16002)">
<circle cx="48" cy="48" r="48" fill="#F0F9F0"/>
<mask id="mask0_2566_16002" style="mask-type:alpha" maskUnits="userSpaceOnUse" x="0" y="0" width="96" height="96">
<circle cx="48" cy="48" r="48" fill="#F9E0BA"/>
</mask>
<g mask="url(#mask0_2566_16002)">
<path d="M122.503 115.107L113.191 122.133L88.9917 79.2623C87.9259 77.0778 86.688 75.0088 85.3208 73.1814C93.9436 73.2444 102.243 77.792 106.582 85.7003L122.643 114.992C122.589 115.023 122.546 115.065 122.503 115.107Z" fill="#7251A1"/>
<path d="M63.8015 42.9653C63.5755 42.5767 63.3602 42.1881 63.1556 41.7785C62.9188 41.3059 62.7681 40.8333 62.6497 40.3607C63.048 40.6547 63.5109 40.8123 63.5862 40.8333C63.6616 40.8543 63.7477 40.8543 63.8231 40.8333C63.9522 40.8018 64.0707 40.7073 64.1245 40.5707C64.1891 40.4132 64.1245 40.2452 64.0061 40.1506C64.4797 40.3712 64.8996 40.6967 65.2656 41.1483C65.3086 41.2009 65.3517 41.2639 65.384 41.3164C65.0503 42.0306 64.4905 42.6082 63.78 42.9443L63.8015 42.9653Z" fill="#FEDEC1"/>
<path d="M63.1018 38.9855C63.1879 38.891 63.2956 38.7965 63.4032 38.7125C63.5863 38.5759 63.6186 38.3239 63.4678 38.1558C63.3279 37.9878 63.0588 37.9668 62.8758 38.1033C62.6389 38.2818 62.4775 38.4499 62.3591 38.6179C62.2514 37.8512 62.133 37.0846 61.8639 36.3179C61.8531 36.2759 61.8316 36.2339 61.8208 36.1919C63.3171 36.0553 65.0934 36.906 65.6101 38.8805C65.7393 39.3636 65.7608 39.8257 65.707 40.2668C64.9965 39.5421 64.1245 39.1116 63.1126 38.975L63.1018 38.9855Z" fill="#FEDEC1"/>
<path d="M37.0075 70.5757C37.3843 71.7625 37.7826 72.9703 38.2024 74.1885L34.8652 73.5059C35.0375 72.3086 35.974 71.3109 36.9967 70.5652L37.0075 70.5757Z" fill="#7251A1"/>
<path d="M63.5 62.4684C63.5646 62.4894 63.6399 62.4894 63.7153 62.4684C63.7368 62.4684 64.9425 62.1638 66.385 62.1218C66.2235 63.5817 66.0513 65.0835 65.8683 66.6064C65.8252 66.6169 65.7822 66.6379 65.7499 66.6484L63.5 62.4684Z" fill="#7251A1"/>
<path d="M63.2311 61.9547L61.6702 59.0455C63.511 58.6779 65.2118 58.4048 66.7728 58.2578C66.6867 59.2555 66.579 60.2848 66.4714 61.3245C64.9104 61.3561 63.6294 61.6711 63.511 61.7026C63.3818 61.7341 63.2742 61.8391 63.2311 61.9547Z" fill="#7251A1"/>
<path d="M28.8582 72.5081L28.6968 78.0323C28.1477 75.9633 28.0508 74.1779 28.8582 72.5081Z" fill="#7251A1"/>
<path d="M70.6375 63.3931L68.7536 66.0502C68.1077 66.0818 67.4618 66.1763 66.8159 66.3338C66.9882 64.9055 67.1496 63.4981 67.3003 62.1328C68.5383 62.2063 69.8194 62.5214 70.6267 63.3931H70.6375Z" fill="#7251A1"/>
<path d="M45.2211 69.5579L45.2857 74.1264C44.2415 74.41 43.165 74.6935 42.067 74.9876L39.4941 74.4625C40.1831 73.5383 41.9809 71.4378 45.2211 69.5579Z" fill="#7251A1"/>
<path d="M45.2104 68.6338C41.8302 70.4927 39.8817 72.6037 38.999 73.7485C38.5684 72.4987 38.1593 71.2699 37.7825 70.0726C38.9667 69.3585 40.0647 68.9804 40.0863 68.9699C40.3123 68.8964 40.4307 68.6653 40.3554 68.4657C40.28 68.2557 40.0324 68.1612 39.8171 68.2347C39.7202 68.2662 38.6976 68.6233 37.5349 69.2955C37.2443 68.3607 36.9752 67.4365 36.7168 66.5438C38.9452 65.5461 41.7225 64.5273 45.1351 63.4351L45.2104 68.6443V68.6338Z" fill="#7251A1"/>
<path d="M34.0471 73.3491L29.009 72.3199C29.9456 70.4505 32.034 68.7176 35.9202 66.9006C36.1785 67.8354 36.4692 68.7911 36.7599 69.7678C35.5111 70.6185 34.3054 71.8158 34.0471 73.3491Z" fill="#7251A1"/>
<path d="M76.2566 64.5065C76.2566 64.6536 76.2458 64.7901 76.2351 64.9371L73.5546 59.2763L71.1324 62.7001C70.1528 61.7654 68.7426 61.4188 67.397 61.3348C67.5154 60.253 67.6123 59.2028 67.7092 58.1736C72.5642 57.848 75.8368 58.8142 76.7733 61.8704C76.9994 62.6161 76.9994 63.4248 76.8271 64.2125C76.7733 64.181 76.7087 64.1599 76.6441 64.1599C76.4396 64.1599 76.2674 64.3175 76.2674 64.517L76.2566 64.5065Z" fill="#7251A1"/>
<path d="M45.092 68.7383V69.6625C41.8625 71.5424 40.0647 73.6429 39.3758 74.5671L39.1174 74.5146C39.0421 74.2941 38.9667 74.0735 38.8914 73.853C39.7741 72.7082 41.7225 70.5972 45.1028 68.7383H45.092Z" fill="#210704"/>
<path d="M63.1988 67.8988C60.9812 69.3061 58.6559 70.4824 56.3199 71.1651C53.9947 71.8477 49.904 72.961 45.1674 74.2423L45.1028 69.6737V68.7495L45.0167 63.5403L44.9951 62.343C45.1135 62.385 45.2427 62.4165 45.3611 62.4585C48.8059 63.4353 52.4876 63.5718 55.4695 62.8261C55.6417 62.7841 55.7494 62.6056 55.7063 62.4375C55.7063 62.427 55.6955 62.4165 55.6848 62.3955C57.8593 61.8389 59.6463 60.8202 61.1319 59.4548L65.1257 66.8906C64.4798 67.1636 63.8339 67.4997 63.1988 67.8988Z" fill="#FEDEC1"/>
<path d="M63.231 61.9534C63.1987 62.0269 63.1879 62.1109 63.2094 62.1844C63.2417 62.3315 63.3709 62.426 63.5109 62.4575L65.7608 66.6375C65.5562 66.711 65.3517 66.7845 65.1472 66.8686L61.1533 59.4328C61.3256 59.2753 61.487 59.1177 61.6377 58.9602L61.6808 59.0337L63.2417 61.9429L63.231 61.9534Z" fill="#210704"/>
<path d="M58.6773 109.11C51.5294 101.128 46.05 91.3925 42.0562 82.0558C46.0392 82.0558 49.8177 81.7197 52.3044 81.4362C53.2087 82.3814 53.9515 83.3161 54.5005 84.2403C55.9861 86.6874 55.9215 88.5568 55.8677 90.3528C55.8138 92.0962 55.76 93.8921 57.0841 96.0871C57.5255 96.8223 58.0637 97.4734 58.6773 98.0301C58.8173 98.1561 59.0218 98.1666 59.1833 98.0826C59.2156 98.0616 59.2479 98.0406 59.2802 98.0091C59.4417 97.8515 59.4417 97.5995 59.2802 97.4419C58.7204 96.9378 58.236 96.3392 57.8269 95.6775C56.6105 93.6715 56.6643 92.0647 56.7181 90.3528C56.7719 88.4413 56.8365 86.4669 55.2433 83.8307C54.7374 83.001 54.1022 82.1608 53.3379 81.3206C54.4467 81.1841 55.1572 81.0686 55.2864 81.0476H55.3294C56.9549 80.5645 58.4728 80.0604 59.883 79.5352C60.3029 79.5772 60.5828 79.5877 60.6581 79.5667C60.7765 79.4512 60.9272 79.2832 61.1102 79.0731C62.3267 78.6005 63.4678 78.1069 64.5228 77.6028C62.8434 91.9386 61.7561 106.758 66.1698 115.422C63.3601 113.595 60.8088 111.505 58.6666 109.121L58.6773 109.11Z" fill="white"/>
<path d="M41.0551 82.046C45.0489 91.5192 50.6037 101.444 57.9885 109.688C60.5506 112.556 63.7047 114.982 67.1495 117.072C67.2034 117.124 67.268 117.156 67.3326 117.177C75.5678 122.123 85.4824 125.138 93.3624 127.543C95.7845 128.278 98.099 128.981 100.155 129.685C99.9291 129.801 99.7353 129.958 99.6061 130.168L97.9913 132.836L93.5454 133.203C90.2836 132.836 86.5158 133.151 82.8665 134.233L82.4574 134.359C82.1129 134.464 81.7685 134.579 81.4455 134.695L79.68 135.388C79.5293 135.451 79.3894 135.514 79.2494 135.577L79.1633 132.668C79.1633 132.426 78.9372 132.227 78.7004 132.237C78.6251 132.237 78.5712 132.258 78.5067 132.29C78.3344 132.09 78.0653 131.954 77.7746 131.954L71.3156 131.765C71.251 131.765 71.1757 131.765 71.1111 131.775C70.7881 131.828 70.519 132.006 70.3791 132.269H70.2822C70.2822 132.269 70.2714 132.269 70.2606 132.269C70.2606 132.269 70.2606 132.269 70.2499 132.269L45.2535 132.563C44.6399 132.563 44.0693 132.374 43.6172 132.048C43.7571 131.891 43.7787 131.649 43.6387 131.481C43.4773 131.292 43.1974 131.261 43.0036 131.418C42.7452 131.04 42.573 130.599 42.5407 130.116C42.1209 123.793 41.0766 107.063 41.2274 98.9444C41.3996 89.9963 34.2193 82.5921 25.0906 82.214C26.0056 81.2373 27.0283 80.3656 28.1586 79.5884C28.1801 79.6094 28.2017 79.6304 28.234 79.6514C31.5281 81.3948 36.3831 81.9829 41.0874 82.0565L41.0551 82.046Z" fill="white"/>
<path d="M113.084 122.238L122.062 138.149C123.763 141.163 124.699 144.577 124.57 148.021C124.495 150.269 123.967 152.201 123.063 153.882C122.869 153.787 122.622 153.85 122.514 154.039C119.144 159.847 110.952 162.515 100.327 165.182C100.747 164.374 100.919 163.492 100.833 162.641C100.769 161.906 100.51 161.191 100.101 160.561C100.123 160.54 100.155 160.509 100.176 160.477C100.23 160.393 100.241 160.299 100.23 160.215C100.725 160.32 101.231 160.362 101.727 160.32C103.266 160.215 104.741 159.448 105.656 158.135C106.313 157.19 106.571 156.108 106.474 155.069C106.399 154.27 106.108 153.493 105.624 152.821C105.667 152.821 105.72 152.821 105.764 152.811C105.839 152.79 105.914 152.737 105.968 152.664C106.431 152.758 106.905 152.779 107.378 152.748C108.918 152.642 110.392 151.876 111.308 150.563C111.964 149.618 112.233 148.536 112.136 147.496C112.018 146.246 111.383 145.06 110.296 144.23L113.848 138.328C114.311 137.55 113.794 136.406 112.675 135.765L109.208 133.78C109.208 133.696 109.198 133.623 109.144 133.549C107.421 130.892 101.328 129.033 93.6313 126.691C85.7944 124.307 75.9336 121.303 67.7845 116.409C62.4881 108.175 63.7046 92.3268 65.5023 77.1088C66.2559 76.7307 66.9771 76.3421 67.6446 75.9535C67.7199 76.111 67.7953 76.279 67.8491 76.4576C68.2474 77.7599 67.9675 79.0622 67.6769 80.438C67.3431 81.9819 66.9987 83.5783 67.5477 85.3427C67.9137 86.519 68.5811 87.5797 69.4961 88.4094C69.6038 88.5144 69.7653 88.5459 69.916 88.5039C69.9806 88.4829 70.0452 88.4514 70.099 88.3989C70.2605 88.2414 70.2605 87.9893 70.099 87.8423C69.2916 87.1071 68.6888 86.1514 68.3658 85.1116C67.8814 83.5258 68.2043 82.0239 68.5165 80.5746C68.8179 79.1567 69.1301 77.6969 68.678 76.216C68.6027 75.964 68.5058 75.7329 68.3873 75.5124C73.2962 72.5087 75.8583 69.2739 76.698 66.4487C79.8844 67.4885 82.7802 69.9986 85.2346 73.2649C86.6018 75.0923 87.8398 77.1612 88.9055 79.3458L113.105 122.217L113.084 122.238Z" fill="white"/>
<path d="M66.4604 69.3053C66.5789 68.3076 66.708 67.3098 66.8265 66.3331C67.4724 66.1756 68.1183 66.0916 68.7642 66.0496L66.4712 69.2948L66.4604 69.3053Z" fill="#7251A1"/>
<path d="M60.6701 79.5464C60.5946 79.5674 60.3143 79.5569 59.8938 79.5148C60.3143 79.357 60.724 79.2098 61.1229 79.052C60.9396 79.2624 60.7887 79.4307 60.6701 79.5464Z" fill="#7251A1"/>
<path d="M59.9045 78.6223L42.0669 74.9884C43.1649 74.6944 44.2414 74.4108 45.2856 74.1272C50.0223 72.8564 54.1022 71.7327 56.4382 71.05C58.7742 70.3673 61.0995 69.1911 63.3171 67.7837C63.963 67.3741 64.5981 67.0381 65.244 66.7755C65.4485 66.6915 65.6531 66.618 65.8576 66.5445C65.9007 66.534 65.9437 66.5129 65.976 66.5024C65.8038 67.9098 65.6315 69.3381 65.4485 70.7664L59.8938 78.6223H59.9045Z" fill="#7251A1"/>
<path d="M40.237 68.5705C40.3123 68.7805 40.1939 69.0011 39.9678 69.0746C39.9463 69.0746 38.8483 69.4632 37.6641 70.1774C37.578 69.9148 37.5026 69.6522 37.4165 69.3897C38.5791 68.7175 39.6018 68.3604 39.6987 68.3289C39.914 68.2554 40.1616 68.3604 40.237 68.56V68.5705Z" fill="#210704"/>
<path d="M34.7576 73.6232L33.9287 73.4551C34.1871 71.9218 35.3928 70.7245 36.6415 69.8738C36.7276 70.1468 36.803 70.4094 36.8891 70.6825C35.8557 71.4281 34.9299 72.4154 34.7576 73.6232Z" fill="#210704"/>
<path d="M67.3003 62.1324C67.3326 61.8699 67.3541 61.6073 67.3864 61.3342C68.732 61.4182 70.1423 61.7648 71.1219 62.6996L70.6374 63.3927C69.8301 62.521 68.549 62.2059 67.3111 62.1324H67.3003Z" fill="#210704"/>
<path d="M63.5 62.4685C63.3601 62.437 63.2417 62.3425 63.1986 62.1954C63.1771 62.1114 63.1986 62.0379 63.2201 61.9644C63.274 61.8489 63.3709 61.7438 63.5 61.7123C63.6185 61.6808 64.8995 61.3657 66.4604 61.3342C66.4281 61.5968 66.4066 61.8699 66.3743 62.1324C64.921 62.1744 63.7261 62.4685 63.7046 62.479C63.6292 62.5 63.5646 62.4895 63.4893 62.479L63.5 62.4685Z" fill="#210704"/>
<path d="M42.0671 74.9875L59.9047 78.6214L59.7432 78.7999C58.3115 79.325 56.7936 79.8291 55.1466 80.3123C54.9958 80.3333 54.0916 80.4698 52.7137 80.6378C52.3369 80.2492 51.9278 79.8711 51.4972 79.4826C51.6264 79.304 51.6695 79.0835 51.6049 78.8734C51.4434 78.3483 50.8513 78.2748 50.5284 78.3693C50.3884 78.4113 50.2592 78.4848 50.1516 78.5899C49.9471 78.7894 49.8825 79.0625 49.9578 79.304C50.0655 79.6401 50.3454 79.7976 50.6252 79.8292C50.9805 80.1442 51.325 80.4488 51.6479 80.7639C49.1181 81.0369 45.5011 81.331 41.7441 81.31C40.7752 79.01 39.9033 76.7309 39.1174 74.5254L39.3758 74.5779L42.0671 74.998V74.9875Z" fill="#7251A1"/>
<path d="M34.8652 73.5176L38.2024 74.2002C38.9882 76.4793 39.8709 78.8108 40.8613 81.1844C36.3938 81.0898 31.851 80.5332 28.783 78.9474L28.8153 77.9391L28.9767 72.4148V72.3203H29.0198L34.0578 73.3495L34.8867 73.5176H34.8652Z" fill="#7251A1"/>
<path d="M66.03 73.5373C66.1377 72.6551 66.2453 71.7729 66.353 70.9012C66.4283 70.3236 66.4929 69.7564 66.5683 69.1893L68.8612 65.944L70.7451 63.2869L71.2295 62.5937L73.6517 59.1699L76.3322 64.8308C76.0523 67.7925 73.6409 71.4368 68.0862 74.8186C67.5264 74.1149 66.7728 73.6948 66.03 73.5373Z" fill="#7251A1"/>
<path d="M67.3541 75.2504C66.8374 75.555 66.2883 75.849 65.707 76.1431C65.7824 75.5445 65.847 74.9353 65.9223 74.3367C66.4283 74.4627 66.945 74.7673 67.3433 75.2504H67.3541Z" fill="#7251A1"/>
<path d="M59.8508 78.695L59.9046 78.6215L65.4594 70.7656C65.4594 70.7656 65.4594 70.7866 65.4594 70.7971C65.384 71.4063 65.3087 72.0259 65.2333 72.6456C65.0934 72.6246 64.9427 72.6456 64.835 72.6666C64.6951 72.7086 64.5659 72.7821 64.4583 72.8871C64.2537 73.0867 64.1891 73.3597 64.2645 73.6013C64.3721 73.9479 64.6736 74.0949 64.9534 74.1369C64.975 74.1684 65.0073 74.1894 65.0396 74.2104C64.9427 75.0191 64.8458 75.8278 64.7489 76.6365C63.2849 77.3507 61.6593 78.0333 59.8616 78.695H59.8508Z" fill="#7251A1"/>
<path d="M50.3344 79.031C50.173 79.199 50.1837 79.4511 50.356 79.5876C50.4529 79.6717 50.539 79.7452 50.6251 79.8292C50.356 79.7872 50.0653 79.6402 49.9577 79.3041C49.8823 79.0625 49.9469 78.7895 50.1514 78.5899C50.2591 78.4849 50.3883 78.4114 50.5282 78.3693C50.8512 78.2748 51.4433 78.3484 51.6047 78.8735C51.6693 79.094 51.6263 79.3041 51.4971 79.4826C51.3141 79.3146 51.1311 79.157 50.9265 78.989C50.7543 78.842 50.4852 78.863 50.3344 79.031Z" fill="#210704"/>
<path d="M64.7382 74.0117C64.7382 74.1062 64.7813 74.1798 64.8459 74.2428C64.566 74.2113 64.2645 74.0642 64.1569 73.7071C64.0815 73.4656 64.1461 73.1925 64.3507 72.993C64.4583 72.8879 64.5875 72.8144 64.7274 72.7724C64.8351 72.7409 64.975 72.7304 65.1257 72.7514C65.0934 73.0455 65.0504 73.3291 65.0181 73.6231C64.8566 73.6861 64.7382 73.8332 64.749 74.0117H64.7382Z" fill="#210704"/>
<path d="M45.3396 35.1103L46.9866 34.144C46.9328 34.1756 46.879 34.2176 46.8252 34.2491C46.4699 34.4591 45.3827 35.0788 45.3396 35.0998V35.1103Z" fill="#FEDEC1"/>
<path d="M61.8531 36.3276C61.8531 36.3276 61.8208 36.2436 61.8101 36.2016C61.5625 35.5084 61.3149 34.8152 61.035 34.1326C60.7982 34.2166 60.5613 34.3006 60.3137 34.3531C59.6571 34.5211 58.9573 34.5527 58.2792 34.4687C57.9562 34.4266 56.6321 33.828 56.4491 33.9015C55.3618 34.3216 54.2315 34.6157 53.0796 34.7837C52.0247 34.9413 51.2173 34.8047 50.1731 34.5842H50.1623C48.343 35.1303 45.0812 35.9915 45.3288 35.1198L33.8748 41.8099C33.6595 42.5976 33.4335 43.4588 33.1859 44.4145C33.1751 44.4145 33.1644 44.4145 33.1428 44.4145C33.1428 44.4145 33.1428 44.4145 33.1428 44.425C33.3904 44.2884 33.6703 44.1834 33.9825 44.1099C33.9825 44.1099 33.9825 44.1099 33.9933 44.1099L34.7253 46.9981C34.8437 47.1346 34.9083 47.2817 34.9406 47.4077C34.9836 47.5757 34.9836 47.7333 34.9513 47.9013L35.748 51.0521C35.2635 51.1676 34.7683 51.1676 34.2947 51.0836C34.2947 51.1046 34.2947 51.1256 34.3054 51.1466C34.6176 52.785 34.9513 54.4654 35.8341 55.9042C36.846 57.5531 38.4823 58.7294 40.2047 59.6431C41.6472 60.4097 43.1651 61.2709 44.726 61.8276C44.8013 61.7015 44.9628 61.6385 45.1028 61.691C45.2427 61.733 45.3827 61.7751 45.5226 61.8171C48.849 62.7623 52.4122 62.8883 55.2757 62.1846C55.4372 62.1426 55.5987 62.2372 55.6633 62.3842C57.8378 61.8276 59.6248 60.8088 61.1104 59.4435C61.2826 59.286 61.4441 59.1284 61.5948 58.9709C62.456 58.0887 63.2095 57.0909 63.877 55.9777C65.7608 52.7954 66.8158 49.5502 65.3733 45.9793C64.9427 44.9291 64.3399 43.9524 63.7801 42.9651C63.554 42.5766 63.3387 42.188 63.1342 41.7784C62.8973 41.3058 62.7466 40.8331 62.6282 40.3605C62.3806 40.1715 62.1546 39.9299 62.0792 39.6149C62.0146 39.3628 62.0361 39.0162 62.3268 38.6276C62.2191 37.8609 62.1007 37.0943 61.8316 36.3276H61.8531ZM50.7759 52.8585C52.2615 53.6147 55.814 55.232 57.5256 54.3078C57.7194 54.2028 57.9562 54.3393 57.9347 54.5494C57.8486 55.295 57.4933 56.5343 56.1477 56.7444C52.7352 57.2695 51.0128 54.5179 50.3992 53.1841C50.2915 52.9635 50.5606 52.7324 50.7867 52.848L50.7759 52.8585ZM44.8659 37.5879L40.8398 39.5203C40.8398 39.5203 40.786 39.5413 40.7537 39.5518C40.5599 39.5939 40.3661 39.5203 40.28 39.3523C40.1724 39.1632 40.2585 38.9217 40.4738 38.8167L44.4999 36.8842C44.7044 36.7897 44.9628 36.8632 45.0705 37.0523C45.1781 37.2413 45.092 37.4829 44.8767 37.5879H44.8659ZM49.9901 42.398C49.0212 45.5382 45.0489 45.8743 43.3696 45.8743C42.9498 45.8743 42.6806 45.8533 42.6268 45.8533C42.3792 45.8323 42.1962 45.6223 42.2177 45.3702C42.2393 45.1287 42.4653 44.9501 42.7129 44.9711C42.7668 44.9711 48.1385 45.3807 49.1289 42.146C49.2042 41.9149 49.4518 41.7784 49.6994 41.8519C49.9363 41.9254 50.0762 42.167 50.0008 42.4085L49.9901 42.398ZM53.0473 48.668C54.1777 49.1721 55.3618 49.0776 56.2876 48.4159C56.6752 48.1429 57.1596 47.6493 57.3211 46.8511C57.4718 46.0949 57.2457 45.1707 56.7936 44.7086C56.4921 44.3935 56.1369 44.341 55.9001 44.341C55.5664 44.341 55.2326 44.467 54.8774 44.6035L53.4134 45.1496C53.1981 45.2337 52.9505 45.1287 52.8643 44.9081C52.7782 44.6981 52.8859 44.4565 53.1119 44.3725L54.576 43.8264C54.9635 43.6793 55.3941 43.5218 55.8786 43.5113C56.4491 43.5113 56.9874 43.7213 57.3964 44.1309C58.1177 44.8661 58.3222 46.1369 58.15 47.0086C57.9347 48.0693 57.2888 48.7205 56.7828 49.0776C56.3737 49.3717 55.9216 49.5712 55.4479 49.6972C54.5652 49.9178 53.6179 49.8232 52.6921 49.4136C52.4768 49.3191 52.3799 49.0776 52.4768 48.8675C52.5737 48.6575 52.8213 48.563 53.0366 48.6575L53.0473 48.668ZM58.1177 35.1093C58.1392 35.3088 57.9993 35.4979 57.7947 35.5504C57.7732 35.5504 57.7624 35.5504 57.7409 35.5504L53.2842 36.1175C53.0473 36.1491 52.8428 35.9915 52.8105 35.7815C52.789 35.5609 52.9612 35.3613 53.1873 35.3403L57.644 34.7732C57.8808 34.7417 58.0854 34.8992 58.1177 35.1093ZM61.5302 38.7432C61.7347 38.8902 61.767 39.1633 61.6163 39.3628C60.3783 40.9697 58.9143 41.3898 57.7301 41.3898C56.4706 41.3898 55.5233 40.9172 55.5018 40.9067C55.2757 40.7911 55.1896 40.5286 55.308 40.308C55.4264 40.0875 55.6955 40.014 55.9216 40.119C56.04 40.182 58.8066 41.5368 60.8843 38.8272C61.035 38.6276 61.3149 38.5961 61.5194 38.7432H61.5302Z" fill="#FEDEC1"/>
<path d="M33.7134 49.2562C33.8103 49.3192 33.9394 49.3402 34.0471 49.3087C34.1224 49.2877 34.1978 49.2457 34.2516 49.1932C34.327 49.1196 34.8652 48.5525 34.9729 47.9224L35.7695 51.0731C35.2851 51.1886 34.7899 51.1886 34.3162 51.1046C34.0901 51.0626 33.8641 50.9891 33.6488 50.9051C33.638 50.2749 33.6488 49.7288 33.7026 49.2667L33.7134 49.2562Z" fill="#FEDEC1"/>
<path d="M34.0148 44.1208L34.7468 47.009C34.5423 46.778 34.187 46.5574 33.5519 46.4524C33.3258 46.4104 33.0998 46.5574 33.0567 46.778C33.0137 46.988 33.1644 47.1981 33.3904 47.2401C33.455 47.2401 33.5304 47.2611 33.6057 47.2821C33.2935 47.4501 33.0783 47.8072 32.9383 48.3638C32.8199 48.8259 32.7661 49.5086 32.7768 50.3593C32.1955 49.8867 31.7434 49.2251 31.5281 48.3954C31.2482 47.3031 31.4958 45.3391 33.1644 44.4569C33.412 44.3204 33.6918 44.2154 34.004 44.1418C34.004 44.1418 34.004 44.1418 34.0148 44.1418V44.1208Z" fill="#FEDEC1"/>
<path d="M34.0473 48.0486C34.0473 48.0486 34.0473 48.0486 34.058 48.0486C34.0041 48.1538 33.9394 48.2589 33.8748 48.3641C33.961 48.1327 34.0365 48.0696 34.0365 48.0591L34.0473 48.0486Z" fill="#FEDEC1"/>
<path d="M58.2899 34.4696C57.967 34.4276 56.6429 33.8289 56.4599 33.9024C55.3726 34.3225 54.2423 34.6166 53.0904 34.7846C52.0355 34.9422 51.2281 34.8056 50.1839 34.5851H50.1731C50.453 34.5011 50.7006 34.4171 50.8944 34.354C50.8944 34.354 50.8944 34.354 50.8944 34.3646C50.9697 34.5641 51.185 34.6691 51.3895 34.6166C51.4003 34.6166 51.4218 34.6166 51.4326 34.6061C52.5199 34.207 53.5318 33.6609 54.4361 33.0202C55.1358 32.9467 55.7709 32.8627 56.18 32.7892C56.18 32.7892 56.18 32.8102 56.18 32.8207C56.2446 33.0412 56.4706 33.1673 56.6967 33.1148C59.1834 32.4426 61.3687 31.0038 62.8543 29.0713C64.5229 26.8973 65.2657 24.1562 64.9535 21.3415C64.8566 20.5118 64.6736 19.6926 64.3937 18.9154C64.3614 18.8104 64.286 18.7369 64.1999 18.6949C64.3614 18.5268 64.5121 18.3483 64.6521 18.1593C65.2441 17.3191 65.7824 16.1953 66.8374 16.1218C68.8074 15.9747 69.7977 19.0625 70.1422 20.4593C70.6482 22.5283 70.4436 24.7548 69.5179 26.7082C68.366 29.1238 66.2561 31.0983 63.9846 32.5686C63.0696 33.1568 62.0685 33.7554 61.0135 34.144C60.7767 34.228 60.5398 34.312 60.2922 34.3646C59.6355 34.5326 58.9358 34.5641 58.2576 34.4801L58.2899 34.4696Z" fill="#5B2326"/>
<path d="M33.8856 41.8091C33.6703 42.5968 33.4443 43.458 33.1967 44.4137C33.1859 44.4137 33.1751 44.4137 33.1536 44.4137C32.5292 44.5082 31.8295 45.506 31.485 45.3799C31.0867 45.2329 30.71 44.6658 30.3655 43.8466L33.8749 41.7986L33.8856 41.8091Z" fill="#5B2326"/>
<path d="M44.8659 37.5886L40.8398 39.521C40.8398 39.521 40.7859 39.542 40.7536 39.5525C40.5599 39.5945 40.3661 39.521 40.28 39.353C40.1723 39.1639 40.2585 38.9224 40.4738 38.8173L44.4999 36.8849C44.7044 36.7904 44.9628 36.8639 45.0704 37.0529C45.1781 37.242 45.092 37.4835 44.8767 37.5886H44.8659Z" fill="#210704"/>
<path d="M34.047 49.2982C33.9286 49.3297 33.8102 49.2982 33.7133 49.2457C33.7241 49.1092 33.7456 48.9831 33.7671 48.8676C33.8102 48.6365 33.8533 48.4685 33.8963 48.3425C33.9609 48.2479 34.0255 48.1429 34.0793 48.0274C34.2946 47.9329 34.4023 47.6808 34.3162 47.4603C34.2193 47.2292 33.9609 47.1242 33.7241 47.2082C33.6918 47.2187 33.6487 47.2397 33.6164 47.2607C33.5411 47.2397 33.4657 47.2292 33.4011 47.2187C33.1751 47.1767 33.0243 46.9771 33.0674 46.7566C33.1105 46.5465 33.3365 46.3995 33.5626 46.431C34.1977 46.536 34.553 46.7566 34.7575 46.9876C34.8759 47.1242 34.9405 47.2712 34.9728 47.3973C35.0159 47.5653 35.0159 47.7228 34.9836 47.8909C34.8759 48.521 34.3377 49.0881 34.2623 49.1617C34.2085 49.2247 34.1331 49.2562 34.0578 49.2772L34.047 49.2982Z" fill="#210704"/>
<path d="M57.7946 35.5405C57.7946 35.5405 57.7623 35.5405 57.7408 35.5405L53.2841 36.1076C53.0472 36.1391 52.8427 35.9816 52.8104 35.7715C52.7889 35.551 52.9611 35.3514 53.1872 35.3304L57.6439 34.7633C57.8807 34.7318 58.0853 34.8893 58.1176 35.0994C58.1391 35.2989 57.9992 35.488 57.7946 35.5405Z" fill="#210704"/>
<path d="M50.776 52.8487C52.2616 53.6049 55.814 55.2222 57.5257 54.298C57.7194 54.193 57.9563 54.3295 57.9347 54.5396C57.8486 55.2852 57.4934 56.5245 56.1477 56.7346C52.7352 57.2597 51.0128 54.5081 50.3992 53.1743C50.2916 52.9537 50.5607 52.7226 50.7868 52.8382L50.776 52.8487Z" fill="#F16122"/>
<path d="M64.1351 40.5816C64.0813 40.7182 63.9737 40.8022 63.8337 40.8442C63.7584 40.8652 63.6722 40.8652 63.5969 40.8442C63.5215 40.8232 63.0586 40.6656 62.6603 40.3716C62.4127 40.1825 62.1867 39.941 62.1113 39.6259C62.0467 39.3739 62.0683 39.0273 62.3589 38.6387C62.4773 38.4811 62.6496 38.3026 62.8756 38.124C63.0586 37.9875 63.3278 38.0085 63.4677 38.1766C63.6184 38.3446 63.5861 38.5967 63.4031 38.7332C63.3062 38.8067 63.1986 38.9012 63.1017 39.0063C63.0586 39.0063 63.0156 38.9957 62.9833 38.9852C62.7357 38.9642 62.5096 39.1323 62.4773 39.3738C62.445 39.6154 62.628 39.8359 62.8756 39.8674C63.2955 39.9095 63.6722 40.0145 64.0167 40.1825C64.1351 40.2876 64.189 40.4451 64.1351 40.6026V40.5816Z" fill="#210704"/>
<path d="M55.2433 83.8197C56.8365 86.4558 56.7827 88.4302 56.7181 90.3417C56.6643 92.0536 56.6212 93.6605 57.8269 95.6664C58.236 96.3386 58.7204 96.9267 59.2802 97.4308C59.4417 97.5779 59.4417 97.8299 59.2802 97.998C59.2479 98.0295 59.2156 98.0505 59.1833 98.0715C59.0218 98.166 58.8173 98.145 58.6773 98.019C58.0637 97.4624 57.5255 96.8112 57.0841 96.0761C55.76 93.8915 55.8138 92.0851 55.8677 90.3417C55.9215 88.5353 55.9753 86.6763 54.5005 84.2293C53.9407 83.3051 53.2087 82.3703 52.3044 81.4251C52.6812 81.3831 53.0149 81.3411 53.3271 81.2991C54.0915 82.1393 54.7373 82.9795 55.2325 83.8091L55.2433 83.8197Z" fill="#210704"/>
<path d="M50.3562 79.5977C50.1839 79.4507 50.1732 79.1986 50.3346 79.0411C50.4961 78.8731 50.7652 78.8626 50.9267 78.9991C51.1205 79.1671 51.3035 79.3247 51.4973 79.4927C51.9279 79.8813 52.3369 80.2594 52.7137 80.648C52.3908 80.69 52.0355 80.7215 51.648 80.7635C51.325 80.4589 50.9805 80.1439 50.6253 79.8288C50.5392 79.7448 50.4423 79.6712 50.3562 79.5872V79.5977Z" fill="#210704"/>
<path d="M68.6672 76.2269C69.1194 77.7077 68.8072 79.1675 68.5057 80.5854C68.1936 82.0347 67.8706 83.5365 68.355 85.1224C68.678 86.1727 69.2808 87.1179 70.0882 87.8531C70.2497 88.0001 70.2497 88.2522 70.0882 88.4097C70.0344 88.4622 69.9698 88.4937 69.9052 88.5147C69.7653 88.5567 69.6038 88.5252 69.4854 88.4202C68.5703 87.5905 67.9029 86.5297 67.5369 85.3535C66.9986 83.5891 67.3324 81.9927 67.6661 80.4488C67.9567 79.073 68.2366 77.7602 67.8383 76.4684C67.7845 76.2899 67.7199 76.1218 67.6338 75.9643C67.8814 75.8173 68.1182 75.6807 68.355 75.5337C68.4734 75.7542 68.5703 75.9853 68.6457 76.2373L68.6672 76.2269Z" fill="#210704"/>
<path d="M64.8351 74.2431C64.7812 74.18 64.7381 74.1064 64.7273 74.0117C64.7273 73.8329 64.8351 73.6857 64.9968 73.6226C64.9645 73.854 64.9429 74.0854 64.9106 74.3063C64.8782 74.2852 64.8459 74.2642 64.8243 74.2326L64.8351 74.2431Z" fill="#210704"/>
<path d="M65.8254 74.4525C65.8577 74.1899 65.89 73.9169 65.9223 73.6543C66.6651 73.8013 67.4187 74.2319 67.9784 74.9356C67.7416 75.0826 67.494 75.2297 67.2464 75.3662C66.8374 74.8831 66.3314 74.5785 65.8254 74.4525Z" fill="#210704"/>
<path d="M57.5901 15.9217C51.7877 11.9938 43.5525 11.5842 36.566 15.3861C36.6198 15.5541 36.566 15.7326 36.4045 15.8482C36.3614 15.8797 36.3184 15.8902 36.2753 15.9007C36.2861 16.4363 35.8124 17.161 35.005 17.6861C34.1977 18.2217 33.3257 18.4003 32.809 18.2007C32.7874 18.2323 32.7552 18.2743 32.7121 18.2953C32.669 18.3268 32.6152 18.3478 32.5721 18.3583C32.5076 18.3793 32.4322 18.3688 32.3676 18.3583C26.899 23.3154 24.746 30.5727 26.8452 36.9371C26.9205 37.1682 27.0066 37.3887 27.0927 37.6198L34.6175 33.1563C34.822 33.0407 35.0804 33.1037 35.1988 33.2928C35.3172 33.4923 35.2526 33.7444 35.0589 33.8599L27.4695 38.3655C27.4695 38.3655 27.3942 38.4075 27.3511 38.418C27.1789 38.46 26.9851 38.3865 26.8882 38.2289L18.1147 43.3541C16.7583 44.1523 16.4461 46.0428 17.4365 47.5971C18.4161 49.141 20.3215 49.7501 21.6779 48.9624L30.3653 43.8793L33.8747 41.8313L45.3287 35.1412L46.9758 34.175C48.3214 33.3138 49.0965 31.9169 50.0007 30.6777C51.2818 28.9237 51.777 26.8548 51.8093 24.8488C51.8308 23.1369 51.4755 21.5195 51.1956 19.8706C51.0449 18.9569 51.2602 17.4341 52.6059 17.2135C53.4132 17.077 54.1776 17.434 54.8019 17.8436C55.8246 18.5158 56.6428 19.377 57.2456 20.3327C57.2456 20.3327 57.2456 20.3327 57.2564 20.3222C57.4609 20.2067 57.7192 20.2802 57.8377 20.4798C57.7946 19.2405 57.6547 18.0222 57.5578 16.7829C57.5362 16.5309 57.5363 16.2368 57.5793 15.9322L57.5901 15.9217ZM34.639 20.0912C33.3688 22.8218 33.2719 25.9726 34.3807 28.7347C34.4668 28.9448 34.3591 29.1863 34.1438 29.2703C34.1223 29.2703 34.1115 29.2808 34.09 29.2914C33.8855 29.3439 33.6702 29.2388 33.5948 29.0393C32.4107 26.0671 32.5076 22.6853 33.8747 19.7551C33.9716 19.545 34.2192 19.4505 34.4345 19.5451C34.6498 19.6396 34.7467 19.8811 34.6498 20.0912H34.639ZM48.2568 21.1519C48.203 21.2045 48.1276 21.2464 48.0523 21.2675C47.9123 21.299 47.7616 21.2674 47.654 21.1624C45.3287 18.9779 42.1207 17.6336 38.8374 17.4656C38.6006 17.4551 38.4176 17.2555 38.4391 17.035C38.4499 16.8039 38.6544 16.6359 38.8804 16.6464C42.3683 16.8144 45.7808 18.2427 48.246 20.5743C48.4183 20.7318 48.4183 20.9944 48.246 21.1624L48.2568 21.1519Z" fill="#7251A1"/>
<path d="M63.6186 19.1883C63.8769 19.9129 64.0492 20.6691 64.1353 21.4358C64.4259 24.0404 63.7478 26.5715 62.2084 28.5775C60.8304 30.3629 58.8066 31.6967 56.5029 32.3163C56.2876 32.3794 56.1584 32.5894 56.2015 32.7995C55.7924 32.873 55.1572 32.957 54.4575 33.0305C55.5663 32.2533 56.5244 31.3291 57.2564 30.2894C58.7743 28.1469 59.3341 25.5843 58.8281 23.0952C58.6451 22.171 58.3222 21.2888 57.8593 20.4801C57.8162 19.2408 57.6763 18.0225 57.5794 16.7832C57.5579 16.5312 57.5578 16.2371 57.6009 15.9325C57.7193 15.0188 58.1607 14.0736 59.1941 14.0211C60.023 13.979 60.7551 14.4727 61.3471 15.0083C62.4882 16.0375 63.3279 17.2978 63.8769 18.6736C63.6616 18.7577 63.554 18.9782 63.6293 19.1988L63.6186 19.1883Z" fill="#5B2326"/>
<path d="M64.4258 18.9143C64.7057 19.6915 64.8887 20.5107 64.9856 21.3404C65.2978 24.155 64.555 26.8962 62.8864 29.0702C61.4008 31.0026 59.2155 32.4415 56.7288 33.1136C56.5028 33.1661 56.2767 33.0401 56.2121 32.8196C56.2121 32.8196 56.2121 32.7986 56.2121 32.7881C56.169 32.578 56.2982 32.368 56.5135 32.3049C58.8172 31.6748 60.8518 30.3515 62.219 28.5661C63.7584 26.5601 64.4473 24.029 64.1459 21.4244C64.0598 20.6577 63.8876 19.9015 63.6292 19.1769C63.5539 18.9668 63.6723 18.7358 63.8768 18.6517C63.9952 18.6097 64.1136 18.6307 64.2213 18.6832C64.3074 18.7358 64.3828 18.8093 64.4151 18.9038L64.4258 18.9143Z" fill="#210704"/>
<path d="M45.3395 35.1097C45.3395 35.1097 46.4698 34.469 46.8251 34.259C46.8789 34.2275 46.9327 34.1854 46.9865 34.1539C48.3322 33.2927 49.1073 31.8959 50.0115 30.6566C51.2926 28.9027 51.7878 26.8337 51.8201 24.8278C51.8416 23.1159 51.4863 21.4985 51.2065 19.8496C51.0557 18.9359 51.271 17.413 52.6167 17.1925C53.424 17.0559 54.1884 17.413 54.8127 17.8226C55.8354 18.4948 56.6536 19.356 57.2564 20.3117C57.0626 20.4272 56.9873 20.6688 57.1057 20.8683C57.5255 21.6035 57.8162 22.4017 57.9884 23.2419C58.4405 25.5209 57.9346 27.8525 56.5459 29.8059C55.3079 31.5703 53.381 32.9987 51.1418 33.8284C50.9265 33.9124 50.8189 34.1434 50.8943 34.3535C50.7005 34.4165 50.4529 34.49 50.173 34.5845C48.3537 35.1412 45.0919 36.0024 45.3395 35.1202V35.1097Z" fill="#5B2326"/>
<path d="M51.1419 33.8286C53.3918 32.9989 55.308 31.5706 56.5459 29.8062C57.9346 27.8422 58.4406 25.5107 57.9885 23.2422C57.8162 22.402 57.5256 21.6038 57.1057 20.8686C56.9981 20.669 57.0627 20.4275 57.2564 20.312C57.2564 20.312 57.2564 20.312 57.2672 20.3015C57.4717 20.186 57.7301 20.2595 57.8485 20.459C58.3114 21.2677 58.6344 22.1499 58.8174 23.0741C59.3126 25.5737 58.7528 28.1258 57.2457 30.2683C56.5137 31.3081 55.5556 32.2323 54.4468 33.0094C53.5317 33.6501 52.5306 34.1857 51.4433 34.5953C51.4326 34.5953 51.411 34.6058 51.4003 34.6058C51.1957 34.6584 50.9804 34.5533 50.9051 34.3538C50.9051 34.3538 50.9051 34.3538 50.9051 34.3433C50.8297 34.1332 50.9374 33.9022 51.1527 33.8182L51.1419 33.8286Z" fill="#210704"/>
<path d="M34.6283 33.1456C34.8329 33.0301 35.0912 33.0931 35.2096 33.2822C35.3281 33.4817 35.2635 33.7338 35.0697 33.8493L27.4803 38.3548C27.4803 38.3548 27.405 38.3969 27.3619 38.4074C27.1897 38.4494 26.9959 38.3759 26.899 38.2183C26.7806 38.0188 26.8452 37.7667 27.039 37.6512L27.1036 37.6092L34.6283 33.1456Z" fill="#210704"/>
<path d="M32.8306 17.7068C32.7875 17.6438 32.766 17.5492 32.7875 17.4232C32.8629 17.0136 33.2935 16.499 33.864 16.1104C34.779 15.5012 35.6295 15.4802 35.8125 15.7428C35.9201 15.8898 36.1031 15.9424 36.2754 15.9004C36.2861 16.436 35.8125 17.1606 35.0051 17.6858C34.1977 18.2214 33.3257 18.3999 32.809 18.2004C32.9167 18.0639 32.9274 17.8643 32.809 17.7173L32.8306 17.7068Z" fill="#7251A1"/>
<path d="M36.4154 15.8371C36.4154 15.8371 36.3293 15.8791 36.2862 15.8896C36.114 15.9422 35.931 15.8896 35.8233 15.7321C35.6403 15.48 34.7899 15.5011 33.8749 16.0997C33.2936 16.4883 32.8737 17.0029 32.7984 17.4125C32.7768 17.5385 32.7984 17.6331 32.8414 17.6961C32.9491 17.8431 32.9383 18.0321 32.8414 18.1792C32.8199 18.2107 32.7876 18.2527 32.7445 18.2737C32.7015 18.3052 32.6477 18.3262 32.6046 18.3367C32.54 18.3577 32.4647 18.3472 32.4001 18.3367C32.3032 18.3157 32.2171 18.2632 32.1525 18.1792C31.9695 17.9271 31.9049 17.612 31.9695 17.2655C32.0879 16.6248 32.6261 15.9316 33.412 15.417C34.6607 14.5873 36.0064 14.5138 36.5338 15.249C36.5661 15.291 36.5769 15.333 36.5877 15.3645C36.6415 15.5326 36.5877 15.7111 36.4262 15.8266L36.4154 15.8371Z" fill="#210704"/>
<path d="M48.0631 21.2583C47.9232 21.2898 47.7725 21.2583 47.6648 21.1533C45.3396 18.9688 42.1316 17.6244 38.8483 17.4564C38.6114 17.4459 38.4284 17.2463 38.45 17.0258C38.4607 16.7947 38.6653 16.6267 38.8913 16.6372C42.3792 16.8052 45.7917 18.2336 48.2569 20.5651C48.4291 20.7227 48.4291 20.9852 48.2569 21.1533C48.2031 21.2058 48.1277 21.2478 48.0524 21.2688L48.0631 21.2583Z" fill="#210704"/>
<path d="M34.3915 28.7234C34.4777 28.9335 34.37 29.175 34.1547 29.2591C34.1332 29.2591 34.1224 29.2695 34.1009 29.28C33.8964 29.3326 33.6811 29.2275 33.6057 29.028C32.4216 26.0558 32.5184 22.674 33.8856 19.7438C33.9825 19.5337 34.2301 19.4392 34.4454 19.5338C34.6607 19.6283 34.7576 19.8698 34.6607 20.0799C33.3904 22.8105 33.2935 25.9613 34.4023 28.7234H34.3915Z" fill="#210704"/>
<path d="M53.0474 48.6577C54.1777 49.1618 55.3619 49.0673 56.2876 48.4056C56.6752 48.1325 57.1596 47.6389 57.3211 46.8408C57.4718 46.0846 57.2457 45.1603 56.7936 44.6982C56.4922 44.3832 56.1369 44.3306 55.9001 44.3306C55.5664 44.3306 55.2327 44.4567 54.8774 44.5932L53.4134 45.1394C53.1981 45.2234 52.9505 45.1183 52.8644 44.8978C52.7782 44.6877 52.8859 44.4462 53.1119 44.3622L54.576 43.816C54.9635 43.669 55.3941 43.5115 55.8786 43.501C56.4491 43.501 56.9874 43.711 57.3964 44.1206C58.1177 44.8558 58.3222 46.1266 58.15 46.9983C57.9347 48.059 57.2888 48.7102 56.7828 49.0673C56.3738 49.3613 55.9216 49.5609 55.448 49.6869C54.5652 49.9075 53.6179 49.813 52.6921 49.4034C52.4768 49.3088 52.3799 49.0673 52.4768 48.8572C52.5737 48.6472 52.8213 48.5527 53.0366 48.6472L53.0474 48.6577Z" fill="#210704"/>
<path d="M68.3767 75.5233C68.1399 75.6704 67.903 75.8069 67.6554 75.9539C66.9772 76.3425 66.2667 76.7311 65.5132 77.1092C65.5455 76.8256 65.5778 76.5316 65.6101 76.248C66.1806 75.9539 66.7296 75.6494 67.2571 75.3553C67.5047 75.2082 67.7523 75.0717 67.9891 74.9247C73.5439 71.5429 75.966 67.8986 76.2352 64.9369C76.2459 64.7898 76.2567 64.6428 76.2567 64.5062C76.2567 64.3067 76.4289 64.1492 76.6335 64.1492C76.698 64.1492 76.7626 64.1702 76.8165 64.2017C76.9241 64.2647 76.9995 64.3802 76.9995 64.5167C76.9887 65.1364 76.8811 65.7875 76.6873 66.4597C75.8476 69.2849 73.2855 72.5196 68.3767 75.5233Z" fill="#210704"/>
<path d="M59.8939 79.5251C58.4729 80.0397 56.9658 80.5438 55.3403 81.0269H55.2973C55.1573 81.0584 54.4576 81.174 53.3488 81.3105C53.0366 81.3525 52.6921 81.3945 52.3261 81.4365C49.8286 81.7306 46.0609 82.0667 42.0778 82.0562C41.9702 81.8041 41.8625 81.5626 41.7656 81.3105C45.5226 81.3315 49.1397 81.0374 51.6694 80.7644C52.0462 80.7223 52.4015 80.6804 52.7352 80.6488C54.1239 80.4808 55.0174 80.3443 55.1681 80.3233C56.8151 79.8402 58.3438 79.336 59.7648 78.8109C61.5625 78.1493 63.188 77.4561 64.6521 76.7524C64.6198 77.036 64.5875 77.3196 64.5552 77.6031C63.5002 78.1073 62.3591 78.5904 61.1427 79.0735C60.7444 79.231 60.3353 79.3886 59.9155 79.5356L59.8939 79.5251Z" fill="#210704"/>
<path d="M40.7429 81.2889C40.8505 81.5409 40.9474 81.793 41.0551 82.0345C36.3507 81.961 31.4957 81.3729 28.2016 79.6295C28.1693 79.619 28.1478 79.5875 28.1263 79.5665C28.0079 79.4614 27.9648 79.2829 28.0509 79.1359C28.1478 78.9573 28.3739 78.8943 28.5569 78.9888C28.5892 79.0098 28.6322 79.0203 28.6645 79.0413C31.7326 80.6272 36.2754 81.1944 40.7429 81.2784V81.2889Z" fill="#210704"/>
<path d="M55.4695 62.8154C52.4876 63.5506 48.8059 63.4141 45.3611 62.4478C45.2427 62.4163 45.1135 62.3743 44.9951 62.3323C44.9628 62.3323 44.9413 62.3113 44.909 62.3113C44.7368 62.2588 44.6399 62.0698 44.7045 61.9017C44.7045 61.8807 44.726 61.8597 44.7475 61.8387C44.8229 61.7127 44.9843 61.6497 45.1243 61.7022C45.2642 61.7442 45.4042 61.7862 45.5441 61.8282C48.8705 62.7734 52.4337 62.8994 55.2972 62.1958C55.4587 62.1538 55.6202 62.2483 55.6848 62.3953C55.6848 62.4058 55.6955 62.4163 55.7063 62.4374C55.7494 62.6054 55.6417 62.7839 55.4695 62.8259V62.8154Z" fill="#210704"/>
<path d="M7.6512 99.8471C6.84382 90.1008 14.8745 81.8248 24.8968 82.0769C24.9937 82.0769 25.0798 82.0769 25.1767 82.0874C34.3054 82.4655 41.4857 89.8802 41.3134 98.8178C41.1627 106.936 42.2069 123.667 42.6268 129.989C42.6591 130.472 42.8313 130.924 43.0897 131.302L34.8221 137.782C34.6284 137.94 34.5961 138.213 34.7576 138.402C34.8437 138.507 34.9836 138.57 35.1128 138.57C35.2097 138.57 35.3173 138.538 35.3927 138.475L43.6602 131.985C43.6602 131.985 43.6925 131.943 43.714 131.922C44.1769 132.258 44.7367 132.447 45.3503 132.436L70.3467 132.142C70.0991 132.153 69.9161 132.352 69.9161 132.594L70.7773 163.566C70.7773 163.807 70.9819 163.996 71.2295 163.996C71.2295 163.996 71.2295 163.996 71.2402 163.996C71.3048 163.996 71.3694 163.975 71.4232 163.954C71.4555 163.996 71.4986 164.038 71.5417 164.08L34.1978 164.679H34.1224C24.8214 161.066 16.963 154.701 11.5697 146.615C11.3651 145.102 11.2144 143.495 11.1068 141.773L7.62967 99.8261L7.6512 99.8471Z" fill="#7251A1"/>
<path d="M32.9383 48.3536C33.0783 47.797 33.2935 47.4399 33.6057 47.2719C33.638 47.2509 33.6811 47.2298 33.7134 47.2193C33.9502 47.1248 34.2086 47.2404 34.3055 47.4714C34.3916 47.692 34.2839 47.9335 34.0686 48.0385C34.0686 48.0385 34.0686 48.0385 34.0579 48.0385C34.0579 48.0385 33.9717 48.1121 33.8964 48.3431C33.8533 48.4691 33.8103 48.6267 33.7672 48.8682C33.7457 48.9838 33.7349 49.1098 33.7134 49.2463C33.6703 49.698 33.6488 50.2441 33.6596 50.8847C33.7349 54.2035 34.693 59.8643 36.6092 66.6384C36.8675 67.5416 37.1367 68.4553 37.4273 69.3901C37.5027 69.6526 37.5888 69.9152 37.6749 70.1778C38.0517 71.375 38.4608 72.6038 38.8914 73.8536C38.9667 74.0742 39.0421 74.2947 39.1174 74.5153C39.9033 76.7313 40.7752 78.9998 41.7441 81.2999C41.8517 81.5519 41.9594 81.7935 42.0563 82.0455C46.0393 91.3822 51.5295 101.118 58.6775 109.1C60.8197 111.484 63.371 113.574 66.1807 115.401C66.4606 115.958 66.762 116.494 67.0957 116.987C67.1173 117.019 67.1388 117.04 67.1603 117.061C63.7155 114.971 60.5614 112.545 57.9993 109.678C50.6145 101.433 45.0597 91.4978 41.0659 82.035C40.9582 81.783 40.8614 81.5309 40.7537 81.2893C39.7741 78.9158 38.8914 76.5737 38.0947 74.3052C37.6641 73.0764 37.2658 71.8686 36.8998 70.6924C36.8137 70.4193 36.7276 70.1567 36.6522 69.8837C36.3508 68.907 36.0709 67.9512 35.8126 67.0165C33.7564 59.7068 32.8091 53.6679 32.7876 50.3596C32.7876 49.4984 32.8307 48.8262 32.9491 48.3641L32.9383 48.3536Z" fill="#210603"/>
<path d="M67.3003 62.1327C67.1496 63.4981 66.9882 64.9054 66.8159 66.3337C66.6975 67.3105 66.5791 68.2977 66.4499 69.3059C66.3853 69.8731 66.3099 70.4402 66.2346 71.0178C66.1269 71.8895 66.0193 72.7717 65.9116 73.654C65.8793 73.9165 65.8471 74.1896 65.8148 74.4522C65.7394 75.0508 65.6641 75.6599 65.5995 76.2586C65.5672 76.5421 65.5349 76.8362 65.5026 77.1198C63.7048 92.3378 62.4991 108.176 67.7848 116.42C67.8063 116.452 67.8278 116.494 67.8493 116.525C67.9893 116.735 67.9247 117.008 67.7094 117.134C67.634 117.176 67.5479 117.208 67.4618 117.208C67.408 117.208 67.3649 117.208 67.3219 117.187C67.2573 117.166 67.1927 117.124 67.1389 117.082C67.1173 117.061 67.0958 117.04 67.0743 117.008C66.7405 116.504 66.4499 115.968 66.1592 115.422C61.7456 106.758 62.8329 91.9388 64.5122 77.6029C64.5445 77.3193 64.5768 77.0358 64.6091 76.7522C64.706 75.9435 64.8029 75.1348 64.8997 74.3261C64.932 74.095 64.9536 73.864 64.9858 73.6434C65.0181 73.3494 65.0612 73.0658 65.0935 72.7718C65.1689 72.1521 65.2442 71.5324 65.3196 70.9233C65.3196 70.9233 65.3196 70.9023 65.3196 70.8918C65.5026 69.453 65.6748 68.0351 65.8471 66.6278C66.0301 65.1049 66.2023 63.6136 66.3638 62.1433C66.3961 61.8807 66.4176 61.6076 66.4499 61.3451C66.5575 60.3053 66.6652 59.2761 66.7513 58.2783C67.451 50.4855 67.4295 44.121 65.3842 41.3484C65.3411 41.2958 65.3088 41.2328 65.2657 41.1803C64.8997 40.7287 64.4799 40.4031 64.0062 40.1826C63.6618 40.0251 63.285 39.92 62.8651 39.8675C62.6175 39.836 62.4345 39.6259 62.4668 39.3739C62.4991 39.1323 62.7252 38.9538 62.9728 38.9853C63.0159 38.9853 63.0589 38.9958 63.0912 39.0063C64.1139 39.1429 64.9859 39.5734 65.6856 40.2981C65.7932 40.4031 65.8901 40.5187 65.987 40.6342C68.3445 43.5329 68.4199 49.9919 67.6879 58.2048C67.591 59.2341 67.4941 60.2843 67.3757 61.3661C67.3434 61.6286 67.3219 61.8912 67.2896 62.1643L67.3003 62.1327Z" fill="#210603"/>
<path d="M43.3697 45.8747C42.9498 45.8747 42.6807 45.8537 42.6269 45.8537C42.3793 45.8327 42.1963 45.6226 42.2178 45.3706C42.2393 45.129 42.4654 44.9505 42.713 44.9715C42.7668 44.9715 48.1385 45.3811 49.1289 42.1463C49.2043 41.9153 49.4519 41.7787 49.6995 41.8522C49.9363 41.9258 50.0763 42.1673 50.0009 42.4089C49.032 45.5491 45.0598 45.8852 43.3804 45.8852L43.3697 45.8747Z" fill="#210603"/>
<path d="M61.6163 39.3626C60.3783 40.9695 58.9143 41.3895 57.7301 41.3895C56.4706 41.3895 55.5233 40.9169 55.5017 40.9064C55.2757 40.7909 55.1896 40.5283 55.308 40.3078C55.4264 40.0872 55.6955 40.0137 55.9216 40.1188C56.04 40.1818 58.8066 41.5366 60.8843 38.8269C61.035 38.6274 61.3149 38.5959 61.5194 38.7429C61.7239 38.89 61.7562 39.163 61.6055 39.3626H61.6163Z" fill="#210603"/>
</g>
</g>
<defs>
<clipPath id="clip0_2566_16002">
<rect width="96" height="96" fill="white"/>
</clipPath>
</defs>
</svg>
