<?xml version="1.0" encoding="UTF-8"?>
<svg id="_レイヤー_1" data-name="レイヤー_1" xmlns="http://www.w3.org/2000/svg" xmlns:xlink="http://www.w3.org/1999/xlink" version="1.1" viewBox="0 0 65 64">
  <!-- Generator: Adobe Illustrator 29.2.1, SVG Export Plug-In . SVG Version: 2.1.0 Build 116)  -->
  <defs>
    <style>
      .st0 {
        fill: none;
      }

      .st1 {
        fill: #bf0000;
        fill-rule: evenodd;
      }

      .st2 {
        fill: #fff;
      }

      .st3 {
        clip-path: url(#clippath);
      }
    </style>
    <clipPath id="clippath">
      <rect class="st0" x=".6" y="0" width="64" height="64"/>
    </clipPath>
  </defs>
  <g class="st3">
    <g>
      <path class="st2" d="M50.2,0H15C7.1,0,.6,6.5.6,14.4v35.1c0,8,6.5,14.4,14.4,14.4h35.1c8,0,14.4-6.5,14.4-14.4V14.4C64.6,6.5,58.1,0,50.2,0Z"/>
      <path class="st1" d="M51.4,16.6l-17.8,17.8c-.6.6-1.5.6-2.1,0L13.8,16.6c.6-.7,1.4-1.1,2.3-1.1h33c.9,0,1.8.4,2.3,1.1ZM32.6,37.8c1.2,0,2.3-.4,3.2-1.3l16.3-16.3v25.3c0,1.7-1.3,3-3,3H16.1c-1.7,0-3-1.3-3-3v-25.3l16.3,16.3c.9.9,2,1.3,3.2,1.3Z"/>
    </g>
  </g>
</svg>