<svg width="151" height="68" viewBox="0 0 151 68" fill="none" xmlns="http://www.w3.org/2000/svg">
<path d="M78.0532 20.7587C78.0532 16.5916 78.5366 13.08 79.5034 10.1302C81.437 4.27751 85.0811 1 89.9895 1C92.4809 1 94.6004 1.79597 96.4224 3.34108C99.9922 6.52495 102 12.4713 102 20.7587C102 24.9258 101.517 28.4375 100.55 31.3872C98.6163 37.2867 94.935 40.5174 89.9895 40.5174C87.5353 40.5174 85.4158 39.7215 83.6309 38.1295C80.0612 34.9925 78.0532 28.9993 78.0532 20.7587ZM84.449 20.7587C84.449 28.7652 86.4198 33.2601 89.9895 33.2601C93.5964 33.2601 95.6044 28.6716 95.6044 20.8055C95.6044 12.799 93.5592 8.25735 89.9895 8.25735C86.4198 8.25735 84.449 12.7522 84.449 20.7587Z" fill="#F16122"/>
<path d="M50.7957 20.7587C50.7957 16.5916 51.2791 13.08 52.2459 10.1302C54.1795 4.27751 57.8236 1 62.7319 1C65.2233 1 67.3428 1.79597 69.1649 3.34108C72.7346 6.52495 74.7426 12.4713 74.7426 20.7587C74.7426 24.9258 74.2592 28.4375 73.2924 31.3872C71.3588 37.2867 67.6775 40.5174 62.7319 40.5174C60.2777 40.5174 58.1582 39.7215 56.3734 38.1295C52.8036 34.9925 50.7957 28.9993 50.7957 20.7587ZM57.1914 20.7587C57.1914 28.7652 59.1622 33.2601 62.7319 33.2601C66.3388 33.2601 68.3468 28.6716 68.3468 20.8055C68.3468 12.799 66.3016 8.25735 62.7319 8.25735C59.1622 8.25735 57.1914 12.7522 57.1914 20.7587Z" fill="#F16122"/>
<path d="M23.5425 20.7587C23.5425 16.5916 24.0259 13.08 24.9927 10.1302C26.9263 4.27751 30.5704 1 35.4788 1C37.9701 1 40.0896 1.79597 41.9117 3.34108C45.4814 6.52495 47.4894 12.4713 47.4894 20.7587C47.4894 24.9258 47.006 28.4375 46.0392 31.3872C44.1056 37.2867 40.4243 40.5174 35.4788 40.5174C33.0246 40.5174 30.905 39.7215 29.1202 38.1295C25.5505 34.9925 23.5425 28.9993 23.5425 20.7587ZM29.9382 20.7587C29.9382 28.7652 31.909 33.2601 35.4788 33.2601C39.0857 33.2601 41.0936 28.6716 41.0936 20.8055C41.0936 12.799 39.0485 8.25735 35.4788 8.25735C31.909 8.25735 29.9382 12.7522 29.9382 20.7587Z" fill="#F16122"/>
<path d="M17.5424 36.8798C17.5424 35.6758 18.2596 34.833 19.2636 34.833C20.4269 34.833 21.2237 36.037 21.2237 37.9433C21.2237 40.1907 20.2516 42.0168 18.3871 43L17.3193 41.495C18.6739 40.873 19.4548 39.9499 19.662 38.746C19.5026 38.8463 19.3114 38.8864 19.0723 38.8864C18.2277 38.8864 17.5424 38.0236 17.5424 36.8798Z" fill="#F16122"/>
<path d="M13.5724 39.7214H7.43693V10.7388L2.11952 16.0297L0 9.52146L8.32936 1.7959H13.5724V39.7214Z" fill="#F16122"/>
<path d="M122.804 5.895V8.793H115.306V21.558H111.764V8.793H104.266V5.573H111.764V1.962H115.306V5.573H120.044C119.377 5.09 118.963 4.308 118.963 3.434C118.963 1.962 120.182 0.788999 121.7 0.788999C123.218 0.788999 124.414 1.962 124.414 3.434C124.414 4.515 123.747 5.458 122.804 5.895ZM121.7 2.123C120.964 2.123 120.366 2.744 120.366 3.434C120.366 4.193 120.941 4.768 121.7 4.768C122.436 4.768 123.034 4.17 123.034 3.434C123.034 2.744 122.436 2.123 121.7 2.123ZM117.353 11.116L120.596 10.357C121.24 13.232 122.39 16.36 123.678 18.407L120.412 19.902C118.94 17.625 117.928 14.29 117.353 11.116ZM106.543 19.994L103.3 18.66C104.864 16.613 105.83 13.646 106.359 10.449L109.625 11.116C109.096 14.566 108.153 17.832 106.543 19.994ZM140.56 1.456L143.435 3.549C141.457 5.688 139.502 7.459 137.409 8.977V21.65H133.752V11.277C131.613 12.45 129.267 13.508 126.99 14.382L124.598 11.53C131.107 9.368 136.65 6.102 140.56 1.456ZM114.133 27.01L112.592 30.115C110.292 28.712 108.084 27.884 105.462 27.079L106.957 24.089C109.556 24.825 111.856 25.814 114.133 27.01ZM106.267 42.144L105.968 38.533C109.165 38.096 112.339 37.153 115.007 35.336C117.744 33.473 119.906 30.161 121.056 26.044L123.885 28.505C122.62 32.392 120.435 35.773 117.56 38.027C114.731 40.235 110.269 41.73 106.267 42.144ZM142.423 32.921L141.181 36.371C138.444 34.669 135.224 33.266 132.625 32.392V42.604H128.991V22.893H132.625V28.712C136.167 29.862 139.709 31.357 142.423 32.921Z" fill="#F16122"/>
<path d="M10.1861 52.496C11.0981 53.136 12.1381 54.128 12.8101 55.024L11.0501 56.784C10.2181 55.744 9.62606 55.008 8.55406 54.192L10.1861 52.496ZM13.2581 64.448C13.8021 64.704 14.5861 64.832 15.1941 64.832H23.6741L23.1781 67.104H14.8741C14.2821 67.104 13.4341 66.88 12.9061 66.608C12.3141 66.32 11.9461 65.952 11.5301 65.456C10.8581 66.208 10.0101 67.008 9.16206 67.536L8.28206 64.976C8.85806 64.704 9.38606 64.368 9.88206 63.952V60.528H8.47406V58.272H12.1701V62.896C12.2981 63.584 12.5061 64.048 13.1461 64.384V55.936H15.3701C15.0661 55.728 14.7301 55.536 14.3941 55.344L15.3381 54.688H13.0821V52.848H22.5061V54.688C21.8181 55.2 21.1781 55.552 20.4101 55.936H22.9061V63.072C22.9061 63.408 22.8421 63.856 22.6021 64.08C22.3941 64.304 21.9621 64.448 21.6581 64.448H19.7381L19.3701 62.624H20.3141C20.5861 62.624 20.6661 62.496 20.6661 62.256V61.856H19.0981V64.384H16.8741V61.856H15.3541V64.448H13.2581ZM16.7941 54.688C17.1621 54.976 17.5781 55.296 17.9301 55.616C18.5061 55.28 18.7941 55.136 19.3381 54.688H16.7941ZM16.8741 57.536H15.3541V58.32H16.8741V57.536ZM20.6661 57.536H19.0981V58.32H20.6661V57.536ZM16.8741 59.664H15.3541V60.448H16.8741V59.664ZM20.6661 59.664H19.0981V60.448H20.6661V59.664ZM26.9221 58.432H24.7941V54.272H26.7621C26.5541 53.808 26.2981 53.36 26.0261 52.944L28.4901 52.4C28.8101 52.896 29.1781 53.712 29.4181 54.272H30.6661V52.384H33.0821V54.272H34.4261C34.7781 53.6 35.0021 53.056 35.2901 52.368L37.7061 52.944C37.5301 53.392 37.3541 53.84 37.0981 54.272H39.0501V58.432H36.9061V60.8H33.0981V61.536H38.4101V65.248C38.4101 65.632 38.3941 66.128 38.1061 66.448C37.8341 66.736 37.3381 66.864 36.9381 66.864H34.6501L34.1701 64.736H35.5461C35.8021 64.736 36.0261 64.704 36.0261 64.32V63.392H33.0981V67.424H30.6661V63.392H27.8021V66.864H25.3701V61.536H30.6661V60.8H26.9221V58.432ZM27.1301 56.8H36.6981V56.16H27.1301V56.8ZM34.6021 58.32H29.2261V59.296H34.6021V58.32ZM55.1621 62.896L54.5061 65.088C53.5941 64.512 52.7941 64.08 51.9941 63.744C51.9461 64.656 51.6901 65.28 51.3061 65.728C50.7461 66.384 49.8341 66.704 48.6981 66.704C46.7301 66.704 45.0981 65.584 45.0981 63.744C45.0981 62.432 45.8821 61.536 46.9701 61.136C47.4661 60.944 48.0101 60.88 48.5701 60.88C48.8741 60.88 49.2261 60.896 49.5781 60.944C49.5781 60.096 49.5781 58.944 49.5621 57.744C48.2021 57.76 46.8261 57.728 45.4021 57.664L45.4821 55.472C46.8741 55.536 48.2021 55.568 49.5461 55.568C49.5301 54.592 49.5301 53.712 49.5141 53.072H51.9141C51.9301 53.984 51.9301 54.784 51.9461 55.52C52.8421 55.488 53.7541 55.44 54.6981 55.376L54.7301 57.552C53.7861 57.616 52.8741 57.664 51.9621 57.696C51.9781 58.768 51.9781 59.952 51.9941 61.488C53.0341 61.84 54.1701 62.352 55.1621 62.896ZM42.2181 53.328L44.6341 53.488C44.1701 55.776 43.8981 58.432 43.8981 60.784C43.8981 62.496 44.0741 64.336 44.3621 66.176L41.9621 66.448C41.6901 64.576 41.5301 62.704 41.5301 60.784C41.5301 58.304 41.8341 55.664 42.2181 53.328ZM48.5541 64.688C49.0181 64.688 49.2421 64.56 49.4021 64.304C49.5461 64.08 49.6101 63.648 49.6261 62.976C49.2101 62.912 48.8261 62.864 48.5541 62.864C48.2661 62.864 48.0741 62.88 47.8661 62.944C47.4661 63.072 47.2421 63.392 47.2421 63.728C47.2421 64.368 47.8181 64.688 48.5541 64.688ZM61.8981 66.464H59.2581V56.56L56.9701 58.368L56.0581 56.144L59.6421 53.504H61.8981V66.464ZM64.1664 59.984C64.1664 58.56 64.3744 57.36 64.7904 56.352C65.6224 54.352 67.1904 53.232 69.3024 53.232C70.3744 53.232 71.2864 53.504 72.0704 54.032C73.6064 55.12 74.4704 57.152 74.4704 59.984C74.4704 61.408 74.2624 62.608 73.8464 63.616C73.0144 65.632 71.4304 66.736 69.3024 66.736C68.2464 66.736 67.3344 66.464 66.5664 65.92C65.0304 64.848 64.1664 62.8 64.1664 59.984ZM66.9184 59.984C66.9184 62.72 67.7664 64.256 69.3024 64.256C70.8544 64.256 71.7184 62.688 71.7184 60C71.7184 57.264 70.8384 55.712 69.3024 55.712C67.7664 55.712 66.9184 57.248 66.9184 59.984ZM76.0102 59.984C76.0102 58.56 76.2182 57.36 76.6342 56.352C77.4662 54.352 79.0342 53.232 81.1462 53.232C82.2182 53.232 83.1302 53.504 83.9142 54.032C85.4502 55.12 86.3142 57.152 86.3142 59.984C86.3142 61.408 86.1062 62.608 85.6902 63.616C84.8582 65.632 83.2742 66.736 81.1462 66.736C80.0902 66.736 79.1782 66.464 78.4102 65.92C76.8742 64.848 76.0102 62.8 76.0102 59.984ZM78.7622 59.984C78.7622 62.72 79.6102 64.256 81.1462 64.256C82.6982 64.256 83.5622 62.688 83.5622 60C83.5622 57.264 82.6822 55.712 81.1462 55.712C79.6102 55.712 78.7622 57.248 78.7622 59.984ZM101.534 55.84V57.856H96.3179V66.736H93.8539V57.856H88.6379V55.616H93.8539V53.104H96.3179V55.616H99.6139C99.1499 55.28 98.8619 54.736 98.8619 54.128C98.8619 53.104 99.7099 52.288 100.766 52.288C101.822 52.288 102.654 53.104 102.654 54.128C102.654 54.88 102.19 55.536 101.534 55.84ZM100.766 53.216C100.254 53.216 99.8379 53.648 99.8379 54.128C99.8379 54.656 100.238 55.056 100.766 55.056C101.278 55.056 101.694 54.64 101.694 54.128C101.694 53.648 101.278 53.216 100.766 53.216ZM97.7419 59.472L99.9979 58.944C100.446 60.944 101.246 63.12 102.142 64.544L99.8699 65.584C98.8459 64 98.1419 61.68 97.7419 59.472ZM90.2219 65.648L87.9659 64.72C89.0539 63.296 89.7259 61.232 90.0939 59.008L92.3659 59.472C91.9979 61.872 91.3419 64.144 90.2219 65.648ZM113.326 52.752L115.326 54.208C113.95 55.696 112.59 56.928 111.134 57.984V66.8H108.59V59.584C107.102 60.4 105.47 61.136 103.886 61.744L102.222 59.76C106.75 58.256 110.606 55.984 113.326 52.752ZM123.102 55.92L122.03 58.08C120.43 57.104 118.894 56.528 117.07 55.968L118.11 53.888C119.918 54.4 121.518 55.088 123.102 55.92ZM117.63 66.448L117.422 63.936C119.646 63.632 121.854 62.976 123.71 61.712C125.614 60.416 127.118 58.112 127.918 55.248L129.886 56.96C129.006 59.664 127.486 62.016 125.486 63.584C123.518 65.12 120.414 66.16 117.63 66.448ZM141.022 60.032L140.158 62.432C138.254 61.248 136.014 60.272 134.206 59.664V66.768H131.678V53.056H134.206V57.104C136.67 57.904 139.134 58.944 141.022 60.032Z" fill="#F16122"/>
</svg>
