<svg width="143" height="66" viewBox="0 0 143 66" fill="none" xmlns="http://www.w3.org/2000/svg">
<path d="M3.044 21.96C3.044 17.688 3.716 13.944 5.06 10.728C7.748 4.344 12.788 0.695998 19.46 0.695998C23.828 0.695998 27.668 2.184 31.076 5.16L28.244 11.496C25.508 8.616 23.108 7.464 20.084 7.464C14.324 7.464 11.156 11.832 10.82 20.088C12.404 16.632 15.428 14.904 19.892 14.904C22.244 14.904 24.356 15.432 26.18 16.536C29.78 18.696 31.892 22.632 31.892 27.672C31.892 30.312 31.316 32.664 30.116 34.68C27.764 38.76 23.492 41.208 17.924 41.208C8.516 41.208 3.044 34.104 3.044 21.96ZM11.78 28.008C11.78 31.992 14.324 34.824 17.924 34.824C21.62 34.824 24.212 31.992 24.212 27.96C24.212 23.928 21.764 21.24 17.972 21.24C14.324 21.24 11.78 23.928 11.78 28.008ZM36.3665 20.952C36.3665 16.68 36.9905 13.08 38.2385 10.056C40.7345 4.056 45.4385 0.695998 51.7745 0.695998C54.9905 0.695998 57.7265 1.512 60.0785 3.096C64.6865 6.36 67.2785 12.456 67.2785 20.952C67.2785 25.224 66.6545 28.824 65.4065 31.848C62.9105 37.896 58.1585 41.208 51.7745 41.208C48.6065 41.208 45.8705 40.392 43.5665 38.76C38.9585 35.544 36.3665 29.4 36.3665 20.952ZM44.6225 20.952C44.6225 29.16 47.1665 33.768 51.7745 33.768C56.4305 33.768 59.0225 29.064 59.0225 21C59.0225 12.792 56.3825 8.136 51.7745 8.136C47.1665 8.136 44.6225 12.744 44.6225 20.952ZM72.0178 19.512H91.1698V40.416H72.0178V19.512ZM75.7378 28.08H87.3778V23.064H75.7378V28.08ZM75.7378 31.536V36.864H87.3778V31.536H75.7378ZM97.8418 23.976C97.2178 24.576 96.7617 24.936 95.9938 25.344L93.9778 22.56C95.6338 21.576 97.3858 20.184 98.2018 18.384L101.754 18.816C101.538 19.344 101.37 19.656 101.082 20.16H116.298V23.376H114.354V25.704H116.874V28.944H114.354V31.296H116.298V34.512H94.9138V31.296H97.5538V28.944H94.3618V25.704H97.8418V23.976ZM102.306 23.376H100.602V25.704H102.306V23.376ZM106.77 23.376H105.018V25.704H106.77V23.376ZM111.21 23.376H109.458V25.704H111.21V23.376ZM102.306 28.944H100.602V31.296H102.306V28.944ZM106.77 28.944H105.018V31.296H106.77V28.944ZM111.21 28.944H109.458V31.296H111.21V28.944ZM99.9297 35.712C99.2578 37.872 98.5378 39.648 97.0978 41.4L94.0738 39.336C95.3698 37.968 96.1858 36.336 96.8338 34.56L99.9297 35.712ZM113.922 34.56C115.29 36.384 116.082 37.704 117.066 39.768L113.754 41.352C112.986 39.432 111.93 37.608 110.826 35.856L113.922 34.56ZM108.93 35.184C109.554 36.696 110.442 39.216 110.682 40.8L107.13 41.088C106.89 39.096 106.434 37.296 105.762 35.424L108.93 35.184ZM104.082 35.352C104.37 36.936 104.514 39.336 104.514 40.944L100.938 41.04C101.13 39.912 101.13 38.424 101.13 37.272C101.13 36.624 101.13 36.048 101.082 35.448L104.082 35.352ZM127.65 33.672L126.714 35.808C126.162 34.992 125.85 34.368 125.418 33.456V41.136H122.01V33.84C121.17 35.592 120.354 36.744 119.106 38.208L117.906 33.984C119.562 32.664 120.69 30.984 121.626 29.088H118.386V25.848H122.01V18.624H125.418V25.848H128.73V27.792L130.77 25.44C132.282 26.352 133.554 27.408 134.778 28.68L132.33 31.32C131.322 30.096 130.074 28.872 128.73 28.08V29.088H125.658C126.306 30.36 127.194 31.464 128.202 32.472L128.01 32.928L135.306 31.512V23.016L133.17 25.392C131.97 23.928 130.962 22.968 129.426 21.864L131.586 19.512C132.954 20.352 134.202 21.336 135.306 22.488V18.576H138.954V30.792L140.658 30.456L140.97 33.984L138.954 34.368V41.064H135.306V35.088L128.058 36.48L127.65 33.672ZM129.618 20.064C129.306 21.72 128.658 23.616 127.938 25.128L125.562 24.048C126.114 22.728 126.666 20.832 126.858 19.392L129.618 20.064ZM120.45 19.464C121.002 20.88 121.434 22.584 121.65 24.072L119.13 25.104C119.01 23.304 118.698 21.84 118.026 20.184L120.45 19.464Z" fill="#F16122"/>
<path d="M14.7486 50.496C15.6606 51.136 16.7006 52.128 17.3726 53.024L15.6126 54.784C14.7806 53.744 14.1886 53.008 13.1166 52.192L14.7486 50.496ZM17.8206 62.448C18.3646 62.704 19.1486 62.832 19.7566 62.832H28.2366L27.7406 65.104H19.4366C18.8446 65.104 17.9966 64.88 17.4686 64.608C16.8766 64.32 16.5086 63.952 16.0926 63.456C15.4206 64.208 14.5726 65.008 13.7246 65.536L12.8446 62.976C13.4206 62.704 13.9486 62.368 14.4446 61.952V58.528H13.0366V56.272H16.7326V60.896C16.8606 61.584 17.0686 62.048 17.7086 62.384V53.936H19.9326C19.6286 53.728 19.2926 53.536 18.9566 53.344L19.9006 52.688H17.6446V50.848H27.0686V52.688C26.3806 53.2 25.7406 53.552 24.9726 53.936H27.4686V61.072C27.4686 61.408 27.4046 61.856 27.1646 62.08C26.9566 62.304 26.5246 62.448 26.2206 62.448H24.3006L23.9326 60.624H24.8766C25.1486 60.624 25.2286 60.496 25.2286 60.256V59.856H23.6606V62.384H21.4366V59.856H19.9166V62.448H17.8206ZM21.3566 52.688C21.7246 52.976 22.1406 53.296 22.4926 53.616C23.0686 53.28 23.3566 53.136 23.9006 52.688H21.3566ZM21.4366 55.536H19.9166V56.32H21.4366V55.536ZM25.2286 55.536H23.6606V56.32H25.2286V55.536ZM21.4366 57.664H19.9166V58.448H21.4366V57.664ZM25.2286 57.664H23.6606V58.448H25.2286V57.664ZM31.4846 56.432H29.3566V52.272H31.3246C31.1166 51.808 30.8606 51.36 30.5886 50.944L33.0526 50.4C33.3726 50.896 33.7406 51.712 33.9806 52.272H35.2286V50.384H37.6446V52.272H38.9886C39.3406 51.6 39.5646 51.056 39.8526 50.368L42.2686 50.944C42.0926 51.392 41.9166 51.84 41.6606 52.272H43.6126V56.432H41.4686V58.8H37.6606V59.536H42.9726V63.248C42.9726 63.632 42.9566 64.128 42.6686 64.448C42.3966 64.736 41.9006 64.864 41.5006 64.864H39.2126L38.7326 62.736H40.1086C40.3646 62.736 40.5886 62.704 40.5886 62.32V61.392H37.6606V65.424H35.2286V61.392H32.3646V64.864H29.9326V59.536H35.2286V58.8H31.4846V56.432ZM31.6926 54.8H41.2606V54.16H31.6926V54.8ZM39.1646 56.32H33.7886V57.296H39.1646V56.32ZM59.7246 60.896L59.0686 63.088C58.1566 62.512 57.3566 62.08 56.5566 61.744C56.5086 62.656 56.2526 63.28 55.8686 63.728C55.3086 64.384 54.3966 64.704 53.2606 64.704C51.2926 64.704 49.6606 63.584 49.6606 61.744C49.6606 60.432 50.4446 59.536 51.5326 59.136C52.0286 58.944 52.5726 58.88 53.1326 58.88C53.4366 58.88 53.7886 58.896 54.1406 58.944C54.1406 58.096 54.1406 56.944 54.1246 55.744C52.7646 55.76 51.3886 55.728 49.9646 55.664L50.0446 53.472C51.4366 53.536 52.7646 53.568 54.1086 53.568C54.0926 52.592 54.0926 51.712 54.0766 51.072H56.4766C56.4926 51.984 56.4926 52.784 56.5086 53.52C57.4046 53.488 58.3166 53.44 59.2606 53.376L59.2926 55.552C58.3486 55.616 57.4366 55.664 56.5246 55.696C56.5406 56.768 56.5406 57.952 56.5566 59.488C57.5966 59.84 58.7326 60.352 59.7246 60.896ZM46.7806 51.328L49.1966 51.488C48.7326 53.776 48.4606 56.432 48.4606 58.784C48.4606 60.496 48.6366 62.336 48.9246 64.176L46.5246 64.448C46.2526 62.576 46.0926 60.704 46.0926 58.784C46.0926 56.304 46.3966 53.664 46.7806 51.328ZM53.1166 62.688C53.5806 62.688 53.8046 62.56 53.9646 62.304C54.1086 62.08 54.1726 61.648 54.1886 60.976C53.7726 60.912 53.3886 60.864 53.1166 60.864C52.8286 60.864 52.6366 60.88 52.4286 60.944C52.0286 61.072 51.8046 61.392 51.8046 61.728C51.8046 62.368 52.3806 62.688 53.1166 62.688ZM67.3086 60.656C67.3086 59.584 66.4126 58.944 64.9886 58.944H63.4686V56.608H65.1326C66.3326 56.608 67.1006 55.984 67.1006 55.072C67.1006 54.128 66.3486 53.584 65.1806 53.584C64.0446 53.584 63.0526 54.112 62.2046 55.152L61.2286 53.008C62.2686 51.824 63.6446 51.232 65.3406 51.232C66.2046 51.232 66.9726 51.376 67.6286 51.664C68.9566 52.24 69.7086 53.28 69.7086 54.64C69.7086 56 68.8926 57.104 67.4846 57.68C69.1646 58.176 70.0126 59.248 70.0126 60.864C70.0126 61.648 69.8206 62.32 69.4366 62.896C68.6686 64.064 67.2446 64.736 65.3886 64.736C63.4846 64.736 61.9326 64.064 60.7166 62.736L61.8366 60.576C62.7966 61.776 63.9166 62.368 65.1806 62.368C66.4606 62.368 67.3086 61.68 67.3086 60.656ZM71.4477 57.984C71.4477 56.56 71.6557 55.36 72.0717 54.352C72.9037 52.352 74.4717 51.232 76.5837 51.232C77.6557 51.232 78.5677 51.504 79.3517 52.032C80.8877 53.12 81.7517 55.152 81.7517 57.984C81.7517 59.408 81.5437 60.608 81.1277 61.616C80.2957 63.632 78.7117 64.736 76.5837 64.736C75.5277 64.736 74.6157 64.464 73.8477 63.92C72.3117 62.848 71.4477 60.8 71.4477 57.984ZM74.1997 57.984C74.1997 60.72 75.0477 62.256 76.5837 62.256C78.1357 62.256 78.9997 60.688 78.9997 58C78.9997 55.264 78.1197 53.712 76.5837 53.712C75.0477 53.712 74.1997 55.248 74.1997 57.984ZM84.1394 51.008H96.9074V64.944H84.1394V51.008ZM86.6194 56.72H94.3794V53.376H86.6194V56.72ZM86.6194 59.024V62.576H94.3794V59.024H86.6194ZM101.355 53.984C100.939 54.384 100.635 54.624 100.123 54.896L98.7794 53.04C99.8834 52.384 101.051 51.456 101.595 50.256L103.963 50.544C103.819 50.896 103.707 51.104 103.515 51.44H113.659V53.584H112.363V55.136H114.043V57.296H112.363V58.864H113.659V61.008H99.4034V58.864H101.163V57.296H99.0354V55.136H101.355V53.984ZM104.331 53.584H103.195V55.136H104.331V53.584ZM107.307 53.584H106.139V55.136H107.307V53.584ZM110.267 53.584H109.099V55.136H110.267V53.584ZM104.331 57.296H103.195V58.864H104.331V57.296ZM107.307 57.296H106.139V58.864H107.307V57.296ZM110.267 57.296H109.099V58.864H110.267V57.296ZM102.747 61.808C102.299 63.248 101.819 64.432 100.859 65.6L98.8434 64.224C99.7074 63.312 100.251 62.224 100.683 61.04L102.747 61.808ZM112.075 61.04C112.987 62.256 113.515 63.136 114.171 64.512L111.963 65.568C111.451 64.288 110.747 63.072 110.011 61.904L112.075 61.04ZM108.747 61.456C109.163 62.464 109.755 64.144 109.915 65.2L107.547 65.392C107.387 64.064 107.083 62.864 106.635 61.616L108.747 61.456ZM105.515 61.568C105.707 62.624 105.803 64.224 105.803 65.296L103.419 65.36C103.547 64.608 103.547 63.616 103.547 62.848C103.547 62.416 103.547 62.032 103.515 61.632L105.515 61.568ZM121.227 60.448L120.603 61.872C120.235 61.328 120.027 60.912 119.739 60.304V65.424H117.467V60.56C116.907 61.728 116.363 62.496 115.531 63.472L114.731 60.656C115.835 59.776 116.587 58.656 117.211 57.392H115.051V55.232H117.467V50.416H119.739V55.232H121.947V56.528L123.307 54.96C124.315 55.568 125.163 56.272 125.979 57.12L124.347 58.88C123.675 58.064 122.843 57.248 121.947 56.72V57.392H119.899C120.331 58.24 120.923 58.976 121.595 59.648L121.467 59.952L126.331 59.008V53.344L124.907 54.928C124.107 53.952 123.435 53.312 122.411 52.576L123.851 51.008C124.763 51.568 125.595 52.224 126.331 52.992V50.384H128.763V58.528L129.899 58.304L130.107 60.656L128.763 60.912V65.376H126.331V61.392L121.499 62.32L121.227 60.448ZM122.539 51.376C122.331 52.48 121.899 53.744 121.419 54.752L119.835 54.032C120.203 53.152 120.571 51.888 120.699 50.928L122.539 51.376ZM116.427 50.976C116.795 51.92 117.083 53.056 117.227 54.048L115.547 54.736C115.467 53.536 115.259 52.56 114.811 51.456L116.427 50.976Z" fill="#F16122"/>
</svg>
