<svg width="233" height="123" viewBox="0 0 233 123" fill="none" xmlns="http://www.w3.org/2000/svg">
<path d="M178.299 35.8442C178.299 28.2846 179.404 21.9142 181.612 16.5631C186.029 5.94572 194.353 0 205.565 0C211.256 0 216.097 1.44396 220.259 4.24694C228.413 10.0228 233 20.81 233 35.8442C233 43.4037 231.896 49.7742 229.687 55.1253C225.271 65.8276 216.862 71.6884 205.565 71.6884C199.959 71.6884 195.117 70.2444 191.04 67.3565C182.886 61.6656 178.299 50.7934 178.299 35.8442ZM192.909 35.8442C192.909 50.3687 197.411 58.5229 205.565 58.5229C213.804 58.5229 218.39 50.1988 218.39 35.9291C218.39 21.4046 213.719 13.1655 205.565 13.1655C197.411 13.1655 192.909 21.3196 192.909 35.8442Z" fill="#F16122"/>
<path d="M116.036 35.8442C116.036 28.2846 117.14 21.9142 119.349 16.5631C123.766 5.94572 132.09 0 143.301 0C148.992 0 153.834 1.44396 157.996 4.24694C166.15 10.0228 170.737 20.81 170.737 35.8442C170.737 43.4037 169.632 49.7742 167.424 55.1253C163.007 65.8276 154.598 71.6884 143.301 71.6884C137.695 71.6884 132.854 70.2444 128.777 67.3565C120.623 61.6656 116.036 50.7934 116.036 35.8442ZM130.646 35.8442C130.646 50.3687 135.147 58.5229 143.301 58.5229C151.54 58.5229 156.127 50.1988 156.127 35.9291C156.127 21.4046 151.456 13.1655 143.301 13.1655C135.147 13.1655 130.646 21.3196 130.646 35.8442Z" fill="#F16122"/>
<path d="M53.7753 35.8442C53.7753 28.2846 54.8795 21.9142 57.0879 16.5631C61.5047 5.94572 69.8287 0 81.0406 0C86.7315 0 91.573 1.44396 95.735 4.24694C103.889 10.0228 108.476 20.81 108.476 35.8442C108.476 43.4037 107.372 49.7742 105.163 55.1253C100.746 65.8276 92.3375 71.6884 81.0406 71.6884C75.4347 71.6884 70.5931 70.2444 66.5161 67.3565C58.362 61.6656 53.7753 50.7934 53.7753 35.8442ZM68.3847 35.8442C68.3847 50.3687 72.8865 58.5229 81.0406 58.5229C89.2797 58.5229 93.8664 50.1988 93.8664 35.9291C93.8664 21.4046 89.1947 13.1655 81.0406 13.1655C72.8865 13.1655 68.3847 21.3196 68.3847 35.8442Z" fill="#F16122"/>
<path d="M40.0719 65.088C40.0719 62.9039 41.7101 61.375 44.0034 61.375C46.6608 61.375 48.4809 63.5591 48.4809 67.0174C48.4809 71.0944 46.2603 74.407 42.0013 76.1908L39.5623 73.4606C42.6565 72.3321 44.4402 70.6576 44.9135 68.4735C44.5494 68.6555 44.1126 68.7283 43.5666 68.7283C41.6372 68.7283 40.0719 67.163 40.0719 65.088Z" fill="#F16122"/>
<path d="M31.0027 70.2455H16.9878V17.6684L4.84151 27.2665L0 15.46L19.0263 1.44507H31.0027V70.2455Z" fill="#F16122"/>
<path d="M173.193 107.762L171.323 112.956C167.202 110.394 162.354 108.281 158.441 106.965V122.341H152.969V92.6624H158.441V101.424C163.774 103.156 169.107 105.407 173.193 107.762Z" fill="#F16122"/>
<path d="M134.881 98.8613L132.561 103.537C129.098 101.424 125.773 100.177 121.825 98.9652L124.076 94.4631C127.989 95.5713 131.452 97.0605 134.881 98.8613ZM123.037 121.649L122.587 116.212C127.401 115.554 132.18 114.134 136.197 111.398C140.318 108.593 143.573 103.606 145.305 97.4068L149.565 101.112C147.66 106.965 144.37 112.056 140.041 115.45C135.781 118.774 129.063 121.025 123.037 121.649Z" fill="#F16122"/>
<path d="M115.493 92.0042L119.821 95.1556C116.843 98.3763 113.899 101.043 110.748 103.329V122.41H105.242V106.792C102.021 108.558 98.4886 110.151 95.0601 111.467L91.4584 107.173C101.259 103.917 109.605 98.9997 115.493 92.0042Z" fill="#F16122"/>
<path d="M88.3673 98.6881V103.052H77.0775V122.272H71.7443V103.052H60.4545V98.2033H71.7443V92.7662H77.0775V98.2033H84.2115C83.2072 97.476 82.5839 96.2986 82.5839 94.9826C82.5839 92.7662 84.4193 91 86.705 91C88.9907 91 90.7915 92.7662 90.7915 94.9826C90.7915 96.6103 89.7872 98.0301 88.3673 98.6881ZM86.705 93.0086C85.5968 93.0086 84.6964 93.9437 84.6964 94.9826C84.6964 96.1254 85.5622 96.9912 86.705 96.9912C87.8132 96.9912 88.7136 96.0908 88.7136 94.9826C88.7136 93.9437 87.8132 93.0086 86.705 93.0086ZM80.1597 106.549L85.0427 105.407C86.0124 109.736 87.7439 114.445 89.6833 117.528L84.7656 119.779C82.5492 116.35 81.0255 111.329 80.1597 106.549ZM63.883 119.917L59 117.908C61.3549 114.826 62.8094 110.359 63.606 105.545L68.5236 106.549C67.7271 111.744 66.3072 116.662 63.883 119.917Z" fill="#F16122"/>
</svg>
