<svg width="95" height="65" viewBox="0 0 95 65" fill="none" xmlns="http://www.w3.org/2000/svg">
<path d="M18.452 40.392H10.532V10.68L3.668 16.104L0.932 9.432L11.684 1.512H18.452V40.392ZM25.2571 20.952C25.2571 16.68 25.8811 13.08 27.1291 10.056C29.6251 4.056 34.3291 0.695998 40.6651 0.695998C43.8811 0.695998 46.6171 1.512 48.9691 3.096C53.5771 6.36 56.1691 12.456 56.1691 20.952C56.1691 25.224 55.5451 28.824 54.2971 31.848C51.8011 37.896 47.0491 41.208 40.6651 41.208C37.4971 41.208 34.7611 40.392 32.4571 38.76C27.8491 35.544 25.2571 29.4 25.2571 20.952ZM33.5131 20.952C33.5131 29.16 36.0571 33.768 40.6651 33.768C45.3211 33.768 47.9131 29.064 47.9131 21C47.9131 12.792 45.2731 8.136 40.6651 8.136C36.0571 8.136 33.5131 12.744 33.5131 20.952ZM60.7884 20.952C60.7884 16.68 61.4124 13.08 62.6604 10.056C65.1564 4.056 69.8604 0.695998 76.1964 0.695998C79.4124 0.695998 82.1484 1.512 84.5004 3.096C89.1084 6.36 91.7004 12.456 91.7004 20.952C91.7004 25.224 91.0764 28.824 89.8284 31.848C87.3324 37.896 82.5804 41.208 76.1964 41.208C73.0284 41.208 70.2924 40.392 67.9884 38.76C63.3804 35.544 60.7884 29.4 60.7884 20.952ZM69.0444 20.952C69.0444 29.16 71.5884 33.768 76.1964 33.768C80.8524 33.768 83.4444 29.064 83.4444 21C83.4444 12.792 80.8044 8.136 76.1964 8.136C71.5884 8.136 69.0444 12.744 69.0444 20.952Z" fill="#F16122"/>
<path d="M26.66 51.3V53.82H20.14V64.92H17.06V53.82H10.54V51.02H17.06V47.88H20.14V51.02H24.26C23.68 50.6 23.32 49.92 23.32 49.16C23.32 47.88 24.38 46.86 25.7 46.86C27.02 46.86 28.06 47.88 28.06 49.16C28.06 50.1 27.48 50.92 26.66 51.3ZM25.7 48.02C25.06 48.02 24.54 48.56 24.54 49.16C24.54 49.82 25.04 50.32 25.7 50.32C26.34 50.32 26.86 49.8 26.86 49.16C26.86 48.56 26.34 48.02 25.7 48.02ZM21.92 55.84L24.74 55.18C25.3 57.68 26.3 60.4 27.42 62.18L24.58 63.48C23.3 61.5 22.42 58.6 21.92 55.84ZM12.52 63.56L9.7 62.4C11.06 60.62 11.9 58.04 12.36 55.26L15.2 55.84C14.74 58.84 13.92 61.68 12.52 63.56ZM43.9 47.44L46.4 49.26C44.68 51.12 42.98 52.66 41.16 53.98V65H37.98V55.98C36.12 57 34.08 57.92 32.1 58.68L30.02 56.2C35.68 54.32 40.5 51.48 43.9 47.44ZM58.62 51.4L57.28 54.1C55.28 52.88 53.36 52.16 51.08 51.46L52.38 48.86C54.64 49.5 56.64 50.36 58.62 51.4ZM51.78 64.56L51.52 61.42C54.3 61.04 57.06 60.22 59.38 58.64C61.76 57.02 63.64 54.14 64.64 50.56L67.1 52.7C66 56.08 64.1 59.02 61.6 60.98C59.14 62.9 55.26 64.2 51.78 64.56ZM83.82 56.54L82.74 59.54C80.36 58.06 77.56 56.84 75.3 56.08V64.96H72.14V47.82H75.3V52.88C78.38 53.88 81.46 55.18 83.82 56.54Z" fill="#F16122"/>
</svg>
