<svg width="65" height="64" viewBox="0 0 65 64" fill="none" xmlns="http://www.w3.org/2000/svg">
<g clip-path="url(#clip0_2566_15309)">
<path d="M50.3721 0H15.228C7.25968 0 0.800049 6.45964 0.800049 14.428V49.572C0.800049 57.5404 7.25968 64 15.228 64H50.3721C58.3404 64 64.8 57.5404 64.8 49.572V14.428C64.8 6.45964 58.3404 0 50.3721 0Z" fill="#06C755"/>
<path d="M54.1321 28.984C54.1321 19.436 44.5601 11.668 32.7941 11.668C21.0281 11.668 11.4561 19.436 11.4561 28.984C11.4561 37.544 19.0481 44.712 29.3021 46.068C29.9961 46.218 30.9421 46.526 31.1821 47.12C31.3981 47.66 31.3221 48.504 31.2521 49.05C31.2521 49.05 31.0021 50.556 30.9481 50.876C30.8541 51.416 30.5201 52.986 32.7961 52.026C35.0741 51.066 45.0841 44.79 49.5601 39.638C52.6521 36.246 54.1341 32.806 54.1341 28.984H54.1321Z" fill="white"/>
<path d="M47.032 34.498H41.038C40.812 34.498 40.63 34.316 40.63 34.09V34.084V24.788V24.778C40.63 24.552 40.812 24.37 41.038 24.37H47.032C47.256 24.37 47.44 24.554 47.44 24.778V26.292C47.44 26.518 47.258 26.7 47.032 26.7H42.958V28.272H47.032C47.256 28.272 47.44 28.456 47.44 28.68V30.194C47.44 30.42 47.258 30.602 47.032 30.602H42.958V32.174H47.032C47.256 32.174 47.44 32.358 47.44 32.582V34.096C47.44 34.322 47.258 34.504 47.032 34.504V34.498Z" fill="#06C755"/>
<path d="M24.8581 34.498C25.0821 34.498 25.2661 34.316 25.2661 34.09V32.576C25.2661 32.352 25.0821 32.168 24.8581 32.168H20.7841V24.776C20.7841 24.552 20.6001 24.368 20.3761 24.368H18.8621C18.6361 24.368 18.4541 24.55 18.4541 24.776V34.082V34.09C18.4541 34.316 18.6361 34.498 18.8621 34.498H24.8561H24.8581Z" fill="#06C755"/>
<path d="M28.466 24.37H26.954C26.7287 24.37 26.546 24.5527 26.546 24.778V34.09C26.546 34.3153 26.7287 34.498 26.954 34.498H28.466C28.6914 34.498 28.874 34.3153 28.874 34.09V24.778C28.874 24.5527 28.6914 24.37 28.466 24.37Z" fill="#06C755"/>
<path d="M38.7681 24.37H37.2541C37.0281 24.37 36.8461 24.552 36.8461 24.778V30.308L32.5861 24.554C32.5761 24.54 32.5641 24.526 32.5541 24.512C32.5541 24.512 32.5541 24.512 32.5521 24.51C32.5441 24.502 32.5361 24.492 32.5281 24.484C32.5261 24.482 32.5221 24.48 32.5201 24.478C32.5121 24.472 32.5061 24.466 32.4981 24.46C32.4941 24.458 32.4901 24.454 32.4861 24.452C32.4801 24.446 32.4721 24.442 32.4641 24.438C32.4601 24.436 32.4561 24.432 32.4521 24.43C32.4441 24.426 32.4381 24.422 32.4301 24.418C32.4261 24.416 32.4221 24.414 32.4181 24.412C32.4101 24.408 32.4021 24.404 32.3941 24.402C32.3901 24.402 32.3861 24.398 32.3801 24.398C32.3721 24.396 32.3641 24.392 32.3561 24.39C32.3521 24.39 32.3461 24.388 32.3421 24.386C32.3341 24.386 32.3261 24.382 32.3181 24.38C32.3121 24.38 32.3061 24.38 32.3001 24.378C32.2921 24.378 32.2861 24.376 32.2781 24.376C32.2701 24.376 32.2641 24.376 32.2561 24.376C32.2521 24.376 32.2461 24.376 32.2421 24.376H30.7381C30.5141 24.376 30.3301 24.558 30.3301 24.784V34.096C30.3301 34.32 30.5121 34.504 30.7381 34.504H32.2521C32.4781 34.504 32.6601 34.322 32.6601 34.096V28.566L36.9261 34.328C36.9561 34.37 36.9921 34.404 37.0321 34.43C37.0321 34.43 37.0361 34.432 37.0361 34.434C37.0441 34.44 37.0521 34.444 37.0621 34.45C37.0661 34.452 37.0701 34.454 37.0741 34.456C37.0801 34.46 37.0881 34.462 37.0941 34.466C37.1001 34.47 37.1081 34.472 37.1141 34.474C37.1181 34.474 37.1221 34.478 37.1261 34.478C37.1361 34.482 37.1441 34.484 37.1541 34.486C37.1541 34.486 37.1581 34.486 37.1601 34.486C37.1941 34.494 37.2301 34.5 37.2661 34.5H38.7701C38.9941 34.5 39.1781 34.318 39.1781 34.092V24.78C39.1781 24.556 38.9961 24.372 38.7701 24.372L38.7681 24.37Z" fill="#06C755"/>
</g>
<defs>
<clipPath id="clip0_2566_15309">
<rect width="64" height="64" fill="white" transform="translate(0.800049)"/>
</clipPath>
</defs>
</svg>
