<svg width="65" height="64" viewBox="0 0 65 64" fill="none" xmlns="http://www.w3.org/2000/svg">
<g clip-path="url(#clip0_2566_15328)">
<path d="M49.972 0H14.828C6.85966 0 0.400024 6.45964 0.400024 14.428V49.572C0.400024 57.5404 6.85966 64 14.828 64H49.972C57.9404 64 64.4 57.5404 64.4 49.572V14.428C64.4 6.45964 57.9404 0 49.972 0Z" fill="#7360F2"/>
<g clip-path="url(#clip1_2566_15328)">
<path d="M48.6591 14.1753C47.5586 13.1598 43.1113 9.93133 33.2052 9.88747C33.2052 9.88747 21.5235 9.18303 15.8288 14.4065C12.6588 17.5772 11.5437 22.2165 11.426 27.9684C11.3084 33.7202 11.1562 44.4995 21.5467 47.4222H21.5567L21.55 51.8822C21.55 51.8822 21.4836 53.6878 22.6725 54.056C24.1106 54.5025 24.9546 53.1302 26.3276 51.6509C27.0812 50.8388 28.122 49.6459 28.9061 48.7341C36.0124 49.3322 41.4778 47.9652 42.0985 47.7632C43.5333 47.298 51.6523 46.2579 52.9728 35.4793C54.3358 24.3697 52.3135 17.3426 48.6591 14.1753ZM49.8633 34.6825C48.7488 43.6821 42.1636 44.2476 40.9494 44.637C40.4331 44.8032 35.6329 45.9974 29.5966 45.6033C29.5966 45.6033 25.0988 51.0295 23.6939 52.4404C23.4746 52.661 23.2168 52.7501 23.0447 52.7062C22.8028 52.6471 22.7363 52.3606 22.739 51.942C22.7429 51.3439 22.7775 44.5307 22.7775 44.5307C13.9879 42.0904 14.5003 32.9161 14.6 28.1119C14.6997 23.3077 15.6022 19.3722 18.283 16.7252C23.0998 12.3623 33.0225 13.0143 33.0225 13.0143C41.402 13.0508 45.4173 15.5742 46.3484 16.4195C49.4399 19.0665 51.015 25.4005 49.8633 34.6798V34.6825Z" fill="white"/>
<path fill-rule="evenodd" clip-rule="evenodd" d="M33.3754 24.2263C33.3915 23.9173 33.6551 23.6799 33.9641 23.696C35.1201 23.7563 36.0819 24.1063 36.7669 24.8145C37.4493 25.5201 37.7838 26.5057 37.8425 27.6895C37.8578 27.9985 37.6198 28.2614 37.3107 28.2768C37.0017 28.2921 36.7388 28.054 36.7234 27.745C36.6732 26.7317 36.3952 26.0418 35.9615 25.5935C35.5305 25.1478 34.8727 24.8654 33.9057 24.815C33.5967 24.7988 33.3593 24.5353 33.3754 24.2263Z" fill="white"/>
<path fill-rule="evenodd" clip-rule="evenodd" d="M32.5262 21.2081C32.5488 20.8995 32.8172 20.6677 33.1258 20.6902C35.4784 20.8624 37.3721 21.6663 38.7514 23.1719L38.7516 23.1722C40.116 24.663 40.7644 26.5176 40.7173 28.693C40.7106 29.0023 40.4545 29.2476 40.1451 29.2409C39.8358 29.2342 39.5904 28.978 39.5971 28.6687C39.6387 26.7503 39.0745 25.1846 37.925 23.9286C36.779 22.6778 35.1771 21.9638 33.044 21.8077C32.7354 21.7851 32.5036 21.5167 32.5262 21.2081Z" fill="white"/>
<path fill-rule="evenodd" clip-rule="evenodd" d="M31.5371 18.3389C31.5393 18.0295 31.7918 17.7805 32.1012 17.7826C35.3524 17.8053 38.1006 18.8876 40.307 21.0386C42.5319 23.2075 43.6322 26.1603 43.6601 29.8276C43.6625 30.137 43.4136 30.3897 43.1042 30.3921C42.7948 30.3944 42.5421 30.1455 42.5397 29.8361C42.5136 26.3997 41.4912 23.7577 39.5249 21.8409C37.5402 19.906 35.0759 18.9238 32.0934 18.903C31.784 18.9009 31.535 18.6483 31.5371 18.3389Z" fill="white"/>
<path d="M34.0458 35.2208C34.0458 35.2208 34.8333 35.2873 35.2573 34.7649L36.0841 33.7249C36.4828 33.2092 37.4451 32.8802 38.3874 33.4052C39.0936 33.808 39.7792 34.2458 40.4416 34.7171C41.067 35.177 42.3476 36.2456 42.3516 36.2456C42.9617 36.7606 43.1026 37.5169 42.6872 38.3144C42.6872 38.3191 42.6839 38.327 42.6839 38.331C42.2264 39.1241 41.6456 39.8392 40.9633 40.4497C40.9553 40.4536 40.9553 40.4576 40.948 40.4616C40.3552 40.9569 39.7728 41.2385 39.2009 41.3063C39.1167 41.321 39.0311 41.3264 38.9457 41.3222C38.6935 41.3247 38.4425 41.2861 38.2027 41.2079L38.1841 41.1807C37.3029 40.9321 35.8315 40.3101 33.3813 38.9584C31.9633 38.1854 30.6134 37.2936 29.346 36.2928C28.7107 35.7914 28.1048 35.254 27.5311 34.6832L27.4699 34.6221L27.4088 34.5609L27.3477 34.4991C27.327 34.4792 27.3071 34.4586 27.2865 34.438C26.7157 33.8643 26.1783 33.2583 25.6769 32.623C24.6762 31.3558 23.7845 30.0061 23.0113 28.5885C21.6596 26.1375 21.0376 24.6675 20.789 23.785L20.7618 23.7664C20.6839 23.5265 20.6455 23.2756 20.6481 23.0234C20.6435 22.938 20.6486 22.8524 20.6634 22.7682C20.7348 22.1975 21.0168 21.6149 21.5094 21.0204C21.5134 21.013 21.5174 21.013 21.5214 21.0051C22.1317 20.3228 22.8469 19.7422 23.64 19.2852C23.644 19.2852 23.652 19.2812 23.6566 19.2812C24.4541 18.8658 25.2104 19.0067 25.7248 19.6135C25.7288 19.6175 26.7954 20.8981 27.2533 21.5234C27.7246 22.1865 28.1624 22.8727 28.5651 23.5796C29.0901 24.5213 28.7612 25.4856 28.2455 25.883L27.2054 26.7097C26.6804 27.1337 26.7495 27.9212 26.7495 27.9212C26.7495 27.9212 28.29 33.7515 34.0458 35.2208Z" fill="white"/>
</g>
</g>
<defs>
<clipPath id="clip0_2566_15328">
<rect width="64" height="64" fill="white" transform="translate(0.400024)"/>
</clipPath>
<clipPath id="clip1_2566_15328">
<rect width="42" height="44.2888" fill="white" transform="translate(11.4 9.85562)"/>
</clipPath>
</defs>
</svg>
