<svg width="64" height="64" viewBox="0 0 64 64" fill="none" xmlns="http://www.w3.org/2000/svg">
<g clip-path="url(#clip0_2566_15320)">
<path d="M49.572 0H14.428C6.45964 0 0 6.45964 0 14.428V49.572C0 57.5404 6.45964 64 14.428 64H49.572C57.5404 64 64 57.5404 64 49.572V14.428C64 6.45964 57.5404 0 49.572 0Z" fill="black"/>
<path d="M36.3512 28.716L49.4648 13.4725H46.3573L34.9707 26.7082L25.8763 13.4725H15.387L29.1395 33.4873L15.387 49.4725H18.4947L30.5192 35.4951L40.1235 49.4725H50.6129L36.3504 28.716H36.3512ZM32.0948 33.6636L30.7013 31.6706L19.6144 15.8119H24.3876L33.3349 28.6104L34.7283 30.6034L46.3588 47.2394H41.5855L32.0948 33.6644V33.6636Z" fill="white"/>
</g>
<defs>
<clipPath id="clip0_2566_15320">
<rect width="64" height="64" fill="white"/>
</clipPath>
</defs>
</svg>
