<?xml version="1.0" standalone="no"?>
<!DOCTYPE svg PUBLIC "-//W3C//DTD SVG 20010904//EN"
 "http://www.w3.org/TR/2001/REC-SVG-20010904/DTD/svg10.dtd">
<svg version="1.0" xmlns="http://www.w3.org/2000/svg"
 width="320.000000pt" height="320.000000pt" viewBox="0 0 320.000000 320.000000"
 preserveAspectRatio="xMidYMid meet">
<metadata>
Created by potrace 1.16, written by Peter Selinger 2001-2019
</metadata><g><rect x="0" y="0" width="320" height="320" fill="#ffffff" />
<g transform="translate(0.000000,320.000000) scale(0.050000,-0.050000)"
fill="#000000" stroke="none">
<path d="M560 5280 l0 -560 560 0 560 0 0 560 0 560 -560 0 -560 0 0 -560z
m960 0 l0 -400 -400 0 -400 0 0 400 0 400 400 0 400 0 0 -400z"/>
<path d="M880 5280 l0 -240 240 0 240 0 0 240 0 240 -240 0 -240 0 0 -240z"/>
<path d="M1840 5760 l0 -80 80 0 80 0 0 -80 0 -80 80 0 80 0 0 -80 0 -80 80 0
80 0 0 160 0 160 160 0 160 0 0 -80 0 -80 -80 0 -80 0 0 -160 0 -160 -80 0
-80 0 0 -80 0 -80 -80 0 -80 0 0 80 0 80 -80 0 -80 0 0 -80 0 -80 80 0 80 0 0
-240 0 -240 -80 0 -80 0 0 160 0 160 -80 0 -80 0 0 -160 0 -160 80 0 80 0 0
-160 0 -160 -80 0 -80 0 0 80 0 80 -80 0 -80 0 0 80 0 80 -80 0 -80 0 0 -80 0
-80 80 0 80 0 0 -80 0 -80 -160 0 -160 0 0 160 0 160 -160 0 -160 0 0 -80 0
-80 80 0 80 0 0 -80 0 -80 80 0 80 0 0 -160 0 -160 80 0 80 0 0 -80 0 -80 80
0 80 0 0 80 0 80 160 0 160 0 0 -160 0 -160 80 0 80 0 0 160 0 160 80 0 80 0
0 -80 0 -80 160 0 160 0 0 -80 0 -80 -160 0 -160 0 0 -160 0 -160 -80 0 -80 0
0 -240 0 -240 -80 0 -80 0 0 160 0 160 -80 0 -80 0 0 -80 0 -80 -160 0 -160 0
0 -80 0 -80 -80 0 -80 0 0 160 0 160 160 0 160 0 0 80 0 80 -160 0 -160 0 0
80 0 80 240 0 240 0 0 80 0 80 -240 0 -240 0 0 80 0 80 -160 0 -160 0 0 80 0
80 -160 0 -160 0 0 80 0 80 160 0 160 0 0 80 0 80 -80 0 -80 0 0 160 0 160
-160 0 -160 0 0 -320 0 -320 80 0 80 0 0 -160 0 -160 -80 0 -80 0 0 -160 0
-160 160 0 160 0 0 -240 0 -240 -80 0 -80 0 0 160 0 160 -80 0 -80 0 0 -160 0
-160 80 0 80 0 0 -80 0 -80 -80 0 -80 0 0 -400 0 -400 240 0 240 0 0 80 0 80
80 0 80 0 0 -80 0 -80 320 0 320 0 0 -80 0 -80 80 0 80 0 0 -80 0 -80 80 0 80
0 0 -80 0 -80 -160 0 -160 0 0 -160 0 -160 80 0 80 0 0 -80 0 -80 -80 0 -80 0
0 -160 0 -160 160 0 160 0 0 80 0 80 80 0 80 0 0 -80 0 -80 240 0 240 0 0 80
0 80 80 0 80 0 0 80 0 80 80 0 80 0 0 -160 0 -160 160 0 160 0 0 80 0 80 -80
0 -80 0 0 80 0 80 160 0 160 0 0 -80 0 -80 160 0 160 0 0 80 0 80 80 0 80 0 0
80 0 80 -80 0 -80 0 0 160 0 160 -80 0 -80 0 0 80 0 80 320 0 320 0 0 -80 0
-80 -160 0 -160 0 0 -80 0 -80 80 0 80 0 0 -80 0 -80 80 0 80 0 0 80 0 80 80
0 80 0 0 -160 0 -160 80 0 80 0 0 -80 0 -80 80 0 80 0 0 80 0 80 -80 0 -80 0
0 160 0 160 320 0 320 0 0 -160 0 -160 -80 0 -80 0 0 80 0 80 -80 0 -80 0 0
-240 0 -240 80 0 80 0 0 80 0 80 320 0 320 0 0 160 0 160 -80 0 -80 0 0 -80 0
-80 -80 0 -80 0 0 160 0 160 -80 0 -80 0 0 80 0 80 160 0 160 0 0 -80 0 -80
80 0 80 0 0 80 0 80 -80 0 -80 0 0 80 0 80 -240 0 -240 0 0 320 0 320 -160 0
-160 0 0 80 0 80 240 0 240 0 0 80 0 80 -240 0 -240 0 0 -80 0 -80 -80 0 -80
0 0 80 0 80 -80 0 -80 0 0 160 0 160 -80 0 -80 0 0 80 0 80 -80 0 -80 0 0 160
0 160 80 0 80 0 0 -80 0 -80 80 0 80 0 0 -80 0 -80 80 0 80 0 0 -160 0 -160
80 0 80 0 0 80 0 80 80 0 80 0 0 80 0 80 80 0 80 0 0 80 0 80 80 0 80 0 0 80
0 80 80 0 80 0 0 -160 0 -160 80 0 80 0 0 -80 0 -80 -160 0 -160 0 0 -80 0
-80 240 0 240 0 0 400 0 400 -80 0 -80 0 0 -80 0 -80 -80 0 -80 0 0 80 0 80
-80 0 -80 0 0 -80 0 -80 -160 0 -160 0 0 240 0 240 -80 0 -80 0 0 80 0 80 -80
0 -80 0 0 80 0 80 160 0 160 0 0 -80 0 -80 240 0 240 0 0 -80 0 -80 160 0 160
0 0 80 0 80 -160 0 -160 0 0 80 0 80 160 0 160 0 0 80 0 80 -80 0 -80 0 0 80
0 80 80 0 80 0 0 80 0 80 -80 0 -80 0 0 -80 0 -80 -160 0 -160 0 0 -80 0 -80
80 0 80 0 0 -80 0 -80 -160 0 -160 0 0 160 0 160 -160 0 -160 0 0 80 0 80 -80
0 -80 0 0 -80 0 -80 80 0 80 0 0 -80 0 -80 -80 0 -80 0 0 -80 0 -80 -80 0 -80
0 0 80 0 80 -80 0 -80 0 0 80 0 80 80 0 80 0 0 320 0 320 -240 0 -240 0 0
-240 0 -240 80 0 80 0 0 -80 0 -80 -160 0 -160 0 0 -80 0 -80 80 0 80 0 0
-160 0 -160 80 0 80 0 0 80 0 80 160 0 160 0 0 -80 0 -80 -80 0 -80 0 0 -80 0
-80 -160 0 -160 0 0 -80 0 -80 240 0 240 0 0 -160 0 -160 -80 0 -80 0 0 80 0
80 -160 0 -160 0 0 -160 0 -160 -400 0 -400 0 0 -160 0 -160 80 0 80 0 0 80 0
80 80 0 80 0 0 -80 0 -80 80 0 80 0 0 80 0 80 80 0 80 0 0 -80 0 -80 80 0 80
0 0 -80 0 -80 160 0 160 0 0 -80 0 -80 -80 0 -80 0 0 -80 0 -80 -160 0 -160 0
0 80 0 80 -160 0 -160 0 0 80 0 80 -240 0 -240 0 0 -80 0 -80 -80 0 -80 0 0
80 0 80 -80 0 -80 0 0 80 0 80 -160 0 -160 0 0 80 0 80 240 0 240 0 0 -80 0
-80 80 0 80 0 0 400 0 400 80 0 80 0 0 -80 0 -80 80 0 80 0 0 -80 0 -80 160 0
160 0 0 80 0 80 80 0 80 0 0 80 0 80 -320 0 -320 0 0 160 0 160 80 0 80 0 0
80 0 80 80 0 80 0 0 80 0 80 80 0 80 0 0 160 0 160 80 0 80 0 0 160 0 160 -80
0 -80 0 0 -160 0 -160 -80 0 -80 0 0 320 0 320 80 0 80 0 0 80 0 80 80 0 80 0
0 -80 0 -80 80 0 80 0 0 160 0 160 80 0 80 0 0 160 0 160 -80 0 -80 0 0 -80 0
-80 -80 0 -80 0 0 -80 0 -80 -80 0 -80 0 0 80 0 80 -160 0 -160 0 0 80 0 80
-80 0 -80 0 0 -80 0 -80 -80 0 -80 0 0 -80 0 -80 -160 0 -160 0 0 160 0 160
-240 0 -240 0 0 -80 0 -80 -160 0 -160 0 0 80 0 80 -80 0 -80 0 0 -80z m1920
-320 l0 -80 -80 0 -80 0 0 -80 0 -80 -80 0 -80 0 0 -80 0 -80 -80 0 -80 0 0
-80 0 -80 80 0 80 0 0 -160 0 -160 80 0 80 0 0 -80 0 -80 -80 0 -80 0 0 -80 0
-80 -80 0 -80 0 0 -160 0 -160 -80 0 -80 0 0 -80 0 -80 -240 0 -240 0 0 160 0
160 -80 0 -80 0 0 80 0 80 -160 0 -160 0 0 -80 0 -80 -80 0 -80 0 0 80 0 80
80 0 80 0 0 80 0 80 160 0 160 0 0 160 0 160 -80 0 -80 0 0 160 0 160 80 0 80
0 0 80 0 80 160 0 160 0 0 80 0 80 80 0 80 0 0 -80 0 -80 80 0 80 0 0 -80 0
-80 80 0 80 0 0 80 0 80 80 0 80 0 0 80 0 80 -160 0 -160 0 0 80 0 80 320 0
320 0 0 -80z m640 -640 l0 -80 -80 0 -80 0 0 80 0 80 80 0 80 0 0 -80z m-2720
-800 l0 -80 -80 0 -80 0 0 80 0 80 80 0 80 0 0 -80z m3040 -160 l0 -80 80 0
80 0 0 -80 0 -80 -80 0 -80 0 0 80 0 80 -80 0 -80 0 0 80 0 80 80 0 80 0 0
-80z m-3680 -160 l0 -80 160 0 160 0 0 -80 0 -80 -160 0 -160 0 0 -80 0 -80
-80 0 -80 0 0 80 0 80 -80 0 -80 0 0 80 0 80 80 0 80 0 0 80 0 80 80 0 80 0 0
-80z m1920 -320 l0 -240 -320 0 -320 0 0 80 0 80 80 0 80 0 0 80 0 80 80 0 80
0 0 80 0 80 160 0 160 0 0 -240z m1920 0 l0 -80 -80 0 -80 0 0 80 0 80 80 0
80 0 0 -80z m-3680 -400 l0 -160 80 0 80 0 0 -80 0 -80 80 0 80 0 0 80 0 80
80 0 80 0 0 -80 0 -80 -80 0 -80 0 0 -80 0 -80 160 0 160 0 0 -80 0 -80 -240
0 -240 0 0 -160 0 -160 -80 0 -80 0 0 80 0 80 -80 0 -80 0 0 -80 0 -80 -160 0
-160 0 0 160 0 160 240 0 240 0 0 80 0 80 80 0 80 0 0 80 0 80 -80 0 -80 0 0
80 0 80 -80 0 -80 0 0 160 0 160 80 0 80 0 0 -160z m3840 80 l0 -80 -80 0 -80
0 0 80 0 80 80 0 80 0 0 -80z m-2560 -400 l0 -160 80 0 80 0 0 80 0 80 80 0
80 0 0 -160 0 -160 80 0 80 0 0 -80 0 -80 80 0 80 0 0 -80 0 -80 -80 0 -80 0
0 -80 0 -80 -80 0 -80 0 0 -80 0 -80 -80 0 -80 0 0 -80 0 -80 240 0 240 0 0
-80 0 -80 -80 0 -80 0 0 -80 0 -80 -80 0 -80 0 0 -80 0 -80 -160 0 -160 0 0
-80 0 -80 80 0 80 0 0 -80 0 -80 -80 0 -80 0 0 80 0 80 -80 0 -80 0 0 80 0 80
-80 0 -80 0 0 80 0 80 80 0 80 0 0 -80 0 -80 80 0 80 0 0 80 0 80 160 0 160 0
0 80 0 80 -80 0 -80 0 0 80 0 80 -80 0 -80 0 0 -80 0 -80 -80 0 -80 0 0 240 0
240 -80 0 -80 0 0 -80 0 -80 -80 0 -80 0 0 160 0 160 -80 0 -80 0 0 80 0 80
80 0 80 0 0 160 0 160 80 0 80 0 0 80 0 80 80 0 80 0 0 80 0 80 80 0 80 0 0
-160z m-1440 -80 l0 -80 -160 0 -160 0 0 80 0 80 160 0 160 0 0 -80z m2240
-160 l0 -80 80 0 80 0 0 80 0 80 80 0 80 0 0 -80 0 -80 80 0 80 0 0 -80 0 -80
-80 0 -80 0 0 -80 0 -80 80 0 80 0 0 -80 0 -80 80 0 80 0 0 160 0 160 80 0 80
0 0 -80 0 -80 80 0 80 0 0 80 0 80 320 0 320 0 0 -80 0 -80 -240 0 -240 0 0
-160 0 -160 -400 0 -400 0 0 80 0 80 -80 0 -80 0 0 -80 0 -80 -80 0 -80 0 0
160 0 160 80 0 80 0 0 80 0 80 -80 0 -80 0 0 80 0 80 -80 0 -80 0 0 80 0 80
80 0 80 0 0 -80z m1280 0 l0 -80 -80 0 -80 0 0 80 0 80 80 0 80 0 0 -80z
m-2880 -320 l0 -80 -80 0 -80 0 0 80 0 80 80 0 80 0 0 -80z m3360 -480 l0
-240 -240 0 -240 0 0 240 0 240 240 0 240 0 0 -240z m-1440 -240 l0 -160 -160
0 -160 0 0 -160 0 -160 -80 0 -80 0 0 160 0 160 80 0 80 0 0 160 0 160 160 0
160 0 0 -160z m320 -400 l0 -80 -80 0 -80 0 0 80 0 80 80 0 80 0 0 -80z
m-1760 -160 l0 -80 -80 0 -80 0 0 80 0 80 80 0 80 0 0 -80z"/>
<path d="M2480 4880 l0 -160 80 0 80 0 0 -80 0 -80 80 0 80 0 0 -80 0 -80
-160 0 -160 0 0 -80 0 -80 160 0 160 0 0 -160 0 -160 160 0 160 0 0 160 0 160
80 0 80 0 0 80 0 80 80 0 80 0 0 80 0 80 -80 0 -80 0 0 160 0 160 -80 0 -80 0
0 -160 0 -160 80 0 80 0 0 -80 0 -80 -160 0 -160 0 0 80 0 80 -80 0 -80 0 0
80 0 80 80 0 80 0 0 80 0 80 -80 0 -80 0 0 80 0 80 -160 0 -160 0 0 -160z
m320 -80 l0 -80 -80 0 -80 0 0 80 0 80 80 0 80 0 0 -80z"/>
<path d="M880 3520 l0 -80 80 0 80 0 0 80 0 80 -80 0 -80 0 0 -80z"/>
<path d="M2160 2320 l0 -160 80 0 80 0 0 160 0 160 -80 0 -80 0 0 -160z"/>
<path d="M2480 2240 l0 -80 80 0 80 0 0 80 0 80 -80 0 -80 0 0 -80z"/>
<path d="M2800 2080 l0 -80 80 0 80 0 0 80 0 80 -80 0 -80 0 0 -80z"/>
<path d="M2480 1760 l0 -80 80 0 80 0 0 80 0 80 -80 0 -80 0 0 -80z"/>
<path d="M4720 1600 l0 -80 80 0 80 0 0 80 0 80 -80 0 -80 0 0 -80z"/>
<path d="M4400 5600 l0 -240 80 0 80 0 0 240 0 240 -80 0 -80 0 0 -240z"/>
<path d="M4720 5280 l0 -560 560 0 560 0 0 560 0 560 -560 0 -560 0 0 -560z
m960 0 l0 -400 -400 0 -400 0 0 400 0 400 400 0 400 0 0 -400z"/>
<path d="M5040 5280 l0 -240 240 0 240 0 0 240 0 240 -240 0 -240 0 0 -240z"/>
<path d="M3760 4000 l0 -80 -80 0 -80 0 0 -80 0 -80 160 0 160 0 0 160 0 160
-80 0 -80 0 0 -80z"/>
<path d="M5520 2320 l0 -160 -80 0 -80 0 0 -80 0 -80 80 0 80 0 0 -80 0 -80
-80 0 -80 0 0 -80 0 -80 160 0 160 0 0 160 0 160 -80 0 -80 0 0 80 0 80 160 0
160 0 0 80 0 80 -80 0 -80 0 0 80 0 80 -80 0 -80 0 0 -160z"/>
<path d="M560 1120 l0 -560 560 0 560 0 0 560 0 560 -560 0 -560 0 0 -560z
m960 0 l0 -400 -400 0 -400 0 0 400 0 400 400 0 400 0 0 -400z"/>
<path d="M880 1120 l0 -240 240 0 240 0 0 240 0 240 -240 0 -240 0 0 -240z"/>
<path d="M4240 640 l0 -80 160 0 160 0 0 80 0 80 -160 0 -160 0 0 -80z"/>
</g>
</g></svg>
