<svg width="65" height="64" viewBox="0 0 65 64" fill="none" xmlns="http://www.w3.org/2000/svg">
<g clip-path="url(#clip0_2566_15347)">
<path d="M49.772 0H14.628C6.65959 0 0.199951 6.45964 0.199951 14.428V49.572C0.199951 57.5404 6.65959 64 14.628 64H49.772C57.7403 64 64.2 57.5404 64.2 49.572V14.428C64.2 6.45964 57.7403 0 49.772 0Z" fill="white"/>
<path d="M38.1999 20C38.9296 20.0048 39.6591 20.048 40.3839 20.1344C39.2139 17.361 37.234 15.0054 34.7033 13.3756C32.1726 11.7459 29.2089 10.9179 26.2 11C17.9152 11 11.2 17.0432 11.2 24.5C11.2092 27.249 12.1235 29.9185 13.8016 32.096L11.2 41L20.248 37.3736C20.2312 37.0808 20.2 36.7952 20.2 36.5C20.2 27.4016 28.2736 20 38.1999 20Z" fill="#237B07"/>
<path d="M53.2 36.5C53.2 29.0432 46.4848 23 38.2 23C29.9152 23 23.2 29.0432 23.2 36.5C23.2 43.9568 29.9152 50 38.2 50C40.0048 50 41.8 49.7 43.504 49.1144L53.2 53L50.5984 44.096C52.2764 41.9185 53.1907 39.249 53.2 36.5ZM33.7 38H30.7V35H33.7V38ZM39.7 38H36.7V35H39.7V38ZM45.7 38H42.7V35H45.7V38Z" fill="#237B07"/>
</g>
<defs>
<clipPath id="clip0_2566_15347">
<rect width="64" height="64" fill="white" transform="translate(0.199951)"/>
</clipPath>
</defs>
</svg>
