<svg width="17" height="16" viewBox="0 0 17 16" fill="none" xmlns="http://www.w3.org/2000/svg">
<path fill-rule="evenodd" clip-rule="evenodd" d="M8.90015 1.5H13.9001H14.9001V2.5V7.5H13.9001V3.207L7.60765 9.5L6.90015 8.793L13.1931 2.5H8.90015V1.5ZM2.90015 5.5V13.5H10.9001V9.5H11.9001V13.5C11.9001 13.7652 11.7948 14.0196 11.6073 14.2071C11.4197 14.3946 11.1654 14.5 10.9001 14.5H2.90015C2.63493 14.5 2.38058 14.3946 2.19304 14.2071C2.0055 14.0196 1.90015 13.7652 1.90015 13.5V5.5C1.90015 5.23478 2.0055 4.98043 2.19304 4.79289C2.38058 4.60536 2.63493 4.5 2.90015 4.5H6.90015V5.5H2.90015Z" fill="#237B07"/>
</svg>
