<svg width="65" height="64" viewBox="0 0 65 64" fill="none" xmlns="http://www.w3.org/2000/svg">
<g clip-path="url(#clip0_2566_15340)">
<path d="M50.1721 0H15.0281C7.05973 0 0.600098 6.45964 0.600098 14.428V49.572C0.600098 57.5404 7.05973 64 15.0281 64H50.1721C58.1405 64 64.6001 57.5404 64.6001 49.572V14.428C64.6001 6.45964 58.1405 0 50.1721 0Z" fill="white"/>
<path fill-rule="evenodd" clip-rule="evenodd" d="M51.4205 16.6188L33.6605 34.3788C33.074 34.9653 32.126 34.9653 31.5395 34.3788L13.7795 16.6188C14.33 15.9423 15.1595 15.4998 16.1 15.4998H49.1C50.0405 15.4998 50.87 15.9423 51.4205 16.6188ZM32.6001 37.8154C33.7521 37.8154 34.9041 37.3774 35.7816 36.4999L52.1001 20.1814V45.4999C52.1001 47.1559 50.7561 48.4999 49.1001 48.4999H16.1001C14.4426 48.4999 13.1001 47.1559 13.1001 45.4999V20.1814L29.4186 36.4999C30.2961 37.3774 31.4466 37.8154 32.6001 37.8154Z" fill="#237B07"/>
</g>
<defs>
<clipPath id="clip0_2566_15340">
<rect width="64" height="64" fill="white" transform="translate(0.600098)"/>
</clipPath>
</defs>
</svg>
