<?xml version="1.0" standalone="no"?>
<!DOCTYPE svg PUBLIC "-//W3C//DTD SVG 20010904//EN"
 "http://www.w3.org/TR/2001/REC-SVG-20010904/DTD/svg10.dtd">
<svg version="1.0" xmlns="http://www.w3.org/2000/svg"
 width="320.000000pt" height="320.000000pt" viewBox="0 0 320.000000 320.000000"
 preserveAspectRatio="xMidYMid meet">
<metadata>
Created by potrace 1.15, written by Peter Selinger 2001-2017
</metadata><g><rect x="0" y="0" width="320" height="320" fill="#ffffff" />
<g transform="translate(0.000000,320.000000) scale(0.050000,-0.050000)"
fill="#000000" stroke="none">
<path d="M560 5280 l0 -560 560 0 560 0 0 560 0 560 -560 0 -560 0 0 -560z
m960 0 l0 -400 -400 0 -400 0 0 400 0 400 400 0 400 0 0 -400z"/>
<path d="M880 5280 l0 -240 240 0 240 0 0 240 0 240 -240 0 -240 0 0 -240z"/>
<path d="M1840 5520 l0 -320 160 0 160 0 0 80 0 80 80 0 80 0 0 -80 0 -80 80
0 80 0 0 160 0 160 -80 0 -80 0 0 160 0 160 -240 0 -240 0 0 -320z m320 -80
l0 -80 -80 0 -80 0 0 80 0 80 80 0 80 0 0 -80z"/>
<path d="M2480 5760 l0 -80 80 0 80 0 0 -80 0 -80 80 0 80 0 0 -80 0 -80 -80
0 -80 0 0 -160 0 -160 -160 0 -160 0 0 -80 0 -80 -80 0 -80 0 0 -80 0 -80 -80
0 -80 0 0 160 0 160 -80 0 -80 0 0 -160 0 -160 80 0 80 0 0 -80 0 -80 80 0 80
0 0 80 0 80 80 0 80 0 0 80 0 80 80 0 80 0 0 -160 0 -160 -80 0 -80 0 0 -80 0
-80 -240 0 -240 0 0 -80 0 -80 -160 0 -160 0 0 80 0 80 80 0 80 0 0 80 0 80
-240 0 -240 0 0 -80 0 -80 -80 0 -80 0 0 -80 0 -80 -80 0 -80 0 0 160 0 160
-160 0 -160 0 0 -160 0 -160 80 0 80 0 0 -80 0 -80 -80 0 -80 0 0 -80 0 -80
80 0 80 0 0 -80 0 -80 -80 0 -80 0 0 -80 0 -80 160 0 160 0 0 -80 0 -80 80 0
80 0 0 -80 0 -80 -80 0 -80 0 0 -80 0 -80 80 0 80 0 0 80 0 80 80 0 80 0 0 80
0 80 80 0 80 0 0 -80 0 -80 80 0 80 0 0 -80 0 -80 -80 0 -80 0 0 -80 0 -80 80
0 80 0 0 -80 0 -80 240 0 240 0 0 80 0 80 80 0 80 0 0 -80 0 -80 80 0 80 0 0
-80 0 -80 -80 0 -80 0 0 -80 0 -80 -80 0 -80 0 0 -80 0 -80 -80 0 -80 0 0 160
0 160 -240 0 -240 0 0 80 0 80 -80 0 -80 0 0 -80 0 -80 80 0 80 0 0 -160 0
-160 80 0 80 0 0 -80 0 -80 -80 0 -80 0 0 -80 0 -80 80 0 80 0 0 -80 0 -80 80
0 80 0 0 80 0 80 -80 0 -80 0 0 80 0 80 160 0 160 0 0 -240 0 -240 80 0 80 0
0 80 0 80 80 0 80 0 0 80 0 80 80 0 80 0 0 -80 0 -80 80 0 80 0 0 -80 0 -80
-80 0 -80 0 0 -160 0 -160 80 0 80 0 0 -80 0 -80 80 0 80 0 0 -80 0 -80 160 0
160 0 0 -80 0 -80 -80 0 -80 0 0 -80 0 -80 -80 0 -80 0 0 80 0 80 -80 0 -80 0
0 -80 0 -80 -80 0 -80 0 0 160 0 160 -80 0 -80 0 0 -240 0 -240 160 0 160 0 0
80 0 80 80 0 80 0 0 -80 0 -80 160 0 160 0 0 80 0 80 160 0 160 0 0 -80 0 -80
80 0 80 0 0 240 0 240 -80 0 -80 0 0 80 0 80 80 0 80 0 0 80 0 80 160 0 160 0
0 -80 0 -80 160 0 160 0 0 -80 0 -80 -160 0 -160 0 0 -80 0 -80 80 0 80 0 0
-80 0 -80 -80 0 -80 0 0 -80 0 -80 400 0 400 0 0 80 0 80 80 0 80 0 0 -80 0
-80 160 0 160 0 0 160 0 160 80 0 80 0 0 80 0 80 160 0 160 0 0 80 0 80 -160
0 -160 0 0 160 0 160 160 0 160 0 0 -80 0 -80 80 0 80 0 0 320 0 320 -80 0
-80 0 0 -80 0 -80 -80 0 -80 0 0 80 0 80 -80 0 -80 0 0 160 0 160 80 0 80 0 0
-80 0 -80 160 0 160 0 0 80 0 80 -160 0 -160 0 0 80 0 80 -80 0 -80 0 0 80 0
80 80 0 80 0 0 80 0 80 160 0 160 0 0 80 0 80 -160 0 -160 0 0 80 0 80 -80 0
-80 0 0 80 0 80 80 0 80 0 0 80 0 80 160 0 160 0 0 80 0 80 -240 0 -240 0 0
-160 0 -160 -80 0 -80 0 0 -80 0 -80 80 0 80 0 0 -80 0 -80 80 0 80 0 0 -80 0
-80 -160 0 -160 0 0 80 0 80 -80 0 -80 0 0 -160 0 -160 -80 0 -80 0 0 160 0
160 -160 0 -160 0 0 80 0 80 80 0 80 0 0 80 0 80 80 0 80 0 0 -80 0 -80 80 0
80 0 0 160 0 160 80 0 80 0 0 160 0 160 160 0 160 0 0 160 0 160 160 0 160 0
0 80 0 80 -80 0 -80 0 0 80 0 80 160 0 160 0 0 80 0 80 -320 0 -320 0 0 -80 0
-80 80 0 80 0 0 -160 0 -160 -160 0 -160 0 0 240 0 240 -80 0 -80 0 0 -320 0
-320 -80 0 -80 0 0 80 0 80 -160 0 -160 0 0 160 0 160 80 0 80 0 0 -80 0 -80
80 0 80 0 0 80 0 80 -80 0 -80 0 0 80 0 80 -240 0 -240 0 0 80 0 80 80 0 80 0
0 80 0 80 -80 0 -80 0 0 -80 0 -80 -80 0 -80 0 0 80 0 80 -80 0 -80 0 0 80 0
80 -80 0 -80 0 0 160 0 160 -80 0 -80 0 0 80 0 80 -80 0 -80 0 0 160 0 160
-240 0 -240 0 0 -80 0 -80 -80 0 -80 0 0 80 0 80 -80 0 -80 0 0 -80z m640
-240 l0 -160 160 0 160 0 0 -160 0 -160 80 0 80 0 0 -80 0 -80 80 0 80 0 0
-80 0 -80 80 0 80 0 0 -80 0 -80 -80 0 -80 0 0 -80 0 -80 80 0 80 0 0 -80 0
-80 80 0 80 0 0 80 0 80 80 0 80 0 0 -160 0 -160 80 0 80 0 0 -80 0 -80 -80 0
-80 0 0 80 0 80 -160 0 -160 0 0 80 0 80 -80 0 -80 0 0 -80 0 -80 -80 0 -80 0
0 -80 0 -80 -80 0 -80 0 0 80 0 80 -80 0 -80 0 0 -160 0 -160 -80 0 -80 0 0
240 0 240 80 0 80 0 0 80 0 80 80 0 80 0 0 80 0 80 80 0 80 0 0 160 0 160 -80
0 -80 0 0 -80 0 -80 -80 0 -80 0 0 -80 0 -80 -80 0 -80 0 0 -80 0 -80 -80 0
-80 0 0 80 0 80 80 0 80 0 0 80 0 80 -80 0 -80 0 0 160 0 160 80 0 80 0 0
-160 0 -160 80 0 80 0 0 240 0 240 -80 0 -80 0 0 80 0 80 -80 0 -80 0 0 160 0
160 80 0 80 0 0 -160z m-320 -720 l0 -240 -80 0 -80 0 0 -80 0 -80 80 0 80 0
0 -80 0 -80 -80 0 -80 0 0 80 0 80 -80 0 -80 0 0 -80 0 -80 -80 0 -80 0 0 -80
0 -80 -80 0 -80 0 0 -160 0 -160 80 0 80 0 0 80 0 80 80 0 80 0 0 80 0 80 80
0 80 0 0 -80 0 -80 -80 0 -80 0 0 -80 0 -80 80 0 80 0 0 -80 0 -80 160 0 160
0 0 -80 0 -80 -80 0 -80 0 0 -80 0 -80 -80 0 -80 0 0 -80 0 -80 160 0 160 0 0
-80 0 -80 -160 0 -160 0 0 80 0 80 -80 0 -80 0 0 -80 0 -80 -160 0 -160 0 0
160 0 160 -80 0 -80 0 0 -160 0 -160 -80 0 -80 0 0 80 0 80 -80 0 -80 0 0 -80
0 -80 -80 0 -80 0 0 80 0 80 80 0 80 0 0 80 0 80 -80 0 -80 0 0 80 0 80 80 0
80 0 0 80 0 80 -80 0 -80 0 0 80 0 80 -80 0 -80 0 0 -80 0 -80 -240 0 -240 0
0 160 0 160 -80 0 -80 0 0 80 0 80 80 0 80 0 0 -80 0 -80 80 0 80 0 0 80 0 80
160 0 160 0 0 80 0 80 80 0 80 0 0 -80 0 -80 80 0 80 0 0 -80 0 -80 160 0 160
0 0 160 0 160 160 0 160 0 0 80 0 80 80 0 80 0 0 80 0 80 80 0 80 0 0 240 0
240 80 0 80 0 0 -240z m160 -880 l0 -160 -80 0 -80 0 0 160 0 160 80 0 80 0 0
-160z m960 -80 l0 -80 80 0 80 0 0 -80 0 -80 80 0 80 0 0 -80 0 -80 80 0 80 0
0 -80 0 -80 -80 0 -80 0 0 80 0 80 -240 0 -240 0 0 -80 0 -80 80 0 80 0 0
-160 0 -160 -80 0 -80 0 0 -80 0 -80 -240 0 -240 0 0 -160 0 -160 80 0 80 0 0
80 0 80 160 0 160 0 0 -160 0 -160 80 0 80 0 0 80 0 80 80 0 80 0 0 -80 0 -80
80 0 80 0 0 -80 0 -80 80 0 80 0 0 160 0 160 -80 0 -80 0 0 80 0 80 -80 0 -80
0 0 80 0 80 240 0 240 0 0 -80 0 -80 80 0 80 0 0 -80 0 -80 80 0 80 0 0 -80 0
-80 80 0 80 0 0 80 0 80 80 0 80 0 0 -80 0 -80 -80 0 -80 0 0 -160 0 -160
-240 0 -240 0 0 80 0 80 -80 0 -80 0 0 -80 0 -80 -80 0 -80 0 0 80 0 80 -80 0
-80 0 0 80 0 80 -80 0 -80 0 0 -80 0 -80 -240 0 -240 0 0 80 0 80 -80 0 -80 0
0 -240 0 -240 -160 0 -160 0 0 -80 0 -80 -160 0 -160 0 0 80 0 80 -80 0 -80 0
0 80 0 80 -80 0 -80 0 0 80 0 80 -80 0 -80 0 0 -80 0 -80 -80 0 -80 0 0 80 0
80 80 0 80 0 0 80 0 80 80 0 80 0 0 160 0 160 80 0 80 0 0 80 0 80 80 0 80 0
0 -80 0 -80 -80 0 -80 0 0 -80 0 -80 80 0 80 0 0 -80 0 -80 160 0 160 0 0 -80
0 -80 80 0 80 0 0 80 0 80 80 0 80 0 0 80 0 80 -80 0 -80 0 0 80 0 80 -80 0
-80 0 0 -80 0 -80 -80 0 -80 0 0 160 0 160 240 0 240 0 0 80 0 80 -80 0 -80 0
0 80 0 80 160 0 160 0 0 80 0 80 80 0 80 0 0 160 0 160 -80 0 -80 0 0 -80 0
-80 -80 0 -80 0 0 -80 0 -80 -80 0 -80 0 0 160 0 160 160 0 160 0 0 80 0 80
160 0 160 0 0 80 0 80 80 0 80 0 0 -80z m800 0 l0 -80 80 0 80 0 0 -80 0 -80
-80 0 -80 0 0 -80 0 -80 -80 0 -80 0 0 80 0 80 80 0 80 0 0 80 0 80 -80 0 -80
0 0 80 0 80 80 0 80 0 0 -80z m-480 -800 l0 -80 -80 0 -80 0 0 80 0 80 80 0
80 0 0 -80z m-2560 -640 l0 -80 -80 0 -80 0 0 80 0 80 80 0 80 0 0 -80z m2080
-480 l0 -80 320 0 320 0 0 -160 0 -160 -80 0 -80 0 0 -80 0 -80 80 0 80 0 0
-80 0 -80 160 0 160 0 0 -160 0 -160 80 0 80 0 0 160 0 160 80 0 80 0 0 -160
0 -160 -80 0 -80 0 0 -80 0 -80 -80 0 -80 0 0 80 0 80 -80 0 -80 0 0 80 0 80
-80 0 -80 0 0 -80 0 -80 -160 0 -160 0 0 80 0 80 80 0 80 0 0 160 0 160 -80 0
-80 0 0 80 0 80 80 0 80 0 0 80 0 80 -240 0 -240 0 0 -80 0 -80 -80 0 -80 0 0
160 0 160 -80 0 -80 0 0 80 0 80 160 0 160 0 0 -80z m1280 -320 l0 -240 -240
0 -240 0 0 240 0 240 240 0 240 0 0 -240z m320 160 l0 -80 -80 0 -80 0 0 80 0
80 80 0 80 0 0 -80z m-2080 -160 l0 -80 -80 0 -80 0 0 80 0 80 80 0 80 0 0
-80z m-640 -160 l0 -80 -80 0 -80 0 0 80 0 80 80 0 80 0 0 -80z m320 -80 l0
-160 -80 0 -80 0 0 160 0 160 80 0 80 0 0 -160z m320 -80 l0 -80 -80 0 -80 0
0 80 0 80 80 0 80 0 0 -80z m0 -320 l0 -80 -80 0 -80 0 0 80 0 80 80 0 80 0 0
-80z"/>
<path d="M1360 4000 l0 -80 -80 0 -80 0 0 -80 0 -80 80 0 80 0 0 80 0 80 80 0
80 0 0 -80 0 -80 80 0 80 0 0 -80 0 -80 80 0 80 0 0 80 0 80 -80 0 -80 0 0 80
0 80 -80 0 -80 0 0 80 0 80 -80 0 -80 0 0 -80z"/>
<path d="M2000 3680 l0 -80 80 0 80 0 0 80 0 80 -80 0 -80 0 0 -80z"/>
<path d="M1840 3360 l0 -80 80 0 80 0 0 80 0 80 -80 0 -80 0 0 -80z"/>
<path d="M2480 3360 l0 -80 -80 0 -80 0 0 -80 0 -80 80 0 80 0 0 80 0 80 80 0
80 0 0 80 0 80 -80 0 -80 0 0 -80z"/>
<path d="M3600 3200 l0 -80 -80 0 -80 0 0 -80 0 -80 80 0 80 0 0 80 0 80 80 0
80 0 0 80 0 80 -80 0 -80 0 0 -80z"/>
<path d="M4400 2560 l0 -80 80 0 80 0 0 80 0 80 -80 0 -80 0 0 -80z"/>
<path d="M3440 2400 l0 -80 80 0 80 0 0 80 0 80 -80 0 -80 0 0 -80z"/>
<path d="M4560 2240 l0 -80 80 0 80 0 0 80 0 80 -80 0 -80 0 0 -80z"/>
<path d="M2480 2080 l0 -80 80 0 80 0 0 -80 0 -80 160 0 160 0 0 160 0 160
-80 0 -80 0 0 -80 0 -80 -80 0 -80 0 0 80 0 80 -80 0 -80 0 0 -80z"/>
<path d="M4720 1600 l0 -80 80 0 80 0 0 80 0 80 -80 0 -80 0 0 -80z"/>
<path d="M3920 5760 l0 -80 -160 0 -160 0 0 -80 0 -80 80 0 80 0 0 -160 0
-160 80 0 80 0 0 -80 0 -80 80 0 80 0 0 80 0 80 -80 0 -80 0 0 80 0 80 80 0
80 0 0 80 0 80 80 0 80 0 0 -240 0 -240 80 0 80 0 0 -160 0 -160 80 0 80 0 0
160 0 160 -80 0 -80 0 0 80 0 80 80 0 80 0 0 80 0 80 -80 0 -80 0 0 80 0 80
80 0 80 0 0 160 0 160 -160 0 -160 0 0 -80 0 -80 -80 0 -80 0 0 80 0 80 -80 0
-80 0 0 -80z m480 -160 l0 -80 -80 0 -80 0 0 80 0 80 80 0 80 0 0 -80z"/>
<path d="M4720 5280 l0 -560 560 0 560 0 0 560 0 560 -560 0 -560 0 0 -560z
m960 0 l0 -400 -400 0 -400 0 0 400 0 400 400 0 400 0 0 -400z"/>
<path d="M5040 5280 l0 -240 240 0 240 0 0 240 0 240 -240 0 -240 0 0 -240z"/>
<path d="M5520 3840 l0 -80 160 0 160 0 0 80 0 80 -160 0 -160 0 0 -80z"/>
<path d="M5680 3200 l0 -80 80 0 80 0 0 80 0 80 -80 0 -80 0 0 -80z"/>
<path d="M560 3040 l0 -80 80 0 80 0 0 -80 0 -80 80 0 80 0 0 -80 0 -80 -160
0 -160 0 0 -160 0 -160 80 0 80 0 0 80 0 80 80 0 80 0 0 80 0 80 80 0 80 0 0
160 0 160 -160 0 -160 0 0 80 0 80 -80 0 -80 0 0 -80z"/>
<path d="M5680 2560 l0 -80 80 0 80 0 0 80 0 80 -80 0 -80 0 0 -80z"/>
<path d="M880 2240 l0 -80 80 0 80 0 0 80 0 80 -80 0 -80 0 0 -80z"/>
<path d="M560 1920 l0 -80 320 0 320 0 0 80 0 80 -320 0 -320 0 0 -80z"/>
<path d="M560 1120 l0 -560 560 0 560 0 0 560 0 560 -560 0 -560 0 0 -560z
m960 0 l0 -400 -400 0 -400 0 0 400 0 400 400 0 400 0 0 -400z"/>
<path d="M880 1120 l0 -240 240 0 240 0 0 240 0 240 -240 0 -240 0 0 -240z"/>
<path d="M1840 1360 l0 -160 80 0 80 0 0 80 0 80 80 0 80 0 0 80 0 80 -160 0
-160 0 0 -160z"/>
<path d="M1840 720 l0 -160 80 0 80 0 0 160 0 160 -80 0 -80 0 0 -160z"/>
<path d="M5680 640 l0 -80 80 0 80 0 0 80 0 80 -80 0 -80 0 0 -80z"/>
</g>
</g></svg>
