<svg width="41" height="41" viewBox="0 0 41 41" fill="none" xmlns="http://www.w3.org/2000/svg">
<path fill-rule="evenodd" clip-rule="evenodd" d="M10.1875 13.082L10.1875 26.207H14.917C14.9751 26.8509 15.0923 27.4778 15.2632 28.082H10.1875L10.1875 29.0195C10.1875 29.5373 10.6072 29.957 11.125 29.957H15.9995C16.3424 30.6279 16.7566 31.2562 17.2322 31.832H11.125C9.5717 31.832 8.3125 30.5728 8.3125 29.0195V10.2695C8.3125 8.71623 9.5717 7.45703 11.125 7.45703H20.5C22.0533 7.45703 23.3125 8.71623 23.3125 10.2695V15.1271C22.6643 15.2461 22.0372 15.4258 21.4375 15.66V13.082L10.1875 13.082ZM11.125 9.33203H20.5C21.0178 9.33203 21.4375 9.75176 21.4375 10.2695V11.207L10.1875 11.207V10.2695C10.1875 9.75176 10.6072 9.33203 11.125 9.33203Z" fill="#0BA90B"/>
<path d="M22.0973 26.832V28.257H24.2946V29.957H26.1106V28.2695H28.2716V26.832H26.1106V26.0008H28.2716V24.5633H26.952L28.9375 20.582H26.9278L25.245 24.5633L23.5985 20.582H21.4375L23.429 24.5633H22.0973V26.0008H24.2704V26.832H22.0973Z" fill="#0BA90B"/>
<path fill-rule="evenodd" clip-rule="evenodd" d="M25.1875 33.707C29.8474 33.707 33.625 29.9294 33.625 25.2695C33.625 20.6096 29.8474 16.832 25.1875 16.832C20.5276 16.832 16.75 20.6096 16.75 25.2695C16.75 29.9294 20.5276 33.707 25.1875 33.707ZM25.1875 31.832C28.8119 31.832 31.75 28.8939 31.75 25.2695C31.75 21.6452 28.8119 18.707 25.1875 18.707C21.5631 18.707 18.625 21.6452 18.625 25.2695C18.625 28.8939 21.5631 31.832 25.1875 31.832Z" fill="#0BA90B"/>
</svg>
