<svg width="41" height="41" viewBox="0 0 41 41" fill="none" xmlns="http://www.w3.org/2000/svg">
<path d="M33.5976 7.45703V11.207H37.636V13.082H33.5976V16.832H31.5783V13.082H27.5399V11.207H31.5783V7.45703H33.5976Z" fill="#0BA90B"/>
<path fill-rule="evenodd" clip-rule="evenodd" d="M24.4265 18.7671C23.9782 19.2115 24.0863 19.9221 24.6587 20.2184C26.0086 20.9159 28.2247 22.1562 29.5594 23.3946C31.2505 24.9659 31.5251 28.5096 31.5695 31.8237C31.5837 32.8624 30.6801 33.7071 29.5624 33.7071H11.3823C10.2646 33.7071 9.36103 32.8624 9.37516 31.8237C9.41959 28.5096 9.6942 24.9659 11.3863 23.3946C12.72 22.1562 14.9361 20.9159 16.286 20.2184C16.8594 19.9221 16.9665 19.2115 16.5182 18.7671C15.1158 17.3787 14.4152 16.2068 14.4152 13.0821C14.4152 10.2696 16.4344 7.45711 20.4708 7.45711C24.5113 7.45711 26.5306 10.2696 26.5306 13.0821C26.5306 16.2068 25.8289 17.3787 24.4265 18.7671ZM11.3945 31.841L11.3944 31.8471L29.5625 31.8321C29.5617 31.7958 29.5609 31.7576 29.56 31.7177C29.5273 30.1711 29.4378 25.9339 28.1318 24.7202C27.2535 23.9046 25.6714 22.8874 23.6774 21.8562C22.8606 21.4343 22.3104 20.7021 22.166 19.8471C22.0216 18.9855 22.3084 18.1249 22.9535 17.4855C23.948 16.5002 24.5113 15.8102 24.5113 13.0821C24.5113 11.3524 23.4533 9.33211 20.4709 9.33211C17.4915 9.33211 16.4344 11.3524 16.4344 13.0821C16.4344 15.8102 16.9968 16.5002 17.9912 17.4855C18.6364 18.1249 18.9241 18.9855 18.7787 19.8471C18.6344 20.7021 18.0841 21.4343 17.2684 21.8562C15.2744 22.8874 13.6923 23.9046 12.8139 24.7202C11.4761 25.9635 11.4148 30.3797 11.3945 31.841Z" fill="#0BA90B"/>
</svg>
