<svg class="icon-disk" viewBox="0 0 32 32" xmlns="http://www.w3.org/2000/svg"><path d="M16 10.667a5.334 5.334 0 1 0 0 10.667 5.334 5.334 0 0 0 0-10.667zm0 8A2.668 2.668 0 0 1 13.333 16 2.668 2.668 0 0 1 16 13.333 2.668 2.668 0 0 1 18.667 16 2.668 2.668 0 0 1 16 18.667zm0-16c7.352 0 13.333 5.981 13.333 13.333S23.352 29.333 16 29.333 2.667 23.352 2.667 16 8.648 2.667 16 2.667zM16 0C7.164 0 0 7.164 0 16s7.164 16 16 16 16-7.164 16-16S24.836 0 16 0zm-3.885 27.368a12.014 12.014 0 0 1-7.456-7.475l1.36-.169a10.704 10.704 0 0 0 6.265 6.285l-.17 1.359zm.344-2.739a9.35 9.35 0 0 1-5.076-5.076l1.388-.173a8.04 8.04 0 0 0 3.86 3.861l-.172 1.388zM23.252 12.62a8.054 8.054 0 0 0-3.861-3.861l.174-1.388a9.368 9.368 0 0 1 5.076 5.076l-1.389.173zm2.732-.341a10.703 10.703 0 0 0-6.255-6.236l.172-1.359a12.013 12.013 0 0 1 7.443 7.424l-1.36.17z" fill="#333" fill-rule="nonzero"/></svg>