<svg width="16" height="14" xmlns="http://www.w3.org/2000/svg"><g fill="#FFF" fill-rule="nonzero"><path d="M9.525 7.497c-.523-.622-1.25-.97-2.18-1.043.83-.24 1.43-.59 1.811-1.063.38-.473.565-1.093.565-1.885a3.555 3.555 0 0 0-.38-1.664A2.903 2.903 0 0 0 8.234.7C7.813.454 7.31.276 6.723.172 6.135.068 5.103.025 3.627.025H.035v13.95h3.701c1.488 0 2.56-.053 3.218-.16.657-.11 1.205-.294 1.649-.546a3.126 3.126 0 0 0 1.262-1.314c.294-.565.444-1.222.444-1.97 0-1.039-.26-1.867-.784-2.488zm-6.17-4.384h.768c.887 0 1.483.107 1.787.32.306.214.455.583.455 1.105s-.167.86-.49 1.068c-.323.209-.928.307-1.81.307h-.71v-2.8zM6.4 11.114c-.352.227-.951.338-1.793.338H3.356v-3.04h1.303c.865 0 1.464.117 1.781.35.317.234.485.639.485 1.228 0 .59-.173.903-.53 1.13l.005-.006zM14.103 10.445c-.917 0-1.66.791-1.66 1.768s.743 1.769 1.66 1.769c.917 0 1.66-.792 1.66-1.769 0-.977-.743-1.768-1.66-1.768zM12.662.025h2.883v9.304h-2.883z"/></g></svg>