<svg width="157" height="19" xmlns="http://www.w3.org/2000/svg"><g fill="none" fill-rule="evenodd"><path d="M108.058 6.034c.704-.902 1.741-1.392 2.896-1.392 1.291 0 2.348.785 2.876 2.118.861-1.412 2.036-2.118 3.523-2.118 2.27 0 3.737 1.903 3.737 4.806v7.848h-1.76V9.448c0-1.922-.862-3.158-2.231-3.158-1.41 0-2.505 1.393-2.505 3.158v7.848h-1.761V9.448c0-1.903-.881-3.158-2.212-3.158-1.31 0-2.524 1.51-2.524 3.158v7.848h-1.761V4.936h1.467l.255 1.098zM130.508 16.06c-.841.98-2.075 1.53-3.385 1.53-2.623 0-4.423-2.021-4.423-4.963v-7.69h1.76v7.709c0 2.02 1.136 3.296 2.936 3.296 1.664 0 3.17-1.55 3.17-3.237V4.936h1.762v12.36h-1.566l-.254-1.236zM140.332 7.506c-.606-.746-1.546-1.217-2.485-1.217-1.213 0-2.035.687-2.035 1.727 0 .647.215 1.099.685 1.413.235.176.235.176 2.29 1.059 2.387 1.06 3.326 2.119 3.326 3.747 0 2.06-1.643 3.374-4.246 3.374-1.879 0-3.307-.667-4.364-2.02l1.233-1.119c.959 1.06 1.878 1.491 3.15 1.491 1.449 0 2.349-.647 2.349-1.707 0-.588-.353-1.196-1.018-1.706-.45-.334-.998-.608-2.564-1.256-1.917-.804-2.72-1.785-2.72-3.355 0-1.981 1.566-3.295 3.914-3.295 1.546 0 2.68.47 3.757 1.55l-1.272 1.314zM143.43 17.296h1.761V4.936h-1.761v12.36zm-.137-13.89h2.035v-2.04h-2.035v2.04zM154.708 7.859a3.186 3.186 0 0 0-2.74-1.57c-2.055 0-3.581 2.04-3.581 4.827 0 2.785 1.526 4.845 3.581 4.845 1.155 0 2.153-.608 2.799-1.687l1.388 1.256c-.939 1.334-2.445 2.08-4.187 2.08-3.248 0-5.46-2.65-5.46-6.494 0-3.845 2.231-6.474 5.46-6.474 1.78 0 3.268.745 4.168 2.06l-1.428 1.157zM17.675 9.578c0 4.737-3.831 8.575-8.557 8.575-4.728 0-8.555-3.838-8.555-8.575C.563 4.84 4.39.998 9.118.998c4.726 0 8.557 3.842 8.557 8.58" fill="#BF0000"/><path d="M7.987 6.718h1.14a1.43 1.43 0 0 1 0 2.857h-1.14V6.718zm0 7.468v-2.859h1.236l2.139 2.86h2.187l-2.585-3.45a3.177 3.177 0 0 0-1.837-5.769H6.24v9.218h1.747z" fill="#FFF"/><path d="M75.444 13.856c-.159.333-.512.82-1.225.82-.457 0-1.32-.308-1.32-1.474V7.869h4.312V4.936H72.9v-3.08h-2.927v3.08h-2.077v2.933h2.077v5.333c0 2.76 2.16 4.408 4.246 4.408 2.135 0 3.55-1.458 4.075-2.986l-2.85-.768zM36.447 14.666c-1.57 0-2.846-1.593-2.846-3.55 0-1.956 1.277-3.549 2.846-3.549 1.572 0 2.85 1.593 2.85 3.549 0 1.957-1.278 3.55-2.85 3.55zm2.85-9.73v.548a5.275 5.275 0 0 0-2.85-.852c-3.182 0-5.772 2.91-5.772 6.484 0 3.575 2.59 6.483 5.772 6.483a5.258 5.258 0 0 0 2.85-.852v.548h2.927V4.935h-2.926zM63.945 4.936v7.26a2.469 2.469 0 0 1-2.463 2.47 2.469 2.469 0 0 1-2.464-2.47v-7.26h-2.926v7.26c0 2.98 2.418 5.403 5.39 5.403.887 0 1.724-.219 2.463-.602v.298h2.926V4.935h-2.926zM96.668 4.632c-.888 0-1.724.221-2.463.603v-.3h-2.926v12.36h2.926v-7.258a2.47 2.47 0 0 1 2.463-2.472 2.47 2.47 0 0 1 2.463 2.472v7.258h2.927v-7.258c0-2.978-2.418-5.405-5.39-5.405M86.8 9.357h-4.935c.548-2.404 4.391-2.904 4.934 0m3.31 1.759c0-3.58-2.592-6.494-5.776-6.494-3.238 0-5.775 2.853-5.775 6.494 0 3.828 3.257 6.494 6.18 6.494 1.476 0 3.497-.507 5.085-2.767l-2.548-1.475c-2.161 2.647-5.173.85-5.473-1.389l8.25.002c.032-.288.057-.576.057-.865M49.727 10.73l5.78-5.794h-4.139L46.906 9.41V.835H43.98v16.46h2.926V12.05l5.232 5.247h4.137z" fill="#000"/><path d="M22.312 4.787h1.91a2.394 2.394 0 0 1 0 4.786h-1.91V4.787zm0 12.509v-4.789h2.07l3.583 4.789h3.664l-4.33-5.778a5.34 5.34 0 0 0 2.235-4.34c0-2.936-2.382-5.322-5.312-5.322h-4.836v15.44h2.926z" fill="#000"/></g></svg>