<svg width="166" height="20" xmlns="http://www.w3.org/2000/svg" xmlns:xlink="http://www.w3.org/1999/xlink"><defs><path id="a" d="M0 31.206h177.811V.839H0z"/></defs><g transform="translate(-6 -6)" fill="none" fill-rule="evenodd"><path d="M120.527 12.262c.75-.96 1.854-1.479 3.083-1.479 1.375 0 2.5.832 3.063 2.25.917-1.501 2.167-2.25 3.75-2.25 2.418 0 3.98 2.021 3.98 5.104v8.335h-1.875v-8.335c0-2.041-.917-3.354-2.375-3.354-1.5 0-2.667 1.48-2.667 3.354v8.335h-1.875v-8.335c0-2.021-.938-3.354-2.355-3.354-1.396 0-2.687 1.604-2.687 3.354v8.335h-1.876V11.095h1.563l.27 1.167zM144.43 22.909c-.896 1.042-2.209 1.625-3.605 1.625-2.791 0-4.708-2.146-4.708-5.27v-8.169h1.875v8.188c0 2.146 1.208 3.502 3.126 3.502 1.77 0 3.375-1.647 3.375-3.44v-8.25h1.875v13.127H144.7l-.271-1.313zM154.89 13.825c-.645-.791-1.645-1.292-2.645-1.292-1.292 0-2.167.73-2.167 1.833 0 .687.229 1.167.73 1.5.249.187.249.187 2.437 1.126 2.541 1.125 3.542 2.25 3.542 3.98 0 2.187-1.75 3.583-4.522 3.583-2 0-3.521-.71-4.646-2.146l1.314-1.188c1.02 1.125 2 1.583 3.354 1.583 1.541 0 2.5-.687 2.5-1.812 0-.626-.375-1.27-1.083-1.813-.48-.354-1.064-.645-2.73-1.333-2.041-.854-2.896-1.896-2.896-3.562 0-2.105 1.667-3.501 4.167-3.501 1.645 0 2.854.5 4 1.645l-1.354 1.397z" fill="#FFF"/><mask id="b" fill="#fff"><use xlink:href="#a"/></mask><path d="M158.19 24.222h1.874V11.095h-1.875v13.127zm-.146-14.752h2.166V7.303h-2.166V9.47zM170.197 14.2a3.394 3.394 0 0 0-2.917-1.667c-2.189 0-3.813 2.167-3.813 5.126 0 2.957 1.624 5.145 3.813 5.145 1.229 0 2.291-.645 2.979-1.792l1.48 1.333c-1.001 1.419-2.605 2.21-4.46 2.21-3.458 0-5.812-2.813-5.812-6.896 0-4.084 2.375-6.875 5.813-6.875 1.896 0 3.48.79 4.438 2.187l-1.521 1.229zM17.572 20.92l-2.278-3.037h-1.316v3.036h-1.86v-9.79h3.074a3.379 3.379 0 0 1 3.377 3.376 3.383 3.383 0 0 1-1.421 2.75L19.9 20.92h-2.33zM15.183 6.913a9.108 9.108 0 0 0-9.11 9.112 9.106 9.106 0 0 0 9.11 9.107 9.108 9.108 0 0 0 9.11-9.107c0-5.033-4.078-9.112-9.11-9.112z" fill="#FFF" mask="url(#b)"/><path d="M15.192 12.987h-1.214v3.036h1.214a1.52 1.52 0 0 0 1.518-1.519 1.52 1.52 0 0 0-1.518-1.517M85.802 20.569c-.17.353-.544.87-1.305.87-.486 0-1.404-.327-1.404-1.564V14.21h4.59v-3.116h-4.59v-3.27h-3.115v3.27h-2.213v3.116h2.213v5.664c-.001 2.93 2.297 4.68 4.52 4.68 2.272 0 3.78-1.548 4.339-3.17l-3.035-.816zM44.28 21.429c-1.67 0-3.03-1.692-3.03-3.771 0-2.076 1.36-3.768 3.03-3.768 1.674 0 3.036 1.692 3.036 3.768 0 2.08-1.362 3.77-3.035 3.77zm3.036-10.334v.582a5.62 5.62 0 0 0-3.035-.904c-3.39 0-6.146 3.09-6.146 6.885 0 3.797 2.756 6.886 6.146 6.886a5.611 5.611 0 0 0 3.035-.904v.581h3.115V11.095h-3.115zM73.559 11.095v7.71a2.625 2.625 0 0 1-2.623 2.623 2.624 2.624 0 0 1-2.623-2.622v-7.711h-3.116v7.71a5.745 5.745 0 0 0 5.739 5.74c.944 0 1.836-.233 2.623-.64v.317h3.115V11.095H73.56zM108.4 10.773c-.945 0-1.836.234-2.623.64v-.318h-3.115v13.127h3.115v-7.71a2.626 2.626 0 0 1 2.622-2.624 2.625 2.625 0 0 1 2.623 2.623v7.711h3.116v-7.71a5.746 5.746 0 0 0-5.739-5.74M97.893 15.79h-5.255c.584-2.552 4.676-3.084 5.255 0m3.523 1.868c0-3.802-2.76-6.895-6.149-6.895-3.448 0-6.149 3.029-6.149 6.895 0 4.065 3.467 6.898 6.58 6.898 1.571 0 3.722-.539 5.414-2.939l-2.713-1.566c-2.3 2.811-5.508.902-5.827-1.475l8.783.002c.034-.306.06-.613.06-.92M58.42 17.248l6.154-6.153h-4.407l-4.75 4.752V6.739H52.3v17.483h3.115V18.65l5.57 5.572h4.406z" fill="#FFF" mask="url(#b)"/><path d="M29.23 10.937h2.034a2.545 2.545 0 0 1 2.543 2.54 2.545 2.545 0 0 1-2.543 2.543H29.23v-5.083zm0 13.284v-5.085h2.204l3.816 5.085h3.9l-4.61-6.136a5.667 5.667 0 0 0 2.38-4.608 5.659 5.659 0 0 0-5.656-5.653h-5.15V24.22h3.117z" fill="#FFF" mask="url(#b)"/></g></svg>