<svg width="77" height="40" viewBox="0 0 77 40" fill="none" xmlns="http://www.w3.org/2000/svg">
<path d="M1.67149 1.33705C2.34009 0.445682 3.34298 -8.50072e-07 4.51302 -8.50072e-07C5.7945 -8.50072e-07 6.7974 0.779944 7.29884 2.06128C8.13459 0.668523 9.30463 -8.50072e-07 10.7533 -8.50072e-07C12.9819 -8.50072e-07 14.3748 1.83844 14.3748 4.67967V12.312H12.6476V4.62396C12.6476 2.72981 11.8119 1.55989 10.4747 1.55989C9.08177 1.55989 8.02315 2.89694 8.02315 4.62396V12.2563H6.29595V4.62396C6.29595 2.78552 5.4602 1.55989 4.12301 1.55989C2.84153 1.55989 1.67149 3.00836 1.67149 4.62396V12.2563H0V0.278551H1.44863L1.67149 1.33705Z" transform="translate(0 27.3538)" fill="#BF0000"/>
<path d="M7.57742 10.8078C6.74168 11.7549 5.57164 12.312 4.29016 12.312C1.72721 12.312 4.25082e-07 10.3621 4.25082e-07 7.46518V-8.50072e-07H1.72721V7.46518C1.72721 9.41504 2.84153 10.6407 4.56874 10.6407C6.18452 10.6407 7.63314 9.13649 7.63314 7.52089V-8.50072e-07H9.36035V12.0334H7.85601L7.57742 10.8078Z" transform="translate(15.9907 27.6323)" fill="#BF0000"/>
<path d="M6.62953 2.84122C6.01671 2.11699 5.12535 1.67131 4.23398 1.67131C3.06407 1.67131 2.22841 2.33983 2.22841 3.34262C2.22841 3.95543 2.45125 4.40111 2.89694 4.73538C3.11978 4.90251 3.11978 4.90251 5.12535 5.73816C7.46518 6.74095 8.35655 7.79944 8.35655 9.35933C8.35655 11.3649 6.74095 12.6462 4.23398 12.6462C2.39554 12.6462 1.00279 11.9777 0 10.6964L1.22563 9.58217C2.1727 10.585 3.06407 11.0306 4.28969 11.0306C5.68245 11.0306 6.57382 10.4178 6.57382 9.35933C6.57382 8.80223 6.23955 8.18941 5.57103 7.68802C5.12535 7.35376 4.62396 7.07521 3.06407 6.46239C1.16992 5.68245 0.389973 4.73538 0.389973 3.17549C0.389973 1.22563 1.89415 0 4.17827 0C5.68245 0 6.79666 0.445683 7.85515 1.50418L6.62953 2.84122Z" transform="translate(26.4653 27.2981)" fill="#BF0000"/>
<path d="M-8.50072e-07 2.00557V-4.25036e-07H2.00557V2.00557H-8.50072e-07ZM0.167132 15.4875V3.50975H1.89415V15.5432H0.167132V15.4875Z" transform="translate(35.9927 24.1226)" fill="#BF0000"/>
<path d="M7.96744 3.06407C7.41027 2.11699 6.40738 1.55989 5.29306 1.55989C3.28727 1.55989 1.78292 3.56546 1.78292 6.23955C1.78292 8.96936 3.28727 10.9749 5.29306 10.9749C6.40738 10.9749 7.41027 10.3621 8.02315 9.35933L9.36035 10.585C8.46889 11.8663 6.96455 12.5905 5.29306 12.5905C2.11722 12.5905 1.70033e-06 10.0279 1.70033e-06 6.29526C1.70033e-06 2.56267 2.17294 4.25036e-07 5.29306 4.25036e-07C7.02026 4.25036e-07 8.46889 0.724234 9.36035 2.00557L7.96744 3.06407Z" transform="translate(39.1685 27.4095)" fill="#BF0000"/>
<path d="M46.6346 0H2.12541e-07L3.733 3.67688L46.6346 0Z" transform="translate(15.3774 19.2201)" fill="#BF0000"/>
<path d="M8.46889 0.334262V0.891365C7.57743 0.334262 6.85311 5.31295e-08 5.73878 5.31295e-08C2.45152 5.31295e-08 4.25082e-07 2.95265 4.25082e-07 6.62953C4.25082e-07 10.3064 2.50724 13.2591 5.73878 13.2591C6.7974 13.2591 7.57743 12.9248 8.46889 12.3677V12.9248H11.3104V0.334262H8.46889ZM5.73878 10.2507C4.12301 10.2507 2.95297 8.69081 2.95297 6.68524C2.95297 4.67967 4.12301 3.11978 5.73878 3.11978C7.35456 3.11978 8.46889 4.67967 8.46889 6.68524C8.5246 8.69081 7.35456 10.2507 5.73878 10.2507Z" transform="translate(11.2549 3.84399)" fill="#BF0000"/>
<path d="M7.52171 0V7.40947C7.52171 8.80223 6.57453 9.97214 5.18162 9.97214C3.78871 9.97214 2.84153 8.80223 2.84153 7.40947V0H-8.50164e-07V7.40947C-8.50164e-07 10.4735 2.06151 12.9248 5.12591 12.9248C6.51881 12.9248 7.57742 12.1448 7.57742 12.1448V12.5905H10.4747V0H7.52171Z" transform="translate(35.1572 4.17822)" fill="#BF0000"/>
<path d="M2.89725 12.9248V5.51532C2.89725 4.12256 3.84443 2.95265 5.23734 2.95265C6.63025 2.95265 7.57742 4.12256 7.57742 5.51532V12.9248H10.4747V5.51532C10.4747 2.45125 8.41317 0 5.34877 0C3.95586 0 2.89725 0.779944 2.89725 0.779944V0.278552H8.50164e-07V12.9248H2.89725Z" transform="translate(66.5254 3.89978)" fill="#BF0000"/>
<path d="M3.00868 15.8217V10.9192H5.1259L8.80318 15.8217H12.5362L8.07887 9.91643C9.47178 8.91365 10.3632 7.29805 10.3632 5.45961C10.3632 2.45125 7.91172 -2.65647e-08 4.90304 -2.65647e-08H0V15.766H3.00868V15.8217ZM3.00868 3.06407H4.95876C6.29595 3.06407 7.41028 4.17827 7.41028 5.51532C7.41028 6.85237 6.29595 7.96657 4.95876 7.96657H3.00868V3.06407Z" transform="translate(0 1.00281)" fill="#BF0000"/>
<path d="M6.68523 12.8691C6.40668 13.0362 6.12813 13.2033 5.73816 13.2033C5.29248 13.2033 4.40111 12.8691 4.40111 11.6435V6.23955H6.85237V3.17549H4.40111V-2.65647e-08H1.50418V3.17549H-1.70014e-06V6.18384H1.50418V11.6435C1.50418 14.4847 3.62117 16.156 5.79387 16.156C6.57382 16.156 7.68802 15.8774 8.57939 15.376L6.68523 12.8691Z" transform="translate(46.6343 1.00281)" fill="#BF0000"/>
<path d="M5.4602 10.1393L10.419 4.17827H6.40738L2.95297 8.57939V0H0V16.8245H2.95297V11.6435L7.18741 16.8245H11.199L5.4602 10.1393Z" transform="translate(24.2363)" fill="#BF0000"/>
<path d="M5.68307 0C2.34009 0 8.50164e-07 2.89694 8.50164e-07 6.62953C8.50164e-07 10.5292 3.00868 13.2591 5.96165 13.2591C7.46599 13.2591 9.41606 12.7577 11.0318 10.4178L8.5246 8.96936C6.57453 11.8663 3.28726 10.4178 2.89725 7.52089H11.1433C11.8676 2.95265 8.91462 0 5.68307 0ZM8.1903 4.95822H3.00868C3.62156 2.00557 7.63314 1.83844 8.1903 4.95822Z" transform="translate(54.2676 3.89978)" fill="#BF0000"/>
</svg>
