<svg width="32" height="32" viewBox="0 0 32 32" fill="none" xmlns="http://www.w3.org/2000/svg">
<path fill-rule="evenodd" clip-rule="evenodd" d="M15.1875 24.9375H16.8125V16H15.1875V24.9375ZM24.9375 14.375H18.4375V11.9375H20.0625H24.9375V14.375ZM15.1875 14.375H16.8125V11.9375H15.1875V14.375ZM7.05874 14.375V11.9375H11.9337H13.5587V14.375H7.05874ZM18.4375 8.6875C18.4375 7.79131 19.1663 7.0625 20.0625 7.0625C20.9587 7.0625 21.6875 7.79131 21.6875 8.6875C21.6875 9.58369 20.9587 10.3125 20.0625 10.3125H18.4375V8.6875ZM10.3163 8.6875C10.3163 7.79131 11.0451 7.0625 11.9413 7.0625C12.8374 7.0625 13.5663 7.79131 13.5663 8.6875V10.3125H11.9413C11.0451 10.3125 10.3163 9.58369 10.3163 8.6875V8.6875ZM26.5586 16V11.9375C26.5586 11.0437 25.8273 10.3125 24.9336 10.3125H22.8577C23.1372 9.83313 23.3086 9.28225 23.3086 8.6875C23.3086 6.89269 21.8534 5.4375 20.0586 5.4375C18.2638 5.4375 16.8086 6.89269 16.8086 8.6875V10.3125H15.1836V8.6875C15.1836 6.89269 13.7284 5.4375 11.9336 5.4375C10.1388 5.4375 8.68359 6.89269 8.68359 8.6875C8.68359 9.28225 8.85503 9.83313 9.13453 10.3125H7.05859C6.16484 10.3125 5.43359 11.0437 5.43359 11.9375V16H13.5586V24.9375H8.68359V17.625H7.05859V24.9375C7.05859 25.8313 7.78984 26.5625 8.68359 26.5625H23.3086C24.2023 26.5625 24.9336 25.8313 24.9336 24.9375V17.625H23.3086V24.9375H18.4336V16H26.5586Z" fill="#F53A3A"/>
</svg>
