<svg width="32" height="32" viewBox="0 0 32 32" fill="none" xmlns="http://www.w3.org/2000/svg">
<path fill-rule="evenodd" clip-rule="evenodd" d="M12.875 8.1875C12.875 6.46161 14.2741 5.0625 16 5.0625C17.7259 5.0625 19.125 6.46161 19.125 8.1875V16.7812C19.125 18.5071 17.7259 19.9062 16 19.9062C14.2741 19.9062 12.875 18.5071 12.875 16.7812V8.1875ZM16 6.625C15.1371 6.625 14.4375 7.32456 14.4375 8.1875V16.7812C14.4375 17.6442 15.1371 18.3437 16 18.3437C16.8629 18.3437 17.5625 17.6442 17.5625 16.7812V8.1875C17.5625 7.32456 16.8629 6.625 16 6.625Z" fill="#F53A3A"/>
<path d="M16.7812 25.375H18.9297V26.9375H13.0703V25.375H15.2187V22.983C12.1333 22.5992 9.75 19.9716 9.75 16.7812H11.3125C11.3125 19.3732 13.408 21.4687 16 21.4687C18.592 21.4687 20.6875 19.3732 20.6875 16.7812H22.25C22.25 19.9716 19.8667 22.5992 16.7812 22.983V25.375Z" fill="#F53A3A"/>
<path d="M20.6875 14.4375V11.3125H22.25V14.4375H20.6875Z" fill="#F53A3A"/>
<path d="M23.8125 9.75V16H25.375V9.75H23.8125Z" fill="#F53A3A"/>
<path d="M9.75 14.4375V11.3125H11.3125V14.4375H9.75Z" fill="#F53A3A"/>
<path d="M6.625 9.75V16H8.1875V9.75H6.625Z" fill="#F53A3A"/>
</svg>
