<svg width="16" height="16" viewBox="0 0 16 16" fill="none" xmlns="http://www.w3.org/2000/svg">
<path fill-rule="evenodd" clip-rule="evenodd" d="M8.5 1.5H13.5H14.5V2.5V7.5H13.5V3.207L7.2075 9.5L6.5 8.793L12.793 2.5H8.5V1.5ZM2.5 5.5V13.5H10.5V9.5H11.5V13.5C11.5 13.7652 11.3946 14.0196 11.2071 14.2071C11.0196 14.3946 10.7652 14.5 10.5 14.5H2.5C2.23478 14.5 1.98043 14.3946 1.79289 14.2071C1.60536 14.0196 1.5 13.7652 1.5 13.5V5.5C1.5 5.23478 1.60536 4.98043 1.79289 4.79289C1.98043 4.60536 2.23478 4.5 2.5 4.5H6.5V5.5H2.5Z" fill="#D80000"/>
</svg>
