<svg width="41" height="41" viewBox="0 0 41 41" fill="none" xmlns="http://www.w3.org/2000/svg">
<path d="M32.4918 15.2746C32.5833 14.3408 31.8998 13.5047 30.966 13.4131L26.1749 12.9432C26.6632 12.638 26.9867 12.284 27.1393 11.8629C27.2674 11.5211 27.3407 10.9718 26.9684 10.3066C26.5167 9.49486 25.528 8.68924 23.3797 9.47655C22.4398 9.81833 21.5731 10.5507 20.9567 11.1671C20.4745 10.447 19.7666 9.562 18.9121 9.03712C16.9591 7.84699 15.83 8.44511 15.2319 9.15308C14.7375 9.73289 14.707 10.2883 14.7619 10.6484C14.8351 11.0878 15.0793 11.5028 15.5004 11.8934L10.8803 11.4418C10.8253 11.4418 10.7704 11.4357 10.7094 11.4357C9.84271 11.4357 9.10422 12.0948 9.01877 12.9737L8.70141 16.2328C8.67089 16.5441 8.89671 16.8187 9.20797 16.8431L27.3162 18.6192H9.0615C8.75023 18.6192 8.5 18.8694 8.5 19.1807V30.0749C8.5 31.5824 9.72064 32.8031 11.2281 32.8031H29.3852C30.8927 32.8031 32.1134 31.5824 32.1134 30.0749V19.0891H32.1256L32.4979 15.2746H32.4918ZM10.331 30.0749V20.4502H18.5459V30.9721H11.2281C10.7338 30.9721 10.331 30.5693 10.331 30.0749ZM30.2763 30.0749C30.2763 30.5693 29.8735 30.9721 29.3791 30.9721H22.0492V20.4502H30.2763V30.0749ZM30.6547 15.2197L30.4716 17.0873L22.2872 16.2817L22.4703 14.4141L30.6547 15.2197ZM24.0144 11.1977C24.4477 11.039 24.7346 10.9841 24.936 10.9841C25.2534 10.9841 25.3327 11.1244 25.3754 11.1977C25.3876 11.216 25.3937 11.2343 25.3998 11.2526C25.3327 11.3197 25.1313 11.4845 24.6064 11.6737C24.1487 11.8446 23.5017 11.9056 22.867 11.9178C23.2332 11.6127 23.636 11.3441 24.0205 11.2038L24.0144 11.1977ZM16.6356 10.3371C16.721 10.2395 16.9408 9.97702 17.9661 10.5995C18.314 10.8132 18.6558 11.1549 18.9548 11.5272C18.3384 11.393 17.7159 11.2038 17.2947 10.9474C16.8187 10.6545 16.6478 10.4592 16.599 10.3798C16.6051 10.3676 16.6173 10.3493 16.6356 10.331V10.3371ZM10.8375 13.2728L18.9792 14.0723L18.7961 15.9399L10.6544 15.1403L10.8375 13.2728Z" fill="#0BA90B"/>
</svg>
