<svg width="41" height="41" viewBox="0 0 41 41" fill="none" xmlns="http://www.w3.org/2000/svg">
<circle cx="20.5" cy="20.582" r="14" stroke="#0BA90B" stroke-width="2"/>
<path d="M24.7891 20.5826C24.7891 19.6528 24.9249 18.8692 25.1965 18.211C25.7398 16.9051 26.7636 16.1738 28.1426 16.1738C28.8426 16.1738 29.4381 16.3514 29.95 16.6962C30.9529 17.4066 31.5171 18.7334 31.5171 20.5826C31.5171 21.5124 31.3813 22.2959 31.1096 22.9541C30.5664 24.2704 29.5321 24.9913 28.1426 24.9913C27.4531 24.9913 26.8576 24.8137 26.3561 24.4585C25.3532 23.7585 24.7891 22.4213 24.7891 20.5826ZM26.586 20.5826C26.586 22.369 27.1397 23.372 28.1426 23.372C29.156 23.372 29.7201 22.3481 29.7201 20.593C29.7201 18.8065 29.1456 17.7931 28.1426 17.7931C27.1397 17.7931 26.586 18.7961 26.586 20.5826Z" fill="#0BA90B"/>
<path d="M17.0547 20.5826C17.0547 19.6528 17.1905 18.8692 17.4621 18.211C18.0054 16.9051 19.0292 16.1738 20.4082 16.1738C21.1082 16.1738 21.7037 16.3514 22.2156 16.6962C23.2185 17.4066 23.7827 18.7334 23.7827 20.5826C23.7827 21.5124 23.6469 22.2959 23.3753 22.9541C22.832 24.2704 21.7977 24.9913 20.4082 24.9913C19.7187 24.9913 19.1232 24.8137 18.6218 24.4585C17.6188 23.7585 17.0547 22.4213 17.0547 20.5826ZM18.8516 20.5826C18.8516 22.369 19.4053 23.372 20.4082 23.372C21.4216 23.372 21.9858 22.3481 21.9858 20.593C21.9858 18.8065 21.4112 17.7931 20.4082 17.7931C19.4053 17.7931 18.8516 18.7961 18.8516 20.5826Z" fill="#0BA90B"/>
<path d="M14.2729 22.0349C14.2729 21.2095 13.7192 20.7081 12.8521 20.7081C12.2462 20.7081 11.7656 20.9692 11.3999 21.4916L10.303 20.9274L10.5955 16.3516H15.6311V17.8978H11.985L11.8596 19.9245C12.2462 19.5066 12.7894 19.2977 13.4789 19.2977C13.9908 19.2977 14.4296 19.4126 14.8162 19.6424C15.5788 20.1126 16.0594 20.9692 16.0594 22.0557C16.0594 22.6303 15.9236 23.1423 15.6624 23.581C15.1191 24.4691 14.1475 24.9914 12.8939 24.9914C11.7342 24.9914 10.7626 24.6258 10 23.884L10.6895 22.411C11.285 23.09 11.9536 23.4348 12.7163 23.4348C13.667 23.4348 14.2729 22.8811 14.2729 22.0349Z" fill="#0BA90B"/>
</svg>
