<svg width="220" height="56" viewBox="0 0 220 56" fill="none" xmlns="http://www.w3.org/2000/svg">
<path d="M24.6926 5.26178H0V26.3087C0 28.3025 0.201074 30.3001 0.595704 32.2432C1.46389 36.5165 3.31114 40.6263 5.94012 44.1253C7.62952 46.3747 9.6271 48.3704 11.8746 50.0598C15.3737 52.6888 19.4835 54.5361 23.7567 55.4042C25.7017 55.7989 27.6974 56 29.6912 56H50.7382V31.5705L24.6926 5.26178Z" fill="#005300"/>
<path d="M12.1526 8.77069H3.38245V17.539H20.921L12.1526 8.77069Z" fill="#2AC72A"/>
<path d="M29.691 0V26.3087L38.4612 35.0789V1.50335C35.7176 0.533691 32.7673 0 29.691 0Z" fill="#009500"/>
<path d="M12.1526 0H3.38245L12.1526 8.77019V0Z" fill="#8DE98D"/>
<path d="M20.9209 17.5391H3.38245V26.3093H29.6911L20.9209 17.5391Z" fill="#00B900"/>
<path d="M29.6911 26.3093H3.38245C3.38245 29.3855 3.91614 32.3358 4.8858 35.0795H38.4613L29.6911 26.3093Z" fill="#009500"/>
<path d="M12.1526 8.77019L3.38245 0V8.77019H12.1526Z" fill="#009500"/>
<path d="M12.153 0V8.77019L20.9213 17.5385V8.77019V0H12.153Z" fill="#5FD95F"/>
<path d="M20.9213 0V17.5385L29.6914 26.3087V0H20.9213Z" fill="#2AC72A"/>
<path d="M47.2297 43.8471H10.0856C10.7358 44.5725 11.4254 45.2621 12.1508 45.9123C14.6821 48.1786 17.6531 49.9582 20.921 51.1139C23.6646 52.0836 26.615 52.6173 29.6912 52.6173H55.9999L47.2297 43.8471V43.8471Z" fill="#5FD95F"/>
<path d="M54.4967 17.5375C53.341 14.2696 51.5614 11.2986 49.2951 8.76732C48.6449 8.04195 47.9552 7.35229 47.2299 6.70209V43.8462L56 52.6164V26.3077C56 23.2315 55.4664 20.2811 54.4967 17.5375Z" fill="#009500"/>
<path d="M38.4615 1.50446V35.08L47.2317 43.8502V6.70606C44.7005 4.43976 41.7295 2.66016 38.4615 1.50446V1.50446Z" fill="#2AC72A"/>
<path d="M38.4611 35.0786H4.88562C6.04132 38.3465 7.82092 41.3175 10.0872 43.8487H47.2294L38.4593 35.0786H38.4611Z" fill="#00B900"/>
<path d="M26.0435 15.451L26.2014 14.594H24.7206L25.0269 13.1433H28.2553L27.6408 16.2759C27.2875 16.6574 26.8741 16.943 26.3968 17.1328C25.9195 17.3226 25.4102 17.4185 24.8671 17.4185C24.1267 17.4185 23.5047 17.285 23.0049 17.0163C22.5031 16.7476 22.1273 16.3718 21.8717 15.8888C21.618 15.4059 21.4902 14.8421 21.4902 14.2013C21.4902 13.5605 21.5917 12.9704 21.7909 12.433C21.992 11.8974 22.2739 11.4314 22.6384 11.0367C23.0011 10.6421 23.4314 10.3358 23.9294 10.1216C24.4274 9.90545 24.9761 9.79834 25.5756 9.79834C26.083 9.79834 26.5659 9.89982 27.0207 10.1009C27.4755 10.302 27.8757 10.597 28.2215 10.9841L27.1428 12.339C26.938 12.0496 26.6918 11.826 26.4024 11.6663C26.113 11.5084 25.8105 11.4276 25.4929 11.4276C25.0908 11.4276 24.7337 11.5422 24.4237 11.7715C24.1136 12.0008 23.8674 12.3127 23.6889 12.7073C23.5085 13.102 23.4183 13.5511 23.4183 14.051C23.4183 14.5809 23.5536 14.9943 23.8261 15.295C24.0967 15.5957 24.48 15.7441 24.9743 15.7441C25.4196 15.7441 25.7748 15.6445 26.0435 15.4472" fill="white"/>
<path d="M31.655 17.2313C31.1533 17.2313 30.7154 17.1279 30.3377 16.9193C29.96 16.7107 29.6687 16.4176 29.4639 16.0417C29.2591 15.664 29.1576 15.2224 29.1576 14.7131C29.1576 14.2471 29.2384 13.8168 29.4019 13.4221C29.5635 13.0275 29.7928 12.6799 30.0897 12.3792C30.3866 12.0785 30.7305 11.8474 31.1213 11.6801C31.5122 11.5148 31.9388 11.4321 32.3973 11.4321C32.9047 11.4321 33.3463 11.5354 33.7203 11.744C34.0942 11.9526 34.3836 12.2458 34.5885 12.6216C34.7933 12.9993 34.8948 13.4428 34.8948 13.9502C34.8948 14.4162 34.814 14.8466 34.6505 15.2412C34.4889 15.6358 34.2596 15.9835 33.9627 16.2841C33.6658 16.5848 33.3219 16.8178 32.931 16.9832C32.5401 17.1486 32.1136 17.2313 31.655 17.2313ZM31.8242 15.6433C32.0422 15.6433 32.2432 15.5701 32.4274 15.4216C32.6115 15.2731 32.7581 15.0777 32.8728 14.8334C32.9855 14.5891 33.0419 14.3241 33.0419 14.0348C33.0419 13.7247 32.9686 13.4766 32.8201 13.2943C32.6717 13.1102 32.4744 13.02 32.2263 13.02C32.0083 13.02 31.8073 13.0933 31.6231 13.2417C31.4389 13.3902 31.2905 13.5856 31.1777 13.8299C31.065 14.0742 31.0086 14.3392 31.0086 14.6286C31.0086 14.9386 31.0819 15.1867 31.2303 15.369C31.3788 15.5531 31.5761 15.6433 31.8223 15.6433H31.8242Z" fill="white"/>
<path d="M18.5495 28.4141C17.8091 28.4141 17.1871 28.2807 16.6872 28.012C16.1855 27.7433 15.8097 27.3674 15.5541 26.8845C15.3004 26.4015 15.1726 25.8378 15.1726 25.197C15.1726 24.5562 15.2741 23.9661 15.4733 23.4286C15.6744 22.8931 15.9562 22.427 16.3208 22.0324C16.6835 21.6378 17.1138 21.3315 17.6118 21.1172C18.1098 20.9011 18.6585 20.794 19.258 20.794C19.7654 20.794 20.2483 20.8955 20.7031 21.0966C21.1578 21.2976 21.5581 21.5927 21.9039 21.9798L20.8252 23.3347C20.6204 23.0453 20.3742 22.8217 20.0848 22.6619C19.7954 22.5041 19.4929 22.4233 19.1753 22.4233C18.7731 22.4233 18.4161 22.5379 18.106 22.7672C17.796 22.9964 17.5498 23.3084 17.3713 23.703C17.1909 24.0976 17.1007 24.5468 17.1007 25.0466C17.1007 25.5766 17.236 25.99 17.5084 26.2906C17.779 26.5913 18.1624 26.7398 18.6566 26.7398C19.102 26.7398 19.4572 26.6402 19.7259 26.4429L19.8837 25.5859H18.4029L18.7092 24.1352H21.9377L21.3232 27.2678C20.9699 27.6493 20.5565 27.9349 20.0792 28.1247C19.6037 28.3145 19.0926 28.4104 18.5495 28.4104V28.4141Z" fill="white"/>
<path d="M22.2872 28.2529L22.9957 24.6335C23.0314 24.4494 23.0558 24.2671 23.0689 24.0829C23.0821 23.8988 23.0896 23.7203 23.0896 23.5436C23.0896 23.4158 23.0859 23.288 23.0783 23.1565C23.0708 23.0268 23.0614 22.8972 23.0464 22.7694H24.623C24.6512 22.9254 24.6719 23.0776 24.6869 23.2298C24.7001 23.382 24.7076 23.538 24.7076 23.7015V23.786C24.8974 23.4327 25.1511 23.1527 25.4649 22.9441C25.7787 22.7356 26.102 22.6322 26.4327 22.6322C26.5887 22.6322 26.7315 22.6548 26.8612 22.7017C26.9908 22.7468 27.1036 22.8088 27.1938 22.8878L26.6225 24.6016C26.5173 24.5245 26.3838 24.4607 26.226 24.4118C26.0681 24.3629 25.9178 24.3385 25.7769 24.3385C25.495 24.3385 25.2488 24.44 25.0421 24.6411C24.8335 24.8421 24.6869 25.1616 24.6024 25.5994L24.0837 28.2566H22.2834L22.2872 28.2529Z" fill="white"/>
<path d="M29.7441 28.4126C28.9116 28.4126 28.2614 28.1946 27.7916 27.7568C27.3218 27.3189 27.0869 26.7157 27.0869 25.9471C27.0869 25.2913 27.2316 24.7125 27.521 24.2107C27.8104 23.709 28.2107 23.3181 28.7218 23.0362C29.233 22.7543 29.8211 22.6134 30.4845 22.6134C30.8716 22.6134 31.2155 22.6811 31.5105 22.8145C31.8074 22.9479 32.0405 23.1358 32.2096 23.3745C32.3787 23.615 32.4633 23.8894 32.4633 24.1994C32.4633 24.7914 32.2115 25.2386 31.706 25.5374C31.2005 25.8381 30.4131 26.0147 29.3401 26.0711C29.1428 26.0786 28.9905 26.0862 28.8853 26.0918C28.9699 26.6913 29.3194 26.9919 29.9339 26.9919C30.1725 26.9919 30.4018 26.9374 30.616 26.8284C30.8321 26.7194 31.0558 26.5559 31.2888 26.3361L31.924 27.6064C31.6346 27.8601 31.2982 28.0574 30.913 28.1984C30.5277 28.3393 30.1387 28.4107 29.7422 28.4107L29.7441 28.4126ZM30.2627 23.9345C29.9658 23.9345 29.7065 24.0322 29.4848 24.2258C29.263 24.4193 29.0977 24.6749 28.9924 24.9925C29.1052 24.9925 29.2254 24.9887 29.3532 24.9812C29.855 24.968 30.212 24.9041 30.4281 24.7914C30.6442 24.6786 30.7513 24.5227 30.7513 24.3253C30.7513 24.2051 30.7062 24.1111 30.6179 24.0397C30.5296 23.9702 30.4112 23.9345 30.2627 23.9345V23.9345Z" fill="white"/>
<path d="M35.5075 28.4126C34.675 28.4126 34.023 28.1946 33.555 27.7568C33.0852 27.3189 32.8503 26.7157 32.8503 25.9471C32.8503 25.2913 32.995 24.7125 33.2844 24.2107C33.5738 23.709 33.9741 23.3181 34.4852 23.0362C34.9964 22.7543 35.5846 22.6134 36.2479 22.6134C36.635 22.6134 36.9789 22.6811 37.274 22.8145C37.5709 22.9479 37.8039 23.1358 37.973 23.3745C38.1422 23.615 38.2267 23.8894 38.2267 24.1994C38.2267 24.7914 37.9749 25.2386 37.4694 25.5374C36.9639 25.8381 36.1765 26.0147 35.1035 26.0711C34.9062 26.0786 34.754 26.0862 34.6487 26.0918C34.7333 26.6913 35.0828 26.9919 35.6973 26.9919C35.9379 26.9919 36.1652 26.9374 36.3795 26.8284C36.5956 26.7194 36.8192 26.5559 37.0522 26.3361L37.6874 27.6064C37.398 27.8601 37.0616 28.0574 36.6764 28.1984C36.2911 28.3393 35.9022 28.4107 35.5075 28.4107V28.4126ZM36.0262 23.9345C35.7293 23.9345 35.4699 24.0322 35.2482 24.2258C35.0264 24.4193 34.8611 24.6749 34.7558 24.9925C34.8686 24.9925 34.9889 24.9887 35.1166 24.9812C35.6184 24.968 35.9754 24.9041 36.1915 24.7914C36.4077 24.6786 36.5148 24.5227 36.5148 24.3253C36.5148 24.2051 36.4697 24.1111 36.3832 24.0397C36.2949 23.9702 36.1765 23.9345 36.0281 23.9345H36.0262Z" fill="white"/>
<path d="M38.3823 28.2529L39.0908 24.6335C39.1265 24.4494 39.1509 24.2671 39.164 24.0829C39.1772 23.8988 39.1847 23.7203 39.1847 23.5436C39.1847 23.4158 39.181 23.288 39.1734 23.1565C39.1659 23.0268 39.1565 22.8972 39.1415 22.7694H40.7181C40.7463 22.9028 40.7651 23.04 40.7764 23.1772C40.7877 23.3143 40.7952 23.4515 40.8027 23.585C41.015 23.2749 41.2706 23.0381 41.5694 22.8765C41.8682 22.7149 42.1858 22.6322 42.5165 22.6322C43.0465 22.6322 43.443 22.7844 43.7079 23.087C43.9729 23.3895 44.1044 23.7898 44.1044 24.2821C44.1044 24.4156 44.1007 24.5433 44.0932 24.6636C44.0856 24.7839 44.065 24.9211 44.0293 25.077L43.4148 28.2529H41.6164L42.2309 25.0883C42.2516 24.9831 42.2628 24.891 42.2628 24.8139C42.2628 24.6373 42.2196 24.4964 42.1313 24.3911C42.043 24.2859 41.9171 24.2333 41.7554 24.2333C41.4942 24.2333 41.2763 24.3423 41.0996 24.5621C40.923 24.7801 40.8027 25.0564 40.7388 25.3871L40.1769 28.2547H38.3785L38.3823 28.2529Z" fill="white"/>
<path d="M10.1685 39.2191L11.2697 33.5665H9.30029L9.61788 31.9147H15.4283L15.1108 33.5665H13.1414L12.0402 39.2191H10.1666H10.1685Z" fill="white"/>
<path d="M16.5596 39.5911C16.0578 39.5911 15.62 39.4878 15.2423 39.2792C14.8645 39.0706 14.5733 38.7774 14.3684 38.3997C14.1636 38.022 14.0621 37.5804 14.0621 37.0711C14.0621 36.6051 14.1429 36.1747 14.3064 35.7801C14.468 35.3855 14.6973 35.0378 14.9942 34.7372C15.2911 34.4365 15.635 34.2053 16.0259 34.0381C16.4168 33.8727 16.8433 33.79 17.3019 33.79C17.8092 33.79 18.2509 33.8934 18.6248 34.102C18.9988 34.3106 19.2882 34.6037 19.493 34.9814C19.6978 35.3592 19.7993 35.8008 19.7993 36.31C19.7993 36.7761 19.7185 37.2064 19.555 37.601C19.3934 37.9957 19.1641 38.3433 18.8672 38.644C18.5703 38.9447 18.2264 39.1777 17.8356 39.3431C17.4447 39.5084 17.0181 39.5911 16.5596 39.5911ZM16.7287 38.0032C16.9467 38.0032 17.1478 37.9299 17.3319 37.7814C17.5161 37.633 17.6627 37.4376 17.7773 37.1933C17.8901 36.949 17.9464 36.684 17.9464 36.3946C17.9464 36.0845 17.8731 35.8365 17.7247 35.6542C17.5762 35.47 17.3789 35.3798 17.1327 35.3798C16.9147 35.3798 16.7137 35.4531 16.5295 35.6016C16.3454 35.75 16.1969 35.9455 16.0841 36.1898C15.9714 36.4341 15.915 36.699 15.915 36.9884C15.915 37.2985 15.9883 37.5465 16.1368 37.7288C16.2852 37.9111 16.4825 38.0032 16.7287 38.0032Z" fill="white"/>
<path d="M22.2949 41.6017C21.8495 41.6017 21.4342 41.5322 21.0452 41.395C20.6562 41.2579 20.2973 41.0399 19.9666 40.7448L20.5059 39.2001C20.7107 39.4614 20.9663 39.6718 21.2726 39.8353C21.5789 39.9969 21.9059 40.0777 22.2517 40.0777C22.5974 40.0777 22.8455 40.0251 23.0409 39.9199C23.2345 39.8146 23.3848 39.6605 23.49 39.4595C23.5953 39.2584 23.6798 39.0235 23.7437 38.7548L23.7964 38.5218C23.6272 38.7473 23.413 38.9333 23.1555 39.078C22.8981 39.2227 22.6106 39.296 22.293 39.296C21.8551 39.296 21.4887 39.1889 21.1918 38.9728C20.8949 38.7567 20.6731 38.4785 20.5247 38.1365C20.3762 37.7945 20.3029 37.4299 20.3029 37.041C20.3029 36.6031 20.3743 36.1897 20.519 35.7969C20.6637 35.4061 20.8629 35.0603 21.1166 34.7653C21.3703 34.4683 21.6616 34.2353 21.9904 34.0662C22.3193 33.8971 22.6651 33.8125 23.0334 33.8125C23.4205 33.8125 23.7437 33.8952 24.0012 34.0606C24.2586 34.2259 24.4578 34.4251 24.5988 34.6581L24.8205 33.9497H26.3972L25.4031 39.0404C25.3035 39.5478 25.1381 39.995 24.9051 40.3784C24.6721 40.7636 24.3451 41.0624 23.9204 41.2785C23.4976 41.4928 22.9545 41.6017 22.2911 41.6017H22.2949ZM23.0033 37.7175C23.257 37.7175 23.4694 37.6479 23.6385 37.5051C23.8076 37.3623 23.9354 37.1819 24.02 36.9601C24.1045 36.7384 24.1478 36.5148 24.1478 36.2874C24.1478 36.0187 24.0726 35.8026 23.9204 35.6372C23.7682 35.4718 23.5652 35.3891 23.3115 35.3891C23.0785 35.3891 22.8793 35.4568 22.7139 35.5902C22.5486 35.7236 22.4208 35.8946 22.3325 36.1032C22.2441 36.3118 22.2009 36.5317 22.2009 36.7647C22.2009 36.9977 22.2648 37.2232 22.3907 37.4205C22.5185 37.6179 22.7215 37.7175 23.0052 37.7175H23.0033Z" fill="white"/>
<path d="M29.2537 39.5903C28.4213 39.5903 27.7692 39.3723 27.3013 38.9345C26.8315 38.4966 26.5966 37.8934 26.5966 37.1248C26.5966 36.469 26.7413 35.8902 27.0307 35.3885C27.32 34.8867 27.7203 34.4958 28.2315 34.214C28.7426 33.9321 29.3308 33.7911 29.9941 33.7911C30.3813 33.7911 30.7251 33.8588 31.0202 33.9922C31.3152 34.1256 31.5501 34.3136 31.7192 34.5541C31.8884 34.7946 31.9729 35.069 31.9729 35.3791C31.9729 35.971 31.7211 36.4182 31.2156 36.717C30.7101 37.0177 29.9227 37.1944 28.8497 37.2507C28.6524 37.2582 28.5002 37.2658 28.3949 37.2714C28.4795 37.8709 28.829 38.1715 29.4435 38.1715C29.6841 38.1715 29.9115 38.117 30.1257 38.008C30.3418 37.899 30.5654 37.7356 30.7984 37.5157L31.4336 38.786C31.1442 39.0397 30.8078 39.237 30.4226 39.378C30.0374 39.5189 29.6484 39.5903 29.2537 39.5903V39.5903ZM29.7724 35.1122C29.4755 35.1122 29.2162 35.2099 28.9944 35.4035C28.7727 35.597 28.6073 35.8526 28.5021 36.1702C28.6148 36.1702 28.7351 36.1664 28.8629 36.1589C29.3646 36.1458 29.7217 36.0819 29.9378 35.9691C30.1539 35.8564 30.261 35.7004 30.261 35.5031C30.261 35.3828 30.2159 35.287 30.1294 35.2174C30.0411 35.1479 29.9227 35.1122 29.7743 35.1122H29.7724Z" fill="white"/>
<path d="M34.6598 39.5682C34.096 39.5682 33.6413 39.4423 33.2993 39.1924C32.9573 38.9424 32.7863 38.5704 32.7863 38.0761C32.7863 37.8863 32.8069 37.6853 32.8501 37.4729L33.2316 35.5148H32.448L32.7336 34.0547H33.5173L33.7916 32.6359H35.59L35.3156 34.0547H36.7758L36.4901 35.5148H35.03L34.6805 37.2925C34.673 37.3282 34.6673 37.3658 34.6654 37.4034C34.6636 37.441 34.6598 37.4785 34.6598 37.5143C34.6598 37.6477 34.6993 37.7604 34.7763 37.8469C34.8534 37.9352 34.9811 37.9784 35.1578 37.9784C35.2912 37.9784 35.4246 37.9483 35.5543 37.8882C35.684 37.8281 35.8268 37.7529 35.9828 37.6608L36.2477 39.1642C36.0504 39.292 35.8042 39.3897 35.5073 39.4611C35.2104 39.5306 34.9285 39.5663 34.6598 39.5663V39.5682Z" fill="white"/>
<path d="M36.7756 39.4311L38.2358 31.9163H40.036L39.5287 34.4983C39.7053 34.2803 39.9101 34.1112 40.1431 33.9909C40.3762 33.8706 40.6336 33.8105 40.9155 33.8105C41.4454 33.8105 41.8419 33.9627 42.1069 34.2652C42.3719 34.5678 42.5034 34.9681 42.5034 35.4604C42.5034 35.5938 42.4997 35.7216 42.4921 35.8419C42.4846 35.9622 42.4639 36.1031 42.4282 36.2647L41.8137 39.4293H40.0154L40.6299 36.2647C40.6505 36.1444 40.6618 36.0524 40.6618 35.9903C40.6618 35.8137 40.6186 35.6728 40.5303 35.5675C40.4419 35.4623 40.316 35.4078 40.1544 35.4078C39.8932 35.4078 39.6752 35.5168 39.4986 35.7367C39.3219 35.9546 39.2017 36.2309 39.1378 36.5616L38.5759 39.4293H36.7775L36.7756 39.4311Z" fill="white"/>
<path d="M45.5704 39.5903C44.7379 39.5903 44.0858 39.3723 43.6179 38.9345C43.1481 38.4966 42.9132 37.8934 42.9132 37.1248C42.9132 36.469 43.0579 35.8902 43.3473 35.3885C43.6367 34.8867 44.037 34.4958 44.5481 34.214C45.0592 33.9321 45.6474 33.7911 46.3108 33.7911C46.6979 33.7911 47.0418 33.8588 47.3368 33.9922C47.6319 34.1256 47.8668 34.3136 48.0359 34.5541C48.205 34.7946 48.2896 35.069 48.2896 35.3791C48.2896 35.971 48.0378 36.4182 47.5323 36.717C47.0268 37.0177 46.2394 37.1944 45.1664 37.2507C44.969 37.2582 44.8168 37.2658 44.7116 37.2714C44.7962 37.8709 45.1457 38.1715 45.7602 38.1715C46.0007 38.1715 46.2281 38.117 46.4423 38.008C46.6584 37.899 46.8821 37.7356 47.1151 37.5157L47.7503 38.786C47.4609 39.0397 47.1245 39.237 46.7392 39.378C46.354 39.5189 45.965 39.5903 45.5704 39.5903V39.5903ZM46.089 35.1122C45.7921 35.1122 45.5328 35.2099 45.3111 35.4035C45.0893 35.597 44.9239 35.8526 44.8187 36.1702C44.9315 36.1702 45.0517 36.1664 45.1795 36.1589C45.6813 36.1458 46.0383 36.0819 46.2544 35.9691C46.4705 35.8564 46.5776 35.7004 46.5776 35.5031C46.5776 35.3828 46.5325 35.287 46.4461 35.2174C46.3578 35.1479 46.2394 35.1122 46.0909 35.1122H46.089Z" fill="white"/>
<path d="M48.4533 39.431L49.1617 35.8116C49.1974 35.6275 49.2219 35.4452 49.235 35.261C49.2482 35.0769 49.2557 34.8984 49.2557 34.7217C49.2557 34.5939 49.2519 34.4661 49.2444 34.3346C49.2369 34.2049 49.2275 34.0753 49.2125 33.9475H50.7891C50.8173 34.1035 50.838 34.2557 50.853 34.4079C50.8662 34.5601 50.8737 34.7161 50.8737 34.8796V34.9641C51.0635 34.6108 51.3172 34.3308 51.631 34.1222C51.9448 33.9137 52.268 33.8103 52.5988 33.8103C52.7548 33.8103 52.8976 33.8329 53.0272 33.8798C53.1569 33.9249 53.2697 33.9869 53.3599 34.0659L52.7886 35.7797C52.6833 35.7026 52.5499 35.6388 52.3921 35.5899C52.2342 35.541 52.0839 35.5166 51.9429 35.5166C51.6611 35.5166 51.4149 35.6181 51.2063 35.8173C50.9977 36.0184 50.8511 36.3378 50.7666 36.7757L50.2479 39.4328H48.4495L48.4533 39.431Z" fill="white"/>
<path d="M66.1715 13.9622H71.079C69.8917 16.3005 68.4142 17.7555 66 19.3404L66.7915 20.6394C68.8363 19.2234 70.459 17.4697 71.6859 15.0794V19.2104H69.0474V20.5095H71.6859V22.679H73.0447V20.5095H75.7623V19.2104H73.0447V15.0794C74.5486 18.0283 76.5934 19.6781 77.9654 20.6394L78.7306 19.1845C76.7781 18.0543 74.918 16.5084 73.6515 13.9622H78.5723V12.6371H73.0447V10.4677H71.6859V12.6371H66.1715V13.9622Z" fill="#009500"/>
<path d="M89.1657 13.4296V11.0523H87.675V13.4296H83.493V11.1042H81.9891V13.4296H79.8651V14.8196H81.9891V18.1582H83.493V14.8196H87.675V16.2875C87.675 19.7301 84.9178 20.4446 82.3585 20.7304L82.8993 22.1074C85.0629 21.8216 89.1657 21.0551 89.1657 16.2875V14.8196H91.3556V13.4296H89.1657Z" fill="#009500"/>
<path d="M93.097 15.8199V17.3398H104.416V15.8199H93.097Z" fill="#009500"/>
<path d="M108.954 11.429H107.437V19.6651C107.437 21.3929 108.466 21.6787 110.194 21.6787H114.152C114.983 21.6787 116.104 21.6267 116.883 21.5098L116.79 20.0289C115.986 20.1718 114.746 20.2757 113.848 20.2757H110.445C109.139 20.2757 108.954 20.1718 108.954 19.3404V16.6773C109.996 16.4564 112.424 15.9108 115.498 14.5208L114.812 13.1697C112.305 14.4558 110.339 14.9365 108.954 15.2613V11.429ZM114.455 11.0652C115.049 11.9486 115.339 12.5202 115.735 13.5595L116.685 13.0268C116.263 12.0525 115.933 11.377 115.339 10.5846L114.455 11.0652ZM116.421 10.4807C117.028 11.416 117.278 11.8967 117.687 12.9749L118.637 12.4553C118.202 11.442 117.859 10.7405 117.305 10L116.421 10.4807Z" fill="#009500"/>
<path d="M120.128 11.6888V13.0658H126.922C124.97 18.1972 120.999 20.1458 119.429 20.8083L120.286 22.0165C121.896 21.315 123.73 20.0938 125.537 18.1452C127.819 20.1198 128.954 21.3539 129.574 22.0165L130.814 20.8343C128.848 18.9247 127.173 17.6126 126.434 17.054C127.291 15.8718 128.268 14.3389 128.875 11.6888H120.128Z" fill="#009500"/>
<path d="M141.368 13.2867L141.354 11.1822H139.864L139.877 13.2867H136.091V14.6767H139.916L139.956 17.4567C139.692 17.3917 139.323 17.3008 138.769 17.3008C137.041 17.3008 135.853 18.2491 135.853 19.6262C135.853 20.7564 136.684 21.9385 138.742 21.9385C140.537 21.9385 141.275 21.198 141.328 19.847L141.341 19.4703C141.856 19.821 142.476 20.2757 143.069 21.0162L144.006 19.7301C143.412 19.1065 142.423 18.3661 141.407 17.8854L141.381 14.6767H143.729V13.2867H141.368ZM139.982 19.4833C139.996 20.0159 139.916 20.7434 138.663 20.7434C137.885 20.7434 137.133 20.4446 137.133 19.6391C137.133 18.8077 137.99 18.5089 138.782 18.5089C139.362 18.5089 139.705 18.6389 139.969 18.7558L139.982 19.4833ZM133.479 11.1302C133.36 11.8447 133.004 13.8712 133.004 17.054C133.004 18.8987 133.109 20.4706 133.386 21.9515L134.851 21.7696C134.508 20.2237 134.442 18.6389 134.442 17.054C134.442 14.1181 134.771 12.3513 134.996 11.2471L133.479 11.1302Z" fill="#009500"/>
<path d="M78.4667 28.2434H66.277V29.4385H71.7255V30.4778H67.3192V35.4922H66.1451V36.7133H67.3192V40H68.6385V36.7133H76.0525V38.3762C76.0525 38.5191 76.0525 38.7009 75.7095 38.7009H73.6647L73.8758 40H75.8678C76.7649 40 77.385 39.935 77.385 38.8438V36.7133H78.5591V35.4922H77.385V30.4778H72.9523V29.4385H78.4667V28.2434ZM71.7255 31.6339V32.959H68.6385V31.6339H71.7255ZM76.0525 31.6339V32.959H72.9523V31.6339H76.0525ZM71.7255 34.0762V35.4922H68.6385V34.0762H71.7255ZM76.0525 34.0762V35.4922H72.9523V34.0762H76.0525Z" fill="#009500"/>
<path d="M84.9178 31.7639V34.1801H80.406V35.5052H84.9178V38.1943H79.4166V39.5323H91.7646V38.1943H86.3425V35.5052H90.8015V34.1801H86.3425V31.7639H91.2765V30.4518H86.3425V27.8017H84.9178V30.4518H82.4112C82.7806 29.5684 82.9653 28.789 83.084 28.2953L81.6593 28.0355C80.9337 31.1013 79.7068 32.3354 79.1791 32.8551L80.2081 33.8554C80.5907 33.4916 81.1712 32.92 81.7912 31.7639H84.9178Z" fill="#009500"/>
<path d="M103.268 29.5684H104.851V28.2304H92.5825V29.5684H101.883V38.1943C101.883 38.4281 101.791 38.61 101.54 38.61H98.994L99.2446 39.987H101.883C103.057 39.987 103.268 39.4934 103.268 38.8308V29.5684ZM99.9174 30.8935H93.7038V36.9861H99.9174V30.8935ZM98.5454 35.778H95.0627V32.1146H98.5454V35.778Z" fill="#009500"/>
<path d="M106.302 39.987H107.556V37.4798H110.102V38.4801C110.102 38.6619 109.996 38.7139 109.825 38.7139H108.466L108.664 39.987H110.366C110.669 39.987 111.382 39.7532 111.382 38.9218V32.0886H106.302V39.987ZM110.102 33.2448V34.2971H107.556V33.2448H110.102ZM110.102 35.3233V36.4405H107.556V35.3233H110.102ZM112.635 27.8017V32.3874C112.635 32.6342 112.727 33.4916 113.888 33.4916H116.645C117.701 33.4916 118.004 32.8941 118.083 31.1663L116.817 30.7895C116.79 32.2705 116.579 32.2705 116.21 32.2705H114.389C114.033 32.2705 114.033 32.0756 114.033 31.9717V30.7636C115.484 30.3998 116.935 29.7503 117.846 29.2566L117.133 28.2044C116.025 28.9189 114.442 29.4645 114.033 29.6074V27.8017H112.635ZM112.688 38.7009C112.688 38.9607 112.688 39.8961 113.835 39.8961H116.447C117.714 39.8961 117.872 39.4284 118.083 37.2719L116.817 36.9212C116.672 38.649 116.645 38.649 116.21 38.649H114.403C114.218 38.649 114.033 38.571 114.033 38.2592V36.8043C114.996 36.5185 116.553 35.9339 117.74 35.2454L116.988 34.1542C116.091 34.7647 114.587 35.4143 114.033 35.6221V33.8943H112.688V38.7009ZM112.199 31.1403C111.896 30.3738 111.553 29.7633 110.445 28.2823L109.376 28.8669C109.574 29.1787 109.785 29.4645 110.089 29.9971C109.35 30.088 108.057 30.153 107.912 30.153C108.479 28.9449 108.624 28.6331 108.835 27.9706L107.529 27.8017C107.345 28.5551 106.988 29.4255 106.619 30.192C106.171 30.205 106.118 30.205 105.722 30.218L105.814 31.4001C107.45 31.3222 109.785 31.0494 110.603 30.9195C110.827 31.3741 110.88 31.517 110.973 31.7639L112.199 31.1403Z" fill="#009500"/>
<path d="M125.88 30.7895H129.93V29.3736H120.339V30.7895H124.336V37.0381H119.653V38.4671H130.616V37.0381H125.88V30.7895Z" fill="#009500"/>
<path d="M137.555 30.0231H133.426V31.3611H140.668C138.452 33.8164 135.444 35.2973 132.502 36.0378L133.188 37.3759C134.099 37.0901 135.537 36.6484 137.555 35.4922V39.4414H139.033V34.5439C140.866 33.2188 141.961 31.9847 142.581 31.2572V30.0231H139.033V28.3213H137.555V30.0231ZM144.217 36.1028C143.215 35.4013 141.697 34.5958 140.55 34.1152L139.745 35.1934C141.79 36.1417 143.083 37.155 143.426 37.4148L144.217 36.1028Z" fill="#009500"/>
<path d="M149.019 28.8669H147.555V32.0886C147.555 35.6611 146.724 37.0251 145.431 38.3502L146.539 39.4414C147.726 38.3112 149.019 36.4795 149.019 31.9587V28.8669ZM152.502 28.5162H151.024V39.2076C155.76 38.8568 156.908 35.8559 157.528 33.2188L156.117 32.6342C155.523 36.2846 153.94 36.8692 152.502 37.4018V28.5162Z" fill="#009500"/>
<path d="M165.206 32.1406L169.349 31.7379L169.23 30.3868L165.061 30.7766L164.81 28.3733L163.28 28.4902L163.544 30.9195L159.322 31.3092L159.428 32.6732L163.676 32.2835L163.913 34.5439L158.993 34.9986L159.124 36.3886L164.058 35.9209L164.441 39.5713L165.971 39.4804L165.589 35.778L170.404 35.3363L170.312 33.9463L165.444 34.401L165.206 32.1406ZM167.119 27.7497C167.554 28.6071 167.779 29.2177 168.003 30.166L169.032 29.7893C168.715 28.711 168.517 28.1264 168.082 27.373L167.119 27.7497ZM169.256 27.6977C169.692 28.5551 169.903 29.1787 170.14 30.179L171.169 29.7763C170.852 28.685 170.694 28.1914 170.219 27.321L169.256 27.6977Z" fill="#009500"/>
<path d="M172.251 33.1409V34.6608H183.57V33.1409H172.251Z" fill="#009500"/>
<path d="M185.839 30.114L186.05 31.556L188.002 30.2309V38.8438H189.586V28.5421H188.2L185.839 30.114Z" fill="#009500"/>
<path d="M195.458 39.0517C199.152 39.0517 199.152 34.6868 199.152 33.6865C199.152 32.6992 199.152 28.3343 195.458 28.3343C191.764 28.3343 191.764 32.6862 191.764 33.6865C191.764 34.6868 191.764 39.0517 195.458 39.0517ZM195.458 37.6487C193.77 37.6487 193.334 35.778 193.334 33.6865C193.334 31.7119 193.717 29.7373 195.458 29.7373C197.2 29.7373 197.582 31.6989 197.582 33.6865C197.582 35.6481 197.2 37.6487 195.458 37.6487Z" fill="#009500"/>
<path d="M204.299 39.0517C207.993 39.0517 207.993 34.6868 207.993 33.6865C207.993 32.6992 207.993 28.3343 204.299 28.3343C200.605 28.3343 200.605 32.6862 200.605 33.6865C200.605 34.6868 200.605 39.0517 204.299 39.0517ZM204.299 37.6487C202.61 37.6487 202.175 35.778 202.175 33.6865C202.175 31.7119 202.558 29.7373 204.299 29.7373C206.04 29.7373 206.423 31.6989 206.423 33.6865C206.423 35.6481 206.04 37.6487 204.299 37.6487Z" fill="#009500"/>
<path d="M209.446 31.1403C209.446 32.8551 210.607 33.9333 211.966 33.9333C213.325 33.9333 214.486 32.8551 214.486 31.1403C214.486 29.3995 213.311 28.3343 211.966 28.3343C210.62 28.3343 209.446 29.3865 209.446 31.1403ZM210.66 31.1403C210.66 29.8672 211.385 29.3865 211.966 29.3865C212.507 29.3865 213.272 29.8282 213.272 31.1403C213.272 32.4524 212.507 32.8811 211.966 32.8811C211.385 32.8811 210.66 32.4134 210.66 31.1403ZM214.961 36.2457C214.961 37.9734 216.121 39.0517 217.48 39.0517C218.839 39.0517 220 37.9604 220 36.2457C220 34.5049 218.813 33.4527 217.48 33.4527C216.148 33.4527 214.961 34.4919 214.961 36.2457ZM216.174 36.2457C216.174 34.9726 216.9 34.5049 217.48 34.5049C218.048 34.5049 218.786 34.9596 218.786 36.2457C218.786 37.5707 218.021 37.9994 217.48 37.9994C216.926 37.9994 216.174 37.5577 216.174 36.2457ZM210.594 38.8438H211.636L218.839 28.5421H217.797L210.594 38.8438Z" fill="#009500"/>
</svg>
