<svg width="306" height="306" viewBox="0 0 306 306" fill="none" xmlns="http://www.w3.org/2000/svg">
<g clip-path="url(#clip0_3266_2357)">
<path d="M43.7143 0H0V6.2449H43.7143V0Z" fill="black"/>
<path d="M56.2041 0H49.9592V6.2449H56.2041V0Z" fill="black"/>
<path d="M112.408 0H62.449V6.2449H112.408V0Z" fill="black"/>
<path d="M124.898 0H118.653V6.2449H124.898V0Z" fill="black"/>
<path d="M149.878 0H137.388V6.2449H149.878V0Z" fill="black"/>
<path d="M162.367 0H156.122V6.2449H162.367V0Z" fill="black"/>
<path d="M174.857 0H168.612V6.2449H174.857V0Z" fill="black"/>
<path d="M193.592 0H187.347V6.2449H193.592V0Z" fill="black"/>
<path d="M231.061 0H206.082V6.2449H231.061V0Z" fill="black"/>
<path d="M256.041 0H249.796V6.2449H256.041V0Z" fill="black"/>
<path d="M306 0H262.286V6.2449H306V0Z" fill="black"/>
<path d="M6.2449 6.24487H0V12.4898H6.2449V6.24487Z" fill="black"/>
<path d="M43.7143 6.24487H37.4694V12.4898H43.7143V6.24487Z" fill="black"/>
<path d="M62.449 6.24487H56.2041V12.4898H62.449V6.24487Z" fill="black"/>
<path d="M81.1837 6.24487H74.9388V12.4898H81.1837V6.24487Z" fill="black"/>
<path d="M112.408 6.24487H93.6735V12.4898H112.408V6.24487Z" fill="black"/>
<path d="M131.143 6.24487H124.898V12.4898H131.143V6.24487Z" fill="black"/>
<path d="M143.633 6.24487H137.388V12.4898H143.633V6.24487Z" fill="black"/>
<path d="M199.837 6.24487H156.122V12.4898H199.837V6.24487Z" fill="black"/>
<path d="M224.816 6.24487H206.082V12.4898H224.816V6.24487Z" fill="black"/>
<path d="M256.041 6.24487H237.306V12.4898H256.041V6.24487Z" fill="black"/>
<path d="M268.531 6.24487H262.286V12.4898H268.531V6.24487Z" fill="black"/>
<path d="M306 6.24487H299.755V12.4898H306V6.24487Z" fill="black"/>
<path d="M6.2449 12.4897H0V18.7346H6.2449V12.4897Z" fill="black"/>
<path d="M31.2245 12.4897H12.4898V18.7346H31.2245V12.4897Z" fill="black"/>
<path d="M43.7143 12.4897H37.4694V18.7346H43.7143V12.4897Z" fill="black"/>
<path d="M62.449 12.4897H56.2041V18.7346H62.449V12.4897Z" fill="black"/>
<path d="M74.9388 12.4897H68.6939V18.7346H74.9388V12.4897Z" fill="black"/>
<path d="M93.6735 12.4897H81.1837V18.7346H93.6735V12.4897Z" fill="black"/>
<path d="M112.408 12.4897H106.163V18.7346H112.408V12.4897Z" fill="black"/>
<path d="M124.898 12.4897H118.653V18.7346H124.898V12.4897Z" fill="black"/>
<path d="M149.878 12.4897H137.388V18.7346H149.878V12.4897Z" fill="black"/>
<path d="M162.367 12.4897H156.122V18.7346H162.367V12.4897Z" fill="black"/>
<path d="M193.592 12.4897H174.857V18.7346H193.592V12.4897Z" fill="black"/>
<path d="M206.082 12.4897H199.837V18.7346H206.082V12.4897Z" fill="black"/>
<path d="M224.816 12.4897H212.327V18.7346H224.816V12.4897Z" fill="black"/>
<path d="M256.041 12.4897H243.551V18.7346H256.041V12.4897Z" fill="black"/>
<path d="M268.531 12.4897H262.286V18.7346H268.531V12.4897Z" fill="black"/>
<path d="M293.51 12.4897H274.776V18.7346H293.51V12.4897Z" fill="black"/>
<path d="M306 12.4897H299.755V18.7346H306V12.4897Z" fill="black"/>
<path d="M6.2449 18.7346H0V24.9795H6.2449V18.7346Z" fill="black"/>
<path d="M31.2245 18.7346H12.4898V24.9795H31.2245V18.7346Z" fill="black"/>
<path d="M43.7143 18.7346H37.4694V24.9795H43.7143V18.7346Z" fill="black"/>
<path d="M56.2041 18.7346H49.9592V24.9795H56.2041V18.7346Z" fill="black"/>
<path d="M74.9388 18.7346H68.6939V24.9795H74.9388V18.7346Z" fill="black"/>
<path d="M93.6735 18.7346H81.1837V24.9795H93.6735V18.7346Z" fill="black"/>
<path d="M118.653 18.7346H99.9184V24.9795H118.653V18.7346Z" fill="black"/>
<path d="M156.122 18.7346H124.898V24.9795H156.122V18.7346Z" fill="black"/>
<path d="M174.857 18.7346H168.612V24.9795H174.857V18.7346Z" fill="black"/>
<path d="M187.347 18.7346H181.102V24.9795H187.347V18.7346Z" fill="black"/>
<path d="M199.837 18.7346H193.592V24.9795H199.837V18.7346Z" fill="black"/>
<path d="M218.571 18.7346H212.327V24.9795H218.571V18.7346Z" fill="black"/>
<path d="M249.796 18.7346H243.551V24.9795H249.796V18.7346Z" fill="black"/>
<path d="M268.531 18.7346H262.286V24.9795H268.531V18.7346Z" fill="black"/>
<path d="M293.51 18.7346H274.776V24.9795H293.51V18.7346Z" fill="black"/>
<path d="M306 18.7346H299.755V24.9795H306V18.7346Z" fill="black"/>
<path d="M6.2449 24.9795H0V31.2244H6.2449V24.9795Z" fill="black"/>
<path d="M31.2245 24.9795H12.4898V31.2244H31.2245V24.9795Z" fill="black"/>
<path d="M43.7143 24.9795H37.4694V31.2244H43.7143V24.9795Z" fill="black"/>
<path d="M74.9388 24.9795H62.449V31.2244H74.9388V24.9795Z" fill="black"/>
<path d="M93.6735 24.9795H81.1837V31.2244H93.6735V24.9795Z" fill="black"/>
<path d="M112.408 24.9795H106.163V31.2244H112.408V24.9795Z" fill="black"/>
<path d="M168.612 24.9795H137.388V31.2244H168.612V24.9795Z" fill="black"/>
<path d="M181.102 24.9795H174.857V31.2244H181.102V24.9795Z" fill="black"/>
<path d="M218.571 24.9795H206.082V31.2244H218.571V24.9795Z" fill="black"/>
<path d="M237.306 24.9795H224.816V31.2244H237.306V24.9795Z" fill="black"/>
<path d="M268.531 24.9795H262.286V31.2244H268.531V24.9795Z" fill="black"/>
<path d="M293.51 24.9795H274.776V31.2244H293.51V24.9795Z" fill="black"/>
<path d="M306 24.9795H299.755V31.2244H306V24.9795Z" fill="black"/>
<path d="M6.2449 31.2246H0V37.4695H6.2449V31.2246Z" fill="black"/>
<path d="M43.7143 31.2246H37.4694V37.4695H43.7143V31.2246Z" fill="black"/>
<path d="M74.9388 31.2246H68.6939V37.4695H74.9388V31.2246Z" fill="black"/>
<path d="M93.6735 31.2246H87.4286V37.4695H93.6735V31.2246Z" fill="black"/>
<path d="M124.898 31.2246H112.408V37.4695H124.898V31.2246Z" fill="black"/>
<path d="M143.633 31.2246H131.143V37.4695H143.633V31.2246Z" fill="black"/>
<path d="M174.857 31.2246H162.367V37.4695H174.857V31.2246Z" fill="black"/>
<path d="M224.816 31.2246H199.837V37.4695H224.816V31.2246Z" fill="black"/>
<path d="M243.551 31.2246H231.061V37.4695H243.551V31.2246Z" fill="black"/>
<path d="M268.531 31.2246H262.286V37.4695H268.531V31.2246Z" fill="black"/>
<path d="M306 31.2246H299.755V37.4695H306V31.2246Z" fill="black"/>
<path d="M43.7143 37.4695H0V43.7144H43.7143V37.4695Z" fill="black"/>
<path d="M56.2041 37.4695H49.9592V43.7144H56.2041V37.4695Z" fill="black"/>
<path d="M68.6939 37.4695H62.449V43.7144H68.6939V37.4695Z" fill="black"/>
<path d="M81.1837 37.4695H74.9388V43.7144H81.1837V37.4695Z" fill="black"/>
<path d="M93.6735 37.4695H87.4286V43.7144H93.6735V37.4695Z" fill="black"/>
<path d="M106.163 37.4695H99.9184V43.7144H106.163V37.4695Z" fill="black"/>
<path d="M118.653 37.4695H112.408V43.7144H118.653V37.4695Z" fill="black"/>
<path d="M131.143 37.4695H124.898V43.7144H131.143V37.4695Z" fill="black"/>
<path d="M143.633 37.4695H137.388V43.7144H143.633V37.4695Z" fill="black"/>
<path d="M156.122 37.4695H149.878V43.7144H156.122V37.4695Z" fill="black"/>
<path d="M168.612 37.4695H162.367V43.7144H168.612V37.4695Z" fill="black"/>
<path d="M181.102 37.4695H174.857V43.7144H181.102V37.4695Z" fill="black"/>
<path d="M193.592 37.4695H187.347V43.7144H193.592V37.4695Z" fill="black"/>
<path d="M206.082 37.4695H199.837V43.7144H206.082V37.4695Z" fill="black"/>
<path d="M218.571 37.4695H212.327V43.7144H218.571V37.4695Z" fill="black"/>
<path d="M231.061 37.4695H224.816V43.7144H231.061V37.4695Z" fill="black"/>
<path d="M243.551 37.4695H237.306V43.7144H243.551V37.4695Z" fill="black"/>
<path d="M256.041 37.4695H249.796V43.7144H256.041V37.4695Z" fill="black"/>
<path d="M306 37.4695H262.286V43.7144H306V37.4695Z" fill="black"/>
<path d="M87.4286 43.7144H68.6939V49.9593H87.4286V43.7144Z" fill="black"/>
<path d="M112.408 43.7144H106.163V49.9593H112.408V43.7144Z" fill="black"/>
<path d="M124.898 43.7144H118.653V49.9593H124.898V43.7144Z" fill="black"/>
<path d="M143.633 43.7144H137.388V49.9593H143.633V43.7144Z" fill="black"/>
<path d="M168.612 43.7144H162.367V49.9593H168.612V43.7144Z" fill="black"/>
<path d="M212.327 43.7144H193.592V49.9593H212.327V43.7144Z" fill="black"/>
<path d="M224.816 43.7144H218.571V49.9593H224.816V43.7144Z" fill="black"/>
<path d="M243.551 43.7144H237.306V49.9593H243.551V43.7144Z" fill="black"/>
<path d="M18.7347 49.9592H12.4898V56.2041H18.7347V49.9592Z" fill="black"/>
<path d="M43.7143 49.9592H24.9796V56.2041H43.7143V49.9592Z" fill="black"/>
<path d="M56.2041 49.9592H49.9592V56.2041H56.2041V49.9592Z" fill="black"/>
<path d="M99.9184 49.9592H68.6939V56.2041H99.9184V49.9592Z" fill="black"/>
<path d="M131.143 49.9592H106.163V56.2041H131.143V49.9592Z" fill="black"/>
<path d="M168.612 49.9592H137.388V56.2041H168.612V49.9592Z" fill="black"/>
<path d="M181.102 49.9592H174.857V56.2041H181.102V49.9592Z" fill="black"/>
<path d="M212.327 49.9592H199.837V56.2041H212.327V49.9592Z" fill="black"/>
<path d="M224.816 49.9592H218.571V56.2041H224.816V49.9592Z" fill="black"/>
<path d="M243.551 49.9592H231.061V56.2041H243.551V49.9592Z" fill="black"/>
<path d="M262.286 49.9592H256.041V56.2041H262.286V49.9592Z" fill="black"/>
<path d="M287.265 49.9592H281.02V56.2041H287.265V49.9592Z" fill="black"/>
<path d="M306 49.9592H299.755V56.2041H306V49.9592Z" fill="black"/>
<path d="M37.4694 56.2041H0V62.449H37.4694V56.2041Z" fill="black"/>
<path d="M56.2041 56.2041H43.7143V62.449H56.2041V56.2041Z" fill="black"/>
<path d="M81.1837 56.2041H68.6939V62.449H81.1837V56.2041Z" fill="black"/>
<path d="M99.9184 56.2041H93.6735V62.449H99.9184V56.2041Z" fill="black"/>
<path d="M118.653 56.2041H112.408V62.449H118.653V56.2041Z" fill="black"/>
<path d="M137.388 56.2041H131.143V62.449H137.388V56.2041Z" fill="black"/>
<path d="M162.367 56.2041H143.633V62.449H162.367V56.2041Z" fill="black"/>
<path d="M206.082 56.2041H193.592V62.449H206.082V56.2041Z" fill="black"/>
<path d="M231.061 56.2041H218.571V62.449H231.061V56.2041Z" fill="black"/>
<path d="M12.4898 62.449H0V68.6939H12.4898V62.449Z" fill="black"/>
<path d="M43.7143 62.449H37.4694V68.6939H43.7143V62.449Z" fill="black"/>
<path d="M68.6939 62.449H56.2041V68.6939H68.6939V62.449Z" fill="black"/>
<path d="M81.1837 62.449H74.9388V68.6939H81.1837V62.449Z" fill="black"/>
<path d="M106.163 62.449H87.4286V68.6939H106.163V62.449Z" fill="black"/>
<path d="M131.143 62.449H112.408V68.6939H131.143V62.449Z" fill="black"/>
<path d="M143.633 62.449H137.388V68.6939H143.633V62.449Z" fill="black"/>
<path d="M199.837 62.449H193.592V68.6939H199.837V62.449Z" fill="black"/>
<path d="M224.816 62.449H212.327V68.6939H224.816V62.449Z" fill="black"/>
<path d="M237.306 62.449H231.061V68.6939H237.306V62.449Z" fill="black"/>
<path d="M249.796 62.449H243.551V68.6939H249.796V62.449Z" fill="black"/>
<path d="M262.286 62.449H256.041V68.6939H262.286V62.449Z" fill="black"/>
<path d="M306 62.449H274.776V68.6939H306V62.449Z" fill="black"/>
<path d="M12.4898 68.6938H6.2449V74.9387H12.4898V68.6938Z" fill="black"/>
<path d="M31.2245 68.6938H18.7347V74.9387H31.2245V68.6938Z" fill="black"/>
<path d="M56.2041 68.6938H49.9592V74.9387H56.2041V68.6938Z" fill="black"/>
<path d="M68.6939 68.6938H62.449V74.9387H68.6939V68.6938Z" fill="black"/>
<path d="M81.1837 68.6938H74.9388V74.9387H81.1837V68.6938Z" fill="black"/>
<path d="M156.122 68.6938H131.143V74.9387H156.122V68.6938Z" fill="black"/>
<path d="M212.327 68.6938H193.592V74.9387H212.327V68.6938Z" fill="black"/>
<path d="M224.816 68.6938H218.571V74.9387H224.816V68.6938Z" fill="black"/>
<path d="M249.796 68.6938H237.306V74.9387H249.796V68.6938Z" fill="black"/>
<path d="M268.531 68.6938H256.041V74.9387H268.531V68.6938Z" fill="black"/>
<path d="M281.02 68.6938H274.776V74.9387H281.02V68.6938Z" fill="black"/>
<path d="M306 68.6938H299.755V74.9387H306V68.6938Z" fill="black"/>
<path d="M12.4898 74.9387H6.2449V81.1836H12.4898V74.9387Z" fill="black"/>
<path d="M56.2041 74.9387H37.4694V81.1836H56.2041V74.9387Z" fill="black"/>
<path d="M68.6939 74.9387H62.449V81.1836H68.6939V74.9387Z" fill="black"/>
<path d="M81.1837 74.9387H74.9388V81.1836H81.1837V74.9387Z" fill="black"/>
<path d="M106.163 74.9387H93.6735V81.1836H106.163V74.9387Z" fill="black"/>
<path d="M124.898 74.9387H118.653V81.1836H124.898V74.9387Z" fill="black"/>
<path d="M156.122 74.9387H131.143V81.1836H156.122V74.9387Z" fill="black"/>
<path d="M168.612 74.9387H162.367V81.1836H168.612V74.9387Z" fill="black"/>
<path d="M193.592 74.9387H181.102V81.1836H193.592V74.9387Z" fill="black"/>
<path d="M237.306 74.9387H199.837V81.1836H237.306V74.9387Z" fill="black"/>
<path d="M268.531 74.9387H256.041V81.1836H268.531V74.9387Z" fill="black"/>
<path d="M293.51 74.9387H274.776V81.1836H293.51V74.9387Z" fill="black"/>
<path d="M12.4898 81.1836H0V87.4285H12.4898V81.1836Z" fill="black"/>
<path d="M37.4694 81.1836H24.9796V87.4285H37.4694V81.1836Z" fill="black"/>
<path d="M49.9592 81.1836H43.7143V87.4285H49.9592V81.1836Z" fill="black"/>
<path d="M62.449 81.1836H56.2041V87.4285H62.449V81.1836Z" fill="black"/>
<path d="M74.9388 81.1836H68.6939V87.4285H74.9388V81.1836Z" fill="black"/>
<path d="M87.4286 81.1836H81.1837V87.4285H87.4286V81.1836Z" fill="black"/>
<path d="M106.163 81.1836H99.9184V87.4285H106.163V81.1836Z" fill="black"/>
<path d="M131.143 81.1836H118.653V87.4285H131.143V81.1836Z" fill="black"/>
<path d="M143.633 81.1836H137.388V87.4285H143.633V81.1836Z" fill="black"/>
<path d="M162.367 81.1836H156.122V87.4285H162.367V81.1836Z" fill="black"/>
<path d="M193.592 81.1836H174.857V87.4285H193.592V81.1836Z" fill="black"/>
<path d="M206.082 81.1836H199.837V87.4285H206.082V81.1836Z" fill="black"/>
<path d="M231.061 81.1836H218.571V87.4285H231.061V81.1836Z" fill="black"/>
<path d="M249.796 81.1836H243.551V87.4285H249.796V81.1836Z" fill="black"/>
<path d="M281.02 81.1836H274.776V87.4285H281.02V81.1836Z" fill="black"/>
<path d="M293.51 81.1836H287.265V87.4285H293.51V81.1836Z" fill="black"/>
<path d="M306 81.1836H299.755V87.4285H306V81.1836Z" fill="black"/>
<path d="M18.7347 87.4285H12.4898V93.6734H18.7347V87.4285Z" fill="black"/>
<path d="M43.7143 87.4285H31.2245V93.6734H43.7143V87.4285Z" fill="black"/>
<path d="M56.2041 87.4285H49.9592V93.6734H56.2041V87.4285Z" fill="black"/>
<path d="M74.9388 87.4285H62.449V93.6734H74.9388V87.4285Z" fill="black"/>
<path d="M106.163 87.4285H81.1837V93.6734H106.163V87.4285Z" fill="black"/>
<path d="M131.143 87.4285H112.408V93.6734H131.143V87.4285Z" fill="black"/>
<path d="M156.122 87.4285H143.633V93.6734H156.122V87.4285Z" fill="black"/>
<path d="M168.612 87.4285H162.367V93.6734H168.612V87.4285Z" fill="black"/>
<path d="M193.592 87.4285H174.857V93.6734H193.592V87.4285Z" fill="black"/>
<path d="M218.571 87.4285H212.327V93.6734H218.571V87.4285Z" fill="black"/>
<path d="M243.551 87.4285H224.816V93.6734H243.551V87.4285Z" fill="black"/>
<path d="M281.02 87.4285H262.286V93.6734H281.02V87.4285Z" fill="black"/>
<path d="M306 87.4285H299.755V93.6734H306V87.4285Z" fill="black"/>
<path d="M12.4898 93.6736H6.2449V99.9185H12.4898V93.6736Z" fill="black"/>
<path d="M37.4694 93.6736H31.2245V99.9185H37.4694V93.6736Z" fill="black"/>
<path d="M49.9592 93.6736H43.7143V99.9185H49.9592V93.6736Z" fill="black"/>
<path d="M74.9388 93.6736H56.2041V99.9185H74.9388V93.6736Z" fill="black"/>
<path d="M93.6735 93.6736H81.1837V99.9185H93.6735V93.6736Z" fill="black"/>
<path d="M112.408 93.6736H106.163V99.9185H112.408V93.6736Z" fill="black"/>
<path d="M131.143 93.6736H118.653V99.9185H131.143V93.6736Z" fill="black"/>
<path d="M156.122 93.6736H149.878V99.9185H156.122V93.6736Z" fill="black"/>
<path d="M174.857 93.6736H168.612V99.9185H174.857V93.6736Z" fill="black"/>
<path d="M187.347 93.6736H181.102V99.9185H187.347V93.6736Z" fill="black"/>
<path d="M199.837 93.6736H193.592V99.9185H199.837V93.6736Z" fill="black"/>
<path d="M212.327 93.6736H206.082V99.9185H212.327V93.6736Z" fill="black"/>
<path d="M224.816 93.6736H218.571V99.9185H224.816V93.6736Z" fill="black"/>
<path d="M237.306 93.6736H231.061V99.9185H237.306V93.6736Z" fill="black"/>
<path d="M256.041 93.6736H243.551V99.9185H256.041V93.6736Z" fill="black"/>
<path d="M268.531 93.6736H262.286V99.9185H268.531V93.6736Z" fill="black"/>
<path d="M281.02 93.6736H274.776V99.9185H281.02V93.6736Z" fill="black"/>
<path d="M306 93.6736H299.755V99.9185H306V93.6736Z" fill="black"/>
<path d="M12.4898 99.9185H0V106.163H12.4898V99.9185Z" fill="black"/>
<path d="M24.9796 99.9185H18.7347V106.163H24.9796V99.9185Z" fill="black"/>
<path d="M56.2041 99.9185H31.2245V106.163H56.2041V99.9185Z" fill="black"/>
<path d="M68.6939 99.9185H62.449V106.163H68.6939V99.9185Z" fill="black"/>
<path d="M112.408 99.9185H74.9388V106.163H112.408V99.9185Z" fill="black"/>
<path d="M149.878 99.9185H143.633V106.163H149.878V99.9185Z" fill="black"/>
<path d="M162.367 99.9185H156.122V106.163H162.367V99.9185Z" fill="black"/>
<path d="M187.347 99.9185H174.857V106.163H187.347V99.9185Z" fill="black"/>
<path d="M243.551 99.9185H193.592V106.163H243.551V99.9185Z" fill="black"/>
<path d="M256.041 99.9185H249.796V106.163H256.041V99.9185Z" fill="black"/>
<path d="M281.02 99.9185H268.531V106.163H281.02V99.9185Z" fill="black"/>
<path d="M306 99.9185H287.265V106.163H306V99.9185Z" fill="black"/>
<path d="M6.2449 106.163H0V112.408H6.2449V106.163Z" fill="black"/>
<path d="M18.7347 106.163H12.4898V112.408H18.7347V106.163Z" fill="black"/>
<path d="M37.4694 106.163H24.9796V112.408H37.4694V106.163Z" fill="black"/>
<path d="M56.2041 106.163H49.9592V112.408H56.2041V106.163Z" fill="black"/>
<path d="M68.6939 106.163H62.449V112.408H68.6939V106.163Z" fill="black"/>
<path d="M93.6735 106.163H74.9388V112.408H93.6735V106.163Z" fill="black"/>
<path d="M112.408 106.163H99.9184V112.408H112.408V106.163Z" fill="black"/>
<path d="M137.388 106.163H124.898V112.408H137.388V106.163Z" fill="black"/>
<path d="M162.367 106.163H143.633V112.408H162.367V106.163Z" fill="black"/>
<path d="M212.327 106.163H206.082V112.408H212.327V106.163Z" fill="black"/>
<path d="M237.306 106.163H224.816V112.408H237.306V106.163Z" fill="black"/>
<path d="M256.041 106.163H249.796V112.408H256.041V106.163Z" fill="black"/>
<path d="M268.531 106.163H262.286V112.408H268.531V106.163Z" fill="black"/>
<path d="M306 106.163H274.776V112.408H306V106.163Z" fill="black"/>
<path d="M18.7347 112.408H12.4898V118.653H18.7347V112.408Z" fill="black"/>
<path d="M43.7143 112.408H24.9796V118.653H43.7143V112.408Z" fill="black"/>
<path d="M81.1837 112.408H68.6939V118.653H81.1837V112.408Z" fill="black"/>
<path d="M106.163 112.408H93.6735V118.653H106.163V112.408Z" fill="black"/>
<path d="M124.898 112.408H112.408V118.653H124.898V112.408Z" fill="black"/>
<path d="M187.347 112.408H149.878V118.653H187.347V112.408Z" fill="black"/>
<path d="M199.837 112.408H193.592V118.653H199.837V112.408Z" fill="black"/>
<path d="M218.571 112.408H206.082V118.653H218.571V112.408Z" fill="black"/>
<path d="M243.551 112.408H231.061V118.653H243.551V112.408Z" fill="black"/>
<path d="M268.531 112.408H262.286V118.653H268.531V112.408Z" fill="black"/>
<path d="M281.02 112.408H274.776V118.653H281.02V112.408Z" fill="black"/>
<path d="M306 112.408H287.265V118.653H306V112.408Z" fill="black"/>
<path d="M24.9796 118.653H6.2449V124.898H24.9796V118.653Z" fill="black"/>
<path d="M37.4694 118.653H31.2245V124.898H37.4694V118.653Z" fill="black"/>
<path d="M49.9592 118.653H43.7143V124.898H49.9592V118.653Z" fill="black"/>
<path d="M81.1837 118.653H74.9388V124.898H81.1837V118.653Z" fill="black"/>
<path d="M118.653 118.653H87.4286V124.898H118.653V118.653Z" fill="black"/>
<path d="M162.367 118.653H137.388V124.898H162.367V118.653Z" fill="black"/>
<path d="M181.102 118.653H168.612V124.898H181.102V118.653Z" fill="black"/>
<path d="M193.592 118.653H187.347V124.898H193.592V118.653Z" fill="black"/>
<path d="M212.327 118.653H206.082V124.898H212.327V118.653Z" fill="black"/>
<path d="M231.061 118.653H218.571V124.898H231.061V118.653Z" fill="black"/>
<path d="M243.551 118.653H237.306V124.898H243.551V118.653Z" fill="black"/>
<path d="M262.286 118.653H249.796V124.898H262.286V118.653Z" fill="black"/>
<path d="M281.02 118.653H274.776V124.898H281.02V118.653Z" fill="black"/>
<path d="M299.755 118.653H293.51V124.898H299.755V118.653Z" fill="black"/>
<path d="M12.4898 124.898H6.2449V131.143H12.4898V124.898Z" fill="black"/>
<path d="M43.7143 124.898H31.2245V131.143H43.7143V124.898Z" fill="black"/>
<path d="M81.1837 124.898H62.449V131.143H81.1837V124.898Z" fill="black"/>
<path d="M118.653 124.898H93.6735V131.143H118.653V124.898Z" fill="black"/>
<path d="M149.878 124.898H143.633V131.143H149.878V124.898Z" fill="black"/>
<path d="M162.367 124.898H156.122V131.143H162.367V124.898Z" fill="black"/>
<path d="M193.592 124.898H181.102V131.143H193.592V124.898Z" fill="black"/>
<path d="M237.306 124.898H212.327V131.143H237.306V124.898Z" fill="black"/>
<path d="M256.041 124.898H243.551V131.143H256.041V124.898Z" fill="black"/>
<path d="M287.265 124.898H262.286V131.143H287.265V124.898Z" fill="black"/>
<path d="M306 124.898H293.51V131.143H306V124.898Z" fill="black"/>
<path d="M18.7347 131.143H0V137.388H18.7347V131.143Z" fill="black"/>
<path d="M37.4694 131.143H24.9796V137.388H37.4694V131.143Z" fill="black"/>
<path d="M68.6939 131.143H43.7143V137.388H68.6939V131.143Z" fill="black"/>
<path d="M112.408 131.143H87.4286V137.388H112.408V131.143Z" fill="black"/>
<path d="M131.143 131.143H118.653V137.388H131.143V131.143Z" fill="black"/>
<path d="M149.878 131.143H143.633V137.388H149.878V131.143Z" fill="black"/>
<path d="M168.612 131.143H156.122V137.388H168.612V131.143Z" fill="black"/>
<path d="M187.347 131.143H181.102V137.388H187.347V131.143Z" fill="black"/>
<path d="M212.327 131.143H193.592V137.388H212.327V131.143Z" fill="black"/>
<path d="M237.306 131.143H224.816V137.388H237.306V131.143Z" fill="black"/>
<path d="M274.776 131.143H268.531V137.388H274.776V131.143Z" fill="black"/>
<path d="M306 131.143H281.02V137.388H306V131.143Z" fill="black"/>
<path d="M56.2041 137.388H0V143.633H56.2041V137.388Z" fill="black"/>
<path d="M93.6735 137.388H74.9388V143.633H93.6735V137.388Z" fill="black"/>
<path d="M106.163 137.388H99.9184V143.633H106.163V137.388Z" fill="black"/>
<path d="M118.653 137.388H112.408V143.633H118.653V137.388Z" fill="black"/>
<path d="M168.612 137.388H131.143V143.633H168.612V137.388Z" fill="black"/>
<path d="M181.102 137.388H174.857V143.633H181.102V137.388Z" fill="black"/>
<path d="M193.592 137.388H187.347V143.633H193.592V137.388Z" fill="black"/>
<path d="M206.082 137.388H199.837V143.633H206.082V137.388Z" fill="black"/>
<path d="M224.816 137.388H218.571V143.633H224.816V137.388Z" fill="black"/>
<path d="M281.02 137.388H249.796V143.633H281.02V137.388Z" fill="black"/>
<path d="M306 137.388H293.51V143.633H306V137.388Z" fill="black"/>
<path d="M31.2245 143.633H18.7347V149.877H31.2245V143.633Z" fill="black"/>
<path d="M56.2041 143.633H49.9592V149.877H56.2041V143.633Z" fill="black"/>
<path d="M112.408 143.633H74.9388V149.877H112.408V143.633Z" fill="black"/>
<path d="M143.633 143.633H118.653V149.877H143.633V143.633Z" fill="black"/>
<path d="M168.612 143.633H162.367V149.877H168.612V143.633Z" fill="black"/>
<path d="M199.837 143.633H187.347V149.877H199.837V143.633Z" fill="black"/>
<path d="M231.061 143.633H224.816V149.877H231.061V143.633Z" fill="black"/>
<path d="M243.551 143.633H237.306V149.877H243.551V143.633Z" fill="black"/>
<path d="M256.041 143.633H249.796V149.877H256.041V143.633Z" fill="black"/>
<path d="M281.02 143.633H274.776V149.877H281.02V143.633Z" fill="black"/>
<path d="M12.4898 149.877H0V156.122H12.4898V149.877Z" fill="black"/>
<path d="M31.2245 149.877H18.7347V156.122H31.2245V149.877Z" fill="black"/>
<path d="M43.7143 149.877H37.4694V156.122H43.7143V149.877Z" fill="black"/>
<path d="M56.2041 149.877H49.9592V156.122H56.2041V149.877Z" fill="black"/>
<path d="M74.9388 149.877H62.449V156.122H74.9388V149.877Z" fill="black"/>
<path d="M93.6735 149.877H87.4286V156.122H93.6735V149.877Z" fill="black"/>
<path d="M118.653 149.877H106.163V156.122H118.653V149.877Z" fill="black"/>
<path d="M143.633 149.877H124.898V156.122H143.633V149.877Z" fill="black"/>
<path d="M156.122 149.877H149.878V156.122H156.122V149.877Z" fill="black"/>
<path d="M168.612 149.877H162.367V156.122H168.612V149.877Z" fill="black"/>
<path d="M199.837 149.877H193.592V156.122H199.837V149.877Z" fill="black"/>
<path d="M237.306 149.877H224.816V156.122H237.306V149.877Z" fill="black"/>
<path d="M256.041 149.877H243.551V156.122H256.041V149.877Z" fill="black"/>
<path d="M268.531 149.877H262.286V156.122H268.531V149.877Z" fill="black"/>
<path d="M287.265 149.877H274.776V156.122H287.265V149.877Z" fill="black"/>
<path d="M18.7347 156.123H12.4898V162.367H18.7347V156.123Z" fill="black"/>
<path d="M31.2245 156.123H24.9796V162.367H31.2245V156.123Z" fill="black"/>
<path d="M56.2041 156.123H49.9592V162.367H56.2041V156.123Z" fill="black"/>
<path d="M81.1837 156.123H62.449V162.367H81.1837V156.123Z" fill="black"/>
<path d="M99.9184 156.123H93.6735V162.367H99.9184V156.123Z" fill="black"/>
<path d="M124.898 156.123H112.408V162.367H124.898V156.123Z" fill="black"/>
<path d="M143.633 156.123H131.143V162.367H143.633V156.123Z" fill="black"/>
<path d="M168.612 156.123H162.367V162.367H168.612V156.123Z" fill="black"/>
<path d="M206.082 156.123H181.102V162.367H206.082V156.123Z" fill="black"/>
<path d="M231.061 156.123H224.816V162.367H231.061V156.123Z" fill="black"/>
<path d="M256.041 156.123H249.796V162.367H256.041V156.123Z" fill="black"/>
<path d="M281.02 156.123H274.776V162.367H281.02V156.123Z" fill="black"/>
<path d="M299.755 156.123H293.51V162.367H299.755V156.123Z" fill="black"/>
<path d="M18.7347 162.367H0V168.612H18.7347V162.367Z" fill="black"/>
<path d="M56.2041 162.367H24.9796V168.612H56.2041V162.367Z" fill="black"/>
<path d="M87.4286 162.367H81.1837V168.612H87.4286V162.367Z" fill="black"/>
<path d="M112.408 162.367H106.163V168.612H112.408V162.367Z" fill="black"/>
<path d="M131.143 162.367H124.898V168.612H131.143V162.367Z" fill="black"/>
<path d="M174.857 162.367H137.388V168.612H174.857V162.367Z" fill="black"/>
<path d="M199.837 162.367H187.347V168.612H199.837V162.367Z" fill="black"/>
<path d="M212.327 162.367H206.082V168.612H212.327V162.367Z" fill="black"/>
<path d="M224.816 162.367H218.571V168.612H224.816V162.367Z" fill="black"/>
<path d="M287.265 162.367H249.796V168.612H287.265V162.367Z" fill="black"/>
<path d="M306 162.367H293.51V168.612H306V162.367Z" fill="black"/>
<path d="M12.4898 168.612H6.2449V174.857H12.4898V168.612Z" fill="black"/>
<path d="M24.9796 168.612H18.7347V174.857H24.9796V168.612Z" fill="black"/>
<path d="M37.4694 168.612H31.2245V174.857H37.4694V168.612Z" fill="black"/>
<path d="M74.9388 168.612H68.6939V174.857H74.9388V168.612Z" fill="black"/>
<path d="M87.4286 168.612H81.1837V174.857H87.4286V168.612Z" fill="black"/>
<path d="M106.163 168.612H93.6735V174.857H106.163V168.612Z" fill="black"/>
<path d="M137.388 168.612H118.653V174.857H137.388V168.612Z" fill="black"/>
<path d="M156.122 168.612H143.633V174.857H156.122V168.612Z" fill="black"/>
<path d="M174.857 168.612H168.612V174.857H174.857V168.612Z" fill="black"/>
<path d="M199.837 168.612H181.102V174.857H199.837V168.612Z" fill="black"/>
<path d="M218.571 168.612H212.327V174.857H218.571V168.612Z" fill="black"/>
<path d="M231.061 168.612H224.816V174.857H231.061V168.612Z" fill="black"/>
<path d="M243.551 168.612H237.306V174.857H243.551V168.612Z" fill="black"/>
<path d="M256.041 168.612H249.796V174.857H256.041V168.612Z" fill="black"/>
<path d="M268.531 168.612H262.286V174.857H268.531V168.612Z" fill="black"/>
<path d="M287.265 168.612H281.02V174.857H287.265V168.612Z" fill="black"/>
<path d="M6.2449 174.857H0V181.102H6.2449V174.857Z" fill="black"/>
<path d="M24.9796 174.857H12.4898V181.102H24.9796V174.857Z" fill="black"/>
<path d="M56.2041 174.857H31.2245V181.102H56.2041V174.857Z" fill="black"/>
<path d="M87.4286 174.857H68.6939V181.102H87.4286V174.857Z" fill="black"/>
<path d="M112.408 174.857H99.9184V181.102H112.408V174.857Z" fill="black"/>
<path d="M137.388 174.857H124.898V181.102H137.388V174.857Z" fill="black"/>
<path d="M168.612 174.857H156.122V181.102H168.612V174.857Z" fill="black"/>
<path d="M206.082 174.857H181.102V181.102H206.082V174.857Z" fill="black"/>
<path d="M231.061 174.857H212.327V181.102H231.061V174.857Z" fill="black"/>
<path d="M268.531 174.857H256.041V181.102H268.531V174.857Z" fill="black"/>
<path d="M287.265 174.857H274.776V181.102H287.265V174.857Z" fill="black"/>
<path d="M306 174.857H293.51V181.102H306V174.857Z" fill="black"/>
<path d="M12.4898 181.102H0V187.347H12.4898V181.102Z" fill="black"/>
<path d="M37.4694 181.102H31.2245V187.347H37.4694V181.102Z" fill="black"/>
<path d="M56.2041 181.102H49.9592V187.347H56.2041V181.102Z" fill="black"/>
<path d="M112.408 181.102H106.163V187.347H112.408V181.102Z" fill="black"/>
<path d="M131.143 181.102H124.898V187.347H131.143V181.102Z" fill="black"/>
<path d="M143.633 181.102H137.388V187.347H143.633V181.102Z" fill="black"/>
<path d="M162.367 181.102H149.878V187.347H162.367V181.102Z" fill="black"/>
<path d="M181.102 181.102H168.612V187.347H181.102V181.102Z" fill="black"/>
<path d="M193.592 181.102H187.347V187.347H193.592V181.102Z" fill="black"/>
<path d="M206.082 181.102H199.837V187.347H206.082V181.102Z" fill="black"/>
<path d="M249.796 181.102H243.551V187.347H249.796V181.102Z" fill="black"/>
<path d="M262.286 181.102H256.041V187.347H262.286V181.102Z" fill="black"/>
<path d="M274.776 181.102H268.531V187.347H274.776V181.102Z" fill="black"/>
<path d="M299.755 181.102H287.265V187.347H299.755V181.102Z" fill="black"/>
<path d="M49.9592 187.347H18.7347V193.592H49.9592V187.347Z" fill="black"/>
<path d="M62.449 187.347H56.2041V193.592H62.449V187.347Z" fill="black"/>
<path d="M74.9388 187.347H68.6939V193.592H74.9388V187.347Z" fill="black"/>
<path d="M106.163 187.347H99.9184V193.592H106.163V187.347Z" fill="black"/>
<path d="M131.143 187.347H124.898V193.592H131.143V187.347Z" fill="black"/>
<path d="M143.633 187.347H137.388V193.592H143.633V187.347Z" fill="black"/>
<path d="M199.837 187.347H181.102V193.592H199.837V187.347Z" fill="black"/>
<path d="M231.061 187.347H224.816V193.592H231.061V187.347Z" fill="black"/>
<path d="M287.265 187.347H262.286V193.592H287.265V187.347Z" fill="black"/>
<path d="M306 187.347H293.51V193.592H306V187.347Z" fill="black"/>
<path d="M18.7347 193.592H12.4898V199.837H18.7347V193.592Z" fill="black"/>
<path d="M37.4694 193.592H24.9796V199.837H37.4694V193.592Z" fill="black"/>
<path d="M49.9592 193.592H43.7143V199.837H49.9592V193.592Z" fill="black"/>
<path d="M81.1837 193.592H68.6939V199.837H81.1837V193.592Z" fill="black"/>
<path d="M93.6735 193.592H87.4286V199.837H93.6735V193.592Z" fill="black"/>
<path d="M112.408 193.592H106.163V199.837H112.408V193.592Z" fill="black"/>
<path d="M124.898 193.592H118.653V199.837H124.898V193.592Z" fill="black"/>
<path d="M137.388 193.592H131.143V199.837H137.388V193.592Z" fill="black"/>
<path d="M149.878 193.592H143.633V199.837H149.878V193.592Z" fill="black"/>
<path d="M168.612 193.592H156.122V199.837H168.612V193.592Z" fill="black"/>
<path d="M193.592 193.592H187.347V199.837H193.592V193.592Z" fill="black"/>
<path d="M218.571 193.592H212.327V199.837H218.571V193.592Z" fill="black"/>
<path d="M237.306 193.592H231.061V199.837H237.306V193.592Z" fill="black"/>
<path d="M268.531 193.592H249.796V199.837H268.531V193.592Z" fill="black"/>
<path d="M281.02 193.592H274.776V199.837H281.02V193.592Z" fill="black"/>
<path d="M306 193.592H293.51V199.837H306V193.592Z" fill="black"/>
<path d="M74.9388 199.837H37.4694V206.082H74.9388V199.837Z" fill="black"/>
<path d="M112.408 199.837H87.4286V206.082H112.408V199.837Z" fill="black"/>
<path d="M124.898 199.837H118.653V206.082H124.898V199.837Z" fill="black"/>
<path d="M137.388 199.837H131.143V206.082H137.388V199.837Z" fill="black"/>
<path d="M149.878 199.837H143.633V206.082H149.878V199.837Z" fill="black"/>
<path d="M162.367 199.837H156.122V206.082H162.367V199.837Z" fill="black"/>
<path d="M187.347 199.837H174.857V206.082H187.347V199.837Z" fill="black"/>
<path d="M212.327 199.837H199.837V206.082H212.327V199.837Z" fill="black"/>
<path d="M237.306 199.837H224.816V206.082H237.306V199.837Z" fill="black"/>
<path d="M262.286 199.837H249.796V206.082H262.286V199.837Z" fill="black"/>
<path d="M287.265 199.837H274.776V206.082H287.265V199.837Z" fill="black"/>
<path d="M306 199.837H293.51V206.082H306V199.837Z" fill="black"/>
<path d="M18.7347 206.082H0V212.326H18.7347V206.082Z" fill="black"/>
<path d="M37.4694 206.082H31.2245V212.326H37.4694V206.082Z" fill="black"/>
<path d="M56.2041 206.082H49.9592V212.326H56.2041V206.082Z" fill="black"/>
<path d="M68.6939 206.082H62.449V212.326H68.6939V206.082Z" fill="black"/>
<path d="M93.6735 206.082H74.9388V212.326H93.6735V206.082Z" fill="black"/>
<path d="M124.898 206.082H112.408V212.326H124.898V206.082Z" fill="black"/>
<path d="M137.388 206.082H131.143V212.326H137.388V206.082Z" fill="black"/>
<path d="M162.367 206.082H156.122V212.326H162.367V206.082Z" fill="black"/>
<path d="M187.347 206.082H181.102V212.326H187.347V206.082Z" fill="black"/>
<path d="M237.306 206.082H231.061V212.326H237.306V206.082Z" fill="black"/>
<path d="M268.531 206.082H262.286V212.326H268.531V206.082Z" fill="black"/>
<path d="M287.265 206.082H281.02V212.326H287.265V206.082Z" fill="black"/>
<path d="M306 206.082H293.51V212.326H306V206.082Z" fill="black"/>
<path d="M12.4898 212.326H6.2449V218.571H12.4898V212.326Z" fill="black"/>
<path d="M31.2245 212.326H24.9796V218.571H31.2245V212.326Z" fill="black"/>
<path d="M43.7143 212.326H37.4694V218.571H43.7143V212.326Z" fill="black"/>
<path d="M99.9184 212.326H56.2041V218.571H99.9184V212.326Z" fill="black"/>
<path d="M118.653 212.326H112.408V218.571H118.653V212.326Z" fill="black"/>
<path d="M143.633 212.326H137.388V218.571H143.633V212.326Z" fill="black"/>
<path d="M162.367 212.326H156.122V218.571H162.367V212.326Z" fill="black"/>
<path d="M181.102 212.326H174.857V218.571H181.102V212.326Z" fill="black"/>
<path d="M193.592 212.326H187.347V218.571H193.592V212.326Z" fill="black"/>
<path d="M206.082 212.326H199.837V218.571H206.082V212.326Z" fill="black"/>
<path d="M218.571 212.326H212.327V218.571H218.571V212.326Z" fill="black"/>
<path d="M237.306 212.326H224.816V218.571H237.306V212.326Z" fill="black"/>
<path d="M274.775 212.326H249.796V218.571H274.775V212.326Z" fill="black"/>
<path d="M306 212.326H293.51V218.571H306V212.326Z" fill="black"/>
<path d="M18.7347 218.572H6.2449V224.816H18.7347V218.572Z" fill="black"/>
<path d="M93.6735 218.572H74.9388V224.816H93.6735V218.572Z" fill="black"/>
<path d="M106.163 218.572H99.9184V224.816H106.163V218.572Z" fill="black"/>
<path d="M131.143 218.572H124.898V224.816H131.143V218.572Z" fill="black"/>
<path d="M149.878 218.572H143.633V224.816H149.878V218.572Z" fill="black"/>
<path d="M168.612 218.572H162.367V224.816H168.612V218.572Z" fill="black"/>
<path d="M193.592 218.572H174.857V224.816H193.592V218.572Z" fill="black"/>
<path d="M218.571 218.572H212.327V224.816H218.571V218.572Z" fill="black"/>
<path d="M237.306 218.572H231.061V224.816H237.306V218.572Z" fill="black"/>
<path d="M256.041 218.572H249.796V224.816H256.041V218.572Z" fill="black"/>
<path d="M274.776 218.572H262.286V224.816H274.776V218.572Z" fill="black"/>
<path d="M306 218.572H299.755V224.816H306V218.572Z" fill="black"/>
<path d="M74.9388 224.816H12.4898V231.061H74.9388V224.816Z" fill="black"/>
<path d="M124.898 224.816H81.1837V231.061H124.898V224.816Z" fill="black"/>
<path d="M137.388 224.816H131.143V231.061H137.388V224.816Z" fill="black"/>
<path d="M168.612 224.816H162.367V231.061H168.612V224.816Z" fill="black"/>
<path d="M231.061 224.816H193.592V231.061H231.061V224.816Z" fill="black"/>
<path d="M243.551 224.816H237.306V231.061H243.551V224.816Z" fill="black"/>
<path d="M256.041 224.816H249.796V231.061H256.041V224.816Z" fill="black"/>
<path d="M268.531 224.816H262.286V231.061H268.531V224.816Z" fill="black"/>
<path d="M293.51 224.816H281.02V231.061H293.51V224.816Z" fill="black"/>
<path d="M306 224.816H299.755V231.061H306V224.816Z" fill="black"/>
<path d="M24.9796 231.061H12.4898V237.306H24.9796V231.061Z" fill="black"/>
<path d="M37.4694 231.061H31.2245V237.306H37.4694V231.061Z" fill="black"/>
<path d="M56.2041 231.061H43.7143V237.306H56.2041V231.061Z" fill="black"/>
<path d="M87.4286 231.061H62.449V237.306H87.4286V231.061Z" fill="black"/>
<path d="M99.9184 231.061H93.6735V237.306H99.9184V231.061Z" fill="black"/>
<path d="M112.408 231.061H106.163V237.306H112.408V231.061Z" fill="black"/>
<path d="M124.898 231.061H118.653V237.306H124.898V231.061Z" fill="black"/>
<path d="M168.612 231.061H137.388V237.306H168.612V231.061Z" fill="black"/>
<path d="M181.102 231.061H174.857V237.306H181.102V231.061Z" fill="black"/>
<path d="M206.082 231.061H199.837V237.306H206.082V231.061Z" fill="black"/>
<path d="M268.531 231.061H249.796V237.306H268.531V231.061Z" fill="black"/>
<path d="M287.265 231.061H281.02V237.306H287.265V231.061Z" fill="black"/>
<path d="M306 231.061H299.755V237.306H306V231.061Z" fill="black"/>
<path d="M12.4898 237.306H6.2449V243.551H12.4898V237.306Z" fill="black"/>
<path d="M43.7143 237.306H31.2245V243.551H43.7143V237.306Z" fill="black"/>
<path d="M68.6939 237.306H56.2041V243.551H68.6939V237.306Z" fill="black"/>
<path d="M87.4286 237.306H74.9388V243.551H87.4286V237.306Z" fill="black"/>
<path d="M99.9184 237.306H93.6735V243.551H99.9184V237.306Z" fill="black"/>
<path d="M118.653 237.306H112.408V243.551H118.653V237.306Z" fill="black"/>
<path d="M137.388 237.306H124.898V243.551H137.388V237.306Z" fill="black"/>
<path d="M149.878 237.306H143.633V243.551H149.878V237.306Z" fill="black"/>
<path d="M168.612 237.306H162.367V243.551H168.612V237.306Z" fill="black"/>
<path d="M181.102 237.306H174.857V243.551H181.102V237.306Z" fill="black"/>
<path d="M218.571 237.306H199.837V243.551H218.571V237.306Z" fill="black"/>
<path d="M231.061 237.306H224.816V243.551H231.061V237.306Z" fill="black"/>
<path d="M249.796 237.306H237.306V243.551H249.796V237.306Z" fill="black"/>
<path d="M268.531 237.306H256.041V243.551H268.531V237.306Z" fill="black"/>
<path d="M287.265 237.306H274.776V243.551H287.265V237.306Z" fill="black"/>
<path d="M306 237.306H293.51V243.551H306V237.306Z" fill="black"/>
<path d="M24.9796 243.551H6.2449V249.796H24.9796V243.551Z" fill="black"/>
<path d="M56.2041 243.551H43.7143V249.796H56.2041V243.551Z" fill="black"/>
<path d="M81.1837 243.551H68.6939V249.796H81.1837V243.551Z" fill="black"/>
<path d="M99.9184 243.551H93.6735V249.796H99.9184V243.551Z" fill="black"/>
<path d="M143.633 243.551H106.163V249.796H143.633V243.551Z" fill="black"/>
<path d="M168.612 243.551H156.122V249.796H168.612V243.551Z" fill="black"/>
<path d="M181.102 243.551H174.857V249.796H181.102V243.551Z" fill="black"/>
<path d="M193.592 243.551H187.347V249.796H193.592V243.551Z" fill="black"/>
<path d="M218.571 243.551H212.327V249.796H218.571V243.551Z" fill="black"/>
<path d="M231.061 243.551H224.816V249.796H231.061V243.551Z" fill="black"/>
<path d="M243.551 243.551H237.306V249.796H243.551V243.551Z" fill="black"/>
<path d="M274.776 243.551H256.041V249.796H274.776V243.551Z" fill="black"/>
<path d="M18.7347 249.796H0V256.041H18.7347V249.796Z" fill="black"/>
<path d="M49.9592 249.796H37.4694V256.041H49.9592V249.796Z" fill="black"/>
<path d="M68.6939 249.796H56.2041V256.041H68.6939V249.796Z" fill="black"/>
<path d="M99.9184 249.796H87.4286V256.041H99.9184V249.796Z" fill="black"/>
<path d="M112.408 249.796H106.163V256.041H112.408V249.796Z" fill="black"/>
<path d="M174.857 249.796H137.388V256.041H174.857V249.796Z" fill="black"/>
<path d="M206.082 249.796H187.347V256.041H206.082V249.796Z" fill="black"/>
<path d="M231.061 249.796H218.571V256.041H231.061V249.796Z" fill="black"/>
<path d="M287.265 249.796H249.796V256.041H287.265V249.796Z" fill="black"/>
<path d="M306 249.796H299.755V256.041H306V249.796Z" fill="black"/>
<path d="M74.9388 256.041H49.9592V262.286H74.9388V256.041Z" fill="black"/>
<path d="M99.9184 256.041H87.4286V262.286H99.9184V256.041Z" fill="black"/>
<path d="M118.653 256.041H112.408V262.286H118.653V256.041Z" fill="black"/>
<path d="M143.633 256.041H124.898V262.286H143.633V256.041Z" fill="black"/>
<path d="M168.612 256.041H162.367V262.286H168.612V256.041Z" fill="black"/>
<path d="M187.347 256.041H174.857V262.286H187.347V256.041Z" fill="black"/>
<path d="M206.082 256.041H193.592V262.286H206.082V256.041Z" fill="black"/>
<path d="M218.571 256.041H212.327V262.286H218.571V256.041Z" fill="black"/>
<path d="M243.551 256.041H237.306V262.286H243.551V256.041Z" fill="black"/>
<path d="M256.041 256.041H249.796V262.286H256.041V256.041Z" fill="black"/>
<path d="M281.02 256.041H274.776V262.286H281.02V256.041Z" fill="black"/>
<path d="M306 256.041H293.51V262.286H306V256.041Z" fill="black"/>
<path d="M43.7143 262.286H0V268.531H43.7143V262.286Z" fill="black"/>
<path d="M62.449 262.286H56.2041V268.531H62.449V262.286Z" fill="black"/>
<path d="M81.1837 262.286H74.9388V268.531H81.1837V262.286Z" fill="black"/>
<path d="M93.6735 262.286H87.4286V268.531H93.6735V262.286Z" fill="black"/>
<path d="M106.163 262.286H99.9184V268.531H106.163V262.286Z" fill="black"/>
<path d="M143.633 262.286H131.143V268.531H143.633V262.286Z" fill="black"/>
<path d="M156.122 262.286H149.878V268.531H156.122V262.286Z" fill="black"/>
<path d="M174.857 262.286H162.367V268.531H174.857V262.286Z" fill="black"/>
<path d="M187.347 262.286H181.102V268.531H187.347V262.286Z" fill="black"/>
<path d="M199.837 262.286H193.592V268.531H199.837V262.286Z" fill="black"/>
<path d="M224.816 262.286H212.327V268.531H224.816V262.286Z" fill="black"/>
<path d="M256.041 262.286H237.306V268.531H256.041V262.286Z" fill="black"/>
<path d="M268.531 262.286H262.286V268.531H268.531V262.286Z" fill="black"/>
<path d="M281.02 262.286H274.776V268.531H281.02V262.286Z" fill="black"/>
<path d="M306 262.286H287.265V268.531H306V262.286Z" fill="black"/>
<path d="M6.2449 268.531H0V274.775H6.2449V268.531Z" fill="black"/>
<path d="M43.7143 268.531H37.4694V274.775H43.7143V268.531Z" fill="black"/>
<path d="M74.9388 268.531H49.9592V274.775H74.9388V268.531Z" fill="black"/>
<path d="M106.163 268.531H99.9184V274.775H106.163V268.531Z" fill="black"/>
<path d="M131.143 268.531H112.408V274.775H131.143V268.531Z" fill="black"/>
<path d="M143.633 268.531H137.388V274.775H143.633V268.531Z" fill="black"/>
<path d="M168.612 268.531H162.367V274.775H168.612V268.531Z" fill="black"/>
<path d="M206.082 268.531H193.592V274.775H206.082V268.531Z" fill="black"/>
<path d="M218.571 268.531H212.327V274.775H218.571V268.531Z" fill="black"/>
<path d="M256.041 268.531H237.306V274.775H256.041V268.531Z" fill="black"/>
<path d="M281.02 268.531H274.776V274.775H281.02V268.531Z" fill="black"/>
<path d="M6.2449 274.775H0V281.02H6.2449V274.775Z" fill="black"/>
<path d="M31.2245 274.775H12.4898V281.02H31.2245V274.775Z" fill="black"/>
<path d="M43.7143 274.775H37.4694V281.02H43.7143V274.775Z" fill="black"/>
<path d="M56.2041 274.775H49.9592V281.02H56.2041V274.775Z" fill="black"/>
<path d="M74.9388 274.775H62.449V281.02H74.9388V274.775Z" fill="black"/>
<path d="M87.4286 274.775H81.1837V281.02H87.4286V274.775Z" fill="black"/>
<path d="M99.9184 274.775H93.6735V281.02H99.9184V274.775Z" fill="black"/>
<path d="M124.898 274.775H118.653V281.02H124.898V274.775Z" fill="black"/>
<path d="M168.612 274.775H137.388V281.02H168.612V274.775Z" fill="black"/>
<path d="M181.102 274.775H174.857V281.02H181.102V274.775Z" fill="black"/>
<path d="M206.082 274.775H193.592V281.02H206.082V274.775Z" fill="black"/>
<path d="M237.306 274.775H218.571V281.02H237.306V274.775Z" fill="black"/>
<path d="M287.265 274.775H249.796V281.02H287.265V274.775Z" fill="black"/>
<path d="M306 274.775H299.755V281.02H306V274.775Z" fill="black"/>
<path d="M6.2449 281.021H0V287.265H6.2449V281.021Z" fill="black"/>
<path d="M31.2245 281.021H12.4898V287.265H31.2245V281.021Z" fill="black"/>
<path d="M43.7143 281.021H37.4694V287.265H43.7143V281.021Z" fill="black"/>
<path d="M62.449 281.021H56.2041V287.265H62.449V281.021Z" fill="black"/>
<path d="M87.4286 281.021H74.9388V287.265H87.4286V281.021Z" fill="black"/>
<path d="M106.163 281.021H99.9184V287.265H106.163V281.021Z" fill="black"/>
<path d="M131.143 281.021H112.408V287.265H131.143V281.021Z" fill="black"/>
<path d="M162.367 281.021H137.388V287.265H162.367V281.021Z" fill="black"/>
<path d="M181.102 281.021H168.612V287.265H181.102V281.021Z" fill="black"/>
<path d="M193.592 281.021H187.347V287.265H193.592V281.021Z" fill="black"/>
<path d="M268.531 281.021H262.286V287.265H268.531V281.021Z" fill="black"/>
<path d="M281.02 281.021H274.776V287.265H281.02V281.021Z" fill="black"/>
<path d="M299.755 281.021H293.51V287.265H299.755V281.021Z" fill="black"/>
<path d="M6.2449 287.265H0V293.51H6.2449V287.265Z" fill="black"/>
<path d="M31.2245 287.265H12.4898V293.51H31.2245V287.265Z" fill="black"/>
<path d="M43.7143 287.265H37.4694V293.51H43.7143V287.265Z" fill="black"/>
<path d="M56.2041 287.265H49.9592V293.51H56.2041V287.265Z" fill="black"/>
<path d="M81.1837 287.265H62.449V293.51H81.1837V287.265Z" fill="black"/>
<path d="M112.408 287.265H87.4286V293.51H112.408V287.265Z" fill="black"/>
<path d="M131.143 287.265H118.653V293.51H131.143V287.265Z" fill="black"/>
<path d="M143.633 287.265H137.388V293.51H143.633V287.265Z" fill="black"/>
<path d="M168.612 287.265H162.367V293.51H168.612V287.265Z" fill="black"/>
<path d="M193.592 287.265H181.102V293.51H193.592V287.265Z" fill="black"/>
<path d="M231.061 287.265H224.816V293.51H231.061V287.265Z" fill="black"/>
<path d="M262.286 287.265H249.796V293.51H262.286V287.265Z" fill="black"/>
<path d="M306 287.265H274.776V293.51H306V287.265Z" fill="black"/>
<path d="M6.2449 293.51H0V299.755H6.2449V293.51Z" fill="black"/>
<path d="M43.7143 293.51H37.4694V299.755H43.7143V293.51Z" fill="black"/>
<path d="M68.6939 293.51H56.2041V299.755H68.6939V293.51Z" fill="black"/>
<path d="M131.143 293.51H93.6735V299.755H131.143V293.51Z" fill="black"/>
<path d="M143.633 293.51H137.388V299.755H143.633V293.51Z" fill="black"/>
<path d="M168.612 293.51H162.367V299.755H168.612V293.51Z" fill="black"/>
<path d="M181.102 293.51H174.857V299.755H181.102V293.51Z" fill="black"/>
<path d="M231.061 293.51H193.592V299.755H231.061V293.51Z" fill="black"/>
<path d="M243.551 293.51H237.306V299.755H243.551V293.51Z" fill="black"/>
<path d="M274.776 293.51H268.531V299.755H274.776V293.51Z" fill="black"/>
<path d="M299.755 293.51H293.51V299.755H299.755V293.51Z" fill="black"/>
<path d="M43.7143 299.755H0V306H43.7143V299.755Z" fill="black"/>
<path d="M99.9184 299.755H87.4286V306H99.9184V299.755Z" fill="black"/>
<path d="M118.653 299.755H112.408V306H118.653V299.755Z" fill="black"/>
<path d="M143.633 299.755H131.143V306H143.633V299.755Z" fill="black"/>
<path d="M168.612 299.755H162.367V306H168.612V299.755Z" fill="black"/>
<path d="M206.082 299.755H193.592V306H206.082V299.755Z" fill="black"/>
<path d="M243.551 299.755H224.816V306H243.551V299.755Z" fill="black"/>
<path d="M256.041 299.755H249.796V306H256.041V299.755Z" fill="black"/>
<path d="M287.265 299.755H262.286V306H287.265V299.755Z" fill="black"/>
<path d="M306 299.755H293.51V306H306V299.755Z" fill="black"/>
</g>
<defs>
<clipPath id="clip0_3266_2357">
<rect width="306" height="306" fill="white"/>
</clipPath>
</defs>
</svg>
