<svg width="306" height="306" viewBox="0 0 306 306" fill="none" xmlns="http://www.w3.org/2000/svg">
<g clip-path="url(#clip0_3266_2986)">
<path d="M43.7143 0H0V6.2449H43.7143V0Z" fill="black"/>
<path d="M62.449 0H56.2041V6.2449H62.449V0Z" fill="black"/>
<path d="M87.4286 0H74.9388V6.2449H87.4286V0Z" fill="black"/>
<path d="M99.9184 0H93.6735V6.2449H99.9184V0Z" fill="black"/>
<path d="M112.408 0H106.163V6.2449H112.408V0Z" fill="black"/>
<path d="M143.633 0H131.143V6.2449H143.633V0Z" fill="black"/>
<path d="M199.837 0H181.102V6.2449H199.837V0Z" fill="black"/>
<path d="M218.571 0H212.327V6.2449H218.571V0Z" fill="black"/>
<path d="M237.306 0H224.816V6.2449H237.306V0Z" fill="black"/>
<path d="M256.041 0H249.796V6.2449H256.041V0Z" fill="black"/>
<path d="M306 0H262.286V6.2449H306V0Z" fill="black"/>
<path d="M6.2449 6.24487H0V12.4898H6.2449V6.24487Z" fill="black"/>
<path d="M43.7143 6.24487H37.4694V12.4898H43.7143V6.24487Z" fill="black"/>
<path d="M81.1837 6.24487H68.6939V12.4898H81.1837V6.24487Z" fill="black"/>
<path d="M106.163 6.24487H87.4286V12.4898H106.163V6.24487Z" fill="black"/>
<path d="M118.653 6.24487H112.408V12.4898H118.653V6.24487Z" fill="black"/>
<path d="M162.367 6.24487H124.898V12.4898H162.367V6.24487Z" fill="black"/>
<path d="M181.102 6.24487H174.857V12.4898H181.102V6.24487Z" fill="black"/>
<path d="M206.082 6.24487H193.592V12.4898H206.082V6.24487Z" fill="black"/>
<path d="M218.571 6.24487H212.327V12.4898H218.571V6.24487Z" fill="black"/>
<path d="M231.061 6.24487H224.816V12.4898H231.061V6.24487Z" fill="black"/>
<path d="M256.041 6.24487H237.306V12.4898H256.041V6.24487Z" fill="black"/>
<path d="M268.531 6.24487H262.286V12.4898H268.531V6.24487Z" fill="black"/>
<path d="M306 6.24487H299.755V12.4898H306V6.24487Z" fill="black"/>
<path d="M6.2449 12.4897H0V18.7346H6.2449V12.4897Z" fill="black"/>
<path d="M31.2245 12.4897H12.4898V18.7346H31.2245V12.4897Z" fill="black"/>
<path d="M43.7143 12.4897H37.4694V18.7346H43.7143V12.4897Z" fill="black"/>
<path d="M56.2041 12.4897H49.9592V18.7346H56.2041V12.4897Z" fill="black"/>
<path d="M74.9388 12.4897H68.6939V18.7346H74.9388V12.4897Z" fill="black"/>
<path d="M112.408 12.4897H99.9184V18.7346H112.408V12.4897Z" fill="black"/>
<path d="M149.878 12.4897H118.653V18.7346H149.878V12.4897Z" fill="black"/>
<path d="M199.837 12.4897H162.367V18.7346H199.837V12.4897Z" fill="black"/>
<path d="M224.816 12.4897H206.082V18.7346H224.816V12.4897Z" fill="black"/>
<path d="M237.306 12.4897H231.061V18.7346H237.306V12.4897Z" fill="black"/>
<path d="M256.041 12.4897H243.551V18.7346H256.041V12.4897Z" fill="black"/>
<path d="M268.531 12.4897H262.286V18.7346H268.531V12.4897Z" fill="black"/>
<path d="M293.51 12.4897H274.776V18.7346H293.51V12.4897Z" fill="black"/>
<path d="M306 12.4897H299.755V18.7346H306V12.4897Z" fill="black"/>
<path d="M6.2449 18.7346H0V24.9795H6.2449V18.7346Z" fill="black"/>
<path d="M31.2245 18.7346H12.4898V24.9795H31.2245V18.7346Z" fill="black"/>
<path d="M43.7143 18.7346H37.4694V24.9795H43.7143V18.7346Z" fill="black"/>
<path d="M81.1837 18.7346H49.9592V24.9795H81.1837V18.7346Z" fill="black"/>
<path d="M99.9184 18.7346H93.6735V24.9795H99.9184V18.7346Z" fill="black"/>
<path d="M131.143 18.7346H124.898V24.9795H131.143V18.7346Z" fill="black"/>
<path d="M168.612 18.7346H156.122V24.9795H168.612V18.7346Z" fill="black"/>
<path d="M181.102 18.7346H174.857V24.9795H181.102V18.7346Z" fill="black"/>
<path d="M193.592 18.7346H187.347V24.9795H193.592V18.7346Z" fill="black"/>
<path d="M212.327 18.7346H199.837V24.9795H212.327V18.7346Z" fill="black"/>
<path d="M237.306 18.7346H218.571V24.9795H237.306V18.7346Z" fill="black"/>
<path d="M249.796 18.7346H243.551V24.9795H249.796V18.7346Z" fill="black"/>
<path d="M268.531 18.7346H262.286V24.9795H268.531V18.7346Z" fill="black"/>
<path d="M293.51 18.7346H274.776V24.9795H293.51V18.7346Z" fill="black"/>
<path d="M306 18.7346H299.755V24.9795H306V18.7346Z" fill="black"/>
<path d="M6.2449 24.9795H0V31.2244H6.2449V24.9795Z" fill="black"/>
<path d="M31.2245 24.9795H12.4898V31.2244H31.2245V24.9795Z" fill="black"/>
<path d="M43.7143 24.9795H37.4694V31.2244H43.7143V24.9795Z" fill="black"/>
<path d="M62.449 24.9795H56.2041V31.2244H62.449V24.9795Z" fill="black"/>
<path d="M99.9184 24.9795H74.9388V31.2244H99.9184V24.9795Z" fill="black"/>
<path d="M124.898 24.9795H118.653V31.2244H124.898V24.9795Z" fill="black"/>
<path d="M174.857 24.9795H131.143V31.2244H174.857V24.9795Z" fill="black"/>
<path d="M187.347 24.9795H181.102V31.2244H187.347V24.9795Z" fill="black"/>
<path d="M237.306 24.9795H218.571V31.2244H237.306V24.9795Z" fill="black"/>
<path d="M268.531 24.9795H262.286V31.2244H268.531V24.9795Z" fill="black"/>
<path d="M293.51 24.9795H274.776V31.2244H293.51V24.9795Z" fill="black"/>
<path d="M306 24.9795H299.755V31.2244H306V24.9795Z" fill="black"/>
<path d="M6.2449 31.2246H0V37.4695H6.2449V31.2246Z" fill="black"/>
<path d="M43.7143 31.2246H37.4694V37.4695H43.7143V31.2246Z" fill="black"/>
<path d="M93.6735 31.2246H56.2041V37.4695H93.6735V31.2246Z" fill="black"/>
<path d="M106.163 31.2246H99.9184V37.4695H106.163V31.2246Z" fill="black"/>
<path d="M124.898 31.2246H118.653V37.4695H124.898V31.2246Z" fill="black"/>
<path d="M143.633 31.2246H137.388V37.4695H143.633V31.2246Z" fill="black"/>
<path d="M168.612 31.2246H162.367V37.4695H168.612V31.2246Z" fill="black"/>
<path d="M181.102 31.2246H174.857V37.4695H181.102V31.2246Z" fill="black"/>
<path d="M206.082 31.2246H187.347V37.4695H206.082V31.2246Z" fill="black"/>
<path d="M231.061 31.2246H218.571V37.4695H231.061V31.2246Z" fill="black"/>
<path d="M243.551 31.2246H237.306V37.4695H243.551V31.2246Z" fill="black"/>
<path d="M268.531 31.2246H262.286V37.4695H268.531V31.2246Z" fill="black"/>
<path d="M306 31.2246H299.755V37.4695H306V31.2246Z" fill="black"/>
<path d="M43.7143 37.4695H0V43.7144H43.7143V37.4695Z" fill="black"/>
<path d="M56.2041 37.4695H49.9592V43.7144H56.2041V37.4695Z" fill="black"/>
<path d="M68.6939 37.4695H62.449V43.7144H68.6939V37.4695Z" fill="black"/>
<path d="M81.1837 37.4695H74.9388V43.7144H81.1837V37.4695Z" fill="black"/>
<path d="M93.6735 37.4695H87.4286V43.7144H93.6735V37.4695Z" fill="black"/>
<path d="M106.163 37.4695H99.9184V43.7144H106.163V37.4695Z" fill="black"/>
<path d="M118.653 37.4695H112.408V43.7144H118.653V37.4695Z" fill="black"/>
<path d="M131.143 37.4695H124.898V43.7144H131.143V37.4695Z" fill="black"/>
<path d="M143.633 37.4695H137.388V43.7144H143.633V37.4695Z" fill="black"/>
<path d="M156.122 37.4695H149.878V43.7144H156.122V37.4695Z" fill="black"/>
<path d="M168.612 37.4695H162.367V43.7144H168.612V37.4695Z" fill="black"/>
<path d="M181.102 37.4695H174.857V43.7144H181.102V37.4695Z" fill="black"/>
<path d="M193.592 37.4695H187.347V43.7144H193.592V37.4695Z" fill="black"/>
<path d="M206.082 37.4695H199.837V43.7144H206.082V37.4695Z" fill="black"/>
<path d="M218.571 37.4695H212.327V43.7144H218.571V37.4695Z" fill="black"/>
<path d="M231.061 37.4695H224.816V43.7144H231.061V37.4695Z" fill="black"/>
<path d="M243.551 37.4695H237.306V43.7144H243.551V37.4695Z" fill="black"/>
<path d="M256.041 37.4695H249.796V43.7144H256.041V37.4695Z" fill="black"/>
<path d="M306 37.4695H262.286V43.7144H306V37.4695Z" fill="black"/>
<path d="M62.449 43.7144H56.2041V49.9593H62.449V43.7144Z" fill="black"/>
<path d="M93.6735 43.7144H68.6939V49.9593H93.6735V43.7144Z" fill="black"/>
<path d="M106.163 43.7144H99.9184V49.9593H106.163V43.7144Z" fill="black"/>
<path d="M118.653 43.7144H112.408V49.9593H118.653V43.7144Z" fill="black"/>
<path d="M143.633 43.7144H124.898V49.9593H143.633V43.7144Z" fill="black"/>
<path d="M174.857 43.7144H162.367V49.9593H174.857V43.7144Z" fill="black"/>
<path d="M187.347 43.7144H181.102V49.9593H187.347V43.7144Z" fill="black"/>
<path d="M199.837 43.7144H193.592V49.9593H199.837V43.7144Z" fill="black"/>
<path d="M231.061 43.7144H224.816V49.9593H231.061V43.7144Z" fill="black"/>
<path d="M249.796 43.7144H243.551V49.9593H249.796V43.7144Z" fill="black"/>
<path d="M31.2245 49.9592H18.7347V56.2041H31.2245V49.9592Z" fill="black"/>
<path d="M49.9592 49.9592H37.4694V56.2041H49.9592V49.9592Z" fill="black"/>
<path d="M62.449 49.9592H56.2041V56.2041H62.449V49.9592Z" fill="black"/>
<path d="M81.1837 49.9592H68.6939V56.2041H81.1837V49.9592Z" fill="black"/>
<path d="M118.653 49.9592H106.163V56.2041H118.653V49.9592Z" fill="black"/>
<path d="M199.837 49.9592H131.143V56.2041H199.837V49.9592Z" fill="black"/>
<path d="M224.816 49.9592H218.571V56.2041H224.816V49.9592Z" fill="black"/>
<path d="M249.796 49.9592H243.551V56.2041H249.796V49.9592Z" fill="black"/>
<path d="M293.51 49.9592H281.02V56.2041H293.51V49.9592Z" fill="black"/>
<path d="M68.6939 56.2041H56.2041V62.449H68.6939V56.2041Z" fill="black"/>
<path d="M93.6735 56.2041H81.1837V62.449H93.6735V56.2041Z" fill="black"/>
<path d="M112.408 56.2041H99.9184V62.449H112.408V56.2041Z" fill="black"/>
<path d="M131.143 56.2041H118.653V62.449H131.143V56.2041Z" fill="black"/>
<path d="M143.633 56.2041H137.388V62.449H143.633V56.2041Z" fill="black"/>
<path d="M187.347 56.2041H162.367V62.449H187.347V56.2041Z" fill="black"/>
<path d="M218.571 56.2041H206.082V62.449H218.571V56.2041Z" fill="black"/>
<path d="M306 56.2041H231.061V62.449H306V56.2041Z" fill="black"/>
<path d="M12.4898 62.449H0V68.6939H12.4898V62.449Z" fill="black"/>
<path d="M43.7143 62.449H18.7347V68.6939H43.7143V62.449Z" fill="black"/>
<path d="M81.1837 62.449H68.6939V68.6939H81.1837V62.449Z" fill="black"/>
<path d="M93.6735 62.449H87.4286V68.6939H93.6735V62.449Z" fill="black"/>
<path d="M137.388 62.449H106.163V68.6939H137.388V62.449Z" fill="black"/>
<path d="M149.878 62.449H143.633V68.6939H149.878V62.449Z" fill="black"/>
<path d="M181.102 62.449H168.612V68.6939H181.102V62.449Z" fill="black"/>
<path d="M199.837 62.449H187.347V68.6939H199.837V62.449Z" fill="black"/>
<path d="M212.327 62.449H206.082V68.6939H212.327V62.449Z" fill="black"/>
<path d="M237.306 62.449H231.061V68.6939H237.306V62.449Z" fill="black"/>
<path d="M256.041 62.449H249.796V68.6939H256.041V62.449Z" fill="black"/>
<path d="M281.02 62.449H274.776V68.6939H281.02V62.449Z" fill="black"/>
<path d="M306 62.449H299.755V68.6939H306V62.449Z" fill="black"/>
<path d="M6.2449 68.6938H0V74.9387H6.2449V68.6938Z" fill="black"/>
<path d="M62.449 68.6938H49.9592V74.9387H62.449V68.6938Z" fill="black"/>
<path d="M87.4286 68.6938H81.1837V74.9387H87.4286V68.6938Z" fill="black"/>
<path d="M106.163 68.6938H93.6735V74.9387H106.163V68.6938Z" fill="black"/>
<path d="M124.898 68.6938H112.408V74.9387H124.898V68.6938Z" fill="black"/>
<path d="M156.122 68.6938H143.633V74.9387H156.122V68.6938Z" fill="black"/>
<path d="M206.082 68.6938H162.367V74.9387H206.082V68.6938Z" fill="black"/>
<path d="M243.551 68.6938H212.327V74.9387H243.551V68.6938Z" fill="black"/>
<path d="M262.286 68.6938H249.796V74.9387H262.286V68.6938Z" fill="black"/>
<path d="M293.51 68.6938H268.531V74.9387H293.51V68.6938Z" fill="black"/>
<path d="M24.9796 74.9387H18.7347V81.1836H24.9796V74.9387Z" fill="black"/>
<path d="M43.7143 74.9387H31.2245V81.1836H43.7143V74.9387Z" fill="black"/>
<path d="M87.4286 74.9387H56.2041V81.1836H87.4286V74.9387Z" fill="black"/>
<path d="M112.408 74.9387H99.9184V81.1836H112.408V74.9387Z" fill="black"/>
<path d="M143.633 74.9387H137.388V81.1836H143.633V74.9387Z" fill="black"/>
<path d="M162.367 74.9387H156.122V81.1836H162.367V74.9387Z" fill="black"/>
<path d="M174.857 74.9387H168.612V81.1836H174.857V74.9387Z" fill="black"/>
<path d="M193.592 74.9387H187.347V81.1836H193.592V74.9387Z" fill="black"/>
<path d="M206.082 74.9387H199.837V81.1836H206.082V74.9387Z" fill="black"/>
<path d="M218.571 74.9387H212.327V81.1836H218.571V74.9387Z" fill="black"/>
<path d="M231.061 74.9387H224.816V81.1836H231.061V74.9387Z" fill="black"/>
<path d="M249.796 74.9387H243.551V81.1836H249.796V74.9387Z" fill="black"/>
<path d="M281.02 74.9387H262.286V81.1836H281.02V74.9387Z" fill="black"/>
<path d="M299.755 74.9387H287.265V81.1836H299.755V74.9387Z" fill="black"/>
<path d="M31.2245 81.1836H6.2449V87.4285H31.2245V81.1836Z" fill="black"/>
<path d="M56.2041 81.1836H49.9592V87.4285H56.2041V81.1836Z" fill="black"/>
<path d="M124.898 81.1836H74.9388V87.4285H124.898V81.1836Z" fill="black"/>
<path d="M137.388 81.1836H131.143V87.4285H137.388V81.1836Z" fill="black"/>
<path d="M156.122 81.1836H143.633V87.4285H156.122V81.1836Z" fill="black"/>
<path d="M174.857 81.1836H168.612V87.4285H174.857V81.1836Z" fill="black"/>
<path d="M212.327 81.1836H199.837V87.4285H212.327V81.1836Z" fill="black"/>
<path d="M243.551 81.1836H237.306V87.4285H243.551V81.1836Z" fill="black"/>
<path d="M268.531 81.1836H256.041V87.4285H268.531V81.1836Z" fill="black"/>
<path d="M293.51 81.1836H274.776V87.4285H293.51V81.1836Z" fill="black"/>
<path d="M12.4898 87.4285H6.2449V93.6734H12.4898V87.4285Z" fill="black"/>
<path d="M24.9796 87.4285H18.7347V93.6734H24.9796V87.4285Z" fill="black"/>
<path d="M49.9592 87.4285H31.2245V93.6734H49.9592V87.4285Z" fill="black"/>
<path d="M74.9388 87.4285H56.2041V93.6734H74.9388V87.4285Z" fill="black"/>
<path d="M106.163 87.4285H99.9184V93.6734H106.163V87.4285Z" fill="black"/>
<path d="M118.653 87.4285H112.408V93.6734H118.653V87.4285Z" fill="black"/>
<path d="M143.633 87.4285H137.388V93.6734H143.633V87.4285Z" fill="black"/>
<path d="M181.102 87.4285H156.122V93.6734H181.102V87.4285Z" fill="black"/>
<path d="M218.571 87.4285H199.837V93.6734H218.571V87.4285Z" fill="black"/>
<path d="M231.061 87.4285H224.816V93.6734H231.061V87.4285Z" fill="black"/>
<path d="M249.796 87.4285H243.551V93.6734H249.796V87.4285Z" fill="black"/>
<path d="M268.531 87.4285H262.286V93.6734H268.531V87.4285Z" fill="black"/>
<path d="M287.265 87.4285H281.02V93.6734H287.265V87.4285Z" fill="black"/>
<path d="M306 87.4285H293.51V93.6734H306V87.4285Z" fill="black"/>
<path d="M6.2449 93.6736H0V99.9185H6.2449V93.6736Z" fill="black"/>
<path d="M31.2245 93.6736H12.4898V99.9185H31.2245V93.6736Z" fill="black"/>
<path d="M56.2041 93.6736H49.9592V99.9185H56.2041V93.6736Z" fill="black"/>
<path d="M81.1837 93.6736H74.9388V99.9185H81.1837V93.6736Z" fill="black"/>
<path d="M106.163 93.6736H93.6735V99.9185H106.163V93.6736Z" fill="black"/>
<path d="M118.653 93.6736H112.408V99.9185H118.653V93.6736Z" fill="black"/>
<path d="M162.367 93.6736H143.633V99.9185H162.367V93.6736Z" fill="black"/>
<path d="M174.857 93.6736H168.612V99.9185H174.857V93.6736Z" fill="black"/>
<path d="M193.592 93.6736H187.347V99.9185H193.592V93.6736Z" fill="black"/>
<path d="M206.082 93.6736H199.837V99.9185H206.082V93.6736Z" fill="black"/>
<path d="M218.571 93.6736H212.327V99.9185H218.571V93.6736Z" fill="black"/>
<path d="M231.061 93.6736H224.816V99.9185H231.061V93.6736Z" fill="black"/>
<path d="M243.551 93.6736H237.306V99.9185H243.551V93.6736Z" fill="black"/>
<path d="M262.286 93.6736H256.041V99.9185H262.286V93.6736Z" fill="black"/>
<path d="M274.776 93.6736H268.531V99.9185H274.776V93.6736Z" fill="black"/>
<path d="M306 93.6736H281.02V99.9185H306V93.6736Z" fill="black"/>
<path d="M18.7347 99.9185H0V106.163H18.7347V99.9185Z" fill="black"/>
<path d="M31.2245 99.9185H24.9796V106.163H31.2245V99.9185Z" fill="black"/>
<path d="M62.449 99.9185H37.4694V106.163H62.449V99.9185Z" fill="black"/>
<path d="M93.6735 99.9185H68.6939V106.163H93.6735V99.9185Z" fill="black"/>
<path d="M149.878 99.9185H131.143V106.163H149.878V99.9185Z" fill="black"/>
<path d="M162.367 99.9185H156.122V106.163H162.367V99.9185Z" fill="black"/>
<path d="M181.102 99.9185H174.857V106.163H181.102V99.9185Z" fill="black"/>
<path d="M206.082 99.9185H199.837V106.163H206.082V99.9185Z" fill="black"/>
<path d="M249.796 99.9185H224.816V106.163H249.796V99.9185Z" fill="black"/>
<path d="M262.286 99.9185H256.041V106.163H262.286V99.9185Z" fill="black"/>
<path d="M287.265 99.9185H268.531V106.163H287.265V99.9185Z" fill="black"/>
<path d="M306 99.9185H299.755V106.163H306V99.9185Z" fill="black"/>
<path d="M12.4898 106.163H6.2449V112.408H12.4898V106.163Z" fill="black"/>
<path d="M24.9796 106.163H18.7347V112.408H24.9796V106.163Z" fill="black"/>
<path d="M37.4694 106.163H31.2245V112.408H37.4694V106.163Z" fill="black"/>
<path d="M62.449 106.163H43.7143V112.408H62.449V106.163Z" fill="black"/>
<path d="M99.9184 106.163H87.4286V112.408H99.9184V106.163Z" fill="black"/>
<path d="M149.878 106.163H106.163V112.408H149.878V106.163Z" fill="black"/>
<path d="M181.102 106.163H156.122V112.408H181.102V106.163Z" fill="black"/>
<path d="M199.837 106.163H187.347V112.408H199.837V106.163Z" fill="black"/>
<path d="M218.571 106.163H212.327V112.408H218.571V106.163Z" fill="black"/>
<path d="M249.796 106.163H243.551V112.408H249.796V106.163Z" fill="black"/>
<path d="M281.02 106.163H268.531V112.408H281.02V106.163Z" fill="black"/>
<path d="M299.755 106.163H293.51V112.408H299.755V106.163Z" fill="black"/>
<path d="M6.2449 112.408H0V118.653H6.2449V112.408Z" fill="black"/>
<path d="M31.2245 112.408H24.9796V118.653H31.2245V112.408Z" fill="black"/>
<path d="M62.449 112.408H37.4694V118.653H62.449V112.408Z" fill="black"/>
<path d="M93.6735 112.408H74.9388V118.653H93.6735V112.408Z" fill="black"/>
<path d="M112.408 112.408H99.9184V118.653H112.408V112.408Z" fill="black"/>
<path d="M162.367 112.408H137.388V118.653H162.367V112.408Z" fill="black"/>
<path d="M181.102 112.408H168.612V118.653H181.102V112.408Z" fill="black"/>
<path d="M206.082 112.408H193.592V118.653H206.082V112.408Z" fill="black"/>
<path d="M224.816 112.408H212.327V118.653H224.816V112.408Z" fill="black"/>
<path d="M249.796 112.408H237.306V118.653H249.796V112.408Z" fill="black"/>
<path d="M293.51 112.408H256.041V118.653H293.51V112.408Z" fill="black"/>
<path d="M306 112.408H299.755V118.653H306V112.408Z" fill="black"/>
<path d="M12.4898 118.653H0V124.898H12.4898V118.653Z" fill="black"/>
<path d="M74.9388 118.653H43.7143V124.898H74.9388V118.653Z" fill="black"/>
<path d="M112.408 118.653H99.9184V124.898H112.408V118.653Z" fill="black"/>
<path d="M131.143 118.653H124.898V124.898H131.143V118.653Z" fill="black"/>
<path d="M168.612 118.653H156.122V124.898H168.612V118.653Z" fill="black"/>
<path d="M187.347 118.653H174.857V124.898H187.347V118.653Z" fill="black"/>
<path d="M206.082 118.653H199.837V124.898H206.082V118.653Z" fill="black"/>
<path d="M256.041 118.653H243.551V124.898H256.041V118.653Z" fill="black"/>
<path d="M268.531 118.653H262.286V124.898H268.531V118.653Z" fill="black"/>
<path d="M287.265 118.653H281.02V124.898H287.265V118.653Z" fill="black"/>
<path d="M306 118.653H299.755V124.898H306V118.653Z" fill="black"/>
<path d="M6.2449 124.898H0V131.143H6.2449V124.898Z" fill="black"/>
<path d="M18.7347 124.898H12.4898V131.143H18.7347V124.898Z" fill="black"/>
<path d="M93.6735 124.898H31.2245V131.143H93.6735V124.898Z" fill="black"/>
<path d="M112.408 124.898H99.9184V131.143H112.408V124.898Z" fill="black"/>
<path d="M149.878 124.898H118.653V131.143H149.878V124.898Z" fill="black"/>
<path d="M174.857 124.898H162.367V131.143H174.857V124.898Z" fill="black"/>
<path d="M231.061 124.898H181.102V131.143H231.061V124.898Z" fill="black"/>
<path d="M243.551 124.898H237.306V131.143H243.551V124.898Z" fill="black"/>
<path d="M256.041 124.898H249.796V131.143H256.041V124.898Z" fill="black"/>
<path d="M268.531 124.898H262.286V131.143H268.531V124.898Z" fill="black"/>
<path d="M306 124.898H293.51V131.143H306V124.898Z" fill="black"/>
<path d="M12.4898 131.143H0V137.388H12.4898V131.143Z" fill="black"/>
<path d="M24.9796 131.143H18.7347V137.388H24.9796V131.143Z" fill="black"/>
<path d="M81.1837 131.143H68.6939V137.388H81.1837V131.143Z" fill="black"/>
<path d="M93.6735 131.143H87.4286V137.388H93.6735V131.143Z" fill="black"/>
<path d="M118.653 131.143H112.408V137.388H118.653V131.143Z" fill="black"/>
<path d="M143.633 131.143H131.143V137.388H143.633V131.143Z" fill="black"/>
<path d="M156.122 131.143H149.878V137.388H156.122V131.143Z" fill="black"/>
<path d="M181.102 131.143H168.612V137.388H181.102V131.143Z" fill="black"/>
<path d="M193.592 131.143H187.347V137.388H193.592V131.143Z" fill="black"/>
<path d="M224.816 131.143H212.327V137.388H224.816V131.143Z" fill="black"/>
<path d="M268.531 131.143H237.306V137.388H268.531V131.143Z" fill="black"/>
<path d="M281.02 131.143H274.776V137.388H281.02V131.143Z" fill="black"/>
<path d="M12.4898 137.388H0V143.633H12.4898V137.388Z" fill="black"/>
<path d="M62.449 137.388H24.9796V143.633H62.449V137.388Z" fill="black"/>
<path d="M81.1837 137.388H68.6939V143.633H81.1837V137.388Z" fill="black"/>
<path d="M99.9184 137.388H93.6735V143.633H99.9184V137.388Z" fill="black"/>
<path d="M118.653 137.388H106.163V143.633H118.653V137.388Z" fill="black"/>
<path d="M174.857 137.388H137.388V143.633H174.857V137.388Z" fill="black"/>
<path d="M193.592 137.388H181.102V143.633H193.592V137.388Z" fill="black"/>
<path d="M218.571 137.388H199.837V143.633H218.571V137.388Z" fill="black"/>
<path d="M293.51 137.388H243.551V143.633H293.51V137.388Z" fill="black"/>
<path d="M306 137.388H299.755V143.633H306V137.388Z" fill="black"/>
<path d="M18.7347 143.633H0V149.877H18.7347V143.633Z" fill="black"/>
<path d="M31.2245 143.633H24.9796V149.877H31.2245V143.633Z" fill="black"/>
<path d="M56.2041 143.633H49.9592V149.877H56.2041V143.633Z" fill="black"/>
<path d="M68.6939 143.633H62.449V149.877H68.6939V143.633Z" fill="black"/>
<path d="M87.4286 143.633H81.1837V149.877H87.4286V143.633Z" fill="black"/>
<path d="M118.653 143.633H112.408V149.877H118.653V143.633Z" fill="black"/>
<path d="M131.143 143.633H124.898V149.877H131.143V143.633Z" fill="black"/>
<path d="M143.633 143.633H137.388V149.877H143.633V143.633Z" fill="black"/>
<path d="M181.102 143.633H162.367V149.877H181.102V143.633Z" fill="black"/>
<path d="M212.327 143.633H206.082V149.877H212.327V143.633Z" fill="black"/>
<path d="M256.041 143.633H231.061V149.877H256.041V143.633Z" fill="black"/>
<path d="M293.51 143.633H274.776V149.877H293.51V143.633Z" fill="black"/>
<path d="M306 143.633H299.755V149.877H306V143.633Z" fill="black"/>
<path d="M31.2245 149.877H24.9796V156.122H31.2245V149.877Z" fill="black"/>
<path d="M43.7143 149.877H37.4694V156.122H43.7143V149.877Z" fill="black"/>
<path d="M62.449 149.877H49.9592V156.122H62.449V149.877Z" fill="black"/>
<path d="M74.9388 149.877H68.6939V156.122H74.9388V149.877Z" fill="black"/>
<path d="M93.6735 149.877H81.1837V156.122H93.6735V149.877Z" fill="black"/>
<path d="M131.143 149.877H106.163V156.122H131.143V149.877Z" fill="black"/>
<path d="M143.633 149.877H137.388V156.122H143.633V149.877Z" fill="black"/>
<path d="M156.122 149.877H149.878V156.122H156.122V149.877Z" fill="black"/>
<path d="M174.857 149.877H162.367V156.122H174.857V149.877Z" fill="black"/>
<path d="M187.347 149.877H181.102V156.122H187.347V149.877Z" fill="black"/>
<path d="M231.061 149.877H212.327V156.122H231.061V149.877Z" fill="black"/>
<path d="M256.041 149.877H249.796V156.122H256.041V149.877Z" fill="black"/>
<path d="M268.531 149.877H262.286V156.122H268.531V149.877Z" fill="black"/>
<path d="M281.02 149.877H274.776V156.122H281.02V149.877Z" fill="black"/>
<path d="M299.755 149.877H293.51V156.122H299.755V149.877Z" fill="black"/>
<path d="M12.4898 156.123H0V162.367H12.4898V156.123Z" fill="black"/>
<path d="M31.2245 156.123H18.7347V162.367H31.2245V156.123Z" fill="black"/>
<path d="M56.2041 156.123H49.9592V162.367H56.2041V156.123Z" fill="black"/>
<path d="M118.653 156.123H99.9184V162.367H118.653V156.123Z" fill="black"/>
<path d="M131.143 156.123H124.898V162.367H131.143V156.123Z" fill="black"/>
<path d="M143.633 156.123H137.388V162.367H143.633V156.123Z" fill="black"/>
<path d="M174.857 156.123H162.367V162.367H174.857V156.123Z" fill="black"/>
<path d="M199.837 156.123H193.592V162.367H199.837V156.123Z" fill="black"/>
<path d="M212.327 156.123H206.082V162.367H212.327V156.123Z" fill="black"/>
<path d="M224.816 156.123H218.571V162.367H224.816V156.123Z" fill="black"/>
<path d="M256.041 156.123H237.306V162.367H256.041V156.123Z" fill="black"/>
<path d="M293.51 156.123H274.776V162.367H293.51V156.123Z" fill="black"/>
<path d="M306 156.123H299.755V162.367H306V156.123Z" fill="black"/>
<path d="M6.2449 162.367H0V168.612H6.2449V162.367Z" fill="black"/>
<path d="M62.449 162.367H18.7347V168.612H62.449V162.367Z" fill="black"/>
<path d="M74.9388 162.367H68.6939V168.612H74.9388V162.367Z" fill="black"/>
<path d="M99.9184 162.367H87.4286V168.612H99.9184V162.367Z" fill="black"/>
<path d="M112.408 162.367H106.163V168.612H112.408V162.367Z" fill="black"/>
<path d="M124.898 162.367H118.653V168.612H124.898V162.367Z" fill="black"/>
<path d="M168.612 162.367H131.143V168.612H168.612V162.367Z" fill="black"/>
<path d="M193.592 162.367H187.347V168.612H193.592V162.367Z" fill="black"/>
<path d="M206.082 162.367H199.837V168.612H206.082V162.367Z" fill="black"/>
<path d="M224.816 162.367H218.571V168.612H224.816V162.367Z" fill="black"/>
<path d="M287.265 162.367H231.061V168.612H287.265V162.367Z" fill="black"/>
<path d="M306 162.367H293.51V168.612H306V162.367Z" fill="black"/>
<path d="M6.2449 168.612H0V174.857H6.2449V168.612Z" fill="black"/>
<path d="M18.7347 168.612H12.4898V174.857H18.7347V168.612Z" fill="black"/>
<path d="M31.2245 168.612H24.9796V174.857H31.2245V168.612Z" fill="black"/>
<path d="M81.1837 168.612H43.7143V174.857H81.1837V168.612Z" fill="black"/>
<path d="M118.653 168.612H87.4286V174.857H118.653V168.612Z" fill="black"/>
<path d="M143.633 168.612H137.388V174.857H143.633V168.612Z" fill="black"/>
<path d="M168.612 168.612H156.122V174.857H168.612V168.612Z" fill="black"/>
<path d="M181.102 168.612H174.857V174.857H181.102V168.612Z" fill="black"/>
<path d="M212.327 168.612H199.837V174.857H212.327V168.612Z" fill="black"/>
<path d="M224.816 168.612H218.571V174.857H224.816V168.612Z" fill="black"/>
<path d="M237.306 168.612H231.061V174.857H237.306V168.612Z" fill="black"/>
<path d="M249.796 168.612H243.551V174.857H249.796V168.612Z" fill="black"/>
<path d="M262.286 168.612H256.041V174.857H262.286V168.612Z" fill="black"/>
<path d="M306 168.612H268.531V174.857H306V168.612Z" fill="black"/>
<path d="M6.2449 174.857H0V181.102H6.2449V174.857Z" fill="black"/>
<path d="M18.7347 174.857H12.4898V181.102H18.7347V174.857Z" fill="black"/>
<path d="M68.6939 174.857H24.9796V181.102H68.6939V174.857Z" fill="black"/>
<path d="M87.4286 174.857H81.1837V181.102H87.4286V174.857Z" fill="black"/>
<path d="M106.163 174.857H99.9184V181.102H106.163V174.857Z" fill="black"/>
<path d="M131.143 174.857H118.653V181.102H131.143V174.857Z" fill="black"/>
<path d="M149.878 174.857H137.388V181.102H149.878V174.857Z" fill="black"/>
<path d="M181.102 174.857H156.122V181.102H181.102V174.857Z" fill="black"/>
<path d="M212.327 174.857H187.347V181.102H212.327V174.857Z" fill="black"/>
<path d="M231.061 174.857H224.816V181.102H231.061V174.857Z" fill="black"/>
<path d="M256.041 174.857H243.551V181.102H256.041V174.857Z" fill="black"/>
<path d="M268.531 174.857H262.286V181.102H268.531V174.857Z" fill="black"/>
<path d="M293.51 174.857H274.776V181.102H293.51V174.857Z" fill="black"/>
<path d="M306 174.857H299.755V181.102H306V174.857Z" fill="black"/>
<path d="M24.9796 181.102H18.7347V187.347H24.9796V181.102Z" fill="black"/>
<path d="M74.9388 181.102H43.7143V187.347H74.9388V181.102Z" fill="black"/>
<path d="M87.4286 181.102H81.1837V187.347H87.4286V181.102Z" fill="black"/>
<path d="M118.653 181.102H106.163V187.347H118.653V181.102Z" fill="black"/>
<path d="M137.388 181.102H124.898V187.347H137.388V181.102Z" fill="black"/>
<path d="M218.571 181.102H193.592V187.347H218.571V181.102Z" fill="black"/>
<path d="M237.306 181.102H224.816V187.347H237.306V181.102Z" fill="black"/>
<path d="M268.531 181.102H249.796V187.347H268.531V181.102Z" fill="black"/>
<path d="M287.265 181.102H281.02V187.347H287.265V181.102Z" fill="black"/>
<path d="M306 181.102H293.51V187.347H306V181.102Z" fill="black"/>
<path d="M12.4898 187.347H6.2449V193.592H12.4898V187.347Z" fill="black"/>
<path d="M43.7143 187.347H31.2245V193.592H43.7143V187.347Z" fill="black"/>
<path d="M87.4286 187.347H81.1837V193.592H87.4286V187.347Z" fill="black"/>
<path d="M112.408 187.347H106.163V193.592H112.408V187.347Z" fill="black"/>
<path d="M149.878 187.347H124.898V193.592H149.878V187.347Z" fill="black"/>
<path d="M162.367 187.347H156.122V193.592H162.367V187.347Z" fill="black"/>
<path d="M174.857 187.347H168.612V193.592H174.857V187.347Z" fill="black"/>
<path d="M193.592 187.347H187.347V193.592H193.592V187.347Z" fill="black"/>
<path d="M212.327 187.347H206.082V193.592H212.327V187.347Z" fill="black"/>
<path d="M237.306 187.347H218.571V193.592H237.306V187.347Z" fill="black"/>
<path d="M249.796 187.347H243.551V193.592H249.796V187.347Z" fill="black"/>
<path d="M268.531 187.347H256.041V193.592H268.531V187.347Z" fill="black"/>
<path d="M281.02 187.347H274.776V193.592H281.02V187.347Z" fill="black"/>
<path d="M306 187.347H299.755V193.592H306V187.347Z" fill="black"/>
<path d="M6.2449 193.592H0V199.837H6.2449V193.592Z" fill="black"/>
<path d="M37.4694 193.592H18.7347V199.837H37.4694V193.592Z" fill="black"/>
<path d="M62.449 193.592H43.7143V199.837H62.449V193.592Z" fill="black"/>
<path d="M81.1837 193.592H74.9388V199.837H81.1837V193.592Z" fill="black"/>
<path d="M106.163 193.592H93.6735V199.837H106.163V193.592Z" fill="black"/>
<path d="M118.653 193.592H112.408V199.837H118.653V193.592Z" fill="black"/>
<path d="M131.143 193.592H124.898V199.837H131.143V193.592Z" fill="black"/>
<path d="M162.367 193.592H149.878V199.837H162.367V193.592Z" fill="black"/>
<path d="M174.857 193.592H168.612V199.837H174.857V193.592Z" fill="black"/>
<path d="M193.592 193.592H181.102V199.837H193.592V193.592Z" fill="black"/>
<path d="M256.041 193.592H199.837V199.837H256.041V193.592Z" fill="black"/>
<path d="M287.265 193.592H281.02V199.837H287.265V193.592Z" fill="black"/>
<path d="M24.9796 199.837H6.2449V206.082H24.9796V199.837Z" fill="black"/>
<path d="M43.7143 199.837H31.2245V206.082H43.7143V199.837Z" fill="black"/>
<path d="M74.9388 199.837H62.449V206.082H74.9388V199.837Z" fill="black"/>
<path d="M87.4286 199.837H81.1837V206.082H87.4286V199.837Z" fill="black"/>
<path d="M112.408 199.837H99.9184V206.082H112.408V199.837Z" fill="black"/>
<path d="M131.143 199.837H124.898V206.082H131.143V199.837Z" fill="black"/>
<path d="M149.878 199.837H143.633V206.082H149.878V199.837Z" fill="black"/>
<path d="M199.837 199.837H162.367V206.082H199.837V199.837Z" fill="black"/>
<path d="M231.061 199.837H224.816V206.082H231.061V199.837Z" fill="black"/>
<path d="M262.286 199.837H237.306V206.082H262.286V199.837Z" fill="black"/>
<path d="M274.776 199.837H268.531V206.082H274.776V199.837Z" fill="black"/>
<path d="M306 199.837H293.51V206.082H306V199.837Z" fill="black"/>
<path d="M24.9796 206.082H18.7347V212.326H24.9796V206.082Z" fill="black"/>
<path d="M49.9592 206.082H43.7143V212.326H49.9592V206.082Z" fill="black"/>
<path d="M62.449 206.082H56.2041V212.326H62.449V206.082Z" fill="black"/>
<path d="M74.9388 206.082H68.6939V212.326H74.9388V206.082Z" fill="black"/>
<path d="M112.408 206.082H93.6735V212.326H112.408V206.082Z" fill="black"/>
<path d="M131.143 206.082H124.898V212.326H131.143V206.082Z" fill="black"/>
<path d="M156.122 206.082H137.388V212.326H156.122V206.082Z" fill="black"/>
<path d="M181.102 206.082H162.367V212.326H181.102V206.082Z" fill="black"/>
<path d="M231.061 206.082H193.592V212.326H231.061V206.082Z" fill="black"/>
<path d="M262.286 206.082H237.306V212.326H262.286V206.082Z" fill="black"/>
<path d="M281.02 206.082H268.531V212.326H281.02V206.082Z" fill="black"/>
<path d="M293.51 206.082H287.265V212.326H293.51V206.082Z" fill="black"/>
<path d="M12.4898 212.326H6.2449V218.571H12.4898V212.326Z" fill="black"/>
<path d="M31.2245 212.326H18.7347V218.571H31.2245V212.326Z" fill="black"/>
<path d="M43.7143 212.326H37.4694V218.571H43.7143V212.326Z" fill="black"/>
<path d="M93.6735 212.326H74.9388V218.571H93.6735V212.326Z" fill="black"/>
<path d="M118.653 212.326H99.9184V218.571H118.653V212.326Z" fill="black"/>
<path d="M137.388 212.326H131.143V218.571H137.388V212.326Z" fill="black"/>
<path d="M149.878 212.326H143.633V218.571H149.878V212.326Z" fill="black"/>
<path d="M162.367 212.326H156.122V218.571H162.367V212.326Z" fill="black"/>
<path d="M174.857 212.326H168.612V218.571H174.857V212.326Z" fill="black"/>
<path d="M193.592 212.326H187.347V218.571H193.592V212.326Z" fill="black"/>
<path d="M212.327 212.326H199.837V218.571H212.327V212.326Z" fill="black"/>
<path d="M237.306 212.326H218.571V218.571H237.306V212.326Z" fill="black"/>
<path d="M249.796 212.326H243.551V218.571H249.796V212.326Z" fill="black"/>
<path d="M274.776 212.326H262.286V218.571H274.776V212.326Z" fill="black"/>
<path d="M293.51 212.326H281.02V218.571H293.51V212.326Z" fill="black"/>
<path d="M306 212.326H299.755V218.571H306V212.326Z" fill="black"/>
<path d="M6.2449 218.572H0V224.816H6.2449V218.572Z" fill="black"/>
<path d="M24.9796 218.572H12.4898V224.816H24.9796V218.572Z" fill="black"/>
<path d="M49.9592 218.572H43.7143V224.816H49.9592V218.572Z" fill="black"/>
<path d="M68.6939 218.572H56.2041V224.816H68.6939V218.572Z" fill="black"/>
<path d="M99.9184 218.572H87.4286V224.816H99.9184V218.572Z" fill="black"/>
<path d="M168.612 218.572H112.408V224.816H168.612V218.572Z" fill="black"/>
<path d="M181.102 218.572H174.857V224.816H181.102V218.572Z" fill="black"/>
<path d="M199.837 218.572H193.592V224.816H199.837V218.572Z" fill="black"/>
<path d="M212.327 218.572H206.082V224.816H212.327V218.572Z" fill="black"/>
<path d="M231.061 218.572H224.816V224.816H231.061V218.572Z" fill="black"/>
<path d="M249.796 218.572H243.551V224.816H249.796V218.572Z" fill="black"/>
<path d="M293.51 218.572H281.02V224.816H293.51V218.572Z" fill="black"/>
<path d="M18.7347 224.816H6.2449V231.061H18.7347V224.816Z" fill="black"/>
<path d="M31.2245 224.816H24.9796V231.061H31.2245V224.816Z" fill="black"/>
<path d="M43.7143 224.816H37.4694V231.061H43.7143V224.816Z" fill="black"/>
<path d="M56.2041 224.816H49.9592V231.061H56.2041V224.816Z" fill="black"/>
<path d="M68.6939 224.816H62.449V231.061H68.6939V224.816Z" fill="black"/>
<path d="M93.6735 224.816H87.4286V231.061H93.6735V224.816Z" fill="black"/>
<path d="M106.163 224.816H99.9184V231.061H106.163V224.816Z" fill="black"/>
<path d="M118.653 224.816H112.408V231.061H118.653V224.816Z" fill="black"/>
<path d="M149.878 224.816H143.633V231.061H149.878V224.816Z" fill="black"/>
<path d="M187.347 224.816H156.122V231.061H187.347V224.816Z" fill="black"/>
<path d="M206.082 224.816H199.837V231.061H206.082V224.816Z" fill="black"/>
<path d="M218.571 224.816H212.327V231.061H218.571V224.816Z" fill="black"/>
<path d="M274.776 224.816H224.816V231.061H274.776V224.816Z" fill="black"/>
<path d="M306 224.816H287.265V231.061H306V224.816Z" fill="black"/>
<path d="M6.2449 231.061H0V237.306H6.2449V231.061Z" fill="black"/>
<path d="M49.9592 231.061H43.7143V237.306H49.9592V231.061Z" fill="black"/>
<path d="M68.6939 231.061H56.2041V237.306H68.6939V231.061Z" fill="black"/>
<path d="M93.6735 231.061H81.1837V237.306H93.6735V231.061Z" fill="black"/>
<path d="M143.633 231.061H112.408V237.306H143.633V231.061Z" fill="black"/>
<path d="M162.367 231.061H156.122V237.306H162.367V231.061Z" fill="black"/>
<path d="M187.347 231.061H181.102V237.306H187.347V231.061Z" fill="black"/>
<path d="M212.327 231.061H206.082V237.306H212.327V231.061Z" fill="black"/>
<path d="M231.061 231.061H218.571V237.306H231.061V231.061Z" fill="black"/>
<path d="M256.041 231.061H237.306V237.306H256.041V231.061Z" fill="black"/>
<path d="M281.02 231.061H274.776V237.306H281.02V231.061Z" fill="black"/>
<path d="M299.755 231.061H293.51V237.306H299.755V231.061Z" fill="black"/>
<path d="M12.4898 237.306H6.2449V243.551H12.4898V237.306Z" fill="black"/>
<path d="M56.2041 237.306H31.2245V243.551H56.2041V237.306Z" fill="black"/>
<path d="M68.6939 237.306H62.449V243.551H68.6939V237.306Z" fill="black"/>
<path d="M81.1837 237.306H74.9388V243.551H81.1837V237.306Z" fill="black"/>
<path d="M93.6735 237.306H87.4286V243.551H93.6735V237.306Z" fill="black"/>
<path d="M124.898 237.306H112.408V243.551H124.898V237.306Z" fill="black"/>
<path d="M149.878 237.306H143.633V243.551H149.878V237.306Z" fill="black"/>
<path d="M162.367 237.306H156.122V243.551H162.367V237.306Z" fill="black"/>
<path d="M174.857 237.306H168.612V243.551H174.857V237.306Z" fill="black"/>
<path d="M199.837 237.306H187.347V243.551H199.837V237.306Z" fill="black"/>
<path d="M218.571 237.306H212.327V243.551H218.571V237.306Z" fill="black"/>
<path d="M237.306 237.306H224.816V243.551H237.306V237.306Z" fill="black"/>
<path d="M274.776 237.306H256.041V243.551H274.776V237.306Z" fill="black"/>
<path d="M306 237.306H293.51V243.551H306V237.306Z" fill="black"/>
<path d="M24.9796 243.551H6.2449V249.796H24.9796V243.551Z" fill="black"/>
<path d="M68.6939 243.551H56.2041V249.796H68.6939V243.551Z" fill="black"/>
<path d="M93.6735 243.551H81.1837V249.796H93.6735V243.551Z" fill="black"/>
<path d="M106.163 243.551H99.9184V249.796H106.163V243.551Z" fill="black"/>
<path d="M156.122 243.551H143.633V249.796H156.122V243.551Z" fill="black"/>
<path d="M187.347 243.551H168.612V249.796H187.347V243.551Z" fill="black"/>
<path d="M212.327 243.551H193.592V249.796H212.327V243.551Z" fill="black"/>
<path d="M224.816 243.551H218.571V249.796H224.816V243.551Z" fill="black"/>
<path d="M237.306 243.551H231.061V249.796H237.306V243.551Z" fill="black"/>
<path d="M256.041 243.551H243.551V249.796H256.041V243.551Z" fill="black"/>
<path d="M306 243.551H274.776V249.796H306V243.551Z" fill="black"/>
<path d="M18.7347 249.796H0V256.041H18.7347V249.796Z" fill="black"/>
<path d="M56.2041 249.796H37.4694V256.041H56.2041V249.796Z" fill="black"/>
<path d="M74.9388 249.796H68.6939V256.041H74.9388V249.796Z" fill="black"/>
<path d="M93.6735 249.796H87.4286V256.041H93.6735V249.796Z" fill="black"/>
<path d="M106.163 249.796H99.9184V256.041H106.163V249.796Z" fill="black"/>
<path d="M168.612 249.796H137.388V256.041H168.612V249.796Z" fill="black"/>
<path d="M218.571 249.796H181.102V256.041H218.571V249.796Z" fill="black"/>
<path d="M231.061 249.796H224.816V256.041H231.061V249.796Z" fill="black"/>
<path d="M281.02 249.796H243.551V256.041H281.02V249.796Z" fill="black"/>
<path d="M293.51 249.796H287.265V256.041H293.51V249.796Z" fill="black"/>
<path d="M306 249.796H299.755V256.041H306V249.796Z" fill="black"/>
<path d="M56.2041 256.041H49.9592V262.286H56.2041V256.041Z" fill="black"/>
<path d="M93.6735 256.041H68.6939V262.286H93.6735V256.041Z" fill="black"/>
<path d="M106.163 256.041H99.9184V262.286H106.163V256.041Z" fill="black"/>
<path d="M143.633 256.041H118.653V262.286H143.633V256.041Z" fill="black"/>
<path d="M168.612 256.041H162.367V262.286H168.612V256.041Z" fill="black"/>
<path d="M193.592 256.041H181.102V262.286H193.592V256.041Z" fill="black"/>
<path d="M212.327 256.041H199.837V262.286H212.327V256.041Z" fill="black"/>
<path d="M256.041 256.041H224.816V262.286H256.041V256.041Z" fill="black"/>
<path d="M299.755 256.041H274.776V262.286H299.755V256.041Z" fill="black"/>
<path d="M43.7143 262.286H0V268.531H43.7143V262.286Z" fill="black"/>
<path d="M56.2041 262.286H49.9592V268.531H56.2041V262.286Z" fill="black"/>
<path d="M87.4286 262.286H68.6939V268.531H87.4286V262.286Z" fill="black"/>
<path d="M106.163 262.286H93.6735V268.531H106.163V262.286Z" fill="black"/>
<path d="M124.898 262.286H118.653V268.531H124.898V262.286Z" fill="black"/>
<path d="M143.633 262.286H131.143V268.531H143.633V262.286Z" fill="black"/>
<path d="M156.122 262.286H149.878V268.531H156.122V262.286Z" fill="black"/>
<path d="M181.102 262.286H162.367V268.531H181.102V262.286Z" fill="black"/>
<path d="M218.571 262.286H206.082V268.531H218.571V262.286Z" fill="black"/>
<path d="M243.551 262.286H231.061V268.531H243.551V262.286Z" fill="black"/>
<path d="M256.041 262.286H249.796V268.531H256.041V262.286Z" fill="black"/>
<path d="M268.531 262.286H262.286V268.531H268.531V262.286Z" fill="black"/>
<path d="M293.51 262.286H274.776V268.531H293.51V262.286Z" fill="black"/>
<path d="M306 262.286H299.755V268.531H306V262.286Z" fill="black"/>
<path d="M6.2449 268.531H0V274.775H6.2449V268.531Z" fill="black"/>
<path d="M43.7143 268.531H37.4694V274.775H43.7143V268.531Z" fill="black"/>
<path d="M62.449 268.531H56.2041V274.775H62.449V268.531Z" fill="black"/>
<path d="M81.1837 268.531H74.9388V274.775H81.1837V268.531Z" fill="black"/>
<path d="M106.163 268.531H93.6735V274.775H106.163V268.531Z" fill="black"/>
<path d="M124.898 268.531H112.408V274.775H124.898V268.531Z" fill="black"/>
<path d="M143.633 268.531H131.143V274.775H143.633V268.531Z" fill="black"/>
<path d="M174.857 268.531H162.367V274.775H174.857V268.531Z" fill="black"/>
<path d="M199.837 268.531H181.102V274.775H199.837V268.531Z" fill="black"/>
<path d="M231.061 268.531H206.082V274.775H231.061V268.531Z" fill="black"/>
<path d="M256.041 268.531H249.796V274.775H256.041V268.531Z" fill="black"/>
<path d="M287.265 268.531H274.776V274.775H287.265V268.531Z" fill="black"/>
<path d="M306 268.531H293.51V274.775H306V268.531Z" fill="black"/>
<path d="M6.2449 274.775H0V281.02H6.2449V274.775Z" fill="black"/>
<path d="M31.2245 274.775H12.4898V281.02H31.2245V274.775Z" fill="black"/>
<path d="M43.7143 274.775H37.4694V281.02H43.7143V274.775Z" fill="black"/>
<path d="M74.9388 274.775H49.9592V281.02H74.9388V274.775Z" fill="black"/>
<path d="M87.4286 274.775H81.1837V281.02H87.4286V274.775Z" fill="black"/>
<path d="M131.143 274.775H124.898V281.02H131.143V274.775Z" fill="black"/>
<path d="M181.102 274.775H137.388V281.02H181.102V274.775Z" fill="black"/>
<path d="M212.327 274.775H206.082V281.02H212.327V274.775Z" fill="black"/>
<path d="M231.061 274.775H218.571V281.02H231.061V274.775Z" fill="black"/>
<path d="M281.02 274.775H237.306V281.02H281.02V274.775Z" fill="black"/>
<path d="M306 274.775H299.755V281.02H306V274.775Z" fill="black"/>
<path d="M6.2449 281.021H0V287.265H6.2449V281.021Z" fill="black"/>
<path d="M31.2245 281.021H12.4898V287.265H31.2245V281.021Z" fill="black"/>
<path d="M43.7143 281.021H37.4694V287.265H43.7143V281.021Z" fill="black"/>
<path d="M56.2041 281.021H49.9592V287.265H56.2041V281.021Z" fill="black"/>
<path d="M74.9388 281.021H62.449V287.265H74.9388V281.021Z" fill="black"/>
<path d="M87.4286 281.021H81.1837V287.265H87.4286V281.021Z" fill="black"/>
<path d="M99.9184 281.021H93.6735V287.265H99.9184V281.021Z" fill="black"/>
<path d="M112.408 281.021H106.163V287.265H112.408V281.021Z" fill="black"/>
<path d="M168.612 281.021H162.367V287.265H168.612V281.021Z" fill="black"/>
<path d="M187.347 281.021H181.102V287.265H187.347V281.021Z" fill="black"/>
<path d="M262.286 281.021H193.592V287.265H262.286V281.021Z" fill="black"/>
<path d="M274.776 281.021H268.531V287.265H274.776V281.021Z" fill="black"/>
<path d="M293.51 281.021H281.02V287.265H293.51V281.021Z" fill="black"/>
<path d="M306 281.021H299.755V287.265H306V281.021Z" fill="black"/>
<path d="M6.2449 287.265H0V293.51H6.2449V287.265Z" fill="black"/>
<path d="M31.2245 287.265H12.4898V293.51H31.2245V287.265Z" fill="black"/>
<path d="M43.7143 287.265H37.4694V293.51H43.7143V287.265Z" fill="black"/>
<path d="M62.449 287.265H56.2041V293.51H62.449V287.265Z" fill="black"/>
<path d="M81.1837 287.265H74.9388V293.51H81.1837V287.265Z" fill="black"/>
<path d="M112.408 287.265H106.163V293.51H112.408V287.265Z" fill="black"/>
<path d="M131.143 287.265H118.653V293.51H131.143V287.265Z" fill="black"/>
<path d="M143.633 287.265H137.388V293.51H143.633V287.265Z" fill="black"/>
<path d="M181.102 287.265H168.612V293.51H181.102V287.265Z" fill="black"/>
<path d="M193.592 287.265H187.347V293.51H193.592V287.265Z" fill="black"/>
<path d="M231.061 287.265H206.082V293.51H231.061V287.265Z" fill="black"/>
<path d="M249.796 287.265H243.551V293.51H249.796V287.265Z" fill="black"/>
<path d="M281.02 287.265H274.776V293.51H281.02V287.265Z" fill="black"/>
<path d="M306 287.265H299.755V293.51H306V287.265Z" fill="black"/>
<path d="M6.2449 293.51H0V299.755H6.2449V293.51Z" fill="black"/>
<path d="M43.7143 293.51H37.4694V299.755H43.7143V293.51Z" fill="black"/>
<path d="M81.1837 293.51H74.9388V299.755H81.1837V293.51Z" fill="black"/>
<path d="M131.143 293.51H124.898V299.755H131.143V293.51Z" fill="black"/>
<path d="M149.878 293.51H143.633V299.755H149.878V293.51Z" fill="black"/>
<path d="M174.857 293.51H168.612V299.755H174.857V293.51Z" fill="black"/>
<path d="M193.592 293.51H187.347V299.755H193.592V293.51Z" fill="black"/>
<path d="M206.082 293.51H199.837V299.755H206.082V293.51Z" fill="black"/>
<path d="M224.816 293.51H212.327V299.755H224.816V293.51Z" fill="black"/>
<path d="M256.041 293.51H231.061V299.755H256.041V293.51Z" fill="black"/>
<path d="M306 293.51H262.286V299.755H306V293.51Z" fill="black"/>
<path d="M43.7143 299.755H0V306H43.7143V299.755Z" fill="black"/>
<path d="M68.6939 299.755H62.449V306H68.6939V299.755Z" fill="black"/>
<path d="M87.4286 299.755H74.9388V306H87.4286V299.755Z" fill="black"/>
<path d="M99.9184 299.755H93.6735V306H99.9184V299.755Z" fill="black"/>
<path d="M124.898 299.755H112.408V306H124.898V299.755Z" fill="black"/>
<path d="M149.878 299.755H137.388V306H149.878V299.755Z" fill="black"/>
<path d="M174.857 299.755H168.612V306H174.857V299.755Z" fill="black"/>
<path d="M187.347 299.755H181.102V306H187.347V299.755Z" fill="black"/>
<path d="M231.061 299.755H199.837V306H231.061V299.755Z" fill="black"/>
<path d="M274.776 299.755H237.306V306H274.776V299.755Z" fill="black"/>
<path d="M306 299.755H299.755V306H306V299.755Z" fill="black"/>
</g>
<defs>
<clipPath id="clip0_3266_2986">
<rect width="306" height="306" fill="white"/>
</clipPath>
</defs>
</svg>
