<svg width="232" height="123" viewBox="0 0 232 123" fill="none" xmlns="http://www.w3.org/2000/svg">
<path d="M111.066 38.5829C111.066 30.4457 112.255 23.5886 114.632 17.8286C119.386 6.4 128.346 0 140.415 0C146.54 0 151.752 1.55429 156.232 4.57143C165.009 10.7886 169.946 22.4 169.946 38.5829C169.946 46.72 168.758 53.5771 166.38 59.3371C161.626 70.8571 152.575 77.1657 140.415 77.1657C134.38 77.1657 129.169 75.6114 124.78 72.5029C116.003 66.3771 111.066 54.6743 111.066 38.5829ZM126.792 38.5829C126.792 54.2171 131.638 62.9943 140.415 62.9943C149.283 62.9943 154.22 54.0343 154.22 38.6743C154.22 23.04 149.192 14.1714 140.415 14.1714C131.638 14.1714 126.792 22.9486 126.792 38.5829Z" fill="#F16122"/>
<path d="M173.066 38.5829C173.066 30.4457 174.255 23.5886 176.632 17.8286C181.386 6.4 190.346 0 202.415 0C208.54 0 213.752 1.55429 218.232 4.57143C227.009 10.7886 231.946 22.4 231.946 38.5829C231.946 46.72 230.758 53.5771 228.38 59.3371C223.626 70.8571 214.575 77.1657 202.415 77.1657C196.38 77.1657 191.169 75.6114 186.78 72.5029C178.003 66.3771 173.066 54.6743 173.066 38.5829ZM188.792 38.5829C188.792 54.2171 193.638 62.9943 202.415 62.9943C211.283 62.9943 216.22 54.0343 216.22 38.6743C216.22 23.04 211.192 14.1714 202.415 14.1714C193.638 14.1714 188.792 22.9486 188.792 38.5829Z" fill="#F16122"/>
<path d="M49.3875 38.5829C49.3875 30.4457 50.5761 23.5886 52.9532 17.8286C57.7075 6.4 66.6675 0 78.7361 0C84.8618 0 90.0732 1.55429 94.5532 4.57143C103.33 10.7886 108.268 22.4 108.268 38.5829C108.268 46.72 107.079 53.5771 104.702 59.3371C99.9475 70.8571 90.8961 77.1657 78.7361 77.1657C72.7018 77.1657 67.4904 75.6114 63.1018 72.5029C54.3247 66.3771 49.3875 54.6743 49.3875 38.5829ZM65.1132 38.5829C65.1132 54.2171 69.9589 62.9943 78.7361 62.9943C87.6047 62.9943 92.5418 54.0343 92.5418 38.6743C92.5418 23.04 87.5132 14.1714 78.7361 14.1714C69.9589 14.1714 65.1132 22.9486 65.1132 38.5829Z" fill="#F16122"/>
<path d="M33.4254 75.6113H18.3397V19.0171L5.26538 29.3485L0.0539551 16.6399L20.534 1.5542H33.4254V75.6113Z" fill="#F16122"/>
<path d="M38.6857 65.0123C38.6857 62.0639 40.8898 60 43.9755 60C47.551 60 50 62.9484 50 67.6167C50 73.1204 47.0122 77.5921 41.2816 80L38 76.3145C42.1633 74.7912 44.5633 72.5307 45.2 69.5823C44.7102 69.828 44.1224 69.9263 43.3878 69.9263C40.7918 69.9263 38.6857 67.8133 38.6857 65.0123Z" fill="#F16122"/>
<path d="M186.591 106.438L184.533 112.152C180 109.333 174.667 107.01 170.362 105.562V122.476H164.343V89.8286H170.362V99.4667C176.229 101.371 182.095 103.848 186.591 106.438Z" fill="#F16122"/>
<path d="M138.59 96.6477L136.038 101.791C132.229 99.4667 128.571 98.0953 124.229 96.762L126.705 91.8096C131.01 93.0286 134.819 94.6667 138.59 96.6477ZM125.562 121.714L125.067 115.733C130.362 115.01 135.619 113.448 140.038 110.438C144.571 107.352 148.152 101.867 150.057 95.0477L154.743 99.1239C152.648 105.562 149.029 111.162 144.267 114.895C139.581 118.552 132.19 121.029 125.562 121.714Z" fill="#F16122"/>
<path d="M110.552 89.1047L115.314 92.5714C112.038 96.1143 108.8 99.0476 105.333 101.562V122.552H99.2762V105.371C95.7334 107.314 91.8477 109.067 88.0762 110.514L84.1143 105.79C94.8953 102.209 104.076 96.8 110.552 89.1047Z" fill="#F16122"/>
<path d="M77.7143 96.4571V101.257H65.2953V122.4H59.4286V101.257H47.0095V95.9238H59.4286V89.9429H65.2953V95.9238H73.1429C72.0381 95.1238 71.3524 93.8286 71.3524 92.381C71.3524 89.9429 73.3715 88 75.8857 88C78.4 88 80.381 89.9429 80.381 92.381C80.381 94.1714 79.2762 95.7333 77.7143 96.4571ZM75.8857 90.2095C74.6667 90.2095 73.6762 91.2381 73.6762 92.381C73.6762 93.6381 74.6286 94.5905 75.8857 94.5905C77.1048 94.5905 78.0953 93.6 78.0953 92.381C78.0953 91.2381 77.1048 90.2095 75.8857 90.2095ZM68.6857 105.105L74.0572 103.848C75.1238 108.61 77.0286 113.79 79.1619 117.181L73.7524 119.657C71.3143 115.886 69.6381 110.362 68.6857 105.105ZM50.781 119.81L45.4095 117.6C48 114.21 49.6 109.295 50.4762 104L55.8857 105.105C55.0095 110.819 53.4476 116.229 50.781 119.81Z" fill="#F16122"/>
</svg>
