<svg width="131" height="65" viewBox="0 0 131 65" fill="none" xmlns="http://www.w3.org/2000/svg">
<path d="M17.952 40.392H10.032V10.68L3.168 16.104L0.432 9.432L11.184 1.512H17.952V40.392ZM23.9451 46.668L21.7851 44.22C24.5211 43.176 26.2851 41.556 26.7171 39.36C26.3211 39.54 25.8891 39.648 25.3851 39.648C23.6571 39.648 22.2531 38.28 22.2531 36.372C22.2531 34.5 23.7291 33.06 25.7451 33.06C28.1931 33.06 29.7771 35.04 29.7771 38.208C29.7771 41.916 27.7971 44.94 23.9451 46.668ZM29.972 20.952C29.972 16.68 30.596 13.08 31.844 10.056C34.34 4.056 39.044 0.695998 45.38 0.695998C48.596 0.695998 51.332 1.512 53.684 3.096C58.292 6.36 60.884 12.456 60.884 20.952C60.884 25.224 60.26 28.824 59.012 31.848C56.516 37.896 51.764 41.208 45.38 41.208C42.212 41.208 39.476 40.392 37.172 38.76C32.564 35.544 29.972 29.4 29.972 20.952ZM38.228 20.952C38.228 29.16 40.772 33.768 45.38 33.768C50.036 33.768 52.628 29.064 52.628 21C52.628 12.792 49.988 8.136 45.38 8.136C40.772 8.136 38.228 12.744 38.228 20.952ZM63.5032 20.952C63.5032 16.68 64.1272 13.08 65.3752 10.056C67.8712 4.056 72.5752 0.695998 78.9112 0.695998C82.1272 0.695998 84.8632 1.512 87.2152 3.096C91.8232 6.36 94.4152 12.456 94.4152 20.952C94.4152 25.224 93.7912 28.824 92.5432 31.848C90.0472 37.896 85.2952 41.208 78.9112 41.208C75.7432 41.208 73.0072 40.392 70.7032 38.76C66.0952 35.544 63.5032 29.4 63.5032 20.952ZM71.7592 20.952C71.7592 29.16 74.3032 33.768 78.9112 33.768C83.5672 33.768 86.1592 29.064 86.1592 21C86.1592 12.792 83.5192 8.136 78.9112 8.136C74.3032 8.136 71.7592 12.744 71.7592 20.952ZM97.0345 20.952C97.0345 16.68 97.6585 13.08 98.9065 10.056C101.402 4.056 106.106 0.695998 112.442 0.695998C115.658 0.695998 118.394 1.512 120.746 3.096C125.354 6.36 127.946 12.456 127.946 20.952C127.946 25.224 127.322 28.824 126.074 31.848C123.578 37.896 118.826 41.208 112.442 41.208C109.274 41.208 106.538 40.392 104.234 38.76C99.6265 35.544 97.0345 29.4 97.0345 20.952ZM105.29 20.952C105.29 29.16 107.834 33.768 112.442 33.768C117.098 33.768 119.69 29.064 119.69 21C119.69 12.792 117.05 8.136 112.442 8.136C107.834 8.136 105.29 12.744 105.29 20.952Z" fill="#F16122"/>
<path d="M44.66 51.3V53.82H38.14V64.92H35.06V53.82H28.54V51.02H35.06V47.88H38.14V51.02H42.26C41.68 50.6 41.32 49.92 41.32 49.16C41.32 47.88 42.38 46.86 43.7 46.86C45.02 46.86 46.06 47.88 46.06 49.16C46.06 50.1 45.48 50.92 44.66 51.3ZM43.7 48.02C43.06 48.02 42.54 48.56 42.54 49.16C42.54 49.82 43.04 50.32 43.7 50.32C44.34 50.32 44.86 49.8 44.86 49.16C44.86 48.56 44.34 48.02 43.7 48.02ZM39.92 55.84L42.74 55.18C43.3 57.68 44.3 60.4 45.42 62.18L42.58 63.48C41.3 61.5 40.42 58.6 39.92 55.84ZM30.52 63.56L27.7 62.4C29.06 60.62 29.9 58.04 30.36 55.26L33.2 55.84C32.74 58.84 31.92 61.68 30.52 63.56ZM61.9 47.44L64.4 49.26C62.68 51.12 60.98 52.66 59.16 53.98V65H55.98V55.98C54.12 57 52.08 57.92 50.1 58.68L48.02 56.2C53.68 54.32 58.5 51.48 61.9 47.44ZM76.62 51.4L75.28 54.1C73.28 52.88 71.36 52.16 69.08 51.46L70.38 48.86C72.64 49.5 74.64 50.36 76.62 51.4ZM69.78 64.56L69.52 61.42C72.3 61.04 75.06 60.22 77.38 58.64C79.76 57.02 81.64 54.14 82.64 50.56L85.1 52.7C84 56.08 82.1 59.02 79.6 60.98C77.14 62.9 73.26 64.2 69.78 64.56ZM101.82 56.54L100.74 59.54C98.36 58.06 95.56 56.84 93.3 56.08V64.96H90.14V47.82H93.3V52.88C96.38 53.88 99.46 55.18 101.82 56.54Z" fill="#F16122"/>
</svg>
