<?xml version="1.0" standalone="no"?>
<!DOCTYPE svg PUBLIC "-//W3C//DTD SVG 20010904//EN"
 "http://www.w3.org/TR/2001/REC-SVG-20010904/DTD/svg10.dtd">
<svg version="1.0" xmlns="http://www.w3.org/2000/svg"
 width="279.000000pt" height="279.000000pt" viewBox="0 0 279.000000 279.000000"
 preserveAspectRatio="xMidYMid meet">
<metadata>
Created by potrace 1.15, written by Peter Selinger 2001-2017
</metadata><g><rect x="0" y="0" width="279" height="279" fill="#ffffff" />
<g transform="translate(0.000000,279.000000) scale(0.050000,-0.050000)"
fill="#000000" stroke="none">
<path d="M540 4410 l0 -630 630 0 630 0 0 630 0 630 -630 0 -630 0 0 -630z
m1080 0 l0 -450 -450 0 -450 0 0 450 0 450 450 0 450 0 0 -450z"/>
<path d="M900 4410 l0 -270 270 0 270 0 0 270 0 270 -270 0 -270 0 0 -270z"/>
<path d="M2520 4950 l0 -90 -180 0 -180 0 0 -90 0 -90 -90 0 -90 0 0 -90 0
-90 90 0 90 0 0 90 0 90 90 0 90 0 0 -90 0 -90 90 0 90 0 0 90 0 90 90 0 90 0
0 -180 0 -180 -90 0 -90 0 0 -90 0 -90 -180 0 -180 0 0 -90 0 -90 -90 0 -90 0
0 -180 0 -180 -360 0 -360 0 0 -90 0 -90 -90 0 -90 0 0 90 0 90 -270 0 -270 0
0 -90 0 -90 90 0 90 0 0 -180 0 -180 90 0 90 0 0 -90 0 -90 -180 0 -180 0 0
-90 0 -90 90 0 90 0 0 -90 0 -90 -90 0 -90 0 0 -90 0 -90 90 0 90 0 0 -90 0
-90 -90 0 -90 0 0 -90 0 -90 90 0 90 0 0 90 0 90 180 0 180 0 0 -90 0 -90 90
0 90 0 0 90 0 90 -90 0 -90 0 0 180 0 180 -90 0 -90 0 0 90 0 90 180 0 180 0
0 90 0 90 90 0 90 0 0 90 0 90 180 0 180 0 0 -90 0 -90 -90 0 -90 0 0 -90 0
-90 -90 0 -90 0 0 -180 0 -180 180 0 180 0 0 90 0 90 90 0 90 0 0 -180 0 -180
-270 0 -270 0 0 -90 0 -90 270 0 270 0 0 -360 0 -360 90 0 90 0 0 -90 0 -90
-90 0 -90 0 0 -270 0 -270 270 0 270 0 0 90 0 90 90 0 90 0 0 90 0 90 -90 0
-90 0 0 90 0 90 -90 0 -90 0 0 90 0 90 -90 0 -90 0 0 180 0 180 90 0 90 0 0
-90 0 -90 180 0 180 0 0 -180 0 -180 90 0 90 0 0 -270 0 -270 360 0 360 0 0
270 0 270 90 0 90 0 0 90 0 90 90 0 90 0 0 -90 0 -90 90 0 90 0 0 -180 0 -180
-90 0 -90 0 0 90 0 90 -90 0 -90 0 0 -90 0 -90 90 0 90 0 0 -90 0 -90 90 0 90
0 0 90 0 90 180 0 180 0 0 90 0 90 -90 0 -90 0 0 90 0 90 180 0 180 0 0 90 0
90 90 0 90 0 0 90 0 90 90 0 90 0 0 270 0 270 -180 0 -180 0 0 -180 0 -180 90
0 90 0 0 -90 0 -90 -90 0 -90 0 0 -90 0 -90 -90 0 -90 0 0 450 0 450 -90 0
-90 0 0 90 0 90 -90 0 -90 0 0 90 0 90 -90 0 -90 0 0 180 0 180 90 0 90 0 0
90 0 90 90 0 90 0 0 90 0 90 -180 0 -180 0 0 180 0 180 -180 0 -180 0 0 270 0
270 -90 0 -90 0 0 90 0 90 90 0 90 0 0 270 0 270 -90 0 -90 0 0 90 0 90 -90 0
-90 0 0 -90 0 -90 -270 0 -270 0 0 90 0 90 -90 0 -90 0 0 -90z m540 -360 l0
-90 90 0 90 0 0 -90 0 -90 -180 0 -180 0 0 -90 0 -90 90 0 90 0 0 -180 0 -180
90 0 90 0 0 90 0 90 90 0 90 0 0 -90 0 -90 -90 0 -90 0 0 -90 0 -90 180 0 180
0 0 -90 0 -90 90 0 90 0 0 -180 0 -180 90 0 90 0 0 -90 0 -90 -90 0 -90 0 0
90 0 90 -90 0 -90 0 0 -90 0 -90 -180 0 -180 0 0 -90 0 -90 90 0 90 0 0 -180
0 -180 -180 0 -180 0 0 90 0 90 -90 0 -90 0 0 -270 0 -270 90 0 90 0 0 90 0
90 180 0 180 0 0 -90 0 -90 -90 0 -90 0 0 -180 0 -180 90 0 90 0 0 -180 0
-180 90 0 90 0 0 -90 0 -90 -90 0 -90 0 0 -90 0 -90 -180 0 -180 0 0 90 0 90
-90 0 -90 0 0 90 0 90 180 0 180 0 0 180 0 180 -180 0 -180 0 0 -90 0 -90 -90
0 -90 0 0 90 0 90 -180 0 -180 0 0 90 0 90 -90 0 -90 0 0 90 0 90 -90 0 -90 0
0 90 0 90 90 0 90 0 0 -90 0 -90 180 0 180 0 0 90 0 90 -90 0 -90 0 0 90 0 90
90 0 90 0 0 90 0 90 -270 0 -270 0 0 90 0 90 90 0 90 0 0 90 0 90 -90 0 -90 0
0 90 0 90 -90 0 -90 0 0 90 0 90 -90 0 -90 0 0 90 0 90 270 0 270 0 0 90 0 90
90 0 90 0 0 90 0 90 -90 0 -90 0 0 90 0 90 90 0 90 0 0 -90 0 -90 90 0 90 0 0
90 0 90 90 0 90 0 0 -90 0 -90 90 0 90 0 0 180 0 180 -90 0 -90 0 0 90 0 90
90 0 90 0 0 180 0 180 90 0 90 0 0 -90z m-1980 -1260 l0 -90 90 0 90 0 0 -180
0 -180 -90 0 -90 0 0 180 0 180 -90 0 -90 0 0 90 0 90 90 0 90 0 0 -90z m720
-720 l0 -90 -90 0 -90 0 0 90 0 90 90 0 90 0 0 -90z m1980 -90 l0 -180 180 0
180 0 0 -90 0 -90 -180 0 -180 0 0 90 0 90 -90 0 -90 0 0 180 0 180 90 0 90 0
0 -180z m-2880 -90 l0 -90 -90 0 -90 0 0 90 0 90 90 0 90 0 0 -90z m3240 -720
l0 -270 -270 0 -270 0 0 270 0 270 270 0 270 0 0 -270z m-1620 -900 l0 -90
-180 0 -180 0 0 90 0 90 180 0 180 0 0 -90z"/>
<path d="M2520 3690 l0 -90 -90 0 -90 0 0 -90 0 -90 90 0 90 0 0 90 0 90 90 0
90 0 0 90 0 90 -90 0 -90 0 0 -90z"/>
<path d="M2880 3600 l0 -180 -90 0 -90 0 0 -90 0 -90 90 0 90 0 0 -180 0 -180
-180 0 -180 0 0 -90 0 -90 90 0 90 0 0 -90 0 -90 90 0 90 0 0 90 0 90 90 0 90
0 0 90 0 90 90 0 90 0 0 180 0 180 -90 0 -90 0 0 270 0 270 -90 0 -90 0 0
-180z"/>
<path d="M3420 3240 l0 -180 90 0 90 0 0 180 0 180 -90 0 -90 0 0 -180z"/>
<path d="M1980 3150 l0 -90 180 0 180 0 0 90 0 90 -180 0 -180 0 0 -90z"/>
<path d="M2520 2250 l0 -90 90 0 90 0 0 90 0 90 -90 0 -90 0 0 -90z"/>
<path d="M2700 1890 l0 -90 90 0 90 0 0 90 0 90 -90 0 -90 0 0 -90z"/>
<path d="M3780 1710 l0 -90 90 0 90 0 0 90 0 90 -90 0 -90 0 0 -90z"/>
<path d="M3780 4410 l0 -630 630 0 630 0 0 630 0 630 -630 0 -630 0 0 -630z
m1080 0 l0 -450 -450 0 -450 0 0 450 0 450 450 0 450 0 0 -450z"/>
<path d="M4140 4410 l0 -270 270 0 270 0 0 270 0 270 -270 0 -270 0 0 -270z"/>
<path d="M4500 3510 l0 -90 90 0 90 0 0 90 0 90 -90 0 -90 0 0 -90z"/>
<path d="M4860 3330 l0 -90 -180 0 -180 0 0 -90 0 -90 90 0 90 0 0 -180 0
-180 90 0 90 0 0 -90 0 -90 -180 0 -180 0 0 180 0 180 -90 0 -90 0 0 -180 0
-180 90 0 90 0 0 -90 0 -90 90 0 90 0 0 -90 0 -90 90 0 90 0 0 90 0 90 90 0
90 0 0 270 0 270 -90 0 -90 0 0 90 0 90 90 0 90 0 0 180 0 180 -90 0 -90 0 0
-90z"/>
<path d="M540 1170 l0 -630 630 0 630 0 0 630 0 630 -630 0 -630 0 0 -630z
m1080 0 l0 -450 -450 0 -450 0 0 450 0 450 450 0 450 0 0 -450z"/>
<path d="M900 1170 l0 -270 270 0 270 0 0 270 0 270 -270 0 -270 0 0 -270z"/>
<path d="M4860 990 l0 -90 -90 0 -90 0 0 -180 0 -180 180 0 180 0 0 90 0 90
-90 0 -90 0 0 90 0 90 90 0 90 0 0 90 0 90 -90 0 -90 0 0 -90z"/>
</g>
</g></svg>
