<svg width="64" height="64" viewBox="0 0 64 64" fill="none" xmlns="http://www.w3.org/2000/svg">
<g clip-path="url(#clip0_2295_24471)">
<path d="M63.5109 10.1333V53.8667C63.5109 59.4133 58.9593 64 53.455 64H10.0559C4.55162 64 0 59.4133 0 53.8667V10.1333C0 4.58667 4.55162 0 10.0559 0H53.455C58.9593 0 63.5109 4.58667 63.5109 10.1333Z" fill="#BF0000"/>
<path d="M8.45366 20.0007L6.66699 18.501H19.1971L8.45366 20.0007Z" fill="white"/>
<path d="M10.4883 17.3763V14.0547H11.9273L14.419 17.3763H16.9662L13.955 13.3689C14.8937 12.6958 15.5091 11.6003 15.5091 10.3598C15.5091 8.32246 13.8526 6.66699 11.8153 6.66699H8.45312V17.3763H10.4883ZM10.4883 8.70006H11.8163C12.7305 8.70006 13.4771 9.44353 13.4771 10.3587C13.4771 11.2771 12.7294 12.0195 11.8163 12.0195H10.4883V8.70006Z" fill="white"/>
<path d="M49.3333 10.667L24 17.2803V49.9694H26.6667V24.0803L46.6667 18.5337V44.651H49.3333V10.667Z" fill="white"/>
<path d="M43.5873 50.5559C47.2132 49.9167 49.7393 47.0541 49.2295 44.1621C48.7197 41.27 45.367 39.4437 41.7411 40.0829C38.1152 40.7221 35.5891 43.5847 36.0989 46.4767C36.6087 49.3688 39.9614 51.1951 43.5873 50.5559Z" fill="white"/>
<path d="M20.9203 55.8723C24.5462 55.2332 27.0724 52.3705 26.5625 49.4785C26.0527 46.5864 22.7001 44.7601 19.0741 45.3993C15.4482 46.0385 12.9221 48.9011 13.4319 51.7932C13.9417 54.6852 17.2944 56.5115 20.9203 55.8723Z" fill="white"/>
</g>
<defs>
<clipPath id="clip0_2295_24471">
<rect width="64" height="64" fill="white"/>
</clipPath>
</defs>
</svg>
