<svg width="48" height="49" viewBox="0 0 48 49" fill="none" xmlns="http://www.w3.org/2000/svg">
<path d="M43.9897 15.9669C44.1397 14.4369 43.0197 13.0669 41.4897 12.9169L33.6397 12.1469C34.4397 11.6469 34.9697 11.0669 35.2197 10.3769C35.4297 9.81695 35.5497 8.91695 34.9397 7.82695C34.1997 6.49695 32.5797 5.17695 29.0597 6.46695C27.5197 7.02695 26.0997 8.22695 25.0897 9.23695C24.2997 8.05695 23.1397 6.60695 21.7397 5.74695C18.5397 3.79695 16.6897 4.77695 15.7097 5.93695C14.8997 6.88695 14.8497 7.79695 14.9397 8.38695C15.0597 9.10695 15.4597 9.78695 16.1497 10.4269L8.57969 9.68695C8.48969 9.68695 8.39969 9.67695 8.29969 9.67695C6.87969 9.67695 5.66969 10.7569 5.52969 12.1969L5.00969 17.5369C4.95969 18.0469 5.32969 18.4969 5.83969 18.5369L35.5097 21.4469H5.59969C5.08969 21.4469 4.67969 21.8569 4.67969 22.3669V40.2169C4.67969 42.6869 6.67969 44.6869 9.14969 44.6869H38.8997C41.3697 44.6869 43.3697 42.6869 43.3697 40.2169V22.2169H43.3897L43.9997 15.9669H43.9897ZM7.67969 40.2169V24.4469H21.1397V41.6869H9.14969C8.33969 41.6869 7.67969 41.0269 7.67969 40.2169ZM40.3597 40.2169C40.3597 41.0269 39.6997 41.6869 38.8897 41.6869H26.8797V24.4469H40.3597V40.2169ZM40.9797 15.8769L40.6797 18.9369L27.2697 17.6169L27.5697 14.5569L40.9797 15.8769ZM30.0997 9.28695C30.8097 9.02695 31.2797 8.93695 31.6097 8.93695C32.1297 8.93695 32.2597 9.16695 32.3297 9.28695C32.3497 9.31695 32.3597 9.34695 32.3697 9.37695C32.2597 9.48695 31.9297 9.75695 31.0697 10.0669C30.3197 10.3469 29.2597 10.4469 28.2197 10.4669C28.8197 9.96695 29.4797 9.52695 30.1097 9.29695L30.0997 9.28695ZM18.0097 7.87695C18.1497 7.71695 18.5097 7.28695 20.1897 8.30695C20.7597 8.65695 21.3197 9.21695 21.8097 9.82695C20.7997 9.60695 19.7797 9.29695 19.0897 8.87695C18.3097 8.39695 18.0297 8.07695 17.9497 7.94695C17.9597 7.92695 17.9797 7.89695 18.0097 7.86695V7.87695ZM8.50969 12.6869L21.8497 13.9969L21.5497 17.0569L8.20969 15.7469L8.50969 12.6869Z" fill="#F53A3A"/>
</svg>
