<svg width="48" height="48" viewBox="0 0 48 48" fill="none" xmlns="http://www.w3.org/2000/svg">
<path fill-rule="evenodd" clip-rule="evenodd" d="M18 9C18 5.68629 20.6863 3 24 3C27.3137 3 30 5.68629 30 9V25.5C30 28.8137 27.3137 31.5 24 31.5C20.6863 31.5 18 28.8137 18 25.5V9ZM24 6C22.3431 6 21 7.34315 21 9V25.5C21 27.1569 22.3431 28.5 24 28.5C25.6569 28.5 27 27.1569 27 25.5V9C27 7.34315 25.6569 6 24 6Z" fill="#F53A3A"/>
<path d="M25.5 42H29.625V45H18.375V42H22.5V37.4074C16.576 36.6705 12 31.6254 12 25.5H15C15 30.4766 19.0234 34.5 24 34.5C28.9766 34.5 33 30.4766 33 25.5H36C36 31.6254 31.424 36.6705 25.5 37.4074V42Z" fill="#F53A3A"/>
<path d="M33 21V15H36V21H33Z" fill="#F53A3A"/>
<path d="M39 12V24H42V12H39Z" fill="#F53A3A"/>
<path d="M12 21V15H15V21H12Z" fill="#F53A3A"/>
<path d="M6 12V24H9V12H6Z" fill="#F53A3A"/>
</svg>
