<svg width="42" height="24" viewBox="0 0 42 24" fill="none" xmlns="http://www.w3.org/2000/svg">
<rect width="42" height="24" rx="6" fill="url(#paint0_linear_2834_592)"/>
<path d="M9.32699 16V8.6H11.777C13.297 8.6 14.457 9.04 14.457 10.42C14.457 11.1 14.077 11.8 13.447 12.02V12.07C14.247 12.26 14.837 12.82 14.837 13.82C14.837 15.31 13.597 16 11.967 16H9.32699ZM10.807 11.61H11.667C12.607 11.61 13.017 11.23 13.017 10.64C13.017 9.99 12.577 9.73 11.687 9.73H10.807V11.61ZM10.807 14.86H11.837C12.847 14.86 13.397 14.5 13.397 13.73C13.397 13.01 12.857 12.71 11.837 12.71H10.807V14.86ZM16.1336 16V8.6H20.6736V9.83H17.6136V11.54H20.2136V12.78H17.6136V14.76H20.7836V16H16.1336ZM23.756 16V9.83H21.676V8.6H27.336V9.83H25.236V16H23.756ZM29.4768 12.95H31.2368L31.0168 12.14C30.7868 11.37 30.5868 10.52 30.3668 9.72H30.3268C30.1368 10.53 29.9168 11.37 29.6968 12.14L29.4768 12.95ZM32.0768 16L31.5568 14.1H29.1568L28.6368 16H27.1368L29.5068 8.6H31.2468L33.6268 16H32.0768Z" fill="white"/>
<defs>
<linearGradient id="paint0_linear_2834_592" x1="0" y1="0" x2="42" y2="24" gradientUnits="userSpaceOnUse">
<stop stop-color="#0080A8"/>
<stop offset="1" stop-color="#00882F"/>
</linearGradient>
</defs>
</svg>
