<svg width="64" height="64" viewBox="0 0 64 64" fill="none" xmlns="http://www.w3.org/2000/svg">
<g clip-path="url(#clip0_2295_24513)">
<path d="M64 0H0V64H64V0Z" fill="white"/>
<path d="M5.48535 11.8861V18.2861H11.8854H18.2854V11.8861V5.48613H11.8854H5.48535V11.8861ZM16.4568 11.8861V16.4576H11.8854H7.31392V11.8861V7.3147H11.8854H16.4568V11.8861Z" fill="black"/>
<path d="M9.14258 11.886V14.6289H11.8854H14.6283V11.886V9.14319H11.8854H9.14258V11.886Z" fill="black"/>
<path d="M20.1143 6.40017V7.31445H21.0285H21.9428V6.40017V5.48588H21.0285H20.1143V6.40017Z" fill="black"/>
<path d="M23.771 7.31507V9.14364H22.8567H21.9424V10.9722V12.8008H22.8567H23.771V10.9722V9.14364H24.6852H25.5995V7.31507V5.4865H24.6852H23.771V7.31507Z" fill="black"/>
<path d="M31.085 6.40017V7.31445H31.9992H32.9135V6.40017V5.48588H31.9992H31.085V6.40017Z" fill="black"/>
<path d="M34.742 6.40042V7.3147H35.6563H36.5706V8.22899V9.14328H32.9134H29.2563V8.22899V7.3147H28.342H27.4277V8.22899V9.14328H28.342H29.2563V10.9718V12.8004H30.1706H31.0849V13.7147V14.629H31.9992H32.9134V13.7147V12.8004H31.9992H31.0849V11.8861V10.9718H33.8277H36.5706V11.8861V12.8004H35.6563H34.742V15.5433V18.2861H35.6563H36.5706V15.5433V12.8004H37.4849H38.3992V13.7147V14.629H41.142H43.8849V10.9718V7.3147H42.0563H40.2277V6.40042V5.48613H37.4849H34.742V6.40042ZM42.0563 10.0576V10.9718H41.142H40.2277V11.8861V12.8004H39.3134H38.3992V11.8861V10.9718H37.4849H36.5706V10.0576V9.14328H39.3134H42.0563V10.0576Z" fill="black"/>
<path d="M45.7139 11.8861V18.2861H52.1139H58.5139V11.8861V5.48613H52.1139H45.7139V11.8861ZM56.6853 11.8861V16.4576H52.1139H47.5424V11.8861V7.3147H52.1139H56.6853V11.8861Z" fill="black"/>
<path d="M49.3711 11.886V14.6289H52.114H54.8568V11.886V9.14319H52.114H49.3711V11.886Z" fill="black"/>
<path d="M25.5996 15.5432V16.4575H24.6854H23.7711V17.3718V18.2861H24.6854H25.5996V17.3718V16.4575H26.5139H27.4282V18.2861V20.1147H24.6854H21.9425V18.2861V16.4575H21.0282H20.1139V18.2861V20.1147H21.0282H21.9425V21.9432V23.7718H22.8568H23.7711V24.6861V25.6004H21.9425H20.1139V23.7718V21.9432H19.1996H18.2854V21.0289V20.1147H17.3711H16.4568V21.0289V21.9432H17.3711H18.2854V22.8575V23.7718H17.3711H16.4568V24.6861V25.6004H18.2854H20.1139V27.4289V29.2575H19.1996H18.2854V28.3432V27.4289H16.4568H14.6282V23.7718V20.1147H12.7996H10.9711V21.9432V23.7718H9.14249H7.31392V22.8575V21.9432H8.22821H9.14249V21.0289V20.1147H7.31392H5.48535V21.9432V23.7718H6.39964H7.31392V24.6861V25.6004H6.39964H5.48535V29.2575V32.9146H6.39964H7.31392V30.1718V27.4289H9.14249H10.9711V25.6004V23.7718H11.8854H12.7996V27.4289V31.0861H11.8854H10.9711V30.1718V29.2575H10.0568H9.14249V30.1718V31.0861H10.0568H10.9711V32.0004V32.9146H10.0568H9.14249V34.7432V36.5718H10.9711H12.7996V37.4861V38.4004H13.7139H14.6282V37.4861V36.5718H13.7139H12.7996V35.6575V34.7432H11.8854H10.9711V33.8289V32.9146H12.7996H14.6282V32.0004V31.0861H15.5425H16.4568V32.0004V32.9146H17.3711H18.2854V33.8289V34.7432H17.3711H16.4568V35.6575V36.5718H18.2854H20.1139V37.4861V38.4004H21.0282H21.9425V39.3146V40.2289H21.0282H20.1139V41.1432V42.0575H18.2854H16.4568V42.9718V43.8861H18.2854H20.1139V44.8004V45.7146H21.0282H21.9425V44.8004V43.8861H22.8568H23.7711V42.9718V42.0575H22.8568H21.9425V41.1432V40.2289H22.8568H23.7711V39.3146V38.4004H24.6854H25.5996V42.0575V45.7146H24.6854H23.7711V47.5432V49.3718H25.5996H27.4282V50.2861V51.2004H25.5996H23.7711V52.1146V53.0289H22.8568H21.9425V51.2004V49.3718H21.0282H20.1139V51.2004V53.0289H21.0282H21.9425V53.9432V54.8575H21.0282H20.1139V56.6861V58.5146H25.5996H31.0854V57.6004V56.6861H31.9996H32.9139V55.7718V54.8575H33.8282H34.7425V55.7718V56.6861H35.6568H36.5711V55.7718V54.8575H35.6568H34.7425V53.9432V53.0289H37.4853H40.2282V53.9432V54.8575H39.3139H38.3996V55.7718V56.6861H39.3139H40.2282V57.6004V58.5146H42.0568H43.8853V57.6004V56.6861H42.0568H40.2282V55.7718V54.8575H42.9711H45.7139V55.7718V56.6861H50.2853H54.8568V55.7718V54.8575H55.7711H56.6853V55.7718V56.6861H57.5996H58.5139V52.1146V47.5432H57.5996H56.6853V49.3718V51.2004H55.7711H54.8568V52.1146V53.0289H53.9425H53.0282V53.9432V54.8575H52.1139H51.1996V53.9432V53.0289H50.2853H49.3711V52.1146V51.2004H51.1996H53.0282V50.2861V49.3718H52.1139H51.1996V48.4575V47.5432H52.1139H53.0282V45.7146V43.8861H54.8568H56.6853V42.9718V42.0575H55.7711H54.8568V41.1432V40.2289H53.9425H53.0282V39.3146V38.4004H54.8568H56.6853V39.3146V40.2289H57.5996H58.5139V39.3146V38.4004H57.5996H56.6853V37.4861V36.5718H54.8568H53.0282V35.6575V34.7432H53.9425H54.8568V32.9146V31.0861H55.7711H56.6853V32.9146V34.7432H57.5996H58.5139V30.1718V25.6004H57.5996H56.6853V27.4289V29.2575H53.0282H49.3711V27.4289V25.6004H50.2853H51.1996V26.5147V27.4289H52.1139H53.0282V26.5147V25.6004H53.9425H54.8568V24.6861V23.7718H55.7711H56.6853V22.8575V21.9432H57.5996H58.5139V21.0289V20.1147H57.5996H56.6853V21.0289V21.9432H54.8568H53.0282V23.7718V25.6004H52.1139H51.1996V23.7718V21.9432H49.3711H47.5425V21.0289V20.1147H46.6282H45.7139V21.0289V21.9432H46.6282H47.5425V22.8575V23.7718H48.4568H49.3711V24.6861V25.6004H48.4568H47.5425V26.5147V27.4289H46.6282H45.7139V25.6004V23.7718H44.7996H43.8853V24.6861V25.6004H42.9711H42.0568V26.5147V27.4289H41.1425H40.2282V26.5147V25.6004H38.3996H36.5711V24.6861V23.7718H39.3139H42.0568V22.8575V21.9432H41.1425H40.2282V21.0289V20.1147H38.3996H36.5711V21.9432V23.7718H35.6568H34.7425V21.9432V20.1147H32.9139H31.0854V19.2004V18.2861H31.9996H32.9139V17.3718V16.4575H31.9996H31.0854V17.3718V18.2861H30.1711H29.2568V16.4575V14.6289H27.4282H25.5996V15.5432ZM31.0854 21.0289V21.9432H31.9996H32.9139V22.8575V23.7718H31.9996H31.0854V24.6861V25.6004H32.9139H34.7425V26.5147V27.4289H33.8282H32.9139V30.1718V32.9146H31.9996H31.0854V33.8289V34.7432H32.9139H34.7425V32.9146V31.0861H35.6568H36.5711V32.0004V32.9146H37.4853H38.3996V33.8289V34.7432H39.3139H40.2282V33.8289V32.9146H41.1425H42.0568V32.0004V31.0861H41.1425H40.2282V30.1718V29.2575H38.3996H36.5711V28.3432V27.4289H38.3996H40.2282V28.3432V29.2575H42.9711H45.7139V30.1718V31.0861H46.6282H47.5425V32.0004V32.9146H48.4568H49.3711V32.0004V31.0861H51.1996H53.0282V32.9146V34.7432H52.1139H51.1996V35.6575V36.5718H52.1139H53.0282V37.4861V38.4004H52.1139H51.1996V37.4861V36.5718H50.2853H49.3711V38.4004V40.2289H48.4568H47.5425V39.3146V38.4004H46.6282H45.7139V37.4861V36.5718H42.9711H40.2282V37.4861V38.4004H39.3139H38.3996V37.4861V36.5718H33.8282H29.2568V37.4861V38.4004H31.0854H32.9139V40.2289V42.0575H33.8282H34.7425V40.2289V38.4004H35.6568H36.5711V39.3146V40.2289H37.4853H38.3996V41.1432V42.0575H36.5711H34.7425V42.9718V43.8861H35.6568H36.5711V44.8004V45.7146H38.3996H40.2282V48.4575V51.2004H42.0568H43.8853V52.1146V53.0289H42.0568H40.2282V52.1146V51.2004H38.3996H36.5711V50.2861V49.3718H35.6568H34.7425V50.2861V51.2004H32.9139H31.0854V53.9432V56.6861H29.2568H27.4282V55.7718V54.8575H26.5139H25.5996V53.9432V53.0289H26.5139H27.4282V52.1146V51.2004H28.3425H29.2568V50.2861V49.3718H28.3425H27.4282V48.4575V47.5432H28.3425H29.2568V46.6289V45.7146H28.3425H27.4282V44.8004V43.8861H28.3425H29.2568V42.9718V42.0575H28.3425H27.4282V40.2289V38.4004H26.5139H25.5996V37.4861V36.5718H24.6854H23.7711V37.4861V38.4004H22.8568H21.9425V37.4861V36.5718H22.8568H23.7711V35.6575V34.7432H24.6854H25.5996V35.6575V36.5718H26.5139H27.4282V34.7432V32.9146H25.5996H23.7711V32.0004V31.0861H22.8568H21.9425V32.0004V32.9146H20.1139H18.2854V32.0004V31.0861H17.3711H16.4568V30.1718V29.2575H17.3711H18.2854V30.1718V31.0861H19.1996H20.1139V30.1718V29.2575H21.9425H23.7711V28.3432V27.4289H24.6854H25.5996V26.5147V25.6004H27.4282H29.2568V24.6861V23.7718H28.3425H27.4282V22.8575V21.9432H28.3425H29.2568V21.0289V20.1147H30.1711H31.0854V21.0289ZM43.8853 39.3146V40.2289H44.7996H45.7139V41.1432V42.0575H43.8853H42.0568V40.2289V38.4004H42.9711H43.8853V39.3146ZM49.3711 46.6289V49.3718H46.6282H43.8853V46.6289V43.8861H46.6282H49.3711V46.6289ZM47.5425 53.0289V54.8575H46.6282H45.7139V53.0289V51.2004H46.6282H47.5425V53.0289Z" fill="black"/>
<path d="M27.4282 28.3436V29.2579H26.5139H25.5996V30.1722V31.0865H27.4282H29.2568V32.0008V32.915H30.171H31.0853V31.0865V29.2579H30.171H29.2568V28.3436V27.4293H28.3425H27.4282V28.3436Z" fill="black"/>
<path d="M49.3711 33.8289V34.7432H50.2854H51.1997V33.8289V32.9146H50.2854H49.3711V33.8289Z" fill="black"/>
<path d="M29.2568 41.1435V42.0578H30.1711H31.0854V42.9721V43.8864H30.1711H29.2568V44.8006V45.7149H30.1711H31.0854V47.5435V49.3721H32.914H34.7425V46.6292V43.8864H33.8283H32.914V42.9721V42.0578H31.9997H31.0854V41.1435V40.2292H30.1711H29.2568V41.1435Z" fill="black"/>
<path d="M36.5713 48.4578V49.3721H37.4856H38.3999V48.4578V47.5435H37.4856H36.5713V48.4578Z" fill="black"/>
<path d="M27.4277 53.9431V54.8574H28.342H29.2563V53.9431V53.0289H28.342H27.4277V53.9431Z" fill="black"/>
<path d="M45.7139 46.6287V47.543H46.6282H47.5424V46.6287V45.7144H46.6282H45.7139V46.6287Z" fill="black"/>
<path d="M38.3994 17.3718V18.2861H39.3137H40.228V17.3718V16.4576H39.3137H38.3994V17.3718Z" fill="black"/>
<path d="M42.0566 17.3718V18.2861H42.9709H43.8852V17.3718V16.4576H42.9709H42.0566V17.3718Z" fill="black"/>
<path d="M5.48535 40.2286V43.8857H7.31392H9.14249V42.9715V42.0572H10.0568H10.9711V42.9715V43.8857H12.7996H14.6282V42.0572V40.2286H13.7139H12.7996V41.1429V42.0572H11.8854H10.9711V41.1429V40.2286H10.0568H9.14249V39.3143V38.4H8.22821H7.31392V37.4857V36.5715H6.39964H5.48535V40.2286Z" fill="black"/>
<path d="M16.457 39.3142V40.2285H17.3713H18.2856V39.3142V38.3999H17.3713H16.457V39.3142Z" fill="black"/>
<path d="M5.48535 52.1146V58.5146H11.8854H18.2854V52.1146V45.7146H11.8854H5.48535V52.1146ZM16.4568 52.1146V56.6861H11.8854H7.31392V52.1146V47.5432H11.8854H16.4568V52.1146Z" fill="black"/>
<path d="M9.14258 52.1146V54.8574H11.8854H14.6283V52.1146V49.3717H11.8854H9.14258V52.1146Z" fill="black"/>
</g>
<defs>
<clipPath id="clip0_2295_24513">
<rect width="64" height="64" fill="white"/>
</clipPath>
</defs>
</svg>
