<svg width="48" height="49" viewBox="0 0 48 49" fill="none" xmlns="http://www.w3.org/2000/svg">
<path d="M42.3102 13.1371L24.7602 2.89708C24.2902 2.62708 23.7202 2.62708 23.2502 2.89708L5.6902 13.1371C5.2302 13.4071 4.9502 13.8971 4.9502 14.4371V34.9171C4.9502 35.4471 5.2302 35.9471 5.6902 36.2171L23.2402 46.4571C23.4702 46.5971 23.7402 46.6571 24.0002 46.6571C24.2602 46.6571 24.5202 46.5871 24.7602 46.4571L42.3102 36.2171C42.7702 35.9471 43.0502 35.4571 43.0502 34.9171V14.4271C43.0502 13.8971 42.7702 13.3971 42.3102 13.1271V13.1371ZM40.0502 34.0471L24.0002 43.4071L7.9502 34.0471V15.2871L24.0002 5.92708L40.0502 15.2871V34.0471Z" fill="#F53A3A"/>
<path d="M23.0102 19.1771V25.6971C22.8402 25.6771 22.6702 25.6471 22.5002 25.6471C20.5702 25.6471 19.0002 27.2171 19.0002 29.1471C19.0002 31.0771 20.5702 32.6471 22.5002 32.6471C24.4302 32.6471 26.0002 31.0771 26.0002 29.1471C26.0002 29.1371 26.0002 29.1271 26.0002 29.1171V20.6771H28.0002V17.6771H24.5102C23.6802 17.6771 23.0102 18.3471 23.0102 19.1771Z" fill="#F53A3A"/>
<path d="M23.2402 9.88708L11.6802 16.6271C11.2202 16.8971 10.9402 17.3871 10.9402 17.9271V31.4171C10.9402 31.9471 11.2202 32.4471 11.6802 32.7171L23.2402 39.4571C23.4702 39.5971 23.7402 39.6571 24.0002 39.6571C24.2602 39.6571 24.5202 39.5871 24.7602 39.4571L36.3202 32.7171C36.7802 32.4471 37.0602 31.9571 37.0602 31.4171V17.9271C37.0602 17.3971 36.7802 16.8971 36.3202 16.6271L24.7602 9.88708C24.2902 9.61708 23.7202 9.61708 23.2502 9.88708H23.2402ZM34.0602 18.7871V30.5571L24.0002 36.4271L13.9402 30.5571V18.7871L24.0002 12.9171L34.0602 18.7871Z" fill="#F53A3A"/>
</svg>
