<svg width="49" height="48" viewBox="0 0 49 48" fill="none" xmlns="http://www.w3.org/2000/svg">
<path fill-rule="evenodd" clip-rule="evenodd" d="M12.9326 6.53914C16.3861 4.23163 20.4462 3 24.5996 3C30.1692 3 35.5106 5.21249 39.4489 9.15076C43.3871 13.089 45.5996 18.4305 45.5996 24C45.5996 28.1534 44.368 32.2135 42.0605 35.667C39.753 39.1204 36.4732 41.812 32.636 43.4015C28.7987 44.9909 24.5763 45.4068 20.5027 44.5965C16.4291 43.7862 12.6873 41.7861 9.75038 38.8492C6.81347 35.9123 4.81342 32.1705 4.00313 28.0969C3.19284 24.0233 3.60871 19.8009 5.19815 15.9636C6.78759 12.1264 9.47921 8.84665 12.9326 6.53914ZM14.5994 38.9665C17.5594 40.9443 21.0396 42 24.5996 42C29.3735 42 33.9519 40.1036 37.3275 36.7279C40.7032 33.3523 42.5996 28.7739 42.5996 24C42.5996 20.4399 41.5439 16.9598 39.5661 13.9997C37.5882 11.0397 34.777 8.73255 31.4879 7.37017C28.1989 6.00779 24.5797 5.65133 21.088 6.34586C17.5963 7.0404 14.389 8.75473 11.8717 11.2721C9.35435 13.7894 7.64002 16.9967 6.94548 20.4884C6.25095 23.98 6.60741 27.5992 7.96979 30.8883C9.33216 34.1774 11.6393 36.9886 14.5994 38.9665ZM19.7697 15.42V33.135H23.5197V27.435H25.7697C27.047 27.465 28.3158 27.2194 29.4897 26.715C30.498 26.2871 31.3586 25.5725 31.9647 24.66C32.5685 23.6953 32.8714 22.5726 32.8347 21.435C32.871 20.2881 32.5684 19.1559 31.9647 18.18C31.3634 17.2632 30.5013 16.5475 29.4897 16.125C28.3124 15.6332 27.0452 15.3931 25.7697 15.42H19.7697ZM23.5197 18.675H25.5297C26.4073 18.6386 27.2753 18.8687 28.0197 19.335C28.3427 19.5758 28.599 19.8951 28.7644 20.2625C28.9297 20.63 28.9986 21.0335 28.9647 21.435C28.9992 21.8323 28.9303 22.2317 28.7647 22.5944C28.5991 22.9572 28.3424 23.2709 28.0197 23.505C27.2737 23.9661 26.4057 24.1909 25.5297 24.15H23.5197V18.675Z" fill="white"/>
</svg>
