<svg width="25" height="24" viewBox="0 0 25 24" fill="none" xmlns="http://www.w3.org/2000/svg">
<path fill-rule="evenodd" clip-rule="evenodd" d="M3.5 9.75C3.5 13.4715 6.52775 16.5 10.25 16.5C13.9715 16.5 17 13.4715 17 9.75C17 6.02775 13.9715 3 10.25 3C6.52775 3 3.5 6.02775 3.5 9.75ZM2 9.75C2 5.19375 5.69375 1.5 10.25 1.5C14.8062 1.5 18.5 5.19375 18.5 9.75C18.5 14.3062 14.8062 18 10.25 18C5.69375 18 2 14.3062 2 9.75ZM16.5854 17.1459C16.9657 16.8197 17.3197 16.4657 17.6459 16.0854L23.0002 21.4389L21.9397 22.5002L16.5854 17.1459Z" fill="white"/>
</svg>
