<svg width="77" height="40" viewBox="0 0 77 40" fill="none" xmlns="http://www.w3.org/2000/svg">
<path d="M1.67149 28.6909C2.34009 27.7995 3.34298 27.3538 4.51302 27.3538C5.7945 27.3538 6.7974 28.1338 7.29884 29.4151C8.13459 28.0223 9.30463 27.3538 10.7533 27.3538C12.9819 27.3538 14.3748 29.1923 14.3748 32.0335V39.6658H12.6476V31.9778C12.6476 30.0836 11.8119 28.9137 10.4747 28.9137C9.08177 28.9137 8.02315 30.2508 8.02315 31.9778V39.6101H6.29595V31.9778C6.29595 30.1393 5.4602 28.9137 4.12301 28.9137C2.84153 28.9137 1.67149 30.3622 1.67149 31.9778V39.6101H0V27.6324H1.44863L1.67149 28.6909Z" fill="#BF0000"/>
<path d="M23.5677 38.4401C22.7319 39.3872 21.5619 39.9443 20.2804 39.9443C17.7174 39.9443 15.9902 37.9944 15.9902 35.0975V27.6323H17.7174V35.0975C17.7174 37.0474 18.8318 38.273 20.559 38.273C22.1748 38.273 23.6234 36.7688 23.6234 35.1532V27.6323H25.3506V39.6657H23.8462L23.5677 38.4401Z" fill="#BF0000"/>
<path d="M33.0944 30.1393C32.4816 29.4151 31.5902 28.9694 30.6988 28.9694C29.5289 28.9694 28.6933 29.6379 28.6933 30.6407C28.6933 31.2535 28.9161 31.6992 29.3618 32.0335C29.5846 32.2006 29.5846 32.2006 31.5902 33.0363C33.93 34.039 34.8214 35.0975 34.8214 36.6574C34.8214 38.663 33.2058 39.9443 30.6988 39.9443C28.8604 39.9443 27.4676 39.2758 26.4648 37.9945L27.6905 36.8803C28.6375 37.8831 29.5289 38.3287 30.7545 38.3287C32.1473 38.3287 33.0387 37.7159 33.0387 36.6574C33.0387 36.1003 32.7044 35.4875 32.0359 34.9861C31.5902 34.6519 31.0888 34.3733 29.5289 33.7605C27.6348 32.9805 26.8548 32.0335 26.8548 30.4736C26.8548 28.5237 28.359 27.2981 30.6431 27.2981C32.1473 27.2981 33.2615 27.7438 34.32 28.8023L33.0944 30.1393Z" fill="#BF0000"/>
<path d="M35.9932 26.1281V24.1226H37.9987V26.1281H35.9932ZM36.1603 39.6657V27.6323H37.8873V39.6657H36.1603Z" fill="#BF0000"/>
<path d="M47.1354 30.4736C46.5782 29.5265 45.5754 28.9694 44.461 28.9694C42.4552 28.9694 40.9509 30.975 40.9509 33.6491C40.9509 36.3789 42.4552 38.3845 44.461 38.3845C45.5754 38.3845 46.5782 37.7717 47.1911 36.7689L48.5283 37.9945C47.6369 39.2758 46.1325 40.0001 44.461 40.0001C41.2852 40.0001 39.168 37.4374 39.168 33.7048C39.168 29.9722 41.3409 27.4095 44.461 27.4095C46.1882 27.4095 47.6369 28.1338 48.5283 29.4151L47.1354 30.4736Z" fill="#BF0000"/>
<path d="M62.0125 19.2201H15.3779L19.1109 22.897L62.0125 19.2201Z" fill="#BF0000"/>
<path d="M19.7238 4.17826V4.73536C18.8323 4.17826 18.108 3.84399 16.9937 3.84399C13.7064 3.84399 11.2549 6.79664 11.2549 10.4735C11.2549 14.1504 13.7621 17.103 16.9937 17.103C18.0523 17.103 18.8323 16.7688 19.7238 16.2117V16.7688H22.5653V4.17826H19.7238ZM16.9937 14.0947C15.3779 14.0947 14.2078 12.5348 14.2078 10.5292C14.2078 8.52366 15.3779 6.96377 16.9937 6.96377C18.6094 6.96377 19.7238 8.52366 19.7238 10.5292C19.7795 12.5348 18.6094 14.0947 16.9937 14.0947Z" fill="#BF0000"/>
<path d="M42.6789 4.17822V11.5877C42.6789 12.9805 41.7318 14.1504 40.3388 14.1504C38.9459 14.1504 37.9988 12.9805 37.9988 11.5877V4.17822H35.1572V11.5877C35.1572 14.6518 37.2187 17.103 40.2831 17.103C41.676 17.103 42.7346 16.3231 42.7346 16.3231V16.7688H45.6319V4.17822H42.6789Z" fill="#BF0000"/>
<path d="M69.4226 16.8246V9.4151C69.4226 8.02234 70.3698 6.85243 71.7627 6.85243C73.1556 6.85243 74.1028 8.02234 74.1028 9.4151V16.8246H77.0001V9.4151C77.0001 6.35103 74.9386 3.89978 71.8742 3.89978C70.4813 3.89978 69.4226 4.67972 69.4226 4.67972V4.17833H66.5254V16.8246H69.4226Z" fill="#BF0000"/>
<path d="M3.00868 16.7688V11.922H5.1259L8.80318 16.8245H12.5362L8.07887 10.9192C9.47178 9.91646 10.3632 8.30086 10.3632 6.46242C10.3632 3.45406 7.91172 1.00281 4.90304 1.00281H0V16.7688H3.00868ZM3.00868 4.06687H4.95876C6.29595 4.06687 7.41027 5.18108 7.41027 6.51813C7.41027 7.85518 6.29595 8.96938 4.95876 8.96938H3.00868V4.06687Z" fill="#BF0000"/>
<path d="M53.32 13.8719C53.0414 14.039 52.7629 14.2062 52.3729 14.2062C51.9272 14.2062 51.0359 13.8719 51.0359 12.6463V7.24236H53.4871V4.17829H51.0359V1.00281H48.1389V4.17829H46.6348V7.18665H48.1389V12.6463C48.1389 15.4875 50.2559 17.1588 52.4286 17.1588C53.2086 17.1588 54.3228 16.8802 55.2142 16.3789L53.32 13.8719Z" fill="#BF0000"/>
<path d="M29.6965 10.1393L34.6553 4.17827H30.6437L27.1893 8.57939V0H24.2363V16.8245H27.1893V11.6435L31.4237 16.8245H35.4353L29.6965 10.1393Z" fill="#BF0000"/>
<path d="M59.9506 3.89978C56.6077 3.89978 54.2676 6.79672 54.2676 10.5293C54.2676 14.429 57.2763 17.1588 60.2292 17.1588C61.7336 17.1588 63.6836 16.6574 65.2994 14.3176L62.7922 12.8691C60.8421 15.7661 57.5548 14.3176 57.1648 11.4207H65.4108C66.1352 6.85243 63.1822 3.89978 59.9506 3.89978ZM62.4579 8.858H57.2763C57.8891 5.90535 61.9007 5.73822 62.4579 8.858Z" fill="#BF0000"/>
</svg>
