<svg width="138" height="24" viewBox="0 0 138 24" fill="none" xmlns="http://www.w3.org/2000/svg">
<path d="M88.1195 6.19003C88.819 5.25573 89.8683 4.78857 91.0924 4.78857C92.4331 4.78857 93.4824 5.60609 94.007 6.94916C94.8814 5.4893 96.1055 4.78857 97.6211 4.78857C99.9527 4.78857 101.41 6.71558 101.41 9.69369V17.6937H99.603V9.63529C99.603 7.64989 98.7286 6.42361 97.3296 6.42361C95.8723 6.42361 94.7648 7.82507 94.7648 9.63529V17.6353H92.9577V9.63529C92.9577 7.70828 92.0834 6.42361 90.6844 6.42361C89.3437 6.42361 88.1195 7.94186 88.1195 9.63529V17.6353H86.3125V5.08054H87.8281L88.1195 6.19003Z" fill="white"/>
<path d="M111.028 16.4085C110.154 17.4012 108.93 17.9852 107.589 17.9852C104.908 17.9852 103.101 15.9414 103.101 12.9049V5.08008H104.908V12.9049C104.908 14.9487 106.073 16.2334 107.88 16.2334C109.571 16.2334 111.087 14.6567 111.087 12.9633V5.08008H112.894V17.6932H111.32L111.028 16.4085Z" fill="white"/>
<path d="M121.055 7.64949C120.414 6.89037 119.481 6.42321 118.548 6.42321C117.324 6.42321 116.45 7.12394 116.45 8.17504C116.45 8.81737 116.683 9.28453 117.149 9.63489C117.382 9.81007 117.382 9.81007 119.481 10.686C121.929 11.7371 122.862 12.8466 122.862 14.4816C122.862 16.5838 121.171 17.9269 118.548 17.9269C116.625 17.9269 115.167 17.2261 114.118 15.8831L115.401 14.7152C116.392 15.7663 117.324 16.2334 118.607 16.2334C120.064 16.2334 120.997 15.5911 120.997 14.4816C120.997 13.8977 120.647 13.2553 119.947 12.7298C119.481 12.3794 118.956 12.0874 117.324 11.4451C115.342 10.6276 114.526 9.63489 114.526 7.99985C114.526 5.95606 116.1 4.67139 118.49 4.67139C120.064 4.67139 121.23 5.13854 122.337 6.24803L121.055 7.64949Z" fill="white"/>
<path d="M124.086 3.50356V1.40137H126.184V3.50356H124.086ZM124.203 17.6933V5.0802H126.01V17.6933H124.203Z" fill="white"/>
<path d="M135.685 8.05836C135.102 7.06566 134.053 6.48172 132.887 6.48172C130.789 6.48172 129.215 8.58391 129.215 11.3868C129.215 14.2481 130.789 16.3503 132.887 16.3503C134.053 16.3503 135.102 15.708 135.744 14.6569L137.143 15.9416C136.21 17.2846 134.636 18.0438 132.887 18.0438C129.565 18.0438 127.35 15.3576 127.35 11.4452C127.35 7.53281 129.623 4.84668 132.887 4.84668C134.694 4.84668 136.21 5.6058 137.143 6.94887L135.685 8.05836Z" fill="white"/>
<path d="M65.7363 20.146H16.9463L20.8518 24L65.7363 20.146Z" fill="white"/>
<path d="M21.4931 4.37966V4.9636C20.5605 4.37966 19.8027 4.0293 18.6368 4.0293C15.1976 4.0293 12.6328 7.12419 12.6328 10.9782C12.6328 14.8322 15.2559 17.9271 18.6368 17.9271C19.7444 17.9271 20.5605 17.5767 21.4931 16.9928V17.5767H24.466V4.37966H21.4931ZM18.6368 14.7738C16.9464 14.7738 15.7223 13.1388 15.7223 11.0366C15.7223 8.93441 16.9464 7.29937 18.6368 7.29937C20.3273 7.29937 21.4931 8.93441 21.4931 11.0366C21.5514 13.1388 20.3273 14.7738 18.6368 14.7738Z" fill="white"/>
<path d="M45.5087 4.37939V12.1458C45.5087 13.6057 44.5178 14.8319 43.0605 14.8319C41.6032 14.8319 40.6122 13.6057 40.6122 12.1458V4.37939H37.5811V12.1458C37.5811 15.3575 39.7378 17.9268 42.9439 17.9268C44.4012 17.9268 45.5087 17.1093 45.5087 17.1093V17.5765H48.5399V4.37939H45.5087Z" fill="white"/>
<path d="M73.4882 17.6349V9.86842C73.4882 8.40857 74.4791 7.18229 75.9364 7.18229C77.3937 7.18229 78.3847 8.40857 78.3847 9.86842V17.6349H81.4158V9.86842C81.4158 6.65675 79.2591 4.0874 76.053 4.0874C74.5957 4.0874 73.4882 4.90492 73.4882 4.90492V4.37937H70.457V17.6349H73.4882Z" fill="white"/>
<path d="M4.00517 17.5768V12.4965H6.22025L10.0675 17.6352H13.973L9.3097 11.4454C10.767 10.3943 11.6997 8.7009 11.6997 6.7739C11.6997 3.62061 9.13483 1.05127 5.98708 1.05127H0.857422V17.5768H4.00517ZM4.00517 4.26295H6.04537C7.44437 4.26295 8.6102 5.43083 8.6102 6.83229C8.6102 8.23375 7.44437 9.40164 6.04537 9.40164H4.00517V4.26295Z" fill="white"/>
<path d="M56.6424 14.5403C56.351 14.7155 56.0595 14.8907 55.6515 14.8907C55.1852 14.8907 54.2525 14.5403 54.2525 13.2557V7.59142H56.8173V4.37974H54.2525V1.05127H51.2213V4.37974H49.6475V7.53302H51.2213V13.2557C51.2213 16.2338 53.4364 17.9856 55.7098 17.9856C56.5259 17.9856 57.6917 17.6936 58.6244 17.1681L56.6424 14.5403Z" fill="white"/>
<path d="M31.9274 10.6277L37.1154 4.37956H32.9184L29.3043 8.9927V0H26.2148V17.635H29.3043V12.2044L33.7345 17.635H37.9314L31.9274 10.6277Z" fill="white"/>
<path d="M63.5786 4.0874C60.0811 4.0874 57.6328 7.1239 57.6328 11.0363C57.6328 15.1239 60.7806 17.9852 63.87 17.9852C65.4439 17.9852 67.4841 17.4597 69.1745 15.0071L66.5514 13.4889C64.5112 16.5254 61.072 15.0071 60.664 11.9706H69.2911C70.0489 7.18229 66.9595 4.0874 63.5786 4.0874ZM66.2017 9.28448H60.7806C61.4218 6.18959 65.6188 6.01441 66.2017 9.28448Z" fill="white"/>
</svg>
