<?xml version="1.0" standalone="no"?>
<!DOCTYPE svg PUBLIC "-//W3C//DTD SVG 20010904//EN"
 "http://www.w3.org/TR/2001/REC-SVG-20010904/DTD/svg10.dtd">
<svg version="1.0" xmlns="http://www.w3.org/2000/svg"
 width="310.000000pt" height="310.000000pt" viewBox="0 0 310.000000 310.000000"
 preserveAspectRatio="xMidYMid meet">
<metadata>
Created by potrace 1.16, written by Peter Selinger 2001-2019
</metadata><g><rect x="0" y="0" width="310" height="310" fill="#ffffff" />
<g transform="translate(0.000000,310.000000) scale(0.050000,-0.050000)"
fill="#000000" stroke="none">
<path d="M600 4900 l0 -700 700 0 700 0 0 700 0 700 -700 0 -700 0 0 -700z
m1200 0 l0 -500 -500 0 -500 0 0 500 0 500 500 0 500 0 0 -500z"/>
<path d="M1000 4900 l0 -300 300 0 300 0 0 300 0 300 -300 0 -300 0 0 -300z"/>
<path d="M2800 5500 l0 -100 -100 0 -100 0 0 -100 0 -100 200 0 200 0 0 100 0
100 100 0 100 0 0 100 0 100 -200 0 -200 0 0 -100z"/>
<path d="M3600 5500 l0 -100 -100 0 -100 0 0 -100 0 -100 100 0 100 0 0 -200
0 -200 -100 0 -100 0 0 -100 0 -100 100 0 100 0 0 -100 0 -100 -100 0 -100 0
0 -100 0 -100 100 0 100 0 0 -100 0 -100 -200 0 -200 0 0 300 0 300 -100 0
-100 0 0 200 0 200 -200 0 -200 0 0 -100 0 -100 100 0 100 0 0 -100 0 -100
-200 0 -200 0 0 100 0 100 -100 0 -100 0 0 -400 0 -400 -200 0 -200 0 0 -100
0 -100 200 0 200 0 0 100 0 100 200 0 200 0 0 -100 0 -100 200 0 200 0 0 -100
0 -100 200 0 200 0 0 -100 0 -100 -200 0 -200 0 0 -100 0 -100 100 0 100 0 0
-100 0 -100 -100 0 -100 0 0 -100 0 -100 -100 0 -100 0 0 100 0 100 -100 0
-100 0 0 -100 0 -100 -100 0 -100 0 0 200 0 200 -100 0 -100 0 0 100 0 100
300 0 300 0 0 100 0 100 -500 0 -500 0 0 -100 0 -100 100 0 100 0 0 -100 0
-100 -300 0 -300 0 0 100 0 100 -100 0 -100 0 0 200 0 200 100 0 100 0 0 100
0 100 -100 0 -100 0 0 -100 0 -100 -100 0 -100 0 0 100 0 100 -200 0 -200 0 0
-100 0 -100 200 0 200 0 0 -100 0 -100 -200 0 -200 0 0 -100 0 -100 100 0 100
0 0 -100 0 -100 -100 0 -100 0 0 -100 0 -100 200 0 200 0 0 -200 0 -200 -100
0 -100 0 0 100 0 100 -100 0 -100 0 0 -100 0 -100 100 0 100 0 0 -100 0 -100
-100 0 -100 0 0 -100 0 -100 300 0 300 0 0 100 0 100 -100 0 -100 0 0 100 0
100 100 0 100 0 0 200 0 200 -100 0 -100 0 0 100 0 100 200 0 200 0 0 -100 0
-100 100 0 100 0 0 -100 0 -100 -100 0 -100 0 0 -100 0 -100 100 0 100 0 0
100 0 100 100 0 100 0 0 -100 0 -100 100 0 100 0 0 -100 0 -100 -100 0 -100 0
0 -100 0 -100 200 0 200 0 0 -200 0 -200 300 0 300 0 0 -200 0 -200 -100 0
-100 0 0 100 0 100 -100 0 -100 0 0 -100 0 -100 -100 0 -100 0 0 -100 0 -100
300 0 300 0 0 100 0 100 100 0 100 0 0 -100 0 -100 100 0 100 0 0 100 0 100
100 0 100 0 0 100 0 100 100 0 100 0 0 100 0 100 100 0 100 0 0 -200 0 -200
100 0 100 0 0 -100 0 -100 100 0 100 0 0 100 0 100 100 0 100 0 0 -200 0 -200
-400 0 -400 0 0 -100 0 -100 -100 0 -100 0 0 100 0 100 -100 0 -100 0 0 -200
0 -200 400 0 400 0 0 100 0 100 200 0 200 0 0 -100 0 -100 100 0 100 0 0 100
0 100 -100 0 -100 0 0 100 0 100 200 0 200 0 0 -100 0 -100 100 0 100 0 0 100
0 100 100 0 100 0 0 200 0 200 -100 0 -100 0 0 100 0 100 100 0 100 0 0 100 0
100 100 0 100 0 0 -100 0 -100 100 0 100 0 0 300 0 300 -100 0 -100 0 0 -100
0 -100 -100 0 -100 0 0 -100 0 -100 -100 0 -100 0 0 200 0 200 100 0 100 0 0
100 0 100 100 0 100 0 0 100 0 100 100 0 100 0 0 300 0 300 -200 0 -200 0 0
-100 0 -100 -100 0 -100 0 0 100 0 100 -100 0 -100 0 0 200 0 200 -100 0 -100
0 0 -100 0 -100 -100 0 -100 0 0 200 0 200 200 0 200 0 0 100 0 100 -300 0
-300 0 0 -300 0 -300 100 0 100 0 0 -100 0 -100 -400 0 -400 0 0 -100 0 -100
300 0 300 0 0 -100 0 -100 -200 0 -200 0 0 -100 0 -100 -100 0 -100 0 0 100 0
100 -100 0 -100 0 0 300 0 300 100 0 100 0 0 100 0 100 -100 0 -100 0 0 100 0
100 100 0 100 0 0 100 0 100 100 0 100 0 0 100 0 100 100 0 100 0 0 500 0 500
-100 0 -100 0 0 200 0 200 -100 0 -100 0 0 -100z m-600 -1100 l0 -200 -100 0
-100 0 0 200 0 200 100 0 100 0 0 -200z m-400 -100 l0 -100 -100 0 -100 0 0
100 0 100 100 0 100 0 0 -100z m1200 0 l0 -100 -100 0 -100 0 0 100 0 100 100
0 100 0 0 -100z m-600 -400 l0 -100 -100 0 -100 0 0 100 0 100 100 0 100 0 0
-100z m1600 -900 l0 -200 100 0 100 0 0 -100 0 -100 100 0 100 0 0 200 0 200
100 0 100 0 0 -200 0 -200 -100 0 -100 0 0 -100 0 -100 -200 0 -200 0 0 200 0
200 -100 0 -100 0 0 100 0 100 -100 0 -100 0 0 100 0 100 200 0 200 0 0 -200z
m-2800 -100 l0 -100 100 0 100 0 0 -100 0 -100 -100 0 -100 0 0 100 0 100
-100 0 -100 0 0 100 0 100 100 0 100 0 0 -100z m1200 -200 l0 -100 -100 0
-100 0 0 -100 0 -100 -100 0 -100 0 0 100 0 100 100 0 100 0 0 100 0 100 100
0 100 0 0 -100z m-600 -200 l0 -100 -100 0 -100 0 0 100 0 100 100 0 100 0 0
-100z m2000 0 l0 -100 -200 0 -200 0 0 100 0 100 200 0 200 0 0 -100z m-800
-200 l0 -100 -200 0 -200 0 0 -100 0 -100 100 0 100 0 0 -100 0 -100 -100 0
-100 0 0 -100 0 -100 -100 0 -100 0 0 -100 0 -100 -100 0 -100 0 0 200 0 200
-100 0 -100 0 0 100 0 100 100 0 100 0 0 -100 0 -100 100 0 100 0 0 300 0 300
300 0 300 0 0 -100z m-1200 -200 l0 -100 -100 0 -100 0 0 100 0 100 100 0 100
0 0 -100z m2000 -200 l0 -300 -300 0 -300 0 0 300 0 300 300 0 300 0 0 -300z
m400 -800 l0 -100 -100 0 -100 0 0 100 0 100 100 0 100 0 0 -100z"/>
<path d="M4200 1900 l0 -100 100 0 100 0 0 100 0 100 -100 0 -100 0 0 -100z"/>
<path d="M4200 4900 l0 -700 700 0 700 0 0 700 0 700 -700 0 -700 0 0 -700z
m1200 0 l0 -500 -500 0 -500 0 0 500 0 500 500 0 500 0 0 -500z"/>
<path d="M4600 4900 l0 -300 300 0 300 0 0 300 0 300 -300 0 -300 0 0 -300z"/>
<path d="M2200 5200 l0 -200 100 0 100 0 0 200 0 200 -100 0 -100 0 0 -200z"/>
<path d="M5000 3900 l0 -100 200 0 200 0 0 -100 0 -100 -100 0 -100 0 0 -100
0 -100 200 0 200 0 0 200 0 200 -100 0 -100 0 0 100 0 100 -200 0 -200 0 0
-100z"/>
<path d="M3800 3700 l0 -100 100 0 100 0 0 100 0 100 -100 0 -100 0 0 -100z"/>
<path d="M600 1300 l0 -700 700 0 700 0 0 700 0 700 -700 0 -700 0 0 -700z
m1200 0 l0 -500 -500 0 -500 0 0 500 0 500 500 0 500 0 0 -500z"/>
<path d="M1000 1300 l0 -300 300 0 300 0 0 300 0 300 -300 0 -300 0 0 -300z"/>
<path d="M5400 1100 l0 -100 100 0 100 0 0 100 0 100 -100 0 -100 0 0 -100z"/>
<path d="M2200 800 l0 -200 200 0 200 0 0 100 0 100 100 0 100 0 0 100 0 100
-300 0 -300 0 0 -200z"/>
<path d="M5200 700 l0 -100 200 0 200 0 0 100 0 100 -200 0 -200 0 0 -100z"/>
</g>
</g></svg>
