<svg width="64" height="64" viewBox="0 0 64 64" fill="none" xmlns="http://www.w3.org/2000/svg">
<path d="M10.1333 0.5H53.8667C59.1639 0.5 63.5 4.83614 63.5 10.1333V53.8667C63.5 59.1639 59.1639 63.5 53.8667 63.5H10.1333C4.83614 63.5 0.5 59.1639 0.5 53.8667V10.1333C0.5 4.83614 4.83614 0.5 10.1333 0.5Z" fill="white" stroke="#F0F0F0"/>
<path d="M20.6665 26.8534L25.9998 25.9601V47.7068C25.9998 50.6534 23.6132 53.4401 20.6665 53.9334V26.8534Z" fill="#BF0000"/>
<path d="M50.6666 43.7067C50.6666 46.6534 48.2799 49.4401 45.3333 49.9334V12.0801C48.2799 11.5867 50.6666 13.5734 50.6666 16.5201V43.7067Z" fill="#BF0000"/>
<path d="M20.6665 26.8534L45.3332 22.7467V12.0801L22.6665 15.8534C21.5598 16.0401 20.6665 17.0801 20.6665 18.1867V26.8534Z" fill="#EC0606"/>
<path d="M41.3467 40.0134C38.32 40.5868 36 43.2134 36 46.1468C36 49.0801 38.3867 51.0801 41.3333 50.5868L45.3333 49.9201V39.2534L41.3467 40.0001V40.0134Z" fill="#EC0606"/>
<path d="M16.6799 44.0134C13.6533 44.5868 11.3333 47.2134 11.3333 50.1468C11.3333 53.0801 13.7199 55.0801 16.6666 54.5868L20.6666 53.9201V43.2534L16.6799 44.0001V44.0134Z" fill="#EC0606"/>
<path d="M8.45341 19.9999L6.66675 18.5066H19.2001L8.45341 19.9999Z" fill="#BF0000"/>
<path d="M10.4935 17.3733V14.0533H11.9335L14.4268 17.3733H16.9735L13.9601 13.36C14.8935 12.68 15.5201 11.5867 15.5201 10.3467C15.5201 8.30665 13.8668 6.65332 11.8268 6.65332H8.4668V17.36H10.5068L10.4935 17.3733ZM10.4935 8.70665H11.8268C12.7468 8.70665 13.4935 9.45332 13.4935 10.36C13.4935 11.2667 12.7468 12.0267 11.8268 12.0267H10.4935V8.70665Z" fill="#BF0000"/>
</svg>
