<svg width="251" height="129" viewBox="0 0 251 129" fill="none" xmlns="http://www.w3.org/2000/svg">
<path d="M47.3226 6.102C47.2526 5.752 47.1686 5.444 47.0706 5.15L48.3166 4.94C48.3446 5.192 48.4006 5.598 48.4566 5.906C48.5406 6.522 50.0806 14.208 50.2766 15.132C50.3746 15.524 50.4866 16 50.6266 16.406L49.3386 16.644C49.2686 16.168 49.2266 15.734 49.1286 15.328C48.9886 14.446 47.4906 6.83 47.3226 6.102ZM43.3746 8.132C43.7246 8.104 44.1026 8.076 44.5506 8.034C45.8106 7.894 50.6406 7.124 51.9706 6.858C52.3766 6.788 52.7406 6.704 52.9786 6.634L53.2026 7.81C52.9926 7.824 52.5726 7.894 52.1946 7.95C50.7526 8.174 45.9786 8.93 44.7466 9.14C44.3686 9.21 44.0326 9.28 43.6266 9.378L43.3746 8.132ZM43.3326 12.164C43.6686 12.15 44.2006 12.094 44.5646 12.038C46.0626 11.842 51.2706 10.988 52.9506 10.68C53.4826 10.582 53.8886 10.484 54.1826 10.4L54.4206 11.576C54.1266 11.604 53.6786 11.688 53.1606 11.772C51.2986 12.052 46.2446 12.878 44.8306 13.13C44.2846 13.228 43.8926 13.312 43.5846 13.396L43.3326 12.164ZM61.2386 7.432C61.2666 7.684 61.3506 7.978 61.4346 8.342C61.7566 9.504 63.2826 15.048 63.5766 16C63.6606 16.266 63.7866 16.7 63.8846 16.952L62.6806 17.274C62.6526 16.952 62.5826 16.588 62.4846 16.252C62.1906 15.244 60.6926 9.602 60.3706 8.566C60.2726 8.23 60.1606 7.95 60.0346 7.726L61.2386 7.432ZM67.9586 9.364C67.3706 10.54 65.9286 12.514 64.9626 13.452L63.9826 12.948C64.8506 12.206 65.9146 10.904 66.3906 10.078C65.7746 10.19 59.2226 11.506 58.2286 11.716L57.9486 10.652C58.3406 10.61 58.6906 10.568 59.1106 10.484C59.8106 10.372 65.9146 9.224 66.7126 9.042C66.8946 9 67.1046 8.93 67.2446 8.86L67.9586 9.364ZM73.0266 5.752C74.0066 6.41 75.8126 7.866 76.5826 8.636L75.7146 9.532C75.0006 8.804 73.2646 7.292 72.2146 6.606L73.0266 5.752ZM71.8226 15.132C74.2586 14.768 76.0786 13.914 77.4086 13.088C79.5786 11.73 81.2726 9.658 82.0846 7.922L82.7566 9.126C81.8046 10.862 80.1806 12.766 78.0666 14.096C76.6526 14.978 74.8886 15.846 72.5506 16.28L71.8226 15.132ZM93.7046 7.6C93.7046 8.174 94.1666 8.636 94.7266 8.636C95.3006 8.636 95.7486 8.174 95.7486 7.6C95.7486 7.04 95.3006 6.578 94.7266 6.578C94.1666 6.578 93.7046 7.04 93.7046 7.6ZM93.0326 7.6C93.0326 6.662 93.7886 5.906 94.7266 5.906C95.6646 5.906 96.4346 6.662 96.4346 7.6C96.4346 8.538 95.6646 9.308 94.7266 9.308C93.7886 9.308 93.0326 8.538 93.0326 7.6ZM84.5906 12.318C84.9406 12.01 85.2066 11.758 85.5706 11.394C86.2426 10.722 87.4606 9.168 88.3426 8.118C89.0846 7.236 89.7426 7.082 90.6946 7.992C91.5486 8.79 92.7526 10.05 93.5646 10.918C94.5166 11.926 95.9166 13.438 96.9946 14.6L96.0286 15.622C95.0346 14.418 93.8026 12.976 92.8926 11.954C92.0806 11.044 90.7926 9.658 90.2046 9.07C89.6586 8.552 89.3926 8.594 88.9166 9.182C88.2446 9.994 87.0686 11.534 86.4386 12.304C86.1446 12.668 85.8506 13.102 85.6266 13.382L84.5906 12.318ZM99.2626 9.938C99.6966 9.98 100.425 10.022 101.223 10.022C102.245 10.022 107.859 10.022 108.895 10.022C109.595 10.022 110.085 9.966 110.407 9.938V11.31C110.113 11.296 109.525 11.254 108.909 11.254C107.845 11.254 102.259 11.254 101.223 11.254C100.453 11.254 99.7106 11.282 99.2626 11.31V9.938ZM114.329 5.752C115.309 6.41 117.115 7.866 117.885 8.636L117.017 9.532C116.303 8.804 114.567 7.292 113.517 6.606L114.329 5.752ZM113.125 15.132C115.561 14.768 117.381 13.914 118.711 13.088C120.881 11.73 122.575 9.658 123.387 7.922L124.059 9.126C123.107 10.862 121.483 12.766 119.369 14.096C117.955 14.978 116.191 15.846 113.853 16.28L113.125 15.132ZM127.545 6.41C128.021 6.452 128.623 6.494 129.085 6.494H135.973C136.323 6.494 136.729 6.48 137.009 6.466C136.995 6.774 136.981 7.222 136.981 7.544V14.782C136.981 15.286 137.023 15.916 137.037 16.126H135.777C135.777 15.916 135.805 15.398 135.805 14.894V7.6H129.085C128.567 7.6 127.881 7.628 127.545 7.656V6.41ZM127.377 14.138C127.727 14.166 128.343 14.208 128.917 14.208H136.435V15.356H128.959C128.385 15.356 127.755 15.37 127.377 15.412V14.138ZM140.565 9.938C140.999 9.98 141.727 10.022 142.525 10.022C143.547 10.022 149.161 10.022 150.197 10.022C150.897 10.022 151.387 9.966 151.709 9.938V11.31C151.415 11.296 150.827 11.254 150.211 11.254C149.147 11.254 143.561 11.254 142.525 11.254C141.755 11.254 141.013 11.282 140.565 11.31V9.938ZM162.335 5.934C162.685 6.438 163.287 7.376 163.609 8.048L162.811 8.412C162.461 7.67 162.013 6.9 161.551 6.27L162.335 5.934ZM164.015 5.234C164.393 5.724 165.009 6.648 165.331 7.306L164.547 7.698C164.183 6.956 163.721 6.214 163.259 5.598L164.015 5.234ZM157.421 14.95C157.421 14.18 157.421 7.992 157.421 6.816C157.421 6.41 157.379 5.794 157.309 5.36H158.681C158.639 5.78 158.583 6.396 158.583 6.816C158.583 9 158.597 14.292 158.597 14.95C158.597 15.398 158.625 16.154 158.681 16.616H157.323C157.393 16.168 157.421 15.482 157.421 14.95ZM158.331 9.028C160.193 9.56 163.007 10.638 164.561 11.408L164.071 12.584C162.475 11.73 159.857 10.736 158.331 10.26V9.028ZM170.329 5.094H174.291V6.158H170.329V5.094ZM173.759 5.094H174.837C174.837 7.6 175.145 12.92 180.675 16.196C180.437 16.378 180.017 16.826 179.821 17.078C174.221 13.69 173.759 7.726 173.759 5.094ZM173.367 7.838L174.557 8.062C173.549 12.332 171.701 15.286 168.607 17.106C168.411 16.882 167.935 16.448 167.655 16.252C170.763 14.628 172.513 11.8 173.367 7.838ZM182.299 7.306H193.163V8.37H182.299V7.306ZM192.757 7.306H193.849C193.849 7.306 193.835 7.698 193.821 7.866C193.499 13.662 193.205 15.748 192.589 16.448C192.253 16.854 191.917 16.966 191.385 17.008C190.895 17.064 189.999 17.036 189.131 16.98C189.117 16.672 188.977 16.21 188.781 15.902C189.733 15.986 190.629 16 190.979 16C191.287 16 191.455 15.958 191.637 15.79C192.169 15.272 192.477 13.088 192.757 7.53V7.306ZM186.877 4.268H187.983V6.704C187.983 9.896 187.591 14.222 182.691 17.176C182.537 16.924 182.145 16.532 181.893 16.35C186.541 13.578 186.877 9.602 186.877 6.704V4.268ZM201.185 16.168C199.155 16.168 197.853 15.062 197.853 13.368C197.853 10.358 202.781 10.022 202.781 7.684C202.781 7.012 202.347 6.466 201.619 6.466C200.779 6.466 200.219 7.054 200.219 7.978C200.219 9.728 202.837 12.01 204.797 13.676C205.623 14.376 206.379 14.894 206.813 15.16L206.225 16.196C205.609 15.818 204.909 15.342 203.971 14.516C201.773 12.556 199.169 10.204 199.169 8.02C199.169 6.508 200.191 5.556 201.605 5.556C202.949 5.556 203.803 6.396 203.803 7.628C203.803 10.512 199.015 11.002 199.015 13.326C199.015 14.488 199.953 15.146 201.297 15.146C202.291 15.146 203.201 14.544 203.971 13.606C204.685 12.738 205.175 11.758 205.385 10.484H206.561C206.267 11.898 205.707 13.13 204.853 14.236C203.943 15.398 202.823 16.168 201.185 16.168ZM20.36 27.614H26.912V28.636H20.36V27.614ZM14.27 26.564H20.78V27.544H14.27V26.564ZM24.196 24.24H25.246V35.706C25.246 36.406 25.064 36.714 24.644 36.91C24.224 37.092 23.51 37.12 22.306 37.12C22.264 36.826 22.11 36.336 21.956 36.014C22.838 36.042 23.622 36.042 23.86 36.028C24.098 36.014 24.196 35.944 24.196 35.692V24.24ZM20.514 30.498L21.382 30.092C22.054 31.058 22.726 32.346 22.95 33.2L22.026 33.648C21.816 32.808 21.186 31.478 20.514 30.498ZM14.704 29.546L15.46 28.958C17.168 30.75 19.114 33.2 19.926 34.81L19.086 35.524C18.302 33.886 16.398 31.366 14.704 29.546ZM16.944 24.268H17.952V27.138H16.944V24.268ZM18.54 27.866L19.576 28.02C18.862 32.234 17.448 35.16 14.676 37.022C14.536 36.812 14.158 36.392 13.934 36.196C16.636 34.586 17.938 31.758 18.54 27.866ZM32.092 31.31L32.778 30.778C36.124 32.682 36.432 35.832 34.99 36.77C34.528 37.064 34.164 37.162 33.59 37.162C33.282 37.162 32.862 37.148 32.442 37.134C32.428 36.868 32.33 36.462 32.148 36.182C32.624 36.238 33.1 36.238 33.408 36.238C33.744 36.238 34.052 36.21 34.318 36.014C35.27 35.384 34.962 33.004 32.092 31.31ZM33.534 31.772L34.276 32.164C33.044 33.158 30.818 34.11 29.082 34.544C28.942 34.32 28.676 33.984 28.494 33.802C30.216 33.438 32.414 32.626 33.534 31.772ZM34.472 33.046L35.228 33.466C33.73 34.894 31.028 36.21 28.872 36.84C28.732 36.616 28.452 36.252 28.242 36.042C30.44 35.51 33.1 34.306 34.472 33.046ZM31.77 25.178H35.9V26.018H31.77V25.178ZM34.346 29.672L35.158 30.064C33.618 31.156 31.07 32.038 28.984 32.556C28.872 32.374 28.592 31.968 28.424 31.786C30.51 31.366 32.96 30.596 34.346 29.672ZM35.55 29.854C36.376 32.71 38.168 34.936 40.912 35.832C40.688 36.028 40.38 36.42 40.24 36.7C37.384 35.622 35.592 33.27 34.682 30.064L35.55 29.854ZM39.61 30.456L40.464 31.086C39.386 31.842 37.93 32.724 36.824 33.242L36.166 32.696C37.244 32.15 38.756 31.184 39.61 30.456ZM30.72 27.88V29.49H38.378V27.88H30.72ZM29.726 27.068H39.4V30.302H29.726V27.068ZM32.148 24.198L33.24 24.422C32.26 25.822 30.846 27.292 28.914 28.468C28.76 28.23 28.424 27.894 28.2 27.74C30.034 26.732 31.406 25.346 32.148 24.198ZM33.94 27.46H34.976V29.952H33.94V27.46ZM35.508 25.178H35.732L35.9 25.136L36.614 25.598C36.166 26.382 35.424 27.278 34.808 27.824C34.612 27.684 34.276 27.46 34.038 27.334C34.612 26.83 35.228 25.962 35.508 25.388V25.178ZM52.77 25.948C52.77 26.466 53.176 26.872 53.694 26.872C54.198 26.872 54.618 26.466 54.618 25.948C54.618 25.444 54.198 25.024 53.694 25.024C53.176 25.024 52.77 25.444 52.77 25.948ZM52.126 25.948C52.126 25.08 52.826 24.38 53.694 24.38C54.562 24.38 55.262 25.08 55.262 25.948C55.262 26.816 54.562 27.516 53.694 27.516C52.826 27.516 52.126 26.816 52.126 25.948ZM53.344 26.886C53.246 27.082 53.19 27.32 53.134 27.586C52.826 29.056 52.154 31.324 51.034 32.752C49.76 34.404 48.094 35.692 45.532 36.504L44.58 35.454C47.296 34.768 48.864 33.578 50.04 32.08C51.034 30.82 51.678 28.86 51.874 27.516C51.062 27.516 45.518 27.516 44.706 27.516C44.146 27.516 43.67 27.544 43.32 27.572V26.326C43.698 26.368 44.258 26.424 44.72 26.424C45.518 26.424 51.104 26.424 51.734 26.424C51.958 26.424 52.224 26.41 52.49 26.34L53.344 26.886ZM58.734 25.584C59.098 25.626 59.532 25.654 59.98 25.654C60.736 25.654 64.67 25.654 65.496 25.654C65.93 25.654 66.42 25.626 66.756 25.584V26.746C66.434 26.718 65.944 26.704 65.468 26.704C64.684 26.704 60.75 26.704 59.98 26.704C59.56 26.704 59.112 26.718 58.734 26.746V25.584ZM67.792 29.266C67.722 29.406 67.624 29.574 67.596 29.686C67.232 31.058 66.602 32.514 65.552 33.662C64.096 35.272 62.332 36.084 60.554 36.588L59.686 35.594C61.66 35.188 63.41 34.278 64.614 33.018C65.454 32.136 66.014 30.946 66.266 29.924C65.58 29.924 59.686 29.924 58.846 29.924C58.51 29.924 57.978 29.938 57.474 29.98V28.804C57.978 28.846 58.454 28.888 58.846 28.888C59.532 28.888 65.496 28.888 66.21 28.888C66.532 28.888 66.84 28.846 66.994 28.776L67.792 29.266ZM72.678 25.752C73.658 26.41 75.464 27.866 76.234 28.636L75.366 29.532C74.652 28.804 72.916 27.292 71.866 26.606L72.678 25.752ZM71.474 35.132C73.91 34.768 75.73 33.914 77.06 33.088C79.23 31.73 80.924 29.658 81.736 27.922L82.408 29.126C81.456 30.862 79.832 32.766 77.718 34.096C76.304 34.978 74.54 35.846 72.202 36.28L71.474 35.132ZM89.87 26.55C91.396 26.816 94.238 26.76 95.624 26.55V27.684C94.126 27.852 91.41 27.852 89.884 27.684L89.87 26.55ZM90.416 32.262C90.29 32.766 90.22 33.158 90.22 33.536C90.22 34.18 90.668 34.81 92.586 34.81C93.832 34.81 94.924 34.698 96.044 34.432L96.072 35.608C95.204 35.79 94.028 35.902 92.572 35.902C90.234 35.902 89.184 35.118 89.184 33.802C89.184 33.34 89.254 32.836 89.408 32.164L90.416 32.262ZM87.21 25.472C87.126 25.71 87.014 26.158 86.958 26.41C86.692 27.712 86.258 30.204 86.258 31.786C86.258 32.458 86.3 33.046 86.384 33.732C86.622 33.102 86.944 32.262 87.182 31.688L87.77 32.15C87.42 33.144 86.902 34.614 86.776 35.286C86.734 35.482 86.706 35.748 86.706 35.916C86.72 36.056 86.734 36.252 86.748 36.406L85.754 36.476C85.474 35.482 85.236 33.872 85.236 31.968C85.236 29.91 85.698 27.516 85.866 26.354C85.908 26.032 85.95 25.682 85.964 25.374L87.21 25.472ZM110.534 26.55C110.422 26.676 110.254 26.886 110.156 27.04C109.596 27.992 108.266 29.798 106.67 30.904L105.732 30.162C107.034 29.42 108.35 27.908 108.798 27.04C107.818 27.04 101.49 27.04 100.818 27.04C100.3 27.04 99.782 27.068 99.236 27.11V25.85C99.726 25.92 100.3 25.976 100.818 25.976C101.49 25.976 108.028 25.976 108.868 25.976C109.134 25.976 109.638 25.934 109.834 25.878L110.534 26.55ZM104.934 28.384C104.934 32.178 104.598 34.74 101.028 36.532L100.006 35.692C100.384 35.566 100.874 35.328 101.266 35.062C103.422 33.732 103.73 31.744 103.73 29.406C103.73 29.07 103.73 28.762 103.674 28.384H104.934ZM118.262 27.95C118.5 28.51 119.186 30.358 119.354 30.96L118.318 31.338C118.164 30.694 117.52 28.916 117.226 28.3L118.262 27.95ZM123.33 28.734C123.232 29.014 123.162 29.238 123.106 29.42C122.742 30.96 122.126 32.472 121.132 33.732C119.83 35.37 118.122 36.462 116.568 37.05L115.644 36.112C117.254 35.636 119.046 34.572 120.194 33.144C121.188 31.926 121.902 30.134 122.126 28.342L123.33 28.734ZM115 28.65C115.28 29.238 116.022 31.072 116.274 31.814L115.224 32.206C115 31.478 114.244 29.532 113.964 29.042L115 28.65ZM136.77 25.948C136.77 26.466 137.176 26.872 137.694 26.872C138.198 26.872 138.618 26.466 138.618 25.948C138.618 25.444 138.198 25.024 137.694 25.024C137.176 25.024 136.77 25.444 136.77 25.948ZM136.126 25.948C136.126 25.08 136.826 24.38 137.694 24.38C138.562 24.38 139.262 25.08 139.262 25.948C139.262 26.816 138.562 27.516 137.694 27.516C136.826 27.516 136.126 26.816 136.126 25.948ZM137.344 26.886C137.246 27.082 137.19 27.32 137.134 27.586C136.826 29.056 136.154 31.324 135.034 32.752C133.76 34.404 132.094 35.692 129.532 36.504L128.58 35.454C131.296 34.768 132.864 33.578 134.04 32.08C135.034 30.82 135.678 28.86 135.874 27.516C135.062 27.516 129.518 27.516 128.706 27.516C128.146 27.516 127.67 27.544 127.32 27.572V26.326C127.698 26.368 128.258 26.424 128.72 26.424C129.518 26.424 135.104 26.424 135.734 26.424C135.958 26.424 136.224 26.41 136.49 26.34L137.344 26.886ZM150.21 24.8C150.56 25.304 151.064 26.158 151.344 26.718L150.588 27.068C150.308 26.494 149.832 25.654 149.454 25.122L150.21 24.8ZM151.736 24.24C152.114 24.758 152.646 25.626 152.912 26.144L152.156 26.48C151.848 25.878 151.4 25.08 151.008 24.562L151.736 24.24ZM151.134 27.586C151.022 27.796 150.882 28.118 150.812 28.342C150.434 29.742 149.566 31.646 148.334 33.158C147.06 34.712 145.38 36 142.748 36.966L141.74 36.056C144.316 35.3 146.052 34.026 147.326 32.542C148.418 31.254 149.272 29.448 149.566 28.174H144.372L144.82 27.166C145.394 27.166 148.852 27.166 149.286 27.166C149.664 27.166 149.972 27.124 150.21 27.026L151.134 27.586ZM146.444 25.472C146.22 25.836 145.968 26.312 145.828 26.578C145.002 28.118 143.532 30.12 141.292 31.618L140.312 30.89C142.734 29.448 144.106 27.418 144.722 26.158C144.862 25.92 145.072 25.402 145.156 25.052L146.444 25.472ZM156.608 35.566C156.706 35.342 156.734 35.146 156.734 34.88C156.734 33.998 156.734 28.202 156.734 26.872C156.734 26.494 156.678 25.864 156.622 25.598H157.994C157.952 25.934 157.896 26.466 157.896 26.858C157.896 28.188 157.896 34.096 157.896 34.81C160.584 34.124 163.818 32.29 165.568 30.036L166.198 31.016C164.378 33.27 161.494 34.992 157.994 36.014C157.854 36.056 157.63 36.126 157.406 36.252L156.608 35.566ZM168.914 29.938C169.348 29.98 170.076 30.022 170.874 30.022C171.896 30.022 177.51 30.022 178.546 30.022C179.246 30.022 179.736 29.966 180.058 29.938V31.31C179.764 31.296 179.176 31.254 178.56 31.254C177.496 31.254 171.91 31.254 170.874 31.254C170.104 31.254 169.362 31.282 168.914 31.31V29.938ZM190.684 25.934C191.034 26.438 191.636 27.376 191.958 28.048L191.16 28.412C190.81 27.67 190.362 26.9 189.9 26.27L190.684 25.934ZM192.364 25.234C192.742 25.724 193.358 26.648 193.68 27.306L192.896 27.698C192.532 26.956 192.07 26.214 191.608 25.598L192.364 25.234ZM185.77 34.95C185.77 34.18 185.77 27.992 185.77 26.816C185.77 26.41 185.728 25.794 185.658 25.36H187.03C186.988 25.78 186.932 26.396 186.932 26.816C186.932 29 186.946 34.292 186.946 34.95C186.946 35.398 186.974 36.154 187.03 36.616H185.672C185.742 36.168 185.77 35.482 185.77 34.95ZM186.68 29.028C188.542 29.56 191.356 30.638 192.91 31.408L192.42 32.584C190.824 31.73 188.206 30.736 186.68 30.26V29.028ZM204.278 24.912C204.25 25.08 204.208 25.626 204.208 25.794C204.166 26.704 204.194 29.406 204.208 30.526L203.144 29.98C203.144 29.364 203.13 26.578 203.088 25.808C203.06 25.43 203.018 25.038 202.99 24.912H204.278ZM196.83 26.872C198.734 26.844 202.234 26.718 204.39 26.718C206.098 26.718 207.834 26.718 208.492 26.732L208.478 27.768C207.694 27.726 206.434 27.698 204.376 27.698C201.968 27.698 198.972 27.796 196.858 27.95L196.83 26.872ZM204.18 30.932C204.18 32.808 203.312 33.746 202.038 33.746C200.862 33.746 199.728 32.92 199.728 31.394C199.728 30.008 200.876 28.972 202.206 28.972C203.83 28.972 204.656 30.176 204.656 31.786C204.656 33.69 203.732 35.79 200.484 36.756L199.546 35.846C202.094 35.244 203.578 33.998 203.578 31.688C203.578 30.428 202.962 29.896 202.206 29.896C201.464 29.896 200.778 30.47 200.778 31.38C200.778 32.262 201.436 32.766 202.206 32.766C203.074 32.766 203.634 32.038 203.41 30.54L204.18 30.932ZM212.832 25.696C213.14 25.724 213.532 25.738 213.812 25.738C214.554 25.738 217.872 25.64 218.614 25.57C219.034 25.528 219.23 25.5 219.384 25.444L220.028 26.27C219.776 26.438 219.496 26.62 219.23 26.83C218.544 27.362 216.64 29 215.548 29.896C216.192 29.686 216.864 29.616 217.494 29.616C219.818 29.616 221.484 31.002 221.484 32.892C221.484 35.146 219.622 36.616 216.654 36.616C214.75 36.616 213.588 35.79 213.588 34.614C213.588 33.662 214.456 32.794 215.744 32.794C217.606 32.794 218.544 34.11 218.642 35.524L217.634 35.692C217.55 34.502 216.864 33.648 215.744 33.648C215.1 33.648 214.61 34.04 214.61 34.53C214.61 35.216 215.38 35.622 216.486 35.622C218.866 35.622 220.364 34.642 220.364 32.892C220.364 31.506 219.048 30.484 217.214 30.484C214.89 30.484 213.63 31.464 211.866 33.27L211.054 32.458C212.216 31.506 214.022 29.994 214.82 29.308C215.604 28.664 217.368 27.194 218.068 26.564C217.326 26.606 214.526 26.718 213.798 26.76C213.476 26.788 213.168 26.802 212.86 26.844L212.832 25.696ZM234.882 27.656C234.574 27.838 234.224 28.034 233.804 28.244C232.866 28.734 230.92 29.658 229.548 30.554C228.246 31.408 227.462 32.332 227.462 33.382C227.462 34.544 228.582 35.272 230.794 35.272C232.306 35.272 234.182 35.076 235.274 34.796L235.26 36.056C234.21 36.238 232.586 36.392 230.836 36.392C228.204 36.392 226.3 35.608 226.3 33.508C226.3 31.996 227.322 30.806 228.974 29.714C230.402 28.762 232.362 27.824 233.272 27.306C233.678 27.068 233.986 26.886 234.28 26.648L234.882 27.656ZM227.798 25.108C228.442 26.9 229.31 28.65 229.954 29.784L229.002 30.358C228.288 29.21 227.448 27.32 226.692 25.584L227.798 25.108Z" fill="white"/>
<path d="M59.72 56.8V54.24H58.2V56.8H59.72ZM59.72 61.46V58.92H58.2V61.46H59.72ZM51.32 58.92V61.46H52.76V58.92H51.32ZM56.22 58.92H54.74V61.46H56.22V58.92ZM54.74 56.8H56.22V54.24H54.74V56.8ZM51.32 54.24V56.8H52.76V54.24H51.32ZM49.22 56.8V55.36C48.82 55.74 48.44 56.1 48.04 56.4C47.6 55.98 46.64 55.22 46.1 54.84C47.78 53.74 49.36 51.92 50.24 50.06L52.56 50.74C52.34 51.22 52.08 51.68 51.78 52.14H63.78V54.24H61.9V56.8H64.5V58.92H61.9V61.46H64.22V63.58H46.84V61.46H49.22V58.92H46.54V56.8H49.22ZM48.6 68.76L46.34 67.84C47.22 67 48.12 65.46 48.58 64L50.88 64.56C50.44 66.08 49.58 67.72 48.6 68.76ZM52.16 64.7L54.36 64.44C54.6 65.66 54.84 67.24 54.86 68.18L52.54 68.52C52.54 67.56 52.38 65.92 52.16 64.7ZM56.12 64.74L58.36 64.36C58.84 65.54 59.34 67.1 59.52 68.08L57.14 68.54C57.02 67.58 56.56 65.96 56.12 64.74ZM60.08 64.64L62.36 63.92C63.26 65.14 64.38 66.82 64.88 67.92L62.44 68.74C62.02 67.68 60.96 65.92 60.08 64.64ZM79.88 53.56L78.66 55.34C78.04 54.56 76.66 53.48 75.56 52.74L76.7 51.14C77.82 51.8 79.24 52.82 79.88 53.56ZM74.64 57.76L75.76 56.06C76.92 56.68 78.4 57.64 79.12 58.36L77.92 60.26C77.26 59.52 75.8 58.46 74.64 57.76ZM72.84 51.16L74.84 51.6C74.32 53.2 73.74 55.1 73.24 56.26L71.74 55.84C72.14 54.58 72.62 52.56 72.84 51.16ZM68.96 55.84L67.18 56.32C67.14 55.08 66.74 53.14 66.28 51.7L67.94 51.26C68.46 52.7 68.86 54.6 68.96 55.84ZM74.42 62.42L72.96 64.26C72.66 63.62 72.1 62.58 71.52 61.66V68.68H69.32V61.62C68.68 63.48 67.88 65.34 67.02 66.54C66.82 65.82 66.3 64.74 65.94 64.08C66.94 62.86 67.96 60.72 68.58 58.9H66.3V56.68H69.32V50.14H71.52V56.68H74.48V58.9H71.52V59.04C72.1 59.62 74 61.86 74.42 62.42ZM85 62.88L82.6 63.32V68.72H80.36V63.72L74.78 64.72L74.42 62.5L80.36 61.44V50.04H82.6V61.04L84.64 60.66L85 62.88ZM94.22 50.76C94.16 51.12 94.08 51.98 94.04 52.5C94.02 52.94 94 53.42 93.98 53.92C95.3 53.76 96.62 53.5 97.66 53.2L97.72 55.68C96.58 55.94 95.2 56.14 93.9 56.3C93.88 56.9 93.88 57.52 93.88 58.1C93.88 58.34 93.88 58.58 93.88 58.84C95.24 58.5 96.62 58.32 97.72 58.32C100.8 58.32 103.22 59.92 103.22 62.68C103.22 65.04 101.98 66.82 98.8 67.62C97.88 67.82 97 67.88 96.18 67.94L95.26 65.36C96.16 65.36 97.02 65.34 97.72 65.22C99.34 64.92 100.62 64.12 100.62 62.66C100.62 61.3 99.42 60.5 97.68 60.5C96.44 60.5 95.14 60.7 93.92 61.06C93.96 62.64 94 64.2 94 64.88C94 67.36 93.12 68.02 91.8 68.02C89.86 68.02 87.12 66.34 87.12 64.22C87.12 62.48 89.12 60.66 91.58 59.6C91.56 59.12 91.56 58.64 91.56 58.18C91.56 57.62 91.56 57.06 91.56 56.5C91.18 56.52 90.82 56.54 90.5 56.54C89.16 56.54 88.38 56.52 87.7 56.44L87.66 54.02C88.84 54.16 89.7 54.18 90.42 54.18C90.78 54.18 91.18 54.16 91.58 54.14C91.6 53.44 91.6 52.86 91.6 52.52C91.6 52.1 91.52 51.12 91.46 50.76H94.22ZM99.92 52.92C101.46 53.66 103.78 54.98 104.84 55.74L103.64 57.78C102.68 56.96 100.06 55.46 98.82 54.86L99.92 52.92ZM89.58 64.12C89.58 64.74 90.52 65.28 91.04 65.28C91.4 65.28 91.68 65.12 91.68 64.44C91.68 63.94 91.66 63.02 91.62 61.94C90.4 62.6 89.58 63.42 89.58 64.12ZM112.82 50.68V52.48H107.12V50.68H112.82ZM113.4 53.36V55.24H106.16V53.36H113.4ZM110.92 63.52H108.96V65.82H110.92V63.52ZM112.9 61.64V67.68H108.96V68.46H107V61.64H112.9ZM107.06 60.66V58.88H112.94V60.66H107.06ZM107.06 57.96V56.14H112.94V57.96H107.06ZM117.56 64.72L119.58 64.36L119.74 66.32C117.68 66.78 115.5 67.24 113.78 67.6L113.3 65.42C113.9 65.34 114.6 65.22 115.36 65.1V60.2H113.68V58.16H119.12V60.2H117.56V64.72ZM124.62 56H121.68C121.82 61.72 122.28 65.74 123.04 65.8C123.3 65.8 123.46 64.88 123.54 63.38C123.9 63.9 124.84 64.56 125.2 64.8C124.68 68.06 123.68 68.76 122.94 68.74C120.46 68.68 119.72 63.96 119.48 56H113.7V53.84H119.42C119.4 52.64 119.38 51.4 119.38 50.08H121.66V51.08L123.26 50.26C123.9 51 124.64 52.02 124.98 52.7L123.26 53.66C122.96 52.98 122.28 51.92 121.66 51.14C121.64 52.06 121.64 52.96 121.66 53.84H124.62V56ZM132.92 51.14C132.8 51.98 132.7 53 132.66 53.8C132.58 55.96 132.42 60.44 132.42 62.92C132.42 64.94 133.62 65.6 135.18 65.6C138.48 65.6 140.58 63.7 142.02 61.52L143.84 63.72C142.56 65.64 139.72 68.32 135.16 68.32C131.88 68.32 129.76 66.88 129.76 63.46C129.76 60.78 129.96 55.52 129.96 53.8C129.96 52.86 129.88 51.9 129.7 51.1L132.92 51.14ZM150.1 60.56V61.92H152.58V60.56H150.1ZM152.58 54.5H150.1V55.66H152.58V54.5ZM150.1 57.48V58.74H152.58V57.48H150.1ZM155.98 61.92V64H146.16V61.92H147.96V54.5H146.4V52.42H147.96V50.3H150.1V52.42H152.58V50.3H154.76V52.42H156.12V54.5H154.76V61.92H155.98ZM148.64 64.14L150.86 64.8C150.16 66.26 148.98 67.82 147.9 68.8C147.46 68.38 146.54 67.7 146 67.38C147.04 66.6 148.08 65.34 148.64 64.14ZM159 60H161.9V57.54H159.02V58.28C159.02 58.8 159.02 59.38 159 60ZM161.9 53.1H159.02V55.44H161.9V53.1ZM164.2 50.94V66.1C164.2 67.28 163.98 67.9 163.28 68.28C162.58 68.66 161.56 68.72 160.08 68.7C160 68.08 159.7 67.04 159.4 66.44C160.26 66.5 161.22 66.48 161.5 66.48C161.8 66.48 161.9 66.38 161.9 66.06V62.12H158.86C158.64 64.48 158.14 66.98 157.06 68.78C156.68 68.36 155.7 67.64 155.18 67.44C155.24 67.32 155.32 67.22 155.38 67.1L153.72 68.04C153.32 67.26 152.36 65.94 151.58 65.02L153.38 64.04C154.1 64.84 155.04 65.94 155.54 66.76C156.7 64.26 156.8 60.88 156.8 58.28V50.94H164.2ZM172.56 52.54H169.48V53.6H172.56V52.54ZM169.48 56.34H172.56V55.2H169.48V56.34ZM174.78 58.04H169.48V68.74H167.12V50.82H174.78V58.04ZM178.42 56.38H181.6V55.2H178.42V56.38ZM181.6 52.54H178.42V53.6H181.6V52.54ZM173.8 65.14H177.1V63.9H173.8V65.14ZM177.1 62.2V61H173.8V62.2H177.1ZM184 50.82V65.92C184 67.2 183.74 67.9 182.94 68.28C182.16 68.68 181 68.74 179.28 68.74C179.22 68.24 179 67.5 178.76 66.88H173.8V67.9H171.64V59.26H172.62V59.24L179.34 59.26V66.34C180.12 66.36 180.86 66.36 181.12 66.34C181.48 66.34 181.6 66.22 181.6 65.9V58.08H176.16V50.82H184ZM194.6 51.34C194.48 51.86 194.34 52.5 194.24 53C194.12 53.6 193.96 54.34 193.82 55.06C194.5 55.02 195.08 54.98 195.5 54.98C197.62 54.98 199.12 55.92 199.12 58.8C199.12 61.16 198.84 64.4 197.98 66.14C197.32 67.54 196.22 67.98 194.7 67.98C193.94 67.98 192.98 67.84 192.3 67.7L191.88 65.06C192.64 65.28 193.8 65.48 194.32 65.48C195 65.48 195.5 65.28 195.82 64.62C196.36 63.48 196.64 61.06 196.64 59.08C196.64 57.48 195.94 57.26 194.7 57.26C194.38 57.26 193.88 57.3 193.3 57.34C192.54 60.38 191.06 65.12 189.22 68.06L186.62 67.02C188.56 64.4 189.94 60.36 190.68 57.62C189.96 57.7 189.32 57.78 188.96 57.82C188.38 57.92 187.34 58.06 186.72 58.16L186.48 55.44C187.22 55.5 187.88 55.46 188.62 55.44C189.24 55.42 190.18 55.36 191.2 55.26C191.48 53.76 191.66 52.3 191.62 51.04L194.6 51.34ZM203.5 49.68C204.02 50.44 204.76 51.7 205.1 52.4L203.52 53.08C203.1 52.26 202.46 51.08 201.9 50.32L203.5 49.68ZM201.12 50.58C201.62 51.32 202.34 52.58 202.72 53.32L201.74 53.74C202.94 55.6 204.44 58.94 205 60.72L202.46 61.88C201.94 59.66 200.52 56.14 199.1 54.38L200.9 53.6C200.5 52.84 200 51.88 199.54 51.24L201.12 50.58Z" fill="white"/>
<path d="M7.56775 102.15H5.55175V103.206H7.56775V102.15ZM10.4598 103.206V102.15H8.37175V103.206H10.4598ZM8.37175 104.958H10.4598V103.866H8.37175V104.958ZM5.55175 104.958H7.56775V103.866H5.55175V104.958ZM5.55175 105.642V107.634H4.71175V101.466H8.13175C7.42375 101.118 6.57175 100.734 5.85175 100.47L6.41575 99.9663C6.93175 100.146 7.51975 100.386 8.08375 100.626C8.65975 100.374 9.24775 100.026 9.72775 99.6783H4.72375V98.9703H10.5798L10.7478 98.9223L11.2998 99.3423C10.6638 99.9423 9.76375 100.542 8.87575 100.986C9.22375 101.154 9.53575 101.322 9.79975 101.466H11.3118V106.746C11.3118 107.178 11.2158 107.394 10.9038 107.526C10.5918 107.646 10.0878 107.658 9.28375 107.658C9.24775 107.442 9.13975 107.13 9.03175 106.926C9.59575 106.95 10.1118 106.938 10.2558 106.938C10.4118 106.938 10.4598 106.89 10.4598 106.734V105.642H8.37175V107.586H7.56775V105.642H5.55175ZM3.73975 100.674L3.07975 101.286C2.70775 100.698 1.84375 99.8583 1.08775 99.2943L1.71175 98.7423C2.46775 99.2823 3.35575 100.086 3.73975 100.674ZM3.47575 103.17V107.022C4.05175 107.922 5.08375 108.318 6.48775 108.366C7.79575 108.426 10.5318 108.39 11.9598 108.294C11.8638 108.498 11.7318 108.906 11.6838 109.17C10.3518 109.23 7.80775 109.254 6.48775 109.194C4.91575 109.134 3.83575 108.714 3.10375 107.766C2.49175 108.294 1.85575 108.81 1.17175 109.314L0.73975 108.45C1.31575 108.09 1.99975 107.586 2.61175 107.094V104.01H0.88375V103.17H3.47575ZM16.1118 102.63V103.806H20.6358V102.63H16.1118ZM22.6278 105.462V107.97C22.6278 108.438 22.5318 108.678 22.1598 108.81C21.7878 108.954 21.1878 108.954 20.2638 108.954C20.2158 108.702 20.0718 108.378 19.9518 108.138C20.6718 108.162 21.3078 108.162 21.4878 108.15C21.6678 108.138 21.7278 108.102 21.7278 107.958V106.278H18.9438V109.434H18.0438V106.278H15.0798V108.894H14.1918V105.462H18.0438V104.478H15.2598V101.958H21.5238V104.478H18.9438V105.462H22.6278ZM21.4638 98.5623L22.3878 98.8863C21.9918 99.4143 21.5358 99.9663 21.1878 100.326L20.4678 100.026C20.8038 99.6303 21.2358 98.9943 21.4638 98.5623ZM23.3598 100.326V102.882H22.4838V101.106H14.2638V102.882H13.4118V100.326H15.3318C15.1518 99.9303 14.7558 99.3423 14.3958 98.9103L15.1878 98.5863C15.5838 99.0063 16.0038 99.5943 16.2078 99.9903L15.4638 100.326H17.9718V98.4663H18.8718V100.326H23.3598ZM27.5117 108.666C26.1318 108.666 25.2678 108.09 24.6918 107.466L25.2438 106.746C25.7598 107.286 26.4318 107.754 27.4277 107.754C28.4718 107.754 29.2158 107.13 29.2158 106.11C29.2158 105.066 28.5078 104.358 26.4798 104.358V103.518C28.2918 103.518 28.9158 102.786 28.9158 101.838C28.9158 100.998 28.3398 100.446 27.4277 100.446C26.7198 100.446 26.0958 100.794 25.6038 101.298L25.0158 100.602C25.6758 99.9903 26.4558 99.5463 27.4758 99.5463C28.9518 99.5463 30.0318 100.362 30.0318 101.754C30.0318 102.822 29.3958 103.53 28.4718 103.878V103.926C29.5038 104.166 30.3318 104.958 30.3318 106.158C30.3318 107.73 29.0718 108.666 27.5117 108.666ZM34.336 108.666C32.656 108.666 31.588 107.142 31.588 104.082C31.588 101.022 32.656 99.5463 34.336 99.5463C36.004 99.5463 37.072 101.034 37.072 104.082C37.072 107.142 36.004 108.666 34.336 108.666ZM34.336 107.79C35.332 107.79 36.004 106.674 36.004 104.082C36.004 101.514 35.332 100.422 34.336 100.422C33.328 100.422 32.656 101.514 32.656 104.082C32.656 106.674 33.328 107.79 34.336 107.79ZM40.7163 107.634H46.6683V104.286H40.7163V107.634ZM46.6683 100.17H40.7163V103.41H46.6683V100.17ZM39.8163 99.2943H47.6043V109.242H46.6683V108.51H40.7163V109.29H39.8163V99.2943ZM54.2523 99.6783H51.6603V100.674H54.2523V99.6783ZM51.6603 102.39H54.2523V101.334H51.6603V102.39ZM55.1043 103.074H51.6603V109.434H50.7723V98.9823H55.1043V103.074ZM57.0363 104.67H54.2163V105.774H57.0363V104.67ZM54.2163 107.61H57.0363V106.446H54.2163V107.61ZM57.8643 108.318H54.2163V108.918H53.4123V103.974H57.8643V108.318ZM57.0243 102.402H59.7123V101.334H57.0243V102.402ZM59.7123 99.6783H57.0243V100.674H59.7123V99.6783ZM60.6123 98.9823V108.246C60.6123 108.81 60.4803 109.11 60.0843 109.266C59.7003 109.41 59.0643 109.422 58.0683 109.422C58.0323 109.17 57.8883 108.75 57.7563 108.51C58.4883 108.546 59.2203 108.534 59.4363 108.522C59.6403 108.522 59.7123 108.45 59.7123 108.234V103.086H56.1723V98.9823H60.6123ZM17.896 120.31C17.896 122.83 16.24 124.51 13.396 124.882L12.832 123.994C13.216 123.958 13.588 123.898 13.864 123.838C15.4 123.49 16.912 122.35 16.912 120.274C16.912 118.462 15.748 116.962 13.708 116.794C13.552 117.91 13.324 119.134 12.988 120.25C12.256 122.722 11.308 123.982 10.192 123.982C9.124 123.982 8.056 122.758 8.056 120.778C8.056 118.174 10.372 115.894 13.3 115.894C16.108 115.894 17.896 117.874 17.896 120.31ZM8.992 120.694C8.992 122.206 9.688 122.878 10.228 122.878C10.792 122.878 11.428 122.074 12.04 120.046C12.34 119.05 12.58 117.91 12.712 116.806C10.408 117.094 8.992 119.062 8.992 120.694ZM22.696 115.174C23.176 116.494 23.776 117.79 24.304 118.738C25.432 118.054 26.728 117.418 27.388 117.058C27.736 116.854 27.988 116.698 28.24 116.494L28.768 117.346C28.492 117.514 28.192 117.67 27.844 117.85C27.028 118.27 25.372 119.062 24.196 119.842C23.08 120.562 22.408 121.354 22.408 122.266C22.408 123.262 23.356 123.886 25.252 123.886C26.56 123.886 28.156 123.718 29.092 123.478V124.546C28.18 124.702 26.8 124.846 25.3 124.846C23.044 124.846 21.412 124.174 21.412 122.374C21.412 121.138 22.204 120.166 23.488 119.266C22.936 118.282 22.3 116.878 21.748 115.57L22.696 115.174ZM33.82 116.086C34.684 116.194 35.788 116.242 36.988 116.242C38.14 116.242 39.364 116.158 40.228 116.074V117.058C39.412 117.118 38.104 117.202 36.988 117.202C35.788 117.202 34.768 117.142 33.82 117.07V116.086ZM34.3 120.922C34.144 121.402 34.048 121.846 34.048 122.29C34.048 123.202 34.984 123.838 36.904 123.838C38.56 123.838 40.108 123.658 41.008 123.358L41.02 124.39C40.156 124.63 38.632 124.81 36.928 124.81C34.492 124.81 33.076 124.006 33.076 122.494C33.076 121.882 33.22 121.318 33.328 120.826L34.3 120.922ZM45.784 115.75C46 115.774 46.3 115.786 46.624 115.786C47.26 115.786 49.996 115.726 50.752 115.678C50.956 115.654 51.244 115.618 51.424 115.57L52 116.266C51.844 116.35 51.592 116.518 51.472 116.614C50.584 117.358 49.144 118.534 48.148 119.35C48.796 119.11 49.384 119.026 49.864 119.026C51.856 119.026 53.224 120.142 53.224 121.774C53.224 124.066 50.956 125.314 46.984 124.99L46.72 124.018C50.044 124.426 52.216 123.538 52.216 121.762C52.216 120.61 51.232 119.818 49.696 119.818C47.62 119.818 46.528 120.874 45.028 122.314L44.296 121.57C46.048 120.202 49.216 117.55 50.236 116.506C49.504 116.542 47.26 116.638 46.66 116.674C46.396 116.686 46.06 116.722 45.808 116.758L45.784 115.75Z" fill="white"/>
<path d="M68.1613 104.582C68.1613 99.7183 68.9293 95.4729 70.4653 91.8463C72.0013 88.2196 74.1559 85.4249 76.9293 83.4623C79.7453 81.4569 83.0306 80.4543 86.7853 80.4543C91.7346 80.4543 96.1293 82.1396 99.9693 85.5103L96.7693 92.6783C95.1906 91.0569 93.6759 89.9049 92.2253 89.2223C90.7746 88.4969 89.1959 88.1343 87.4893 88.1343C84.2466 88.1343 81.7293 89.3503 79.9373 91.7823C78.1453 94.2143 77.1639 97.7769 76.9933 102.47C78.7853 98.5449 82.2199 96.5823 87.2973 96.5823C89.9853 96.5823 92.3533 97.2009 94.4013 98.4383C96.4493 99.6756 98.0493 101.382 99.2013 103.558C100.353 105.692 100.929 108.188 100.929 111.046C100.929 114.076 100.247 116.742 98.8813 119.046C97.5586 121.35 95.7026 123.164 93.3133 124.486C90.9666 125.766 88.2146 126.406 85.0573 126.406C79.7239 126.406 75.5639 124.508 72.5773 120.71C69.6333 116.87 68.1613 111.494 68.1613 104.582ZM78.0813 111.43C78.0813 113.692 78.7213 115.548 80.0013 116.998C81.3239 118.449 83.0093 119.174 85.0573 119.174C87.1479 119.174 88.8546 118.449 90.1773 116.998C91.4999 115.548 92.1613 113.67 92.1613 111.366C92.1613 109.105 91.5213 107.27 90.2413 105.862C88.9613 104.454 87.2546 103.75 85.1213 103.75C83.0306 103.75 81.3239 104.454 80.0013 105.862C78.7213 107.27 78.0813 109.126 78.0813 111.43ZM106.032 103.43C106.032 98.6089 106.736 94.4916 108.144 91.0783C109.552 87.6649 111.557 85.0409 114.16 83.2063C116.805 81.3716 119.92 80.4543 123.504 80.4543C127.13 80.4543 130.245 81.3716 132.848 83.2063C135.493 85.0409 137.52 87.6649 138.928 91.0783C140.378 94.4916 141.104 98.6089 141.104 103.43C141.104 108.252 140.378 112.39 138.928 115.846C137.52 119.26 135.493 121.884 132.848 123.718C130.245 125.51 127.13 126.406 123.504 126.406C119.92 126.406 116.805 125.489 114.16 123.654C111.557 121.82 109.552 119.196 108.144 115.782C106.736 112.326 106.032 108.209 106.032 103.43ZM115.376 103.43C115.376 108.081 116.08 111.665 117.488 114.182C118.896 116.7 120.901 117.958 123.504 117.958C126.149 117.958 128.176 116.7 129.584 114.182C130.992 111.622 131.696 108.06 131.696 103.494C131.696 98.8436 130.97 95.2596 129.52 92.7423C128.112 90.1823 126.106 88.9023 123.504 88.9023C120.901 88.9023 118.896 90.1609 117.488 92.6783C116.08 95.1956 115.376 98.7796 115.376 103.43Z" fill="#F53A3A"/>
<path d="M150.896 118.99H165.104V111.822H150.896V118.99ZM165.104 101.166H150.896V108.046H165.104V101.166ZM146.96 97.3263H169.2V124.846H165.104V122.83H150.896V124.91H146.96V97.3263ZM185.296 99.3743H180.368V101.07H185.296V99.3743ZM180.368 105.454H185.296V103.63H180.368V105.454ZM188.848 108.174H180.368V125.294H176.592V96.6223H188.848V108.174ZM194.672 105.518H199.76V103.63H194.672V105.518ZM199.76 99.3743H194.672V101.07H199.76V99.3743ZM187.28 119.534H192.56V117.55H187.28V119.534ZM192.56 114.83V112.91H187.28V114.83H192.56ZM203.6 96.6223V120.782C203.6 122.83 203.184 123.95 201.904 124.558C200.656 125.198 198.8 125.294 196.048 125.294C195.952 124.494 195.6 123.31 195.216 122.318H187.28V123.95H183.824V110.126H185.392V110.094L196.144 110.126V121.454C197.392 121.486 198.576 121.486 198.992 121.454C199.568 121.454 199.76 121.262 199.76 120.75V108.238H191.056V96.6223H203.6ZM220.336 100.142C224.272 100.686 230.64 100.526 234.096 100.11V104.238C230.16 104.59 224.368 104.622 220.336 104.238V100.142ZM222.896 113.806C222.64 114.862 222.512 115.63 222.512 116.494C222.512 117.902 223.728 118.766 226.992 118.766C229.84 118.766 232.208 118.51 235.024 117.934L235.088 122.254C233.008 122.638 230.448 122.862 226.832 122.862C221.328 122.862 218.672 120.91 218.672 117.614C218.672 116.366 218.864 115.086 219.216 113.454L222.896 113.806ZM215.408 97.9983C215.152 98.6703 214.736 100.27 214.608 100.846C214.192 102.99 213.072 109.39 213.072 112.59C213.072 113.198 213.104 114.03 213.2 114.67C213.68 113.582 214.192 112.462 214.64 111.406L216.624 112.974C215.728 115.63 214.672 119.118 214.32 120.814C214.224 121.294 214.16 121.998 214.16 122.318C214.16 122.67 214.192 123.182 214.224 123.63L210.512 123.886C209.872 121.678 209.264 117.774 209.264 113.422C209.264 108.622 210.256 103.214 210.608 100.75C210.704 99.8543 210.896 98.6383 210.928 97.6143L215.408 97.9983ZM244.368 114.286L243.504 103.342L243.344 98.5743H248.656L248.496 103.342L247.632 114.286H244.368ZM246 122.798C244.368 122.798 243.184 121.646 243.184 119.982C243.184 118.286 244.4 117.134 246 117.134C247.6 117.134 248.816 118.286 248.816 119.982C248.816 121.646 247.6 122.798 246 122.798Z" fill="#F53A3A"/>
</svg>
