<svg width="49" height="48" viewBox="0 0 49 48" fill="none" xmlns="http://www.w3.org/2000/svg">
<g clip-path="url(#clip0_2828_15684)">
<path d="M24.5999 47.3334C37.4866 47.3334 47.9333 36.8867 47.9333 24.0001C47.9333 11.1134 37.4866 0.666748 24.5999 0.666748C11.7133 0.666748 1.2666 11.1134 1.2666 24.0001C1.2666 36.8867 11.7133 47.3334 24.5999 47.3334Z" fill="#F6D927"/>
<path d="M24.6001 48C11.3668 48 0.600098 37.2333 0.600098 24C0.600098 10.7667 11.3668 0 24.6001 0C37.8334 0 48.6001 10.7667 48.6001 24C48.6001 37.2333 37.8334 48 24.6001 48ZM24.6001 1.33333C12.1001 1.33333 1.93343 11.5 1.93343 24C1.93343 36.5 12.1001 46.6667 24.6001 46.6667C37.1001 46.6667 47.2668 36.5 47.2668 24C47.2668 11.5 37.1001 1.33333 24.6001 1.33333Z" fill="#E09B00"/>
<path d="M24.6001 42C34.5412 42 42.6001 33.9411 42.6001 24C42.6001 14.0589 34.5412 6 24.6001 6C14.659 6 6.6001 14.0589 6.6001 24C6.6001 33.9411 14.659 42 24.6001 42Z" fill="#F6D927"/>
<path d="M26.7935 12.9534C31.1135 12.9534 34.4001 16.18 34.4001 20.42C34.4001 24.66 31.1135 27.9134 26.7935 27.9134H23.0068V35.0467H18.7935V12.9534H26.7935ZM26.5135 23.9867C28.4201 23.9867 29.9068 22.4134 29.9068 20.3934C29.9068 18.3734 28.4468 16.8867 26.5135 16.8867H23.0068V23.9867H26.5135Z" fill="#E09B00"/>
<path opacity="0.5" d="M30.6001 10.96C33.2601 10.96 35.8201 11.4133 38.2001 12.2333C34.9001 8.42 30.0268 6 24.6001 6C14.6734 6 6.6001 14.0733 6.6001 24C6.6001 26.1267 6.97343 28.1733 7.65343 30.0667C9.6401 19.2 19.1534 10.9533 30.6001 10.9533V10.96Z" fill="white"/>
<path d="M24.6003 42.6666C14.3069 42.6666 5.93359 34.2932 5.93359 23.9999C5.93359 13.7066 14.3069 5.33325 24.6003 5.33325C34.8936 5.33325 43.2669 13.7066 43.2669 23.9999C43.2669 34.2932 34.8936 42.6666 24.6003 42.6666ZM24.6003 6.66659C15.0403 6.66659 7.26693 14.4399 7.26693 23.9999C7.26693 33.5599 15.0403 41.3332 24.6003 41.3332C34.1603 41.3332 41.9336 33.5599 41.9336 23.9999C41.9336 14.4399 34.1603 6.66659 24.6003 6.66659Z" fill="#E09B00"/>
</g>
<defs>
<clipPath id="clip0_2828_15684">
<rect width="48" height="48" fill="white" transform="translate(0.600098)"/>
</clipPath>
</defs>
</svg>
