<svg width="244" height="121" viewBox="0 0 244 121" fill="none" xmlns="http://www.w3.org/2000/svg">
<path d="M220.125 58.152L218.474 61.9187C217.501 60.4797 216.95 59.3793 216.189 57.7711V71.3144H210.179V58.4482C208.697 61.5378 207.258 63.5693 205.058 66.151L202.941 58.7022C205.862 56.3744 207.851 53.4118 209.501 50.0683H203.788V44.3546H210.179V31.6154H216.189V44.3546H222.029V47.7828L225.627 43.6352C228.293 45.2434 230.536 47.1056 232.695 49.3488L228.378 54.0043C226.6 51.8458 224.399 49.6874 222.029 48.2907V50.0683H216.612C217.754 52.3114 219.32 54.2582 221.098 56.0358L220.759 56.84L233.626 54.3429V39.3605L229.859 43.5505C227.743 40.9688 225.965 39.2759 223.256 37.329L227.066 33.1814C229.478 34.6627 231.679 36.3979 233.626 38.4294V31.5308H240.059V53.0732L243.064 52.4807L243.614 58.7022L240.059 59.3793V71.1875H233.626V60.649L220.844 63.1038L220.125 58.152ZM223.595 34.1548C223.045 37.0751 221.902 40.4186 220.632 43.085L216.442 41.1804C217.416 38.8527 218.389 35.5091 218.728 32.9697L223.595 34.1548ZM207.428 33.0967C208.401 35.5938 209.163 38.5987 209.544 41.2227L205.1 43.0426C204.888 39.8684 204.338 37.2867 203.153 34.3664L207.428 33.0967Z" fill="#F16122"/>
<path d="M167.559 41.0534C166.459 42.1115 165.655 42.7463 164.3 43.4658L160.745 38.5563C163.665 36.8211 166.755 34.3664 168.194 31.1921L174.458 31.954C174.077 32.8851 173.781 33.4353 173.273 34.324H200.106V39.9953H196.677V44.1007H201.121V49.8143H196.677V53.9619H200.106V59.6332H162.396V53.9619H167.051V49.8143H161.422V44.1007H167.559V41.0534ZM175.431 39.9953H172.426V44.1007H175.431V39.9953ZM183.303 39.9953H180.214V44.1007H183.303V39.9953ZM191.133 39.9953H188.043V44.1007H191.133V39.9953ZM175.431 49.8143H172.426V53.9619H175.431V49.8143ZM183.303 49.8143H180.214V53.9619H183.303V49.8143ZM191.133 49.8143H188.043V53.9619H191.133V49.8143ZM171.241 61.7494C170.056 65.5585 168.786 68.6904 166.247 71.78L160.914 68.1402C163.2 65.7278 164.639 62.8498 165.782 59.7179L171.241 61.7494ZM195.916 59.7179C198.328 62.9344 199.725 65.2622 201.46 68.902L195.619 71.6953C194.265 68.3095 192.403 65.0929 190.456 62.0033L195.916 59.7179ZM187.112 60.8183C188.213 63.4846 189.779 67.9286 190.202 70.7219L183.938 71.2298C183.515 67.7169 182.711 64.5427 181.526 61.2415L187.112 60.8183ZM178.563 61.1145C179.071 63.9079 179.325 68.1402 179.325 70.9758L173.019 71.1451C173.357 69.1559 173.357 66.5319 173.357 64.5004C173.357 63.3577 173.357 62.3419 173.273 61.2838L178.563 61.1145Z" fill="#F16122"/>
<path d="M122.02 33.1814H155.793V70.0448H122.02V33.1814ZM128.58 48.2907H149.106V39.4452H128.58V48.2907ZM128.58 54.3853V63.781H149.106V54.3853H128.58Z" fill="#F16122"/>
<path d="M59.1494 35.7207C59.1494 28.1872 60.2498 21.8387 62.4506 16.506C66.8522 5.92523 75.1475 0 86.3208 0C91.9921 0 96.8169 1.43899 100.965 4.23231C109.091 9.98825 113.662 20.7383 113.662 35.7207C113.662 43.2542 112.561 49.6026 110.36 54.9353C105.959 65.6007 97.5788 71.4413 86.3208 71.4413C80.7342 71.4413 75.9093 70.0023 71.8463 67.1244C63.7203 61.4531 59.1494 50.6184 59.1494 35.7207ZM73.7085 35.7207C73.7085 50.1952 78.1948 58.3212 86.3208 58.3212C94.5315 58.3212 99.1024 50.0259 99.1024 35.8053C99.1024 21.3308 94.4469 13.1202 86.3208 13.1202C78.1948 13.1202 73.7085 21.2462 73.7085 35.7207Z" fill="#F16122"/>
<path d="M0.386719 37.4982C0.386719 29.9647 1.57176 23.3623 3.94186 17.691C8.68204 6.4331 17.5699 0 29.3357 0C37.0385 0 43.8102 2.62403 49.8201 7.87209L44.8259 19.0454C40.0011 13.9666 35.7688 11.9351 30.4361 11.9351C20.2786 11.9351 14.6919 19.6379 14.0994 34.197C16.8927 28.1025 22.2254 25.0553 30.0975 25.0553C34.2452 25.0553 37.9696 25.9864 41.1862 27.9332C47.5346 31.7423 51.259 38.6833 51.259 47.5711C51.259 52.2267 50.2433 56.3743 48.1271 59.9295C43.9795 67.1244 36.446 71.4413 26.627 71.4413C10.0364 71.4413 0.386719 58.9137 0.386719 37.4982ZM15.7923 48.1636C15.7923 55.1893 20.2786 60.1834 26.627 60.1834C33.1448 60.1834 37.7157 55.1893 37.7157 48.079C37.7157 40.9687 33.3987 36.2285 26.7117 36.2285C20.2786 36.2285 15.7923 40.9687 15.7923 48.1636Z" fill="#F16122"/>
<path d="M217.322 111.525L216.175 114.144C215.498 113.143 215.115 112.378 214.585 111.26V120.677H210.407V111.731C209.377 113.879 208.377 115.291 206.846 117.086L205.375 111.907C207.405 110.289 208.788 108.229 209.936 105.904H205.964V101.932H210.407V93.0745H214.585V101.932H218.646V104.315L221.148 101.432C223.001 102.55 224.561 103.845 226.062 105.404L223.06 108.641C221.824 107.14 220.294 105.64 218.646 104.669V105.904H214.88C215.674 107.464 216.763 108.818 217.999 110.054L217.764 110.613L226.709 108.876V98.4595L224.09 101.373C222.619 99.5777 221.383 98.4007 219.5 97.0471L222.148 94.1633C223.825 95.1932 225.356 96.3997 226.709 97.8121V93.0156H231.182V107.994L233.271 107.582L233.654 111.907L231.182 112.378V120.588H226.709V113.261L217.822 114.968L217.322 111.525ZM219.735 94.8401C219.353 96.8705 218.558 99.1952 217.675 101.049L214.762 99.7249C215.439 98.1064 216.116 95.7817 216.351 94.0161L219.735 94.8401ZM208.494 94.1044C209.171 95.8406 209.701 97.9298 209.966 99.7543L206.876 101.02C206.729 98.8126 206.346 97.0176 205.522 94.9872L208.494 94.1044Z" fill="#F16122"/>
<path d="M180.774 99.6364C180.009 100.372 179.45 100.813 178.508 101.314L176.036 97.9002C178.067 96.6938 180.215 94.987 181.215 92.78L185.57 93.3097C185.305 93.9571 185.099 94.3396 184.746 94.9576H203.403V98.9007H201.019V101.755H204.109V105.728H201.019V108.611H203.403V112.555H177.184V108.611H180.421V105.728H176.507V101.755H180.774V99.6364ZM186.247 98.9007H184.158V101.755H186.247V98.9007ZM191.72 98.9007H189.572V101.755H191.72V98.9007ZM197.164 98.9007H195.016V101.755H197.164V98.9007ZM186.247 105.728H184.158V108.611H186.247V105.728ZM191.72 105.728H189.572V108.611H191.72V105.728ZM197.164 105.728H195.016V108.611H197.164V105.728ZM183.334 114.026C182.51 116.674 181.627 118.852 179.862 121L176.154 118.469C177.743 116.792 178.743 114.791 179.538 112.613L183.334 114.026ZM200.49 112.613C202.167 114.85 203.138 116.468 204.344 118.999L200.284 120.941C199.342 118.587 198.047 116.351 196.694 114.203L200.49 112.613ZM194.369 113.379C195.134 115.232 196.223 118.322 196.517 120.264L192.162 120.617C191.868 118.175 191.308 115.968 190.485 113.673L194.369 113.379ZM188.425 113.585C188.778 115.527 188.954 118.469 188.954 120.441L184.57 120.559C184.805 119.176 184.805 117.351 184.805 115.939C184.805 115.144 184.805 114.438 184.746 113.702L188.425 113.585Z" fill="#F16122"/>
<path d="M149.11 94.1631H172.593V119.794H149.11V94.1631ZM153.671 104.668H167.943V98.5182H153.671V104.668ZM153.671 108.906V115.438H167.943V108.906H153.671Z" fill="#F16122"/>
<path d="M125.769 106.993C125.769 104.374 126.151 102.167 126.916 100.313C128.446 96.635 131.33 94.5752 135.214 94.5752C137.186 94.5752 138.863 95.0754 140.305 96.0465C143.13 98.0475 144.719 101.785 144.719 106.993C144.719 109.612 144.337 111.819 143.572 113.673C142.041 117.381 139.128 119.411 135.214 119.411C133.272 119.411 131.595 118.911 130.183 117.91C127.358 115.939 125.769 112.172 125.769 106.993ZM130.83 106.993C130.83 112.025 132.39 114.85 135.214 114.85C138.069 114.85 139.658 111.966 139.658 107.023C139.658 101.991 138.039 99.1363 135.214 99.1363C132.39 99.1363 130.83 101.961 130.83 106.993Z" fill="#F16122"/>
<path d="M118.156 111.907C118.156 109.936 116.508 108.759 113.889 108.759H111.094V104.462H114.154C116.361 104.462 117.773 103.315 117.773 101.638C117.773 99.9014 116.39 98.9009 114.242 98.9009C112.153 98.9009 110.328 99.872 108.769 101.785L106.974 97.8415C108.887 95.664 111.417 94.5752 114.536 94.5752C116.126 94.5752 117.538 94.84 118.744 95.3697C121.187 96.4291 122.57 98.3418 122.57 100.843C122.57 103.344 121.069 105.375 118.48 106.434C121.569 107.346 123.129 109.318 123.129 112.29C123.129 113.732 122.776 114.968 122.07 116.027C120.657 118.175 118.038 119.411 114.625 119.411C111.123 119.411 108.269 118.175 106.032 115.733L108.092 111.76C109.858 113.967 111.918 115.056 114.242 115.056C116.596 115.056 118.156 113.791 118.156 111.907Z" fill="#F16122"/>
<path d="M104.208 112.349L103.002 116.38C101.324 115.321 99.853 114.526 98.3816 113.908C98.2934 115.586 97.8225 116.733 97.1163 117.557C96.0864 118.764 94.4091 119.352 92.3198 119.352C88.7003 119.352 85.6988 117.292 85.6988 113.908C85.6988 111.495 87.1407 109.847 89.1417 109.112C90.0539 108.759 91.0544 108.641 92.0844 108.641C92.6435 108.641 93.2909 108.67 93.9382 108.759C93.9382 107.199 93.9382 105.08 93.9088 102.873C91.4076 102.903 88.8769 102.844 86.2579 102.726L86.4051 98.6947C88.9652 98.8124 91.4076 98.8713 93.8794 98.8713C93.85 97.0763 93.85 95.4578 93.8205 94.2808H98.2345C98.2639 95.9581 98.2639 97.4294 98.2934 98.783C99.9412 98.7242 101.619 98.6359 103.355 98.5182L103.414 102.52C101.677 102.638 100 102.726 98.3228 102.785C98.3522 104.757 98.3522 106.934 98.3816 109.759C100.294 110.406 102.384 111.348 104.208 112.349ZM80.4021 94.7516L84.8455 95.0458C83.9921 99.2538 83.4918 104.139 83.4918 108.464C83.4918 111.613 83.8155 114.997 84.3452 118.381L79.9312 118.881C79.431 115.438 79.1367 111.996 79.1367 108.464C79.1367 103.903 79.6958 99.0479 80.4021 94.7516ZM92.0549 115.644C92.9083 115.644 93.3203 115.409 93.6145 114.938C93.8794 114.526 93.9971 113.732 94.0265 112.496C93.2614 112.378 92.5552 112.29 92.0549 112.29C91.5253 112.29 91.1722 112.319 90.7896 112.437C90.0539 112.672 89.642 113.261 89.642 113.879C89.642 115.056 90.7013 115.644 92.0549 115.644Z" fill="#F16122"/>
<path d="M52.2702 104.139H48.3564V96.4878H51.9759C51.5934 95.6345 51.1225 94.8105 50.6223 94.0454L55.154 93.0449C55.7425 93.9572 56.4193 95.4579 56.8607 96.4878H59.156V93.0155H63.5994V96.4878H66.0712C66.7186 95.2519 67.1305 94.2514 67.6602 92.9861L72.1036 94.0454C71.7799 94.8694 71.4562 95.6933 70.9854 96.4878H74.5754V104.139H70.6323V108.494H63.6288V109.847H73.3984V116.674C73.3984 117.381 73.369 118.293 72.8393 118.881C72.339 119.411 71.4268 119.646 70.6912 119.646H66.4832L65.6004 115.733H68.131C68.6019 115.733 69.0138 115.674 69.0138 114.968V113.261H63.6288V120.676H59.156V113.261H53.8886V119.646H49.4158V109.847H59.156V108.494H52.2702V104.139ZM52.6527 101.137H70.2498V99.9602H52.6527V101.137ZM66.3949 103.933H56.5076V105.728H66.3949V103.933Z" fill="#F16122"/>
<path d="M21.49 93.2214C23.1673 94.3985 25.0801 96.2229 26.316 97.8708L23.0791 101.108C21.5489 99.195 20.4601 97.8414 18.4885 96.3406L21.49 93.2214ZM27.1399 115.203C28.1404 115.674 29.5823 115.909 30.7005 115.909H46.2966L45.3843 120.088H30.112C29.0232 120.088 27.4636 119.676 26.4925 119.176C25.4038 118.646 24.7269 117.969 23.9619 117.057C22.7259 118.44 21.1663 119.911 19.6067 120.882L17.9883 116.174C19.0476 115.674 20.0187 115.056 20.9309 114.291V107.994H18.3414V103.844H25.1389V112.349C25.3743 113.614 25.7569 114.467 26.9339 115.085V99.5481H31.0242C30.4651 99.1656 29.8472 98.8125 29.2292 98.4594L30.9654 97.2529H26.8162V93.8688H44.1484V97.2529C42.8831 98.1945 41.706 98.8419 40.2936 99.5481H44.8841V112.672C44.8841 113.29 44.7664 114.114 44.325 114.526C43.9424 114.938 43.1479 115.203 42.5888 115.203H39.0576L38.3808 111.848H40.117C40.6173 111.848 40.7644 111.613 40.7644 111.172V110.436H37.8806V115.085H33.7903V110.436H30.9948V115.203H27.1399ZM33.6432 97.2529C34.32 97.7825 35.0851 98.3711 35.7325 98.9596C36.7918 98.3416 37.3215 98.0768 38.322 97.2529H33.6432ZM33.7903 102.491H30.9948V103.933H33.7903V102.491ZM40.7644 102.491H37.8806V103.933H40.7644V102.491ZM33.7903 106.405H30.9948V107.846H33.7903V106.405ZM40.7644 106.405H37.8806V107.846H40.7644V106.405Z" fill="#F16122"/>
</svg>
