<svg width="41" height="40" viewBox="0 0 41 40" fill="none" xmlns="http://www.w3.org/2000/svg">
<path d="M33.5976 6.875V10.625H37.636V12.5H33.5976V16.25H31.5783V12.5H27.5399V10.625H31.5783V6.875H33.5976Z" fill="#EF0AA1"/>
<path fill-rule="evenodd" clip-rule="evenodd" d="M24.4265 18.1851C23.9782 18.6295 24.0863 19.3401 24.6587 19.6363C26.0086 20.3338 28.2247 21.5741 29.5594 22.8126C31.2505 24.3838 31.5251 27.9276 31.5695 31.2416C31.5837 32.2804 30.6801 33.1251 29.5624 33.1251H11.3823C10.2646 33.1251 9.36103 32.2804 9.37516 31.2416C9.41959 27.9276 9.6942 24.3838 11.3863 22.8126C12.72 21.5741 14.9361 20.3338 16.286 19.6363C16.8594 19.3401 16.9665 18.6295 16.5182 18.1851C15.1158 16.7966 14.4152 15.6248 14.4152 12.5001C14.4152 9.68758 16.4344 6.87508 20.4708 6.87508C24.5113 6.87508 26.5306 9.68758 26.5306 12.5001C26.5306 15.6248 25.8289 16.7966 24.4265 18.1851ZM11.3945 31.2589L11.3944 31.2651L29.5625 31.2501C29.5617 31.2138 29.5609 31.1756 29.56 31.1356C29.5273 29.589 29.4378 25.3518 28.1318 24.1382C27.2535 23.3226 25.6714 22.3054 23.6774 21.2741C22.8606 20.8523 22.3104 20.1201 22.166 19.2651C22.0216 18.4035 22.3084 17.5429 22.9535 16.9035C23.948 15.9182 24.5113 15.2282 24.5113 12.5001C24.5113 10.7704 23.4533 8.75008 20.4709 8.75008C17.4915 8.75008 16.4344 10.7704 16.4344 12.5001C16.4344 15.2282 16.9968 15.9182 17.9912 16.9035C18.6364 17.5429 18.9241 18.4035 18.7787 19.2651C18.6344 20.1201 18.0841 20.8523 17.2684 21.2741C15.2744 22.3054 13.6923 23.3226 12.8139 24.1382C11.4761 25.3815 11.4148 29.7976 11.3945 31.2589Z" fill="#EF0AA1"/>
</svg>
