<?xml version="1.0" encoding="utf-8"?>
<!-- Generator: Adobe Illustrator 23.0.1, SVG Export Plug-In . SVG Version: 6.00 Build 0)  -->
<svg version="1.2" baseProfile="tiny" id="Layer_1" xmlns="http://www.w3.org/2000/svg" xmlns:xlink="http://www.w3.org/1999/xlink"
	 x="0px" y="0px" viewBox="0 0 184.3 85" xml:space="preserve">
<g>
	<path fill="#FFFFFF" d="M8.4,85C3.8,85,0,81.3,0,76.6V8.4C0,3.8,3.8,0,8.4,0h167.5c4.6,0,8.4,3.8,8.4,8.4v68.3
		c0,4.6-3.8,8.4-8.4,8.4H8.4z"/>
	<g>
		<g>
			<path fill="#BF0000" d="M162.6,28.4L151,63.6c-1.2,3.7-4,5.9-7.4,5.9c-2.2,0-4.2-0.8-5.7-2.3l2.2-3.3c1,0.9,2,1.3,3.3,1.3
				c1.8,0,2.7-0.8,3.5-3.2l0.7-2l-11.2-31.6h4.8l8.6,25.1l8.1-25.1H162.6z"/>
			<path fill="#BF0000" d="M127.2,57.2c-2.5,3-5.4,4.4-9.1,4.4c-8.5,0-14.3-6.9-14.3-17c0-10.1,5.9-16.9,14.4-16.9
				c3.8,0,6.5,1.1,9.1,3.8l0.7-3h4.1v32.3H128L127.2,57.2z M108.8,44.6c0,7.3,4,12.7,9.4,12.7c5.4,0,9.4-5.3,9.4-12.6
				c0-7.4-4-12.7-9.4-12.7C112.8,31.9,108.8,37.3,108.8,44.6z"/>
			<path fill="#BF0000" d="M89.6,20.3c7.2,0,12.4,5,12.4,12.1c0,7.1-5.1,12.2-12.4,12.2h-8.8v16.1h-4.6V20.3H89.6z M89.3,40.3
				c4.5,0,7.8-3.3,7.8-7.9c0-4.6-3.2-7.8-7.8-7.8h-8.5v15.7H89.3z"/>
		</g>
		<g>
			<polygon fill="#BF0000" points="28.8,71.1 21.7,65.2 71.4,65.2 			"/>
			<path fill="#BF0000" d="M36.8,60.7V47.5h5.7l9.9,13.2h10.1l-12-15.9c3.7-2.7,6.2-7,6.2-11.9c0-8.1-6.6-14.7-14.7-14.7H28.8v42.5
				H36.8z M36.8,26.3h5.3c3.6,0,6.6,3,6.6,6.6c0,3.6-3,6.6-6.6,6.6h-5.3V26.3z"/>
		</g>
	</g>
</g>
</svg>
