<svg width="150" height="40" viewBox="0 0 150 40" fill="none" xmlns="http://www.w3.org/2000/svg">
<path d="M17.6376 3.7583H0V18.7918C0 20.216 0.143624 21.6428 0.425503 23.0308C1.04564 26.0831 2.3651 29.0187 4.24295 31.518C5.44966 33.1247 6.8765 34.5502 8.48186 35.7569C10.9812 37.6348 13.9168 38.9542 16.9691 39.5743C18.3584 39.8562 19.7839 39.9999 21.208 39.9999H36.2415V22.5502L17.6376 3.7583Z" fill="#005300"/>
<path d="M8.68044 6.26465H2.41602V12.5277H14.9435L8.68044 6.26465Z" fill="#2AC72A"/>
<path d="M21.208 0V18.7919L27.4724 25.0563V1.07382C25.5127 0.381208 23.4053 0 21.208 0Z" fill="#009500"/>
<path d="M8.68043 0H2.41602L8.68043 6.26442V0Z" fill="#8DE98D"/>
<path d="M14.9435 12.5278H2.41602V18.7922H21.2079L14.9435 12.5278Z" fill="#00B900"/>
<path d="M21.2079 18.7922H2.41602C2.41602 20.9895 2.79722 23.0969 3.48984 25.0567H27.4724L21.2079 18.7922Z" fill="#009500"/>
<path d="M8.68043 6.26442L2.41602 0V6.26442H8.68043Z" fill="#009500"/>
<path d="M8.68066 0V6.26442L14.9437 12.5275V6.26442V0H8.68066Z" fill="#5FD95F"/>
<path d="M14.9438 0V12.5275L21.2083 18.7919V0H14.9438Z" fill="#2AC72A"/>
<path d="M33.7356 31.3193H7.2041C7.66853 31.8375 8.16115 32.3301 8.67927 32.7945C10.4873 34.4133 12.6095 35.6844 14.9437 36.5099C16.9034 37.2025 19.0108 37.5838 21.2081 37.5838H40L33.7356 31.3193V31.3193Z" fill="#5FD95F"/>
<path d="M38.9262 12.5267C38.1007 10.1925 36.8296 8.07033 35.2108 6.26228C34.7463 5.74416 34.2537 5.25154 33.7356 4.78711V31.3186L40 37.5831V18.7911C40 16.5938 39.6188 14.4864 38.9262 12.5267Z" fill="#009500"/>
<path d="M27.4727 1.07446V25.057L33.7371 31.3214V4.7899C31.929 3.17111 29.8069 1.89997 27.4727 1.07446V1.07446Z" fill="#2AC72A"/>
<path d="M27.4723 25.0562H3.48975C4.31525 27.3904 5.58639 29.5125 7.20518 31.3206H33.7353L27.4709 25.0562H27.4723Z" fill="#00B900"/>
<path d="M18.6024 11.0364L18.7152 10.4243H17.6575L17.8763 9.38804H20.1823L19.7434 11.6256C19.491 11.8981 19.1957 12.1021 18.8548 12.2377C18.5138 12.3733 18.1501 12.4417 17.7622 12.4417C17.2333 12.4417 16.789 12.3464 16.432 12.1545C16.0736 11.9625 15.8051 11.6941 15.6226 11.3491C15.4414 11.0041 15.3501 10.6015 15.3501 10.1437C15.3501 9.68603 15.4226 9.26455 15.5649 8.88066C15.7085 8.49811 15.9098 8.16522 16.1702 7.88334C16.4293 7.60146 16.7367 7.38267 17.0924 7.22965C17.4481 7.07529 17.84 6.99878 18.2682 6.99878C18.6306 6.99878 18.9756 7.07126 19.3004 7.21489C19.6253 7.35851 19.9112 7.56925 20.1581 7.84576L19.3877 8.81354C19.2414 8.60683 19.0655 8.4471 18.8588 8.33301C18.6521 8.22026 18.436 8.16254 18.2092 8.16254C17.9219 8.16254 17.6669 8.24442 17.4454 8.40817C17.2239 8.57193 17.0481 8.79475 16.9206 9.07663C16.7917 9.35851 16.7273 9.67931 16.7273 10.0364C16.7273 10.4149 16.8239 10.7102 17.0186 10.925C17.2118 11.1397 17.4857 11.2458 17.8387 11.2458C18.1568 11.2458 18.4105 11.1746 18.6024 11.0337" fill="white"/>
<path d="M22.6108 12.308C22.2524 12.308 21.9397 12.2342 21.6699 12.0852C21.4001 11.9362 21.192 11.7268 21.0457 11.4584C20.8994 11.1886 20.8269 10.8732 20.8269 10.5094C20.8269 10.1765 20.8846 9.86913 21.0014 9.58725C21.1168 9.30537 21.2806 9.05705 21.4927 8.84228C21.7048 8.62752 21.9504 8.46242 22.2296 8.34295C22.5088 8.22483 22.8135 8.16577 23.141 8.16577C23.5034 8.16577 23.8188 8.2396 24.086 8.38859C24.3531 8.53758 24.5598 8.74698 24.7061 9.01543C24.8524 9.28523 24.9249 9.60201 24.9249 9.96443C24.9249 10.2973 24.8672 10.6047 24.7504 10.8866C24.635 11.1685 24.4712 11.4168 24.2591 11.6315C24.047 11.8463 23.8014 12.0127 23.5222 12.1309C23.243 12.249 22.9383 12.308 22.6108 12.308ZM22.7316 11.1738C22.8873 11.1738 23.0309 11.1215 23.1625 11.0154C23.294 10.9094 23.3987 10.7698 23.4806 10.5953C23.5611 10.4208 23.6014 10.2315 23.6014 10.0248C23.6014 9.80335 23.549 9.62617 23.443 9.49597C23.337 9.36443 23.196 9.3 23.0188 9.3C22.8631 9.3 22.7195 9.35235 22.588 9.45839C22.4564 9.56443 22.3504 9.70402 22.2699 9.87852C22.1893 10.053 22.1491 10.2423 22.1491 10.449C22.1491 10.6705 22.2014 10.8476 22.3074 10.9778C22.4135 11.1094 22.5544 11.1738 22.7303 11.1738H22.7316Z" fill="white"/>
<path d="M13.2497 20.2957C12.7209 20.2957 12.2766 20.2004 11.9195 20.0085C11.5611 19.8165 11.2927 19.5481 11.1101 19.2031C10.9289 18.8581 10.8376 18.4555 10.8376 17.9977C10.8376 17.54 10.9101 17.1186 11.0524 16.7347C11.196 16.3521 11.3974 16.0192 11.6578 15.7373C11.9168 15.4555 12.2242 15.2367 12.5799 15.0837C12.9356 14.9293 13.3276 14.8528 13.7558 14.8528C14.1182 14.8528 14.4631 14.9253 14.788 15.0689C15.1128 15.2125 15.3987 15.4233 15.6457 15.6998L14.8752 16.6675C14.7289 16.4608 14.5531 16.3011 14.3464 16.187C14.1397 16.0743 13.9235 16.0165 13.6967 16.0165C13.4095 16.0165 13.1544 16.0984 12.9329 16.2622C12.7115 16.4259 12.5356 16.6488 12.4081 16.9306C12.2793 17.2125 12.2148 17.5333 12.2148 17.8904C12.2148 18.2689 12.3115 18.5642 12.5061 18.779C12.6994 18.9937 12.9732 19.0998 13.3262 19.0998C13.6444 19.0998 13.898 19.0286 14.09 18.8877L14.2027 18.2756H13.145L13.3638 17.2394H15.6699L15.2309 19.4769C14.9786 19.7494 14.6833 19.9534 14.3423 20.089C14.0027 20.2246 13.6376 20.293 13.2497 20.293V20.2957Z" fill="white"/>
<path d="M15.9194 20.1805L16.4255 17.5953C16.451 17.4638 16.4684 17.3336 16.4778 17.202C16.4872 17.0705 16.4926 16.943 16.4926 16.8168C16.4926 16.7255 16.4899 16.6342 16.4845 16.5403C16.4792 16.4477 16.4725 16.355 16.4617 16.2638H17.5879C17.608 16.3752 17.6228 16.4839 17.6335 16.5926C17.6429 16.7013 17.6483 16.8128 17.6483 16.9295V16.9899C17.7839 16.7376 17.9651 16.5376 18.1892 16.3886C18.4134 16.2396 18.6443 16.1658 18.8805 16.1658C18.9919 16.1658 19.0939 16.1819 19.1865 16.2154C19.2792 16.2476 19.3597 16.2919 19.4241 16.3483L19.0161 17.5725C18.9409 17.5174 18.8456 17.4718 18.7329 17.4369C18.6201 17.402 18.5127 17.3846 18.412 17.3846C18.2107 17.3846 18.0349 17.457 17.8872 17.6007C17.7382 17.7443 17.6335 17.9725 17.5731 18.2852L17.2027 20.1832H15.9167L15.9194 20.1805Z" fill="white"/>
<path d="M21.2459 20.2946C20.6513 20.2946 20.1868 20.1389 19.8513 19.8262C19.5157 19.5134 19.3479 19.0825 19.3479 18.5336C19.3479 18.0651 19.4513 17.6517 19.658 17.2933C19.8647 16.9349 20.1506 16.6557 20.5157 16.4544C20.8808 16.253 21.3009 16.1523 21.7747 16.1523C22.0513 16.1523 22.2969 16.2007 22.5076 16.296C22.7197 16.3913 22.8862 16.5255 23.007 16.696C23.1278 16.8678 23.1882 17.0638 23.1882 17.2852C23.1882 17.708 23.0083 18.0275 22.6472 18.2409C22.2862 18.4557 21.7237 18.5819 20.9573 18.6221C20.8164 18.6275 20.7076 18.6329 20.6325 18.6369C20.6929 19.0651 20.9425 19.2799 21.3815 19.2799C21.5519 19.2799 21.7157 19.2409 21.8687 19.1631C22.0231 19.0852 22.1828 18.9684 22.3492 18.8114L22.8029 19.7188C22.5962 19.9 22.356 20.0409 22.0808 20.1416C21.8056 20.2423 21.5278 20.2933 21.2445 20.2933L21.2459 20.2946ZM21.6164 17.096C21.4043 17.096 21.219 17.1658 21.0607 17.304C20.9023 17.4423 20.7841 17.6248 20.709 17.8517C20.7895 17.8517 20.8754 17.849 20.9667 17.8436C21.3251 17.8342 21.5801 17.7886 21.7345 17.708C21.8888 17.6275 21.9653 17.5161 21.9653 17.3752C21.9653 17.2893 21.9331 17.2221 21.87 17.1711C21.807 17.1215 21.7224 17.096 21.6164 17.096V17.096Z" fill="white"/>
<path d="M25.3626 20.2946C24.768 20.2946 24.3022 20.1389 23.968 19.8262C23.6324 19.5134 23.4646 19.0825 23.4646 18.5336C23.4646 18.0651 23.568 17.6517 23.7747 17.2933C23.9814 16.9349 24.2673 16.6557 24.6324 16.4544C24.9975 16.253 25.4176 16.1523 25.8914 16.1523C26.168 16.1523 26.4136 16.2007 26.6243 16.296C26.8364 16.3913 27.0029 16.5255 27.1237 16.696C27.2445 16.8678 27.3049 17.0638 27.3049 17.2852C27.3049 17.708 27.125 18.0275 26.7639 18.2409C26.4029 18.4557 25.8404 18.5819 25.074 18.6221C24.9331 18.6275 24.8243 18.6329 24.7492 18.6369C24.8096 19.0651 25.0592 19.2799 25.4982 19.2799C25.67 19.2799 25.8324 19.2409 25.9854 19.1631C26.1398 19.0852 26.2995 18.9684 26.4659 18.8114L26.9196 19.7188C26.7129 19.9 26.4727 20.0409 26.1975 20.1416C25.9223 20.2423 25.6445 20.2933 25.3626 20.2933V20.2946ZM25.7331 17.096C25.521 17.096 25.3357 17.1658 25.1774 17.304C25.019 17.4423 24.9008 17.6248 24.8257 17.8517C24.9062 17.8517 24.9921 17.849 25.0834 17.8436C25.4418 17.8342 25.6968 17.7886 25.8512 17.708C26.0055 17.6275 26.082 17.5161 26.082 17.3752C26.082 17.2893 26.0498 17.2221 25.9881 17.1711C25.925 17.1215 25.8404 17.096 25.7344 17.096H25.7331Z" fill="white"/>
<path d="M27.4158 20.1805L27.9218 17.5953C27.9473 17.4638 27.9648 17.3336 27.9742 17.202C27.9836 17.0705 27.9889 16.943 27.9889 16.8168C27.9889 16.7255 27.9862 16.6342 27.9809 16.5403C27.9755 16.4477 27.9688 16.355 27.9581 16.2638H29.0842C29.1044 16.3591 29.1178 16.457 29.1258 16.555C29.1339 16.653 29.1393 16.751 29.1446 16.8463C29.2963 16.6248 29.4789 16.4557 29.6923 16.3403C29.9057 16.2248 30.1325 16.1658 30.3688 16.1658C30.7473 16.1658 31.0305 16.2745 31.2198 16.4906C31.4091 16.7067 31.503 16.9926 31.503 17.3443C31.503 17.4396 31.5003 17.5309 31.495 17.6168C31.4896 17.7027 31.4748 17.8007 31.4493 17.9121L31.0104 20.1805H29.7258L30.1648 17.9201C30.1795 17.845 30.1876 17.7792 30.1876 17.7242C30.1876 17.598 30.1567 17.4973 30.0936 17.4221C30.0305 17.347 29.9406 17.3094 29.8252 17.3094C29.6386 17.3094 29.4829 17.3872 29.3567 17.5443C29.2305 17.7 29.1446 17.8973 29.099 18.1336L28.6976 20.1819H27.4131L27.4158 20.1805Z" fill="white"/>
<path d="M7.2632 28.0136L8.04978 23.976H6.64307L6.86991 22.7961H11.0202L10.7934 23.976H9.38669L8.60011 28.0136H7.26186H7.2632Z" fill="white"/>
<path d="M11.8283 28.2794C11.4699 28.2794 11.1572 28.2055 10.8874 28.0565C10.6176 27.9076 10.4095 27.6982 10.2632 27.4284C10.1169 27.1586 10.0444 26.8431 10.0444 26.4794C10.0444 26.1465 10.1022 25.8391 10.2189 25.5572C10.3344 25.2753 10.4981 25.027 10.7102 24.8123C10.9223 24.5975 11.1679 24.4324 11.4471 24.3129C11.7263 24.1948 12.031 24.1357 12.3585 24.1357C12.7209 24.1357 13.0364 24.2096 13.3035 24.3586C13.5706 24.5076 13.7773 24.7169 13.9236 24.9867C14.0699 25.2565 14.1424 25.572 14.1424 25.9357C14.1424 26.2686 14.0847 26.576 13.9679 26.8579C13.8525 27.1398 13.6887 27.3881 13.4766 27.6029C13.2646 27.8176 13.0189 27.9841 12.7397 28.1022C12.4605 28.2203 12.1558 28.2794 11.8283 28.2794ZM11.9491 27.1451C12.1048 27.1451 12.2485 27.0928 12.38 26.9867C12.5115 26.8807 12.6162 26.7411 12.6981 26.5666C12.7787 26.3921 12.8189 26.2029 12.8189 25.9961C12.8189 25.7747 12.7666 25.5975 12.6605 25.4673C12.5545 25.3357 12.4136 25.2713 12.2377 25.2713C12.082 25.2713 11.9384 25.3237 11.8068 25.4297C11.6753 25.5357 11.5693 25.6753 11.4887 25.8498C11.4082 26.0243 11.3679 26.2136 11.3679 26.4203C11.3679 26.6418 11.4203 26.819 11.5263 26.9492C11.6324 27.0794 11.7733 27.1451 11.9491 27.1451Z" fill="white"/>
<path d="M15.9248 29.7154C15.6067 29.7154 15.31 29.6657 15.0322 29.5677C14.7543 29.4697 14.498 29.314 14.2617 29.1033L14.647 27.9999C14.7933 28.1865 14.9758 28.3368 15.1946 28.4536C15.4134 28.5691 15.647 28.6268 15.8939 28.6268C16.1409 28.6268 16.3181 28.5892 16.4577 28.514C16.5959 28.4389 16.7033 28.3288 16.7785 28.1852C16.8537 28.0415 16.9141 27.8738 16.9597 27.6818L16.9973 27.5154C16.8765 27.6764 16.7235 27.8093 16.5396 27.9127C16.3557 28.016 16.1503 28.0684 15.9235 28.0684C15.6107 28.0684 15.349 27.9919 15.1369 27.8375C14.9248 27.6831 14.7664 27.4845 14.6604 27.2402C14.5543 26.9959 14.502 26.7355 14.502 26.4576C14.502 26.1449 14.553 25.8496 14.6563 25.5691C14.7597 25.2899 14.902 25.0429 15.0832 24.8321C15.2644 24.6201 15.4725 24.4536 15.7074 24.3328C15.9423 24.212 16.1892 24.1516 16.4523 24.1516C16.7288 24.1516 16.9597 24.2107 17.1436 24.3288C17.3275 24.4469 17.4698 24.5892 17.5704 24.7556L17.7288 24.2496H18.855L18.1449 27.8858C18.0738 28.2482 17.9557 28.5677 17.7892 28.8415C17.6228 29.1167 17.3892 29.3301 17.0859 29.4845C16.7839 29.6375 16.3959 29.7154 15.9221 29.7154H15.9248ZM16.4308 26.9409C16.6121 26.9409 16.7637 26.8912 16.8845 26.7892C17.0053 26.6872 17.0966 26.5583 17.157 26.3999C17.2174 26.2415 17.2483 26.0818 17.2483 25.9194C17.2483 25.7274 17.1946 25.5731 17.0859 25.455C16.9772 25.3368 16.8322 25.2778 16.651 25.2778C16.4845 25.2778 16.3423 25.3261 16.2241 25.4214C16.106 25.5167 16.0147 25.6389 15.9517 25.7878C15.8886 25.9368 15.8577 26.0939 15.8577 26.2603C15.8577 26.4268 15.9033 26.5878 15.9933 26.7288C16.0845 26.8697 16.2295 26.9409 16.4322 26.9409H16.4308Z" fill="white"/>
<path d="M20.8955 28.2787C20.3009 28.2787 19.8351 28.123 19.5009 27.8103C19.1653 27.4975 18.9976 27.0667 18.9976 26.5177C18.9976 26.0492 19.1009 25.6358 19.3076 25.2774C19.5143 24.919 19.8002 24.6398 20.1653 24.4385C20.5304 24.2371 20.9506 24.1365 21.4244 24.1365C21.7009 24.1365 21.9466 24.1848 22.1573 24.2801C22.368 24.3754 22.5358 24.5096 22.6566 24.6814C22.7774 24.8533 22.8378 25.0492 22.8378 25.2707C22.8378 25.6935 22.658 26.013 22.2969 26.2264C21.9358 26.4412 21.3734 26.5673 20.607 26.6076C20.466 26.613 20.3573 26.6183 20.2821 26.6224C20.3425 27.0506 20.5922 27.2653 21.0311 27.2653C21.2029 27.2653 21.3653 27.2264 21.5184 27.1486C21.6727 27.0707 21.8325 26.9539 21.9989 26.7969L22.4526 27.7043C22.2459 27.8855 22.0056 28.0264 21.7304 28.1271C21.4553 28.2277 21.1774 28.2787 20.8955 28.2787V28.2787ZM21.266 25.0801C21.0539 25.0801 20.8687 25.1499 20.7103 25.2881C20.5519 25.4264 20.4338 25.609 20.3586 25.8358C20.4392 25.8358 20.5251 25.8331 20.6163 25.8277C20.9747 25.8184 21.2298 25.7727 21.3841 25.6922C21.5385 25.6116 21.615 25.5002 21.615 25.3593C21.615 25.2734 21.5828 25.2049 21.521 25.1553C21.458 25.1056 21.3734 25.0801 21.2674 25.0801H21.266Z" fill="white"/>
<path d="M24.7571 28.263C24.3544 28.263 24.0296 28.173 23.7853 27.9945C23.541 27.816 23.4189 27.5502 23.4189 27.1972C23.4189 27.0616 23.4336 26.918 23.4645 26.7663L23.737 25.3677H23.1772L23.3813 24.3247H23.941L24.137 23.3113H25.4215L25.2256 24.3247H26.2685L26.0645 25.3677H25.0215L24.7719 26.6375C24.7665 26.663 24.7625 26.6898 24.7611 26.7166C24.7598 26.7435 24.7571 26.7703 24.7571 26.7958C24.7571 26.8911 24.7853 26.9717 24.8403 27.0334C24.8954 27.0965 24.9866 27.1274 25.1128 27.1274C25.2081 27.1274 25.3034 27.1059 25.396 27.063C25.4887 27.02 25.5907 26.9663 25.7021 26.9005L25.8913 27.9744C25.7504 28.0656 25.5746 28.1354 25.3625 28.1864C25.1504 28.2361 24.9491 28.2616 24.7571 28.2616V28.263Z" fill="white"/>
<path d="M26.2683 28.1651L27.3113 22.7974H28.5972L28.2348 24.6417C28.3609 24.486 28.5072 24.3651 28.6737 24.2792C28.8401 24.1933 29.024 24.1504 29.2254 24.1504C29.6039 24.1504 29.8871 24.2591 30.0764 24.4752C30.2656 24.6913 30.3596 24.9772 30.3596 25.3289C30.3596 25.4242 30.3569 25.5155 30.3515 25.6014C30.3462 25.6873 30.3314 25.788 30.3059 25.9034L29.867 28.1638H28.5824L29.0213 25.9034C29.0361 25.8175 29.0441 25.7517 29.0441 25.7074C29.0441 25.5813 29.0133 25.4806 28.9502 25.4054C28.8871 25.3302 28.7972 25.2913 28.6817 25.2913C28.4952 25.2913 28.3394 25.3692 28.2133 25.5262C28.0871 25.6819 28.0012 25.8792 27.9556 26.1155L27.5542 28.1638H26.2697L26.2683 28.1651Z" fill="white"/>
<path d="M32.5503 28.2787C31.9557 28.2787 31.4899 28.123 31.1557 27.8103C30.8201 27.4975 30.6523 27.0667 30.6523 26.5177C30.6523 26.0492 30.7557 25.6358 30.9624 25.2774C31.1691 24.919 31.455 24.6398 31.8201 24.4385C32.1852 24.2371 32.6054 24.1365 33.0792 24.1365C33.3557 24.1365 33.6013 24.1848 33.8121 24.2801C34.0228 24.3754 34.1906 24.5096 34.3114 24.6814C34.4322 24.8533 34.4926 25.0492 34.4926 25.2707C34.4926 25.6935 34.3127 26.013 33.9517 26.2264C33.5906 26.4412 33.0282 26.5673 32.2617 26.6076C32.1208 26.613 32.0121 26.6183 31.9369 26.6224C31.9973 27.0506 32.247 27.2653 32.6859 27.2653C32.8577 27.2653 33.0201 27.2264 33.1731 27.1486C33.3275 27.0707 33.4872 26.9539 33.6537 26.7969L34.1074 27.7043C33.9007 27.8855 33.6604 28.0264 33.3852 28.1271C33.1101 28.2277 32.8322 28.2787 32.5503 28.2787V28.2787ZM32.9208 25.0801C32.7087 25.0801 32.5235 25.1499 32.3651 25.2881C32.2067 25.4264 32.0886 25.609 32.0134 25.8358C32.094 25.8358 32.1799 25.8331 32.2711 25.8277C32.6295 25.8184 32.8846 25.7727 33.0389 25.6922C33.1933 25.6116 33.2698 25.5002 33.2698 25.3593C33.2698 25.2734 33.2376 25.2049 33.1758 25.1553C33.1127 25.1056 33.0282 25.0801 32.9221 25.0801H32.9208Z" fill="white"/>
<path d="M34.6094 28.1649L35.1154 25.5797C35.1409 25.4481 35.1584 25.3179 35.1678 25.1864C35.1772 25.0548 35.1825 24.9273 35.1825 24.8012C35.1825 24.7099 35.1798 24.6186 35.1745 24.5246C35.1691 24.432 35.1624 24.3394 35.1517 24.2481H36.2778C36.298 24.3595 36.3127 24.4683 36.3235 24.577C36.3329 24.6857 36.3382 24.7971 36.3382 24.9139V24.9743C36.4738 24.722 36.655 24.522 36.8792 24.373C37.1033 24.224 37.3342 24.1501 37.5704 24.1501C37.6819 24.1501 37.7839 24.1663 37.8765 24.1998C37.9691 24.232 38.0496 24.2763 38.1141 24.3327L37.706 25.5569C37.6308 25.5018 37.5355 25.4562 37.4228 25.4213C37.31 25.3864 37.2027 25.3689 37.102 25.3689C36.9006 25.3689 36.7248 25.4414 36.5758 25.5837C36.4268 25.7273 36.3221 25.9555 36.2617 26.2683L35.8913 28.1663H34.6067L34.6094 28.1649Z" fill="white"/>
<path d="M48.1136 10.6415H51.364C50.5776 12.2003 49.599 13.1703 48 14.2269L48.5243 15.093C49.8786 14.149 50.9534 12.9798 51.766 11.3863V14.1403H50.0184V15.0064H51.766V16.4527H52.666V15.0064H54.4659V14.1403H52.666V11.3863C53.6621 13.3522 55.0164 14.4521 55.9252 15.093L56.4319 14.123C55.1388 13.3695 53.9067 12.3389 53.0679 10.6415H56.3271V9.75808H52.666V8.31178H51.766V9.75808H48.1136V10.6415Z" fill="#009500"/>
<path d="M63.3435 10.2864V8.7015H62.3561V10.2864H59.5863V8.73614H58.5902V10.2864H57.1834V11.213H58.5902V13.4388H59.5863V11.213H62.3561V12.1917C62.3561 14.4867 60.53 14.963 58.8348 15.1536L59.1931 16.0716C60.6261 15.8811 63.3435 15.3701 63.3435 12.1917V11.213H64.794V10.2864H63.3435Z" fill="#009500"/>
<path d="M65.9474 11.8799V12.8932H73.4444V11.8799H65.9474Z" fill="#009500"/>
<path d="M76.4502 8.95266H75.4453V14.4434C75.4453 15.5953 76.1269 15.7858 77.2715 15.7858H79.8928C80.4433 15.7858 81.186 15.7512 81.7015 15.6732L81.6404 14.6859C81.1074 14.7812 80.286 14.8505 79.6919 14.8505H77.4375C76.5725 14.8505 76.4502 14.7812 76.4502 14.2269V12.4515C77.1404 12.3043 78.7482 11.9405 80.7841 11.0139L80.3297 10.1132C78.6695 10.9706 77.3676 11.291 76.4502 11.5075V8.95266ZM80.0938 8.71016C80.487 9.29908 80.6792 9.68014 80.9414 10.373L81.5705 10.0179C81.2909 9.36836 81.0724 8.91801 80.6792 8.38972L80.0938 8.71016ZM81.3957 8.32044C81.7977 8.944 81.9637 9.26443 82.2346 9.98326L82.8637 9.63684C82.5753 8.96132 82.3481 8.49365 81.9812 8L81.3957 8.32044Z" fill="#009500"/>
<path d="M83.851 9.12587V10.0439H88.351C87.0578 13.4648 84.4277 14.7639 83.3879 15.2055L83.9559 16.011C85.0219 15.5433 86.2364 14.7292 87.4335 13.4301C88.9452 14.7465 89.6966 15.5693 90.1073 16.011L90.9286 15.2229C89.6267 13.9498 88.517 13.0751 88.0277 12.7027C88.5956 11.9145 89.2422 10.8926 89.6442 9.12587H83.851Z" fill="#009500"/>
<path d="M97.9188 10.1911L97.9101 8.78811H96.9227L96.9315 10.1911H94.4237V11.1178H96.9577L96.9839 12.9711C96.8091 12.9278 96.5645 12.8672 96.1975 12.8672C95.0529 12.8672 94.2665 13.4994 94.2665 14.4174C94.2665 15.1709 94.8169 15.959 96.18 15.959C97.3684 15.959 97.8577 15.4654 97.8926 14.5647L97.9014 14.3135C98.2421 14.5473 98.6528 14.8505 99.046 15.3441L99.6664 14.4867C99.2732 14.071 98.6179 13.5774 97.945 13.2569L97.9276 11.1178H99.4829V10.1911H97.9188ZM97.0014 14.3222C97.0101 14.6773 96.9577 15.1622 96.1276 15.1622C95.6121 15.1622 95.114 14.963 95.114 14.4261C95.114 13.8718 95.682 13.6726 96.2062 13.6726C96.5907 13.6726 96.8179 13.7592 96.9926 13.8372L97.0014 14.3222ZM92.6937 8.75346C92.615 9.22979 92.3791 10.5808 92.3791 12.7027C92.3791 13.9324 92.449 14.9804 92.6325 15.9677L93.6024 15.8464C93.3752 14.8158 93.3315 13.7592 93.3315 12.7027C93.3315 10.7454 93.55 9.56755 93.6985 8.83141L92.6937 8.75346Z" fill="#009500"/>
<path d="M56.2572 20.1622H48.1835V20.959H51.7922V21.6518H48.8738V24.9948H48.0961V25.8089H48.8738V28H49.7476V25.8089H54.6582V26.9174C54.6582 27.0127 54.6582 27.1339 54.431 27.1339H53.0766L53.2164 28H54.5358C55.13 28 55.5407 27.9567 55.5407 27.2292V25.8089H56.3183V24.9948H55.5407V21.6518H52.6048V20.959H56.2572V20.1622ZM51.7922 22.4226V23.306H49.7476V22.4226H51.7922ZM54.6582 22.4226V23.306H52.6048V22.4226H54.6582ZM51.7922 24.0508V24.9948H49.7476V24.0508H51.7922ZM54.6582 24.0508V24.9948H52.6048V24.0508H54.6582Z" fill="#009500"/>
<path d="M60.53 22.5092V24.1201H57.5416V25.0035H60.53V26.7962H56.8863V27.6882H65.0648V26.7962H61.4736V25.0035H64.427V24.1201H61.4736V22.5092H64.7416V21.6345H61.4736V19.8678H60.53V21.6345H58.8698C59.1144 21.0456 59.2368 20.526 59.3154 20.1969L58.3717 20.0237C57.8911 22.0676 57.0785 22.8903 56.729 23.2367L57.4106 23.9036C57.664 23.6611 58.0484 23.28 58.4591 22.5092H60.53Z" fill="#009500"/>
<path d="M72.6842 21.0456H73.7327V20.1536H65.6066V21.0456H71.7667V26.7962C71.7667 26.9521 71.7056 27.0733 71.5395 27.0733H69.8531L70.0192 27.9913H71.7667C72.5444 27.9913 72.6842 27.6622 72.6842 27.2206V21.0456ZM70.4648 21.929H66.3493V25.9908H70.4648V21.929ZM69.5561 25.1853H67.2493V22.7431H69.5561V25.1853Z" fill="#009500"/>
<path d="M74.6939 27.9913H75.524V26.3199H77.2103V26.9867C77.2103 27.108 77.1404 27.1426 77.0268 27.1426H76.1269L76.2579 27.9913H77.3851C77.5861 27.9913 78.0579 27.8354 78.0579 27.2812V22.7258H74.6939V27.9913ZM77.2103 23.4965V24.198H75.524V23.4965H77.2103ZM77.2103 24.8822V25.627H75.524V24.8822H77.2103ZM78.888 19.8678V22.9249C78.888 23.0895 78.9492 23.6611 79.7181 23.6611H81.5443C82.2433 23.6611 82.4443 23.2627 82.4967 22.1109L81.6579 21.8597C81.6404 22.847 81.5006 22.847 81.2559 22.847H80.0501C79.8142 22.847 79.8142 22.7171 79.8142 22.6478V21.8424C80.7753 21.5999 81.7365 21.1669 82.3394 20.8378L81.8676 20.1363C81.1336 20.6126 80.0851 20.9763 79.8142 21.0716V19.8678H78.888ZM78.9229 27.1339C78.9229 27.3072 78.9229 27.9307 79.6831 27.9307H81.4132C82.252 27.9307 82.3569 27.6189 82.4967 26.1813L81.6579 25.9475C81.5617 27.0993 81.5443 27.0993 81.2559 27.0993H80.0589C79.9365 27.0993 79.8142 27.0473 79.8142 26.8395V25.8695C80.452 25.679 81.4831 25.2893 82.2695 24.8303L81.7715 24.1028C81.1773 24.5098 80.1812 24.9428 79.8142 25.0814V23.9296H78.9229V27.1339ZM78.5996 22.0935C78.3987 21.5826 78.1715 21.1755 77.4375 20.1882L76.7298 20.5779C76.8608 20.7858 77.0006 20.9763 77.2016 21.3314C76.7123 21.392 75.856 21.4353 75.7599 21.4353C76.1356 20.6299 76.2317 20.4221 76.3715 19.9804L75.5065 19.8678C75.3841 20.3701 75.1482 20.9503 74.9036 21.4613C74.6065 21.47 74.5715 21.47 74.3094 21.4786L74.3706 22.2667C75.454 22.2148 77.0006 22.0329 77.5424 21.9463C77.6909 22.2494 77.7259 22.3447 77.787 22.5092L78.5996 22.0935Z" fill="#009500"/>
<path d="M87.6607 21.8597H90.3432V20.9157H83.9908V21.8597H86.6384V26.0254H83.5365V26.9781H90.7976V26.0254H87.6607V21.8597Z" fill="#009500"/>
<path d="M95.3936 21.3487H92.6587V22.2408H97.4557C95.9878 23.8776 93.9956 24.8649 92.0471 25.3585L92.5014 26.2506C93.1043 26.06 94.0567 25.7656 95.3936 24.9948V27.6276H96.3723V24.3626C97.5868 23.4792 98.312 22.6565 98.7227 22.1715V21.3487H96.3723V20.2142H95.3936V21.3487ZM99.8062 25.4018C99.1421 24.9342 98.1373 24.3972 97.3771 24.0768L96.8441 24.7956C98.1984 25.4278 99.0547 26.1033 99.2819 26.2766L99.8062 25.4018Z" fill="#009500"/>
<path d="M102.987 20.5779H102.017V22.7258C102.017 25.1074 101.466 26.0167 100.61 26.9001L101.344 27.6276C102.13 26.8741 102.987 25.653 102.987 22.6391V20.5779ZM105.294 20.3441H104.315V27.4717C107.452 27.2379 108.212 25.2373 108.623 23.4792L107.688 23.0895C107.294 25.5231 106.246 25.9128 105.294 26.2679V20.3441Z" fill="#009500"/>
<path d="M113.708 22.7604L116.452 22.4919L116.373 21.5912L113.612 21.851L113.446 20.2488L112.432 20.3268L112.607 21.9463L109.811 22.2061L109.881 23.1155L112.694 22.8557L112.852 24.3626L109.592 24.6657L109.68 25.5924L112.948 25.2806L113.201 27.7142L114.215 27.6536L113.961 25.1853L117.151 24.8909L117.089 23.9642L113.865 24.2673L113.708 22.7604ZM114.975 19.8331C115.263 20.4047 115.412 20.8118 115.56 21.444L116.242 21.1928C116.032 20.474 115.901 20.0843 115.613 19.582L114.975 19.8331ZM116.39 19.7985C116.679 20.3701 116.819 20.7858 116.976 21.4527L117.657 21.1842C117.448 20.4567 117.343 20.1276 117.028 19.5473L116.39 19.7985Z" fill="#009500"/>
<path d="M118.374 23.4273V24.4405H125.871V23.4273H118.374Z" fill="#009500"/>
<path d="M127.374 21.4094L127.514 22.3707L128.807 21.4873V27.2292H129.855V20.3614H128.938L127.374 21.4094Z" fill="#009500"/>
<path d="M133.745 27.3678C136.192 27.3678 136.192 24.4579 136.192 23.791C136.192 23.1328 136.192 20.2229 133.745 20.2229C131.298 20.2229 131.298 23.1241 131.298 23.791C131.298 24.4579 131.298 27.3678 133.745 27.3678ZM133.745 26.4324C132.627 26.4324 132.338 25.1853 132.338 23.791C132.338 22.4746 132.592 21.1582 133.745 21.1582C134.898 21.1582 135.152 22.4659 135.152 23.791C135.152 25.0987 134.898 26.4324 133.745 26.4324Z" fill="#009500"/>
<path d="M139.601 27.3678C142.047 27.3678 142.047 24.4579 142.047 23.791C142.047 23.1328 142.047 20.2229 139.601 20.2229C137.154 20.2229 137.154 23.1241 137.154 23.791C137.154 24.4579 137.154 27.3678 139.601 27.3678ZM139.601 26.4324C138.482 26.4324 138.194 25.1853 138.194 23.791C138.194 22.4746 138.447 21.1582 139.601 21.1582C140.754 21.1582 141.007 22.4659 141.007 23.791C141.007 25.0987 140.754 26.4324 139.601 26.4324Z" fill="#009500"/>
<path d="M143.01 22.0935C143.01 23.2367 143.779 23.9555 144.679 23.9555C145.579 23.9555 146.348 23.2367 146.348 22.0935C146.348 20.933 145.57 20.2229 144.679 20.2229C143.787 20.2229 143.01 20.9244 143.01 22.0935ZM143.814 22.0935C143.814 21.2448 144.294 20.9244 144.679 20.9244C145.037 20.9244 145.544 21.2188 145.544 22.0935C145.544 22.9682 145.037 23.254 144.679 23.254C144.294 23.254 143.814 22.9423 143.814 22.0935ZM146.662 25.4971C146.662 26.649 147.431 27.3678 148.331 27.3678C149.231 27.3678 150 26.6403 150 25.4971C150 24.3366 149.214 23.6351 148.331 23.6351C147.449 23.6351 146.662 24.3279 146.662 25.4971ZM147.466 25.4971C147.466 24.6484 147.947 24.3366 148.331 24.3366C148.707 24.3366 149.196 24.6397 149.196 25.4971C149.196 26.3805 148.689 26.6663 148.331 26.6663C147.964 26.6663 147.466 26.3718 147.466 25.4971ZM143.77 27.2292H144.46L149.231 20.3614H148.541L143.77 27.2292Z" fill="#009500"/>
</svg>
