<svg width="24" height="16" viewBox="0 0 24 16" fill="none" xmlns="http://www.w3.org/2000/svg">
<path d="M10.5078 14.6627L0.994607 3.78877C-0.128098 2.50937 0.784347 0.500001 2.48824 0.500001H21.5147C21.8961 0.499674 22.2694 0.609271 22.59 0.815669C22.9107 1.02207 23.165 1.31651 23.3227 1.66375C23.4803 2.01099 23.5344 2.3963 23.4787 2.77353C23.4229 3.15077 23.2597 3.50394 23.0084 3.79076L13.4951 14.6608C13.3089 14.8738 13.0793 15.0446 12.8217 15.1616C12.5641 15.2786 12.2844 15.3391 12.0015 15.3391C11.7185 15.3391 11.4389 15.2786 11.1813 15.1616C10.9236 15.0446 10.694 14.8738 10.5078 14.6608V14.6627Z" fill="#BF0000"/>
</svg>
