<svg width="33" height="32" viewBox="0 0 33 32" fill="none" xmlns="http://www.w3.org/2000/svg">
<path d="M27.8327 3.33411H11.8337C11.1005 3.33411 10.5005 3.93404 10.5005 4.66735V13.9801C10.5005 13.9801 14.5904 12.7544 14.5936 12.7535C15.1794 12.5779 15.8559 12.6916 16.3601 13.0601C16.8667 13.4401 17.1667 14.0401 17.1667 14.6667V23.3328C17.1667 25.5394 15.3735 27.3326 13.167 27.3326C12.1404 27.3326 11.2071 26.9459 10.5005 26.2993V27.3326C10.5005 28.0658 11.1005 28.6658 11.8337 28.6658H27.8327C28.566 28.6658 29.166 28.0658 29.166 27.3326V4.66735C29.166 3.93404 28.566 3.33411 27.8327 3.33411ZM13.8336 12.0002C13.467 12.0002 13.167 11.7002 13.167 11.3336C13.167 10.967 13.467 10.667 13.8336 10.667C14.2002 10.667 14.5002 10.967 14.5002 11.3336C14.5002 11.7002 14.2002 12.0002 13.8336 12.0002ZM13.8336 9.33372C13.467 9.33372 13.167 9.03373 13.167 8.6671C13.167 8.30046 13.467 8.00047 13.8336 8.00047C14.2002 8.00047 14.5002 8.30046 14.5002 8.6671C14.5002 9.03373 14.2002 9.33372 13.8336 9.33372ZM13.8336 6.66723C13.467 6.66723 13.167 6.36724 13.167 6.0006C13.167 5.63397 13.467 5.33398 13.8336 5.33398C14.2002 5.33398 14.5002 5.63397 14.5002 6.0006C14.5002 6.36724 14.2002 6.66723 13.8336 6.66723ZM26.4995 26.6659H23.1663C22.7997 26.6659 22.4997 26.366 22.4997 25.9993C22.4997 25.6327 22.7997 25.3327 23.1663 25.3327H26.4995C26.8661 25.3327 27.1661 25.6327 27.1661 25.9993C27.1661 26.366 26.8661 26.6659 26.4995 26.6659ZM27.1661 17.3332H19.1666C18.8 17.3332 18.5 17.0332 18.5 16.6666C18.5 16.3 18.8 16 19.1666 16H27.1661C27.5327 16 27.8327 16.3 27.8327 16.6666C27.8327 17.0332 27.5327 17.3332 27.1661 17.3332ZM27.1661 14.6667H19.1666C18.8 14.6667 18.5 14.3667 18.5 14.0001C18.5 13.6335 18.8 13.3335 19.1666 13.3335H27.1661C27.5327 13.3335 27.8327 13.6335 27.8327 14.0001C27.8327 14.3667 27.5327 14.6667 27.1661 14.6667ZM27.1661 12.0002H17.8334C17.4667 12.0002 17.1667 11.7002 17.1667 11.3336C17.1667 10.967 17.4667 10.667 17.8334 10.667H27.1661C27.5327 10.667 27.8327 10.967 27.8327 11.3336C27.8327 11.7002 27.5327 12.0002 27.1661 12.0002ZM27.1661 9.33372H17.8334C17.4667 9.33372 17.1667 9.03373 17.1667 8.6671C17.1667 8.30046 17.4667 8.00047 17.8334 8.00047H27.1661C27.5327 8.00047 27.8327 8.30046 27.8327 8.6671C27.8327 9.03373 27.5327 9.33372 27.1661 9.33372ZM27.1661 6.66723H17.8334C17.4667 6.66723 17.1667 6.36724 17.1667 6.0006C17.1667 5.63397 17.4667 5.33398 17.8334 5.33398H27.1661C27.5327 5.33398 27.8327 5.63397 27.8327 6.0006C27.8327 6.36724 27.5327 6.66723 27.1661 6.66723Z" fill="black"/>
<path d="M14.5002 21.0396C14.1069 20.8063 13.6536 20.6663 13.167 20.6663C11.6937 20.6663 10.5005 21.8596 10.5005 23.3328C10.5005 24.8061 11.6937 25.9993 13.167 25.9993C14.6402 25.9993 15.8335 24.806 15.8335 23.3328V14.6667C15.8335 14.4534 15.7335 14.2601 15.5668 14.1334C15.3935 14.0068 15.1735 13.9668 14.9735 14.0267L8.30729 16.0266C8.02728 16.1133 7.83397 16.3733 7.83397 16.6666V21.7063C7.44065 21.4729 6.98735 21.333 6.50072 21.333C5.02747 21.333 3.83423 22.5262 3.83423 23.9995C3.83423 25.4727 5.02747 26.666 6.50072 26.666C7.97398 26.666 9.16722 25.4727 9.16722 23.9995V20.493L14.5002 18.8931V21.0396Z" fill="black"/>
</svg>
