<svg width="32" height="32" viewBox="0 0 32 32" fill="none" xmlns="http://www.w3.org/2000/svg">
<path d="M28.865 7.70003C28.8374 7.57099 28.7598 7.4581 28.6493 7.38598C28.5388 7.31386 28.4042 7.28835 28.275 7.31503C27.8978 7.39199 27.5055 7.31627 27.184 7.10445C26.8625 6.89263 26.6381 6.56201 26.56 6.18503C26.531 6.05649 26.4542 5.94383 26.345 5.87003C26.2324 5.79792 26.0959 5.77279 25.965 5.80003L6.675 9.81003C6.61065 9.82315 6.54951 9.84882 6.49508 9.88558C6.44065 9.92233 6.39399 9.96945 6.35777 10.0242C6.32156 10.079 6.29649 10.1404 6.284 10.2049C6.27151 10.2694 6.27185 10.3357 6.285 10.4C6.31494 10.5532 6.32001 10.7102 6.3 10.865H3.45C3.31739 10.865 3.19021 10.9177 3.09645 11.0115C3.00268 11.1052 2.95 11.2324 2.95 11.365C2.95 11.5555 2.91249 11.744 2.83963 11.9199C2.76676 12.0958 2.65995 12.2557 2.5253 12.3903C2.39066 12.525 2.23081 12.6318 2.05489 12.7047C1.87897 12.7775 1.69042 12.815 1.5 12.815C1.36739 12.815 1.24021 12.8677 1.14645 12.9615C1.05268 13.0552 1 13.1824 1 13.315V23.76C1 23.8926 1.05268 24.0198 1.14645 24.1136C1.24021 24.2074 1.36739 24.26 1.5 24.26C1.69042 24.26 1.87897 24.2975 2.05489 24.3704C2.23081 24.4433 2.39066 24.5501 2.5253 24.6847C2.65995 24.8194 2.76676 24.9792 2.83963 25.1551C2.91249 25.3311 2.95 25.5196 2.95 25.71C2.95 25.8426 3.00268 25.9698 3.09645 26.0636C3.19021 26.1574 3.31739 26.21 3.45 26.21H23.155C23.2876 26.21 23.4148 26.1574 23.5086 26.0636C23.6023 25.9698 23.655 25.8426 23.655 25.71C23.655 25.3255 23.8078 24.9567 24.0797 24.6847C24.3516 24.4128 24.7204 24.26 25.105 24.26C25.2376 24.26 25.3648 24.2074 25.4586 24.1136C25.5523 24.0198 25.605 23.8926 25.605 23.76V21.555L29.09 20.83C29.2199 20.8012 29.3342 20.7244 29.41 20.615C29.4798 20.5015 29.5048 20.366 29.48 20.235C29.4015 19.8591 29.4754 19.4675 29.6854 19.1459C29.8953 18.8244 30.2243 18.5993 30.6 18.52C30.6651 18.5077 30.727 18.4823 30.782 18.4453C30.837 18.4084 30.884 18.3606 30.92 18.305C30.9902 18.1935 31.0152 18.0594 30.99 17.93L28.865 7.70003ZM15.745 25.21H3.9C3.80071 24.7436 3.56842 24.316 3.23124 23.9788C2.89405 23.6416 2.4664 23.4093 2 23.31V13.76C2.46644 13.6626 2.89445 13.4316 3.23183 13.0951C3.56921 12.7586 3.80137 12.3312 3.9 11.865H15.745V25.21ZM24.605 23.31C24.1386 23.4093 23.711 23.6416 23.3738 23.9788C23.0366 24.316 22.8043 24.7436 22.705 25.21H16.745V11.865H22.705C22.8036 12.3312 23.0358 12.7586 23.3732 13.0951C23.7106 13.4316 24.1386 13.6626 24.605 13.76V23.31Z" fill="black"/>
<path d="M5.72998 19.925L5.50498 21.245C5.4662 21.4777 5.47848 21.716 5.54095 21.9435C5.60343 22.171 5.71462 22.3822 5.86681 22.5624C6.019 22.7427 6.20856 22.8877 6.42236 22.9874C6.63615 23.0871 6.86907 23.1392 7.10498 23.14C7.36952 23.1405 7.63028 23.0771 7.86498 22.955L9.04498 22.335L10.225 22.955C10.493 23.0956 10.795 23.1586 11.0968 23.1367C11.3987 23.1148 11.6885 23.009 11.9334 22.8312C12.1783 22.6533 12.3687 22.4106 12.4829 22.1303C12.5972 21.85 12.6308 21.5434 12.58 21.245L12.355 19.925L13.31 18.995C13.5268 18.7834 13.6801 18.5154 13.7526 18.2212C13.8251 17.9271 13.8139 17.6186 13.7203 17.3304C13.6267 17.0423 13.4544 16.7861 13.2228 16.5908C12.9913 16.3954 12.7097 16.2687 12.41 16.225L11.09 16.035L10.5 14.835C10.3661 14.5633 10.1589 14.3345 9.90176 14.1746C9.64462 14.0146 9.34782 13.9298 9.04498 13.9298C8.74213 13.9298 8.44533 14.0146 8.18819 14.1746C7.93104 14.3345 7.72382 14.5633 7.58998 14.835L6.99998 16.035L5.67498 16.225C5.37522 16.2687 5.09366 16.3954 4.86212 16.5908C4.63058 16.7861 4.45827 17.0423 4.36466 17.3304C4.27105 17.6186 4.25987 17.9271 4.33237 18.2212C4.40488 18.5154 4.55818 18.7834 4.77498 18.995L5.72998 19.925ZM5.31498 17.64C5.35022 17.5286 5.4164 17.4294 5.50581 17.3542C5.59522 17.2789 5.70418 17.2307 5.81998 17.215L7.39998 16.985C7.48084 16.9733 7.55766 16.9422 7.62384 16.8943C7.69003 16.8464 7.74361 16.7831 7.77998 16.71L8.48498 15.28C8.53452 15.1738 8.61378 15.0842 8.71316 15.0221C8.81255 14.96 8.9278 14.928 9.04498 14.93C9.16189 14.9293 9.2766 14.9618 9.37574 15.0237C9.47489 15.0857 9.55438 15.1746 9.60498 15.28L10.31 16.71C10.3459 16.7825 10.3987 16.8453 10.464 16.8932C10.5292 16.941 10.605 16.9725 10.685 16.985L12.27 17.215C12.3852 17.2308 12.4934 17.2792 12.582 17.3545C12.6706 17.4298 12.7358 17.5288 12.77 17.64C12.8068 17.7504 12.8118 17.8691 12.7844 17.9822C12.757 18.0954 12.6983 18.1986 12.615 18.28L11.47 19.395C11.4121 19.4512 11.3687 19.5205 11.3434 19.5972C11.3182 19.6738 11.3119 19.7554 11.325 19.835L11.595 21.41C11.6141 21.5246 11.601 21.6423 11.557 21.7499C11.5131 21.8575 11.4401 21.9508 11.3462 22.0193C11.2523 22.0878 11.1412 22.1288 11.0253 22.1377C10.9094 22.1467 10.7933 22.1232 10.69 22.07L9.27498 21.325C9.20305 21.288 9.12335 21.2687 9.04248 21.2687C8.9616 21.2687 8.8819 21.288 8.80998 21.325L7.39498 22.07C7.29166 22.1232 7.17557 22.1467 7.05968 22.1377C6.9438 22.1288 6.83269 22.0878 6.73878 22.0193C6.64487 21.9508 6.57186 21.8575 6.52792 21.7499C6.48398 21.6423 6.47084 21.5246 6.48998 21.41L6.75998 19.835C6.77403 19.7558 6.76862 19.6744 6.74424 19.5977C6.71985 19.5211 6.67721 19.4515 6.61998 19.395L5.47498 18.28C5.39001 18.1997 5.3298 18.0968 5.30145 17.9834C5.2731 17.8699 5.27779 17.7508 5.31498 17.64Z" fill="black"/>
<path d="M18.7939 15.818H20.7884C20.9211 15.818 21.0482 15.7653 21.142 15.6715C21.2358 15.5778 21.2884 15.4506 21.2884 15.318C21.2884 15.1854 21.2358 15.0582 21.142 14.9644C21.0482 14.8707 20.9211 14.818 20.7884 14.818H18.7939C18.6613 14.818 18.5342 14.8707 18.4404 14.9644C18.3466 15.0582 18.2939 15.1854 18.2939 15.318C18.2939 15.4506 18.3466 15.5778 18.4404 15.6715C18.5342 15.7653 18.6613 15.818 18.7939 15.818Z" fill="black"/>
<path d="M18.7939 16.964C18.6613 16.964 18.5342 17.0167 18.4404 17.1104C18.3466 17.2042 18.2939 17.3314 18.2939 17.464C18.2939 17.5966 18.3466 17.7238 18.4404 17.8175C18.5342 17.9113 18.6613 17.964 18.7939 17.964H23.2414C23.3741 17.964 23.5012 17.9113 23.595 17.8175C23.6888 17.7238 23.7414 17.5966 23.7414 17.464C23.7414 17.3314 23.6888 17.2042 23.595 17.1104C23.5012 17.0167 23.3741 16.964 23.2414 16.964H18.7939Z" fill="black"/>
<path d="M18.7939 20.1105H21.6719C21.8046 20.1105 21.9317 20.0578 22.0255 19.964C22.1193 19.8703 22.1719 19.7431 22.1719 19.6105C22.1719 19.4779 22.1193 19.3507 22.0255 19.2569C21.9317 19.1632 21.8046 19.1105 21.6719 19.1105H18.7939C18.6613 19.1105 18.5342 19.1632 18.4404 19.2569C18.3466 19.3507 18.2939 19.4779 18.2939 19.6105C18.2939 19.7431 18.3466 19.8703 18.4404 19.964C18.5342 20.0578 18.6613 20.1105 18.7939 20.1105Z" fill="black"/>
<path d="M22.4239 21.257H18.7939C18.6613 21.257 18.5342 21.3096 18.4404 21.4034C18.3466 21.4972 18.2939 21.6243 18.2939 21.757C18.2939 21.8896 18.3466 22.0167 18.4404 22.1105C18.5342 22.2043 18.6613 22.257 18.7939 22.257H22.4239C22.5566 22.257 22.6837 22.2043 22.7775 22.1105C22.8713 22.0167 22.9239 21.8896 22.9239 21.757C22.9239 21.6243 22.8713 21.4972 22.7775 21.4034C22.6837 21.3096 22.5566 21.257 22.4239 21.257Z" fill="black"/>
</svg>
