<svg width="338" height="49" xmlns="http://www.w3.org/2000/svg" xmlns:xlink="http://www.w3.org/1999/xlink"><defs><path id="a" d="M.096.124h101.1v43.43H.095z"/></defs><g fill="none" fill-rule="evenodd"><path fill="#BF0000" d="M0 .18V48.82l2.943-.242V.422zM19.039 9.352l-6.096-.33v15.736l6.096-.024c4.052-.016 7.287-3.4 7.287-7.538 0-4.08-3.294-7.628-7.287-7.844M54.539 32.959c3.086-.125 5.503-3.886 5.503-8.41 0-4.612-2.38-8.31-5.503-8.413-3.291-.109-5.74 3.431-5.74 8.41 0 5.07 2.41 8.548 5.74 8.413"/><g transform="translate(24.625 2.088)"><mask id="b" fill="#fff"><use xlink:href="#a"/></mask><path d="M99.754 31.848l-2.848.184v-4.686l2.848-.101v4.603zm-4.606.297l-3.017.194v-4.823l3.017-.108v4.737zm-25.443 2.222c-3.027.204-5.312-1.179-6.999-4.332l2.822-3.7c1.041 1.976 2.528 2.992 4.23 2.923 1.438-.059 2.24-.812 2.24-2.11 0-1.189-.594-1.753-3.06-2.875-2.205-1.007-2.833-1.373-3.603-2.152-1.278-1.199-1.895-2.86-1.895-5.008 0-4.146 2.72-7.073 6.265-6.86 2.19.13 3.975 1.238 5.727 3.527l-2.462 3.947c-1.127-1.611-2.138-2.33-3.265-2.367-1.114-.037-1.864.676-1.864 1.854 0 1.069.51 1.702 1.706 2.194 1.986.782 3.142 1.4 3.982 2.047 1.68 1.348 2.496 3.176 2.496 5.539 0 4.161-2.496 7.115-6.32 7.373zm-8.945-.007l-3.833.247-.602-2.11c-1.003 1.781-2.727 2.918-4.733 3.053-4.694.316-8.194-4.228-8.194-10.876V9.298l5.012.286v15.018c0 3.166 1.651 5.413 3.876 5.324 2.209-.09 4.039-2.585 4.039-5.437V10.036l4.435.253v24.07zm40.436-25.925l-1.442-.119v16.106l-2.848.05V8.082l-1.758-.145v16.567l-3.017.053V7.69l-10.703-.88v6.542c.739-1.465 2.04-2.273 3.48-2.187 3.174.19 5.38 4.062 5.38 9.264v12.03l-3.2.206V20.406c0-2.584-1.117-4.51-2.673-4.56-1.606-.054-2.987 2.023-2.987 4.52v12.662l-3.55.23V6.517L.096.124C6.46 2.755 10.671 8.675 10.671 15.392c0 5.99-2.183 10.191-6.667 12.548l10.043 15.614 3.877-.318V7.844l5.435.31.814 2.672c1.492-2.09 3.44-3.098 5.818-2.955 6.087.365 10.812 6.914 10.812 14.569 0 7.696-4.58 14.187-10.58 14.592-2.257.152-4.278-.7-6.05-2.534v8.224l77.023-6.331V8.435z" fill="#BF0000" mask="url(#b)"/></g><path fill="#BF0000" d="M12.943 33.465v14.292l15.385-1.265-8.067-13.291z"/><path d="M19.039 24.734l-6.096.024V9.02l6.096.33c3.993.217 7.287 3.766 7.287 7.845 0 4.139-3.235 7.522-7.287 7.538m16.257-7.255c0-6.716-4.21-12.636-10.575-15.267L2.943.422v48.157l10-.822V33.465l7.319-.264 8.066 13.291 10.344-.85L28.63 30.027c4.484-2.356 6.667-6.556 6.667-12.548M54.539 16.136c3.124.103 5.503 3.801 5.503 8.412 0 4.525-2.417 8.286-5.503 8.41-3.33.136-5.74-3.342-5.74-8.412 0-4.979 2.449-8.519 5.74-8.41m.308 22.984c6.002-.405 10.58-6.896 10.58-14.593 0-7.654-4.724-14.203-10.81-14.568-2.38-.143-4.327.864-5.819 2.955l-.814-2.672-5.436-.31v35.392l6.25-.514v-8.224c1.772 1.834 3.793 2.686 6.05 2.534M80.95 26.577c0 2.851-1.83 5.347-4.04 5.436-2.224.09-3.875-2.157-3.875-5.323V11.672l-5.012-.286V26.76c0 6.65 3.5 11.193 8.194 10.877 2.006-.135 3.73-1.272 4.733-3.053l.602 2.11 3.832-.248v-24.07l-4.434-.253v14.453zM98.153 23.543c-.839-.647-1.995-1.266-3.981-2.047-1.196-.492-1.706-1.125-1.706-2.194 0-1.179.75-1.89 1.864-1.854 1.127.037 2.138.756 3.265 2.366l2.462-3.946c-1.752-2.29-3.538-3.396-5.727-3.528-3.545-.212-6.265 2.715-6.265 6.861 0 2.148.617 3.809 1.895 5.008.77.778 1.397 1.145 3.602 2.151 2.466 1.122 3.06 1.687 3.06 2.876 0 1.298-.801 2.051-2.24 2.11-1.7.068-3.188-.947-4.229-2.924l-2.822 3.7c1.686 3.154 3.972 4.537 6.999 4.333 3.823-.258 6.32-3.212 6.32-7.373 0-2.363-.816-4.191-2.497-5.539M106.053 35.116V22.454c0-2.498 1.38-4.574 2.987-4.521 1.556.051 2.672 1.976 2.672 4.56v12.259l3.2-.206v-12.03c0-5.202-2.205-9.074-5.38-9.264-1.439-.086-2.74.722-3.48 2.187V8.897l-3.549-.291v26.739l3.55-.229zM119.773 26.591V10.025l-3.017-.248v16.868zM116.756 34.427l3.017-.194v-4.737l-3.017.107zM124.38 26.51V10.403l-2.85-.234v16.39zM121.531 34.12l2.848-.184v-4.603l-2.848.1z" fill="#FFF"/><g fill="#FFF"><g fill-rule="nonzero"><path d="M138.3 14.7c4.3-.6 7.7-2.4 9.6-5.2h-9.3v-3h5.6V4.2h3.2v2.3h5.4c-.7 2.6-1.6 4.3-3.3 6 2 .8 3.1 1.2 3.8 1.5v3.5c-1.8-.9-4.3-2-6-2.5v5.1h-3.2V16c-1.9.8-4.1 1.4-5.9 1.6v-2.9h.1zM157 10.2c2-.4 2.8-2 2.9-5.6H172v7.2c0 2.6-.4 4-1.4 5.3-1.3 1.7-2.9 2.4-5.6 2.4h-7.4v-3h6.2c3.6 0 4.8-1.1 4.9-4.7V7.7h-6.1c-.5 3.4-2.2 5.2-5.6 5.6v-3.1zM176.6 7.7v-3h13c-1 3.1-1.8 5.2-2.9 7.3 2 2.8 3.3 5 4.6 7.7h-3.9c-.8-1.9-1.4-3-2.4-4.7-1.7 3.1-4.1 4.6-7.4 4.9h-2.3v-3h1.1c2.7 0 4.1-.7 5.5-2.7.9-1.2 2.3-4.1 3.2-6.6h-8.5v.1zM198.6 4.1v4.8c4.2 1 5.7 1.4 8.4 2.4v3.3c-2.4-.9-4.7-1.5-8.4-2.4V20h-3.3V4h3.3v.1zM210.9 5.4h11.5v1.3h2.6v5.6c0 2.5-.8 4.5-2.1 5.7-1.7 1.5-3.2 1.9-7.1 1.9h-4.1v-3h4.1c4.5 0 6-1.1 6-4.6V8.4H211v-3h-.1zm13.7-2v2.8H223V3.4h1.6zm2.3 0v2.8h-1.7V3.4h1.7zM233 4.5v12h1.7c4.9-.1 6.1-1.8 6.3-8.2h3.3c-.2 3.8-.8 6.3-2 8.2-1.7 2.5-3.7 3.2-8.9 3.2h-3.5V4.5h3.1zM248 11.5l9.9-4.7c1.3-.6 1.6-1 1.6-2.2v-.4h3.3v.7c.1 1.8-.7 3.1-2.3 3.9l-2.8 1.4V20h-3.3v-8.1l-6.5 3.2v-3.6h.1zM266.3 10.2c2-.4 2.8-2 2.9-5.6h12.1v7.2c0 2.6-.4 4-1.4 5.3-1.3 1.7-2.9 2.4-5.6 2.4H267v-3h6.2c3.6 0 4.8-1.1 4.9-4.7V7.7H272c-.5 3.4-2.2 5.2-5.6 5.6v-3.1h-.1zM288.8 9.1c-.8 4.2-.8 4.3-1.4 6.4h-3.1c.8-2.6 1.1-3.8 1.5-6.4h3zm1.5-.6h3v3.9c1.8-1.7 3.4-4.8 4-7.4h3.2c-.4 2.1-1.3 4.3-2.6 6.2l3.1.8v3l-4.6-1.5c-1.7 1.7-2 2-3.2 2.9v.6h4.7c.9 0 2-.4 2.6-1v3c-.6.5-1.2.6-3.2.6H294c-3 0-3.6-.2-3.7-1.5-2.1.9-3.5 1.3-5.5 1.5v-3c2.6-.4 3.3-.7 5.5-1.9V8.5zm-1.5-4.7c2.4.1 4.8.4 7.1.9v3c-2.2-.5-4.6-1-7.1-1.2V3.8zM309.7 17.2v-1.6h-5.5V13h5.5v-1.4c-1.9.2-3 .2-4.7.2h-1.4V9h2.3l1-2.5h-3.5V4.1H319v2.4h-8.9L309 9c2-.1 3.7-.3 4.9-.6l-.7-1.1h3.2c.8 1.2 2.1 3.2 2.7 4.5h-3.4l-.6-1.2c-1 .3-1.2.4-2.3.6V13h5.7v2.6h-5.7v1.6h6.6v2.6H303v-2.6h6.7zM330.6 17c1.7-.1 2.5-.3 3.2-1.1.6-.8 1-2.3 1-3.9 0-1.4-.3-2.6-.9-3.4-.4-.6-.8-.8-1.8-1-.7 4.5-.9 5.7-1.5 7.7-.5 1.6-1 2.6-1.6 3.2-.6.5-1.4.9-2.1.9-1.2 0-2.5-.7-3.3-1.8-.8-1.1-1.4-3-1.4-4.9 0-1.8.4-3.4 1.2-4.7 1.4-2.3 3.7-3.4 7.1-3.4 4.9 0 7.4 2.5 7.4 7.5 0 2.8-.9 5.2-2.5 6.5-1.2 1-2.6 1.4-4.7 1.4h-.2v-3h.1zm-4.1-8.4c-.8.9-1.3 2.4-1.3 4.1 0 1.8.6 3 1.4 3 .4 0 .8-.3 1-1 .4-1.2 1-4.5 1.4-7.3-1.2.2-1.8.5-2.5 1.2zM138.7 40.7v-5.4h-1v-2.1H154v2.1h-8.2v8.2H143v-.9c-2.1.2-3.2.3-5.3.5v-2.3l1-.1zm13.9-13.4v3.6c0 1.3-.7 1.9-2.1 1.9H139v-5.5h13.6zM143 36v-.7h-1.4v.7h1.4zm0 2.3v-.8h-1.4v.8h1.4zm0 2.2v-.7h-1.4v.8l1.4-.1zm6.5-11.1v-.5H142v.5h7.5zm0 1.8v-.5H142v.5h7.5zm4.2 6.7c-.6 1.1-.9 1.5-1.7 2.3.8.3 1.1.4 2.1.5v2.9c-2.2-.5-2.9-.8-4.2-1.6-1.2.8-2 1.1-3.6 1.5v-2.6c.8-.2 1-.3 1.6-.6-.7-.8-1-1.2-1.6-2.4v-2h7.4v2zm-4.6 0c.3.6.4.7.8 1.1.4-.4.5-.5.8-1.1h-1.6zM156.2 28.1h2.7v-1.3h2.8v1.3h2.6v2.4h-.7l-.3 1.4h1.1v2.3h-2.6v.8h2.7v2.4h-2.7v.1c1 .6 1.2.7 2.4 1.3v1.1c.6-.7.7-1 .7-5.2v-7.1c3.2-.2 5.8-.5 7.6-1v3.1c-1.5.2-1.7.2-4.7.4v1.8h5.3v2.5h-1.3v8.7h-3v-8.7h-1c0 3.7-.1 4.6-.4 5.8-.5 1.7-1.6 2.7-3.4 3.1v-1.6c-1.1-.7-1.3-.8-2.2-1.5v2.9H159v-2.4c-.8 1-1.2 1.3-2.5 2.1v-3.3c1.4-.8 1.7-1.1 2.2-2.1h-2.3V35h2.7v-.8h-2.6v-2.3h1.1l-.4-1.4h-.8v-2.4h-.2zm3.6 3.8h.9l.4-1.4h-1.6l.3 1.4zM175.8 27.7h14.7v4c.1 3-1.7 4.7-4.9 4.7h-1.3c-.1 2.7-.3 3.7-1.2 4.8-1 1.1-2.3 1.7-3.9 1.7h-3.3V40h2.3c2.4 0 3-.6 3-3.1v-3.4h4.4c1.4-.1 1.9-.6 1.9-1.9v-.8h-11.6v-3.1h-.1zM209.4 33.5v3.1h-14.7v-3.1zM213 32.3h15.5v3h-5.9v1.8c.1 3.6-2.1 5.8-5.7 5.7H214v-3.1h2.7c2 .1 2.6-.7 2.6-3.2v-1.3H213v-2.9zm1.2-4.7h13.2v2.9h-13.2v-2.9zM246.3 28.8v.9c.1 1.8-.5 2.6-2.3 3.4l-2.7 1.1v8.5h-3.1v-7.3l-5.8 2v-2.8l9.7-3.6c.8-.4 1-.7 1.1-1.6v-.6h3.1zM251.9 30.7v-3h13c-1 3.1-1.8 5.2-2.9 7.3 2 2.8 3.3 5 4.6 7.7h-3.9c-.8-1.9-1.4-3-2.4-4.7-1.7 3.1-4.1 4.6-7.4 4.9h-2.3v-3h1.1c2.7 0 4.1-.7 5.5-2.7.9-1.2 2.3-4.1 3.2-6.6h-8.5v.1zM274 27.1v4.8c4.2 1 5.7 1.4 8.4 2.4v3.3c-2.4-.9-4.7-1.5-8.4-2.4V43h-3.3V27h3.3v.1zM288.3 30.3v1.3c0 2.1-.1 3.2-.4 4.3h-2c.3-1.1.4-1.8.5-3.9v-1.7h1.9zm3.1-3.6v3.7l1.2 1.1v.5h3.8v-.5h-3.3v-1.6h3.3v-.6h-3.5v-1.8h3.5v-.8h2.8v.8h3.6v1.8h-3.6v.6h3.1v1.6h-3.1v.5h3.8v1.9h-10.4v1.3l-1.2-1.5v9.7h-2.7V26.7h2.7zm1.7 7.5h9.1v6.5c.1 1.8-.5 2.4-2.3 2.5h-1.5v-2.4h1v-.7h-3.5v3h-2.7v-8.9h-.1zm6.3 2.3v-.6h-3.5v.6h3.5zm0 2.2V38h-3.5v.7h3.5zM307.7 31.2v-1h-2.6V28h2.6v-1.3h2.7V28h2.3v2.2h-2.3v1h2.6v2.3h-.7l-.2 1.4h.8v2.4h-2.5v.8h2.3v2.3h-2.3V43h-2.7v-2.6h-2.6v-2.3h2.6v-.8h-3v-2.4h1.4l-.4-1.4h-1.1v-2.3h3.1zm1.9 3.7l.2-1.4h-1.4l.2 1.4h1zm11.2-7.8v3.7c-.1 1.5-.5 1.9-2.4 1.9h-1.6v-2.2h1.3v-1.1h-1.9v4h4.8c0 3-.2 4.4-.9 5.8.4.4.5.5 1 .8v3.1c-.9-.4-1.3-.6-2.4-1.6-.7.8-1.1 1.1-2.2 1.4V40c.2-.1.3-.2.4-.4-.4-.8-.5-1.2-.8-2v5.6h-2.8v-16h7.5v-.1zm-3 8.6c.2.8.3.9.6 1.5.1-.6.2-.7.2-1.5h-.8zM329.4 27.7l-.8 12.1H326l-.7-12.1h4.1zm-.5 12.9V44h-3.3v-3.4h3.3zM336.8 27.7l-.8 12h-2.6l-.7-12.1h4.1v.1zm-.4 12.9V44H333v-3.4h3.4z"/></g></g></g></svg>