<svg width="41" height="40" viewBox="0 0 41 40" fill="none" xmlns="http://www.w3.org/2000/svg">
<path d="M32.4918 14.6931C32.5833 13.7593 31.8998 12.9231 30.966 12.8316L26.1749 12.3616C26.6632 12.0565 26.9867 11.7025 27.1393 11.2814C27.2674 10.9396 27.3407 10.3903 26.9684 9.72505C26.5167 8.91332 25.528 8.10769 23.3797 8.89501C22.4398 9.23679 21.5731 9.96918 20.9567 10.5856C20.4745 9.86542 19.7666 8.98046 18.9121 8.45558C16.9591 7.26545 15.83 7.86357 15.2319 8.57154C14.7375 9.15135 14.707 9.70674 14.7619 10.0668C14.8351 10.5063 15.0793 10.9213 15.5004 11.3119L10.8803 10.8602C10.8253 10.8602 10.7704 10.8541 10.7094 10.8541C9.84271 10.8541 9.10422 11.5133 9.01877 12.3922L8.70141 15.6513C8.67089 15.9625 8.89671 16.2372 9.20797 16.2616L27.3162 18.0376H9.0615C8.75023 18.0376 8.5 18.2879 8.5 18.5991V29.4934C8.5 31.0009 9.72064 32.2215 11.2281 32.2215H29.3852C30.8927 32.2215 32.1134 31.0009 32.1134 29.4934V18.5076H32.1256L32.4979 14.6931H32.4918ZM10.331 29.4934V19.8686H18.5459V30.3906H11.2281C10.7338 30.3906 10.331 29.9878 10.331 29.4934ZM30.2763 29.4934C30.2763 29.9878 29.8735 30.3906 29.3791 30.3906H22.0492V19.8686H30.2763V29.4934ZM30.6547 14.6381L30.4716 16.5057L22.2872 15.7001L22.4703 13.8325L30.6547 14.6381ZM24.0144 10.6161C24.4477 10.4574 24.7346 10.4025 24.936 10.4025C25.2534 10.4025 25.3327 10.5429 25.3754 10.6161C25.3876 10.6344 25.3937 10.6527 25.3998 10.671C25.3327 10.7382 25.1313 10.903 24.6064 11.0922C24.1487 11.2631 23.5017 11.3241 22.867 11.3363C23.2332 11.0311 23.636 10.7626 24.0205 10.6222L24.0144 10.6161ZM16.6356 9.75557C16.721 9.65791 16.9408 9.39548 17.9661 10.018C18.314 10.2316 18.6558 10.5734 18.9548 10.9457C18.3384 10.8114 17.7159 10.6222 17.2947 10.3659C16.8187 10.0729 16.6478 9.87763 16.599 9.79829C16.6051 9.78608 16.6173 9.76777 16.6356 9.74946V9.75557ZM10.8375 12.6912L18.9792 13.4907L18.7961 15.3583L10.6544 14.5588L10.8375 12.6912Z" fill="#F56611"/>
</svg>
