<?xml version="1.0" encoding="UTF-8"?>
<svg id="_レイヤー_1" data-name="レイヤー_1" xmlns="http://www.w3.org/2000/svg" xmlns:xlink="http://www.w3.org/1999/xlink" version="1.1" viewBox="0 0 65 64">
  <!-- Generator: Adobe Illustrator 29.2.1, SVG Export Plug-In . SVG Version: 2.1.0 Build 116)  -->
  <defs>
    <style>
      .st0 {
        fill: none;
      }

      .st1 {
        fill: #bf0000;
      }

      .st2 {
        fill: #fff;
      }

      .st3 {
        clip-path: url(#clippath);
      }
    </style>
    <clipPath id="clippath">
      <rect class="st0" x=".2" y="0" width="64" height="64"/>
    </clipPath>
  </defs>
  <g class="st3">
    <g>
      <path class="st2" d="M49.8,0H14.6C6.7,0,.2,6.5.2,14.4v35.1c0,8,6.5,14.4,14.4,14.4h35.1c8,0,14.4-6.5,14.4-14.4V14.4C64.2,6.5,57.7,0,49.8,0Z"/>
      <path class="st1" d="M38.2,20c.7,0,1.5,0,2.2.1-1.2-2.8-3.1-5.1-5.7-6.8-2.5-1.6-5.5-2.5-8.5-2.4-8.3,0-15,6-15,13.5,0,2.7.9,5.4,2.6,7.6l-2.6,8.9,9-3.6c0-.3,0-.6,0-.9,0-9.1,8.1-16.5,18-16.5Z"/>
      <path class="st1" d="M53.2,36.5c0-7.5-6.7-13.5-15-13.5s-15,6-15,13.5,6.7,13.5,15,13.5,3.6-.3,5.3-.9l9.7,3.9-2.6-8.9c1.7-2.2,2.6-4.8,2.6-7.6ZM33.7,38h-3v-3h3v3ZM39.7,38h-3v-3h3v3ZM45.7,38h-3v-3h3v3Z"/>
    </g>
  </g>
</svg>