<?xml version="1.0" encoding="UTF-8"?>
<svg id="_レイヤー_1" data-name="レイヤー_1" xmlns="http://www.w3.org/2000/svg" version="1.1" viewBox="0 0 17 16">
  <!-- Generator: Adobe Illustrator 29.2.1, SVG Export Plug-In . SVG Version: 2.1.0 Build 116)  -->
  <defs>
    <style>
      .st0 {
        fill: #bf0000;
        fill-rule: evenodd;
      }
    </style>
  </defs>
  <path class="st0" d="M8.9,1.5h6v6h-1V3.2l-6.3,6.3-.7-.7,6.3-6.3h-4.3v-1ZM2.9,5.5v8h8v-4h1v4c0,.3-.1.5-.3.7-.2.2-.4.3-.7.3H2.9c-.3,0-.5-.1-.7-.3-.2-.2-.3-.4-.3-.7V5.5c0-.3.1-.5.3-.7.2-.2.4-.3.7-.3h4v1h-4Z"/>
</svg>