<svg width="96" height="96" viewBox="0 0 96 96" fill="none" xmlns="http://www.w3.org/2000/svg">
<g clip-path="url(#clip0_5459_3004)">
<circle cx="48" cy="48" r="48" fill="#FFF6FB"/>
<mask id="mask0_5459_3004" style="mask-type:alpha" maskUnits="userSpaceOnUse" x="0" y="0" width="96" height="96">
<circle cx="48" cy="48" r="48" fill="#F9E0BA"/>
</mask>
<g mask="url(#mask0_5459_3004)">
<path d="M122.503 115.107L113.191 122.133L88.9917 79.2623C87.9259 77.0778 86.688 75.0088 85.3208 73.1814C93.9436 73.2444 102.243 77.792 106.582 85.7003L122.643 114.992C122.589 115.023 122.546 115.065 122.503 115.107Z" fill="#7251A1"/>
<path d="M63.8018 42.9653C63.5757 42.5767 63.3604 42.1881 63.1559 41.7785C62.919 41.3059 62.7683 40.8333 62.6499 40.3607C63.0482 40.6547 63.5111 40.8123 63.5865 40.8333C63.6618 40.8543 63.7479 40.8543 63.8233 40.8333C63.9525 40.8018 64.0709 40.7073 64.1247 40.5707C64.1893 40.4132 64.1247 40.2452 64.0063 40.1506C64.48 40.3712 64.8998 40.6967 65.2658 41.1483C65.3089 41.2009 65.3519 41.2639 65.3842 41.3164C65.0505 42.0306 64.4907 42.6082 63.7802 42.9443L63.8018 42.9653Z" fill="#FEDEC1"/>
<path d="M63.1018 38.9855C63.1879 38.891 63.2956 38.7965 63.4032 38.7125C63.5863 38.5759 63.6186 38.3239 63.4678 38.1558C63.3279 37.9878 63.0588 37.9668 62.8758 38.1033C62.6389 38.2818 62.4775 38.4499 62.3591 38.6179C62.2514 37.8512 62.133 37.0846 61.8639 36.3179C61.8531 36.2759 61.8316 36.2339 61.8208 36.1919C63.3171 36.0553 65.0934 36.906 65.6101 38.8805C65.7393 39.3636 65.7608 39.8257 65.707 40.2668C64.9965 39.5421 64.1245 39.1116 63.1126 38.975L63.1018 38.9855Z" fill="#FEDEC1"/>
<path d="M37.0075 70.5757C37.3843 71.7625 37.7826 72.9703 38.2024 74.1885L34.8652 73.5059C35.0375 72.3086 35.974 71.3109 36.9967 70.5652L37.0075 70.5757Z" fill="#7251A1"/>
<path d="M63.5 62.4684C63.5646 62.4894 63.6399 62.4894 63.7153 62.4684C63.7368 62.4684 64.9425 62.1638 66.385 62.1218C66.2235 63.5817 66.0513 65.0835 65.8683 66.6064C65.8252 66.6169 65.7822 66.6379 65.7499 66.6484L63.5 62.4684Z" fill="#7251A1"/>
<path d="M63.2308 61.9547L61.6699 59.0455C63.5107 58.6779 65.2116 58.4048 66.7725 58.2578C66.6864 59.2555 66.5788 60.2848 66.4711 61.3245C64.9102 61.3561 63.6291 61.6711 63.5107 61.7026C63.3816 61.7341 63.2739 61.8391 63.2308 61.9547Z" fill="#7251A1"/>
<path d="M28.8582 72.5081L28.6968 78.0323C28.1477 75.9633 28.0508 74.1779 28.8582 72.5081Z" fill="#7251A1"/>
<path d="M70.6375 63.3931L68.7536 66.0502C68.1077 66.0818 67.4618 66.1763 66.8159 66.3338C66.9882 64.9055 67.1496 63.4981 67.3003 62.1328C68.5383 62.2063 69.8194 62.5214 70.6267 63.3931H70.6375Z" fill="#7251A1"/>
<path d="M45.2211 69.5579L45.2857 74.1264C44.2415 74.41 43.165 74.6935 42.067 74.9876L39.4941 74.4625C40.1831 73.5383 41.9809 71.4378 45.2211 69.5579Z" fill="#7251A1"/>
<path d="M45.2104 68.6338C41.8302 70.4927 39.8817 72.6037 38.999 73.7485C38.5684 72.4987 38.1593 71.2699 37.7825 70.0726C38.9667 69.3585 40.0647 68.9804 40.0863 68.9699C40.3123 68.8964 40.4307 68.6653 40.3554 68.4657C40.28 68.2557 40.0324 68.1612 39.8171 68.2347C39.7202 68.2662 38.6976 68.6233 37.5349 69.2955C37.2443 68.3607 36.9752 67.4365 36.7168 66.5438C38.9452 65.5461 41.7225 64.5273 45.1351 63.4351L45.2104 68.6443V68.6338Z" fill="#7251A1"/>
<path d="M34.0468 73.3491L29.0088 72.3199C29.9453 70.4505 32.0338 68.7176 35.9199 66.9006C36.1783 67.8354 36.469 68.7911 36.7596 69.7678C35.5109 70.6185 34.3052 71.8158 34.0468 73.3491Z" fill="#7251A1"/>
<path d="M76.2566 64.5065C76.2566 64.6536 76.2458 64.7901 76.2351 64.9371L73.5546 59.2763L71.1324 62.7001C70.1528 61.7654 68.7426 61.4188 67.397 61.3348C67.5154 60.253 67.6123 59.2028 67.7092 58.1736C72.5642 57.848 75.8368 58.8142 76.7733 61.8704C76.9994 62.6161 76.9994 63.4248 76.8271 64.2125C76.7733 64.181 76.7087 64.1599 76.6441 64.1599C76.4396 64.1599 76.2674 64.3175 76.2674 64.517L76.2566 64.5065Z" fill="#7251A1"/>
<path d="M45.0918 68.7383V69.6625C41.8623 71.5424 40.0645 73.6429 39.3755 74.5671L39.1172 74.5146C39.0418 74.2941 38.9665 74.0735 38.8911 73.853C39.7738 72.7082 41.7223 70.5972 45.1025 68.7383H45.0918Z" fill="#210704"/>
<path d="M63.1988 67.8988C60.9812 69.3061 58.6559 70.4824 56.3199 71.1651C53.9947 71.8477 49.904 72.961 45.1674 74.2423L45.1028 69.6737V68.7495L45.0167 63.5403L44.9951 62.343C45.1135 62.385 45.2427 62.4165 45.3611 62.4585C48.8059 63.4353 52.4876 63.5718 55.4695 62.8261C55.6417 62.7841 55.7494 62.6056 55.7063 62.4375C55.7063 62.427 55.6955 62.4165 55.6848 62.3955C57.8593 61.8389 59.6463 60.8202 61.1319 59.4548L65.1257 66.8906C64.4798 67.1636 63.8339 67.4997 63.1988 67.8988Z" fill="#FEDEC1"/>
<path d="M63.231 61.9534C63.1987 62.0269 63.1879 62.1109 63.2094 62.1844C63.2417 62.3315 63.3709 62.426 63.5109 62.4575L65.7608 66.6375C65.5562 66.711 65.3517 66.7845 65.1472 66.8686L61.1533 59.4328C61.3256 59.2753 61.487 59.1177 61.6377 58.9602L61.6808 59.0337L63.2417 61.9429L63.231 61.9534Z" fill="#210704"/>
<path d="M58.6773 109.11C51.5294 101.128 46.05 91.3925 42.0562 82.0558C46.0392 82.0558 49.8177 81.7197 52.3044 81.4362C53.2087 82.3814 53.9515 83.3161 54.5005 84.2403C55.9861 86.6874 55.9215 88.5568 55.8677 90.3528C55.8138 92.0962 55.76 93.8921 57.0841 96.0871C57.5255 96.8223 58.0637 97.4734 58.6773 98.0301C58.8173 98.1561 59.0218 98.1666 59.1833 98.0826C59.2156 98.0616 59.2479 98.0406 59.2802 98.0091C59.4417 97.8515 59.4417 97.5995 59.2802 97.4419C58.7204 96.9378 58.236 96.3392 57.8269 95.6775C56.6105 93.6715 56.6643 92.0647 56.7181 90.3528C56.7719 88.4413 56.8365 86.4669 55.2433 83.8307C54.7374 83.001 54.1022 82.1608 53.3379 81.3206C54.4467 81.1841 55.1572 81.0686 55.2864 81.0476H55.3294C56.9549 80.5645 58.4728 80.0604 59.883 79.5352C60.3029 79.5772 60.5828 79.5877 60.6581 79.5667C60.7765 79.4512 60.9272 79.2832 61.1102 79.0731C62.3267 78.6005 63.4678 78.1069 64.5228 77.6028C62.8434 91.9386 61.7561 106.758 66.1698 115.422C63.3601 113.595 60.8088 111.505 58.6666 109.121L58.6773 109.11Z" fill="white"/>
<path d="M41.0554 82.046C45.0492 91.5192 50.6039 101.444 57.9887 109.688C60.5508 112.556 63.705 114.982 67.1498 117.072C67.2036 117.124 67.2682 117.156 67.3328 117.177C75.568 122.123 85.4826 125.138 93.3626 127.543C95.7848 128.278 98.0993 128.981 100.155 129.685C99.9293 129.801 99.7355 129.958 99.6063 130.168L97.9916 132.836L93.5456 133.203C90.2838 132.836 86.5161 133.151 82.8667 134.233L82.4577 134.359C82.1132 134.464 81.7687 134.579 81.4457 134.695L79.6803 135.388C79.5296 135.451 79.3896 135.514 79.2497 135.577L79.1636 132.668C79.1636 132.426 78.9375 132.227 78.7007 132.237C78.6253 132.237 78.5715 132.258 78.5069 132.29C78.3347 132.09 78.0655 131.954 77.7749 131.954L71.3159 131.765C71.2513 131.765 71.1759 131.765 71.1113 131.775C70.7884 131.828 70.5192 132.006 70.3793 132.269H70.2824C70.2824 132.269 70.2716 132.269 70.2609 132.269C70.2609 132.269 70.2609 132.269 70.2501 132.269L45.2537 132.563C44.6401 132.563 44.0696 132.374 43.6174 132.048C43.7574 131.891 43.7789 131.649 43.639 131.481C43.4775 131.292 43.1976 131.261 43.0038 131.418C42.7455 131.04 42.5732 130.599 42.5409 130.116C42.1211 123.793 41.0769 107.063 41.2276 98.9444C41.3998 89.9963 34.2196 82.5921 25.0908 82.214C26.0058 81.2373 27.0285 80.3656 28.1589 79.5884C28.1804 79.6094 28.2019 79.6304 28.2342 79.6514C31.5283 81.3948 36.3833 81.9829 41.0877 82.0565L41.0554 82.046Z" fill="white"/>
<path d="M113.084 122.238L122.062 138.149C123.763 141.163 124.699 144.577 124.57 148.021C124.495 150.269 123.967 152.201 123.063 153.882C122.869 153.787 122.622 153.85 122.514 154.039C119.144 159.847 110.952 162.515 100.327 165.182C100.747 164.374 100.919 163.492 100.833 162.641C100.769 161.906 100.51 161.191 100.101 160.561C100.123 160.54 100.155 160.509 100.176 160.477C100.23 160.393 100.241 160.299 100.23 160.215C100.725 160.32 101.231 160.362 101.727 160.32C103.266 160.215 104.741 159.448 105.656 158.135C106.313 157.19 106.571 156.108 106.474 155.069C106.399 154.27 106.108 153.493 105.624 152.821C105.667 152.821 105.72 152.821 105.764 152.811C105.839 152.79 105.914 152.737 105.968 152.664C106.431 152.758 106.905 152.779 107.378 152.748C108.918 152.642 110.392 151.876 111.308 150.563C111.964 149.618 112.233 148.536 112.136 147.496C112.018 146.246 111.383 145.06 110.296 144.23L113.848 138.328C114.311 137.55 113.794 136.406 112.675 135.765L109.208 133.78C109.208 133.696 109.198 133.623 109.144 133.549C107.421 130.892 101.328 129.033 93.6313 126.691C85.7944 124.307 75.9336 121.303 67.7845 116.409C62.4881 108.175 63.7046 92.3268 65.5023 77.1088C66.2559 76.7307 66.9771 76.3421 67.6446 75.9535C67.7199 76.111 67.7953 76.279 67.8491 76.4576C68.2474 77.7599 67.9675 79.0622 67.6769 80.438C67.3431 81.9819 66.9987 83.5783 67.5477 85.3427C67.9137 86.519 68.5811 87.5797 69.4961 88.4094C69.6038 88.5144 69.7653 88.5459 69.916 88.5039C69.9806 88.4829 70.0452 88.4514 70.099 88.3989C70.2605 88.2414 70.2605 87.9893 70.099 87.8423C69.2916 87.1071 68.6888 86.1514 68.3658 85.1116C67.8814 83.5258 68.2043 82.0239 68.5165 80.5746C68.8179 79.1567 69.1301 77.6969 68.678 76.216C68.6027 75.964 68.5058 75.7329 68.3873 75.5124C73.2962 72.5087 75.8583 69.2739 76.698 66.4487C79.8844 67.4885 82.7802 69.9986 85.2346 73.2649C86.6018 75.0923 87.8398 77.1612 88.9055 79.3458L113.105 122.217L113.084 122.238Z" fill="white"/>
<path d="M66.4604 69.3053C66.5789 68.3076 66.708 67.3098 66.8265 66.3331C67.4724 66.1756 68.1183 66.0916 68.7642 66.0496L66.4712 69.2948L66.4604 69.3053Z" fill="#7251A1"/>
<path d="M60.6703 79.5464C60.5948 79.5674 60.3145 79.5569 59.894 79.5148C60.3145 79.357 60.7242 79.2098 61.1231 79.052C60.9398 79.2624 60.7889 79.4307 60.6703 79.5464Z" fill="#7251A1"/>
<path d="M59.9045 78.6223L42.0669 74.9884C43.1649 74.6944 44.2414 74.4108 45.2856 74.1272C50.0223 72.8564 54.1022 71.7327 56.4382 71.05C58.7742 70.3673 61.0995 69.1911 63.3171 67.7837C63.963 67.3741 64.5981 67.0381 65.244 66.7755C65.4485 66.6915 65.6531 66.618 65.8576 66.5445C65.9007 66.534 65.9437 66.5129 65.976 66.5024C65.8038 67.9098 65.6315 69.3381 65.4485 70.7664L59.8938 78.6223H59.9045Z" fill="#7251A1"/>
<path d="M40.237 68.5705C40.3123 68.7805 40.1939 69.0011 39.9678 69.0746C39.9463 69.0746 38.8483 69.4632 37.6641 70.1774C37.578 69.9148 37.5026 69.6522 37.4165 69.3897C38.5791 68.7175 39.6018 68.3604 39.6987 68.3289C39.914 68.2554 40.1616 68.3604 40.237 68.56V68.5705Z" fill="#210704"/>
<path d="M34.7576 73.6232L33.9287 73.4551C34.1871 71.9218 35.3928 70.7245 36.6415 69.8738C36.7276 70.1468 36.803 70.4094 36.8891 70.6825C35.8557 71.4281 34.9299 72.4154 34.7576 73.6232Z" fill="#210704"/>
<path d="M67.3003 62.1324C67.3326 61.8699 67.3541 61.6073 67.3864 61.3342C68.732 61.4182 70.1423 61.7648 71.1219 62.6996L70.6374 63.3927C69.8301 62.521 68.549 62.2059 67.3111 62.1324H67.3003Z" fill="#210704"/>
<path d="M63.5003 62.4685C63.3603 62.437 63.2419 62.3425 63.1989 62.1954C63.1773 62.1114 63.1989 62.0379 63.2204 61.9644C63.2742 61.8489 63.3711 61.7438 63.5003 61.7123C63.6187 61.6808 64.8997 61.3657 66.4607 61.3342C66.4284 61.5968 66.4068 61.8699 66.3745 62.1324C64.9213 62.1744 63.7263 62.4685 63.7048 62.479C63.6295 62.5 63.5649 62.4895 63.4895 62.479L63.5003 62.4685Z" fill="#210704"/>
<path d="M42.0668 74.9875L59.9045 78.6214L59.743 78.7999C58.3112 79.325 56.7934 79.8291 55.1463 80.3123C54.9956 80.3333 54.0913 80.4698 52.7134 80.6378C52.3366 80.2492 51.9276 79.8711 51.497 79.4826C51.6262 79.304 51.6692 79.0835 51.6046 78.8734C51.4432 78.3483 50.8511 78.2748 50.5281 78.3693C50.3882 78.4113 50.259 78.4848 50.1513 78.5899C49.9468 78.7894 49.8822 79.0625 49.9576 79.304C50.0652 79.6401 50.3451 79.7976 50.625 79.8292C50.9803 80.1442 51.3247 80.4488 51.6477 80.7639C49.1179 81.0369 45.5009 81.331 41.7439 81.31C40.775 79.01 39.903 76.7309 39.1172 74.5254L39.3756 74.5779L42.0668 74.998V74.9875Z" fill="#7251A1"/>
<path d="M34.8649 73.5176L38.2021 74.2002C38.988 76.4793 39.8707 78.8108 40.8611 81.1844C36.3936 81.0898 31.8507 80.5332 28.7827 78.9474L28.815 77.9391L28.9765 72.4148V72.3203H29.0195L34.0576 73.3495L34.8865 73.5176H34.8649Z" fill="#7251A1"/>
<path d="M66.0298 73.5373C66.1374 72.6551 66.2451 71.7729 66.3527 70.9012C66.4281 70.3236 66.4927 69.7564 66.568 69.1893L68.861 65.944L70.7449 63.2869L71.2293 62.5937L73.6514 59.1699L76.3319 64.8308C76.052 67.7925 73.6407 71.4368 68.0859 74.8186C67.5261 74.1149 66.7726 73.6948 66.0298 73.5373Z" fill="#7251A1"/>
<path d="M67.3541 75.2504C66.8374 75.555 66.2883 75.849 65.707 76.1431C65.7824 75.5445 65.847 74.9353 65.9223 74.3367C66.4283 74.4627 66.945 74.7673 67.3433 75.2504H67.3541Z" fill="#7251A1"/>
<path d="M59.8511 78.695L59.9049 78.6215L65.4596 70.7656C65.4596 70.7656 65.4596 70.7866 65.4596 70.7971C65.3843 71.4063 65.3089 72.0259 65.2336 72.6456C65.0936 72.6246 64.9429 72.6456 64.8353 72.6666C64.6953 72.7086 64.5662 72.7821 64.4585 72.8871C64.254 73.0867 64.1894 73.3597 64.2647 73.6013C64.3724 73.9479 64.6738 74.0949 64.9537 74.1369C64.9752 74.1684 65.0075 74.1894 65.0398 74.2104C64.9429 75.0191 64.846 75.8278 64.7491 76.6365C63.2851 77.3507 61.6596 78.0333 59.8618 78.695H59.8511Z" fill="#7251A1"/>
<path d="M50.3344 79.031C50.173 79.199 50.1837 79.4511 50.356 79.5876C50.4529 79.6717 50.539 79.7452 50.6251 79.8292C50.356 79.7872 50.0653 79.6402 49.9577 79.3041C49.8823 79.0625 49.9469 78.7895 50.1514 78.5899C50.2591 78.4849 50.3883 78.4114 50.5282 78.3693C50.8512 78.2748 51.4433 78.3484 51.6047 78.8735C51.6693 79.094 51.6263 79.3041 51.4971 79.4826C51.3141 79.3146 51.1311 79.157 50.9265 78.989C50.7543 78.842 50.4852 78.863 50.3344 79.031Z" fill="#210704"/>
<path d="M64.7382 74.0117C64.7382 74.1062 64.7813 74.1798 64.8459 74.2428C64.566 74.2113 64.2645 74.0642 64.1569 73.7071C64.0815 73.4656 64.1461 73.1925 64.3507 72.993C64.4583 72.8879 64.5875 72.8144 64.7274 72.7724C64.8351 72.7409 64.975 72.7304 65.1257 72.7514C65.0934 73.0455 65.0504 73.3291 65.0181 73.6231C64.8566 73.6861 64.7382 73.8332 64.749 74.0117H64.7382Z" fill="#210704"/>
<path d="M45.3394 35.1103L46.9864 34.144C46.9326 34.1756 46.8788 34.2176 46.8249 34.2491C46.4697 34.4591 45.3824 35.0788 45.3394 35.0998V35.1103Z" fill="#FEDEC1"/>
<path d="M61.8529 36.3276C61.8529 36.3276 61.8206 36.2436 61.8098 36.2016C61.5622 35.5084 61.3146 34.8152 61.0347 34.1326C60.7979 34.2166 60.5611 34.3006 60.3135 34.3531C59.6568 34.5211 58.9571 34.5527 58.2789 34.4687C57.956 34.4266 56.6319 33.828 56.4489 33.9015C55.3616 34.3216 54.2313 34.6157 53.0794 34.7837C52.0244 34.9413 51.2171 34.8047 50.1728 34.5842H50.1621C48.3428 35.1303 45.081 35.9915 45.3286 35.1198L33.8746 41.8099C33.6593 42.5976 33.4332 43.4588 33.1856 44.4145C33.1749 44.4145 33.1641 44.4145 33.1426 44.4145C33.1426 44.4145 33.1426 44.4145 33.1426 44.425C33.3902 44.2884 33.6701 44.1834 33.9822 44.1099C33.9822 44.1099 33.9822 44.1099 33.993 44.1099L34.725 46.9981C34.8434 47.1346 34.908 47.2817 34.9403 47.4077C34.9834 47.5757 34.9834 47.7333 34.9511 47.9013L35.7477 51.0521C35.2633 51.1676 34.7681 51.1676 34.2944 51.0836C34.2944 51.1046 34.2944 51.1256 34.3052 51.1466C34.6174 52.785 34.9511 54.4654 35.8338 55.9042C36.8457 57.5531 38.482 58.7294 40.2044 59.6431C41.6469 60.4097 43.1648 61.2709 44.7257 61.8276C44.8011 61.7015 44.9626 61.6385 45.1025 61.691C45.2425 61.733 45.3824 61.7751 45.5224 61.8171C48.8488 62.7623 52.412 62.8883 55.2755 62.1846C55.4369 62.1426 55.5984 62.2372 55.663 62.3842C57.8375 61.8276 59.6245 60.8088 61.1101 59.4435C61.2824 59.286 61.4438 59.1284 61.5945 58.9709C62.4557 58.0887 63.2093 57.0909 63.8767 55.9777C65.7606 52.7954 66.8156 49.5502 65.3731 45.9793C64.9425 44.9291 64.3396 43.9524 63.7798 42.9651C63.5538 42.5766 63.3385 42.188 63.1339 41.7784C62.8971 41.3058 62.7464 40.8331 62.628 40.3605C62.3804 40.1715 62.1543 39.9299 62.079 39.6149C62.0144 39.3628 62.0359 39.0162 62.3265 38.6276C62.2189 37.8609 62.1005 37.0943 61.8314 36.3276H61.8529ZM50.7757 52.8585C52.2613 53.6147 55.8137 55.232 57.5254 54.3078C57.7191 54.2028 57.956 54.3393 57.9344 54.5494C57.8483 55.295 57.4931 56.5343 56.1474 56.7444C52.7349 57.2695 51.0125 54.5179 50.3989 53.1841C50.2913 52.9635 50.5604 52.7324 50.7865 52.848L50.7757 52.8585ZM44.8657 37.5879L40.8396 39.5203C40.8396 39.5203 40.7857 39.5413 40.7534 39.5518C40.5597 39.5939 40.3659 39.5203 40.2798 39.3523C40.1721 39.1632 40.2583 38.9217 40.4736 38.8167L44.4997 36.8842C44.7042 36.7897 44.9626 36.8632 45.0702 37.0523C45.1779 37.2413 45.0918 37.4829 44.8765 37.5879H44.8657ZM49.9898 42.398C49.021 45.5382 45.0487 45.8743 43.3694 45.8743C42.9495 45.8743 42.6804 45.8533 42.6266 45.8533C42.379 45.8323 42.196 45.6223 42.2175 45.3702C42.239 45.1287 42.4651 44.9501 42.7127 44.9711C42.7665 44.9711 48.1383 45.3807 49.1286 42.146C49.204 41.9149 49.4516 41.7784 49.6992 41.8519C49.936 41.9254 50.076 42.167 50.0006 42.4085L49.9898 42.398ZM53.0471 48.668C54.1774 49.1721 55.3616 49.0776 56.2874 48.4159C56.6749 48.1429 57.1593 47.6493 57.3208 46.8511C57.4715 46.0949 57.2455 45.1707 56.7933 44.7086C56.4919 44.3935 56.1367 44.341 55.8998 44.341C55.5661 44.341 55.2324 44.467 54.8772 44.6035L53.4131 45.1496C53.1978 45.2337 52.9502 45.1287 52.8641 44.9081C52.778 44.6981 52.8856 44.4565 53.1117 44.3725L54.5757 43.8264C54.9633 43.6793 55.3939 43.5218 55.8783 43.5113C56.4489 43.5113 56.9871 43.7213 57.3962 44.1309C58.1174 44.8661 58.322 46.1369 58.1497 47.0086C57.9344 48.0693 57.2885 48.7205 56.7826 49.0776C56.3735 49.3717 55.9214 49.5712 55.4477 49.6972C54.565 49.9178 53.6176 49.8232 52.6919 49.4136C52.4766 49.3191 52.3797 49.0776 52.4766 48.8675C52.5734 48.6575 52.821 48.563 53.0363 48.6575L53.0471 48.668ZM58.1174 35.1093C58.139 35.3088 57.999 35.4979 57.7945 35.5504C57.773 35.5504 57.7622 35.5504 57.7407 35.5504L53.2839 36.1175C53.0471 36.1491 52.8426 35.9915 52.8103 35.7815C52.7887 35.5609 52.961 35.3613 53.1871 35.3403L57.6438 34.7732C57.8806 34.7417 58.0851 34.8992 58.1174 35.1093ZM61.5299 38.7432C61.7345 38.8902 61.7668 39.1633 61.6161 39.3628C60.3781 40.9697 58.914 41.3898 57.7299 41.3898C56.4704 41.3898 55.5231 40.9172 55.5015 40.9067C55.2755 40.7911 55.1893 40.5286 55.3078 40.308C55.4262 40.0875 55.6953 40.014 55.9214 40.119C56.0398 40.182 58.8064 41.5368 60.884 38.8272C61.0347 38.6276 61.3146 38.5961 61.5192 38.7432H61.5299Z" fill="#FEDEC1"/>
<path d="M33.7134 49.2562C33.8103 49.3192 33.9394 49.3402 34.0471 49.3087C34.1224 49.2877 34.1978 49.2457 34.2516 49.1932C34.327 49.1196 34.8652 48.5525 34.9729 47.9224L35.7695 51.0731C35.2851 51.1886 34.7899 51.1886 34.3162 51.1046C34.0901 51.0626 33.8641 50.9891 33.6488 50.9051C33.638 50.2749 33.6488 49.7288 33.7026 49.2667L33.7134 49.2562Z" fill="#FEDEC1"/>
<path d="M34.0146 44.1208L34.7466 47.009C34.542 46.778 34.1868 46.5574 33.5517 46.4524C33.3256 46.4104 33.0995 46.5574 33.0565 46.778C33.0134 46.988 33.1641 47.1981 33.3902 47.2401C33.4548 47.2401 33.5301 47.2611 33.6055 47.2821C33.2933 47.4501 33.078 47.8072 32.9381 48.3638C32.8196 48.8259 32.7658 49.5086 32.7766 50.3593C32.1953 49.8867 31.7431 49.2251 31.5278 48.3954C31.248 47.3031 31.4955 45.3391 33.1641 44.4569C33.4117 44.3204 33.6916 44.2154 34.0038 44.1418C34.0038 44.1418 34.0038 44.1418 34.0146 44.1418V44.1208Z" fill="#FEDEC1"/>
<path d="M34.0475 48.0486C34.0475 48.0486 34.0475 48.0486 34.0583 48.0486C34.0044 48.1538 33.9397 48.2589 33.875 48.3641C33.9613 48.1327 34.0367 48.0696 34.0367 48.0591L34.0475 48.0486Z" fill="#FEDEC1"/>
<path d="M58.2897 34.4696C57.9667 34.4276 56.6426 33.8289 56.4596 33.9024C55.3724 34.3225 54.242 34.6166 53.0902 34.7846C52.0352 34.9422 51.2278 34.8056 50.1836 34.5851H50.1729C50.4527 34.5011 50.7003 34.4171 50.8941 34.354C50.8941 34.354 50.8941 34.354 50.8941 34.3646C50.9695 34.5641 51.1848 34.6691 51.3893 34.6166C51.4001 34.6166 51.4216 34.6166 51.4324 34.6061C52.5196 34.207 53.5315 33.6609 54.4358 33.0202C55.1355 32.9467 55.7707 32.8627 56.1797 32.7892C56.1797 32.7892 56.1797 32.8102 56.1797 32.8207C56.2443 33.0412 56.4704 33.1673 56.6965 33.1148C59.1832 32.4426 61.3685 31.0038 62.8541 29.0713C64.5226 26.8973 65.2654 24.1562 64.9532 21.3415C64.8563 20.5118 64.6734 19.6926 64.3935 18.9154C64.3612 18.8104 64.2858 18.7369 64.1997 18.6949C64.3612 18.5268 64.5119 18.3483 64.6518 18.1593C65.2439 17.3191 65.7821 16.1953 66.8371 16.1218C68.8071 15.9747 69.7975 19.0625 70.142 20.4593C70.6479 22.5283 70.4434 24.7548 69.5176 26.7082C68.3657 29.1238 66.2558 31.0983 63.9844 32.5686C63.0694 33.1568 62.0682 33.7554 61.0132 34.144C60.7764 34.228 60.5396 34.312 60.292 34.3646C59.6353 34.5326 58.9356 34.5641 58.2574 34.4801L58.2897 34.4696Z" fill="#5B2326"/>
<path d="M33.8854 41.8091C33.6701 42.5968 33.444 43.458 33.1964 44.4137C33.1857 44.4137 33.1749 44.4137 33.1534 44.4137C32.529 44.5082 31.8293 45.506 31.4848 45.3799C31.0865 45.2329 30.7097 44.6658 30.3652 43.8466L33.8746 41.7986L33.8854 41.8091Z" fill="#5B2326"/>
<path d="M44.8657 37.5886L40.8395 39.521C40.8395 39.521 40.7857 39.542 40.7534 39.5525C40.5596 39.5945 40.3659 39.521 40.2797 39.353C40.1721 39.1639 40.2582 38.9224 40.4735 38.8173L44.4996 36.8849C44.7042 36.7904 44.9625 36.8639 45.0702 37.0529C45.1778 37.242 45.0917 37.4835 44.8764 37.5886H44.8657Z" fill="#210704"/>
<path d="M34.047 49.2982C33.9286 49.3297 33.8102 49.2982 33.7133 49.2457C33.7241 49.1092 33.7456 48.9831 33.7671 48.8676C33.8102 48.6365 33.8533 48.4685 33.8963 48.3425C33.9609 48.2479 34.0255 48.1429 34.0793 48.0274C34.2946 47.9329 34.4023 47.6808 34.3162 47.4603C34.2193 47.2292 33.9609 47.1242 33.7241 47.2082C33.6918 47.2187 33.6487 47.2397 33.6164 47.2607C33.5411 47.2397 33.4657 47.2292 33.4011 47.2187C33.1751 47.1767 33.0243 46.9771 33.0674 46.7566C33.1105 46.5465 33.3365 46.3995 33.5626 46.431C34.1977 46.536 34.553 46.7566 34.7575 46.9876C34.8759 47.1242 34.9405 47.2712 34.9728 47.3973C35.0159 47.5653 35.0159 47.7228 34.9836 47.8909C34.8759 48.521 34.3377 49.0881 34.2623 49.1617C34.2085 49.2247 34.1331 49.2562 34.0578 49.2772L34.047 49.2982Z" fill="#210704"/>
<path d="M57.7946 35.5405C57.7946 35.5405 57.7623 35.5405 57.7408 35.5405L53.2841 36.1076C53.0472 36.1391 52.8427 35.9816 52.8104 35.7715C52.7889 35.551 52.9611 35.3514 53.1872 35.3304L57.6439 34.7633C57.8807 34.7318 58.0853 34.8893 58.1176 35.0994C58.1391 35.2989 57.9992 35.488 57.7946 35.5405Z" fill="#210704"/>
<path d="M50.7757 52.8487C52.2613 53.6049 55.8138 55.2222 57.5254 54.298C57.7192 54.193 57.956 54.3295 57.9345 54.5396C57.8484 55.2852 57.4931 56.5245 56.1475 56.7346C52.735 57.2597 51.0126 54.5081 50.399 53.1743C50.2913 52.9537 50.5605 52.7226 50.7865 52.8382L50.7757 52.8487Z" fill="#F16122"/>
<path d="M64.1354 40.5816C64.0816 40.7182 63.9739 40.8022 63.834 40.8442C63.7586 40.8652 63.6725 40.8652 63.5971 40.8442C63.5218 40.8232 63.0589 40.6656 62.6606 40.3716C62.413 40.1825 62.1869 39.941 62.1115 39.6259C62.047 39.3739 62.0685 39.0273 62.3592 38.6387C62.4776 38.4811 62.6498 38.3026 62.8759 38.124C63.0589 37.9875 63.328 38.0085 63.4679 38.1766C63.6187 38.3446 63.5864 38.5967 63.4033 38.7332C63.3065 38.8067 63.1988 38.9012 63.1019 39.0063C63.0589 39.0063 63.0158 38.9957 62.9835 38.9852C62.7359 38.9642 62.5099 39.1323 62.4776 39.3738C62.4453 39.6154 62.6283 39.8359 62.8759 39.8674C63.2957 39.9095 63.6725 40.0145 64.017 40.1825C64.1354 40.2876 64.1892 40.4451 64.1354 40.6026V40.5816Z" fill="#210704"/>
<path d="M55.2436 83.8197C56.8368 86.4558 56.7829 88.4302 56.7184 90.3417C56.6645 92.0536 56.6215 93.6605 57.8272 95.6664C58.2362 96.3386 58.7207 96.9267 59.2804 97.4308C59.4419 97.5779 59.4419 97.8299 59.2804 97.998C59.2481 98.0295 59.2158 98.0505 59.1835 98.0715C59.0221 98.166 58.8175 98.145 58.6776 98.019C58.064 97.4624 57.5257 96.8112 57.0844 96.0761C55.7603 93.8915 55.8141 92.0851 55.8679 90.3417C55.9217 88.5353 55.9756 86.6763 54.5008 84.2293C53.941 83.3051 53.2089 82.3703 52.3047 81.4251C52.6815 81.3831 53.0152 81.3411 53.3274 81.2991C54.0917 82.1393 54.7376 82.9795 55.2328 83.8091L55.2436 83.8197Z" fill="#210704"/>
<path d="M50.3559 79.5977C50.1837 79.4507 50.1729 79.1986 50.3344 79.0411C50.4959 78.8731 50.765 78.8626 50.9265 78.9991C51.1202 79.1671 51.3033 79.3247 51.497 79.4927C51.9276 79.8813 52.3367 80.2594 52.7135 80.648C52.3905 80.69 52.0353 80.7215 51.6477 80.7635C51.3248 80.4589 50.9803 80.1439 50.6251 79.8288C50.5389 79.7448 50.4421 79.6712 50.3559 79.5872V79.5977Z" fill="#210704"/>
<path d="M68.6675 76.2269C69.1196 77.7077 68.8074 79.1675 68.506 80.5854C68.1938 82.0347 67.8708 83.5365 68.3553 85.1224C68.6782 86.1727 69.2811 87.1179 70.0884 87.8531C70.2499 88.0001 70.2499 88.2522 70.0884 88.4097C70.0346 88.4622 69.97 88.4937 69.9054 88.5147C69.7655 88.5567 69.604 88.5252 69.4856 88.4202C68.5706 87.5905 67.9032 86.5297 67.5371 85.3535C66.9989 83.5891 67.3326 81.9927 67.6663 80.4488C67.957 79.073 68.2369 77.7602 67.8386 76.4684C67.7847 76.2899 67.7201 76.1218 67.634 75.9643C67.8816 75.8173 68.1184 75.6807 68.3553 75.5337C68.4737 75.7542 68.5706 75.9853 68.6459 76.2373L68.6675 76.2269Z" fill="#210704"/>
<path d="M64.8353 74.2431C64.7814 74.18 64.7383 74.1064 64.7275 74.0117C64.7275 73.8329 64.8354 73.6857 64.9971 73.6226C64.9647 73.854 64.9432 74.0854 64.9108 74.3063C64.8785 74.2852 64.8461 74.2642 64.8246 74.2326L64.8353 74.2431Z" fill="#210704"/>
<path d="M65.8252 74.4525C65.8575 74.1899 65.8898 73.9169 65.9221 73.6543C66.6649 73.8013 67.4184 74.2319 67.9782 74.9356C67.7414 75.0826 67.4938 75.2297 67.2462 75.3662C66.8371 74.8831 66.3312 74.5785 65.8252 74.4525Z" fill="#210704"/>
<path d="M57.5903 15.9217C51.788 11.9938 43.5527 11.5842 36.5662 15.3861C36.62 15.5541 36.5662 15.7326 36.4047 15.8482C36.3617 15.8797 36.3186 15.8902 36.2756 15.9007C36.2863 16.4363 35.8127 17.161 35.0053 17.6861C34.1979 18.2217 33.3259 18.4003 32.8092 18.2007C32.7877 18.2323 32.7554 18.2743 32.7123 18.2953C32.6693 18.3268 32.6154 18.3478 32.5724 18.3583C32.5078 18.3793 32.4325 18.3688 32.3679 18.3583C26.8992 23.3154 24.7462 30.5727 26.8454 36.9371C26.9208 37.1682 27.0069 37.3887 27.093 37.6198L34.6178 33.1563C34.8223 33.0407 35.0806 33.1037 35.1991 33.2928C35.3175 33.4923 35.2529 33.7444 35.0591 33.8599L27.4698 38.3655C27.4698 38.3655 27.3944 38.4075 27.3514 38.418C27.1791 38.46 26.9853 38.3865 26.8885 38.2289L18.115 43.3541C16.7586 44.1523 16.4464 46.0428 17.4368 47.5971C18.4164 49.141 20.3218 49.7501 21.6782 48.9624L30.3656 43.8793L33.875 41.8313L45.3289 35.1412L46.976 34.175C48.3216 33.3138 49.0967 31.9169 50.001 30.6777C51.282 28.9237 51.7772 26.8548 51.8095 24.8488C51.831 23.1369 51.4758 21.5195 51.1959 19.8706C51.0452 18.9569 51.2605 17.4341 52.6061 17.2135C53.4135 17.077 54.1778 17.434 54.8022 17.8436C55.8249 18.5158 56.643 19.377 57.2458 20.3327C57.2458 20.3327 57.2458 20.3327 57.2566 20.3222C57.4611 20.2067 57.7195 20.2802 57.8379 20.4798C57.7948 19.2405 57.6549 18.0222 57.558 16.7829C57.5365 16.5309 57.5365 16.2368 57.5796 15.9322L57.5903 15.9217ZM34.6393 20.0912C33.369 22.8218 33.2721 25.9726 34.3809 28.7347C34.467 28.9448 34.3594 29.1863 34.1441 29.2703C34.1226 29.2703 34.1118 29.2808 34.0903 29.2914C33.8857 29.3439 33.6704 29.2388 33.5951 29.0393C32.4109 26.0671 32.5078 22.6853 33.875 19.7551C33.9718 19.545 34.2194 19.4505 34.4347 19.5451C34.65 19.6396 34.7469 19.8811 34.65 20.0912H34.6393ZM48.257 21.1519C48.2032 21.2045 48.1279 21.2464 48.0525 21.2675C47.9126 21.299 47.7618 21.2674 47.6542 21.1624C45.329 18.9779 42.121 17.6336 38.8376 17.4656C38.6008 17.4551 38.4178 17.2555 38.4393 17.035C38.4501 16.8039 38.6546 16.6359 38.8807 16.6464C42.3686 16.8144 45.7811 18.2427 48.2463 20.5743C48.4185 20.7318 48.4185 20.9944 48.2463 21.1624L48.257 21.1519Z" fill="#7251A1"/>
<path d="M63.6186 19.1883C63.8769 19.9129 64.0492 20.6691 64.1353 21.4358C64.4259 24.0404 63.7478 26.5715 62.2084 28.5775C60.8304 30.3629 58.8066 31.6967 56.5029 32.3163C56.2876 32.3794 56.1584 32.5894 56.2015 32.7995C55.7924 32.873 55.1572 32.957 54.4575 33.0305C55.5663 32.2533 56.5244 31.3291 57.2564 30.2894C58.7743 28.1469 59.3341 25.5843 58.8281 23.0952C58.6451 22.171 58.3222 21.2888 57.8593 20.4801C57.8162 19.2408 57.6763 18.0225 57.5794 16.7832C57.5579 16.5312 57.5578 16.2371 57.6009 15.9325C57.7193 15.0188 58.1607 14.0736 59.1941 14.0211C60.023 13.979 60.7551 14.4727 61.3471 15.0083C62.4882 16.0375 63.3279 17.2978 63.8769 18.6736C63.6616 18.7577 63.554 18.9782 63.6293 19.1988L63.6186 19.1883Z" fill="#5B2326"/>
<path d="M64.4261 18.9143C64.706 19.6915 64.889 20.5107 64.9858 21.3404C65.298 24.155 64.5552 26.8962 62.8867 29.0702C61.4011 31.0026 59.2158 32.4415 56.7291 33.1136C56.503 33.1661 56.2769 33.0401 56.2124 32.8196C56.2124 32.8196 56.2124 32.7986 56.2124 32.7881C56.1693 32.578 56.2985 32.368 56.5138 32.3049C58.8175 31.6748 60.8521 30.3515 62.2192 28.5661C63.7586 26.5601 64.4476 24.029 64.1462 21.4244C64.0601 20.6577 63.8878 19.9015 63.6295 19.1769C63.5541 18.9668 63.6725 18.7358 63.877 18.6517C63.9955 18.6097 64.1139 18.6307 64.2215 18.6832C64.3077 18.7358 64.383 18.8093 64.4153 18.9038L64.4261 18.9143Z" fill="#210704"/>
<path d="M45.3395 35.1097C45.3395 35.1097 46.4698 34.469 46.8251 34.259C46.8789 34.2275 46.9327 34.1854 46.9865 34.1539C48.3322 33.2927 49.1073 31.8959 50.0115 30.6566C51.2926 28.9027 51.7878 26.8337 51.8201 24.8278C51.8416 23.1159 51.4863 21.4985 51.2065 19.8496C51.0557 18.9359 51.271 17.413 52.6167 17.1925C53.424 17.0559 54.1884 17.413 54.8127 17.8226C55.8354 18.4948 56.6536 19.356 57.2564 20.3117C57.0626 20.4272 56.9873 20.6688 57.1057 20.8683C57.5255 21.6035 57.8162 22.4017 57.9884 23.2419C58.4405 25.5209 57.9346 27.8525 56.5459 29.8059C55.3079 31.5703 53.381 32.9987 51.1418 33.8284C50.9265 33.9124 50.8189 34.1434 50.8943 34.3535C50.7005 34.4165 50.4529 34.49 50.173 34.5845C48.3537 35.1412 45.0919 36.0024 45.3395 35.1202V35.1097Z" fill="#5B2326"/>
<path d="M51.1421 33.8286C53.392 32.9989 55.3082 31.5706 56.5462 29.8062C57.9349 27.8422 58.4408 25.5107 57.9887 23.2422C57.8165 22.402 57.5258 21.6038 57.106 20.8686C56.9983 20.669 57.0629 20.4275 57.2567 20.312C57.2567 20.312 57.2567 20.312 57.2674 20.3015C57.472 20.186 57.7303 20.2595 57.8488 20.459C58.3117 21.2677 58.6346 22.1499 58.8176 23.0741C59.3128 25.5737 58.753 28.1258 57.2459 30.2683C56.5139 31.3081 55.5558 32.2323 54.447 33.0094C53.532 33.6501 52.5308 34.1857 51.4436 34.5953C51.4328 34.5953 51.4113 34.6058 51.4005 34.6058C51.196 34.6584 50.9807 34.5533 50.9053 34.3538C50.9053 34.3538 50.9053 34.3538 50.9053 34.3433C50.83 34.1332 50.9376 33.9022 51.1529 33.8182L51.1421 33.8286Z" fill="#210704"/>
<path d="M34.6286 33.1456C34.8331 33.0301 35.0915 33.0931 35.2099 33.2822C35.3283 33.4817 35.2637 33.7338 35.0699 33.8493L27.4806 38.3548C27.4806 38.3548 27.4052 38.3969 27.3622 38.4074C27.1899 38.4494 26.9962 38.3759 26.8993 38.2183C26.7809 38.0188 26.8454 37.7667 27.0392 37.6512L27.1038 37.6092L34.6286 33.1456Z" fill="#210704"/>
<path d="M32.8303 17.7068C32.7872 17.6438 32.7657 17.5492 32.7873 17.4232C32.8626 17.0136 33.2932 16.499 33.8638 16.1104C34.7788 15.5012 35.6292 15.4802 35.8122 15.7428C35.9199 15.8898 36.1029 15.9424 36.2751 15.9004C36.2859 16.436 35.8122 17.1606 35.0048 17.6858C34.1975 18.2214 33.3255 18.3999 32.8088 18.2004C32.9164 18.0639 32.9272 17.8643 32.8088 17.7173L32.8303 17.7068Z" fill="#7251A1"/>
<path d="M36.4157 15.8371C36.4157 15.8371 36.3296 15.8791 36.2865 15.8896C36.1143 15.9422 35.9312 15.8896 35.8236 15.7321C35.6406 15.48 34.7901 15.5011 33.8751 16.0997C33.2938 16.4883 32.874 17.0029 32.7986 17.4125C32.7771 17.5385 32.7986 17.6331 32.8417 17.6961C32.9493 17.8431 32.9386 18.0321 32.8417 18.1792C32.8201 18.2107 32.7878 18.2527 32.7448 18.2737C32.7017 18.3052 32.6479 18.3262 32.6049 18.3367C32.5403 18.3577 32.4649 18.3472 32.4003 18.3367C32.3034 18.3157 32.2173 18.2632 32.1527 18.1792C31.9697 17.9271 31.9051 17.612 31.9697 17.2655C32.0881 16.6248 32.6264 15.9316 33.4122 15.417C34.661 14.5873 36.0066 14.5138 36.5341 15.249C36.5664 15.291 36.5771 15.333 36.5879 15.3645C36.6417 15.5326 36.5879 15.7111 36.4264 15.8266L36.4157 15.8371Z" fill="#210704"/>
<path d="M48.0631 21.2583C47.9232 21.2898 47.7725 21.2583 47.6648 21.1533C45.3396 18.9688 42.1316 17.6244 38.8483 17.4564C38.6114 17.4459 38.4284 17.2463 38.45 17.0258C38.4607 16.7947 38.6653 16.6267 38.8913 16.6372C42.3792 16.8052 45.7917 18.2336 48.2569 20.5651C48.4291 20.7227 48.4291 20.9852 48.2569 21.1533C48.2031 21.2058 48.1277 21.2478 48.0524 21.2688L48.0631 21.2583Z" fill="#210704"/>
<path d="M34.3915 28.7234C34.4777 28.9335 34.37 29.175 34.1547 29.2591C34.1332 29.2591 34.1224 29.2695 34.1009 29.28C33.8964 29.3326 33.6811 29.2275 33.6057 29.028C32.4216 26.0558 32.5184 22.674 33.8856 19.7438C33.9825 19.5337 34.2301 19.4392 34.4454 19.5338C34.6607 19.6283 34.7576 19.8698 34.6607 20.0799C33.3904 22.8105 33.2935 25.9613 34.4023 28.7234H34.3915Z" fill="#210704"/>
<path d="M53.0471 48.6577C54.1774 49.1618 55.3616 49.0673 56.2874 48.4056C56.6749 48.1325 57.1594 47.6389 57.3208 46.8408C57.4715 46.0846 57.2455 45.1603 56.7933 44.6982C56.4919 44.3832 56.1367 44.3306 55.8999 44.3306C55.5661 44.3306 55.2324 44.4567 54.8772 44.5932L53.4131 45.1394C53.1978 45.2234 52.9502 45.1183 52.8641 44.8978C52.778 44.6877 52.8856 44.4462 53.1117 44.3622L54.5757 43.816C54.9633 43.669 55.3939 43.5115 55.8783 43.501C56.4489 43.501 56.9871 43.711 57.3962 44.1206C58.1175 44.8558 58.322 46.1266 58.1497 46.9983C57.9344 48.059 57.2885 48.7102 56.7826 49.0673C56.3735 49.3613 55.9214 49.5609 55.4477 49.6869C54.565 49.9075 53.6177 49.813 52.6919 49.4034C52.4766 49.3088 52.3797 49.0673 52.4766 48.8572C52.5735 48.6472 52.8211 48.5527 53.0364 48.6472L53.0471 48.6577Z" fill="#210704"/>
<path d="M68.3767 75.5233C68.1399 75.6704 67.903 75.8069 67.6554 75.9539C66.9772 76.3425 66.2667 76.7311 65.5132 77.1092C65.5455 76.8256 65.5778 76.5316 65.6101 76.248C66.1806 75.9539 66.7296 75.6494 67.2571 75.3553C67.5047 75.2082 67.7523 75.0717 67.9891 74.9247C73.5439 71.5429 75.966 67.8986 76.2352 64.9369C76.2459 64.7898 76.2567 64.6428 76.2567 64.5062C76.2567 64.3067 76.4289 64.1492 76.6335 64.1492C76.698 64.1492 76.7626 64.1702 76.8165 64.2017C76.9241 64.2647 76.9995 64.3802 76.9995 64.5167C76.9887 65.1364 76.8811 65.7875 76.6873 66.4597C75.8476 69.2849 73.2855 72.5196 68.3767 75.5233Z" fill="#210704"/>
<path d="M59.8939 79.5251C58.4729 80.0397 56.9658 80.5438 55.3403 81.0269H55.2973C55.1573 81.0584 54.4576 81.174 53.3488 81.3105C53.0366 81.3525 52.6921 81.3945 52.3261 81.4365C49.8286 81.7306 46.0609 82.0667 42.0778 82.0562C41.9702 81.8041 41.8625 81.5626 41.7656 81.3105C45.5226 81.3315 49.1397 81.0374 51.6694 80.7644C52.0462 80.7223 52.4015 80.6804 52.7352 80.6488C54.1239 80.4808 55.0174 80.3443 55.1681 80.3233C56.8151 79.8402 58.3438 79.336 59.7648 78.8109C61.5625 78.1493 63.188 77.4561 64.6521 76.7524C64.6198 77.036 64.5875 77.3196 64.5552 77.6031C63.5002 78.1073 62.3591 78.5904 61.1427 79.0735C60.7444 79.231 60.3353 79.3886 59.9155 79.5356L59.8939 79.5251Z" fill="#210704"/>
<path d="M40.7426 81.2889C40.8503 81.5409 40.9472 81.793 41.0548 82.0345C36.3505 81.961 31.4955 81.3729 28.2014 79.6295C28.1691 79.619 28.1476 79.5875 28.126 79.5665C28.0076 79.4614 27.9645 79.2829 28.0507 79.1359C28.1475 78.9573 28.3736 78.8943 28.5566 78.9888C28.5889 79.0098 28.632 79.0203 28.6643 79.0413C31.7323 80.6272 36.2752 81.1944 40.7426 81.2784V81.2889Z" fill="#210704"/>
<path d="M55.4692 62.8154C52.4873 63.5506 48.8057 63.4141 45.3609 62.4478C45.2425 62.4163 45.1133 62.3743 44.9949 62.3323C44.9626 62.3323 44.941 62.3113 44.9087 62.3113C44.7365 62.2588 44.6396 62.0698 44.7042 61.9017C44.7042 61.8807 44.7257 61.8597 44.7473 61.8387C44.8226 61.7127 44.9841 61.6497 45.124 61.7022C45.264 61.7442 45.4039 61.7862 45.5439 61.8282C48.8703 62.7734 52.4335 62.8994 55.297 62.1958C55.4585 62.1538 55.6199 62.2483 55.6845 62.3953C55.6845 62.4058 55.6953 62.4163 55.7061 62.4374C55.7491 62.6054 55.6415 62.7839 55.4692 62.8259V62.8154Z" fill="#210704"/>
<path d="M7.6512 99.8471C6.84382 90.1008 14.8745 81.8248 24.8968 82.0769C24.9937 82.0769 25.0798 82.0769 25.1767 82.0874C34.3054 82.4655 41.4857 89.8802 41.3134 98.8178C41.1627 106.936 42.2069 123.667 42.6268 129.989C42.6591 130.472 42.8313 130.924 43.0897 131.302L34.8221 137.782C34.6284 137.94 34.5961 138.213 34.7576 138.402C34.8437 138.507 34.9836 138.57 35.1128 138.57C35.2097 138.57 35.3173 138.538 35.3927 138.475L43.6602 131.985C43.6602 131.985 43.6925 131.943 43.714 131.922C44.1769 132.258 44.7367 132.447 45.3503 132.436L70.3467 132.142C70.0991 132.153 69.9161 132.352 69.9161 132.594L70.7773 163.566C70.7773 163.807 70.9819 163.996 71.2295 163.996C71.2295 163.996 71.2295 163.996 71.2402 163.996C71.3048 163.996 71.3694 163.975 71.4232 163.954C71.4555 163.996 71.4986 164.038 71.5417 164.08L34.1978 164.679H34.1224C24.8214 161.066 16.963 154.701 11.5697 146.615C11.3651 145.102 11.2144 143.495 11.1068 141.773L7.62967 99.8261L7.6512 99.8471Z" fill="#7251A1"/>
<path d="M32.9383 48.3536C33.0783 47.797 33.2935 47.4399 33.6057 47.2719C33.638 47.2509 33.6811 47.2298 33.7134 47.2193C33.9502 47.1248 34.2086 47.2404 34.3055 47.4714C34.3916 47.692 34.2839 47.9335 34.0686 48.0385C34.0686 48.0385 34.0686 48.0385 34.0579 48.0385C34.0579 48.0385 33.9717 48.1121 33.8964 48.3431C33.8533 48.4691 33.8103 48.6267 33.7672 48.8682C33.7457 48.9838 33.7349 49.1098 33.7134 49.2463C33.6703 49.698 33.6488 50.2441 33.6596 50.8847C33.7349 54.2035 34.693 59.8643 36.6092 66.6384C36.8675 67.5416 37.1367 68.4553 37.4273 69.3901C37.5027 69.6526 37.5888 69.9152 37.6749 70.1778C38.0517 71.375 38.4608 72.6038 38.8914 73.8536C38.9667 74.0742 39.0421 74.2947 39.1174 74.5153C39.9033 76.7313 40.7752 78.9998 41.7441 81.2999C41.8517 81.5519 41.9594 81.7935 42.0563 82.0455C46.0393 91.3822 51.5295 101.118 58.6775 109.1C60.8197 111.484 63.371 113.574 66.1807 115.401C66.4606 115.958 66.762 116.494 67.0957 116.987C67.1173 117.019 67.1388 117.04 67.1603 117.061C63.7155 114.971 60.5614 112.545 57.9993 109.678C50.6145 101.433 45.0597 91.4978 41.0659 82.035C40.9582 81.783 40.8614 81.5309 40.7537 81.2893C39.7741 78.9158 38.8914 76.5737 38.0947 74.3052C37.6641 73.0764 37.2658 71.8686 36.8998 70.6924C36.8137 70.4193 36.7276 70.1567 36.6522 69.8837C36.3508 68.907 36.0709 67.9512 35.8126 67.0165C33.7564 59.7068 32.8091 53.6679 32.7876 50.3596C32.7876 49.4984 32.8307 48.8262 32.9491 48.3641L32.9383 48.3536Z" fill="#210603"/>
<path d="M67.3001 62.1327C67.1494 63.4981 66.9879 64.9054 66.8157 66.3337C66.6973 67.3105 66.5788 68.2977 66.4496 69.3059C66.3851 69.8731 66.3097 70.4402 66.2343 71.0178C66.1267 71.8895 66.019 72.7717 65.9114 73.654C65.8791 73.9165 65.8468 74.1896 65.8145 74.4522C65.7392 75.0508 65.6638 75.6599 65.5992 76.2586C65.5669 76.5421 65.5346 76.8362 65.5023 77.1198C63.7046 92.3378 62.4989 108.176 67.7845 116.42C67.806 116.452 67.8276 116.494 67.8491 116.525C67.989 116.735 67.9245 117.008 67.7092 117.134C67.6338 117.176 67.5477 117.208 67.4616 117.208C67.4077 117.208 67.3647 117.208 67.3216 117.187C67.257 117.166 67.1924 117.124 67.1386 117.082C67.1171 117.061 67.0956 117.04 67.074 117.008C66.7403 116.504 66.4497 115.968 66.159 115.422C61.7453 106.758 62.8326 91.9388 64.512 77.6029C64.5443 77.3193 64.5765 77.0358 64.6088 76.7522C64.7057 75.9435 64.8026 75.1348 64.8995 74.3261C64.9318 74.095 64.9533 73.864 64.9856 73.6434C65.0179 73.3494 65.061 73.0658 65.0933 72.7718C65.1686 72.1521 65.244 71.5324 65.3193 70.9233C65.3193 70.9233 65.3193 70.9023 65.3193 70.8918C65.5023 69.453 65.6746 68.0351 65.8468 66.6278C66.0298 65.1049 66.202 63.6136 66.3635 62.1433C66.3958 61.8807 66.4174 61.6076 66.4496 61.3451C66.5573 60.3053 66.6649 59.2761 66.7511 58.2783C67.4508 50.4855 67.4293 44.121 65.3839 41.3484C65.3409 41.2958 65.3086 41.2328 65.2655 41.1803C64.8995 40.7287 64.4797 40.4031 64.006 40.1826C63.6615 40.0251 63.2847 39.92 62.8649 39.8675C62.6173 39.836 62.4343 39.6259 62.4666 39.3739C62.4989 39.1323 62.725 38.9538 62.9725 38.9853C63.0156 38.9853 63.0587 38.9958 63.091 39.0063C64.1136 39.1429 64.9856 39.5734 65.6853 40.2981C65.793 40.4031 65.8899 40.5187 65.9868 40.6342C68.3443 43.5329 68.4197 49.9919 67.6876 58.2048C67.5907 59.2341 67.4939 60.2843 67.3754 61.3661C67.3431 61.6286 67.3216 61.8912 67.2893 62.1643L67.3001 62.1327Z" fill="#210603"/>
<path d="M43.3694 45.8747C42.9496 45.8747 42.6804 45.8537 42.6266 45.8537C42.379 45.8327 42.196 45.6226 42.2175 45.3706C42.2391 45.129 42.4651 44.9505 42.7127 44.9715C42.7666 44.9715 48.1383 45.3811 49.1287 42.1463C49.204 41.9153 49.4516 41.7787 49.6992 41.8522C49.9361 41.9258 50.076 42.1673 50.0007 42.4089C49.0318 45.5491 45.0595 45.8852 43.3802 45.8852L43.3694 45.8747Z" fill="#210603"/>
<path d="M61.6163 39.3626C60.3783 40.9695 58.9143 41.3895 57.7301 41.3895C56.4706 41.3895 55.5233 40.9169 55.5017 40.9064C55.2757 40.7909 55.1896 40.5283 55.308 40.3078C55.4264 40.0872 55.6955 40.0137 55.9216 40.1188C56.04 40.1818 58.8066 41.5366 60.8843 38.8269C61.035 38.6274 61.3149 38.5959 61.5194 38.7429C61.7239 38.89 61.7562 39.163 61.6055 39.3626H61.6163Z" fill="#210603"/>
</g>
</g>
<defs>
<clipPath id="clip0_5459_3004">
<rect width="96" height="96" fill="white"/>
</clipPath>
</defs>
</svg>
