<svg width="96" height="96" viewBox="0 0 96 96" fill="none" xmlns="http://www.w3.org/2000/svg">
<g clip-path="url(#clip0_5459_2704)">
<circle cx="48" cy="48" r="48" fill="#FFF6FB"/>
<mask id="mask0_5459_2704" style="mask-type:alpha" maskUnits="userSpaceOnUse" x="0" y="0" width="96" height="96">
<circle cx="48" cy="48" r="48" fill="#D9D9D9"/>
</mask>
<g mask="url(#mask0_5459_2704)">
<path d="M23.6156 54.9763C19.3933 47.9001 25.2467 34.8424 29.0757 28.0483C29.0063 28.0596 28.9484 28.0822 28.879 28.0935C27.9767 28.7029 27.2827 29.0754 26.8662 29.0189C25.8945 29.6961 25.0732 30.6102 24.2865 31.5131C23.0372 32.9351 21.7879 34.3571 20.5385 35.8017C19.4049 37.0996 18.2249 38.5216 17.5655 40.0677C17.1838 40.948 16.9872 41.8735 17.045 42.8441C17.1838 44.8868 18.5604 46.7264 18.329 48.7691C18.2828 49.2883 18.1324 49.7848 17.9357 50.2588C17.3226 51.7147 16.2699 52.8433 15.6568 54.2766C15.1478 55.4729 14.9512 56.7933 15.599 57.8429C16.0039 58.4862 16.6748 58.9038 17.3226 59.2988C18.41 59.9647 19.3702 60.5515 20.2262 61.082C20.9087 58.9151 21.8226 56.7369 22.8405 55.1569C23.0025 54.8973 23.3495 54.8296 23.6156 54.965V54.9763Z" fill="#5B2326"/>
<path d="M28.3122 58.6103C27.595 58.4297 27.0281 58.2153 26.6348 57.9783C25.478 57.2898 24.5873 56.4321 23.9048 55.439C23.9048 55.5518 23.9048 55.676 23.8238 55.7775C22.8058 57.335 21.9151 59.547 21.2441 61.7139C23.7775 63.2713 25.3161 64.2193 26.5192 64.8739L28.3122 58.6103Z" fill="#5B2326"/>
<path d="M43.0961 63.4632C43.1886 63.373 43.2812 63.2714 43.3622 63.1924C44.6809 61.7252 45.5485 58.8925 46.393 56.9175C46.4277 56.8385 46.4624 56.7482 46.4971 56.6692C44.9932 57.3125 43.4662 57.8203 41.9624 58.1928L43.1077 63.4632H43.0961Z" fill="#5B2326"/>
<path d="M-18.1104 50.1349C-17.7633 50.9023 -17.6014 53.5996 -16.5834 54.8523C-17.0924 54.5476 -17.6939 54.3445 -18.3186 54.2203C-17.9137 69.4562 -16.4908 83.0669 -14.478 89.2854C-14.478 89.2967 -14.478 89.308 -14.4665 89.3192C-14.4665 88.4954 -14.5474 87.7957 -14.478 87.4458C-14.4202 87.1298 -14.316 86.8702 -14.1888 86.6445C-14.0615 86.4188 -13.8996 86.2382 -13.703 86.0915C-13.3096 85.7981 -12.8122 85.6401 -12.2801 85.5272C-11.2274 85.3128 -10.1632 85.2451 -9.79298 84.8162C-9.98964 85.3354 -9.44594 86.3285 -9.24928 87.3781C-9.04106 88.4277 -9.06421 89.624 -10.3483 90.3463C-10.7416 90.5607 -11.5976 90.8203 -12.5346 91.1137C-12.9279 91.2378 -13.3096 91.362 -13.6798 91.52C-12.2801 95.1427 -9.97808 99.6006 -6.43828 102.625L-3.26863 90.7074C-3.18765 90.4027 -2.86376 90.2221 -2.55142 90.3011L1.82127 73.8577C3.10532 72.9322 4.44719 72.1084 5.82378 71.3861C5.96259 71.1491 6.04356 70.9346 6.03199 70.7315C6.08983 70.8669 6.20551 70.9911 6.3559 71.1265C9.59493 69.5239 13.0653 68.5082 16.6051 68.1358L16.3391 67.6843L-1.26739 57.2901L-0.376637 57.8205C-0.284092 58.2494 -0.156849 58.6444 0.0166702 58.983C-0.677406 58.3284 -1.71852 57.9447 -2.62082 57.6851C-3.5694 57.4481 -4.37916 57.3239 -4.76091 57.1659C-5.39715 56.9177 -5.75577 56.5339 -5.97556 56.0825C-6.19536 55.6311 -6.2532 55.1119 -6.26476 54.5702C-6.26476 54.5025 -6.26476 54.4235 -6.26476 54.3558L-18.4111 47.178C-18.4111 48.0018 -18.3995 48.8144 -18.388 49.627C-18.2723 49.7737 -18.1798 49.943 -18.0872 50.1349H-18.1104ZM0.687597 62.9443C0.976797 61.9511 1.47422 60.9693 1.266 60.4275C1.64774 60.8677 2.75825 60.9354 3.85721 61.3078C4.40091 61.4884 4.89833 61.7705 5.30321 62.1768C5.69652 62.5831 5.99732 63.1249 5.98575 63.881C5.98575 64.3437 5.76595 65.224 5.54616 66.1833C5.30323 67.1539 5.14128 68.1696 5.25696 68.9935C4.81738 68.1583 3.92665 67.4812 3.16316 66.9507C2.34184 66.4429 1.58989 66.093 1.28912 65.8222C0.791697 65.382 0.525654 64.9419 0.479383 64.4566C0.421543 63.9713 0.548782 63.4408 0.687597 62.9556V62.9443ZM-4.9807 80.1326C-5.3046 80.4373 -6.11436 80.8662 -6.93569 81.374C-7.74545 81.8932 -8.67089 82.4349 -9.11047 83.1007C-8.89068 82.2092 -8.94853 81.1935 -9.19146 80.2906C-9.39968 79.3877 -9.67731 78.6316 -9.68887 78.2479C-9.83926 76.95 -8.98322 76.3518 -8.02308 75.8891C-7.07451 75.4377 -6.02182 75.133 -5.77889 74.6138C-5.8136 75.1668 -5.0848 75.9907 -4.61052 76.9838C-4.15937 77.9544 -3.93957 79.1169 -4.96912 80.1326H-4.9807ZM-8.27758 66.5219C-7.89584 65.6077 -7.39841 64.6371 -7.6182 64.118C-7.23645 64.5356 -6.11436 64.5694 -5.05011 65.0322C-4.51798 65.2579 -3.99744 65.5964 -3.62727 66.1043C-3.26866 66.6122 -3.04884 67.3006 -3.19922 68.1132C-3.2802 68.6097 -3.73138 69.4901 -4.27507 70.3478C-4.8072 71.2055 -5.43185 72.0294 -5.66321 72.7968C-5.70948 71.8827 -6.2069 70.9572 -6.7853 70.3026C-7.3637 69.6368 -7.98838 69.2418 -8.20817 69.0048C-8.58992 68.621 -8.69402 68.2599 -8.67089 67.8536C-8.63618 67.4473 -8.47423 66.9959 -8.27758 66.5332V66.5219ZM-12.4189 56.1051C-11.3084 56.1389 -10.1979 56.4888 -9.75828 57.8318C-9.68887 58.0349 -9.65416 58.3622 -9.60789 58.7459C-9.57318 59.141 -9.55005 59.5924 -9.50378 60.089C-9.42281 61.0483 -9.26087 62.0414 -8.86756 62.7524C-9.56164 62.143 -10.5912 61.8044 -11.5051 61.5787C-12.4074 61.3417 -13.2402 61.2401 -13.622 61.0821C-14.2466 60.8338 -14.5937 60.4501 -14.7904 59.9874C-14.987 59.536 -15.0333 59.0281 -15.0217 58.4977C-14.9986 57.4594 -14.7325 56.3985 -15.068 55.9471C-14.5937 56.2631 -13.5179 56.0599 -12.4074 56.1051H-12.4189Z" fill="#F06298"/>
<path d="M45.4788 74.4549L44.6922 70.8096C43.6742 71.2271 42.6678 71.4528 41.8002 71.2158C40.4236 73.4053 38.9776 75.6173 37.4854 77.7955L45.0624 74.2405L45.4788 74.4549Z" fill="#FFF3E1"/>
<path d="M39.9492 67.673C40.25 65.8785 42.043 64.5242 43.1073 63.4633L41.962 58.1929C37.0341 59.4343 32.3259 59.3892 29.3298 58.8362L26.3222 69.3546H26.1255L35.9004 77.9543C35.9004 77.9543 35.912 77.9543 35.9236 77.9543C37.6009 75.5053 39.2205 73.0224 40.759 70.5847C40.169 69.964 39.741 68.937 39.9492 67.6843V67.673Z" fill="#FFF3E1"/>
<path d="M28.3119 58.6096L26.5189 64.8732L25.4199 68.733L26.114 69.3424H26.3106L29.3183 58.8353C28.9481 58.7676 28.6242 58.6886 28.3119 58.6096Z" fill="#210603"/>
<path d="M70.535 24.8425C70.3846 24.7183 70.2343 24.5942 70.0723 24.5039L69.8872 24.4023L70.535 24.8538V24.8425Z" fill="#FFF3E1"/>
<path d="M56.8618 18.6806C59.0019 21.6374 62.5301 21.8293 65.6882 22.6645C67.0185 23.0256 68.4298 23.6915 69.6328 24.7523L69.8526 24.3686L55.9827 16.1977C55.6125 15.9832 55.2307 15.8591 54.8374 15.814C55.6587 16.5137 56.1909 17.7325 56.8734 18.6806H56.8618Z" fill="#FFF3E1"/>
<path d="M77.7651 30.0796L77.8575 29.9782L77.7767 29.9219L77.6958 30.0571C77.6958 30.0571 77.742 30.0796 77.7651 30.0796Z" fill="#FFF3E1"/>
<path d="M70.2459 25.3395L70.5351 24.8429L69.8873 24.3915L69.8526 24.3689L69.6328 24.7526C69.841 24.9332 70.0493 25.1363 70.2459 25.3395Z" fill="#FFF3E1"/>
<path d="M74.2831 35.8693C74.8615 35.858 75.6828 35.2599 76.6198 34.8423C77.6263 34.4022 78.783 34.199 79.8242 35.2035C80.4604 35.8242 81.6172 38.3071 82.9707 39.2099C81.1082 38.7359 78.7252 39.7742 77.9155 39.8194C75.2895 40.0338 75.1854 36.6368 74.2484 35.937L71.3217 40.9141C71.3217 40.9141 71.3217 40.9818 71.3449 41.0044C72.0736 44.2096 73.6353 46.4667 74.5955 49.4349C74.8152 50.1346 75.0235 50.9359 75.1623 51.8162L92.3523 62.8763C92.3985 62.7973 92.4679 62.7409 92.5373 62.6957C92.4101 62.1653 92.2597 61.7364 92.2481 61.4881C92.1903 60.89 92.3176 60.4611 92.6299 60.1226C92.896 59.7727 93.324 59.5019 93.7867 59.2423C94.6543 58.7344 95.7185 58.2943 95.8574 57.7525C95.9152 58.3168 96.7018 59.0504 97.2686 60.0549C97.5231 60.5514 97.7314 61.1157 97.7314 61.7026C97.7198 61.996 97.6504 62.3007 97.5347 62.5942C97.419 62.8989 97.2224 63.1923 96.9332 63.4632C96.8407 63.5535 96.7018 63.655 96.5514 63.7679L107.229 67.1988C107.529 67.3003 107.703 67.6164 107.599 67.9211C107.495 68.2145 107.171 68.3838 106.859 68.2822L95.2211 64.5353C95.0939 64.603 94.9666 64.6707 94.8509 64.7272C94.4114 64.9755 93.9255 65.1899 93.5091 65.4382C93.3008 65.5623 93.1042 65.6865 92.9191 65.8106C92.7225 65.9348 92.5489 66.0589 92.3985 66.2056C92.5027 66.0025 92.5952 65.7881 92.6646 65.5623C92.7225 65.3253 92.7572 65.0883 92.7803 64.8513C92.8034 64.6143 92.8034 64.3773 92.8034 64.1403C92.8034 64.0049 92.7687 63.8695 92.7571 63.734L92.6762 63.7115C92.6762 63.7115 92.653 63.7115 92.6299 63.7002C92.468 63.6325 92.3523 63.497 92.306 63.3277C88.4076 64.445 64.7974 71.3068 51.4248 77.4576L53.507 78.5297C56.8155 80.2001 60.4825 82.1412 64.2074 84.1275L63.6174 96.5307C63.8488 95.7858 63.9876 94.9393 64.1264 94.1606C64.2884 93.19 64.4387 92.321 64.6238 91.926C65.2369 90.5943 66.3475 90.4363 67.4349 90.4927C68.5223 90.5604 69.5749 90.8764 70.0608 90.5943C69.6906 91.0344 69.841 92.1066 69.7485 93.1675C69.6559 94.2283 69.3089 95.2554 68.0595 95.6165C67.6778 95.7294 66.8218 95.7406 65.9079 95.9099C65.075 96.0566 64.1843 96.3726 63.6174 96.9031L63.4555 100.278C63.629 100.515 63.8141 100.752 63.9876 100.977C64.5776 101.79 65.0519 102.546 64.4041 103.652C64.3 103.821 64.1033 104.058 63.8488 104.352L63.4902 111.924C64.0686 112.85 64.3462 114.024 63.4208 115.141C63.3976 115.164 63.3629 115.197 63.3398 115.231L63.12 119.858C73.7857 114.441 114.852 89.951 127.45 83.4842C134.344 79.9405 141.377 69.0835 137.768 62.4136C135.616 58.4297 130.295 54.3781 124.569 50.9585C120.15 48.3289 114.713 45.5864 109.091 42.9794C109.438 43.1374 109.785 43.3067 110.132 43.4647C110.34 43.6453 110.526 43.8823 110.688 44.1757C111.069 44.9206 111.451 47.584 112.596 48.7465C110.907 47.9339 108.316 48.2612 107.495 48.058C104.765 47.4373 105.956 43.9613 105.193 43.1374C105.898 43.4985 107.634 42.6973 109.068 42.9681C106.847 41.9411 104.603 40.9254 102.382 39.9548C102.659 40.8012 103.029 41.659 103.562 42.2007C101.873 41.3881 99.2815 41.7154 98.4601 41.5122C96.3085 41.0157 96.5977 38.7472 96.4242 37.4042C88.1647 33.9394 80.9694 31.197 77.8345 30.0797C77.8113 30.0797 77.7882 30.0571 77.7651 30.0571L74.3525 35.8806L74.2831 35.8693ZM93.4165 77.3899C94.2032 76.8143 94.8972 76.2726 95.3021 76.1146C98.0206 74.9973 99.108 78.5298 100.207 78.778C99.6285 78.8458 98.9807 79.726 98.1709 80.4258C97.3612 81.1368 96.4358 81.6672 95.2327 81.0916C94.8625 80.911 94.2032 80.3581 93.4165 79.8502C92.6299 79.3423 91.6813 78.8796 90.8484 78.8683C91.7392 78.5749 92.6299 77.9767 93.4281 77.4012L93.4165 77.3899ZM84.4398 71.8034C84.729 71.4084 84.9719 70.9795 85.1917 70.5733C85.5966 69.7381 85.8395 68.9819 86.0362 68.6547C86.1981 68.3838 86.3948 68.1919 86.5914 68.0452C86.7881 67.8872 86.9963 67.7969 87.2277 67.7405C87.6904 67.6389 88.1878 67.6502 88.7084 67.7179C89.2405 67.7969 89.7495 67.8872 90.2122 67.9211C90.6634 67.9549 91.0682 67.9549 91.2996 67.7857C91.1377 68.0227 91.0914 68.3951 91.0682 68.8691C91.0682 69.1061 91.0567 69.3657 91.0451 69.6252C91.022 69.8848 90.9988 70.1557 90.9525 70.4378C90.86 70.9908 90.6749 71.5551 90.3047 72.0065C89.9461 72.4693 89.414 72.8078 88.6621 72.932C88.1994 73.011 87.2624 72.8868 86.2675 72.7966C85.2727 72.695 84.22 72.6047 83.4218 72.8304C83.8035 72.5596 84.1506 72.1984 84.4514 71.8147L84.4398 71.8034ZM81.2702 81.5543C81.5709 81.1481 81.8485 80.7305 82.0915 80.3016C82.6005 79.4665 83.0516 78.7216 83.3755 78.3943C83.9192 77.8977 84.5092 77.6833 85.0644 77.672C85.6313 77.672 86.1866 77.8639 86.6724 78.1122C87.6673 78.6313 88.4539 79.3875 89.0091 79.3762C88.4654 79.5906 88.0721 80.5951 87.5863 81.4979C87.3433 81.9606 87.0541 82.3782 86.684 82.6604C86.3138 82.9651 85.8395 83.1118 85.1917 83.0554C84.7984 83.0328 83.9771 82.7281 83.0516 82.5701C82.1146 82.3895 81.0735 82.3444 80.2869 82.6265C80.6455 82.3331 80.9694 81.9607 81.2586 81.5431L81.2702 81.5543ZM70.0145 80.1324C69.5865 81.1142 68.9734 81.9832 67.5853 81.9719C66.7524 81.9381 64.138 81.0803 62.5416 81.6334C64.0107 80.4822 64.9131 78.0445 65.5262 77.4125C66.4863 76.3516 67.6431 76.4983 68.6611 76.882C69.6906 77.2657 70.5929 77.8977 71.1482 77.7849C70.6508 78.0896 70.4194 79.1392 70.003 80.1211L70.0145 80.1324ZM72.8487 76.9159C74.4566 75.934 75.625 73.6317 76.2497 73.0674C77.2561 72.1194 78.3319 72.3564 79.3152 72.7966C80.2869 73.2367 81.1892 73.88 81.756 73.7558C81.2586 74.0605 81.0157 75.1101 80.5182 76.092C80.0208 77.0513 79.2689 77.9203 77.8576 77.7962C76.99 77.7172 74.4913 76.566 72.8487 76.9159ZM78.17 86.2605C77.9617 87.2876 77.58 88.2581 76.2497 88.5177C75.4399 88.6531 72.7214 88.371 71.2986 89.2287C72.4554 87.7954 72.7793 85.2448 73.2304 84.5C73.936 83.2698 75.1044 83.1569 76.1918 83.3488C77.2676 83.5181 78.2856 83.9921 78.8062 83.7776C78.3782 84.1614 78.3666 85.2335 78.17 86.2605ZM64.647 119.035C64.5082 118.527 64.4041 118.098 64.4041 117.827C64.3694 116.405 65.3295 115.762 66.3475 115.389C67.377 115.017 68.476 114.904 68.7999 114.464C68.6611 114.915 69.0428 115.638 69.3783 116.439C67.5621 117.455 65.9657 118.324 64.6354 119.035H64.647ZM73.751 110.243C73.0569 110.706 70.4194 111.428 69.4593 112.748C69.9798 110.999 69.2626 108.55 69.3667 107.715C69.6212 104.984 73.3229 105.661 74.0633 104.86C73.6353 105.909 76.0299 108.708 73.7626 110.243H73.751ZM80.4257 100.007C80.2637 100.458 79.9398 100.853 79.3499 101.158C78.9797 101.338 78.1237 101.519 77.2329 101.835C76.3306 102.14 75.3821 102.58 74.8499 103.189C75.4978 101.496 75.0813 98.9797 75.3011 98.122C75.4515 97.4335 75.8216 96.9821 76.2844 96.6886C76.7471 96.4065 77.2676 96.2598 77.8345 96.2147C78.945 96.1131 80.0092 96.2824 80.472 95.9664C80.1596 96.4291 80.4604 97.49 80.5414 98.5057C80.5876 99.0135 80.5992 99.5439 80.4373 99.9954L80.4257 100.007ZM89.0091 89.951C88.9166 90.109 88.8356 90.3009 88.7546 90.5153C88.6043 90.9442 88.477 91.4408 88.3266 91.9148C88.1647 92.3775 88.0027 92.874 87.7135 93.2126C87.5747 93.3932 87.3896 93.5173 87.1814 93.6302C86.9732 93.7543 86.7187 93.8333 86.3948 93.8672C86.1981 93.8898 85.8974 93.8672 85.5156 93.8333C85.1454 93.8333 84.7059 93.8108 84.2431 93.8333C83.2946 93.8446 82.2881 94.0591 81.5941 94.5105C82.1378 93.7769 82.4385 92.7499 82.7624 91.8357C83.0401 90.899 83.3293 90.0752 83.5953 89.6914C83.8036 89.3867 84.0349 89.1384 84.301 88.9578C84.567 88.7886 84.8447 88.687 85.1339 88.6306C85.7007 88.5177 86.2559 88.5628 86.8228 88.7434C87.3665 88.9127 87.8639 89.1497 88.2919 89.3416C88.5001 89.4318 88.6968 89.5108 88.8703 89.556C89.0438 89.6124 89.2058 89.6463 89.3446 89.6237C89.2174 89.6914 89.1132 89.793 89.0091 89.951ZM98.1362 90.5266C97.2686 91.1473 96.3779 91.6213 95.2905 90.978C94.9666 90.8087 94.3767 90.188 93.6247 89.7366C93.243 89.4996 92.815 89.2513 92.3638 89.082C91.9243 88.9466 91.4731 88.8789 91.0567 88.9014C91.4847 88.7321 91.9011 88.45 92.3291 88.1566C92.7572 87.897 93.1736 87.5923 93.5785 87.2876C93.9834 86.9716 94.3767 86.7007 94.7237 86.4862C95.0708 86.2718 95.3831 86.0913 95.5913 86.0236C97.0489 85.527 97.9975 86.238 98.6684 87.0844C99.3393 87.9308 99.7674 88.924 100.299 89.0933C99.7327 89.1046 98.9807 89.9059 98.1247 90.5379L98.1362 90.5266ZM110.734 89.1723C110.572 89.6463 110.34 90.1316 110.005 90.6395C109.67 91.1699 109.207 91.5536 108.617 91.8583C108.038 92.0953 107.321 92.1969 106.581 91.9148C106.118 91.7568 105.355 91.1812 104.568 90.5943C103.781 89.9849 102.96 89.3641 102.173 89.1384C102.636 89.1158 103.11 88.9804 103.573 88.8112C104.024 88.6306 104.464 88.3936 104.846 88.1566C105.227 87.897 105.563 87.6487 105.841 87.4343C106.107 87.2086 106.315 87.028 106.477 86.9377C106.743 86.8023 106.951 86.7007 107.159 86.6668C107.368 86.633 107.576 86.6668 107.761 86.7007C108.143 86.791 108.547 87.0618 108.941 87.3101C109.161 87.4455 109.369 87.581 109.577 87.7164C109.797 87.8519 109.993 87.9421 110.202 88.0324C110.595 88.2017 111.011 88.3259 111.254 88.2017C111.046 88.4049 110.896 88.7209 110.734 89.1836V89.1723ZM133.419 62.9214C133.951 62.9102 134.61 62.8989 135.304 63.0456C135.987 63.181 136.692 63.4745 137.213 64.0049C137.467 64.2645 137.676 64.5805 137.78 64.9642C137.838 65.1561 137.884 65.3479 137.907 65.551C137.907 65.7542 137.907 65.9686 137.861 66.1943C137.745 66.7361 137.19 67.6841 136.345 68.4628C135.501 69.2641 134.471 69.8171 133.823 70.325C134.275 69.5575 134.159 68.5982 133.719 67.9775C133.303 67.3229 132.609 67.0069 132.389 66.8377C131.996 66.5555 131.88 66.3523 131.903 66.0702C131.926 65.788 132.065 65.4495 132.192 65.0545C132.458 64.2757 132.632 63.26 132.227 62.8312C132.482 62.9666 132.886 62.9553 133.419 62.9327V62.9214ZM130.11 71.2617C130.631 71.4084 131.093 71.6115 131.545 71.7131C131.984 71.826 132.377 71.8598 132.632 71.7131C132.435 71.9275 132.354 72.3 132.262 72.7627C132.169 73.2254 132.054 73.7784 131.892 74.2863C131.718 74.8054 131.475 75.3246 131.082 75.7196C130.677 76.1033 130.133 76.3629 129.393 76.408C128.942 76.408 128.028 76.1936 127.068 76.013C126.084 75.7986 125.066 75.6406 124.245 75.776C125.066 75.3359 125.714 74.4781 126.2 73.7107C126.674 72.9094 127.01 72.1984 127.264 71.8824C127.658 71.3633 128.12 71.1601 128.606 71.0924C129.081 71.0247 129.601 71.115 130.11 71.2617ZM128.687 57.3011C129.069 58.046 129.439 60.7094 130.584 61.8719C128.896 61.048 126.293 61.3753 125.471 61.1721C122.741 60.5514 123.944 57.0867 123.181 56.2628C124.199 56.7933 127.403 54.8747 128.687 57.3124V57.3011ZM120.231 75.3246C120.682 75.5954 121.11 75.9227 121.504 76.171C121.885 76.408 122.232 76.5773 122.522 76.5434C122.267 76.6676 122.047 76.9949 121.816 77.4012C121.585 77.7962 121.342 78.2815 121.029 78.7329C120.717 79.1956 120.347 79.6132 119.861 79.8728C119.375 80.1323 118.797 80.2678 118.091 80.0759C117.663 79.963 116.865 79.5455 115.974 79.1053C115.095 78.6878 114.135 78.2589 113.313 78.225C113.765 78.0896 114.204 77.8639 114.609 77.593C115.014 77.3109 115.396 76.9836 115.743 76.6676C116.425 76.0356 116.946 75.381 117.281 75.1666C118.357 74.3878 119.329 74.7829 120.231 75.3246ZM119.641 50.744C120.023 51.4889 120.393 54.1524 121.55 55.3148C119.861 54.5022 117.27 54.8295 116.437 54.6264C113.707 54.0057 114.898 50.5296 114.135 49.7058C115.153 50.2362 118.346 48.3063 119.63 50.744H119.641ZM106.558 76.25C107.784 75.697 108.686 76.2275 109.473 76.961C110.248 77.672 110.896 78.5636 111.463 78.62C110.907 78.7555 110.34 79.6809 109.565 80.4596C108.79 81.2158 107.784 81.8252 106.465 81.2383C105.655 80.8885 103.712 78.9586 102.093 78.6426C103.967 78.3718 105.817 76.5999 106.558 76.2613V76.25ZM92.5605 49.4913C92.7572 49.0286 93.0001 48.5659 93.1736 48.137C93.324 47.7195 93.3934 47.347 93.2893 47.0874C93.4744 47.3019 93.8561 47.426 94.3188 47.5614C94.77 47.7082 95.3137 47.8549 95.8458 48.1032C96.3895 48.3402 96.8522 48.7013 97.2339 49.1753C97.5926 49.6606 97.7661 50.2926 97.6735 51.0601C97.6273 51.2971 97.5116 51.6243 97.3496 52.0193C97.2687 52.2112 97.1761 52.4144 97.0836 52.6288C96.9795 52.8432 96.8638 53.0576 96.7481 53.2946C96.3201 54.1975 95.8227 55.1117 95.6954 55.913C95.5219 54.9988 94.8972 54.1411 94.2378 53.5091C93.9371 53.1818 93.5785 52.9222 93.3008 52.7078C93.0232 52.4933 92.815 52.3128 92.6877 52.1773C91.8433 51.3083 92.1556 50.4506 92.5489 49.5139L92.5605 49.4913ZM85.8858 39.7629C86.3369 39.6501 86.869 39.4921 87.4359 39.3905C88.5464 39.2099 89.8189 39.3792 90.5708 40.6997C90.779 41.1172 90.9988 42.0201 91.207 42.9907C91.2996 43.4873 91.4269 43.9613 91.5541 44.4353C91.6698 44.9093 91.8317 45.3268 92.0399 45.6767C91.6698 45.3833 91.2302 45.1576 90.779 44.977C90.3047 44.819 89.8189 44.7174 89.3677 44.6497C88.4307 44.5368 87.6557 44.5594 87.2624 44.4804C86.6261 44.3563 86.256 44.0515 85.9783 43.6791C85.7123 43.2954 85.585 42.7875 85.4693 42.291C85.3652 41.7831 85.3074 41.264 85.2148 40.8125C85.1107 40.3724 84.9835 40.0225 84.7637 39.8419C85.0413 39.9322 85.423 39.8532 85.8858 39.7404V39.7629Z" fill="#F06298"/>
<path d="M62.0096 129.88C61.8245 129.564 61.6857 129.282 61.6278 129.09C61.3039 128.086 61.6163 127.33 62.1484 126.754L62.079 128.108L62.426 120.75C62.3566 120.75 62.2872 120.727 62.2294 120.705C62.0096 120.614 61.8592 120.4 61.8708 120.152L62.0559 116.19C61.8708 116.315 61.6857 116.45 61.489 116.585C60.6908 117.161 59.858 117.77 59.4299 118.47C59.6266 117.567 59.43 116.54 59.1639 115.66C58.8978 114.78 58.5508 114.057 58.4929 113.674C58.3773 113.053 58.493 112.59 58.759 112.207C59.0366 111.823 59.4184 111.518 59.8695 111.236C60.3207 110.954 60.7718 110.706 61.142 110.446C61.5238 110.186 61.8129 109.938 61.8823 109.667C61.9055 109.915 62.079 110.186 62.3219 110.491L62.5301 106.011C62.1484 106.609 61.8245 107.241 61.732 107.816C61.57 106.913 61.0032 106.022 60.4595 105.232C59.9158 104.453 59.3952 103.742 59.2449 103.325C58.7359 101.925 59.4994 100.842 60.4248 100.198C61.3734 99.5213 62.4376 99.2617 62.7384 98.8102C62.6459 99.2053 62.9698 99.7357 63.3862 100.3L63.5481 96.9255C63.5481 96.9255 63.444 97.0271 63.3977 97.0835C63.4672 96.9142 63.5135 96.745 63.5713 96.5644L64.1612 84.1612C60.4479 82.1749 56.7693 80.2338 53.4609 78.5635L40.3775 89.5446C40.042 89.838 39.5677 89.8493 39.1744 89.6687C39.105 89.838 38.9662 89.9734 38.7811 90.0186C38.4688 90.0863 38.1564 89.9057 38.0755 89.601L37.312 86.5087C37.1153 86.915 36.7914 87.2761 36.2709 87.5696C35.9007 87.7727 35.0215 87.9984 34.1077 88.3596C33.2054 88.7207 32.2105 89.1947 31.6668 89.8719C31.9907 88.9577 32.0948 87.8856 32.0948 86.8811C32.1064 86.2943 32.0948 85.7413 32.118 85.3011C28.1849 90.5265 24.2633 95.1311 20.9549 98.1669C14.257 104.306 8.02188 107.354 2.38827 107.263C1.7636 107.726 1.18521 108.268 0.872871 108.843C0.953848 108.313 0.896011 107.737 0.803467 107.162C0.433292 107.117 0.0631027 107.06 -0.295504 106.981C-0.469025 106.947 -0.630966 106.902 -0.792919 106.868C-1.02428 107.523 -1.487 108.11 -2.38931 108.414C-2.82889 108.561 -3.75431 108.651 -4.76073 108.753C-5.26971 108.809 -5.77872 108.877 -6.253 108.979C-6.49593 109.024 -6.72727 109.08 -6.95863 109.148L-7.14372 109.836C-7.2247 110.141 -7.5486 110.322 -7.86093 110.243L-11.1925 122.77C-11.8056 125.061 -12.546 127.318 -13.4136 129.53C-15.9007 135.839 -18.7695 143.378 -21.4302 150.398C-20.8286 150.838 -20.2387 151.278 -19.6256 151.707C-19.3132 151.21 -18.9199 150.951 -18.4804 150.838C-18.0176 150.702 -17.4971 150.725 -16.965 150.804C-15.9123 150.962 -14.8711 151.267 -14.3737 150.985C-14.7439 151.402 -14.5935 152.508 -14.7902 153.58C-14.8596 153.953 -14.9637 154.337 -15.1372 154.686C2.71218 165.769 23.87 170.317 44.5535 168.083C44.299 167.439 44.0561 166.92 44.0098 166.604C43.7785 165.295 44.5651 164.573 45.479 164.02C46.3928 163.478 47.4455 163.117 47.6653 162.598C47.6306 163.162 48.3941 163.941 48.9494 164.877C49.227 165.34 49.4468 165.848 49.4931 166.367C49.5162 166.728 49.4468 167.089 49.2501 167.462C53.1717 166.841 57.0701 165.972 60.9222 164.855L62.0096 129.779V129.903V129.88ZM49.4352 142.396C50.3491 141.821 51.3786 141.448 51.61 140.94C51.5753 141.505 52.3619 142.283 52.9287 143.186C53.5071 144.089 53.8658 145.093 53.0444 146.188C52.5354 146.843 50.2565 148.366 49.736 149.901C49.7013 148.073 48.2437 145.951 48.0586 145.127C47.7232 143.784 48.5329 142.972 49.4352 142.396ZM55.3927 135.681C54.849 136.279 52.4198 137.588 51.8182 139.112C51.8414 138.649 51.772 138.175 51.6447 137.69C51.5406 137.216 51.3902 136.731 51.2282 136.29C50.9159 135.399 50.5689 134.609 50.511 134.191C50.3144 132.792 51.2282 132.047 52.1884 131.573C53.1601 131.088 54.2128 130.851 54.5251 130.377C54.3979 130.918 55.092 131.799 55.5662 132.747C55.7976 133.221 55.9827 133.717 55.9942 134.203C55.9942 134.699 55.8207 135.184 55.3811 135.692L55.3927 135.681ZM55.358 83.0214C56.1909 81.859 57.3361 81.8589 58.4119 82.1298C59.4762 82.4007 60.4479 82.8972 60.9916 82.7279C60.5289 83.0778 60.4479 84.1725 60.1471 85.1883C59.8464 86.204 59.3374 87.152 57.9608 87.31C57.1279 87.389 54.4326 86.8247 52.9172 87.5696C54.2243 86.2378 54.8259 83.7324 55.3464 83.0327L55.358 83.0214ZM45.9533 89.7816C46.6242 88.5289 47.781 88.3934 48.8684 88.5289C49.9558 88.653 50.9969 89.0706 51.5059 88.8223C51.101 89.2286 51.1357 90.3007 50.9738 91.3616C50.8002 92.4112 50.4185 93.4043 49.0766 93.7203C48.2553 93.8896 45.5137 93.6639 44.1024 94.5781C45.2476 93.1109 45.5137 90.5377 45.9533 89.7816ZM31.7015 150.827C31.7825 151.357 31.6784 151.933 31.2735 152.519C31.0306 152.881 30.3365 153.467 29.6193 154.133C28.9021 154.799 28.1964 155.555 27.8609 156.3C27.9303 155.375 27.5602 154.37 27.19 153.513C26.8198 152.666 26.3802 151.955 26.2761 151.56C25.9291 150.285 26.6232 149.506 27.4676 148.863C28.3352 148.231 29.3185 147.746 29.4573 147.193C29.5152 147.757 30.3828 148.457 31.0074 149.337C31.3313 149.777 31.5974 150.274 31.7015 150.804V150.827ZM15.1824 141.979C15.0668 141.042 14.8007 140.218 14.8123 139.812C14.8123 138.469 15.6683 137.837 16.6747 137.385C17.1721 137.159 17.6927 136.979 18.1323 136.798C18.5603 136.606 18.8958 136.415 19.0346 136.155C18.9536 136.742 19.6014 137.633 20.0063 138.672C20.203 139.191 20.3533 139.755 20.307 140.32C20.2492 140.884 19.9832 141.437 19.4279 141.945C19.0693 142.249 18.2827 142.701 17.3688 143.186C16.4665 143.683 15.5758 144.258 15.0321 144.924C15.356 144.01 15.2865 142.904 15.1709 141.979H15.1824ZM31.0537 129.835C30.7182 130.58 28.9483 132.645 28.8442 134.282C28.3237 132.498 26.334 130.806 25.9638 130.027C25.3044 128.763 25.8713 127.758 26.6232 126.968C27.3867 126.178 28.3121 125.603 28.4278 125.061C28.5088 125.625 29.4458 126.235 30.1977 126.968C30.9727 127.713 31.5743 128.582 31.0537 129.835ZM31.1231 137.961C31.9213 138.706 32.5575 139.676 31.9907 140.997C31.8056 141.403 31.2272 142.103 30.672 142.893C30.1167 143.683 29.5036 144.552 29.3648 145.353C29.1103 143.491 27.2247 141.719 26.8892 141.008C26.2761 139.823 26.8314 138.909 27.5486 138.119C28.2658 137.329 29.1566 136.685 29.2144 136.132C29.3532 136.685 30.3249 137.227 31.1231 137.972V137.961ZM23.0602 130.49C22.7826 130.839 22.0654 131.404 21.3019 132.07C20.5384 132.724 19.7634 133.469 19.4163 134.248C19.5089 133.288 19.2197 132.228 18.9073 131.325C18.5719 130.411 18.1901 129.643 18.1323 129.226C17.8894 127.871 18.6413 127.059 19.5667 126.461C20.4922 125.862 21.5217 125.445 21.7299 124.903C21.7068 125.49 22.4934 126.291 23.0487 127.251C23.604 128.21 23.9741 129.327 23.0487 130.501L23.0602 130.49ZM25.2119 118.989C24.7029 119.7 22.4356 121.348 21.8803 122.962C21.8803 121.032 20.3996 118.843 20.2145 117.996C19.5551 115.209 23.28 114.588 23.708 113.516C23.6618 114.712 26.8661 116.653 25.2119 119.001V118.989ZM37.4855 97.7381C37.9829 96.3951 39.105 96.0791 40.204 96.0791C41.3145 96.0791 42.3787 96.3161 42.8646 96.0114C42.506 96.4628 42.7142 97.5462 42.6911 98.5958C42.6679 99.6567 42.4482 100.684 41.1757 101.18C40.7939 101.327 39.9148 101.429 38.9778 101.654C38.0639 101.891 37.0344 102.219 36.4444 102.794C36.8608 101.959 37.0575 100.932 37.15 99.9614C37.2773 99.0134 37.3236 98.1557 37.474 97.7381H37.4855ZM32.8815 104.984C33.9573 104.747 35.0794 104.814 35.4843 104.419C35.2413 104.938 35.6231 105.943 35.8313 106.97C36.0395 108.008 36.0395 109.024 34.9406 109.758C34.767 109.87 34.4663 109.995 34.1192 110.141C33.7722 110.299 33.3557 110.48 32.9277 110.694C32.0601 111.112 31.2041 111.699 30.7529 112.398C30.857 111.947 30.8802 111.45 30.8571 110.954C30.8339 110.457 30.8108 109.949 30.7414 109.475C30.6141 108.505 30.4869 107.647 30.5563 107.218C30.7182 105.762 31.8172 105.232 32.8815 104.995V104.984ZM27.9304 115.468C28.9021 114.926 29.9548 114.678 30.2671 114.204C30.1398 114.757 30.8455 115.637 31.3313 116.54C31.4586 116.766 31.5627 117.003 31.6437 117.229C31.7362 117.466 31.8056 117.703 31.8288 117.94C31.8866 118.425 31.7246 118.899 31.3313 119.407C31.0884 119.712 30.4059 120.219 29.7234 120.897C29.3995 121.235 29.0756 121.608 28.8095 121.991C28.555 122.386 28.3468 122.793 28.2543 123.199C28.208 122.736 28.0576 122.262 27.8725 121.799C27.699 121.337 27.4792 120.863 27.2594 120.423C26.8545 119.542 26.4497 118.752 26.3571 118.312C26.1142 116.868 26.924 115.987 27.9188 115.468H27.9304ZM28.3468 92.5466C29.3995 92.1742 30.5331 92.0952 30.9033 91.6437C30.7067 92.208 31.181 93.1786 31.4933 94.2169C31.7941 95.2552 31.8866 96.3274 30.8224 97.2189C30.4869 97.4898 29.6887 97.8735 28.8558 98.404C28.0113 98.9231 27.19 99.6003 26.7736 100.356C26.9355 99.4084 26.762 98.3137 26.5885 97.3431C26.3918 96.3612 26.1952 95.5035 26.2183 95.0633C26.2646 93.5736 27.2941 92.9191 28.3352 92.5466H28.3468ZM24.0319 103.641C24.9805 103.076 26.091 102.783 26.3571 102.264C26.2761 102.851 26.9239 103.708 27.4445 104.679C27.699 105.164 27.8957 105.672 27.9188 106.191C27.9304 106.71 27.7916 107.241 27.352 107.794C27.0743 108.121 26.3571 108.651 25.6168 109.317C24.8996 109.983 24.1708 110.773 23.87 111.575C23.8931 110.615 23.5577 109.566 23.199 108.64C22.8636 107.715 22.4934 106.913 22.4356 106.473C22.1927 105.029 23.0834 104.194 24.0319 103.641ZM11.6079 147.283C12.6722 147.114 13.8059 147.125 14.2107 146.685C13.9794 147.226 14.3727 148.253 14.4768 149.382C14.5809 150.488 14.3611 151.718 12.9845 152.407C12.5681 152.61 11.6311 152.802 10.6362 153.039C10.1388 153.151 9.62983 153.287 9.15554 153.456C8.68126 153.614 8.2301 153.806 7.88306 154.054C8.17226 153.659 8.39207 153.208 8.55402 152.734C8.70441 152.249 8.82006 151.752 8.88947 151.289C9.01672 150.33 9.05143 149.529 9.15554 149.122C9.51415 147.825 10.5205 147.486 11.5964 147.305L11.6079 147.283ZM-2.38931 137.78C-2.71321 138.096 -3.49981 138.548 -4.35584 139.044C-5.18873 139.563 -6.09104 140.105 -6.56532 140.748C-6.43808 140.308 -6.39182 139.823 -6.40339 139.349C-6.41496 138.864 -6.50748 138.378 -6.60003 137.938C-6.77355 137.047 -7.09745 136.29 -7.10902 135.907C-7.2247 134.643 -6.41496 134.033 -5.46639 133.548C-4.51781 133.074 -3.47667 132.747 -3.23374 132.239C-3.29158 132.792 -2.52811 133.604 -2.05382 134.586C-1.8109 135.072 -1.61426 135.602 -1.63739 136.155C-1.63739 136.697 -1.8456 137.261 -2.37773 137.769L-2.38931 137.78ZM0.259771 126.619C-0.226084 127.318 -2.47029 128.91 -3.04869 130.399C-3.01398 128.56 -4.5525 126.506 -4.76073 125.716C-5.51264 123.142 -1.84559 122.443 -1.46385 121.404C-1.44071 122.533 1.85615 124.294 0.259771 126.619ZM0.595253 110.649C0.537413 111.213 1.2199 112.015 1.7983 112.929C2.35356 113.843 2.68905 114.814 1.85616 115.863C1.3356 116.484 -0.908596 118.007 -1.40602 119.565C-1.487 117.748 -2.96771 115.626 -3.11809 114.768C-3.39572 113.392 -2.57438 112.568 -1.64894 112.015C-0.735067 111.45 0.363869 111.157 0.606796 110.66L0.595253 110.649ZM-8.21954 147.983C-8.61285 148.197 -9.53831 148.366 -10.4869 148.592C-10.9612 148.716 -11.4702 148.829 -11.9213 148.987C-12.384 149.134 -12.7889 149.337 -13.1244 149.563C-12.8467 149.19 -12.6732 148.727 -12.5344 148.276C-12.3956 147.813 -12.3146 147.339 -12.2799 146.877C-12.1874 145.962 -12.2105 145.172 -12.1295 144.789C-11.8403 143.547 -10.8918 143.209 -9.8275 143.051C-8.79795 142.87 -7.68744 142.881 -7.30569 142.464C-7.52548 142.983 -7.07433 143.965 -6.90081 145.06C-6.75042 146.12 -6.90079 147.328 -8.21954 147.994V147.983ZM2.72375 160.657C2.30731 160.634 1.82144 160.611 1.30088 160.578C0.791891 160.566 0.259779 160.532 -0.237642 160.555C-0.735065 160.578 -1.20937 160.645 -1.62581 160.769C-1.2325 160.487 -0.897015 160.092 -0.596247 159.686C-0.295481 159.28 -0.0525703 158.828 0.144085 158.388C0.560532 157.53 0.803482 156.729 1.03484 156.391C1.75205 155.251 2.82785 155.194 3.90368 155.318C4.99106 155.465 6.04375 155.759 6.57587 155.476C6.171 155.917 6.28668 157.034 6.04376 158.129C5.82397 159.223 5.25715 160.341 3.74174 160.611C3.51038 160.645 3.16331 160.657 2.7353 160.645L2.72375 160.657ZM24.2864 166.807C24.4947 165.893 24.3674 164.855 24.1476 163.952C23.9163 163.038 23.6386 162.27 23.6155 161.864C23.4998 160.544 24.3327 159.9 25.316 159.438C26.2646 158.964 27.3288 158.67 27.5833 158.162C27.5139 158.727 28.2196 159.562 28.7054 160.555C29.145 161.526 29.3879 162.688 28.3468 163.704C28.0229 164.008 27.2247 164.46 26.4149 164.99C25.5705 165.509 24.7145 166.119 24.2633 166.796L24.2864 166.807ZM51.1936 157.011C50.6846 157.688 48.4288 159.223 47.8504 160.736C47.8735 158.896 46.3813 156.797 46.2078 155.996C45.5368 153.366 49.227 152.802 49.6319 151.763C49.6087 152.892 52.8478 154.765 51.1936 157.011ZM59.0598 125.693C58.4119 126.212 55.8092 127.126 55.011 128.56C55.3117 126.754 54.4557 124.339 54.4789 123.492C54.5251 120.739 58.25 121.167 58.8978 120.231C58.6202 121.303 61.1998 123.966 59.0598 125.693Z" fill="#F06298"/>
<path d="M36.3169 82.3664L35.7964 80.2334C35.2295 81.046 34.6512 81.8473 34.0728 82.6485C34.3041 82.5808 34.5586 82.5244 34.8015 82.4906C35.3336 82.4228 35.8542 82.4003 36.3169 82.3777V82.3664Z" fill="#F06298"/>
<path d="M28.9137 86.509L29.041 86.351C28.532 86.7686 27.6528 86.6106 27.2942 85.9786L23.7544 80.0761C23.6156 80.1325 23.4652 80.1777 23.2917 80.2115C22.8752 80.2792 22.0308 80.2793 21.0706 80.347C20.1221 80.426 19.0578 80.5839 18.3984 81.058C18.9306 80.2905 19.2892 79.32 19.5437 78.3945C19.7982 77.4691 19.9717 76.6226 20.1915 76.2615C20.4113 75.8778 20.6773 75.6069 20.9665 75.4038L19.1503 72.3792C18.4563 75.8213 17.5887 79.2522 16.5475 82.6267C16.8136 82.6154 17.0334 82.5703 17.1953 82.48C16.8367 82.9201 17.0913 84.0148 17.1028 85.0531C17.1028 85.5723 17.0565 86.0914 16.8483 86.5429C16.6401 86.983 16.3046 87.3893 15.6684 87.6376C15.4833 87.7166 15.171 87.7843 14.8008 87.852C12.5566 94.0141 9.76874 99.9843 6.44873 105.627C10.7057 104.566 15.2982 101.79 20.1915 97.3096C22.8984 94.8267 25.9639 91.3393 29.0873 87.3442C29.0641 87.3442 29.0525 87.3216 29.0294 87.3103C28.7749 87.1184 28.7286 86.7573 28.9253 86.509H28.9137Z" fill="#F06298"/>
<path d="M6.34458 71.1375C6.78416 71.4986 7.53605 71.8485 8.23013 72.3451C8.68128 72.6836 9.08618 73.0899 9.34068 73.5978C9.59518 74.1057 9.69927 74.7038 9.46791 75.4148C9.31753 75.8437 8.86637 76.6337 8.34582 77.4801C8.09132 77.909 7.83684 78.3604 7.64019 78.8006C7.53608 79.0263 7.4551 79.2407 7.38569 79.4551C7.30472 79.6696 7.24688 79.884 7.21218 80.0872C7.16591 79.8501 7.10805 79.6244 7.01551 79.3987C6.92296 79.173 6.80727 78.9473 6.68003 78.7328C6.42553 78.304 6.12479 77.8977 5.83559 77.5365C5.22248 76.8143 4.59781 76.2612 4.38959 75.9114C4.05412 75.3471 3.93842 74.8505 4.04253 74.3652C4.13507 73.8799 4.41271 73.4172 4.70191 72.9884C5.08366 72.4128 5.55794 71.8711 5.82401 71.4083C4.43585 72.1194 3.09398 72.9432 1.8215 73.8799L-2.55119 90.3234C-2.23886 90.4024 -2.05379 90.7184 -2.13476 91.0231L-5.43164 103.438C-5.30439 103.528 -5.16555 103.629 -5.0383 103.72C-4.52931 103.336 -3.86995 103.223 -3.17587 103.212C-2.10005 103.178 -1.01267 103.302 -0.549956 102.93C-0.862291 103.415 -0.538375 104.498 -0.573079 105.604C-0.573079 105.638 -0.573079 105.683 -0.573079 105.717C-0.399559 105.762 -0.214482 105.808 -0.0409622 105.841C0.155694 105.887 0.35236 105.92 0.549016 105.943C0.29452 105.018 0.0631695 104.216 0.0516014 103.787C0.0284653 103.088 0.248258 102.557 0.595297 102.162C0.965473 101.779 1.4629 101.519 1.97189 101.327C3.00144 100.943 4.08881 100.819 4.41271 100.368C4.26233 100.91 4.84073 101.846 5.21091 102.828C5.39599 103.325 5.51169 103.821 5.47698 104.318C5.45385 104.814 5.24562 105.288 4.74819 105.74C4.65565 105.819 4.51683 105.92 4.34331 106.022C4.5284 105.999 4.7135 105.977 4.89858 105.943C8.27643 100.311 11.1337 94.3298 13.4357 88.1452C12.5334 88.3935 11.5617 88.7434 10.9602 89.2964C11.3882 88.4838 11.527 87.4342 11.608 86.4749C11.7121 85.5382 11.7468 84.6918 11.8856 84.2855C12.3136 82.9199 13.4589 82.6265 14.5463 82.5926C14.8123 82.5926 15.0668 82.5926 15.3213 82.6039C16.5128 78.7442 17.4961 74.8392 18.2365 70.9005L16.5822 68.1467C13.0424 68.5304 9.57203 69.5462 6.333 71.1375H6.34458ZM4.40113 84.8385C4.63249 84.4096 5.02582 84.0485 5.4654 83.7212C6.28673 83.0666 7.25843 82.5362 7.40881 81.9832C7.45509 82.5587 8.34584 83.2359 9.01678 84.1501C9.32911 84.6015 9.60673 85.1093 9.68771 85.6736C9.73398 85.9558 9.73399 86.2492 9.66458 86.5426C9.58361 86.8361 9.4448 87.1408 9.23657 87.4568C9.10933 87.6487 8.85481 87.8857 8.56561 88.1678C8.41523 88.3032 8.25329 88.4612 8.07978 88.6192C7.90626 88.7772 7.70958 88.9352 7.51292 89.1045C6.74944 89.7704 6.00909 90.504 5.60421 91.2376C5.76616 90.3121 5.4307 89.2512 5.1068 88.3935C4.77133 87.5245 4.32019 86.8022 4.25078 86.4185C4.1004 85.7865 4.16978 85.2786 4.40113 84.8498V84.8385ZM10.3702 93.4383C10.5784 94.4766 10.5669 95.5261 9.39851 96.2259C9.05147 96.4403 8.23015 96.7112 7.35099 97.0949C6.91141 97.2868 6.46026 97.5012 6.05538 97.7608C6.02068 97.7833 5.99752 97.8059 5.96282 97.8285C5.80087 98.2009 5.53481 98.5395 5.1068 98.8442C4.72506 99.115 3.89217 99.4762 2.94359 99.8599C2.00659 100.255 1.06958 100.718 0.444908 101.293C0.884491 100.458 0.919177 99.3634 0.89604 98.4379C0.89604 97.9752 0.826661 97.535 0.780389 97.1626C0.734118 96.7902 0.699392 96.4967 0.722528 96.2936C0.745664 95.9663 0.826643 95.6954 0.942322 95.4584C1.04643 95.2214 1.19682 95.0183 1.38191 94.849C1.74052 94.5104 2.23793 94.296 2.74692 94.1267C3.74177 93.7656 4.82918 93.5737 5.15308 93.0884C5.12994 93.1674 5.12993 93.2577 5.1415 93.3593C5.4307 92.1179 6.41398 91.6438 7.42039 91.4407C8.50778 91.2375 9.61831 91.3053 10.0232 90.9216C9.76869 91.4294 10.162 92.4339 10.3587 93.4609L10.3702 93.4383Z" fill="#F06298"/>
<path d="M1.28937 65.8102C1.59014 66.081 2.34209 66.4309 3.16341 66.9387C3.9269 67.4692 4.81763 68.135 5.25721 68.9815C5.14153 68.1576 5.30349 67.1419 5.54641 66.1713C5.7662 65.212 5.97443 64.3204 5.986 63.869C5.986 63.1128 5.69677 62.5711 5.30346 62.1648C4.89858 61.7585 4.40116 61.4764 3.85746 61.2958C2.75851 60.9234 1.64799 60.8557 1.26625 60.4155C1.47447 60.9572 0.977051 61.9391 0.687851 62.9323C0.549036 63.4289 0.421797 63.948 0.479636 64.4333C0.525908 64.9299 0.79195 65.3587 1.28937 65.7989V65.8102Z" fill="#F06298"/>
<path d="M1.28937 65.8102C1.59014 66.081 2.34209 66.4309 3.16341 66.9387C3.9269 67.4692 4.81763 68.135 5.25721 68.9815C5.14153 68.1576 5.30349 67.1419 5.54641 66.1713C5.7662 65.212 5.97443 64.3204 5.986 63.869C5.986 63.1128 5.69677 62.5711 5.30346 62.1648C4.89858 61.7585 4.40116 61.4764 3.85746 61.2958C2.75851 60.9234 1.64799 60.8557 1.26625 60.4155C1.47447 60.9572 0.977051 61.9391 0.687851 62.9323C0.549036 63.4289 0.421797 63.948 0.479636 64.4333C0.525908 64.9299 0.79195 65.3587 1.28937 65.7989V65.8102Z" fill="#FFF3E1"/>
<path d="M85.2148 40.8346C85.3074 41.286 85.3652 41.8052 85.4693 42.313C85.585 42.8096 85.7123 43.3062 85.9783 43.7012C86.256 44.0736 86.6261 44.3783 87.2624 44.5025C87.6441 44.5815 88.4307 44.5589 89.3677 44.6718C89.8189 44.7395 90.3047 44.8298 90.779 44.9991C91.2302 45.1796 91.6698 45.4053 92.0399 45.6988C91.8317 45.3489 91.6698 44.9313 91.5541 44.4573C91.4384 43.9833 91.3112 43.5093 91.207 43.0127C90.9988 42.0422 90.779 41.1393 90.5708 40.7217C89.8305 39.39 88.5464 39.232 87.4359 39.4126C86.869 39.5028 86.3369 39.6721 85.8858 39.785C85.423 39.9091 85.0413 39.9881 84.7637 39.8866C84.9835 40.0671 85.1107 40.417 85.2148 40.8571V40.8346Z" fill="#F06298"/>
<path d="M85.2148 40.8346C85.3074 41.286 85.3652 41.8052 85.4693 42.313C85.585 42.8096 85.7123 43.3062 85.9783 43.7012C86.256 44.0736 86.6261 44.3783 87.2624 44.5025C87.6441 44.5815 88.4307 44.5589 89.3677 44.6718C89.8189 44.7395 90.3047 44.8298 90.779 44.9991C91.2302 45.1796 91.6698 45.4053 92.0399 45.6988C91.8317 45.3489 91.6698 44.9313 91.5541 44.4573C91.4384 43.9833 91.3112 43.5093 91.207 43.0127C90.9988 42.0422 90.779 41.1393 90.5708 40.7217C89.8305 39.39 88.5464 39.232 87.4359 39.4126C86.869 39.5028 86.3369 39.6721 85.8858 39.785C85.423 39.9091 85.0413 39.9881 84.7637 39.8866C84.9835 40.0671 85.1107 40.417 85.2148 40.8571V40.8346Z" fill="#FFF3E1"/>
<path d="M92.7109 52.1544C92.8382 52.2898 93.0464 52.4704 93.324 52.6848C93.6016 52.9105 93.9487 53.1701 94.261 53.4861C94.9204 54.1181 95.545 54.9758 95.7186 55.89C95.8458 55.0887 96.3432 54.1745 96.7712 53.2717C96.8869 53.0459 97.0026 52.8202 97.1067 52.6058C97.1993 52.3914 97.2918 52.1882 97.3728 51.9964C97.5348 51.6127 97.6504 51.2741 97.6967 51.0371C97.7893 50.2809 97.6157 49.6376 97.2571 49.1523C96.8869 48.6783 96.4126 48.3172 95.8689 48.0802C95.3368 47.8432 94.7931 47.6852 94.342 47.5385C93.8792 47.403 93.4975 47.2789 93.3124 47.0645C93.4165 47.324 93.3356 47.6965 93.1968 48.114C93.0232 48.5429 92.7803 49.0056 92.5836 49.4683C92.1788 50.4051 91.878 51.2628 92.7225 52.1318L92.7109 52.1544Z" fill="#F06298"/>
<path d="M92.7109 52.1544C92.8382 52.2898 93.0464 52.4704 93.324 52.6848C93.6016 52.9105 93.9487 53.1701 94.261 53.4861C94.9204 54.1181 95.545 54.9758 95.7186 55.89C95.8458 55.0887 96.3432 54.1745 96.7712 53.2717C96.8869 53.0459 97.0026 52.8202 97.1067 52.6058C97.1993 52.3914 97.2918 52.1882 97.3728 51.9964C97.5348 51.6127 97.6504 51.2741 97.6967 51.0371C97.7893 50.2809 97.6157 49.6376 97.2571 49.1523C96.8869 48.6783 96.4126 48.3172 95.8689 48.0802C95.3368 47.8432 94.7931 47.6852 94.342 47.5385C93.8792 47.403 93.4975 47.2789 93.3124 47.0645C93.4165 47.324 93.3356 47.6965 93.1968 48.114C93.0232 48.5429 92.7803 49.0056 92.5836 49.4683C92.1788 50.4051 91.878 51.2628 92.7225 52.1318L92.7109 52.1544Z" fill="#FFF3E1"/>
<path d="M93.4048 79.8494C94.203 80.3572 94.8624 80.9102 95.221 81.0908C96.4241 81.6664 97.3611 81.1359 98.1593 80.4249C98.9575 79.7139 99.6168 78.8449 100.195 78.7772C99.0963 78.5402 98.0089 74.9965 95.2904 76.1138C94.8855 76.283 94.1915 76.8247 93.4048 77.389C92.6066 77.9646 91.7275 78.5741 90.8252 78.8562C91.6581 78.8788 92.6067 79.3302 93.3933 79.8381L93.4048 79.8494Z" fill="#F06298"/>
<path d="M93.4048 79.8494C94.203 80.3572 94.8624 80.9102 95.221 81.0908C96.4241 81.6664 97.3611 81.1359 98.1593 80.4249C98.9575 79.7139 99.6168 78.8449 100.195 78.7772C99.0963 78.5402 98.0089 74.9965 95.2904 76.1138C94.8855 76.283 94.1915 76.8247 93.4048 77.389C92.6066 77.9646 91.7275 78.5741 90.8252 78.8562C91.6581 78.8788 92.6067 79.3302 93.3933 79.8381L93.4048 79.8494Z" fill="#FFF3E1"/>
<path d="M85.1916 83.0547C85.8394 83.1112 86.3137 82.9645 86.6838 82.6597C87.054 82.3776 87.3432 81.96 87.5861 81.4973C88.0836 80.5944 88.4769 79.59 89.009 79.3756C88.4538 79.3868 87.6671 78.6307 86.6723 78.1116C86.1749 77.8633 85.6312 77.6827 85.0643 77.6714C84.4975 77.6714 83.9191 77.8971 83.3754 78.3937C83.0515 78.721 82.5888 79.4659 82.0914 80.301C81.8369 80.7186 81.5592 81.1474 81.27 81.5537C80.9808 81.96 80.6569 82.3437 80.2983 82.6372C81.085 82.355 82.1261 82.4002 83.0631 82.5807C83.9885 82.7274 84.8098 83.0434 85.2031 83.066L85.1916 83.0547Z" fill="#F06298"/>
<path d="M85.1916 83.0547C85.8394 83.1112 86.3137 82.9645 86.6838 82.6597C87.054 82.3776 87.3432 81.96 87.5861 81.4973C88.0836 80.5944 88.4769 79.59 89.009 79.3756C88.4538 79.3868 87.6671 78.6307 86.6723 78.1116C86.1749 77.8633 85.6312 77.6827 85.0643 77.6714C84.4975 77.6714 83.9191 77.8971 83.3754 78.3937C83.0515 78.721 82.5888 79.4659 82.0914 80.301C81.8369 80.7186 81.5592 81.1474 81.27 81.5537C80.9808 81.96 80.6569 82.3437 80.2983 82.6372C81.085 82.355 82.1261 82.4002 83.0631 82.5807C83.9885 82.7274 84.8098 83.0434 85.2031 83.066L85.1916 83.0547Z" fill="#FFF3E1"/>
<path d="M88.6508 72.9204C89.4027 72.7962 89.9464 72.4576 90.2934 71.9949C90.6636 71.5548 90.8371 70.9905 90.9412 70.4262C90.9875 70.1441 91.0222 69.8732 91.0338 69.6136C91.0338 69.3428 91.0453 69.0945 91.0569 68.8575C91.0685 68.3835 91.1148 68.011 91.2883 67.774C91.0569 67.9433 90.652 67.9433 90.2009 67.9095C89.7497 67.8756 89.2292 67.774 88.6971 67.7063C88.1765 67.6386 87.6791 67.6273 87.2164 67.7289C86.985 67.7853 86.7768 67.8869 86.5801 68.0336C86.3835 68.1803 86.1868 68.3722 86.0248 68.643C85.8282 68.9703 85.5737 69.7265 85.1804 70.5616C84.9722 70.9679 84.7293 71.3968 84.4285 71.7918C84.1277 72.1755 83.7922 72.5366 83.3989 72.8075C84.1971 72.5818 85.2498 72.6721 86.2446 72.7737C87.2395 72.8639 88.1765 72.9881 88.6392 72.9091L88.6508 72.9204Z" fill="#F06298"/>
<path d="M88.6508 72.9204C89.4027 72.7962 89.9464 72.4576 90.2934 71.9949C90.6636 71.5548 90.8371 70.9905 90.9412 70.4262C90.9875 70.1441 91.0222 69.8732 91.0338 69.6136C91.0338 69.3428 91.0453 69.0945 91.0569 68.8575C91.0685 68.3835 91.1148 68.011 91.2883 67.774C91.0569 67.9433 90.652 67.9433 90.2009 67.9095C89.7497 67.8756 89.2292 67.774 88.6971 67.7063C88.1765 67.6386 87.6791 67.6273 87.2164 67.7289C86.985 67.7853 86.7768 67.8869 86.5801 68.0336C86.3835 68.1803 86.1868 68.3722 86.0248 68.643C85.8282 68.9703 85.5737 69.7265 85.1804 70.5616C84.9722 70.9679 84.7293 71.3968 84.4285 71.7918C84.1277 72.1755 83.7922 72.5366 83.3989 72.8075C84.1971 72.5818 85.2498 72.6721 86.2446 72.7737C87.2395 72.8639 88.1765 72.9881 88.6392 72.9091L88.6508 72.9204Z" fill="#FFF3E1"/>
<path d="M65.8502 95.9212C66.7641 95.7519 67.6201 95.7293 68.0018 95.6277C69.2627 95.2666 69.5982 94.2396 69.6908 93.1787C69.7833 92.1179 69.6445 91.0457 70.0031 90.6056C69.5173 90.8877 68.453 90.5717 67.3772 90.504C66.3013 90.4363 65.1793 90.6056 64.5662 91.9373C64.3811 92.3323 64.2423 93.2013 64.0687 94.1719C63.9299 94.9619 63.7911 95.797 63.5597 96.5419C63.5019 96.7225 63.4556 96.8918 63.3862 97.0611C63.4325 97.0046 63.4903 96.9595 63.5366 96.9031C64.1035 96.3726 64.9942 96.0566 65.8271 95.9099L65.8502 95.9212Z" fill="#F06298"/>
<path d="M65.8502 95.9212C66.7641 95.7519 67.6201 95.7293 68.0018 95.6277C69.2627 95.2666 69.5982 94.2396 69.6908 93.1787C69.7833 92.1179 69.6445 91.0457 70.0031 90.6056C69.5173 90.8877 68.453 90.5717 67.3772 90.504C66.3013 90.4363 65.1793 90.6056 64.5662 91.9373C64.3811 92.3323 64.2423 93.2013 64.0687 94.1719C63.9299 94.9619 63.7911 95.797 63.5597 96.5419C63.5019 96.7225 63.4556 96.8918 63.3862 97.0611C63.4325 97.0046 63.4903 96.9595 63.5366 96.9031C64.1035 96.3726 64.9942 96.0566 65.8271 95.9099L65.8502 95.9212Z" fill="#FFF3E1"/>
<path d="M92.7574 64.1621C92.7574 64.3879 92.7574 64.6249 92.7343 64.8731C92.7112 65.1101 92.6765 65.3472 92.6186 65.5842C92.5492 65.8099 92.4682 66.0243 92.3525 66.2275C92.5029 66.092 92.6765 65.9566 92.8731 65.8324C93.0582 65.7083 93.2549 65.5729 93.4631 65.46C93.8911 65.223 94.377 64.9973 94.805 64.749C94.9322 64.6813 95.0594 64.6136 95.1751 64.5571L92.688 63.7559C92.6996 63.8913 92.7227 64.0267 92.7343 64.1621H92.7574Z" fill="#F06298"/>
<path d="M92.7574 64.1621C92.7574 64.3879 92.7574 64.6249 92.7343 64.8731C92.7112 65.1101 92.6765 65.3472 92.6186 65.5842C92.5492 65.8099 92.4682 66.0243 92.3525 66.2275C92.5029 66.092 92.6765 65.9566 92.8731 65.8324C93.0582 65.7083 93.2549 65.5729 93.4631 65.46C93.8911 65.223 94.377 64.9973 94.805 64.749C94.9322 64.6813 95.0594 64.6136 95.1751 64.5571L92.688 63.7559C92.6996 63.8913 92.7227 64.0267 92.7343 64.1621H92.7574Z" fill="#FFF3E1"/>
<path d="M77.9156 39.8191C78.7254 39.7739 81.1199 38.7356 82.9708 39.2096C81.6173 38.3068 80.4605 35.8239 79.8243 35.2032C78.7832 34.1987 77.6264 34.4019 76.62 34.842C75.683 35.2596 74.8616 35.8465 74.2832 35.869L74.2485 35.9367C75.1855 36.6365 75.3012 40.0335 77.9156 39.8191Z" fill="#F06298"/>
<path d="M77.9156 39.8191C78.7254 39.7739 81.1199 38.7356 82.9708 39.2096C81.6173 38.3068 80.4605 35.8239 79.8243 35.2032C78.7832 34.1987 77.6264 34.4019 76.62 34.842C75.683 35.2596 74.8616 35.8465 74.2832 35.869L74.2485 35.9367C75.1855 36.6365 75.3012 40.0335 77.9156 39.8191Z" fill="#FFF3E1"/>
<path d="M93.0003 62.6506L96.5286 63.7905C96.6905 63.6776 96.8177 63.5761 96.9103 63.4858C97.1995 63.2149 97.3962 62.9215 97.5118 62.6168C97.6391 62.3233 97.6969 62.0186 97.7085 61.7252C97.7085 61.1383 97.5003 60.574 97.2458 60.0774C96.6789 59.073 95.8923 58.3394 95.8345 57.7751C95.6957 58.3282 94.6314 58.757 93.7638 59.2649C93.3011 59.5132 92.8731 59.784 92.607 60.1452C92.3062 60.4838 92.1674 60.9126 92.2253 61.5108C92.2253 61.759 92.3872 62.1879 92.5145 62.7183C92.6533 62.6393 92.8268 62.6055 92.9888 62.6619L93.0003 62.6506Z" fill="#F06298"/>
<path d="M93.0003 62.6506L96.5286 63.7905C96.6905 63.6776 96.8177 63.5761 96.9103 63.4858C97.1995 63.2149 97.3962 62.9215 97.5118 62.6168C97.6391 62.3233 97.6969 62.0186 97.7085 61.7252C97.7085 61.1383 97.5003 60.574 97.2458 60.0774C96.6789 59.073 95.8923 58.3394 95.8345 57.7751C95.6957 58.3282 94.6314 58.757 93.7638 59.2649C93.3011 59.5132 92.8731 59.784 92.607 60.1452C92.3062 60.4838 92.1674 60.9126 92.2253 61.5108C92.2253 61.759 92.3872 62.1879 92.5145 62.7183C92.6533 62.6393 92.8268 62.6055 92.9888 62.6619L93.0003 62.6506Z" fill="#FFF3E1"/>
<path d="M80.4604 95.9666C80.0092 96.2938 78.9334 96.1133 77.8229 96.2148C77.2676 96.26 76.7355 96.4067 76.2728 96.6888C75.8216 96.9823 75.4399 97.4224 75.2895 98.1221C75.0582 98.9686 75.4862 101.497 74.8384 103.189C75.3821 102.58 76.3191 102.14 77.2214 101.835C78.1121 101.519 78.9681 101.339 79.3383 101.158C79.9283 100.853 80.2522 100.447 80.4141 100.007C80.5761 99.5554 80.5645 99.025 80.5183 98.5171C80.4373 97.5014 80.1249 96.4405 80.4489 95.9778L80.4604 95.9666Z" fill="#F06298"/>
<path d="M80.4604 95.9666C80.0092 96.2938 78.9334 96.1133 77.8229 96.2148C77.2676 96.26 76.7355 96.4067 76.2728 96.6888C75.8216 96.9823 75.4399 97.4224 75.2895 98.1221C75.0582 98.9686 75.4862 101.497 74.8384 103.189C75.3821 102.58 76.3191 102.14 77.2214 101.835C78.1121 101.519 78.9681 101.339 79.3383 101.158C79.9283 100.853 80.2522 100.447 80.4141 100.007C80.5761 99.5554 80.5645 99.025 80.5183 98.5171C80.4373 97.5014 80.1249 96.4405 80.4489 95.9778L80.4604 95.9666Z" fill="#FFF3E1"/>
<path d="M77.8575 77.7847C79.2688 77.9202 80.0208 77.0399 80.5182 76.0806C81.0156 75.11 81.2586 74.0491 81.756 73.7444C81.1892 73.8686 80.2984 73.2253 79.3151 72.7851C78.3318 72.345 77.2676 72.108 76.2496 73.056C75.6249 73.6203 74.4566 75.9226 72.8486 76.9044C74.4913 76.5433 76.99 77.6944 77.8575 77.7847Z" fill="#F06298"/>
<path d="M77.8575 77.7847C79.2688 77.9202 80.0208 77.0399 80.5182 76.0806C81.0156 75.11 81.2586 74.0491 81.756 73.7444C81.1892 73.8686 80.2984 73.2253 79.3151 72.7851C78.3318 72.345 77.2676 72.108 76.2496 73.056C75.6249 73.6203 74.4566 75.9226 72.8486 76.9044C74.4913 76.5433 76.99 77.6944 77.8575 77.7847Z" fill="#FFF3E1"/>
<path d="M95.6147 86.0121C95.3949 86.0798 95.0941 86.2604 94.7471 86.4748C94.4001 86.6893 94.0068 86.9601 93.6019 87.2761C93.197 87.5808 92.769 87.8855 92.3525 88.1451C91.9361 88.4385 91.5197 88.7207 91.0801 88.89C91.4965 88.8674 91.9476 88.9464 92.3872 89.0706C92.8268 89.2399 93.2664 89.4769 93.6482 89.7252C94.4117 90.1766 95.0016 90.7973 95.314 90.9666C96.3898 91.6099 97.2921 91.1359 98.1597 90.5151C99.0041 89.8831 99.7561 89.0931 100.334 89.0706C99.8023 88.89 99.3743 87.8968 98.7034 87.0617C98.044 86.2265 97.0954 85.5042 95.6263 86.0008L95.6147 86.0121Z" fill="#F06298"/>
<path d="M95.6147 86.0121C95.3949 86.0798 95.0941 86.2604 94.7471 86.4748C94.4001 86.6893 94.0068 86.9601 93.6019 87.2761C93.197 87.5808 92.769 87.8855 92.3525 88.1451C91.9361 88.4385 91.5197 88.7207 91.0801 88.89C91.4965 88.8674 91.9476 88.9464 92.3872 89.0706C92.8268 89.2399 93.2664 89.4769 93.6482 89.7252C94.4117 90.1766 95.0016 90.7973 95.314 90.9666C96.3898 91.6099 97.2921 91.1359 98.1597 90.5151C99.0041 89.8831 99.7561 89.0931 100.334 89.0706C99.8023 88.89 99.3743 87.8968 98.7034 87.0617C98.044 86.2265 97.0954 85.5042 95.6263 86.0008L95.6147 86.0121Z" fill="#FFF3E1"/>
<path d="M76.1921 83.3491C75.1047 83.1685 73.9363 83.2701 73.2307 84.5003C72.7795 85.2452 72.4556 87.7958 71.2988 89.2291C72.7217 88.36 75.4402 88.6535 76.2499 88.518C77.5802 88.2585 77.9735 87.2879 78.1702 86.2609C78.3669 85.2226 78.3784 84.1617 78.8064 83.778C78.2859 83.9924 77.2679 83.5184 76.1921 83.3491Z" fill="#F06298"/>
<path d="M76.1921 83.3491C75.1047 83.1685 73.9363 83.2701 73.2307 84.5003C72.7795 85.2452 72.4556 87.7958 71.2988 89.2291C72.7217 88.36 75.4402 88.6535 76.2499 88.518C77.5802 88.2585 77.9735 87.2879 78.1702 86.2609C78.3669 85.2226 78.3784 84.1617 78.8064 83.778C78.2859 83.9924 77.2679 83.5184 76.1921 83.3491Z" fill="#FFF3E1"/>
<path d="M88.8588 89.5556C88.6853 89.5104 88.4886 89.4314 88.2804 89.3411C87.8524 89.1605 87.355 88.9235 86.8113 88.743C86.256 88.5624 85.7007 88.5173 85.1223 88.6301C84.8447 88.6866 84.5555 88.7994 84.2894 88.9574C84.0349 89.1267 83.8036 89.375 83.5838 89.691C83.3177 90.0634 83.0285 90.8986 82.7509 91.8353C82.427 92.7495 82.1262 93.7652 81.5825 94.51C82.2766 94.0586 83.2715 93.8442 84.2316 93.8329C84.7059 93.8216 85.1455 93.8329 85.5041 93.8329C85.8858 93.8555 86.1866 93.878 86.3833 93.8667C86.6956 93.8329 86.9501 93.7539 87.1699 93.6298C87.3781 93.5056 87.5632 93.3815 87.702 93.2122C87.9912 92.8736 88.1531 92.3883 88.3151 91.9143C88.4655 91.4516 88.5927 90.9437 88.7431 90.5149C88.8241 90.3004 88.905 90.1086 88.9976 89.9506C89.0901 89.8038 89.2058 89.691 89.3331 89.6233C89.1943 89.6458 89.0323 89.612 88.8588 89.5556Z" fill="#F06298"/>
<path d="M88.8588 89.5556C88.6853 89.5104 88.4886 89.4314 88.2804 89.3411C87.8524 89.1605 87.355 88.9235 86.8113 88.743C86.256 88.5624 85.7007 88.5173 85.1223 88.6301C84.8447 88.6866 84.5555 88.7994 84.2894 88.9574C84.0349 89.1267 83.8036 89.375 83.5838 89.691C83.3177 90.0634 83.0285 90.8986 82.7509 91.8353C82.427 92.7495 82.1262 93.7652 81.5825 94.51C82.2766 94.0586 83.2715 93.8442 84.2316 93.8329C84.7059 93.8216 85.1455 93.8329 85.5041 93.8329C85.8858 93.8555 86.1866 93.878 86.3833 93.8667C86.6956 93.8329 86.9501 93.7539 87.1699 93.6298C87.3781 93.5056 87.5632 93.3815 87.702 93.2122C87.9912 92.8736 88.1531 92.3883 88.3151 91.9143C88.4655 91.4516 88.5927 90.9437 88.7431 90.5149C88.8241 90.3004 88.905 90.1086 88.9976 89.9506C89.0901 89.8038 89.2058 89.691 89.3331 89.6233C89.1943 89.6458 89.0323 89.612 88.8588 89.5556Z" fill="#FFF3E1"/>
<path d="M68.661 76.894C67.643 76.5102 66.4862 76.3522 65.5261 77.4244C64.913 78.0451 64.0106 80.4829 62.5415 81.6453C64.1379 81.0923 66.7407 81.9613 67.5852 81.9839C68.9617 81.9952 69.5864 81.1149 70.0144 80.1443C70.4309 79.1624 70.6622 78.1129 71.1597 77.8081C70.6044 77.9323 69.6905 77.289 68.6725 76.9052L68.661 76.894Z" fill="#F06298"/>
<path d="M68.661 76.894C67.643 76.5102 66.4862 76.3522 65.5261 77.4244C64.913 78.0451 64.0106 80.4829 62.5415 81.6453C64.1379 81.0923 66.7407 81.9613 67.5852 81.9839C68.9617 81.9952 69.5864 81.1149 70.0144 80.1443C70.4309 79.1624 70.6622 78.1129 71.1597 77.8081C70.6044 77.9323 69.6905 77.289 68.6725 76.9052L68.661 76.894Z" fill="#FFF3E1"/>
<path d="M16.8366 86.5314C17.0448 86.0913 17.0911 85.5721 17.0911 85.0417C17.0911 84.0034 16.8366 82.9087 17.1836 82.4685C17.0217 82.5701 16.8019 82.6039 16.5358 82.6152C15.9921 84.3645 15.4137 86.1138 14.7891 87.8406C15.1708 87.7616 15.4716 87.7051 15.6567 87.6261C16.2813 87.3778 16.6284 86.9716 16.8366 86.5314Z" fill="#F06298"/>
<path d="M16.8366 86.5314C17.0448 86.0913 17.0911 85.5721 17.0911 85.0417C17.0911 84.0034 16.8366 82.9087 17.1836 82.4685C17.0217 82.5701 16.8019 82.6039 16.5358 82.6152C15.9921 84.3645 15.4137 86.1138 14.7891 87.8406C15.1708 87.7616 15.4716 87.7051 15.6567 87.6261C16.2813 87.3778 16.6284 86.9716 16.8366 86.5314Z" fill="#FFF3E1"/>
<path d="M50.9622 91.3506C51.1241 90.3011 51.0895 89.2289 51.4943 88.8113C50.9854 89.0596 49.9442 88.6533 48.8569 88.5179C47.7695 88.3825 46.6126 88.5179 45.9417 89.7706C45.5021 90.5268 45.236 93.0999 44.0908 94.5671C45.5021 93.6529 48.2437 93.8787 49.0651 93.7094C50.407 93.3934 50.7887 92.4002 50.9622 91.3506Z" fill="#F06298"/>
<path d="M50.9622 91.3506C51.1241 90.3011 51.0895 89.2289 51.4943 88.8113C50.9854 89.0596 49.9442 88.6533 48.8569 88.5179C47.7695 88.3825 46.6126 88.5179 45.9417 89.7706C45.5021 90.5268 45.236 93.0999 44.0908 94.5671C45.5021 93.6529 48.2437 93.8787 49.0651 93.7094C50.407 93.3934 50.7887 92.4002 50.9622 91.3506Z" fill="#FFF3E1"/>
<path d="M26.5655 97.3317C26.7391 98.3022 26.9126 99.3857 26.7506 100.345C27.1671 99.5888 27.9884 98.9117 28.8329 98.3925C29.6542 97.8621 30.4524 97.4671 30.7994 97.2075C31.8637 96.3159 31.7712 95.2438 31.4704 94.2055C31.1581 93.1672 30.6838 92.1853 30.8804 91.6323C30.5102 92.0838 29.3766 92.1627 28.3239 92.5352C27.2828 92.9076 26.2416 93.5622 26.2069 95.0519C26.1722 95.5034 26.3805 96.3611 26.5771 97.3317H26.5655Z" fill="#F06298"/>
<path d="M26.5655 97.3317C26.7391 98.3022 26.9126 99.3857 26.7506 100.345C27.1671 99.5888 27.9884 98.9117 28.8329 98.3925C29.6542 97.8621 30.4524 97.4671 30.7994 97.2075C31.8637 96.3159 31.7712 95.2438 31.4704 94.2055C31.1581 93.1672 30.6838 92.1853 30.8804 91.6323C30.5102 92.0838 29.3766 92.1627 28.3239 92.5352C27.2828 92.9076 26.2416 93.5622 26.2069 95.0519C26.1722 95.5034 26.3805 96.3611 26.5771 97.3317H26.5655Z" fill="#FFF3E1"/>
<path d="M20.9548 75.4028C20.6656 75.606 20.3995 75.8655 20.1797 76.2605C19.9599 76.6217 19.7864 77.4794 19.5319 78.3936C19.2774 79.319 18.9188 80.2896 18.3867 81.057C19.0577 80.583 20.1103 80.425 21.0589 80.346C22.0191 80.2783 22.8635 80.2783 23.2799 80.2106C23.4419 80.1767 23.6038 80.1316 23.7427 80.0751L20.9432 75.4141L20.9548 75.4028Z" fill="#F06298"/>
<path d="M20.9548 75.4028C20.6656 75.606 20.3995 75.8655 20.1797 76.2605C19.9599 76.6217 19.7864 77.4794 19.5319 78.3936C19.2774 79.319 18.9188 80.2896 18.3867 81.057C19.0577 80.583 20.1103 80.425 21.0589 80.346C22.0191 80.2783 22.8635 80.2783 23.2799 80.2106C23.4419 80.1767 23.6038 80.1316 23.7427 80.0751L20.9432 75.4141L20.9548 75.4028Z" fill="#FFF3E1"/>
<path d="M10.0348 90.899C9.62994 91.2827 8.51942 91.2151 7.43203 91.4182C6.42561 91.6213 5.44234 92.0953 5.15314 93.3368C5.15314 93.2465 5.15311 93.1562 5.16468 93.0659C4.84078 93.5512 3.7534 93.7543 2.75856 94.1042C2.238 94.2735 1.75215 94.4992 1.39355 94.8265C1.20846 94.9958 1.06964 95.1877 0.953957 95.4359C0.838278 95.6729 0.757299 95.9438 0.734163 96.2711C0.711027 96.4742 0.734149 96.7677 0.791989 97.1401C0.838261 97.5125 0.896108 97.9527 0.907676 98.4154C0.942379 99.3408 0.907694 100.436 0.456543 101.271C1.06965 100.695 2.01819 100.232 2.95519 99.8374C3.90377 99.4537 4.74826 99.0926 5.11843 98.8217C5.54645 98.517 5.8125 98.1671 5.97445 97.8059C6.00916 97.7834 6.03228 97.7608 6.06698 97.7382C6.47186 97.4899 6.92301 97.2642 7.36259 97.0724C8.24175 96.6887 9.0631 96.4291 9.41014 96.2034C10.5785 95.5037 10.5901 94.4654 10.3818 93.4158C10.1852 92.3888 9.80344 91.3843 10.0464 90.8765L10.0348 90.899Z" fill="#F06298"/>
<path d="M10.0348 90.899C9.62994 91.2827 8.51942 91.2151 7.43203 91.4182C6.42561 91.6213 5.44234 92.0953 5.15314 93.3368C5.15314 93.2465 5.15311 93.1562 5.16468 93.0659C4.84078 93.5512 3.7534 93.7543 2.75856 94.1042C2.238 94.2735 1.75215 94.4992 1.39355 94.8265C1.20846 94.9958 1.06964 95.1877 0.953957 95.4359C0.838278 95.6729 0.757299 95.9438 0.734163 96.2711C0.711027 96.4742 0.734149 96.7677 0.791989 97.1401C0.838261 97.5125 0.896108 97.9527 0.907676 98.4154C0.942379 99.3408 0.907694 100.436 0.456543 101.271C1.06965 100.695 2.01819 100.232 2.95519 99.8374C3.90377 99.4537 4.74826 99.0926 5.11843 98.8217C5.54645 98.517 5.8125 98.1671 5.97445 97.8059C6.00916 97.7834 6.03228 97.7608 6.06698 97.7382C6.47186 97.4899 6.92301 97.2642 7.36259 97.0724C8.24175 96.6887 9.0631 96.4291 9.41014 96.2034C10.5785 95.5037 10.5901 94.4654 10.3818 93.4158C10.1852 92.3888 9.80344 91.3843 10.0464 90.8765L10.0348 90.899Z" fill="#FFF3E1"/>
<path d="M36.4326 102.772C37.0226 102.196 38.0521 101.869 38.966 101.632C39.903 101.406 40.7822 101.305 41.1639 101.158C42.4364 100.673 42.6562 99.6346 42.6794 98.5737C42.7025 97.5241 42.4943 96.4407 42.8529 95.9893C42.367 96.2827 41.3027 96.0457 40.1922 96.057C39.0817 96.057 37.9596 96.373 37.4738 97.716C37.3234 98.1223 37.2655 98.9913 37.1498 99.9393C37.0573 100.91 36.8491 101.937 36.4442 102.772H36.4326Z" fill="#F06298"/>
<path d="M36.4326 102.772C37.0226 102.196 38.0521 101.869 38.966 101.632C39.903 101.406 40.7822 101.305 41.1639 101.158C42.4364 100.673 42.6562 99.6346 42.6794 98.5737C42.7025 97.5241 42.4943 96.4407 42.8529 95.9893C42.367 96.2827 41.3027 96.0457 40.1922 96.057C39.0817 96.057 37.9596 96.373 37.4738 97.716C37.3234 98.1223 37.2655 98.9913 37.1498 99.9393C37.0573 100.91 36.8491 101.937 36.4442 102.772H36.4326Z" fill="#FFF3E1"/>
<path d="M34.8133 82.4913C34.5588 82.5251 34.3158 82.5816 34.0845 82.6493C33.4367 83.5408 32.7889 84.4099 32.1411 85.2789C32.1179 85.719 32.1295 86.272 32.118 86.8589C32.118 87.8633 32.0254 88.9355 31.6899 89.8496C32.2221 89.1838 33.2169 88.6985 34.1308 88.3373C35.0446 87.9762 35.9238 87.7617 36.294 87.5473C36.8145 87.2426 37.1384 86.8927 37.3351 86.4864L36.3287 82.3784C35.8775 82.4123 35.3454 82.4236 34.8133 82.4913Z" fill="#F06298"/>
<path d="M34.8133 82.4913C34.5588 82.5251 34.3158 82.5816 34.0845 82.6493C33.4367 83.5408 32.7889 84.4099 32.1411 85.2789C32.1179 85.719 32.1295 86.272 32.118 86.8589C32.118 87.8633 32.0254 88.9355 31.6899 89.8496C32.2221 89.1838 33.2169 88.6985 34.1308 88.3373C35.0446 87.9762 35.9238 87.7617 36.294 87.5473C36.8145 87.2426 37.1384 86.8927 37.3351 86.4864L36.3287 82.3784C35.8775 82.4123 35.3454 82.4236 34.8133 82.4913Z" fill="#FFF3E1"/>
<path d="M11.8854 84.2749C11.7466 84.6812 11.7119 85.5389 11.6078 86.4643C11.5268 87.4236 11.388 88.4732 10.96 89.2858C11.5615 88.7328 12.5332 88.3829 13.4355 88.1347C14.118 86.3064 14.7427 84.4555 15.3211 82.5933C15.0666 82.5933 14.8121 82.5707 14.546 82.582C13.4586 82.6159 12.3018 82.9093 11.8854 84.2749Z" fill="#F06298"/>
<path d="M11.8854 84.2749C11.7466 84.6812 11.7119 85.5389 11.6078 86.4643C11.5268 87.4236 11.388 88.4732 10.96 89.2858C11.5615 88.7328 12.5332 88.3829 13.4355 88.1347C14.118 86.3064 14.7427 84.4555 15.3211 82.5933C15.0666 82.5933 14.8121 82.5707 14.546 82.582C13.4586 82.6159 12.3018 82.9093 11.8854 84.2749Z" fill="#FFF3E1"/>
<path d="M4.03076 74.3539C3.93822 74.8392 4.04231 75.3358 4.37779 75.9001C4.57444 76.25 5.21068 76.803 5.82378 77.5253C6.11298 77.8864 6.41376 78.2927 6.66826 78.7216C6.7955 78.936 6.91116 79.1617 7.0037 79.3874C7.09625 79.6132 7.1541 79.8501 7.20037 80.0759C7.23508 79.8727 7.29291 79.6583 7.37389 79.4439C7.44329 79.2294 7.52427 79.015 7.62838 78.7893C7.82504 78.3491 8.07955 77.8977 8.33405 77.4688C8.85461 76.6111 9.30576 75.8324 9.45614 75.4035C9.6875 74.6925 9.58337 74.0831 9.32888 73.5865C9.07438 73.0787 8.66951 72.6724 8.21836 72.3338C7.52428 71.8372 6.77236 71.4874 6.33278 71.1262C6.18239 71.0021 6.06671 70.8779 6.00887 70.7312C6.00887 70.9231 5.93947 71.1488 5.80066 71.3858C5.5346 71.8485 5.07188 72.3902 4.67856 72.9658C4.38937 73.3947 4.10016 73.8574 4.01918 74.3427L4.03076 74.3539Z" fill="#F06298"/>
<path d="M4.03076 74.3539C3.93822 74.8392 4.04231 75.3358 4.37779 75.9001C4.57444 76.25 5.21068 76.803 5.82378 77.5253C6.11298 77.8864 6.41376 78.2927 6.66826 78.7216C6.7955 78.936 6.91116 79.1617 7.0037 79.3874C7.09625 79.6132 7.1541 79.8501 7.20037 80.0759C7.23508 79.8727 7.29291 79.6583 7.37389 79.4439C7.44329 79.2294 7.52427 79.015 7.62838 78.7893C7.82504 78.3491 8.07955 77.8977 8.33405 77.4688C8.85461 76.6111 9.30576 75.8324 9.45614 75.4035C9.6875 74.6925 9.58337 74.0831 9.32888 73.5865C9.07438 73.0787 8.66951 72.6724 8.21836 72.3338C7.52428 71.8372 6.77236 71.4874 6.33278 71.1262C6.18239 71.0021 6.06671 70.8779 6.00887 70.7312C6.00887 70.9231 5.93947 71.1488 5.80066 71.3858C5.5346 71.8485 5.07188 72.3902 4.67856 72.9658C4.38937 73.3947 4.10016 73.8574 4.01918 74.3427L4.03076 74.3539Z" fill="#FFF3E1"/>
<path d="M5.10658 88.3703C5.43049 89.228 5.76595 90.2889 5.604 91.2143C6.02045 90.4807 6.74922 89.7472 7.51271 89.0813C7.70936 88.912 7.89447 88.754 8.07956 88.596C8.25308 88.438 8.41501 88.2913 8.5654 88.1446C8.86616 87.8624 9.10911 87.6142 9.23636 87.4336C9.45615 87.1289 9.59496 86.8241 9.66437 86.5194C9.73378 86.226 9.72219 85.9326 9.68749 85.6504C9.59495 85.0974 9.3289 84.5783 9.01656 84.1268C8.34562 83.2127 7.45487 82.5355 7.4086 81.96C7.26978 82.5243 6.28651 83.0434 5.46519 83.698C5.03717 84.0252 4.64385 84.3864 4.40092 84.8153C4.16956 85.2441 4.10018 85.752 4.25057 86.384C4.33154 86.7677 4.78268 87.49 5.10658 88.359V88.3703Z" fill="#F06298"/>
<path d="M5.10658 88.3703C5.43049 89.228 5.76595 90.2889 5.604 91.2143C6.02045 90.4807 6.74922 89.7472 7.51271 89.0813C7.70936 88.912 7.89447 88.754 8.07956 88.596C8.25308 88.438 8.41501 88.2913 8.5654 88.1446C8.86616 87.8624 9.10911 87.6142 9.23636 87.4336C9.45615 87.1289 9.59496 86.8241 9.66437 86.5194C9.73378 86.226 9.72219 85.9326 9.68749 85.6504C9.59495 85.0974 9.3289 84.5783 9.01656 84.1268C8.34562 83.2127 7.45487 82.5355 7.4086 81.96C7.26978 82.5243 6.28651 83.0434 5.46519 83.698C5.03717 84.0252 4.64385 84.3864 4.40092 84.8153C4.16956 85.2441 4.10018 85.752 4.25057 86.384C4.33154 86.7677 4.78268 87.49 5.10658 88.359V88.3703Z" fill="#FFF3E1"/>
<path d="M60.1354 85.1768C60.4362 84.1724 60.5172 83.0664 60.9799 82.7165C60.4362 82.8858 59.4645 82.3892 58.4002 82.1184C57.336 81.8475 56.1792 81.8475 55.3463 83.0099C54.8257 83.7097 54.2242 86.2264 52.917 87.5468C54.4208 86.802 57.1278 87.3663 57.9606 87.2873C59.3372 87.1406 59.8346 86.1926 60.147 85.1655L60.1354 85.1768Z" fill="#F06298"/>
<path d="M60.1354 85.1768C60.4362 84.1724 60.5172 83.0664 60.9799 82.7165C60.4362 82.8858 59.4645 82.3892 58.4002 82.1184C57.336 81.8475 56.1792 81.8475 55.3463 83.0099C54.8257 83.7097 54.2242 86.2264 52.917 87.5468C54.4208 86.802 57.1278 87.3663 57.9606 87.2873C59.3372 87.1406 59.8346 86.1926 60.147 85.1655L60.1354 85.1768Z" fill="#FFF3E1"/>
<path d="M70.9634 26.2086C71.5418 27.0099 72.0161 27.9466 72.3053 29.03C72.7796 30.7568 71.9235 32.0095 71.4261 34.1425C70.8477 36.5803 70.894 39.0067 71.322 40.9253L74.2487 35.9483L74.2834 35.8805L77.6959 30.0571L77.7769 29.9216L78.5751 28.5673L71.8426 24.6963L70.9634 26.1973V26.2086Z" fill="#F6E7F1"/>
<path d="M70.2461 25.3391C70.5006 25.6099 70.7435 25.8921 70.9633 26.1968L71.8425 24.6958L78.575 28.5668C78.8295 28.7135 79.1534 28.6232 79.3038 28.3637C79.4542 28.1041 79.3732 27.7768 79.1187 27.6301L71.935 23.4995C71.6805 23.3528 71.3566 23.443 71.2062 23.7026L70.5469 24.8312L70.2577 25.3278L70.2461 25.3391Z" fill="#210603"/>
<path d="M92.2599 63.3391C92.3062 63.4971 92.4219 63.6438 92.5838 63.7115C92.5954 63.7115 92.607 63.7115 92.6301 63.7228L92.7111 63.7454L95.1982 64.5467L106.836 68.2935C107.136 68.3951 107.472 68.2259 107.576 67.9324C107.68 67.639 107.507 67.3117 107.206 67.2101L96.5285 63.7792L93.0003 62.6393C92.8383 62.5829 92.6648 62.6168 92.526 62.6958C92.445 62.7409 92.3872 62.7974 92.3409 62.8764C92.3178 62.9215 92.2831 62.9554 92.2599 63.0005C92.2252 63.1134 92.2252 63.2262 92.2599 63.3391Z" fill="#210603"/>
<path d="M16.5937 68.136L18.2479 70.8897C18.4446 69.8401 18.6181 68.8018 18.7916 67.7523L16.3276 67.6958L16.5937 68.1472V68.136Z" fill="#F6E7F1"/>
<path d="M23.7426 80.065L27.2824 85.9675C27.641 86.5995 28.5201 86.7688 29.0291 86.3399L35.5072 78.1577C35.5997 78.0336 35.7385 77.9658 35.8889 77.9433L26.114 69.3322L25.4199 68.7227L24.4598 67.8763L19.9483 67.7634C19.7053 69.2983 19.4393 70.8332 19.127 72.3681L20.9431 75.3927L23.7426 80.0537V80.065Z" fill="#F6E7F1"/>
<path d="M45.4792 74.4554L45.0627 74.241L37.4857 77.796C37.2196 78.1797 36.9536 78.5747 36.6875 78.9584L39.2209 89.3075C39.2556 89.4204 39.2209 89.5445 39.1862 89.6461C39.5795 89.8267 40.0538 89.8154 40.3893 89.5219L53.4726 78.5409L51.3904 77.4687L45.4907 74.4554H45.4792Z" fill="#F6E7F1"/>
<path d="M35.5074 78.1573L29.0293 86.3395L28.9021 86.4975C28.7054 86.7458 28.7517 87.1069 29.0062 87.2988C29.0293 87.3101 29.0409 87.3214 29.064 87.3327C31.3545 84.4096 33.6681 81.2158 35.9123 77.9429C35.9123 77.9429 35.9007 77.9429 35.8891 77.9429C35.7387 77.9654 35.5999 78.0332 35.5074 78.1573Z" fill="#210603"/>
<path d="M39.2205 89.3078L36.6871 78.9587C36.3863 79.3876 36.0972 79.8052 35.7964 80.234L36.317 82.367L37.3234 86.4751L38.0869 89.5674C38.1678 89.8721 38.4802 90.064 38.7925 89.985C38.9891 89.9398 39.128 89.8044 39.1858 89.6351C39.2321 89.5335 39.2552 89.4207 39.2205 89.2966V89.3078Z" fill="#210603"/>
<path d="M20.2375 -16.463C22.3892 -15.6843 23.4534 -13.2691 22.609 -11.0797L20.6308 -5.92205C19.7864 -3.72131 17.3571 -2.58144 15.2055 -3.36016L11.3996 -4.73703C11.3996 -4.73703 11.3996 -4.73703 11.388 -4.73703L8.86621 -3.72131L18.3057 -0.31299C19.4509 0.104586 20.7812 -0.606426 21.2787 -1.9043L25.8249 -13.7544C26.3223 -15.041 25.7901 -16.4291 24.6449 -16.8354L20.3648 -18.3816L19.2774 -16.8242L20.2375 -16.4743V-16.463Z" fill="#F6891F"/>
<path d="M-10.799 -10.7981C-11.8864 -8.74408 -12.8697 -6.11449 -13.7373 -2.94317L-10.6718 -0.595716L-9.88515 0.00243092L-5.62815 3.25275L-0.931553 6.85294L-0.0639553 7.5188L4.81773 1.15359L-10.799 -10.7981Z" fill="#F6E7F1"/>
<path d="M-1.10521 -4.74931L-7.43289 -9.59094L-9.19125 -10.934L-10.2555 -11.7578C-10.4406 -11.4531 -10.6141 -11.1371 -10.7876 -10.7985L4.82916 1.15318L-0.0525227 7.51838C-0.23761 7.75538 -0.191354 8.09396 0.0400057 8.27453C0.271365 8.4551 0.60683 8.39867 0.791917 8.16166L5.9975 1.36761C6.18259 1.13061 6.13634 0.792033 5.90498 0.611461L3.24432 -1.43129L-1.09367 -4.74931H-1.10521Z" fill="#210603"/>
<path d="M28.3119 58.6102C28.6242 58.6892 28.9597 58.7682 29.3183 58.8359C32.3144 59.3889 37.0226 59.434 41.9505 58.1926C43.4543 57.8089 44.9813 57.3123 46.4851 56.669C47.2139 54.9761 48.0931 53.0801 49.2499 51.9741C48.9376 51.9289 48.6368 51.8387 48.3476 51.7145C48.2782 51.6919 48.2203 51.6581 48.1509 51.6242L50.129 47.7419C50.1175 47.2453 50.1985 46.6697 50.5224 46.2183C50.6612 46.0152 50.881 45.8233 51.1817 45.6766L52.8938 42.3247C52.6971 42.0764 52.4774 41.8507 52.246 41.6137C52.1072 41.4783 51.9683 41.3316 51.8295 41.1848C51.1123 41.4218 50.3141 41.467 49.6316 40.9027C49.2846 40.6206 48.7178 39.8418 49.4812 38.9051C49.7126 38.6342 50.2332 38.2618 50.9388 37.8668C51.0429 36.4335 51.3668 34.9099 50.8694 33.7362C50.1869 32.0997 48.5327 31.8515 47.5841 30.5423C46.6934 29.3234 46.1381 27.4838 46.3463 25.2718C44.2063 24.0078 42.4364 22.8567 40.7474 22.8792C37.8439 22.9131 35.1717 24.0868 32.9391 25.4073C33.4712 25.5314 33.9455 25.7458 34.3619 26.0393C35.5303 26.8744 35.7964 28.082 35.8079 28.1271C35.8658 28.4093 35.6807 28.7253 35.403 28.8269C35.1138 28.9284 34.8362 28.7817 34.7784 28.4996C34.7784 28.477 34.5586 27.5854 33.691 26.9647C33.101 26.5358 32.3375 26.3327 31.4121 26.344C30.556 26.9083 29.7926 27.45 29.1332 27.9014C29.11 27.9466 29.0869 27.9917 29.0638 28.0368C25.2348 34.8196 19.3814 47.8773 23.6037 54.9648C23.6037 54.9648 23.6268 54.9648 23.6384 54.9761C23.8003 55.0777 23.8813 55.247 23.8929 55.4163C24.5754 56.4094 25.4662 57.2671 26.623 57.9556C27.0163 58.1926 27.5831 58.407 28.3003 58.5876L28.3119 58.6102ZM38.5495 38.465C38.6652 38.3972 38.8156 38.3747 38.9544 38.4311C39.2667 38.5327 39.475 38.8825 39.4171 39.2098C39.3709 39.492 39.3014 40.3948 39.5559 40.8801C39.6253 41.0043 39.8336 41.388 40.8053 41.072C41.0945 40.9817 41.4299 41.1735 41.5456 41.5121C41.6613 41.8507 41.5225 42.1893 41.2217 42.2796C39.6022 42.7874 38.8734 41.9636 38.5842 41.4331C38.0405 40.4174 38.2603 39.018 38.2835 38.86C38.3182 38.6907 38.4107 38.5552 38.5379 38.4762L38.5495 38.465ZM46.6818 38.9728C46.5661 38.9728 46.4505 38.939 46.3579 38.8825C46.2191 38.781 46.1381 38.623 46.1381 38.4311C46.1381 38.3634 46.1381 36.8285 44.6574 35.7676C44.0906 35.3614 43.3618 35.0679 42.4942 34.9099C42.1934 34.8535 42.0199 34.5601 42.0893 34.2553C42.1587 33.9506 42.4595 33.7475 42.7603 33.8039C43.7782 33.9958 44.6343 34.3343 45.3283 34.8309C47.2833 36.2304 47.2486 38.307 47.237 38.386C47.237 38.702 46.971 38.9615 46.6702 38.9615L46.6818 38.9728ZM29.1563 33.2622C28.9365 32.269 29.5496 31.0953 29.6191 30.9712C29.7 30.8245 29.8273 30.7342 29.9777 30.689C30.1049 30.6552 30.2437 30.6665 30.371 30.7455C30.637 30.8922 30.7296 31.242 30.5792 31.5129C30.4519 31.7499 30.128 32.506 30.2322 32.9913C30.2553 33.1155 30.3478 33.4879 31.3542 33.4202C31.655 33.3976 31.9095 33.6459 31.9211 33.9506C31.9326 34.2666 31.7013 34.5375 31.4005 34.5488C29.7347 34.6503 29.2836 33.7813 29.1679 33.2622H29.1563ZM28.1731 39.7967C28.3813 39.5033 28.7052 39.3114 29.1448 39.2211C30.9956 38.8374 32.6151 37.5395 33.691 36.6818C34.1074 36.3545 34.4313 36.0949 34.6974 35.9369C34.975 35.7789 35.2989 35.8692 35.4493 36.1288C35.5881 36.3997 35.484 36.7382 35.2064 36.8962C35.0097 37.0091 34.6974 37.2574 34.3388 37.5508C33.1704 38.4762 31.4121 39.8757 29.2952 40.3158C29.0985 40.361 29.0522 40.4174 29.0522 40.4174C28.8902 40.6431 29.5728 41.9071 30.8106 43.126C31.0188 43.3404 31.0188 43.6903 30.799 43.9273C30.6023 44.1417 30.29 44.1643 30.0818 44.0176C30.0586 44.0063 30.0355 43.9837 30.0239 43.9611C29.1795 43.126 27.2939 41.0381 28.1846 39.7967H28.1731ZM27.5947 49.1414C27.6409 48.7802 28.1499 48.6448 28.4507 48.9269C29.5843 50.0104 31.8169 50.7439 34.1884 50.1796C34.6742 50.0668 35.1485 50.5521 34.9287 50.9584C34.2462 52.1885 32.5573 52.7641 30.8684 52.4368C28.5316 51.9854 27.4674 50.2248 27.5947 49.1414Z" fill="#FFF3E1"/>
<path d="M45.3402 34.8306C44.6461 34.334 43.7785 33.9842 42.7721 33.8036C42.4713 33.7472 42.1706 33.9503 42.1012 34.255C42.0318 34.5598 42.2053 34.8532 42.506 34.9096C43.3736 35.0676 44.1024 35.3611 44.6692 35.7673C46.1499 36.8282 46.15 38.3631 46.15 38.4308C46.15 38.6227 46.2309 38.7807 46.3697 38.8822C46.4623 38.9499 46.5664 38.9838 46.6936 38.9725C46.9944 38.9725 47.2489 38.7017 47.2605 38.3969C47.2605 38.3067 47.3068 36.2301 45.3518 34.8419L45.3402 34.8306Z" fill="#210603"/>
<path d="M33.6911 26.9764C34.5587 27.5971 34.7785 28.4887 34.7785 28.5113C34.8364 28.7934 35.114 28.9401 35.4032 28.8385C35.6924 28.737 35.8659 28.421 35.8081 28.1388C35.8081 28.0824 35.5305 26.8748 34.3621 26.0509C33.9457 25.7575 33.4714 25.5431 32.9392 25.4189C32.4071 25.7349 31.8981 26.051 31.4238 26.3782C32.3377 26.367 33.1012 26.5701 33.7027 26.999L33.6911 26.9764Z" fill="#210603"/>
<path d="M31.3892 34.5482C31.6899 34.5369 31.9329 34.266 31.9097 33.95C31.8981 33.634 31.6437 33.397 31.3429 33.4196C30.3365 33.476 30.2555 33.1149 30.2208 32.9907C30.1167 32.5167 30.4406 31.7493 30.5679 31.5123C30.7182 31.2414 30.6257 30.8916 30.3596 30.7448C30.2324 30.6771 30.0936 30.6545 29.9663 30.6884C29.8275 30.7223 29.6887 30.8238 29.6077 30.9706C29.5383 31.106 28.9252 32.2684 29.145 33.2616C29.2607 33.7807 29.7118 34.6497 31.3776 34.5482H31.3892Z" fill="#210603"/>
<path d="M41.222 42.2799C41.5111 42.1896 41.6615 41.8397 41.5459 41.5124C41.4302 41.1738 41.0947 40.982 40.8055 41.0723C39.8338 41.377 39.6256 41.0045 39.5562 40.8804C39.2901 40.3951 39.3711 39.4923 39.4173 39.2101C39.4752 38.8828 39.267 38.533 38.9546 38.4314C38.8043 38.3862 38.6654 38.3975 38.5498 38.4652C38.4225 38.5442 38.3184 38.6797 38.2953 38.849C38.2721 39.007 38.0523 40.4064 38.596 41.4221C38.8852 41.9526 39.614 42.7764 41.2335 42.2686L41.222 42.2799Z" fill="#210603"/>
<path d="M30.0704 44.0179C30.2902 44.1759 30.5909 44.142 30.7876 43.9276C31.0074 43.7018 31.0074 43.3407 30.7992 43.1263C29.5614 41.9074 28.8789 40.6434 29.0409 40.4177C29.0409 40.4177 29.0871 40.3612 29.2838 40.3161C31.4007 39.876 33.1591 38.4765 34.3274 37.5511C34.686 37.2689 34.9984 37.0206 35.195 36.8965C35.4611 36.7385 35.5768 36.3886 35.438 36.1291C35.2991 35.8582 34.9637 35.7792 34.686 35.9372C34.42 36.0952 34.0845 36.3548 33.6796 36.6821C32.6038 37.5398 30.9843 38.8377 29.1334 39.2214C28.6938 39.3117 28.3699 39.5035 28.1617 39.797C27.271 41.0384 29.145 43.1263 30.001 43.9614C30.0241 43.984 30.0357 43.9953 30.0589 44.0179H30.0704Z" fill="#210603"/>
<path d="M55.0686 18.2752C62.7729 23.1394 67.6199 35.0459 61.8706 44.0182C60.841 45.6207 59.476 47.1556 57.7061 48.6454C58.4118 44.684 57.9953 41.8287 57.2318 38.3075C56.2948 38.8267 55.0223 39.5264 53.2987 40.497C52.9285 40.7114 52.3964 41.0048 51.8296 41.1967C51.9684 41.3434 52.1072 41.4901 52.246 41.6256C52.4774 41.8513 52.6972 42.0883 52.8938 42.3366C55.5082 43.6344 55.4388 46.8283 54.6406 48.6115C54.0506 49.9319 53.1136 50.8912 52.0609 51.4555C50.6381 56.0263 46.6818 63.4524 41.7886 71.2283C42.6562 71.4653 43.6626 71.2283 44.6806 70.822C45.0392 70.6753 45.4094 70.506 45.768 70.3254C46.5661 69.9304 47.3759 69.4903 48.1394 69.3436C50.9388 68.8131 52.674 71.77 54.8488 72.9325C55.5313 73.2936 56.2485 73.5532 57.0467 73.6209C59.0249 73.7789 61.6045 72.3569 63.1893 69.3661C64.589 66.7365 65.2021 63.0686 67.0877 61.4999C68.2677 60.518 69.3897 60.9017 70.4077 61.2065C71.7727 61.624 73.7162 61.4999 74.711 58.4866C75.4629 56.1956 75.463 53.8255 75.1391 51.8167C75.0002 50.9364 74.8036 50.1351 74.5722 49.4354C73.6121 46.4785 72.0388 44.21 71.3216 41.0048C71.3216 40.971 71.3216 40.9371 71.2985 40.9146C70.882 38.996 70.8358 36.5695 71.4026 34.1318C71.9 32.01 72.7561 30.7573 72.2818 29.0193C71.981 27.9246 71.5183 26.9991 70.9399 26.1978C70.7201 25.8931 70.4772 25.5997 70.2227 25.3401C70.026 25.137 69.8294 24.9338 69.6096 24.7533C68.4065 23.7037 67.0068 23.0265 65.6649 22.6654C62.5068 21.8189 58.9786 21.6384 56.8385 18.6815C56.156 17.7335 55.6239 16.5146 54.8025 15.8149C54.71 15.7359 54.6059 15.6569 54.5018 15.5892C53.5763 14.991 52.3964 15.3522 51.2165 16.2776C52.5121 16.8306 53.7961 17.4965 55.0339 18.2752H55.0686Z" fill="#5B2326"/>
<path d="M48.2205 57.482C49.2732 55.3716 50.1176 53.4868 50.6729 51.9407C50.1639 52.031 49.5508 51.8617 49.0881 52.0084C48.556 52.1777 47.966 52.8661 47.538 53.216C46.4506 54.1076 45.3748 55.0217 44.3105 55.9584C43.4429 56.7146 42.5753 57.5046 42.0432 58.509C41.326 59.8295 41.2566 61.3869 40.8401 62.8315C40.5046 63.9939 39.9378 65.0774 39.6718 66.2511C39.4982 66.996 39.4635 67.7973 39.6718 68.5309C39.8569 69.1854 40.2733 70.0657 40.7476 70.5623C43.709 65.8448 46.3118 61.2853 48.2089 57.4707L48.2205 57.482Z" fill="#5B2326"/>
<path d="M47.5843 30.5537C48.5328 31.8629 50.1986 32.1112 50.8696 33.7476C51.3554 34.9327 51.0431 36.4449 50.939 37.8782C52.4081 37.0544 54.6639 36.0725 56.6188 35.4744C56.1561 32.2241 57.3476 28.7254 56.9312 28.4659C56.908 28.4659 56.8965 28.4546 56.8733 28.4546C52.3734 28.669 49.065 26.8858 46.3465 25.272C46.1383 27.4953 46.6935 29.3236 47.5843 30.5425V30.5537Z" fill="#5B2326"/>
<path d="M50.9852 49.153C50.8117 49.2094 50.6266 49.1868 50.4993 49.0853C50.4068 49.0175 50.3374 48.9273 50.3027 48.8031C50.2795 48.7128 50.1638 48.2727 50.1407 47.731L48.1626 51.6133C48.232 51.6471 48.2898 51.681 48.3592 51.7036C48.6484 51.8277 48.9608 51.918 49.2615 51.9631C49.7243 52.0421 50.1985 52.0309 50.6728 51.9406C51.3206 50.1687 51.5983 48.837 51.4363 48.0921C51.3785 47.8438 51.2975 47.7987 51.2512 47.7874C51.2744 48.0469 51.3091 48.284 51.3554 48.4307C51.4363 48.7241 51.2744 49.0401 50.9736 49.153H50.9852Z" fill="#FFF3E1"/>
<path d="M54.6522 48.5999C55.4504 46.828 55.5198 43.6228 52.9054 42.325L51.1934 45.6881C51.5751 45.5075 52.1188 45.4286 52.8591 45.5979C53.1483 45.6656 53.3219 45.9703 53.2409 46.2637C53.1599 46.5684 52.8476 46.7603 52.5584 46.6926C52.2345 46.6249 51.8412 46.5797 51.5867 46.6926C51.5982 46.6926 51.6098 46.6926 51.6214 46.6926C51.9684 46.8054 52.408 47.0989 52.5815 47.8324C52.755 48.6224 52.57 49.8526 52.0725 51.4213C53.1252 50.857 54.0622 49.8977 54.6522 48.5773V48.5999Z" fill="#FFF3E1"/>
<path d="M53.2409 46.2633C53.3219 45.9585 53.1484 45.6651 52.8592 45.5974C52.1073 45.4281 51.5751 45.5071 51.1934 45.6877C50.8926 45.8231 50.6728 46.0263 50.534 46.2294C50.2101 46.6808 50.1291 47.2564 50.1407 47.753C50.1523 48.2947 50.2795 48.7349 50.3027 48.8252C50.3374 48.938 50.4068 49.0396 50.4993 49.1073C50.6381 49.2089 50.8117 49.2314 50.9852 49.175C51.2744 49.0734 51.4479 48.7461 51.3669 48.4527C51.3206 48.306 51.2744 48.069 51.2628 47.8094C50.962 47.7078 50.7885 47.3806 50.8926 47.0871C50.9967 46.805 51.2975 46.647 51.5983 46.726C51.8528 46.6018 52.2461 46.647 52.57 46.726C52.8592 46.7937 53.1715 46.6018 53.2525 46.2971L53.2409 46.2633Z" fill="#210603"/>
<path d="M30.8689 52.4479C32.5578 52.7752 34.2467 52.1996 34.9292 50.9695C35.149 50.5745 34.6747 50.0779 34.1889 50.1907C31.8174 50.7438 29.5964 50.0215 28.4512 48.938C28.162 48.6559 27.6414 48.7913 27.5951 49.1525C27.4679 50.2359 28.5321 51.9965 30.8689 52.4479Z" fill="#F06298"/>
<path d="M28.879 28.0924C28.9715 28.0359 29.0525 27.9795 29.145 27.9118C29.8044 27.4603 30.5679 26.9186 31.4239 26.3543C31.9098 26.0383 32.4072 25.711 32.9393 25.395C35.172 24.0746 37.8326 22.9009 40.7477 22.867C42.4482 22.8445 44.2181 23.9956 46.3466 25.2596C49.0651 26.8622 52.3735 28.6566 56.8735 28.4422C56.8966 28.4422 56.9197 28.4422 56.9313 28.4535C57.3477 28.7131 56.1563 32.2117 56.619 35.462C56.6537 35.699 56.6999 35.9473 56.7462 36.1843C56.9082 36.9179 57.0701 37.6176 57.2205 38.2948C57.984 41.8046 58.4004 44.6712 57.6948 48.6326C59.4647 47.1428 60.8413 45.608 61.8593 44.0054C67.6085 35.0331 62.7616 23.1266 55.0573 18.2624C53.8195 17.4837 52.5355 16.8178 51.2399 16.2648C43.6166 13.0032 35.519 13.5562 33.4946 16.705C32.8931 17.6417 32.4998 18.7477 31.8982 19.6844C30.672 21.5917 28.5088 22.9686 27.433 24.6615C26.8893 25.5192 25.5127 28.2052 26.6695 28.9388C26.7273 28.9726 26.7852 28.9952 26.8546 28.9952C27.2826 29.0629 27.9651 28.6792 28.8674 28.0698L28.879 28.0924Z" fill="#5B2326"/>
<path d="M-14.7439 -3.72195C-15.0562 -2.61594 -15.357 -1.45349 -15.6346 -0.234616C-16.2014 2.20312 -16.6989 4.84401 -17.1385 7.63161C-17.4277 9.48248 -17.6937 11.3898 -17.9251 13.3648C-18.8042 20.7796 -19.3132 28.928 -19.4983 37.1102C-19.4983 37.4149 -19.5099 37.7196 -19.5215 38.013C-19.5793 40.8458 -19.6024 43.6898 -19.5909 46.5C-19.5909 47.29 -19.5909 48.0687 -19.5677 48.8474C-19.5446 50.5967 -19.5099 52.3347 -19.4636 54.0502C-19.0356 69.7375 -17.5665 83.5175 -15.5883 89.6344C-15.3686 90.3115 -15.1141 91.0339 -14.8249 91.8013C-14.7902 91.8916 -14.7555 91.9819 -14.7208 92.0834C-13.2053 95.9658 -10.6951 100.728 -6.76198 103.877C-6.43808 104.137 -6.10261 104.385 -5.75557 104.622C-4.85327 105.243 -3.89312 105.773 -2.852 106.191C-2.19263 106.462 -1.51012 106.676 -0.792906 106.845C-0.630953 106.89 -0.457443 106.924 -0.29549 106.958C0.0631161 107.037 0.433306 107.082 0.80348 107.139C1.32404 107.206 1.85616 107.24 2.38829 107.24C8.02189 107.331 14.257 104.283 20.9549 98.1439C24.2633 95.108 28.1849 90.5034 32.118 85.2781C32.7658 84.4204 33.4136 83.54 34.0614 82.6485C34.6398 81.8585 35.2066 81.0459 35.785 80.2333C36.0858 79.8157 36.375 79.3869 36.6758 78.958C36.9418 78.5743 37.2079 78.1793 37.474 77.7956C38.9662 75.6174 40.4122 73.4054 41.7888 71.2159C46.682 63.44 50.6383 56.0026 52.0611 51.4432C52.547 49.8744 52.7437 48.633 52.5701 47.8543C52.4082 47.1094 51.957 46.8273 51.61 46.7144C51.5984 46.7144 51.5869 46.7144 51.5753 46.7144C51.2745 46.6354 50.9738 46.7934 50.8697 47.0756C50.7655 47.369 50.9275 47.6963 51.2398 47.7979C51.2745 47.8091 51.3671 47.8543 51.4249 48.1026C51.5869 48.8474 51.3092 50.1792 50.6614 51.951C49.0882 56.2848 45.3401 63.2481 40.7361 70.5839C39.2091 73.0329 37.5781 75.5158 35.9007 77.9536C33.6681 81.2264 31.3429 84.4203 29.0524 87.3434C25.9291 91.3386 22.8636 94.8372 20.1567 97.3088C15.2635 101.789 10.671 104.566 6.41395 105.626C9.72239 99.9835 12.5218 94.0133 14.766 87.8512C15.3907 86.1245 15.9806 84.3865 16.5128 82.6259C17.5539 79.2514 18.4215 75.8205 19.1156 72.3784C19.4279 70.8435 19.694 69.3086 19.9369 67.7738C20.0063 67.2998 20.0873 66.8145 20.1567 66.3405C20.3418 65.0087 20.7235 63.3723 21.2325 61.7133C21.9035 59.5351 22.7942 57.3344 23.8122 55.7769C23.8816 55.6753 23.9047 55.5512 23.8931 55.4384C23.8816 55.2578 23.8006 55.0998 23.6386 54.9982C23.6386 54.9982 23.6155 54.9982 23.6039 54.9869C23.3379 54.8402 23.0024 54.9192 22.8289 55.1788C21.8109 56.7475 20.9086 58.9257 20.2145 61.1038C19.6361 62.9321 19.2081 64.7491 19.0115 66.205C18.942 66.7242 18.8495 67.2433 18.7685 67.7625C18.6066 68.812 18.4215 69.8616 18.2248 70.8999C17.4845 74.8387 16.5012 78.7549 15.3097 82.6033C14.7313 84.4655 14.1067 86.3164 13.4241 88.1447C11.1337 94.3293 8.27639 100.311 4.88697 105.942C4.70189 105.976 4.51678 105.999 4.3317 106.021C3.02452 106.168 1.76363 106.157 0.52586 105.965C0.329205 105.931 0.132538 105.897 -0.0641174 105.863C-0.249205 105.83 -0.422714 105.784 -0.596233 105.739C-2.23889 105.333 -3.73117 104.633 -5.06149 103.73C-5.2003 103.64 -5.32755 103.539 -5.4548 103.448C-5.80184 103.2 -6.12572 102.94 -6.44962 102.658C-9.98942 99.6336 -12.2915 95.187 -13.6912 91.553C-13.992 90.763 -14.258 90.0181 -14.4778 89.341C-14.4778 89.3297 -14.4778 89.3184 -14.4894 89.3071C-16.5022 83.0886 -17.9251 69.4779 -18.33 54.2421C-18.3762 52.7298 -18.3993 51.1949 -18.4225 49.6487C-18.4225 48.8361 -18.4456 48.0123 -18.4456 47.1997C-18.4688 43.5657 -18.4341 39.8865 -18.33 36.2525C-18.33 36.1622 -18.33 36.0832 -18.33 36.0042C-18.087 27.3592 -17.5317 19.572 -16.6873 12.8118C-16.4328 10.7803 -16.1667 8.85047 -15.866 7.01088C-15.4495 4.42643 -14.9752 2.04512 -14.4663 -0.144327C-14.2349 -1.10362 -14.0035 -2.02907 -13.7606 -2.90937C-12.8814 -6.0694 -11.8981 -8.71027 -10.8223 -10.7643C-10.6488 -11.1029 -10.4637 -11.4189 -10.2902 -11.7236C-9.85062 -12.4459 -9.41105 -13.0892 -8.93677 -13.6309C-8.85579 -13.7325 -8.76325 -13.834 -8.68227 -13.9243C-8.52032 -14.0936 -8.49716 -14.3419 -8.58971 -14.5338C-8.62441 -14.6015 -8.67068 -14.6692 -8.72852 -14.7256C-8.97144 -14.9401 -9.34164 -14.9175 -9.54987 -14.6805C-10.1977 -13.9808 -10.7992 -13.1343 -11.3776 -12.1525C-11.4817 -11.9832 -11.5743 -11.8026 -11.6784 -11.622C-11.8056 -11.3963 -11.9213 -11.1706 -12.037 -10.9336C-13.0665 -8.91343 -13.9804 -6.4644 -14.7786 -3.66552L-14.7439 -3.72195Z" fill="#210603"/>
<path d="M35.924 59.5245C35.7042 59.4794 35.5191 59.3665 35.4381 59.1408C35.3919 59.0279 35.3456 58.7232 35.7273 58.4636C36.4214 58.0009 41.1064 56.5789 42.1938 57.4366C42.483 57.6623 42.564 58.0122 42.402 58.3733L42.3211 58.5765L42.1128 58.6442C40.5049 59.1521 39.082 59.4681 36.5718 59.5696C36.3751 59.5696 36.1322 59.5809 35.924 59.5358V59.5245ZM40.3777 58.1476C39.8571 58.2153 39.244 58.3169 38.654 58.4524C39.2903 58.3734 39.8455 58.2718 40.3777 58.1476Z" fill="#210603"/>
<path d="M50.9391 37.8787C50.2334 38.2737 49.7128 38.6349 49.4815 38.917C48.7064 39.8537 49.2848 40.6325 49.6319 40.9146C50.3028 41.4789 51.101 41.4225 51.8298 41.1968C52.3966 41.0162 52.9288 40.7115 53.2989 40.497C55.0226 39.5377 56.295 38.838 57.232 38.3076C57.0817 37.6304 56.9313 36.9307 56.7578 36.1971C56.6999 35.9601 56.6652 35.7231 56.6305 35.4749C54.6755 36.073 52.4198 37.0436 50.9506 37.8787H50.9391ZM51.1704 40.1585C51.0316 40.2262 50.8812 40.2262 50.754 40.181C50.6267 40.1359 50.5111 40.0343 50.4417 39.8989C50.3144 39.628 50.4416 39.2894 50.7193 39.1653L53.1254 38.0142C53.4031 37.8787 53.727 38.0029 53.8426 38.2737C53.9699 38.5446 53.8426 38.8832 53.565 39.0073L51.1589 40.1585H51.1704Z" fill="#F4B236"/>
<path d="M53.5767 39.0073C53.8543 38.8719 53.9815 38.5446 53.8543 38.2737C53.727 38.0029 53.4031 37.8787 53.1371 38.0142L50.7309 39.1653C50.4533 39.3007 50.326 39.628 50.4533 39.8989C50.5111 40.0343 50.6268 40.1359 50.7656 40.1811C50.8929 40.2262 51.0433 40.2262 51.1821 40.1585L53.5882 39.0073H53.5767Z" fill="#210603"/>
</g>
</g>
<defs>
<clipPath id="clip0_5459_2704">
<rect width="96" height="96" fill="white"/>
</clipPath>
</defs>
</svg>
