<svg width="214" height="72" viewBox="0 0 214 72" fill="none" xmlns="http://www.w3.org/2000/svg">
<path d="M31.0544 70.2445H17.0395V17.6674L4.89327 27.2655L0.0517578 15.459L19.078 1.44409H31.0544V70.2445Z" fill="#FF008C"/>
<path d="M37.0542 35.8442C37.0542 28.2846 38.1584 21.9142 40.3668 16.5631C44.7836 5.94572 53.1076 0 64.3196 0C70.0104 0 74.852 1.44396 79.014 4.24694C87.1681 10.0228 91.7548 20.81 91.7548 35.8442C91.7548 43.4037 90.6506 49.7742 88.4422 55.1253C84.0254 65.8276 75.6164 71.6884 64.3196 71.6884C58.7136 71.6884 53.8721 70.2444 49.795 67.3565C41.6409 61.6656 37.0542 50.7934 37.0542 35.8442ZM51.6637 35.8442C51.6637 50.3687 56.1654 58.5229 64.3196 58.5229C72.5586 58.5229 77.1453 50.1988 77.1453 35.9291C77.1453 21.4046 72.4737 13.1655 64.3196 13.1655C56.1654 13.1655 51.6637 21.3196 51.6637 35.8442Z" fill="#FF008C"/>
<path d="M213.948 36.9005L212.078 42.0952C207.957 39.5325 203.109 37.42 199.195 36.104V51.4802H193.724V21.8013H199.195V30.563C204.529 32.2945 209.862 34.5456 213.948 36.9005Z" fill="#FF008C"/>
<path d="M175.636 28.0002L173.316 32.6754C169.853 30.5629 166.528 29.3162 162.58 28.1041L164.831 23.6021C168.744 24.7103 172.208 26.1994 175.636 28.0002ZM163.792 50.7876L163.342 45.3505C168.156 44.6925 172.935 43.2726 176.952 40.5367C181.073 37.7316 184.328 32.7447 186.06 26.5457L190.32 30.2512C188.415 36.1039 185.125 41.1947 180.796 44.5886C176.536 47.9132 169.818 50.1642 163.792 50.7876Z" fill="#FF008C"/>
<path d="M156.247 21.1431L160.576 24.2945C157.598 27.5152 154.654 30.1818 151.503 32.4675V51.5493H145.997V35.9306C142.776 37.6968 139.244 39.2898 135.815 40.6058L132.213 36.3116C142.014 33.0562 150.36 28.1386 156.247 21.1431Z" fill="#FF008C"/>
<path d="M129.122 27.8271V32.1906H117.832V51.4109H112.499V32.1906H101.209V27.3422H112.499V21.9051H117.832V27.3422H124.966C123.962 26.615 123.339 25.4375 123.339 24.1215C123.339 21.9051 125.174 20.1389 127.46 20.1389C129.746 20.1389 131.546 21.9051 131.546 24.1215C131.546 25.7492 130.542 27.1691 129.122 27.8271ZM127.46 22.1475C126.352 22.1475 125.451 23.0826 125.451 24.1215C125.451 25.2643 126.317 26.1301 127.46 26.1301C128.568 26.1301 129.468 25.2297 129.468 24.1215C129.468 23.0826 128.568 22.1475 127.46 22.1475ZM120.915 35.6883L125.798 34.5455C126.767 38.8744 128.499 43.5843 130.438 46.6664L125.521 48.9175C123.304 45.489 121.78 40.4675 120.915 35.6883ZM104.638 49.056L99.7549 47.0474C102.11 43.9652 103.564 39.4978 104.361 34.684L109.278 35.6883C108.482 40.883 107.062 45.8007 104.638 49.056Z" fill="#FF008C"/>
</svg>
