<svg width="151" height="42" viewBox="0 0 151 42" fill="none" xmlns="http://www.w3.org/2000/svg">
<path d="M24.8774 41H16.7405V10.4321L9.6884 16.0123L6.87744 9.14815L17.924 1H24.8774V41Z" fill="#FF008C"/>
<path d="M30.8774 21C30.8774 16.5711 31.5234 12.8389 32.8153 9.70379C35.3992 3.48341 40.2687 0 46.8278 0C50.1569 0 52.9892 0.845973 55.424 2.48815C60.1942 5.87204 62.8774 12.1919 62.8774 21C62.8774 25.4289 62.2315 29.1611 60.9396 32.2962C58.3557 38.5663 53.4364 42 46.8278 42C43.5482 42 40.716 41.154 38.3309 39.4621C33.5607 36.128 30.8774 29.7583 30.8774 21ZM39.424 21C39.424 29.5095 42.0576 34.2867 46.8278 34.2867C51.6476 34.2867 54.3309 29.41 54.3309 21.0498C54.3309 12.5403 51.5979 7.71327 46.8278 7.71327C42.0576 7.71327 39.424 12.4905 39.424 21Z" fill="#FF008C"/>
<path d="M144.123 21.6775L142.923 25.0094C140.28 23.3657 137.17 22.0107 134.66 21.1666V31.0291H131.15V11.9927H134.66V17.6125C138.081 18.7232 141.502 20.167 144.123 21.6775Z" fill="#FF008C"/>
<path d="M119.549 15.9687L118.06 18.9675C115.839 17.6125 113.707 16.8128 111.174 16.0354L112.618 13.1477C115.128 13.8585 117.35 14.8137 119.549 15.9687ZM111.952 30.5848L111.663 27.0974C114.751 26.6754 117.816 25.7646 120.393 24.0098C123.036 22.2106 125.124 19.0119 126.235 15.0358L128.967 17.4126C127.745 21.1666 125.635 24.4319 122.858 26.6087C120.126 28.7412 115.817 30.185 111.952 30.5848Z" fill="#FF008C"/>
<path d="M107.113 11.5706L109.889 13.5919C107.979 15.6577 106.091 17.3681 104.069 18.8342V31.0735H100.538V21.0555C98.4717 22.1883 96.206 23.2101 94.0069 24.0542L91.6968 21.2998C97.983 19.2118 103.336 16.0576 107.113 11.5706Z" fill="#FF008C"/>
<path d="M89.714 15.8575V18.6564H82.4726V30.9845H79.0518V18.6564H71.8104V15.5466H79.0518V12.0591H82.4726V15.5466H87.0484C86.4043 15.0801 86.0044 14.3248 86.0044 13.4808C86.0044 12.0591 87.1817 10.9263 88.6478 10.9263C90.1138 10.9263 91.2689 12.0591 91.2689 13.4808C91.2689 14.5248 90.6247 15.4355 89.714 15.8575ZM88.6478 12.2146C87.937 12.2146 87.3594 12.8144 87.3594 13.4808C87.3594 14.2138 87.9147 14.7691 88.6478 14.7691C89.3586 14.7691 89.9361 14.1916 89.9361 13.4808C89.9361 12.8144 89.3586 12.2146 88.6478 12.2146ZM84.4495 20.8999L87.5815 20.1668C88.2035 22.9435 89.3142 25.9644 90.5581 27.9414L87.4038 29.3852C85.9822 27.1861 85.0049 23.9652 84.4495 20.8999ZM74.0095 29.474L70.8774 28.1857C72.3879 26.2088 73.3209 23.3433 73.8318 20.2557L76.986 20.8999C76.4751 24.2318 75.5644 27.386 74.0095 29.474Z" fill="#FF008C"/>
</svg>
