<svg width="41" height="40" viewBox="0 0 41 40" fill="none" xmlns="http://www.w3.org/2000/svg">
<path d="M29.25 10H26.75V8.75C26.75 8.41848 26.6183 8.10054 26.3839 7.86612C26.1495 7.6317 25.8315 7.5 25.5 7.5C25.1685 7.5 24.8505 7.6317 24.6161 7.86612C24.3817 8.10054 24.25 8.41848 24.25 8.75V10H16.75V8.75C16.75 8.41848 16.6183 8.10054 16.3839 7.86612C16.1495 7.6317 15.8315 7.5 15.5 7.5C15.1685 7.5 14.8505 7.6317 14.6161 7.86612C14.3817 8.10054 14.25 8.41848 14.25 8.75V10H11.75C10.7554 10 9.80161 10.3951 9.09835 11.0983C8.39509 11.8016 8 12.7554 8 13.75V28.75C8 29.7446 8.39509 30.6984 9.09835 31.4016C9.80161 32.1049 10.7554 32.5 11.75 32.5H29.25C30.2446 32.5 31.1984 32.1049 31.9016 31.4016C32.6049 30.6984 33 29.7446 33 28.75V13.75C33 12.7554 32.6049 11.8016 31.9016 11.0983C31.1984 10.3951 30.2446 10 29.25 10ZM30.5 28.75C30.5 29.0815 30.3683 29.3995 30.1339 29.6339C29.8995 29.8683 29.5815 30 29.25 30H11.75C11.4185 30 11.1005 29.8683 10.8661 29.6339C10.6317 29.3995 10.5 29.0815 10.5 28.75V20H30.5V28.75ZM30.5 17.5H10.5V13.75C10.5 13.4185 10.6317 13.1005 10.8661 12.8661C11.1005 12.6317 11.4185 12.5 11.75 12.5H14.25V13.75C14.25 14.0815 14.3817 14.3995 14.6161 14.6339C14.8505 14.8683 15.1685 15 15.5 15C15.8315 15 16.1495 14.8683 16.3839 14.6339C16.6183 14.3995 16.75 14.0815 16.75 13.75V12.5H24.25V13.75C24.25 14.0815 24.3817 14.3995 24.6161 14.6339C24.8505 14.8683 25.1685 15 25.5 15C25.8315 15 26.1495 14.8683 26.3839 14.6339C26.6183 14.3995 26.75 14.0815 26.75 13.75V12.5H29.25C29.5815 12.5 29.8995 12.6317 30.1339 12.8661C30.3683 13.1005 30.5 13.4185 30.5 13.75V17.5Z" fill="#7B2DA3"/>
</svg>
