<svg width="138" height="30" viewBox="0 0 138 30" fill="none" xmlns="http://www.w3.org/2000/svg">
<g clip-path="url(#clip0_265_6784)">
<path d="M87.8087 4.86475C89.3361 4.86475 90.4422 5.70071 91.0216 7.11141H91.127C92.0224 5.59622 93.1285 4.86475 94.4979 4.86475C96.7628 4.86475 98.1849 6.79792 98.1849 9.8283V17.2997C98.1849 17.5087 98.0269 17.7177 97.7636 17.7177H95.3407C95.13 17.7177 94.9193 17.561 94.9193 17.2997V10.0373C94.9193 8.57435 94.3399 7.73838 93.2338 7.73838C92.1277 7.73838 91.3903 8.67884 91.3903 10.4553V17.2997C91.3903 17.5087 91.2323 17.7177 90.969 17.7177H88.5461C88.3354 17.7177 88.1247 17.561 88.1247 17.2997V10.0373C88.1247 8.57435 87.5453 7.73838 86.4392 7.73838C85.3331 7.73838 84.5957 8.67884 84.5957 10.4553V17.2997C84.5957 17.5087 84.4377 17.7177 84.1743 17.7177H81.7515C81.5408 17.7177 81.3301 17.561 81.3301 17.2997V5.49172C81.3301 5.28273 81.4881 5.07374 81.7515 5.07374H83.753C83.9637 5.07374 84.1217 5.23048 84.1743 5.49172L84.4904 6.95466H84.5957C85.1224 5.59622 86.1759 4.8125 87.598 4.8125L87.8087 4.86475Z" fill="black"/>
<path d="M110.09 5.4922V17.3002C110.09 17.5092 109.932 17.7182 109.668 17.7182H107.667C107.403 17.7182 107.298 17.5615 107.245 17.3002L106.929 15.8373H106.824C106.297 17.248 105.191 17.9794 103.769 17.9794C101.504 17.9794 100.082 16.0985 100.082 13.0681V5.4922C100.082 5.28321 100.24 5.07422 100.503 5.07422H102.926C103.137 5.07422 103.348 5.23096 103.348 5.4922V12.8069C103.348 14.2698 103.927 15.0536 105.033 15.0536C106.139 15.0536 106.877 14.1653 106.877 12.3889V5.4922C106.877 5.28321 107.035 5.07422 107.298 5.07422H109.721C109.932 5.07422 110.142 5.23096 110.142 5.4922H110.09Z" fill="black"/>
<path d="M118.043 8.67884C117.885 7.84288 117.253 7.37265 116.357 7.37265C115.462 7.37265 114.883 7.84288 114.883 8.46985C114.883 9.09683 115.357 9.51481 116.305 9.7238L118.096 10.1418C120.308 10.6643 121.256 11.9182 121.256 13.7991C121.256 15.6801 119.202 17.9267 116.463 17.9267C113.724 17.9267 111.88 16.6205 111.512 13.9036C111.512 13.6424 111.617 13.4856 111.828 13.4334L113.935 13.0154C114.198 12.9632 114.356 13.0677 114.409 13.4334C114.619 14.7396 115.357 15.4188 116.41 15.4188C117.464 15.4188 118.043 14.8963 118.043 14.1126C118.043 13.3289 117.569 12.9109 116.568 12.6497L115.251 12.3362C112.565 11.7092 111.67 10.403 111.67 8.62659C111.67 6.85017 113.724 4.8125 116.252 4.8125C118.78 4.8125 120.413 6.17094 120.887 8.10412C120.94 8.36536 120.887 8.5221 120.571 8.57435L118.359 8.94008C118.096 8.94008 117.938 8.88783 117.885 8.62659L118.043 8.67884Z" fill="black"/>
<path d="M124.416 0.371094C125.469 0.371094 126.312 1.05032 126.312 2.25202C126.312 3.45372 125.469 4.13294 124.416 4.13294C123.362 4.13294 122.52 3.40147 122.52 2.25202C122.52 1.10256 123.362 0.371094 124.416 0.371094ZM122.783 17.2994V5.49139C122.783 5.28239 122.941 5.0734 123.204 5.0734H125.627C125.838 5.0734 126.049 5.23015 126.049 5.49139V17.2994C126.049 17.5084 125.891 17.7174 125.627 17.7174H123.204C122.994 17.7174 122.783 17.5606 122.783 17.2994Z" fill="black"/>
<path d="M138.005 13.7469C137.478 16.4638 135.424 17.979 133.107 17.979C130.789 17.979 127.629 15.1576 127.629 11.3957C127.629 7.63389 129.999 4.8125 133.107 4.8125C136.214 4.8125 137.478 6.32769 138.005 9.04458C138.005 9.30582 137.953 9.46256 137.689 9.51481L135.477 9.93279C135.214 9.93279 135.056 9.88054 135.003 9.6193C134.687 8.10412 134.002 7.42489 133.054 7.42489C131.632 7.42489 130.895 8.83559 130.895 11.448C130.895 14.0604 131.632 15.4711 133.054 15.4711C134.476 15.4711 134.634 14.7918 135.003 13.2767C135.056 13.0154 135.214 12.9109 135.477 12.9632L137.689 13.3812C137.953 13.3812 138.058 13.5901 138.005 13.8514V13.7469Z" fill="black"/>
<path d="M65.1081 17.7177H67.5309C67.7416 17.7177 67.9523 17.561 67.9523 17.2997V10.4553C67.9523 8.67884 68.637 7.73838 69.8485 7.73838C71.0599 7.73838 71.5866 8.57435 71.5866 10.0373V17.2997C71.5866 17.5087 71.7447 17.7177 72.008 17.7177H74.4309C74.6416 17.7177 74.8523 17.561 74.8523 17.2997V9.8283C74.8523 6.74567 73.4301 4.86475 71.0599 4.86475C68.6897 4.86475 68.5317 5.64847 67.9523 7.00691H67.847L67.5309 5.54397C67.5309 5.28273 67.3203 5.12599 67.1096 5.12599H65.1081C64.8974 5.12599 64.6867 5.28273 64.6867 5.54397V17.352C64.6867 17.561 64.8447 17.77 65.1081 17.77V17.7177ZM55.4165 11.3957C55.4165 8.83559 56.1539 7.42489 57.576 7.42489C58.9982 7.42489 59.7356 8.83559 59.7356 11.3957C59.7356 13.9559 58.9455 15.3666 57.576 15.3666C56.2066 15.3666 55.4165 13.9559 55.4165 11.3957ZM52.0455 11.3957C52.0455 15.1576 54.4157 17.979 57.5234 17.979C60.631 17.979 63.0539 15.1576 63.0539 11.3957C63.0539 7.63389 60.6837 4.8125 57.5234 4.8125C54.3631 4.8125 52.0455 7.63389 52.0455 11.3957ZM42.7227 17.6655C44.3028 17.143 45.5669 16.8818 46.8837 16.8818C48.2005 16.8818 49.3066 17.0907 50.8341 17.6655C51.1501 17.77 51.3608 17.6655 51.3608 17.352V15.6278C51.3608 15.3666 51.2555 15.2098 50.9921 15.1053C49.6753 14.5306 48.5165 14.3216 47.0417 14.3216C45.5669 14.3216 46.4097 14.3216 46.1463 14.3739L50.8868 7.94737C51.0448 7.79063 51.0448 7.58164 51.0448 7.37265V5.54397C51.0448 5.33498 50.8868 5.12599 50.6234 5.12599H42.6173C42.4066 5.12599 42.196 5.28273 42.196 5.54397V7.3204C42.196 7.52939 42.354 7.73838 42.6173 7.73838H47.5158L42.3013 15.0008C42.1433 15.1576 42.1433 15.3666 42.1433 15.5756V17.4565C42.1433 17.77 42.354 17.8745 42.67 17.77L42.7227 17.6655ZM33.7685 13.8514C33.7685 12.3884 34.822 11.5002 36.4548 11.5002C38.0876 11.5002 36.9815 11.5002 37.2448 11.5525V12.3362C37.2448 14.4261 36.5601 15.5756 35.296 15.5756C34.0319 15.5756 33.7159 14.8963 33.7159 13.7991L33.7685 13.8514ZM34.0846 17.979C35.612 17.979 36.7181 17.1952 37.2448 15.889H37.3502L37.6662 17.2997C37.6662 17.561 37.8769 17.7177 38.0876 17.7177H40.0891C40.2998 17.7177 40.5105 17.561 40.5105 17.2997V9.67155C40.5105 6.48443 38.8777 4.8125 35.77 4.8125C32.6624 4.8125 31.3983 6.0142 30.8189 8.10412C30.7663 8.4176 30.8716 8.62659 31.135 8.62659L33.2418 8.99233C33.5052 8.99233 33.6632 8.88783 33.7159 8.62659C33.9792 7.63389 34.6113 7.16365 35.5067 7.16365C36.4021 7.16365 37.2448 7.89512 37.2448 9.46256V9.77605C36.8761 9.7238 36.4548 9.67155 35.9807 9.67155C32.5571 9.67155 30.3976 11.3957 30.3976 14.1126C30.3976 16.8295 31.8724 17.8745 34.0319 17.8745L34.0846 17.979ZM42.4593 20.8526C42.6173 21.2183 43.0387 21.2183 43.7234 21.0616C45.5669 20.6436 47.8845 20.6436 48.2532 21.1661C48.6219 21.7408 47.7791 23.883 46.7784 25.4504C46.4097 26.0774 46.2517 26.4431 46.5677 26.7044C46.6204 26.8089 46.7257 26.8089 46.8837 26.8611C47.2524 26.8611 47.7265 26.4954 48.1478 26.0774C49.0959 25.2414 49.8333 24.1965 50.2547 22.9948C50.6761 21.8453 50.8868 20.2256 50.4127 19.5986C49.9913 19.0239 48.4112 18.6059 47.1471 18.6059C45.8303 18.6059 44.6188 18.9194 43.4601 19.4942C42.7753 19.8599 42.0906 20.2779 42.354 20.8003L42.4593 20.8526ZM8.59156 20.2256C8.6969 20.5391 8.96026 20.9571 9.32896 21.3751C14.0167 27.1223 21.5487 29.6302 28.8701 29.6302C36.1914 29.6302 41.4059 27.7493 45.3036 24.3532C45.9883 23.7785 46.3043 23.3082 46.3043 22.9425C46.3043 22.5768 46.2517 22.6813 46.1463 22.5245C45.8303 22.1588 45.3036 22.42 44.6715 22.7335C41.0372 24.6144 35.454 25.9206 29.5021 25.9206C23.5503 25.9206 15.5969 24.2487 10.1717 19.9121C9.64499 19.4942 9.0656 19.0762 8.6969 19.3897C8.53889 19.4942 8.43355 19.7031 8.59156 20.1211V20.2256ZM12.5946 17.7177H15.0175C15.2282 17.7177 15.4389 17.561 15.4389 17.2997V10.4553C15.4389 8.67884 16.0709 7.73838 17.2297 7.73838C18.3885 7.73838 18.9152 8.57435 18.9152 10.0373V17.2997C18.9152 17.5087 19.0732 17.7177 19.3365 17.7177H21.7594C21.9701 17.7177 22.1808 17.561 22.1808 17.2997V10.4553C22.1808 8.67884 22.8129 7.73838 23.9716 7.73838C25.1304 7.73838 25.6571 8.57435 25.6571 10.0373V17.2997C25.6571 17.5087 25.8151 17.7177 26.0785 17.7177H28.5014C28.7121 17.7177 28.9228 17.561 28.9228 17.2997V9.8283C28.9228 6.74567 27.5533 4.86475 25.2357 4.86475C22.9182 4.86475 22.7602 5.59622 21.8648 7.11141H21.7594C21.18 5.64847 20.0739 4.86475 18.5465 4.86475C17.019 4.86475 16.0709 5.64847 15.5442 7.00691H15.4389L15.1228 5.54397C15.1228 5.28273 14.9121 5.12599 14.7015 5.12599H12.6999C12.4893 5.12599 12.2786 5.28273 12.2786 5.54397V17.352C12.2786 17.561 12.4366 17.77 12.6999 17.77L12.5946 17.7177ZM3.5351 13.8514C3.5351 12.3884 4.58853 11.5002 6.22134 11.5002C7.85416 11.5002 6.74806 11.5002 7.01142 11.5525V12.3362C7.01142 14.4261 6.32669 15.5756 5.06257 15.5756C3.79846 15.5756 3.48243 14.8963 3.48243 13.7991L3.5351 13.8514ZM3.85113 17.979C5.3786 17.979 6.4847 17.1952 7.01142 15.889H7.11676L7.43279 17.2997C7.43279 17.561 7.64347 17.7177 7.85416 17.7177H9.85568C10.0664 17.7177 10.277 17.561 10.277 17.2997V9.67155C10.277 6.48443 8.64423 4.8125 5.53662 4.8125C2.429 4.8125 1.16488 6.0142 0.585497 8.15636C0.532826 8.46985 0.638169 8.67884 0.901526 8.67884L3.00839 9.04458C3.27174 9.04458 3.42976 8.94008 3.48243 8.67884C3.74579 7.68613 4.37784 7.2159 5.27326 7.2159C6.16867 7.2159 7.01142 7.94737 7.01142 9.51481V9.8283C6.64272 9.77605 6.22134 9.7238 5.7473 9.7238C2.37633 9.7238 0.216797 11.5002 0.216797 14.2171C0.216797 16.934 1.6916 17.979 3.85113 17.979Z" fill="black"/>
</g>
<defs>
<clipPath id="clip0_265_6784">
<rect width="137.789" height="29.2588" fill="white" transform="translate(0.216797 0.371094)"/>
</clipPath>
</defs>
</svg>
