<?xml version="1.0" encoding="UTF-8"?>
<svg id="_レイヤー_1" data-name="レイヤー_1" xmlns="http://www.w3.org/2000/svg" version="1.1" viewBox="0 0 23 16">
  <!-- Generator: Adobe Illustrator 29.3.1, SVG Export Plug-In . SVG Version: 2.1.0 Build 151)  -->
  <defs>
    <style>
      .st0 {
        fill: #02d0da;
      }
    </style>
  </defs>
  <path class="st0" d="M10,15.1L.5,4.2C-.6,2.9.3.9,2,.9h19c.4,0,.8.1,1.1.3.3.2.6.5.7.8.2.3.2.7.2,1.1,0,.4-.2.7-.5,1l-9.5,10.9c-.2.2-.4.4-.7.5-.3.1-.5.2-.8.2s-.6,0-.8-.2c-.3-.1-.5-.3-.7-.5h0Z"/>
</svg>