<svg width="113" height="122" viewBox="0 0 113 122" fill="none" xmlns="http://www.w3.org/2000/svg">
<g clip-path="url(#clip0_263_6390)">
<path d="M79.4355 73.68C79.9659 56.7031 61.1787 52.2988 61.1787 52.2988C51.4405 49.4031 43.9249 49.59 38.331 50.9463L30.628 44.4874C30.2924 44.2063 29.7827 44.34 29.6288 44.7494C28.9174 46.6531 27.3684 51.506 28.2812 55.604C27.5489 56.1606 26.9457 56.6876 26.4712 57.1414C25.1926 58.3625 23.5852 59.1754 21.8465 59.4932C16.7277 60.4236 12.7818 59.4357 12.7818 59.4357L10.1721 72.2135C17.5417 73.7952 22.9787 80.5985 26.1399 85.7566C27.107 87.3354 27.4504 89.2157 27.1593 91.0435L25.7861 99.6081C25.5845 100.868 26.4249 102.057 27.678 102.289L35.9041 103.809C36.6901 103.955 37.4434 103.435 37.5881 102.651L38.4948 97.7406C44.6742 100.047 51.28 100.064 56.1726 99.5531L55.5197 100.473L53.8747 105.428C53.6978 105.964 54.0253 106.534 54.5762 106.648L66.1031 109.064C66.7535 109.2 67.3999 108.824 67.6053 108.195L72.6016 92.8628L72.5953 92.8609C80.0138 85.2483 79.4313 73.6787 79.4313 73.6787L79.4355 73.68Z" fill="#FFE42E"/>
<path d="M67.5903 108.329C67.5903 108.329 67.5735 108.324 67.5671 108.322C66.7555 108.058 66.3137 107.186 66.5771 106.376L71.0987 92.5012C71.1624 92.2347 71.2942 91.9869 71.4926 91.785C78.3345 84.7631 77.8983 73.8639 77.8923 73.7559C77.8907 73.7162 77.8904 73.6723 77.8909 73.6332C78.094 67.1655 75.2728 61.75 69.5043 57.542C65.072 54.3066 60.484 53.0285 60.437 53.0163C60.4222 53.0117 60.4053 53.0065 60.3906 53.002C49.4997 49.661 45.0763 50.8058 40.3916 52.02C39.832 52.1659 39.2682 52.3106 38.6945 52.4499C38.218 52.566 37.7145 52.4477 37.3384 52.1333L30.6493 46.5247C29.9572 48.6951 29.1154 52.2569 29.7874 55.2723C29.9179 55.8594 29.6946 56.4713 29.2154 56.8359C28.6031 57.3025 28.0379 57.7813 27.5368 58.2614C26.0418 59.6904 24.1676 60.6426 22.1212 61.0156C18.6598 61.6446 15.7063 61.4495 13.9908 61.2207L11.9297 71.3131C11.7597 72.1491 10.9433 72.6866 10.1094 72.5173C9.2734 72.3473 8.73589 71.5309 8.90525 70.697L11.2669 59.1281C11.3502 58.7153 11.5995 58.356 11.9571 58.1317C12.3147 57.9073 12.7469 57.8375 13.1538 57.9398C13.1875 57.9502 16.8715 58.8297 21.5694 57.9772C23.0212 57.714 24.3458 57.0401 25.4047 56.0304C25.7774 55.6746 26.1774 55.3202 26.5985 54.9723C26.0016 50.7179 27.4792 46.0967 28.182 44.2135C28.4292 43.5536 28.9835 43.0507 29.6643 42.8706C30.3473 42.6911 31.0764 42.8559 31.6176 43.3088L38.7176 49.261C39.02 49.1858 39.3188 49.1071 39.617 49.0306C44.5098 47.7629 49.5656 46.453 61.2754 50.0419C61.7218 50.1656 66.4899 51.5408 71.245 54.9865C77.8299 59.7576 81.1945 66.2175 80.9796 73.6669C81.022 74.7345 81.2805 85.8881 73.9668 93.6622L69.5137 107.33C69.2522 108.133 68.396 108.575 67.591 108.327L67.5903 108.329Z" fill="#3E3A39"/>
<path d="M26.9445 103.694C25.1091 103.128 23.9503 101.31 24.2624 99.362L25.6336 90.7967C25.871 89.3077 25.585 87.8027 24.823 86.5618C21.619 81.3329 18.268 76.4832 12.5252 74.5722C11.7155 74.3019 11.2786 73.4288 11.5483 72.6212C11.8147 71.8242 12.6669 71.3877 13.4677 71.6345C13.4782 71.6378 13.4909 71.6417 13.5014 71.6449C20.7905 74.0718 24.8022 80.618 27.4585 84.9513C28.6038 86.8203 29.0401 89.0731 28.6852 91.2874L27.3141 99.8527C27.2443 100.281 27.5396 100.693 27.9627 100.773L36.0929 102.275L36.9816 97.4607C37.0641 97.0132 37.3413 96.6232 37.7386 96.3973C38.1353 96.1734 38.6072 96.132 39.0392 96.2951C45.0926 98.5534 51.6113 98.4791 56.0174 98.019C56.6208 97.9557 57.2057 98.2514 57.5099 98.7767C57.8169 99.3005 57.7857 99.9555 57.435 100.45L56.9166 101.181L55.5569 105.277L64.164 107.081C65.0015 107.254 65.5328 108.075 65.3592 108.908C65.185 109.743 64.3671 110.278 63.5324 110.103L54.2686 108.161C53.5748 108.017 52.9754 107.581 52.6225 106.966C52.2695 106.352 52.1942 105.616 52.4175 104.944L53.6257 101.301C49.605 101.507 44.6008 101.279 39.6945 99.7762L39.1114 102.933C38.8127 104.553 37.2489 105.629 35.6288 105.33L27.4027 103.81C27.2478 103.78 27.0956 103.743 26.9481 103.697L26.9445 103.694Z" fill="#3E3A39"/>
<path d="M27.2895 67.6955C26.0189 67.4608 25.1792 66.2397 25.414 64.9691C25.6488 63.6985 26.8698 62.8588 28.1405 63.0935C29.4111 63.3283 30.2508 64.5494 30.016 65.82C29.7812 67.0906 28.5602 67.9303 27.2895 67.6955Z" fill="#3E3A39"/>
<path d="M79.6257 72.7204C78.9092 72.4996 78.4417 71.7855 78.5548 71.022C78.6786 70.1786 79.4605 69.5959 80.3038 69.7197C80.3479 69.7264 83.1228 70.1041 85.8809 69.3759C85.0864 68.3903 84.707 67.1657 84.7777 65.7984C84.9121 63.2138 87.0863 61.1611 89.7311 61.1226C91.9834 61.0923 93.4762 62.3578 93.7206 64.5145C93.8776 65.899 93.488 67.3203 92.6231 68.5167C92.5189 68.66 92.4139 68.7984 92.3039 68.9306C93.5518 69.0522 95.1688 69.0614 97.2597 68.866C98.1102 68.7867 98.861 69.4127 98.9389 70.2605C99.0168 71.1083 98.3922 71.8619 97.5444 71.9397C94.0454 72.2642 91.2952 72.1133 89.2406 71.4799C89.2005 71.4676 89.1605 71.4552 89.1204 71.4429C85.0343 73.4923 80.1286 72.8108 79.857 72.771C79.7773 72.7602 79.7001 72.7411 79.6242 72.7177L79.6257 72.7204ZM90.2935 64.2612C90.1713 64.2235 90.0056 64.207 89.7741 64.2095C88.768 64.2247 87.9104 65.008 87.8601 65.957C87.8233 66.6679 88.0182 67.2034 88.4703 67.6381C88.5773 67.7403 88.7137 67.8516 88.8886 67.9655C89.3473 67.6154 89.764 67.1993 90.1183 66.7085C90.5254 66.144 90.7214 65.4707 90.6511 64.8606C90.616 64.5475 90.5759 64.3482 90.2914 64.2605L90.2935 64.2612Z" fill="#3E3A39"/>
<path d="M45.9034 56.0453C45.404 55.8913 44.9951 55.4884 44.8579 54.9454C44.6508 54.12 45.1514 53.2821 45.9746 53.0743C46.3477 52.9794 55.2053 50.827 62.9298 56.2056C63.6286 56.6933 63.8005 57.6554 63.3149 58.3549C62.8272 59.0537 61.865 59.2256 61.1655 58.74C54.6204 54.1841 46.8068 56.0491 46.7291 56.069C46.4468 56.1389 46.162 56.1273 45.9028 56.0474L45.9034 56.0453Z" fill="#3E3A39"/>
</g>
<g clip-path="url(#clip1_263_6390)">
<path d="M74.7242 49.9814C83.5747 50.1783 90.9091 43.1632 91.106 34.3127C91.303 25.4622 84.2879 18.1278 75.4374 17.9308C66.5869 17.7339 59.2524 24.749 59.0555 33.5995C58.8585 42.45 65.8736 49.7844 74.7242 49.9814Z" fill="#FFE42E"/>
<path d="M62.3531 46.0798C59.8992 43.5142 58.2854 40.2669 57.721 36.6843C56.9929 32.0468 58.1147 27.4037 60.877 23.6112C66.5834 15.7793 77.5957 14.0498 85.4278 19.7531C89.2217 22.517 91.7123 26.5917 92.4404 31.2292C93.1685 35.8666 92.0467 40.5098 89.2844 44.3022C86.5205 48.0962 82.4458 50.5868 77.8083 51.3149C73.1708 52.043 68.5277 50.9212 64.7353 48.1588C63.8712 47.5298 63.0772 46.8337 62.3532 46.0767L62.3531 46.0798ZM85.5742 23.9643C84.9783 23.3412 84.322 22.7667 83.6113 22.2502C77.153 17.546 68.0752 18.9723 63.3726 25.4292C61.0945 28.5571 60.1703 32.3826 60.7699 36.2062C61.3711 40.0283 63.4236 43.3898 66.55 45.6663C69.6779 47.9444 73.5035 48.8687 77.3271 48.2691C81.1492 47.6679 84.5091 45.6168 86.7872 42.4889C89.0653 39.361 89.9895 35.5354 89.3899 31.7118C88.9269 28.7585 87.5937 26.082 85.5711 23.9674L85.5742 23.9643Z" fill="#3E3A39"/>
<path d="M65.3776 43.2304C60.9757 38.6282 60.3556 31.3791 64.2328 26.0564C65.3896 24.4679 66.8406 23.1808 68.5462 22.233C69.0894 21.93 69.776 22.1247 70.0805 22.6695C70.3835 23.2128 70.1872 23.9009 69.644 24.2039C68.2274 24.9912 67.0214 26.0624 66.0577 27.3838C62.4315 32.3595 63.5328 39.3588 68.5086 42.9819C71.0042 44.7999 74.1764 45.5068 77.2106 44.9177C77.8231 44.7988 78.4131 45.1987 78.5336 45.8097C78.6526 46.4221 78.2526 47.0121 77.6402 47.1311C73.9935 47.8391 70.1819 46.9901 67.1814 44.8037C66.5245 44.3243 65.9233 43.7978 65.3791 43.2289L65.3776 43.2304Z" fill="#3E3A39"/>
<path d="M81.678 44.5507C81.6475 44.5188 81.6186 44.4854 81.5929 44.449C81.2172 43.9509 81.3156 43.2434 81.8121 42.8692C82.683 42.2101 83.4554 41.4225 84.1069 40.5309C85.8622 38.1197 86.5751 35.1706 86.1119 32.2235C85.6488 29.2763 84.0672 26.688 81.656 24.9327C79.2878 23.2065 76.3873 22.4869 73.4879 22.9074C72.8714 22.9967 72.2992 22.5675 72.2115 21.9526C72.1223 21.3361 72.5498 20.7654 73.1663 20.6762C76.6509 20.172 80.1378 21.0388 82.9848 23.1125C85.8825 25.2233 87.7846 28.335 88.3406 31.8769C88.8965 35.4188 88.0409 38.9652 85.9302 41.8629C85.1498 42.9357 84.2227 43.8805 83.1725 44.6744C82.7124 45.0229 82.0696 44.9633 81.6794 44.5554L81.678 44.5507Z" fill="#3E3A39"/>
<path d="M80.1268 28.9054L78.4217 29.5506C78.3478 29.5786 78.268 29.5206 78.2744 29.4412L78.3833 27.6344C78.3841 27.597 78.3678 27.5608 78.3386 27.5399L76.2282 26.0034C76.1576 25.9519 76.0599 25.9997 76.0533 26.0853L75.8081 30.1646C75.803 30.2518 75.7038 30.298 75.6332 30.2465L73.3003 28.5476C73.2512 28.5122 73.1823 28.5231 73.1469 28.5722L71.8534 30.3496C71.818 30.3987 71.8289 30.4675 71.878 30.5029L74.5516 32.4496C74.6008 32.485 74.6117 32.5539 74.5763 32.603L73.7687 33.7111C73.7333 33.7603 73.6644 33.7712 73.6153 33.7358L70.9417 31.7891C70.8926 31.7537 70.8237 31.7646 70.7883 31.8138L69.4948 33.5911C69.4594 33.6402 69.4703 33.7091 69.5194 33.7445L72.193 35.6912C72.2422 35.7266 72.2531 35.7954 72.2177 35.8446L69.9911 38.9019C69.9557 38.951 69.9666 39.0198 70.0158 39.0552L71.7931 40.3488C71.8422 40.3842 71.911 40.3732 71.9465 40.3241L74.1731 37.2668C74.2085 37.2177 74.2773 37.2067 74.3265 37.2421L77.0001 39.1888C77.0492 39.2242 77.1181 39.2133 77.1535 39.1642L78.447 37.3869C78.4824 37.3378 78.4714 37.2689 78.4223 37.2335L75.7487 35.2868C75.6996 35.2514 75.6886 35.1825 75.7241 35.1334L76.5317 34.0253C76.5671 33.9762 76.6359 33.9652 76.6851 34.0006L79.3587 35.9473C79.4078 35.9827 79.4767 35.9718 79.5121 35.9227L80.8056 34.1454C80.841 34.0962 80.83 34.0274 80.7809 33.992L78.4603 32.3027C78.3897 32.2512 78.4046 32.1423 78.4848 32.1114L82.3306 30.6576C82.4108 30.6266 82.4257 30.5178 82.3551 30.4663L80.231 28.9186C80.2003 28.8961 80.1629 28.8921 80.1268 28.9054Z" fill="#3E3A39"/>
</g>
<defs>
<clipPath id="clip0_263_6390">
<rect width="87.1851" height="61.3892" fill="white" transform="translate(18.1602 36.7461) rotate(17.1321)"/>
</clipPath>
<clipPath id="clip1_263_6390">
<rect width="35.1523" height="35.1545" fill="white" transform="translate(75.6367 9.10742) rotate(46.2748)"/>
</clipPath>
</defs>
</svg>
