<svg width="140" height="171" viewBox="0 0 140 171" fill="none" xmlns="http://www.w3.org/2000/svg">
<g clip-path="url(#clip0_266_6988)">
<path d="M91.1301 166.207C84.4616 168.316 77.3645 169.453 69.9986 169.453C31.3401 169.453 0 138.113 0 99.4545C0 60.7961 31.3401 29.4531 69.9986 29.4531C108.657 29.4531 139.997 60.7933 139.997 99.4517C139.997 129.666 120.857 155.407 94.04 165.213C93.0794 165.563 92.1075 165.896 91.1301 166.204V166.207Z" fill="#FFF22E"/>
<path d="M87.6375 5.36684C88.2789 5.01395 89.2955 4.45381 90.427 4.46501C91.6145 4.47341 92.5444 5.11478 93.1465 6.20986C93.8607 7.5038 93.7039 8.68571 93.0989 9.62395C92.5248 10.5174 91.5949 11.0299 90.934 11.394L90.4466 11.6629L91.7154 13.9623L89.416 15.231L84.834 6.91845L87.6431 5.36964L87.6375 5.36684ZM89.5196 9.97964L90.0069 9.71077C90.2954 9.55113 90.6931 9.33268 90.892 8.96298C91.0908 8.59328 91.0712 8.08635 90.7799 7.55421C90.4887 7.02488 90.0685 6.7364 89.6484 6.70559C89.2283 6.67759 88.8306 6.89604 88.5449 7.05568L88.0576 7.32455L89.5196 9.97684V9.97964Z" fill="#3E3A39"/>
<path d="M101.198 10.452C98.1765 11.113 96.1656 9.47459 95.5494 6.66266C94.9108 3.7527 96.16 1.4253 99.1568 0.767126C102.179 0.106154 104.19 1.74458 104.806 4.55651C105.444 7.46647 104.195 9.79387 101.198 10.452ZM102.1 5.18948C101.669 3.21776 100.812 2.36914 99.5292 2.65202C98.2465 2.93209 97.8208 4.06078 98.2549 6.0325C98.6862 8.00421 99.5432 8.85283 100.826 8.56995C102.109 8.28988 102.534 7.16119 102.1 5.18948Z" fill="#3E3A39"/>
<path d="M109.716 0.0196051L109.643 9.51407L107.016 9.49447L107.088 0L109.716 0.0196051Z" fill="#3E3A39"/>
<path d="M115.853 0.698302L118.135 6.70866L119.323 1.48811L121.538 1.99224L119.432 11.2486L117.217 10.7445L114.693 4.42047L113.45 9.88749L111.234 9.38336L113.341 0.126953L115.853 0.698302Z" fill="#3E3A39"/>
<path d="M131.064 6.67212L130.123 8.43098L128.03 7.31349L124.496 13.926L122.18 12.6881L125.714 6.07557L123.622 4.95808L124.563 3.19922L131.066 6.67492L131.064 6.67212Z" fill="#3E3A39"/>
<path d="M103.692 86.6905L103.269 82.1001C103.269 82.1001 96.8779 72.4012 100.026 67.2619L101.499 66.0828L101.659 47.2367C101.659 47.2367 103.513 43.9374 105.148 48.3206L106.689 59.6271L110.271 46.0464C110.271 46.0464 113.103 42.5987 113.985 46.9062L111.576 62.0553C111.576 62.0553 113.996 59.0501 115.844 62.1169C115.844 62.1169 119.757 61.6576 119.707 65.265L118.841 69.0543C118.841 69.0543 118.163 76.9272 115.494 80.6326L117.194 108.573L102.126 109.192L103.686 86.6877L103.692 86.6905Z" fill="white"/>
<path d="M111.208 70.7974C111.02 70.7974 110.835 70.7806 110.648 70.7469C109.48 70.5341 108.69 69.7163 108.474 68.5036L108.424 68.2235L110.608 61.2301C110.774 60.7035 111.269 60.3786 111.799 60.4067C111.939 60.1014 112.21 59.8577 112.563 59.7653C113.586 59.4936 115.807 59.5216 116.888 61.5774C117.33 62.4204 117.299 63.4286 116.801 64.2745L113.801 69.3802C113.286 70.2596 112.269 70.7974 111.208 70.7974ZM110.855 68.3159C110.905 68.4055 110.972 68.4167 111.071 68.4335C111.401 68.4952 111.695 68.3299 111.776 68.1871L114.776 63.0813C114.863 62.9301 114.874 62.7901 114.809 62.664C114.319 61.7342 113.216 62.0171 113.168 62.0283C113.048 62.0591 112.927 62.0731 112.807 62.0675L110.858 68.3131L110.855 68.3159Z" fill="#3E3A39"/>
<path d="M115.297 70.8366C114.829 70.8366 114.393 70.7189 114.009 70.4893C113.323 70.0776 112.844 69.341 112.589 68.2991C112.452 67.7362 112.793 67.1704 113.356 67.0332C113.919 66.896 114.485 67.2376 114.622 67.8006C114.782 68.4532 114.998 68.6408 115.084 68.6912C115.188 68.7528 115.348 68.7584 115.555 68.7052C115.799 68.6436 116.009 68.5148 116.149 68.3411L118.568 65.3696C118.652 65.1679 118.711 64.9102 118.608 64.6806C118.524 64.4929 118.344 64.3501 118.118 64.2885C117.916 64.2353 117.255 64.4201 116.782 64.6638C116.269 64.927 115.636 64.7254 115.373 64.2101C115.11 63.6975 115.308 63.0674 115.821 62.8013C116.098 62.6584 117.535 61.9611 118.664 62.2691C119.498 62.496 120.17 63.0646 120.512 63.8264C120.868 64.6162 120.826 65.5292 120.397 66.3974L120.344 66.5038L117.767 69.6687C117.347 70.184 116.745 70.5649 116.07 70.7386C115.804 70.8058 115.544 70.8422 115.292 70.8422L115.297 70.8366Z" fill="#3E3A39"/>
<path d="M103.472 87.1113C102.769 87.1113 102.192 86.5456 102.181 85.8398L102.142 83.5572C102.13 82.843 101.996 82.154 101.747 81.5099C101.467 80.7845 100.965 79.6922 100.178 78.6195C100.156 78.5887 100.136 78.5579 100.117 78.5271C99.9122 78.1938 98.1338 75.1858 98.2094 72.6092C98.2122 72.5055 98.2122 72.3263 98.215 72.0966C98.229 68.0832 98.453 66.8229 99.2568 66.2291C100.386 65.3945 101.999 63.9549 103.295 62.7982C105.572 60.7649 105.707 60.6445 106.444 60.7957C107.359 60.9833 108.16 61.5463 108.642 62.3361C109.239 63.3163 109.334 64.5571 108.922 66.0218C108.9 66.1003 108.872 66.1759 108.835 66.2487C108.779 66.3607 107.715 68.4865 106.861 69.9989C108.202 71.3516 109.513 73.7519 108.838 75.3511C108.561 76.0092 107.802 76.3173 107.144 76.0401C106.497 75.7684 106.189 75.0318 106.438 74.382C106.508 73.7379 105.295 71.811 104.587 71.4497C104.259 71.2844 104.018 70.9847 103.923 70.629C103.828 70.2734 103.889 69.8953 104.091 69.5872C104.766 68.5537 106.163 65.8006 106.463 65.2012C106.637 64.5319 106.626 63.9913 106.432 63.6748C106.404 63.6272 106.373 63.588 106.34 63.5516C105.981 63.8625 105.48 64.3078 105.018 64.7195C103.763 65.8398 102.217 67.2178 101.019 68.1308C100.915 68.5369 100.811 69.5732 100.8 72.0966C100.8 72.3571 100.8 72.5587 100.794 72.6764C100.75 74.186 101.842 76.3593 102.301 77.1323C103.234 78.4179 103.825 79.709 104.158 80.5688C104.517 81.4987 104.71 82.4873 104.727 83.5068L104.766 85.7894C104.777 86.5036 104.209 87.0917 103.494 87.1029C103.486 87.1029 103.48 87.1029 103.472 87.1029V87.1113Z" fill="#3E3A39"/>
<path d="M114.926 85.8501C114.253 85.8501 113.685 85.3292 113.637 84.6486L113.489 82.576C113.489 82.5564 113.489 82.5368 113.486 82.5172C113.458 81.4361 113.772 80.3915 114.388 79.498C117.376 75.1681 117.55 69.0877 117.553 69.0289C117.57 68.3147 118.169 67.7546 118.875 67.7658C119.589 67.7826 120.155 68.3735 120.138 69.0877C120.132 69.3678 119.939 76.0083 116.516 80.9684C116.217 81.4025 116.063 81.9067 116.071 82.4276L116.217 84.4665C116.267 85.1779 115.732 85.7969 115.018 85.8473C114.987 85.8473 114.956 85.8501 114.926 85.8501Z" fill="#3E3A39"/>
<path d="M101.429 66.5618C100.737 66.5618 100.166 66.0156 100.138 65.3182C100.135 65.2314 100.138 65.1474 100.152 65.0634C100.169 64.5144 100.113 61.7137 100.065 59.2322C99.9811 54.9891 99.8859 50.1803 99.9559 48.7967C99.9896 48.1554 100.088 47.3235 100.564 46.5561C101.269 45.4191 102.393 44.8925 103.642 45.111C105.157 45.3742 106.308 46.6514 106.44 48.2142L107.568 59.2491C107.641 59.9604 107.123 60.5934 106.414 60.6662C105.703 60.7362 105.07 60.2209 104.997 59.5123L103.869 48.4578C103.835 48.0489 103.552 47.7213 103.199 47.6596C103.068 47.6372 102.953 47.6148 102.762 47.9229C102.633 48.1302 102.566 48.441 102.541 48.9312C102.474 50.2251 102.575 55.1936 102.653 59.1846C102.687 60.8315 102.715 62.3495 102.731 63.4557C102.74 64.0159 102.743 64.4724 102.743 64.7889C102.743 65.2146 102.74 66.5141 101.482 66.5646C101.466 66.5646 101.449 66.5646 101.432 66.5646L101.429 66.5618ZM100.404 64.4808C100.289 64.6293 100.211 64.7973 100.172 64.9625C100.214 64.7861 100.295 64.6208 100.404 64.4808ZM101.379 63.9767C101.135 63.9851 100.919 64.0607 100.737 64.1755C100.922 64.0579 101.143 63.9851 101.379 63.9767Z" fill="#3E3A39"/>
<path d="M111.653 61.4179C111.583 61.4179 111.516 61.4123 111.446 61.3983C110.807 61.2834 110.382 60.6729 110.496 60.0343L112.804 47.1426C112.852 46.7673 112.726 46.4004 112.468 46.1875C112.322 46.0671 112.182 45.9859 111.835 46.1567C111.443 46.3472 111.149 46.7421 111.048 47.2154L111.037 47.2602L107.83 59.9167C107.67 60.544 107.032 60.9249 106.405 60.7653C105.777 60.6057 105.396 59.9671 105.556 59.3397L108.757 46.7028C109.012 45.5377 109.779 44.5435 110.81 44.0422C111.933 43.4988 113.053 43.6192 113.972 44.381C114.857 45.1176 115.3 46.3079 115.129 47.4927L115.123 47.5319L112.813 60.4488C112.712 61.0174 112.216 61.4151 111.659 61.4151L111.653 61.4179Z" fill="#3E3A39"/>
<path d="M79.4141 87.8008C79.4141 87.8008 85.5869 88.5878 92.0846 93.2594L103.091 100.085L100.669 124.7L80.5624 115.363L79.4141 87.8008Z" fill="white"/>
<path d="M101.726 109.483C101.698 109.483 101.67 109.483 101.639 109.48C100.964 109.433 100.454 108.847 100.499 108.172L101.866 88.3097C101.913 87.6347 102.499 87.1166 103.174 87.1698C103.849 87.2174 104.358 87.8027 104.313 88.4777L102.947 108.34C102.902 108.987 102.364 109.483 101.726 109.483Z" fill="#3E3A39"/>
<path d="M115.445 96.7707C114.776 96.7707 114.219 96.2441 114.188 95.5691L113.591 82.7586C113.558 82.064 114.095 81.4731 114.793 81.4423C115.49 81.4171 116.078 81.9464 116.109 82.6438L116.706 95.4543C116.739 96.1489 116.202 96.7398 115.504 96.7707C115.485 96.7707 115.465 96.7707 115.445 96.7707Z" fill="#3E3A39"/>
<path d="M115.678 33.01H102.26V29.1842C106.817 24.7395 109.516 22.2636 109.516 19.8466C109.516 18.4686 108.645 17.6816 106.761 17.6816C104.988 17.6816 102.655 18.3566 102.655 18.3566H102.431V14.0799C102.431 14.0799 104.822 13.4609 107.69 13.4609C113.289 13.4609 115.594 15.8528 115.594 19.0596C115.594 23.2495 111.74 25.8374 108.589 28.5961H115.678V33.0128V33.01Z" fill="#3E3A39"/>
<path d="M90.1914 163.805L90.7432 163.819L91.3537 152.994L90.6087 157.587L90.1914 163.805Z" fill="#68E6E0"/>
<path d="M21.3385 150.729L25.856 147.494L40.319 143.142L43.0133 112.978L90.6117 107.217L93.1211 121.753L93.2192 119.991L90.41 95.9049C90.0767 93.0454 88.1723 90.6143 85.4779 89.6033L69.7351 83.7077L51.8636 79.6719L42.2571 84.9709L30.1944 92.1043C30.1944 92.1043 24.9542 99.333 24.2176 107.55L18.2969 147.623C19.2771 148.687 20.291 149.724 21.3357 150.726L21.3385 150.729Z" fill="white"/>
<path d="M92.5522 145.586C94.5519 138.624 93.216 122.329 93.216 122.329L93.118 121.752L91.3535 152.991L92.5522 145.583V145.586Z" fill="#68E6E0"/>
<path d="M55.1915 163.27L44.8008 165.908C52.5028 168.824 60.8518 170.423 69.5732 170.423C76.5918 170.423 83.3668 169.387 89.7581 167.465L89.6236 160.52L55.1915 163.27Z" fill="#02D0DA"/>
<path d="M43.0127 112.978L40.3184 143.145L53.5686 139.156L59.635 161.965L55.3919 163.041L90.1909 163.806L90.6082 157.588L91.3532 152.995L93.1177 121.755L90.6082 107.217L43.0127 112.978Z" fill="#02D0DA"/>
<path d="M38.1602 162.662C38.2918 162.729 38.4262 162.794 38.5579 162.861L38.5747 162.673L38.1602 162.665V162.662Z" fill="#68E6E0"/>
<path d="M38.5566 162.86C40.646 163.904 42.7969 164.845 45.0011 165.68L55.3918 163.042L38.5734 162.672L38.5566 162.86Z" fill="white"/>
<path d="M53.5693 139.156L40.3191 143.144L38.5742 162.671L55.3926 163.041L59.6357 161.965L53.5693 139.156Z" fill="white"/>
<path d="M35.291 88.0934C35.291 88.0934 42.234 102.259 43.0126 111.331L54.8933 110.236C54.8933 110.236 48.474 86.8359 43.878 84.9258L35.2938 88.0934H35.291Z" fill="#02D0DA"/>
<path d="M75.6523 83.8398C75.6523 83.8398 83.6988 96.0286 83.6512 107.999L90.611 107.218C90.611 107.218 89.4151 89.7214 83.6512 86.9346L75.6523 83.8398Z" fill="#02D0DA"/>
<path d="M31.7059 15.6009C31.7059 21.7149 37.4418 26.8066 43.5558 26.8066C49.6698 26.8066 56.3607 21.7177 56.3607 15.6009C56.3607 9.48409 51.4623 3.55215 44.0992 4.03107C34.5515 4.65284 31.7031 9.48409 31.7031 15.6009H31.7059Z" fill="#A48B78"/>
<path d="M43.5564 28.0077C36.605 28.0077 30.5078 22.2102 30.5078 15.6033C30.5078 7.71647 35.0562 3.42015 44.0241 2.8376C47.6035 2.60514 50.9531 3.77584 53.4682 6.13406C56.0701 8.57069 57.5628 12.024 57.5628 15.6033C57.5628 22.5883 50.0345 28.0077 43.5564 28.0077ZM44.9456 5.20422C44.6963 5.20422 44.4414 5.21262 44.1782 5.22942C36.4874 5.73075 32.9052 9.02441 32.9052 15.6005C32.9052 20.9303 37.8821 25.6047 43.5564 25.6047C48.8134 25.6047 55.1626 21.1404 55.1626 15.6005C55.1626 12.6822 53.9471 9.86743 51.827 7.88171C50.4938 6.63259 48.2448 5.20422 44.9456 5.20422Z" fill="#3E3A39"/>
<path d="M37.639 21.4311C37.5354 21.4311 37.4289 21.4171 37.3253 21.3891C36.6868 21.2155 36.3059 20.5573 36.4795 19.9187C39.0394 10.4298 47.3323 8.53655 47.6852 8.46094C48.3322 8.3209 48.9707 8.73261 49.1108 9.37957C49.2508 10.0265 48.8391 10.6623 48.1949 10.8051C47.8925 10.8724 40.9635 12.508 38.7957 20.5433C38.6529 21.0782 38.1683 21.4311 37.639 21.4311Z" fill="#3E3A39"/>
<path d="M46.654 19.3917C46.654 19.3917 28.3456 24.517 33.7734 47.0712L39.711 55.4566L73.4149 43.772L85.9538 31.404C85.9538 31.404 81.4586 9.50788 57.9101 12.4711C56.0196 12.7091 54.2327 13.4653 52.7343 14.636L46.654 19.3917Z" fill="#A48B78"/>
<path d="M53.0198 60.916L48.8691 84.1537L51.2974 92.2086L71.4906 104.204L77.2853 84.515L69.6113 81.3501L72.3616 66.6855L53.0198 60.916Z" fill="white"/>
<path d="M50.184 66.9801C56.3624 73.9539 69.6127 74.7381 69.6127 74.7381C85.2575 73.8335 83.1066 58.0318 83.1066 58.0318L83.7451 53.4386L85.0531 42.8966L77.956 29.3047L48.1395 30.9403L42.3672 55.6651L50.1812 66.9801H50.184Z" fill="white"/>
<path d="M52.2249 69.0996C52.2249 69.0996 62.0667 75.9446 71.0262 74.8467L69.6119 81.3528C69.6119 81.3528 56.933 80.717 52.0625 71.6399L52.2249 69.0996Z" fill="#DCDDDD"/>
<path d="M71.6095 30.4533C71.6095 30.4533 70.4024 38.3737 61.9274 40.7039L56.578 40.6031C56.578 40.6031 52.2425 47.2632 47.3832 47.8374L43.6863 48.7168L37.6367 47.0728L44.0336 26.7983L61.5577 18.1973L77.015 19.4856C77.015 19.4856 88.5175 25.8657 85.8008 37.1218L85.4788 40.0962C85.4788 40.0962 75.7126 36.416 73.9706 28.1371L71.6067 30.4589L71.6095 30.4533Z" fill="#A48B78"/>
<path d="M69.1748 59.0837C68.4635 59.0837 67.8865 58.5096 67.8809 57.7982C67.8753 57.084 68.4523 56.5014 69.1664 56.4958L69.973 56.4902H69.9814C70.6928 56.4902 71.2698 57.0644 71.2754 57.7758C71.281 58.49 70.704 59.0725 69.9898 59.0781L69.1832 59.0837H69.1748Z" fill="#3E3A39"/>
<path d="M75.51 47.4153L75.566 47.4137C76.641 47.3843 77.5413 48.2337 77.5708 49.3116L77.5724 49.3676C77.6018 50.4427 76.7523 51.3429 75.6745 51.3725L75.6185 51.374C74.5434 51.4035 73.6432 50.554 73.6136 49.4761L73.6121 49.4201C73.5825 48.3422 74.4321 47.4448 75.51 47.4153Z" fill="#3E3A39"/>
<path d="M58.7468 48.5857L58.6936 48.5871C57.6158 48.6167 56.7661 49.5143 56.7957 50.592L56.7971 50.6452C56.8267 51.7229 57.7243 52.5726 58.802 52.5431L58.8552 52.5416C59.9329 52.5121 60.7826 51.6145 60.7531 50.5368L60.7516 50.4836C60.7221 49.4059 59.8245 48.5561 58.7468 48.5857Z" fill="#3E3A39"/>
<path d="M79.5023 43.0185C79.2671 43.0185 79.0318 42.954 78.819 42.8224C78.7769 42.7972 77.2534 41.8926 74.8447 41.8926C74.1305 41.8926 73.5508 41.3128 73.5508 40.5986C73.5508 39.8844 74.1305 39.3047 74.8447 39.3047C78.0656 39.3047 80.1101 40.5762 80.1969 40.6322C80.8019 41.0159 80.9783 41.8141 80.5974 42.4191C80.351 42.8084 79.9308 43.0213 79.5023 43.0213V43.0185Z" fill="#3E3A39"/>
<path d="M90.8168 168.402C90.1082 168.402 89.5313 167.83 89.5229 167.119L89.4473 159.453C89.4473 157.862 89.5873 156.277 89.8646 154.723C93.6596 133.527 92.5253 124.562 91.3238 115.07C91.0297 112.754 90.7272 110.356 90.4863 107.743C90.4219 107.032 90.9457 106.402 91.657 106.337C92.3684 106.273 92.9986 106.797 93.063 107.508C93.2983 110.076 93.5979 112.449 93.8892 114.745C95.1159 124.439 96.2754 133.594 92.4104 155.179C92.1584 156.58 92.0323 158.014 92.0323 159.439L92.108 167.091C92.1164 167.805 91.5422 168.39 90.828 168.396C90.8224 168.396 90.8196 168.396 90.814 168.396L90.8168 168.402Z" fill="#3E3A39"/>
<path d="M74.1736 165.816L39.9094 163.41C38.3046 163.298 37.0919 161.904 37.2067 160.299L40.6348 111.449C40.7469 109.844 42.1416 108.631 43.7464 108.746L78.0106 111.152C79.6154 111.264 80.8281 112.658 80.7133 114.263L77.2852 163.114C77.1731 164.718 75.7784 165.931 74.1736 165.816Z" fill="white"/>
<path d="M74.1736 165.816L39.9094 163.41C38.3046 163.298 37.0919 161.904 37.2067 160.299L40.6348 111.449C40.7469 109.844 42.1416 108.631 43.7464 108.746L78.0106 111.152C79.6154 111.264 80.8281 112.658 80.7133 114.263L77.2852 163.114C77.1731 164.718 75.7784 165.931 74.1736 165.816Z" fill="white"/>
<path d="M74.3843 167.119C74.2835 167.119 74.1855 167.116 74.0846 167.108C74.0734 167.108 74.0622 167.108 74.0482 167.105L52.6002 165.004C51.8889 164.934 51.3679 164.301 51.4379 163.59C51.508 162.879 52.1437 162.358 52.8523 162.428L74.2779 164.526C74.7036 164.551 75.1153 164.411 75.4402 164.131C75.7679 163.848 75.9639 163.453 75.9947 163.022C76.0451 162.307 76.6585 161.767 77.3755 161.82C78.0869 161.87 78.6246 162.489 78.577 163.201C78.4986 164.321 77.9888 165.346 77.1402 166.083C76.3672 166.755 75.3982 167.116 74.3871 167.116L74.3843 167.119Z" fill="#3E3A39"/>
<path d="M77.2885 164.408C77.2577 164.408 77.2269 164.408 77.1961 164.405C76.4847 164.355 75.947 163.736 75.9974 163.024L76.1038 161.515C76.1543 160.801 76.7732 160.263 77.4846 160.316C78.196 160.367 78.7337 160.986 78.6833 161.697L78.5769 163.206C78.5293 163.887 77.9607 164.411 77.2885 164.411V164.408Z" fill="#3E3A39"/>
<path d="M38.4141 144.426C38.3833 144.426 38.3525 144.426 38.3216 144.423C37.6075 144.372 37.0725 143.754 37.1201 143.042L39.3439 111.36C39.5064 109.044 41.5257 107.291 43.8363 107.456L78.1004 109.862C79.2207 109.94 80.2458 110.45 80.9823 111.299C81.7189 112.147 82.083 113.234 82.0046 114.354L80.9375 129.554C80.8871 130.265 80.271 130.806 79.5568 130.755C78.8454 130.705 78.3076 130.086 78.3553 129.375L79.4223 114.172C79.4531 113.741 79.3131 113.321 79.0302 112.996C78.7474 112.668 78.3525 112.472 77.9211 112.441L43.657 110.036C42.758 109.971 41.9878 110.649 41.9262 111.54L39.7024 143.221C39.6548 143.905 39.0862 144.426 38.4141 144.426Z" fill="#3E3A39"/>
<path d="M65.0839 120.652C65.053 120.652 65.025 120.652 64.9942 120.649L55.1497 119.957C54.8024 119.932 54.4775 119.769 54.2534 119.503L51.9204 116.747L44.2884 116.212C43.5743 116.162 43.0393 115.543 43.0869 114.832C43.1373 114.12 43.7535 113.58 44.4677 113.63L52.643 114.204C52.9903 114.23 53.3152 114.392 53.5393 114.658L55.8723 117.414L64.5237 118.022L67.0388 115.089C67.3048 114.779 67.7053 114.613 68.1114 114.641L76.6621 115.241C77.3734 115.291 77.9112 115.91 77.8636 116.621C77.8132 117.336 77.1942 117.873 76.4828 117.823L68.582 117.268L66.0669 120.201C65.8204 120.489 65.462 120.652 65.0839 120.652Z" fill="#3E3A39"/>
<path d="M63.8392 140.913L68.9281 135.15C68.9281 135.15 73.062 134.329 78.4926 132.861C78.4926 132.861 78.515 132.873 78.557 132.892C80.3243 133.788 80.159 136.371 78.2994 137.062L75.437 138.127L73.5045 143.65L62.0859 143.574L63.8364 140.913H63.8392Z" fill="white"/>
<path d="M72.6794 139.762L82.2606 140.403C82.2606 140.403 84.5544 141.943 83.6946 144.851C83.6946 144.851 85.0866 147.234 84.1063 149.503C84.1063 149.503 85.3246 151.631 83.8655 153.505C83.8655 153.505 84.6105 156.037 81.975 157.572C81.975 157.572 80.1685 159.098 74.7407 157.812L62.8404 155.939L38.1632 160.367L31.9512 148.139L72.6822 139.765L72.6794 139.762Z" fill="white"/>
<path d="M77.8934 159.869C77.154 159.869 76.3222 159.81 75.3923 159.664L63.6797 157.819L58.4423 158.55C57.7337 158.65 57.0811 158.155 56.9831 157.446C56.8851 156.737 57.378 156.085 58.0866 155.987L63.5144 155.231C63.6405 155.214 63.7693 155.214 63.8953 155.234L75.7956 157.11C79.4142 157.673 80.9938 156.681 81.1534 156.572C81.215 156.516 81.2458 156.502 81.3242 156.455C82.9571 155.505 82.691 154.122 82.621 153.856C82.5034 153.455 82.5902 153.041 82.8478 152.713C83.7413 151.565 83.0103 150.198 82.9795 150.139C82.789 149.789 82.7638 149.36 82.9207 148.993C83.6208 147.372 82.5846 145.518 82.5762 145.501C82.4025 145.196 82.3577 144.826 82.4557 144.487C82.8955 143.003 82.1729 142.062 81.764 141.67L72.5972 141.056C71.8858 141.009 71.3453 140.392 71.3929 139.678C71.4405 138.964 72.0566 138.424 72.7708 138.474L82.3521 139.115C82.579 139.129 82.7974 139.205 82.9879 139.331C83.9933 140.006 85.6318 141.955 85.0688 144.706C85.4609 145.582 86.1079 147.473 85.5113 149.444C85.9399 150.534 86.1751 152.223 85.2397 153.797C85.3881 155.149 84.9932 157.278 82.705 158.65C82.2793 158.964 80.7921 159.874 77.9018 159.874L77.8934 159.869Z" fill="#3E3A39"/>
<path d="M56.2981 144.426C55.7071 144.426 55.1722 144.017 55.0377 143.418C54.8809 142.72 55.3178 142.029 56.0152 141.869L61.9527 140.525L67.4898 134.783C68.0023 134.251 68.6549 133.89 69.3775 133.738C70.6462 133.469 74.0463 132.724 78.1606 131.615C78.4406 131.54 78.7515 131.565 79.0204 131.68C79.0204 131.68 79.0652 131.699 79.1464 131.741C80.4235 132.388 81.1657 133.682 81.0845 135.116C81.0033 136.564 80.1099 137.774 78.7543 138.278L75.892 139.343C75.2198 139.592 74.4776 139.25 74.2283 138.581C73.9791 137.911 74.3208 137.166 74.9901 136.917L77.8525 135.853C78.4182 135.643 78.491 135.125 78.4994 134.971C78.5078 134.825 78.4938 134.517 78.2642 134.265C74.3432 135.307 71.1419 136.01 69.9096 136.27C69.6968 136.315 69.5007 136.421 69.3495 136.581L63.5436 142.6C63.3699 142.782 63.1431 142.908 62.8994 142.964L56.5837 144.395C56.4885 144.418 56.3905 144.429 56.2981 144.429V144.426Z" fill="#3E3A39"/>
<path d="M45.5684 50.6504C45.5684 50.6504 41.7202 42.5871 36.9085 48.5218C36.9085 48.5218 28.6408 65.1329 49.5118 62.4554L50.6237 54.5434L45.5684 50.6504Z" fill="white"/>
<path d="M68.4135 76.6307C63.9911 76.6307 59.8012 74.5722 56.2471 72.5221C55.6282 72.1664 55.4153 71.3738 55.7738 70.7548C56.1323 70.1359 56.9221 69.923 57.5411 70.2815C62.4367 73.1046 65.8984 74.2221 69.1305 74.0205C73.8525 73.7208 77.4122 70.9901 79.7088 65.9012C81.4985 61.9325 81.815 57.9723 81.8178 57.9331C81.871 57.2217 82.4955 56.6868 83.2041 56.74C83.9155 56.7932 84.4504 57.4122 84.3972 58.1235C84.3832 58.3 84.0555 62.5207 82.095 66.8982C79.4147 72.8862 74.9868 76.2415 69.2901 76.6027C68.996 76.6224 68.702 76.6307 68.4107 76.6307H68.4135Z" fill="#3E3A39"/>
<path d="M69.5946 80.9682C69.5134 80.9682 69.4294 80.9598 69.3453 80.943C68.6452 80.8058 68.1858 80.1252 68.3231 79.425L69.1689 75.0895C69.3061 74.3893 69.9839 73.93 70.6869 74.0672C71.3871 74.2045 71.8464 74.885 71.7092 75.5852L70.8633 79.9207C70.7429 80.5397 70.2024 80.9682 69.5946 80.9682Z" fill="#3E3A39"/>
<path d="M49.3271 82.8991C49.2375 82.8991 49.1451 82.8907 49.0554 82.8711C48.3553 82.7227 47.9127 82.0337 48.0612 81.3363L49.9993 72.276C50.1253 71.6906 50.0805 71.0913 49.8732 70.5339L46.546 65.6382C46.1455 65.0473 46.2967 64.2435 46.8877 63.8402C47.4786 63.4369 48.2824 63.5909 48.6857 64.1819L52.167 69.3016L52.2175 69.422C52.6684 70.5003 52.7748 71.6738 52.5311 72.8137L50.5958 81.8713C50.467 82.479 49.9293 82.8963 49.3327 82.8963L49.3271 82.8991Z" fill="#3E3A39"/>
<path d="M83.7483 54.7342C83.7035 54.7342 83.6587 54.7342 83.6139 54.7286C82.9025 54.6558 82.3872 54.02 82.46 53.3086L83.7679 40.5709C83.8407 39.8595 84.4821 39.3442 85.1879 39.417C85.8993 39.4898 86.4146 40.1256 86.3418 40.837L85.0338 53.5747C84.9666 54.2413 84.4037 54.737 83.7483 54.737V54.7342Z" fill="#3E3A39"/>
<path d="M43.8519 63.747C40.5526 63.747 38.4773 62.3326 37.2645 61.0302C34.265 57.8094 34.0017 52.7905 34.5394 50.3847C34.9904 48.371 36.4439 46.7129 38.3316 46.0604C42.3199 44.6824 45.017 48.2449 45.129 48.399C45.5547 48.9731 45.4343 49.7825 44.8601 50.2082C44.286 50.6311 43.4794 50.5135 43.0537 49.9422C42.9724 49.8357 41.3508 47.7548 39.1774 48.5054C38.13 48.8667 37.3206 49.8021 37.0657 50.9476C36.626 52.9193 36.9845 56.93 39.1606 59.2658C40.6226 60.837 42.7148 61.4335 45.3783 61.0386C46.084 60.9322 46.7422 61.4195 46.8486 62.1281C46.9551 62.8339 46.4649 63.4921 45.7592 63.5985C45.0842 63.6993 44.4484 63.7442 43.8519 63.7442V63.747Z" fill="#3E3A39"/>
<path d="M85.8033 38.4117C85.7417 38.4117 85.68 38.4061 85.6156 38.3977C84.907 38.2941 84.4169 37.6387 84.5205 36.9329C85.47 30.3736 83.7307 24.9122 79.3504 20.6999C76.0203 17.4987 72.329 16.2355 72.2926 16.2243L72.2478 16.2075C65.4896 13.6785 59.3196 13.3536 54.4071 15.2693C50.7186 16.7061 48.9849 18.9242 48.9681 18.9466C48.534 19.5096 47.7246 19.6216 47.156 19.1903C46.5903 18.759 46.4755 17.9552 46.904 17.3838C46.988 17.2718 48.9961 14.6503 53.2896 12.9251C57.1546 11.3735 63.7363 10.2616 73.1328 13.7737C73.5221 13.9081 77.4291 15.2973 81.0616 18.7562C84.5514 22.0779 88.4276 27.9902 87.0804 37.2998C86.988 37.944 86.4334 38.4089 85.8005 38.4089L85.8033 38.4117Z" fill="#3E3A39"/>
<path d="M61.23 42.205C60.7399 42.205 60.2694 41.9249 60.0509 41.4488C59.754 40.799 60.0397 40.0316 60.6923 39.7347C69.3017 35.8081 69.7918 29.8594 69.8058 29.6073C69.8535 28.8987 70.464 28.3554 71.1726 28.3946C71.8812 28.4366 72.4245 29.0359 72.3909 29.7473C72.3741 30.061 71.884 37.4717 61.765 42.0873C61.5913 42.1658 61.4093 42.205 61.23 42.205Z" fill="#3E3A39"/>
<path d="M46.6833 49.1303C46.1595 49.1303 45.6638 48.8082 45.4705 48.2873C45.2213 47.6179 45.5602 46.8729 46.2295 46.6237C57.9114 42.2685 58.7936 34.0624 58.8244 33.7151C58.8888 33.0065 59.5162 32.4828 60.2248 32.5416C60.9334 32.6032 61.4599 33.2222 61.4039 33.9308C61.3703 34.3425 60.432 44.089 47.1342 49.0491C46.9857 49.1051 46.8317 49.1303 46.6833 49.1303Z" fill="#3E3A39"/>
<path d="M82.66 39.6105C82.52 39.6105 82.3772 39.5881 82.2371 39.5377C76.0503 37.3951 73.6893 28.8277 73.5913 28.4636C73.4064 27.7746 73.8153 27.0633 74.5071 26.8784C75.1989 26.6936 75.9047 27.1025 76.0923 27.7914C76.1119 27.8671 78.1985 35.3982 83.0858 37.0899C83.7607 37.3223 84.1192 38.0589 83.884 38.7367C83.6991 39.2716 83.1978 39.6077 82.66 39.6077V39.6105Z" fill="#3E3A39"/>
<path d="M34.1997 48.3665C33.6087 48.3665 33.0766 47.9604 32.9394 47.3611C30.2339 35.5112 33.1382 28.6858 36.0538 25.0477C39.2774 21.023 43.1788 19.9111 43.3441 19.8663C44.0331 19.6787 44.7444 20.082 44.9349 20.7709C45.1253 21.4571 44.722 22.1685 44.0359 22.3618C43.4841 22.5186 30.8024 26.3864 35.4628 46.7897C35.6225 47.4871 35.1856 48.1789 34.4882 48.3385C34.3901 48.3609 34.2949 48.3721 34.1997 48.3721V48.3665Z" fill="#3E3A39"/>
<path d="M53.9579 109.606C53.3334 109.606 52.7816 109.152 52.6808 108.513C50.2974 93.4258 42.615 85.9367 42.5366 85.861C42.0212 85.3681 42.0016 84.5503 42.4917 84.0322C42.9847 83.5168 43.7997 83.4944 44.3178 83.9846C44.6595 84.3094 52.706 92.0955 55.2351 108.107C55.3471 108.813 54.8654 109.477 54.1596 109.586C54.0924 109.597 54.0223 109.603 53.9551 109.603L53.9579 109.606Z" fill="#3E3A39"/>
<path d="M43.0107 109.607C42.431 109.607 41.9017 109.212 41.756 108.624C39.0197 97.6028 34.2333 89.6488 34.1857 89.5704C33.816 88.9598 34.0092 88.1644 34.6198 87.7919C35.2303 87.4222 36.0257 87.6126 36.3982 88.2232C36.6027 88.5593 41.4339 96.575 44.2683 107.999C44.4419 108.694 44.019 109.394 43.3244 109.568C43.2208 109.593 43.1144 109.607 43.0107 109.607Z" fill="#3E3A39"/>
<path d="M83.7453 109.607C83.0872 109.607 82.5242 109.108 82.4598 108.439C80.8718 92.1809 74.3377 84.2408 74.2705 84.1652C73.8111 83.6191 73.8812 82.8041 74.4245 82.3419C74.9706 81.8826 75.7829 81.9498 76.245 82.4932C76.5335 82.8349 83.3588 91.0578 85.0337 108.19C85.1037 108.901 84.5827 109.534 83.8714 109.604C83.8293 109.607 83.7873 109.61 83.7425 109.61L83.7453 109.607Z" fill="#3E3A39"/>
<path d="M68.6745 111.671C68.0359 111.671 67.4813 111.2 67.3945 110.551C67.2993 109.842 67.795 109.19 68.5036 109.094L88.7109 106.35C89.4166 106.254 90.072 106.75 90.1672 107.459C90.2625 108.167 89.7667 108.82 89.0582 108.915L68.8509 111.66C68.7921 111.668 68.7333 111.671 68.6745 111.671Z" fill="#3E3A39"/>
<path d="M90.6095 105.825C89.9457 105.825 89.3828 105.318 89.3212 104.646C88.4305 94.7538 84.3078 88.5894 84.2686 88.5278C83.8681 87.9369 84.0194 87.1331 84.6103 86.7298C85.2013 86.3264 86.0051 86.4777 86.4056 87.0686C86.5904 87.3375 90.9456 93.81 91.9006 104.414C91.965 105.125 91.4385 105.755 90.7271 105.82C90.6879 105.822 90.6487 105.825 90.6095 105.825Z" fill="#3E3A39"/>
<path d="M61.9134 91.5673C55.6118 91.5673 49.7779 89.6096 49.3802 89.4751C48.7052 89.2427 48.3439 88.5089 48.5764 87.8311C48.8088 87.1561 49.5426 86.7948 50.2204 87.0245C50.4025 87.0861 65.1371 92.0098 71.87 85.9686C72.4022 85.4925 73.22 85.5373 73.6961 86.0666C74.1722 86.5988 74.1274 87.4166 73.5981 87.8927C70.4641 90.7046 66.0865 91.5617 61.9162 91.5617L61.9134 91.5673Z" fill="#3E3A39"/>
<path d="M18.2184 148.909C18.1539 148.909 18.0895 148.903 18.0251 148.895C17.3193 148.788 16.832 148.13 16.9384 147.424L23.5957 102.991C24.6628 95.8739 29.1384 89.7011 35.5689 86.4803C38.0391 85.2423 41.4672 83.7524 44.2203 82.5537C45.9596 81.7975 47.9145 80.946 48.441 80.6576C48.5838 80.5231 48.7575 80.4223 48.9591 80.3635C49.6453 80.1618 50.3651 80.5539 50.5668 81.2401C50.9085 82.3996 49.9254 82.8477 48.5642 83.4695C47.7296 83.8504 46.5813 84.3489 45.2538 84.9287C42.5287 86.1162 39.1342 87.5922 36.7284 88.7965C31.0485 91.6392 27.0967 97.0894 26.1556 103.374L19.4983 147.808C19.4031 148.449 18.8513 148.911 18.2212 148.911L18.2184 148.909ZM48.0321 81.6714C48.0377 81.7666 48.0517 81.8647 48.0825 81.9655C48.0545 81.8675 48.0377 81.7694 48.0321 81.6714Z" fill="#3E3A39"/>
<path d="M68.9614 68.6998C64.8051 68.6998 62.9118 65.4201 62.4917 63.6809C62.3517 63.0955 62.6457 62.4934 63.1947 62.2469C69.0622 59.5918 73.8935 61.3395 74.0951 61.4179C74.5852 61.5999 74.9101 62.0677 74.9101 62.5914C74.9101 64.4231 74.3556 65.9019 73.2633 66.9857C71.5409 68.697 69.1014 68.7054 69.0118 68.6998C68.995 68.6998 68.9782 68.6998 68.9586 68.6998H68.9614ZM65.3344 64.0814C65.8414 64.9944 66.9 66.1931 68.9754 66.1931C68.9866 66.1931 68.9978 66.1931 69.0118 66.1931C69.5271 66.1903 71.8517 66.0335 72.3223 63.5324C71.0087 63.2664 68.3956 62.9975 65.3372 64.0814H65.3344Z" fill="#3E3A39"/>
<path d="M104.725 91.3507L99.4371 91.0566L98.793 109.522L117.124 116.23L118.073 91.0566L114.659 91.3703L104.725 91.3507Z" fill="white"/>
<path d="M102.067 109.117L99.168 123.925C99.168 123.925 109.125 133.576 116.082 126.157L117.401 119.415L117.305 110.75C117.305 110.75 111.474 112.047 102.064 109.117H102.067Z" fill="white"/>
<path d="M111.545 129.752C109.554 129.752 106.927 129.119 103.325 127.553C103.286 127.536 103.249 127.519 103.213 127.497L93.0434 121.823C92.4384 121.487 92.2228 120.722 92.5589 120.117C92.895 119.512 93.6595 119.296 94.2645 119.632L104.381 125.276C112.864 128.951 114.206 126.833 115.757 124.385C116.172 123.733 116.152 121.621 116.147 120.719V120.397C116.147 120.397 116.147 120.375 116.147 120.363L116.824 89.7543C116.838 89.0625 117.407 88.5136 118.104 88.5276C118.796 88.5416 119.345 89.1158 119.331 89.8075L118.653 120.4V120.697C118.67 122.596 118.622 124.548 117.877 125.724C116.485 127.923 114.928 129.746 111.551 129.746L111.545 129.752Z" fill="#3E3A39"/>
<path d="M99.1672 100.935C98.8423 100.935 98.5203 100.812 98.2738 100.563C98.0441 100.33 92.6331 94.8464 92.0982 94.2722C87.9503 89.8275 80.0887 86.6543 80.0102 86.6235C79.985 86.6123 79.9626 86.6038 79.9374 86.5926L71.3308 82.5176C70.7062 82.2207 70.4373 81.4729 70.7342 80.8484C71.0311 80.2238 71.7789 79.9549 72.4035 80.2518L80.9765 84.3101C81.6683 84.5901 89.5047 87.8194 93.9299 92.561C94.3416 93.0007 98.1169 96.8349 100.058 98.801C100.545 99.2939 100.54 100.087 100.047 100.574C99.803 100.815 99.4837 100.935 99.1672 100.935Z" fill="#3E3A39"/>
<path d="M110.276 91.9256C106.064 91.9256 102.42 91.8836 102.367 91.8836C101.675 91.8752 101.121 91.3067 101.129 90.6149C101.137 89.9231 101.703 89.3742 102.398 89.377C102.479 89.377 110.649 89.4722 116.653 89.377C116.659 89.377 116.667 89.377 116.673 89.377C117.356 89.377 117.914 89.9259 117.925 90.6093C117.936 91.3011 117.384 91.8724 116.693 91.8808C114.668 91.9144 112.402 91.9228 110.279 91.9228L110.276 91.9256Z" fill="#3E3A39"/>
<path d="M99.4366 110.372C99.4366 110.372 99.4198 110.372 99.4086 110.372C98.7168 110.358 98.1679 109.783 98.1819 109.092L98.5936 89.7638C98.6076 89.0805 99.165 88.5371 99.8455 88.5371C99.8539 88.5371 99.8623 88.5371 99.8735 88.5371C100.565 88.5511 101.114 89.1253 101.1 89.817L100.689 109.145C100.675 109.828 100.114 110.372 99.4366 110.372Z" fill="#3E3A39"/>
<path d="M52.4604 139.156L25.8535 147.497L21.3359 150.732C26.2988 155.49 33.0402 160.257 43.5177 165.828L58.2607 162.285L52.4576 139.159L52.4604 139.156Z" fill="white"/>
<path d="M44.4457 166.767C43.8576 166.767 43.3254 166.36 43.1854 165.764C43.0258 165.067 43.4599 164.372 44.1544 164.212L59.3456 160.706C60.043 160.543 60.7376 160.98 60.8972 161.675C61.0568 162.372 60.6227 163.067 59.9281 163.226L44.737 166.733C44.639 166.755 44.5409 166.767 44.4457 166.767Z" fill="#3E3A39"/>
<path d="M26.8053 147.635C26.2339 147.635 25.7102 147.254 25.5561 146.677C25.3713 145.988 25.7802 145.276 26.4692 145.092L53.2301 137.908C53.9191 137.723 54.6305 138.132 54.8153 138.821C55.0002 139.51 54.5913 140.221 53.9023 140.406L27.1414 147.59C27.0293 147.621 26.9173 147.635 26.8053 147.635Z" fill="#3E3A39"/>
<path d="M57.9787 160.146C57.4129 160.146 56.892 159.77 56.7323 159.196C55.0575 153.146 53.0186 142.787 52.999 142.683C52.8617 141.983 53.3183 141.302 54.0184 141.165C54.7186 141.028 55.3992 141.484 55.5364 142.184C55.556 142.288 57.5782 152.55 59.225 158.504C59.4154 159.193 59.0121 159.905 58.3232 160.098C58.2083 160.129 58.0907 160.146 57.9759 160.146H57.9787Z" fill="#3E3A39"/>
</g>
<defs>
<clipPath id="clip0_266_6988">
<rect width="140" height="170.424" fill="white"/>
</clipPath>
</defs>
</svg>
