<svg width="140" height="171" viewBox="0 0 140 171" fill="none" xmlns="http://www.w3.org/2000/svg">
<g clip-path="url(#clip0_266_7160)">
<path d="M77.7085 164.403C77.6777 164.403 77.6469 164.403 77.616 164.4C76.9047 164.35 76.3669 163.731 76.4173 163.019L76.5238 161.509C76.5742 160.795 77.1931 160.26 77.9045 160.31C78.6159 160.36 79.1536 160.98 79.1032 161.691L78.9968 163.201C78.9492 163.882 78.3806 164.406 77.7085 164.406V164.403Z" fill="#3E3A39"/>
<path d="M91.1301 166.2C84.4644 168.309 77.3645 169.447 69.9986 169.447C31.3401 169.447 0 138.097 0 99.4269C0 60.7568 31.3401 29.4043 69.9986 29.4043C108.657 29.4043 139.997 60.754 139.997 99.4241C139.997 129.648 120.857 155.397 94.04 165.205C93.0794 165.555 92.1075 165.889 91.1301 166.197V166.2Z" fill="#FFF22E"/>
<path d="M79.8379 87.7734C79.8379 87.7734 86.0107 88.5607 92.5084 93.2337L103.515 100.061L101.093 124.684L80.9862 115.344L79.8379 87.7734Z" fill="white"/>
<path d="M112.705 30.234V33.7808H107.641V30.234H99.1465V26.1269L106.487 14.4219H112.705V25.9868H115.209V30.234H112.705ZM107.641 25.9868V19.9382L103.843 25.9868H107.641Z" fill="#3E3A39"/>
<path d="M90.9712 3.52974C91.6433 3.23837 92.7076 2.77611 93.8335 2.89378C95.0126 3.01425 95.878 3.73986 96.3766 4.8885C96.9647 6.24447 96.6959 7.40432 96.0041 8.28402C95.3487 9.11889 94.3741 9.54192 93.6795 9.84169L93.1697 10.063L94.2144 12.4724L91.8058 13.5174L88.0332 4.80446L90.974 3.52974H90.9712ZM92.4051 8.30082L92.9149 8.0795C93.2145 7.94783 93.6319 7.76852 93.8671 7.41833C94.0996 7.06813 94.1276 6.56104 93.8867 6.00633C93.6459 5.45162 93.2566 5.12383 92.842 5.0566C92.4275 4.98936 92.0102 5.16866 91.7106 5.30033L91.2008 5.52166L92.4051 8.30082Z" fill="#3E3A39"/>
<path d="M103.993 9.88656C100.92 10.2564 99.0746 8.42974 98.7301 5.57213C98.3744 2.61366 99.8392 0.414424 102.886 0.0474174C105.959 -0.322391 107.804 1.50424 108.149 4.36185C108.505 7.32031 107.04 9.51955 103.993 9.88656ZM105.396 4.73166C105.155 2.72573 104.382 1.80121 103.08 1.95809C101.774 2.11498 101.245 3.19639 101.486 5.20232C101.727 7.20825 102.5 8.13277 103.802 7.97588C105.105 7.81899 105.637 6.73759 105.396 4.73166Z" fill="#3E3A39"/>
<path d="M113.457 0.308862L112.474 9.75578L109.861 9.48403L110.847 0.0371094L113.46 0.308862H113.457Z" fill="#3E3A39"/>
<path d="M119.507 1.5605L121.207 7.7604L122.888 2.67553L125.044 3.38994L122.064 12.4054L119.908 11.691L117.997 5.15493L116.239 10.4779L114.082 9.76353L117.062 0.748047L119.507 1.5577V1.5605Z" fill="#3E3A39"/>
<path d="M134.078 8.9541L132.975 10.6154L130.997 9.30149L126.849 15.5518L124.662 14.1006L128.81 7.85028L126.833 6.53634L127.936 4.875L134.078 8.9541Z" fill="#3E3A39"/>
<path d="M90.6113 163.803L91.1631 163.814L91.7736 152.986L91.0314 157.581L90.6113 163.803Z" fill="#68E6E0"/>
<path d="M21.7584 150.719L26.276 147.484L40.7389 143.13L43.4332 112.957L91.0316 107.194L93.541 121.734L93.6391 119.972L90.8299 95.8786C90.4967 93.0182 88.5922 90.5864 85.8979 89.575L70.155 83.6777L52.2835 79.6406L42.677 84.9412L30.6143 92.0768C30.6143 92.0768 25.3741 99.3077 24.6375 107.528L18.7168 147.613C19.6971 148.677 20.7109 149.714 21.7556 150.717L21.7584 150.719Z" fill="white"/>
<path d="M92.9761 145.576C94.9758 138.611 93.6398 122.311 93.6398 122.311L93.5418 121.734L91.7773 152.983L92.9761 145.573V145.576Z" fill="#68E6E0"/>
<path d="M55.6134 163.265L45.2227 165.904C52.9247 168.82 61.2736 170.42 69.9951 170.42C77.0137 170.42 83.7887 169.383 90.1799 167.462L90.0455 160.514L55.6134 163.265Z" fill="#02D0DA"/>
<path d="M43.4326 112.956L40.7383 143.132L53.9885 139.143L60.0577 161.959L55.8118 163.034L90.6108 163.802L91.031 157.58L91.7731 152.985L93.5376 121.736L91.031 107.193L43.4326 112.956Z" fill="#02D0DA"/>
<path d="M38.5801 162.656C38.7117 162.723 38.8461 162.788 38.9778 162.855L38.9946 162.667L38.5801 162.659V162.656Z" fill="#68E6E0"/>
<path d="M38.9766 162.854C41.0659 163.898 43.2169 164.839 45.421 165.674L55.8117 163.036L38.9934 162.666L38.9766 162.854Z" fill="white"/>
<path d="M53.9892 139.143L40.739 143.132L38.9941 162.665L55.8125 163.034L60.0584 161.959L53.9892 139.143Z" fill="white"/>
<path d="M35.7129 88.0651C35.7129 88.0651 42.6559 102.235 43.4345 111.31L55.3152 110.214C55.3152 110.214 48.8959 86.8072 44.2999 84.8965L35.7157 88.0651H35.7129Z" fill="#02D0DA"/>
<path d="M76.0742 83.8086C76.0742 83.8086 84.1207 96.0011 84.0731 107.975L91.0329 107.193C91.0329 107.193 89.837 89.6919 84.0731 86.9043L76.0742 83.8086Z" fill="#02D0DA"/>
<path d="M32.1258 15.5478C32.1258 21.6636 37.8617 26.7569 43.9757 26.7569C50.0897 26.7569 56.7807 21.6664 56.7807 15.5478C56.7807 9.42911 51.8822 3.49537 44.5191 3.97444C34.9714 4.59639 32.123 9.42911 32.123 15.5478H32.1258Z" fill="#A48B78"/>
<path d="M43.9763 27.9588C37.0249 27.9588 30.9277 22.1595 30.9277 15.5506C30.9277 7.66132 35.4761 3.3637 44.4441 2.78097C48.0234 2.54844 51.3731 3.7195 53.8881 6.07843C56.49 8.5158 57.9828 11.9701 57.9828 15.5506C57.9828 22.5377 50.4544 27.9588 43.9763 27.9588ZM45.3683 5.1483C45.119 5.1483 44.8642 5.15671 44.6009 5.17352C36.9101 5.675 33.328 8.96965 33.328 15.5478C33.328 20.8792 38.3049 25.555 43.9791 25.555C49.2361 25.555 55.5853 21.0893 55.5853 15.5478C55.5853 12.6285 54.3698 9.81293 52.2497 7.82661C50.9165 6.57711 48.6675 5.1483 45.3683 5.1483Z" fill="#3E3A39"/>
<path d="M38.0589 21.3823C37.9553 21.3823 37.8489 21.3683 37.7452 21.3403C37.1067 21.1666 36.7258 20.5082 36.8994 19.8695C39.4593 10.3777 47.7522 8.48385 48.1051 8.40821C48.7521 8.26813 49.3907 8.67996 49.5307 9.32713C49.6707 9.97429 49.259 10.6102 48.6149 10.7531C48.3124 10.8204 41.3834 12.4565 39.2156 20.4942C39.0728 21.0293 38.5883 21.3823 38.0589 21.3823Z" fill="#3E3A39"/>
<path d="M47.0739 19.3411C47.0739 19.3411 28.7655 24.468 34.1933 47.0291L40.1309 55.417L73.8348 43.7288L86.3737 31.3571C86.3737 31.3571 81.8785 9.45433 58.33 12.4184C56.4395 12.6565 54.6527 13.413 53.1543 14.584L47.0739 19.3411Z" fill="#A48B78"/>
<path d="M53.4397 60.8789L49.2891 84.1236L51.7173 92.1809L71.9133 104.18L77.708 84.485L70.0341 81.3192L72.7816 66.6502L53.4397 60.8789Z" fill="white"/>
<path d="M50.6059 66.9427C56.7843 73.9186 70.0345 74.7031 70.0345 74.7031C85.6794 73.7981 83.5285 57.9916 83.5285 57.9916L84.167 53.3971L85.475 42.8519L78.3779 29.2559L48.5614 30.892L42.7891 55.6243L50.6031 66.9427H50.6059Z" fill="white"/>
<path d="M52.6488 69.0645C52.6488 69.0645 62.4905 75.9115 71.4501 74.8133L70.0357 81.3214C70.0357 81.3214 57.3568 80.6854 52.4863 71.6055L52.6488 69.0645Z" fill="#DCDDDD"/>
<path d="M72.0295 30.4062C72.0295 30.4062 70.8224 38.3291 62.3474 40.66L56.998 40.5591C56.998 40.5591 52.6624 47.2213 47.8032 47.7956L44.1062 48.6753L38.0566 47.0308L44.4535 26.7501L61.9777 18.1465L77.4349 19.4352C77.4349 19.4352 88.9375 25.8172 86.2208 37.0767L85.8987 40.052C85.8987 40.052 76.1325 36.3708 74.3905 28.0893L72.0267 30.4118L72.0295 30.4062Z" fill="#A48B78"/>
<path d="M69.5987 59.0446C68.8873 59.0446 68.3103 58.4705 68.3047 57.7591C68.2991 57.0449 68.8761 56.4624 69.5903 56.4568L70.3969 56.4512H70.4053C71.1167 56.4512 71.6936 57.0253 71.6992 57.7367C71.7048 58.4509 71.1279 59.0334 70.4137 59.039L69.6071 59.0446H69.5987Z" fill="#3E3A39"/>
<path d="M75.9831 47.3708L75.9299 47.3723C74.8522 47.4018 74.0025 48.2997 74.032 49.3777L74.0335 49.431C74.063 50.509 74.9606 51.359 76.0383 51.3294L76.0915 51.328C77.1692 51.2984 78.0189 50.4005 77.9894 49.3225L77.9879 49.2693C77.9584 48.1912 77.0608 47.3413 75.9831 47.3708Z" fill="#3E3A39"/>
<path d="M59.1647 48.5427L59.1115 48.5442C58.0338 48.5737 57.1841 49.4716 57.2136 50.5496L57.2151 50.6028C57.2446 51.6809 58.1422 52.5308 59.22 52.5013L59.2732 52.4998C60.3509 52.4703 61.2006 51.5724 61.171 50.4944L61.1696 50.4412C61.14 49.3631 60.2424 48.5131 59.1647 48.5427Z" fill="#3E3A39"/>
<path d="M79.9223 42.9766C79.687 42.9766 79.4517 42.9122 79.2389 42.7805C79.1969 42.7553 77.6733 41.8504 75.2646 41.8504C74.5505 41.8504 73.9707 41.2704 73.9707 40.556C73.9707 39.8416 74.5505 39.2617 75.2646 39.2617C78.4855 39.2617 80.53 40.5336 80.6168 40.5897C81.2218 40.9735 81.3982 41.7719 81.0173 42.3771C80.7709 42.7665 80.3508 42.9794 79.9223 42.9794V42.9766Z" fill="#3E3A39"/>
<path d="M45.9883 50.6107C45.9883 50.6107 42.1401 42.5449 37.3285 48.4815C37.3285 48.4815 29.0607 65.0976 49.9317 62.4193L51.0436 54.5049L45.9883 50.6107Z" fill="white"/>
<path d="M68.8334 76.5999C64.4111 76.5999 60.2212 74.5436 56.667 72.4928C56.0481 72.1342 55.8352 71.3442 56.1937 70.725C56.5522 70.1059 57.342 69.8958 57.961 70.2516C62.8566 73.0755 66.324 74.1962 69.5504 73.9917C74.2724 73.6919 77.8321 70.9604 80.1287 65.8727C81.9184 61.9029 82.2349 57.9414 82.2377 57.9022C82.2909 57.1906 82.9155 56.6555 83.624 56.7087C84.3354 56.762 84.8704 57.3811 84.8172 58.0927C84.8032 58.2692 84.4755 62.4912 82.515 66.8701C79.8347 72.8598 75.4067 76.2161 69.71 76.5775C69.416 76.5971 69.1219 76.6055 68.8306 76.6055L68.8334 76.5999Z" fill="#3E3A39"/>
<path d="M70.0145 80.9371C69.9333 80.9371 69.8493 80.9287 69.7653 80.9119C69.0651 80.7746 68.6058 80.0938 68.743 79.3934L69.5888 75.0566C69.7261 74.3562 70.4038 73.8967 71.1068 74.034C71.807 74.1713 72.2663 74.8521 72.1291 75.5525L71.2833 79.8893C71.1628 80.5085 70.6223 80.9371 70.0145 80.9371Z" fill="#3E3A39"/>
<path d="M49.747 82.8679C49.6574 82.8679 49.565 82.8595 49.4754 82.8399C48.7752 82.6914 48.3327 82.0022 48.4811 81.3046L50.4192 72.2415C50.5452 71.656 50.5004 71.0564 50.2932 70.4989L46.9659 65.6018C46.5654 65.0106 46.7166 64.2066 47.3076 63.8031C47.8985 63.3997 48.7024 63.5538 49.1057 64.1449L52.587 69.2662L52.6374 69.3867C53.0883 70.4653 53.1947 71.6392 52.9511 72.7794L51.0158 81.8397C50.8869 82.4476 50.3492 82.8651 49.7526 82.8651L49.747 82.8679Z" fill="#3E3A39"/>
<path d="M84.1682 54.6959C84.1234 54.6959 84.0786 54.6959 84.0338 54.6903C83.3224 54.6174 82.8071 53.9815 82.8799 53.2699L84.1878 40.5283C84.2607 39.8167 84.902 39.3012 85.6078 39.374C86.3192 39.4469 86.8345 40.0828 86.7617 40.7944L85.4538 53.536C85.3865 54.2028 84.8236 54.6987 84.1682 54.6987V54.6959Z" fill="#3E3A39"/>
<path d="M44.2718 63.7134C40.9725 63.7134 38.8972 62.2986 37.6845 60.9958C34.6849 57.774 34.4216 52.7536 34.9594 50.347C35.4103 48.3327 36.8639 46.6742 38.7515 46.0214C42.7398 44.643 45.4369 48.2066 45.5489 48.3607C45.9746 48.935 45.8542 49.7447 45.28 50.1705C44.7059 50.5964 43.8993 50.4759 43.4736 49.9044C43.3924 49.7979 41.7707 47.7163 39.5974 48.4672C38.5499 48.8286 37.7405 49.7643 37.4856 50.9101C37.0431 52.8825 37.4044 56.8943 39.5806 59.2308C41.0425 60.8025 43.1347 61.3992 45.7982 61.0042C46.504 60.8978 47.1621 61.388 47.2686 62.094C47.375 62.8 46.8849 63.4584 46.1791 63.5649C45.5041 63.6657 44.8683 63.7105 44.2718 63.7105V63.7134Z" fill="#3E3A39"/>
<path d="M86.2252 38.3671C86.1635 38.3671 86.1019 38.3615 86.0375 38.3531C85.3289 38.2495 84.8388 37.5939 84.9424 36.8879C85.8919 30.3266 84.1526 24.8635 79.7723 20.65C76.4422 17.4478 72.7509 16.1843 72.7144 16.173L72.6696 16.1562C65.9115 13.6264 59.7415 13.3014 54.829 15.2177C51.1404 16.6577 49.4068 18.8738 49.39 18.8962C48.9559 19.4593 48.1465 19.5714 47.5779 19.1399C47.0122 18.7085 46.8973 17.9016 47.3258 17.3329C47.4099 17.2208 49.418 14.5986 53.7115 12.8728C57.5765 11.3207 64.1582 10.2085 73.5547 13.7217C73.944 13.8561 77.851 15.2457 81.4835 18.7057C84.9732 22.0283 88.8494 27.9425 87.5023 37.2549C87.4099 37.8993 86.8553 38.3643 86.2224 38.3643L86.2252 38.3671Z" fill="#3E3A39"/>
<path d="M61.6499 42.1598C61.1598 42.1598 60.6893 41.8797 60.4708 41.4034C60.174 40.7534 60.4596 39.9858 61.1122 39.6888C69.7216 35.761 70.2118 29.8105 70.2258 29.5583C70.2734 28.8495 70.8839 28.3116 71.5925 28.3452C72.3011 28.3873 72.8444 28.9868 72.8108 29.6984C72.794 30.0122 72.3039 37.4252 62.1849 42.0422C62.0112 42.1206 61.8292 42.1598 61.6499 42.1598Z" fill="#3E3A39"/>
<path d="M47.1032 49.0885C46.5794 49.0885 46.0837 48.7663 45.8905 48.2452C45.6412 47.5756 45.9801 46.8304 46.6495 46.5811C58.3313 42.2246 59.2135 34.016 59.2443 33.6686C59.3088 32.9598 59.9361 32.4359 60.6447 32.4947C61.3533 32.5564 61.8798 33.1755 61.8238 33.8843C61.7902 34.2962 60.852 44.0456 47.5541 49.0072C47.4057 49.0633 47.2516 49.0885 47.1032 49.0885Z" fill="#3E3A39"/>
<path d="M83.0839 39.5656C82.9438 39.5656 82.801 39.5432 82.661 39.4927C76.4742 37.3495 74.1131 28.7795 74.0151 28.4153C73.8303 27.7261 74.2392 27.0145 74.931 26.8296C75.6227 26.6447 76.3285 27.0537 76.5162 27.7429C76.5358 27.8186 78.6223 35.352 83.5096 37.0441C84.1846 37.2767 84.5431 38.0135 84.3078 38.6915C84.1229 39.2266 83.6216 39.5628 83.0839 39.5628V39.5656Z" fill="#3E3A39"/>
<path d="M34.6196 48.3244C34.0287 48.3244 33.4965 47.9182 33.3593 47.3186C30.6538 35.4651 33.5581 28.6377 36.4737 24.9985C39.6973 20.9726 43.5988 19.8604 43.764 19.8155C44.453 19.6278 45.1644 20.0313 45.3548 20.7204C45.5453 21.4068 45.142 22.1184 44.4558 22.3117C43.904 22.4686 31.2223 26.3376 35.8827 46.7471C36.0424 47.4447 35.6055 48.1367 34.9081 48.2964C34.8101 48.3188 34.7148 48.33 34.6196 48.33V48.3244Z" fill="#3E3A39"/>
<path d="M54.3798 109.584C53.7552 109.584 53.2035 109.13 53.1027 108.492C50.7193 93.3995 43.0369 85.9081 42.9584 85.8324C42.4431 85.3393 42.4235 84.5213 42.9136 84.003C43.4066 83.4875 44.2216 83.4651 44.7397 83.9554C45.0814 84.2804 53.1279 92.0687 55.6569 108.085C55.769 108.791 55.2872 109.455 54.5815 109.565C54.5142 109.576 54.4442 109.581 54.377 109.581L54.3798 109.584Z" fill="#3E3A39"/>
<path d="M43.4346 109.585C42.8548 109.585 42.3255 109.19 42.1798 108.602C39.4435 97.5806 34.6571 89.6213 34.6095 89.5429C34.2398 88.9322 34.433 88.1365 35.0436 87.7639C35.6542 87.3913 36.4496 87.5846 36.8221 88.1953C37.0265 88.5315 41.8578 96.5496 44.6921 107.977C44.8657 108.672 44.4428 109.372 43.7483 109.546C43.6446 109.571 43.5382 109.585 43.4346 109.585Z" fill="#3E3A39"/>
<path d="M84.1652 109.584C83.5071 109.584 82.9441 109.085 82.8797 108.416C81.2917 92.1527 74.7576 84.2103 74.6904 84.1346C74.2311 83.5883 74.3011 82.773 74.8444 82.3108C75.3906 81.8513 76.2028 81.9186 76.6649 82.4621C76.9534 82.8039 83.7787 91.0293 85.4536 108.167C85.5236 108.878 85.0027 109.511 84.2913 109.581C84.2493 109.584 84.2073 109.587 84.1624 109.587L84.1652 109.584Z" fill="#3E3A39"/>
<path d="M91.0297 105.801C90.366 105.801 89.803 105.294 89.7414 104.622C88.8452 94.6787 84.7309 88.5601 84.6889 88.5012C84.2856 87.9101 84.4368 87.1061 85.025 86.7026C85.6159 86.2992 86.4197 86.4505 86.823 87.0388C87.0079 87.3078 91.363 93.7822 92.3181 104.389C92.3825 105.101 91.8559 105.731 91.1446 105.795C91.1054 105.798 91.0661 105.801 91.0269 105.801H91.0297Z" fill="#3E3A39"/>
<path d="M62.3334 91.5378C56.0317 91.5378 50.1978 89.5795 49.8001 89.445C49.1251 89.2125 48.7638 88.4785 48.9963 87.8005C49.2288 87.1253 49.9626 86.7639 50.6403 86.9936C50.8224 87.0553 65.557 91.9805 72.29 85.9375C72.8221 85.4612 73.6399 85.506 74.116 86.0355C74.5922 86.5678 74.5473 87.3859 74.018 87.8621C70.884 90.6749 66.5065 91.5322 62.3362 91.5322L62.3334 91.5378Z" fill="#3E3A39"/>
<path d="M18.6383 148.898C18.5739 148.898 18.5094 148.892 18.445 148.884C17.7392 148.778 17.2519 148.119 17.3583 147.413L24.0157 102.966C25.0827 95.8474 29.5583 89.6727 35.9888 86.4509C38.459 85.2126 41.8871 83.7222 44.6402 82.5231C46.3795 81.7667 48.3344 80.915 48.8609 80.6264C49.0038 80.4919 49.1774 80.3911 49.3791 80.3322C50.0652 80.1305 50.785 80.5228 50.9867 81.2091C51.3284 82.369 50.3453 82.8172 48.9842 83.4392C48.1495 83.8202 47.0012 84.3189 45.6737 84.8988C42.9486 86.0867 39.5541 87.5631 37.1483 88.7678C31.4684 91.6114 27.5166 97.0633 26.5755 103.35L19.9182 147.797C19.823 148.439 19.2712 148.901 18.6411 148.901L18.6383 148.898ZM48.452 81.6406C48.4576 81.7358 48.4716 81.8339 48.5024 81.9348C48.4744 81.8367 48.4576 81.7386 48.452 81.6406Z" fill="#3E3A39"/>
<path d="M69.3833 68.6659C65.2242 68.6659 63.3337 65.3853 62.9136 63.6427C62.7735 63.0572 63.0676 62.4548 63.6166 62.2083C69.4841 59.5524 74.3153 61.3006 74.517 61.379C75.0071 61.5611 75.332 62.029 75.332 62.5529C75.332 64.3851 74.7775 65.8644 73.6852 66.9486C71.9907 68.6323 69.6157 68.6659 69.4393 68.6659C69.4113 68.6659 69.4001 68.6659 69.3805 68.6659H69.3833ZM65.7591 64.0461C66.266 64.9594 67.3247 66.1585 69.4001 66.1585C69.4113 66.1585 69.4225 66.1585 69.4365 66.1585C69.9518 66.1557 72.2764 65.9988 72.7469 63.497C71.4334 63.2309 68.8203 62.9619 65.7619 64.0461H65.7591Z" fill="#3E3A39"/>
<path d="M105.147 91.3235L99.859 91.0293L99.2148 109.5L117.546 116.21L118.495 91.0293L115.078 91.3431L105.147 91.3235Z" fill="white"/>
<path d="M99.591 100.91C99.2662 100.91 98.9441 100.787 98.6976 100.538C98.4679 100.305 93.0569 94.8196 92.522 94.2453C88.3741 89.7992 80.5125 86.625 80.4341 86.5942C80.4089 86.583 80.3864 86.5746 80.3612 86.5634L71.7546 82.4871C71.13 82.1901 70.8612 81.4421 71.1581 80.8173C71.4549 80.1926 72.2027 79.9236 72.8273 80.2206L81.4003 84.2801C82.0921 84.5602 89.9285 87.7905 94.3537 92.5335C94.7654 92.9734 98.5408 96.8087 100.482 98.7754C100.969 99.2685 100.963 100.061 100.47 100.549C100.227 100.79 99.9075 100.91 99.591 100.91Z" fill="#3E3A39"/>
<path d="M99.8605 110.349C99.8605 110.349 99.8437 110.349 99.8325 110.349C99.1407 110.335 98.5917 109.761 98.6057 109.069L99.0174 89.7349C99.0314 89.0513 99.5888 88.5078 100.269 88.5078C100.278 88.5078 100.286 88.5078 100.297 88.5078C100.989 88.5218 101.538 89.0961 101.524 89.7881L101.112 109.122C101.098 109.805 100.538 110.349 99.8605 110.349Z" fill="#3E3A39"/>
<path d="M104.512 83.844L103.767 79.4512C103.767 79.4512 96.8943 70.573 99.5494 65.3872L100.883 64.1405L99.6502 45.9583C99.6502 45.9583 101.193 42.6412 103.092 46.7455L105.409 57.5316L107.862 44.1737C107.862 44.1737 110.338 40.6409 111.506 44.7284L110.411 58.1592C110.411 58.1592 112.413 56.4362 114.418 59.2574C114.418 59.2574 120.023 58.6831 120.238 62.1654L118.656 66.6171C118.656 66.6171 117.743 73.3605 115.444 77.1315L116.547 110.364L102.179 109.994L104.509 83.8412L104.512 83.844Z" fill="white"/>
<path d="M100.751 64.608C100.127 64.608 99.586 64.1402 99.5104 63.5014C99.502 63.4174 99.4992 63.3361 99.5048 63.2549C99.4824 62.7254 99.2219 60.0274 98.9923 57.6377C98.5974 53.553 98.1521 48.9248 98.1184 47.5856C98.1016 46.9665 98.1381 46.154 98.5414 45.3808C99.1379 44.2321 100.183 43.641 101.401 43.7615C102.88 43.9044 104.084 45.0502 104.328 46.5462L106.227 57.0998C106.35 57.7806 105.896 58.4305 105.218 58.551C104.535 58.6715 103.888 58.2204 103.768 57.5424L101.866 46.9665C101.801 46.5743 101.507 46.2801 101.163 46.2465C101.034 46.2325 100.922 46.2241 100.762 46.5322C100.653 46.7424 100.611 47.0449 100.622 47.5212C100.653 48.7735 101.115 53.553 101.485 57.3968C101.639 58.9825 101.779 60.4421 101.874 61.5095C101.922 62.0502 101.961 62.49 101.983 62.7954C102.014 63.2072 102.107 64.4595 100.9 64.5996C100.852 64.6052 100.802 64.608 100.754 64.608H100.751ZM99.6981 62.6861C99.6028 62.8346 99.544 62.9943 99.5188 63.154C99.5468 62.9859 99.6084 62.8262 99.6981 62.6861ZM100.608 62.1146C100.384 62.1398 100.191 62.2211 100.029 62.3359C100.194 62.2183 100.393 62.1398 100.608 62.1146Z" fill="#3E3A39"/>
<path d="M104.235 84.2685C103.596 84.2685 103.053 83.7811 102.991 83.1339L102.787 80.9375C102.722 80.2511 102.543 79.5955 102.257 78.9932C101.932 78.3124 101.369 77.2982 100.535 76.3205C100.512 76.2924 100.49 76.2644 100.468 76.2364C100.246 75.9282 98.3111 73.1631 98.1935 70.6697C98.1879 70.5688 98.1767 70.3979 98.1599 70.1738C97.8798 66.3048 98.003 65.0721 98.7312 64.439C99.7591 63.5509 101.207 62.0464 102.369 60.8361C104.414 58.7097 104.537 58.5809 105.257 58.6733C106.153 58.7882 106.965 59.2701 107.489 59.9985C108.136 60.9006 108.318 62.0884 108.03 63.5313C108.013 63.6097 107.99 63.6853 107.962 63.7582C107.918 63.8702 107.047 65.9994 106.332 67.5207C107.483 68.5881 108.315 70.3587 108.665 71.8491C108.822 72.5215 108.405 73.1939 107.733 73.3508C107.061 73.5105 106.388 73.0902 106.232 72.4179C105.848 70.7789 104.879 69.3445 104.251 69.0812C103.924 68.9439 103.669 68.675 103.551 68.3416C103.434 68.0054 103.464 67.6384 103.635 67.3246C104.209 66.2796 105.352 63.52 105.599 62.9233C105.716 62.2649 105.666 61.7438 105.459 61.4553C105.428 61.4133 105.394 61.3768 105.361 61.3432C105.036 61.6682 104.588 62.1361 104.173 62.5675C103.044 63.7386 101.658 65.1814 100.571 66.1507C100.504 66.5514 100.476 67.5571 100.653 69.9917C100.669 70.241 100.683 70.4371 100.689 70.5492C100.759 72.0172 101.969 74.026 102.467 74.7348C103.266 75.6733 103.955 76.7435 104.512 77.9118C104.926 78.783 105.184 79.7188 105.277 80.7021L105.481 82.8986C105.545 83.5849 105.041 84.1957 104.352 84.2601C104.313 84.2629 104.274 84.2657 104.235 84.2657V84.2685Z" fill="#3E3A39"/>
<path d="M114.868 83.9487H114.863C114.174 83.9459 113.616 83.3828 113.619 82.6908L113.639 79.1132C113.549 78.0962 113.776 77.0933 114.294 76.2052C116.876 71.7787 117.126 66.705 117.128 66.6546C117.159 65.9654 117.739 65.4275 118.431 65.4583C119.12 65.4891 119.655 66.069 119.627 66.7582C119.618 66.9908 119.358 72.4875 116.453 77.4631C116.193 77.9113 116.081 78.4184 116.134 78.9283C116.14 78.9731 116.14 79.0179 116.14 79.06L116.12 82.6992C116.117 83.3884 115.557 83.9431 114.871 83.9431L114.868 83.9487Z" fill="#3E3A39"/>
<path d="M110.24 58.8937C110.201 58.8937 110.164 58.8937 110.125 58.8881C109.501 58.8236 109.047 58.2689 109.111 57.6442L110.386 45.0455C110.405 44.6785 110.254 44.3367 109.991 44.149C109.842 44.0425 109.699 43.9753 109.377 44.1658C109.013 44.3787 108.758 44.7821 108.697 45.2444L108.691 45.2892L106.532 57.7282C106.425 58.3446 105.834 58.7592 105.218 58.6527C104.599 58.5463 104.188 57.958 104.294 57.3388L106.451 44.9194C106.61 43.7764 107.277 42.7622 108.232 42.2047C109.257 41.6051 110.377 41.6416 111.304 42.2999C112.209 42.9443 112.724 44.0593 112.649 45.2136V45.2528L111.369 57.8739C111.31 58.4594 110.817 58.8937 110.24 58.8937Z" fill="#3E3A39"/>
<path d="M115.842 59.093L118.847 48.0604C119.001 47.4077 118.833 46.7045 118.357 46.231C117.83 45.7071 117.231 45.7295 116.724 45.9228C116.054 46.1778 115.556 46.7521 115.346 47.4385L110.725 58.1125L111.17 61.5332L113.469 61.9815L115.839 59.0958L115.842 59.093Z" fill="white"/>
<path d="M115.84 60.2778C115.736 60.2778 115.633 60.2638 115.526 60.2357C114.893 60.0649 114.521 59.4121 114.694 58.7789L117.694 47.7687C117.753 47.5026 117.686 47.2336 117.518 47.0683C117.434 46.9871 117.386 46.9367 117.142 47.0291C116.834 47.1468 116.585 47.4269 116.476 47.7827C116.462 47.8248 116.448 47.864 116.431 47.906L111.81 58.58C111.549 59.1824 110.852 59.4569 110.25 59.1964C109.647 58.9358 109.373 58.2382 109.634 57.6359L114.229 47.0179C114.566 46.0009 115.333 45.1773 116.299 44.8103C117.361 44.4068 118.417 44.6169 119.19 45.3874C119.94 46.1354 120.248 47.2616 119.996 48.3318C119.993 48.3459 119.991 48.3599 119.985 48.3711L116.98 59.4037C116.837 59.9304 116.358 60.2778 115.837 60.2778H115.84Z" fill="#3D3A39"/>
<path d="M114.198 68.9692C113.819 68.9692 113.447 68.7787 113.234 68.4341C111.349 65.4084 107.739 65.3747 107.703 65.3747C107.075 65.3747 106.568 64.8677 106.568 64.2401C106.568 63.6126 107.075 63.1055 107.703 63.1055C107.902 63.1055 112.618 63.1531 115.161 67.235C115.491 67.7673 115.329 68.4677 114.797 68.7983C114.609 68.9159 114.402 68.9692 114.198 68.9692Z" fill="#3E3A39"/>
<path d="M118.903 63.4408L123.656 54.6326C124 53.9938 124.062 53.2262 123.776 52.5594C123.381 51.6489 122.7 51.7666 122.205 52.0187C121.885 52.1812 121.611 52.425 121.395 52.7135L116.343 59.3813L114.816 63.438L115.928 65.1133L118.903 63.438V63.4408Z" fill="white"/>
<path d="M118.903 64.6287C118.712 64.6287 118.519 64.5839 118.34 64.4858C117.763 64.1748 117.547 63.4548 117.858 62.8777L122.611 54.0695C122.782 53.7558 122.815 53.3972 122.712 53.0974C122.58 53.173 122.451 53.2879 122.342 53.4336L117.287 60.1013C116.892 60.6224 116.147 60.7261 115.626 60.3311C115.105 59.936 115.001 59.1908 115.396 58.6697L120.449 52.002C120.788 51.5565 121.196 51.2063 121.664 50.9682C122.49 50.5452 123.149 50.6292 123.555 50.7749C123.952 50.9178 124.504 51.2624 124.863 52.0944C125.283 53.0694 125.221 54.2292 124.697 55.2014L119.945 64.0095C119.729 64.4074 119.32 64.6315 118.9 64.6315L118.903 64.6287Z" fill="#3D3A39"/>
<path d="M110.696 91.8983C106.484 91.8983 102.84 91.8563 102.787 91.8563C102.095 91.8479 101.541 91.2793 101.549 90.5875C101.557 89.9014 102.117 89.3496 102.801 89.3496H102.815C102.896 89.3496 111.066 89.4448 117.071 89.3496C117.076 89.3496 117.085 89.3496 117.09 89.3496C117.774 89.3496 118.331 89.8986 118.342 90.5819C118.353 91.2737 117.802 91.8451 117.11 91.8535C115.085 91.8871 112.819 91.8955 110.696 91.8955V91.8983Z" fill="#3E3A39"/>
<path d="M114.813 91.9062C114.116 91.9062 113.553 91.343 113.553 90.6455V78.2373C113.553 77.5397 114.116 76.9766 114.813 76.9766C115.51 76.9766 116.073 77.5397 116.073 78.2373V90.6455C116.073 91.343 115.51 91.9062 114.813 91.9062Z" fill="#3E3A39"/>
<path d="M103.666 91.3029C103.632 91.3029 103.596 91.3029 103.562 91.2973C102.887 91.2413 102.386 90.6474 102.442 89.9722L102.755 86.2265C102.811 85.5513 103.402 85.0498 104.08 85.1058C104.755 85.1619 105.257 85.7558 105.2 86.431L104.887 90.1767C104.834 90.8183 104.296 91.3001 103.666 91.3001V91.3029Z" fill="#3E3A39"/>
<path d="M91.2387 168.396C90.5301 168.396 89.9532 167.825 89.9448 167.113L89.8691 159.445C89.8691 157.854 90.0092 156.268 90.2864 154.716C94.0814 133.514 92.9471 124.546 91.7456 115.051C91.4515 112.734 91.1491 110.336 90.9082 107.722C90.8438 107.011 91.3675 106.38 92.0789 106.316C92.7903 106.251 93.4205 106.775 93.4849 107.487C93.7201 110.056 94.0198 112.429 94.3111 114.726C95.5378 124.423 96.6973 133.581 92.8323 155.173C92.5802 156.573 92.4542 158.008 92.4542 159.434L92.5298 167.088C92.5382 167.802 91.9641 168.388 91.2499 168.393C91.2443 168.393 91.2415 168.393 91.2359 168.393L91.2387 168.396Z" fill="#3E3A39"/>
<path d="M74.5974 165.812L40.3333 163.406C38.7285 163.293 37.5157 161.898 37.6306 160.293L41.0587 111.428C41.1707 109.823 42.5655 108.609 44.1703 108.724L78.4344 111.131C80.0392 111.243 81.2519 112.638 81.1371 114.243L77.709 163.109C77.597 164.714 76.2022 165.927 74.5974 165.812Z" fill="white"/>
<path d="M74.5974 165.812L40.3333 163.406C38.7285 163.293 37.5157 161.898 37.6306 160.293L41.0587 111.428C41.1707 109.823 42.5655 108.609 44.1703 108.724L78.4344 111.131C80.0392 111.243 81.2519 112.638 81.1371 114.243L77.709 163.109C77.597 164.714 76.2022 165.927 74.5974 165.812Z" fill="white"/>
<path d="M38.834 144.413C38.8032 144.413 38.7724 144.413 38.7416 144.41C38.0274 144.36 37.4924 143.741 37.5401 143.029L39.7638 111.338C39.9263 109.021 41.9456 107.27 44.2562 107.432L78.5203 109.839C79.6406 109.917 80.6657 110.427 81.4023 111.276C82.1389 112.125 82.503 113.212 82.4245 114.333L81.3575 129.537C81.307 130.251 80.6909 130.783 79.9767 130.739C79.2653 130.688 78.7276 130.069 78.7752 129.357L79.8423 114.151C79.8731 113.719 79.733 113.299 79.4502 112.974C79.1673 112.646 78.7724 112.45 78.3411 112.419L44.077 110.013C43.1779 109.948 42.4077 110.626 42.3461 111.517L40.1223 143.208C40.0747 143.892 39.5062 144.413 38.834 144.413Z" fill="#3E3A39"/>
<path d="M65.5038 120.632C65.473 120.632 65.445 120.632 65.4141 120.629L55.5696 119.937C55.2223 119.912 54.8974 119.749 54.6734 119.483L52.3404 116.727L44.7084 116.191C43.9942 116.141 43.4592 115.522 43.5069 114.81C43.5573 114.096 44.1734 113.561 44.8876 113.608L53.0629 114.183C53.4102 114.208 53.7351 114.37 53.9592 114.637L56.2922 117.393L64.9436 118.001L67.4587 115.068C67.7247 114.757 68.1253 114.592 68.5314 114.62L77.082 115.219C77.7962 115.27 78.3311 115.889 78.2835 116.601C78.2331 117.315 77.6057 117.85 76.9027 117.802L69.0019 117.248L66.4868 120.181C66.2404 120.469 65.8819 120.632 65.5038 120.632Z" fill="#3E3A39"/>
<path d="M64.263 140.902L69.3519 135.137C69.3519 135.137 73.4858 134.316 78.9164 132.848C78.9164 132.848 78.9388 132.859 78.9808 132.878C80.7481 133.775 80.5829 136.358 78.7232 137.05L75.8608 138.115L73.9283 143.639L62.5098 143.564L64.2602 140.902H64.263Z" fill="white"/>
<path d="M73.0993 139.748L82.6806 140.39C82.6806 140.39 84.9744 141.93 84.1145 144.839C84.1145 144.839 85.5065 147.223 84.5262 149.492C84.5262 149.492 85.7446 151.621 84.2854 153.495C84.2854 153.495 85.0304 156.028 82.3949 157.563C82.3949 157.563 80.5884 159.09 75.1606 157.804L63.2603 155.93L38.5831 160.359L32.3711 148.128L73.1021 139.751L73.0993 139.748Z" fill="white"/>
<path d="M78.3133 159.863C77.5739 159.863 76.7421 159.805 75.8122 159.659L64.0996 157.813L58.8622 158.544C58.1536 158.642 57.5011 158.149 57.403 157.44C57.305 156.731 57.7979 156.079 58.5065 155.981L63.9343 155.224C64.0604 155.207 64.1892 155.207 64.3152 155.227L76.2155 157.104C79.8341 157.667 81.4137 156.675 81.5733 156.566C81.6349 156.51 81.6658 156.496 81.7442 156.448C83.377 155.499 83.1109 154.115 83.0409 153.849C82.9233 153.448 83.0101 153.033 83.2678 152.705C84.1612 151.557 83.4302 150.19 83.3994 150.131C83.209 149.781 83.1837 149.352 83.3406 148.985C84.0408 147.363 83.0045 145.508 82.9961 145.491C82.8225 145.186 82.7776 144.816 82.8757 144.477C83.3154 142.992 82.5928 142.051 82.1839 141.659L73.0171 141.045C72.3057 140.998 71.7652 140.381 71.8128 139.667C71.8604 138.953 72.4766 138.412 73.1907 138.462L82.772 139.104C82.9989 139.118 83.2174 139.193 83.4078 139.32C84.4133 139.995 86.0517 141.945 85.4887 144.696C85.8808 145.573 86.5278 147.464 85.9313 149.436C86.3598 150.526 86.595 152.215 85.6596 153.79C85.808 155.143 85.4131 157.272 83.1249 158.645C82.6992 158.959 81.212 159.869 78.3217 159.869L78.3133 159.863Z" fill="#3E3A39"/>
<path d="M56.718 144.412C56.127 144.412 55.5921 144.003 55.4577 143.404C55.3008 142.706 55.7377 142.014 56.4351 141.854L62.3727 140.51L67.9097 134.766C68.4222 134.234 69.0748 133.873 69.7974 133.721C71.0661 133.452 74.4662 132.707 78.5805 131.598C78.8606 131.522 79.1714 131.547 79.4403 131.662C79.4403 131.662 79.4851 131.682 79.5663 131.724C80.8435 132.371 81.5857 133.665 81.5044 135.1C81.4232 136.548 80.5298 137.759 79.1742 138.263L76.3119 139.327C75.6397 139.577 74.8975 139.235 74.6483 138.565C74.399 137.896 74.7407 137.151 75.4101 136.901L78.2724 135.837C78.8381 135.627 78.911 135.108 78.9194 134.954C78.9278 134.808 78.9138 134.5 78.6841 134.248C74.7631 135.29 71.5619 135.994 70.3295 136.254C70.1167 136.299 69.9206 136.405 69.7694 136.565L63.9635 142.586C63.7898 142.768 63.563 142.894 63.3193 142.95L57.0037 144.381C56.9084 144.404 56.8104 144.415 56.718 144.415V144.412Z" fill="#3E3A39"/>
<path d="M69.0963 111.649C68.4578 111.649 67.9032 111.179 67.8164 110.529C67.7212 109.82 68.2169 109.167 68.9255 109.072L89.1327 106.326C89.8385 106.231 90.4939 106.727 90.5891 107.436C90.6843 108.144 90.1886 108.797 89.48 108.892L69.2728 111.638C69.214 111.646 69.1552 111.649 69.0963 111.649Z" fill="#3E3A39"/>
<path d="M102.487 109.094L99.5879 123.906C99.5879 123.906 109.544 133.56 116.501 126.139L117.821 119.395L117.725 110.727C117.725 110.727 111.894 112.024 102.484 109.094H102.487Z" fill="white"/>
<path d="M52.8843 139.143L26.2773 147.486L21.7598 150.721C26.7227 155.481 33.464 160.25 43.9415 165.822L58.6846 162.278L52.8815 139.145L52.8843 139.143Z" fill="white"/>
<path d="M27.2291 147.624C26.6577 147.624 26.134 147.243 25.98 146.666C25.7951 145.977 26.204 145.265 26.893 145.08L53.654 137.894C54.3429 137.709 55.0543 138.118 55.2392 138.807C55.424 139.497 55.0151 140.208 54.3261 140.393L27.5652 147.579C27.4532 147.61 27.3411 147.624 27.2291 147.624Z" fill="#3E3A39"/>
<path d="M58.3986 160.138C57.8328 160.138 57.3119 159.762 57.1523 159.188C55.4774 153.136 53.4385 142.776 53.4189 142.67C53.2817 141.969 53.7382 141.289 54.4384 141.151C55.1385 141.014 55.8191 141.471 55.9563 142.171C55.976 142.275 57.9981 152.54 59.6449 158.496C59.8354 159.185 59.4321 159.897 58.7431 160.09C58.6282 160.121 58.5106 160.138 58.3958 160.138H58.3986Z" fill="#3E3A39"/>
<path d="M111.967 129.736C109.976 129.736 107.348 129.103 103.747 127.537C103.708 127.52 103.671 127.503 103.635 127.481L93.4653 121.805C92.8603 121.468 92.6446 120.704 92.9807 120.099C93.3168 119.493 94.0814 119.278 94.6864 119.614L104.803 125.259C113.286 128.935 114.628 126.817 116.179 124.368C116.594 123.715 116.574 121.603 116.568 120.704V120.381C116.568 120.381 116.568 120.359 116.568 120.348L117.246 89.7294C117.26 89.0374 117.829 88.4855 118.526 88.5023C119.218 88.5163 119.767 89.0907 119.753 89.7827L119.075 120.384V120.681C119.092 122.581 119.044 124.533 118.299 125.71C116.907 127.909 115.35 129.733 111.972 129.733L111.967 129.736Z" fill="#3E3A39"/>
<path d="M74.8081 167.114C74.7073 167.114 74.6093 167.112 74.5085 167.103C74.4973 167.103 74.4861 167.103 74.4721 167.1L53.0241 164.999C52.3127 164.929 51.7918 164.296 51.8618 163.584C51.9318 162.873 52.5676 162.355 53.2761 162.422L74.7017 164.52C75.1274 164.545 75.5391 164.405 75.864 164.125C76.1917 163.842 76.3878 163.447 76.4186 163.016C76.469 162.304 77.0823 161.763 77.7993 161.814C78.5107 161.864 79.0484 162.483 79.0008 163.195C78.9224 164.316 78.4127 165.341 77.5641 166.078C76.7911 166.75 75.822 167.112 74.8109 167.112L74.8081 167.114Z" fill="#3E3A39"/>
<path d="M44.8656 166.761C44.2775 166.761 43.7454 166.354 43.6053 165.758C43.4457 165.06 43.8798 164.365 44.5744 164.206L59.7655 160.698C60.4629 160.536 61.1575 160.973 61.3171 161.667C61.4768 162.365 61.0427 163.06 60.3481 163.219L45.1569 166.727C45.0589 166.749 44.9609 166.761 44.8656 166.761Z" fill="#3E3A39"/>
</g>
<defs>
<clipPath id="clip0_266_7160">
<rect width="140" height="170.42" fill="white"/>
</clipPath>
</defs>
</svg>
