<svg width="141" height="171" viewBox="0 0 141 171" fill="none" xmlns="http://www.w3.org/2000/svg">
<g clip-path="url(#clip0_266_7072)">
<path d="M91.1577 166.202C84.49 168.311 77.388 169.449 70.0198 169.449C31.3497 169.449 0 138.099 0 99.4289C0 60.7587 31.3497 29.4062 70.0198 29.4062C108.69 29.4062 140.04 60.7559 140.04 99.4261C140.04 129.65 120.894 155.399 94.0686 165.207C93.1076 165.557 92.1355 165.891 91.1577 166.199V166.202Z" fill="#FFF22E"/>
<path d="M104.416 85.1811L103.668 80.763C103.668 80.763 96.7541 71.8344 99.4268 66.6207L100.769 65.3684L99.5276 47.0853C99.5276 47.0853 101.08 43.7486 102.99 47.8781L105.321 58.723L107.789 45.2922C107.789 45.2922 110.28 41.7398 111.454 45.8526L110.353 59.359C110.353 59.359 112.367 57.6276 114.384 60.4628C114.384 60.4628 120.932 57.353 121.147 60.855L117.802 66.9653C117.802 66.9653 117.475 75.8715 115.16 79.662L116.55 108.622L103.355 109.227L104.414 85.1839L104.416 85.1811Z" fill="white"/>
<path d="M100.635 65.8383C100.008 65.8383 99.464 65.3676 99.3884 64.7288C99.3772 64.6448 99.3772 64.5607 99.3828 64.4795C99.3604 63.9472 99.097 61.2381 98.8673 58.8343C98.4723 54.7272 98.0212 50.071 97.9876 48.7234C97.9708 48.0987 98.0072 47.2862 98.4106 46.5046C99.013 45.3503 100.058 44.7564 101.288 44.8741C102.775 45.0169 103.986 46.1712 104.23 47.6756L106.14 58.288C106.263 58.9716 105.81 59.6244 105.126 59.7476C104.445 59.8709 103.79 59.417 103.666 58.7335L101.753 48.0987C101.688 47.7037 101.391 47.4095 101.047 47.3759C100.915 47.3647 100.806 47.3535 100.643 47.6644C100.534 47.8745 100.489 48.1799 100.503 48.6562C100.534 49.9141 100.999 54.7244 101.372 58.5906C101.526 60.1847 101.666 61.6527 101.764 62.7229C101.815 63.2664 101.851 63.7091 101.873 64.0144C101.904 64.4291 101.997 65.6842 100.784 65.8271C100.733 65.8327 100.686 65.8355 100.635 65.8355V65.8383ZM99.5649 63.922C99.4752 64.0649 99.4164 64.2218 99.394 64.3786C99.4192 64.2162 99.478 64.0593 99.5649 63.922ZM100.489 63.3309C100.276 63.3561 100.089 63.4317 99.9291 63.5382C100.092 63.4289 100.279 63.3533 100.489 63.3309Z" fill="#3E3A39"/>
<path d="M104.14 85.6067C103.498 85.6067 102.949 85.1164 102.89 84.4665L102.683 82.256C102.619 81.564 102.439 80.9085 102.148 80.3005C101.82 79.6169 101.254 78.5944 100.414 77.6138C100.391 77.5858 100.369 77.5578 100.346 77.527C100.125 77.2188 98.1781 74.4368 98.0604 71.9294C98.0548 71.8285 98.0436 71.6548 98.0268 71.4307C97.7438 67.5421 97.8671 66.301 98.6039 65.6679C99.6377 64.7742 101.095 63.2613 102.266 62.0426C104.322 59.905 104.445 59.7761 105.168 59.8686C106.07 59.9835 106.888 60.4681 107.415 61.1994C108.068 62.1071 108.25 63.3005 107.958 64.7518C107.942 64.8302 107.919 64.9058 107.891 64.9787C107.846 65.0907 106.969 67.2339 106.252 68.7636C107.409 69.8366 108.247 71.6184 108.6 73.1173C108.76 73.7924 108.339 74.4704 107.661 74.6273C106.983 74.7842 106.308 74.3668 106.151 73.6888C105.765 72.0387 104.793 70.5986 104.159 70.3353C103.829 70.198 103.574 69.9263 103.456 69.5901C103.339 69.2539 103.369 68.8813 103.54 68.5675C104.117 67.5169 105.269 64.7405 105.515 64.141C105.633 63.477 105.583 62.9559 105.373 62.6646C105.342 62.6226 105.308 62.5861 105.274 62.5525C104.949 62.8803 104.496 63.3482 104.078 63.7824C102.944 64.9619 101.548 66.4131 100.453 67.3852C100.383 67.7859 100.358 68.7972 100.534 71.243C100.554 71.4952 100.568 71.6913 100.571 71.8061C100.641 73.2714 101.859 75.2997 102.361 76.0141C103.165 76.9582 103.854 78.034 104.417 79.2079C104.835 80.082 105.092 81.0261 105.185 82.0123L105.392 84.2227C105.457 84.9147 104.949 85.5283 104.257 85.5927C104.218 85.5955 104.179 85.5983 104.14 85.5983V85.6067Z" fill="#3E3A39"/>
<path d="M114.834 85.1978H114.828C114.133 85.195 113.573 84.6291 113.578 83.9343L113.595 80.3371C113.506 79.3173 113.733 78.306 114.254 77.4151C116.851 72.9634 117.103 67.8617 117.103 67.8113C117.134 67.1361 117.688 66.6094 118.358 66.6094C118.375 66.6094 118.394 66.6094 118.411 66.6094C119.103 66.6402 119.641 67.2229 119.613 67.9177C119.605 68.1502 119.341 73.6778 116.422 78.6842C116.159 79.1352 116.047 79.6451 116.1 80.1578C116.105 80.2026 116.105 80.2475 116.105 80.2923L116.086 83.9511C116.083 84.6431 115.52 85.2006 114.828 85.2006L114.834 85.1978Z" fill="#3E3A39"/>
<path d="M110.178 60.0932C110.139 60.0932 110.1 60.0932 110.063 60.0876C109.436 60.0231 108.979 59.4628 109.043 58.8381L110.326 46.1693C110.346 45.8023 110.195 45.4577 109.929 45.2672C109.777 45.1608 109.637 45.0935 109.312 45.284C108.945 45.4969 108.69 45.9032 108.629 46.3682L108.623 46.4131L106.452 58.9221C106.345 59.5441 105.754 59.9587 105.132 59.8522C104.51 59.7458 104.096 59.1546 104.202 58.5327L106.371 46.0432C106.533 44.8946 107.2 43.8748 108.164 43.3117C109.209 42.701 110.307 42.7346 111.254 43.407C112.164 44.0541 112.683 45.1776 112.607 46.3374V46.3766L111.318 59.0678C111.259 59.6561 110.764 60.0932 110.184 60.0932H110.178Z" fill="#3E3A39"/>
<path d="M115.791 60.1246L118.811 49.0415C118.965 48.386 118.797 47.68 118.318 47.2037C117.789 46.677 117.186 46.6994 116.679 46.8955C116.007 47.1505 115.506 47.7276 115.293 48.4168L110.65 59.1384L111.099 62.5732L113.41 63.0242L115.791 60.1246Z" fill="white"/>
<path d="M115.791 61.3175C115.688 61.3175 115.581 61.3035 115.477 61.2755C114.841 61.1018 114.466 60.4462 114.64 59.8102L117.654 48.7524C117.713 48.4834 117.646 48.2173 117.478 48.0492C117.394 47.9652 117.343 47.9175 117.102 48.01C116.794 48.1276 116.542 48.4106 116.433 48.7664C116.419 48.8084 116.405 48.8505 116.388 48.8897L111.746 59.6113C111.482 60.2165 110.779 60.4938 110.177 60.2333C109.572 59.9699 109.294 59.2695 109.555 58.6644L114.175 47.9988C114.511 46.9762 115.284 46.1497 116.253 45.7827C117.321 45.3765 118.38 45.5866 119.159 46.3627C119.912 47.1135 120.223 48.2453 119.971 49.3211C119.968 49.3351 119.966 49.3491 119.96 49.3603L116.94 60.4434C116.794 60.9729 116.315 61.3231 115.788 61.3231L115.791 61.3175Z" fill="#3D3A39"/>
<path d="M114.162 70.2235C113.781 70.2235 113.408 70.033 113.192 69.6856C111.315 66.6739 107.774 66.6095 107.623 66.6095C106.995 66.6039 106.485 66.0912 106.488 65.4636C106.488 64.8361 106.998 64.3262 107.629 64.3262C107.83 64.3262 112.573 64.3738 115.131 68.4781C115.465 69.0132 115.302 69.7164 114.767 70.0498C114.579 70.1675 114.372 70.2235 114.165 70.2235H114.162Z" fill="#3E3A39"/>
<path d="M116.576 68.4701C115.853 68.4701 115.192 68.2067 114.648 67.6912C113.707 66.8003 113.444 65.3799 113.993 64.1585C114.012 64.1164 114.035 64.0744 114.057 64.0324L116.282 60.2727C116.817 59.2669 117.921 57.9922 119.531 57.9922C120.492 57.9922 121.431 58.5525 121.983 59.4518C122.664 60.5668 122.658 61.976 121.969 63.3236C121.944 63.374 121.916 63.4216 121.882 63.4665L119.461 66.9488C119.038 67.5568 118.402 68.0302 117.671 68.2768C117.296 68.4029 116.929 68.4673 116.576 68.4673V68.4701ZM116.265 65.2371C116.181 65.4696 116.223 65.7217 116.377 65.8646C116.441 65.9263 116.531 66.0103 116.862 65.8982C117.086 65.8226 117.279 65.6825 117.397 65.5144L119.764 62.1077C120.013 61.5866 120.041 61.1019 119.84 60.7657C119.722 60.5696 119.571 60.508 119.531 60.5052C119.162 60.5052 118.789 60.9675 118.565 61.3485C118.554 61.3709 118.54 61.3961 118.526 61.4185L118.506 61.4521C118.461 61.5334 118.428 61.609 118.4 61.6707C118.338 61.8191 118.251 61.9536 118.145 62.0629L116.268 65.2315L116.265 65.2371Z" fill="#3E3A39"/>
<path d="M79.4395 87.7734C79.4395 87.7734 85.6141 88.5607 92.1138 93.2337L103.124 100.061L100.701 124.684L80.5881 115.344L79.4395 87.7734Z" fill="white"/>
<path d="M101.756 109.461C101.713 109.461 101.669 109.461 101.627 109.455C100.951 109.385 100.464 108.78 100.534 108.107L102.744 87.1545C102.815 86.4793 103.417 85.989 104.092 86.0619C104.767 86.1319 105.255 86.737 105.185 87.4094L102.974 108.362C102.907 108.993 102.375 109.461 101.756 109.461Z" fill="#3E3A39"/>
<path d="M114.882 97.4022C114.184 97.4022 113.621 96.8391 113.621 96.1415V82.3017C113.621 81.6041 114.184 81.041 114.882 81.041C115.579 81.041 116.143 81.6041 116.143 82.3017V96.1415C116.143 96.8391 115.579 97.4022 114.882 97.4022Z" fill="#3E3A39"/>
<path d="M104.12 21.0602H106.541C107.496 21.0602 108.258 21.0602 108.934 20.6651C109.413 20.385 109.721 19.9059 109.721 19.2587C109.721 18.2194 108.99 17.6282 107.188 17.6282C105.191 17.6282 102.714 18.3594 102.714 18.3594H102.49V14.0814C102.49 14.0814 104.826 13.4062 107.863 13.4062C112.789 13.4062 115.657 15.1797 115.657 18.4435C115.657 20.9481 113.996 22.3265 111.914 22.8616C114.419 23.2566 116.078 24.8031 116.078 27.3917C116.078 31.1066 112.646 33.1602 107.328 33.1602C104.261 33.1602 102.291 32.485 102.291 32.485V28.207H102.487C102.487 28.207 104.964 28.9382 107.101 28.9382C109.239 28.9382 110.113 28.263 110.113 27.0527C110.113 26.4056 109.833 25.8144 109.27 25.5063C108.595 25.1112 107.524 25.1112 106.597 25.1112H104.12V21.0602Z" fill="#3E3A39"/>
<path d="M91.2162 3.52974C91.8886 3.23837 92.9532 2.77611 94.0794 2.89378C95.2589 3.01425 96.1246 3.73986 96.6232 4.8885C97.2116 6.24447 96.9426 7.40432 96.2506 8.28402C95.5951 9.11889 94.6201 9.54192 93.9253 9.84169L93.4154 10.063L94.4604 12.4724L92.0511 13.5174L88.2773 4.80446L91.219 3.52974H91.2162ZM92.6506 8.30082L93.1605 8.0795C93.4603 7.94783 93.8777 7.76853 94.113 7.41833C94.3456 7.06813 94.3736 6.56105 94.1326 6.00633C93.8917 5.45162 93.5023 5.12384 93.0876 5.0566C92.673 4.98936 92.2556 5.16866 91.9558 5.30033L91.4459 5.52166L92.6506 8.30082Z" fill="#3E3A39"/>
<path d="M104.24 9.88656C101.167 10.2564 99.3208 8.42974 98.9762 5.57213C98.6204 2.61366 100.086 0.414424 103.134 0.0474174C106.207 -0.322391 108.053 1.50424 108.398 4.36185C108.754 7.32031 107.288 9.51955 104.24 9.88656ZM105.641 4.73166C105.4 2.72573 104.627 1.80121 103.324 1.95809C102.019 2.11498 101.489 3.19639 101.73 5.20232C101.971 7.20825 102.744 8.13277 104.047 7.97588C105.35 7.81899 105.882 6.73759 105.641 4.73166Z" fill="#3E3A39"/>
<path d="M113.711 0.308862L112.727 9.75578L110.113 9.48403L111.097 0.0371094L113.711 0.308862Z" fill="#3E3A39"/>
<path d="M119.761 1.5605L121.461 7.7604L123.142 2.67553L125.299 3.38994L122.318 12.4054L120.161 11.691L118.251 5.15493L116.491 10.4779L114.334 9.76353L117.315 0.748047L119.761 1.5577V1.5605Z" fill="#3E3A39"/>
<path d="M134.335 8.9541L133.231 10.6154L131.253 9.30149L127.104 15.5518L124.916 14.1006L129.065 7.85028L127.087 6.53634L128.191 4.875L134.335 8.9541Z" fill="#3E3A39"/>
<path d="M90.2188 163.803L90.7707 163.814L91.3814 152.986L90.6362 157.581L90.2188 163.803Z" fill="#68E6E0"/>
<path d="M21.3452 150.719L25.8642 147.484L40.3315 143.13L43.0267 112.957L90.6395 107.194L93.1497 121.734L93.2478 119.972L90.4378 95.8786C90.1044 93.0182 88.1993 90.5864 85.5042 89.575L69.7565 83.6777L51.8796 79.6406L42.2702 84.9412L30.2038 92.0768C30.2038 92.0768 24.9621 99.3077 24.2253 107.528L18.3027 147.613C19.2833 148.677 20.2975 149.714 21.3424 150.717L21.3452 150.719Z" fill="white"/>
<path d="M92.5819 145.576C94.5822 138.611 93.2459 122.311 93.2459 122.311L93.1478 121.734L91.3828 152.983L92.5819 145.573V145.576Z" fill="#68E6E0"/>
<path d="M55.2083 163.265L44.8145 165.904C52.5188 168.82 60.8703 170.42 69.5944 170.42C76.6152 170.42 83.3922 169.383 89.7854 167.462L89.6509 160.514L55.2083 163.265Z" fill="#02D0DA"/>
<path d="M43.0271 112.956L40.332 143.132L53.5863 139.143L59.6545 161.959L55.4101 163.034L90.2197 163.802L90.6372 157.58L91.3824 152.985L93.1474 121.736L90.6372 107.193L43.0271 112.956Z" fill="#02D0DA"/>
<path d="M38.1719 162.656C38.3035 162.723 38.4379 162.788 38.5696 162.855L38.5864 162.667L38.1719 162.659V162.656Z" fill="#68E6E0"/>
<path d="M38.5703 162.854C40.6603 163.899 42.8119 164.84 45.0167 165.675L55.4106 163.036L38.5871 162.666L38.5703 162.854Z" fill="white"/>
<path d="M53.5856 139.143L40.3313 143.132L38.5859 162.665L55.4094 163.034L59.6538 161.959L53.5856 139.143Z" fill="white"/>
<path d="M35.3027 88.0651C35.3027 88.0651 42.2478 102.235 43.0267 111.31L54.911 110.214C54.911 110.214 48.4898 86.8072 43.8924 84.8965L35.3055 88.0651H35.3027Z" fill="#02D0DA"/>
<path d="M75.6758 83.8086C75.6758 83.8086 83.7247 96.0011 83.6771 107.975L90.639 107.193C90.639 107.193 89.4427 89.6919 83.6771 86.9043L75.6758 83.8086Z" fill="#02D0DA"/>
<path d="M31.7157 15.5497C31.7157 21.6656 37.4533 26.7588 43.5692 26.7588C49.685 26.7588 56.378 21.6684 56.378 15.5497C56.378 9.43107 51.478 3.49732 44.1127 3.97639C34.5621 4.59834 31.7129 9.43107 31.7129 15.5497H31.7157Z" fill="#A48B78"/>
<path d="M43.5701 27.9607C36.6166 27.9607 30.5176 22.1614 30.5176 15.5525C30.5176 7.66327 35.0673 3.36565 44.038 2.78292C47.6184 2.55039 50.9691 3.72145 53.4849 6.08038C56.0876 8.51775 57.5808 11.9721 57.5808 15.5525C57.5808 22.5397 50.0502 27.9607 43.5701 27.9607ZM44.9625 5.15026C44.7132 5.15026 44.4582 5.15866 44.1949 5.17547C36.5017 5.67695 32.9185 8.97161 32.9185 15.5497C32.9185 20.8811 37.8969 25.557 43.5729 25.557C48.8315 25.557 55.1827 21.0912 55.1827 15.5497C55.1827 12.6305 53.9668 9.81488 51.846 7.82857C50.5124 6.57906 48.2628 5.15026 44.9625 5.15026Z" fill="#3E3A39"/>
<path d="M37.6511 21.3823C37.5474 21.3823 37.441 21.3683 37.3373 21.3403C36.6985 21.1666 36.3175 20.5082 36.4912 19.8695C39.0519 10.3777 47.3473 8.48385 47.7003 8.40821C48.3503 8.26813 48.9863 8.67996 49.1263 9.32713C49.2664 9.97429 48.8546 10.6103 48.2102 10.7531C47.9077 10.8204 40.9766 12.4565 38.8081 20.4942C38.6653 21.0293 38.1806 21.3823 37.6511 21.3823Z" fill="#3E3A39"/>
<path d="M46.6679 19.3431C46.6679 19.3431 28.354 24.4699 33.7835 47.0311L39.7228 55.419L73.437 43.7308L85.9797 31.359C85.9797 31.359 81.4832 9.45629 57.9275 12.4204C56.0364 12.6585 54.249 13.4149 52.7502 14.586L46.6679 19.3431Z" fill="#A48B78"/>
<path d="M53.0367 60.8789L48.8848 84.1236L51.3137 92.1809L71.5131 104.18L77.3096 84.485L69.6361 81.3192L72.3844 66.6502L53.0367 60.8789Z" fill="white"/>
<path d="M50.1981 66.9446C56.3784 73.9206 69.6327 74.705 69.6327 74.705C85.2823 73.8001 83.1307 57.9936 83.1307 57.9936L83.7694 53.399L85.0777 42.8539L77.9786 29.2578L48.153 30.8939L42.3789 55.6263L50.1953 66.9446H50.1981Z" fill="white"/>
<path d="M52.2406 69.0645C52.2406 69.0645 62.0854 75.9115 71.0476 74.8133L69.6328 81.3214C69.6328 81.3214 56.9501 80.6854 52.0781 71.6055L52.2406 69.0645Z" fill="#DCDDDD"/>
<path d="M71.6316 30.4062C71.6316 30.4062 70.4241 38.3291 61.9465 40.66L56.5955 40.5591C56.5955 40.5591 52.2587 47.2213 47.3979 47.7956L43.6998 48.6753L37.6484 47.0308L44.0472 26.7501L61.5767 18.1465L77.0386 19.4352C77.0386 19.4352 88.5447 25.8172 85.8272 37.0767L85.505 40.052C85.505 40.052 75.7359 36.3708 73.9933 28.0893L71.6288 30.4118L71.6316 30.4062Z" fill="#A48B78"/>
<path d="M69.1967 59.0454C68.4851 59.0454 67.908 58.4711 67.9024 57.7595C67.8968 57.0451 68.4739 56.4624 69.1883 56.4568L69.9952 56.4512H70.0036C70.7152 56.4512 71.2923 57.0255 71.2979 57.7371C71.3035 58.4515 70.7264 59.0342 70.012 59.0398L69.2051 59.0454H69.1967Z" fill="#3E3A39"/>
<path d="M75.534 47.3723L75.59 47.3707C76.6654 47.3413 77.5659 48.191 77.5955 49.2692L77.597 49.3252C77.6265 50.4006 76.7768 51.3011 75.6985 51.3307L75.6425 51.3322C74.5671 51.3617 73.6666 50.512 73.6371 49.4338L73.6355 49.3777C73.6061 48.3023 74.4558 47.4018 75.534 47.3723Z" fill="#3E3A39"/>
<path d="M58.763 48.5447L58.7098 48.5461C57.6317 48.5757 56.7818 49.4735 56.8113 50.5516L56.8128 50.6048C56.8423 51.6828 57.7402 52.5328 58.8182 52.5033L58.8714 52.5018C59.9495 52.4722 60.7995 51.5744 60.7699 50.4963L60.7685 50.4431C60.7389 49.3651 59.841 48.5151 58.763 48.5447Z" fill="#3E3A39"/>
<path d="M79.5256 42.9766C79.2903 42.9766 79.055 42.9122 78.842 42.7805C78.7972 42.7553 77.2732 41.8504 74.8666 41.8504C74.1522 41.8504 73.5723 41.2704 73.5723 40.556C73.5723 39.8416 74.1522 39.2617 74.8666 39.2617C78.0884 39.2617 80.1336 40.5336 80.2204 40.5897C80.8256 40.9735 81.0021 41.7719 80.621 42.3771C80.3745 42.7665 79.9543 42.9794 79.5256 42.9794V42.9766Z" fill="#3E3A39"/>
<path d="M90.8446 168.397C90.1358 168.397 89.5587 167.825 89.5503 167.114L89.4746 159.446C89.4746 157.855 89.6147 156.266 89.892 154.714C93.6882 133.512 92.5535 124.544 91.3489 115.049C91.0547 112.732 90.7521 110.334 90.5112 107.72C90.4468 107.009 90.9707 106.378 91.6823 106.314C92.3911 106.25 93.0242 106.773 93.0886 107.485C93.324 110.054 93.6237 112.427 93.9151 114.724C95.1422 124.421 96.3021 133.579 92.4359 155.171C92.1837 156.571 92.0577 158.006 92.0577 159.432L92.1333 167.086C92.1417 167.8 91.5674 168.386 90.853 168.391C90.8474 168.391 90.8446 168.391 90.839 168.391L90.8446 168.397Z" fill="#3E3A39"/>
<path d="M74.1965 165.812L39.922 163.406C38.3167 163.293 37.1036 161.898 37.2185 160.293L40.6476 111.428C40.7597 109.823 42.1548 108.609 43.7601 108.724L78.0347 111.131C79.64 111.243 80.853 112.638 80.7382 114.243L77.309 163.109C77.197 164.714 75.8018 165.927 74.1965 165.812Z" fill="white"/>
<path d="M74.1965 165.812L39.922 163.406C38.3167 163.293 37.1036 161.898 37.2185 160.293L40.6476 111.428C40.7597 109.823 42.1548 108.609 43.7601 108.724L78.0347 111.131C79.64 111.243 80.853 112.638 80.7382 114.243L77.309 163.109C77.197 164.714 75.8018 165.927 74.1965 165.812Z" fill="white"/>
<path d="M74.4069 167.114C74.306 167.114 74.208 167.112 74.1071 167.103C74.0959 167.103 74.0847 167.103 74.0707 167.1L52.6162 164.999C51.9046 164.929 51.3835 164.296 51.4536 163.584C51.5236 162.873 52.1596 162.355 52.8684 162.422L74.3032 164.52C74.7319 164.545 75.1409 164.405 75.4659 164.125C75.7937 163.842 75.9898 163.447 76.0206 163.016C76.071 162.304 76.6846 161.763 77.4018 161.814C78.1134 161.864 78.6513 162.483 78.6037 163.195C78.5252 164.316 78.0153 165.341 77.1665 166.078C76.3932 166.75 75.4239 167.112 74.4125 167.112L74.4069 167.114Z" fill="#3E3A39"/>
<path d="M77.3124 164.403C77.2816 164.403 77.2507 164.403 77.2199 164.4C76.5083 164.35 75.9704 163.731 76.0209 163.019L76.1273 161.509C76.1777 160.795 76.7969 160.26 77.5085 160.31C78.2201 160.36 78.758 160.98 78.7076 161.691L78.6011 163.201C78.5535 163.882 77.9848 164.406 77.3124 164.406V164.403Z" fill="#3E3A39"/>
<path d="M38.4262 144.413C38.3954 144.413 38.3646 144.413 38.3337 144.41C37.6193 144.36 37.0842 143.741 37.1319 143.029L39.3563 111.338C39.5188 109.021 41.5387 107.27 43.85 107.432L78.1245 109.839C79.2452 109.917 80.2706 110.427 81.0074 111.279C81.7442 112.128 82.1084 113.212 82.0299 114.335L80.9625 129.542C80.9121 130.257 80.2958 130.789 79.5814 130.744C78.8698 130.694 78.3319 130.075 78.3795 129.363L79.4469 114.156C79.5085 113.265 78.8333 112.486 77.9424 112.425L43.6679 110.018C43.2365 109.987 42.8163 110.127 42.4913 110.413C42.1635 110.696 41.9674 111.091 41.9366 111.523L39.7121 143.214C39.6645 143.898 39.0958 144.419 38.4234 144.419L38.4262 144.413Z" fill="#3E3A39"/>
<path d="M65.1022 120.632C65.0714 120.632 65.0434 120.632 65.0126 120.629L55.165 119.938C54.8177 119.912 54.4927 119.75 54.2685 119.484L51.9348 116.727L44.3005 116.192C43.5861 116.141 43.051 115.522 43.0987 114.811C43.1491 114.096 43.7766 113.558 44.4798 113.609L52.6576 114.183C53.005 114.208 53.33 114.371 53.5541 114.637L55.8879 117.394L64.5419 118.002L67.0577 115.068C67.3239 114.757 67.7245 114.592 68.1308 114.62L76.684 115.22C77.3984 115.27 77.9335 115.889 77.8858 116.601C77.8354 117.315 77.2107 117.85 76.5047 117.803L68.6014 117.248L66.0856 120.181C65.8391 120.47 65.4805 120.632 65.1022 120.632Z" fill="#3E3A39"/>
<path d="M63.8593 140.902L68.9497 135.137C68.9497 135.137 73.0849 134.316 78.5171 132.848C78.5171 132.848 78.5395 132.859 78.5816 132.878C80.3493 133.775 80.1841 136.358 78.3238 137.05L75.4606 138.115L73.5275 143.639L62.1055 143.564L63.8565 140.902H63.8593Z" fill="white"/>
<path d="M72.7015 139.748L82.2857 140.39C82.2857 140.39 84.5802 141.93 83.7201 144.839C83.7201 144.839 85.1125 147.223 84.1319 149.492C84.1319 149.492 85.3506 151.621 83.891 153.495C83.891 153.495 84.6362 156.028 81.9999 157.563C81.9999 157.563 80.1929 159.09 74.7634 157.804L62.8595 155.93L38.1748 160.359L31.9609 148.128L72.7043 139.751L72.7015 139.748Z" fill="white"/>
<path d="M77.9173 159.863C77.1777 159.863 76.3456 159.805 75.4155 159.659L63.6993 157.813L58.4603 158.544C57.7515 158.642 57.0988 158.149 57.0007 157.44C56.9026 156.731 57.3957 156.079 58.1045 155.981L63.534 155.224C63.6601 155.207 63.7889 155.207 63.915 155.227L75.8189 157.104C79.4413 157.667 81.0186 156.675 81.1783 156.566C81.24 156.507 81.2708 156.496 81.3492 156.448C82.9825 155.499 82.7164 154.115 82.6463 153.849C82.5287 153.448 82.6155 153.033 82.8733 152.705C83.767 151.56 83.0386 150.19 83.0049 150.131C82.8144 149.781 82.7892 149.352 82.9461 148.985C83.6465 147.363 82.6099 145.508 82.6015 145.491C82.4278 145.186 82.383 144.816 82.4811 144.477C82.9209 142.992 82.1981 142.051 81.7891 141.659L72.6167 141.045C71.9051 140.998 71.3644 140.381 71.412 139.667C71.4596 138.953 72.0732 138.412 72.7904 138.462L82.3746 139.104C82.6015 139.118 82.82 139.193 83.0105 139.32C84.0163 139.995 85.6552 141.945 85.0921 144.696C85.4843 145.573 86.1315 147.464 85.5348 149.436C85.9634 150.526 86.1987 152.215 85.263 153.79C85.4115 155.143 85.0165 157.272 82.7276 158.645C82.3018 158.959 80.8141 159.869 77.9229 159.869L77.9173 159.863Z" fill="#3E3A39"/>
<path d="M56.3141 144.412C55.723 144.412 55.1879 144.003 55.0534 143.404C54.8965 142.706 55.3335 142.014 56.0311 141.854L61.9705 140.51L67.5092 134.766C68.0219 134.234 68.6747 133.873 69.3975 133.721C70.6666 133.452 74.0677 132.707 78.1832 131.598C78.4634 131.522 78.7743 131.547 79.0433 131.662C79.0433 131.662 79.0881 131.682 79.1694 131.724C80.4469 132.371 81.1893 133.665 81.1081 135.1C81.0268 136.548 80.1331 137.759 78.7771 138.263L75.9139 139.327C75.2416 139.577 74.4991 139.235 74.2498 138.565C74.0005 137.896 74.3422 137.151 75.0118 136.901L77.875 135.837C78.441 135.627 78.5138 135.108 78.5222 134.954C78.5306 134.808 78.5166 134.5 78.2869 134.251C74.3647 135.293 71.1625 135.996 69.9298 136.257C69.7168 136.302 69.5207 136.408 69.3694 136.568L63.5618 142.588C63.3881 142.771 63.1611 142.897 62.9174 142.953L56.5999 144.384C56.5046 144.407 56.4065 144.418 56.3141 144.418V144.412Z" fill="#3E3A39"/>
<path d="M45.5813 50.6107C45.5813 50.6107 41.7319 42.5449 36.9188 48.4815C36.9188 48.4815 28.6485 65.0976 49.5259 62.4193L50.6381 54.5049L45.5813 50.6107Z" fill="white"/>
<path d="M68.435 76.5999C64.0113 76.5999 59.8201 74.5436 56.2649 72.4928C55.6457 72.1342 55.4328 71.3442 55.7914 70.725C56.15 70.1059 56.9401 69.893 57.5592 70.2516C62.4564 73.0755 65.9191 74.1962 69.1522 73.9917C73.8756 73.6919 77.4364 70.9604 79.7337 65.8727C81.5239 61.9029 81.8405 57.9414 81.8433 57.9022C81.8965 57.1906 82.5213 56.6555 83.2301 56.7087C83.9417 56.762 84.4768 57.3811 84.4236 58.0927C84.4095 58.2692 84.0818 62.4912 82.1207 66.8701C79.4395 72.8598 75.0103 76.2161 69.3118 76.5775C69.0177 76.5971 68.7235 76.6055 68.4321 76.6055L68.435 76.5999Z" fill="#3E3A39"/>
<path d="M69.6165 80.9371C69.5352 80.9371 69.4512 80.9287 69.3671 80.9119C68.6668 80.7746 68.2073 80.0938 68.3446 79.3934L69.1906 75.0566C69.3279 74.3562 70.0059 73.8967 70.7091 74.034C71.4095 74.1713 71.869 74.8521 71.7317 75.5525L70.8856 79.8893C70.7651 80.5085 70.2244 80.9371 69.6165 80.9371Z" fill="#3E3A39"/>
<path d="M49.3417 82.8679C49.252 82.8679 49.1596 82.8595 49.0699 82.8399C48.3695 82.6914 47.9241 82.0022 48.0754 81.3046L50.0141 72.2415C50.1401 71.656 50.0953 71.0564 49.888 70.4989L46.5597 65.6018C46.1591 65.0106 46.3104 64.2066 46.9015 63.8031C47.4926 63.3997 48.2967 63.5538 48.7001 64.1449L52.1825 69.2662L52.2329 69.3867C52.684 70.4653 52.7904 71.6392 52.5467 72.7794L50.608 81.8397C50.4791 82.4476 49.9412 82.8623 49.3445 82.8651L49.3417 82.8679Z" fill="#3E3A39"/>
<path d="M83.7721 54.6959C83.7273 54.6959 83.6825 54.6959 83.6377 54.6903C82.9261 54.6174 82.4106 53.9815 82.4834 53.2699L83.7918 40.5283C83.8646 39.8167 84.5034 39.3012 85.2122 39.374C85.9238 39.4469 86.4392 40.0828 86.3664 40.7944L85.0581 53.536C84.9908 54.2028 84.4277 54.6987 83.7721 54.6987V54.6959Z" fill="#3E3A39"/>
<path d="M43.8645 63.7134C40.5643 63.7134 38.4855 62.2986 37.2752 60.9958C34.2747 57.7712 34.0114 52.7536 34.5493 50.347C35.0003 48.3327 36.4543 46.6742 38.3426 46.0214C42.3321 44.643 45.03 48.2066 45.142 48.3607C45.5679 48.935 45.4474 49.7447 44.8731 50.1705C44.3016 50.5964 43.4947 50.4759 43.0661 49.9044C42.9904 49.8035 41.3655 47.7135 39.1887 48.4672C38.1409 48.8286 37.3312 49.7643 37.0763 50.9101C36.6336 52.8825 36.9951 56.8915 39.1719 59.2308C40.6343 60.8025 42.7271 61.3992 45.3914 61.0042C46.0974 60.8978 46.7557 61.388 46.8622 62.094C46.9687 62.8 46.4784 63.4584 45.7724 63.5649C45.0944 63.6657 44.4613 63.7105 43.8645 63.7105V63.7134Z" fill="#3E3A39"/>
<path d="M85.8288 38.3671C85.7672 38.3671 85.7056 38.3615 85.6411 38.3531C84.9323 38.2495 84.4421 37.5939 84.5457 36.8879C85.4954 30.3266 83.7557 24.8635 79.374 20.65C76.0429 17.4478 72.3504 16.1843 72.314 16.173L72.2692 16.1562C65.509 13.6264 59.3399 13.3014 54.4231 15.2177C50.7335 16.6577 48.9993 18.8738 48.9825 18.8962C48.5482 19.4593 47.7386 19.5714 47.1699 19.1399C46.6039 18.7085 46.4891 17.9016 46.9177 17.3329C47.0018 17.2208 49.0105 14.5986 53.3053 12.8728C57.1743 11.3207 63.758 10.2085 73.1545 13.7217C73.5439 13.8561 77.4521 15.2457 81.0858 18.7057C84.5765 22.0283 88.4539 27.9425 87.1064 37.2549C87.0139 37.8993 86.4592 38.3643 85.826 38.3643L85.8288 38.3671Z" fill="#3E3A39"/>
<path d="M61.248 42.1609C60.7577 42.1609 60.287 41.8807 60.0685 41.4045C59.7716 40.7545 60.0573 39.9869 60.7101 39.6899C69.4146 35.7201 69.8236 29.6322 69.8264 29.5706C69.8628 28.8562 70.4764 28.3071 71.1852 28.3435C71.8996 28.3799 72.4487 28.9879 72.4123 29.7023C72.3955 30.0161 71.9052 37.429 61.7831 42.046C61.6094 42.1245 61.4273 42.1637 61.248 42.1637V42.1609Z" fill="#3E3A39"/>
<path d="M46.6973 49.0885C46.1734 49.0885 45.6775 48.7663 45.4842 48.2452C45.2349 47.5756 45.5739 46.8304 46.2435 46.5811C57.9288 42.2246 58.8085 34.016 58.8422 33.6686C58.9066 32.9598 59.5257 32.4359 60.2429 32.4947C60.9517 32.5564 61.4784 33.1755 61.4224 33.8843C61.3888 34.2962 60.4503 44.0456 47.1484 49.0072C46.9999 49.0633 46.8458 49.0885 46.6973 49.0885Z" fill="#3E3A39"/>
<path d="M82.6882 39.5675C82.5481 39.5675 82.4052 39.5451 82.2652 39.4947C76.0737 37.3515 73.7147 28.7814 73.6167 28.4172C73.4318 27.7281 73.8408 27.0164 74.5328 26.8315C75.222 26.6466 75.9308 27.0557 76.1185 27.7449C76.1381 27.8205 78.2253 35.3539 83.114 37.0461C83.7892 37.2786 84.1478 38.0154 83.9125 38.6934C83.7276 39.2285 83.2261 39.5647 82.6882 39.5647V39.5675Z" fill="#3E3A39"/>
<path d="M34.2102 48.3244C33.619 48.3244 33.0867 47.9182 32.9495 47.3186C30.2431 35.4652 33.1484 28.6377 36.0648 24.9985C39.2894 20.9726 43.192 19.8604 43.3573 19.8155C44.0465 19.6278 44.7581 20.0313 44.9486 20.7204C45.1391 21.4068 44.7357 22.1184 44.0493 22.3117C43.4974 22.4686 30.8119 26.3376 35.4737 46.7471C35.6334 47.4447 35.1963 48.1367 34.4987 48.2964C34.4007 48.3188 34.3054 48.33 34.2102 48.33V48.3244Z" fill="#3E3A39"/>
<path d="M53.9752 109.584C53.3504 109.584 52.7985 109.13 52.6977 108.492C50.3135 93.3995 42.6288 85.9081 42.5504 85.8324C42.0349 85.3393 42.0153 84.5213 42.5055 84.003C42.9986 83.4875 43.8139 83.4651 44.3322 83.9554C44.6739 84.2804 52.7229 92.0687 55.2527 108.085C55.3648 108.791 54.8829 109.455 54.1769 109.565C54.1097 109.576 54.0396 109.581 53.9724 109.581L53.9752 109.584Z" fill="#3E3A39"/>
<path d="M43.0232 109.587C42.4433 109.587 41.9138 109.192 41.7681 108.604C39.031 97.5826 34.2431 89.6233 34.1955 89.5448C33.8257 88.9341 34.019 88.1385 34.6297 87.7658C35.2405 87.3932 36.0361 87.5865 36.4087 88.1973C36.6132 88.5335 41.446 96.5516 44.2812 107.979C44.4549 108.674 44.0318 109.374 43.337 109.548C43.2334 109.573 43.1269 109.587 43.0232 109.587Z" fill="#3E3A39"/>
<path d="M83.7698 109.584C83.1114 109.584 82.5483 109.085 82.4839 108.416C80.8954 92.1527 74.3593 84.2103 74.292 84.1346C73.8326 83.5883 73.9026 82.773 74.4461 82.3108C74.9924 81.8513 75.8049 81.9186 76.2672 82.4621C76.5557 82.8039 83.3832 91.0293 85.0585 108.167C85.1285 108.878 84.6074 109.511 83.8958 109.581C83.8538 109.584 83.8118 109.587 83.767 109.587L83.7698 109.584Z" fill="#3E3A39"/>
<path d="M68.6944 111.649C68.0556 111.649 67.5009 111.179 67.4141 110.529C67.3188 109.82 67.8147 109.167 68.5235 109.072L88.7369 106.326C89.4457 106.231 90.0984 106.727 90.1937 107.436C90.2889 108.144 89.7931 108.797 89.0843 108.892L68.8709 111.638C68.812 111.646 68.7532 111.649 68.6944 111.649Z" fill="#3E3A39"/>
<path d="M90.6372 105.801C89.9732 105.801 89.4101 105.294 89.3485 104.624C88.452 94.6815 84.3364 88.5629 84.2944 88.5012C83.891 87.9101 84.0423 87.1061 84.6306 86.7026C85.2217 86.2992 86.0258 86.4505 86.4292 87.0388C86.6141 87.3078 90.9706 93.7822 91.9259 104.389C91.9904 105.101 91.4637 105.731 90.7521 105.795C90.7128 105.798 90.6736 105.801 90.6344 105.801H90.6372Z" fill="#3E3A39"/>
<path d="M61.9312 91.5378C55.6276 91.5378 49.7919 89.5795 49.3941 89.445C48.7189 89.2125 48.3575 88.4785 48.5901 87.8005C48.8226 87.1253 49.5566 86.7611 50.2346 86.9936C50.3831 87.0441 65.1502 91.9861 71.8908 85.9375C72.4231 85.4612 73.2412 85.506 73.7174 86.0355C74.1937 86.5678 74.1489 87.3859 73.6194 87.8621C70.4844 90.6749 66.1055 91.5322 61.934 91.5322L61.9312 91.5378Z" fill="#3E3A39"/>
<path d="M18.2246 148.898C18.1602 148.898 18.0957 148.893 18.0313 148.884C17.3253 148.778 16.8378 148.119 16.9443 147.413L23.6036 102.966C24.671 95.8476 29.148 89.6729 35.5804 86.4511C38.0514 85.2156 41.4805 83.7224 44.2345 82.5233C45.9742 81.7669 47.9297 80.9152 48.4564 80.6267C48.5993 80.4922 48.773 80.3913 48.9719 80.3325C49.6583 80.1308 50.3783 80.5202 50.58 81.2066C50.9218 82.3664 49.9385 82.8175 48.5769 83.4366C47.742 83.8177 46.5934 84.3163 45.2654 84.8963C42.5395 86.0841 39.144 87.5606 36.7374 88.7652C31.0558 91.6088 27.1028 97.0607 26.1615 103.347L19.5021 147.794C19.4069 148.436 18.855 148.898 18.2246 148.898ZM48.0474 81.6324C48.0502 81.7305 48.067 81.8341 48.0978 81.9378C48.067 81.8369 48.0502 81.7333 48.0474 81.6324Z" fill="#3E3A39"/>
<path d="M68.9829 68.6659C64.8225 68.6659 62.9315 65.3853 62.5112 63.6427C62.3712 63.0572 62.6653 62.4548 63.2144 62.2083C69.0837 59.5524 73.9165 61.3006 74.1182 61.379C74.6085 61.5611 74.9334 62.029 74.9334 62.5529C74.9334 64.3851 74.3787 65.8644 73.2889 66.9486C71.594 68.6323 69.2182 68.6659 69.0417 68.6659C69.0109 68.6659 69.0025 68.6659 68.9829 68.6659ZM65.3548 64.0461C65.8619 64.9594 66.9209 66.1585 68.9969 66.1585C69.0081 66.1585 69.0193 66.1585 69.0333 66.1585C69.5488 66.1557 71.8741 65.996 72.3448 63.497C71.0308 63.2309 68.417 62.9619 65.3576 64.0461H65.3548Z" fill="#3E3A39"/>
<path d="M104.756 91.3235L99.4666 91.0293L98.8223 109.5L117.159 116.21L118.108 91.0293L114.693 91.3431L104.756 91.3235Z" fill="white"/>
<path d="M102.099 109.094L99.1992 123.906C99.1992 123.906 109.159 133.56 116.118 126.139L117.437 119.395L117.342 110.727C117.342 110.727 111.509 112.024 102.096 109.094H102.099Z" fill="white"/>
<path d="M111.578 129.736C109.586 129.736 106.958 129.103 103.356 127.537C103.316 127.52 103.28 127.503 103.243 127.481L93.0709 121.805C92.4658 121.468 92.2501 120.704 92.5863 120.099C92.9224 119.493 93.6873 119.278 94.2924 119.614L104.412 125.259C112.898 128.935 114.24 126.817 115.792 124.368C116.206 123.715 116.187 121.603 116.181 120.698V120.381C116.181 120.381 116.181 120.359 116.181 120.348L116.859 89.7294C116.873 89.0374 117.442 88.4855 118.139 88.5023C118.831 88.5163 119.381 89.0907 119.364 89.7827L118.686 120.384V120.678C118.703 122.578 118.658 124.531 117.91 125.71C116.517 127.909 114.96 129.733 111.581 129.733L111.578 129.736Z" fill="#3E3A39"/>
<path d="M99.1974 100.91C98.8724 100.91 98.5502 100.787 98.3037 100.538C98.0739 100.305 92.6613 94.8196 92.1262 94.2453C87.977 89.7992 80.113 86.625 80.0346 86.5942C80.0094 86.583 79.9869 86.5746 79.9617 86.5634L71.3525 82.4871C70.7277 82.1901 70.4588 81.4421 70.7557 80.8173C71.0527 80.1926 71.8007 79.9236 72.4255 80.2206L81.0011 84.2801C81.6931 84.5602 89.5319 87.7905 93.9584 92.5335C94.3702 92.9734 98.1468 96.8087 100.088 98.7754C100.576 99.2685 100.57 100.061 100.077 100.549C99.8333 100.79 99.5139 100.91 99.1974 100.91Z" fill="#3E3A39"/>
<path d="M110.31 91.901C106.097 91.901 102.452 91.859 102.399 91.859C101.707 91.8506 101.152 91.2819 101.16 90.5899C101.169 89.9035 101.729 89.3516 102.413 89.3516H102.427C102.508 89.3516 110.683 89.4468 116.687 89.3516C116.692 89.3516 116.701 89.3516 116.706 89.3516C117.39 89.3516 117.947 89.9007 117.959 90.5843C117.97 91.2762 117.418 91.8478 116.726 91.8562C114.7 91.8898 112.434 91.8982 110.31 91.8982V91.901Z" fill="#3E3A39"/>
<path d="M99.4663 110.349C99.4663 110.349 99.4495 110.349 99.4383 110.349C98.7463 110.335 98.1972 109.761 98.2112 109.069L98.623 89.7349C98.637 89.0513 99.1946 88.5078 99.8753 88.5078C99.8837 88.5078 99.8921 88.5078 99.9034 88.5078C100.595 88.5218 101.144 89.0961 101.13 89.7881L100.719 109.122C100.705 109.805 100.147 110.349 99.4663 110.349Z" fill="#3E3A39"/>
<path d="M52.4757 139.143L25.8607 147.486L21.3418 150.721C26.3062 155.481 33.0496 160.25 43.5303 165.822L58.2778 162.278L52.4729 139.145L52.4757 139.143Z" fill="white"/>
<path d="M44.4578 166.761C43.8695 166.761 43.3372 166.354 43.1971 165.758C43.0374 165.06 43.4717 164.365 44.1665 164.206L59.3622 160.698C60.0598 160.536 60.7546 160.973 60.9143 161.667C61.074 162.365 60.6397 163.06 59.945 163.219L44.7492 166.727C44.6511 166.749 44.5531 166.761 44.4578 166.761Z" fill="#3E3A39"/>
<path d="M26.8135 147.624C26.2419 147.624 25.7181 147.243 25.564 146.666C25.3791 145.977 25.7881 145.265 26.4773 145.08L53.2464 137.894C53.9355 137.709 54.6472 138.118 54.8321 138.807C55.017 139.497 54.6079 140.208 53.9187 140.393L27.1497 147.579C27.0376 147.61 26.9255 147.624 26.8135 147.624Z" fill="#3E3A39"/>
<path d="M57.9958 160.138C57.4299 160.138 56.9088 159.762 56.7491 159.188C55.0738 153.136 53.0342 142.776 53.0146 142.67C52.8773 141.969 53.334 141.289 54.0344 141.151C54.7348 141.014 55.4156 141.471 55.5528 142.171C55.5724 142.275 57.5952 152.54 59.2425 158.496C59.433 159.185 59.0296 159.897 58.3404 160.09C58.2255 160.121 58.1079 160.138 57.993 160.138H57.9958Z" fill="#3E3A39"/>
</g>
<defs>
<clipPath id="clip0_266_7072">
<rect width="140.042" height="170.42" fill="white"/>
</clipPath>
</defs>
</svg>
