<svg width="140" height="171" viewBox="0 0 140 171" fill="none" xmlns="http://www.w3.org/2000/svg">
<g clip-path="url(#clip0_266_6903)">
<path d="M91.1301 166.023C84.4644 168.132 77.3645 169.27 69.9986 169.27C31.3401 169.27 0 137.929 0 99.2681C0 60.6069 31.3401 29.2695 69.9986 29.2695C108.657 29.2695 139.997 60.6097 139.997 99.2681C139.997 129.482 120.857 155.224 94.04 165.029C93.0794 165.379 92.1075 165.713 91.1301 166.021V166.023Z" fill="#FFF22E"/>
<path d="M79.4141 87.8008C79.4141 87.8008 85.5869 88.5878 92.0846 93.2594L103.091 100.085L100.669 124.7L80.5624 115.363L79.4141 87.8008Z" fill="white"/>
<path d="M102.213 103.669L103.988 80.8348C103.988 80.8348 99.4288 71.2087 101.849 65.5176L103.988 62.4929L106.263 43.5235C106.263 43.5235 108.526 41.2101 109.581 44.2265L110.321 57.1071C110.321 57.1071 112.953 55.8775 115.502 59.9162C115.502 59.9162 118.933 60.0562 119.614 62.7757C119.614 62.7757 123.028 61.3025 122.683 64.6382L121.403 68.5088C121.403 68.5088 118.765 78.359 116.149 80.6724L116.855 106.719C116.855 106.719 105.772 109.537 102.215 103.675L102.213 103.669Z" fill="white"/>
<path d="M103.857 63.2045C103.821 63.2045 103.784 63.2045 103.748 63.2017C103.115 63.1569 102.636 62.608 102.681 61.975C102.686 61.8938 102.7 61.8154 102.723 61.7398C102.801 61.2104 103.05 58.4321 103.294 55.7462C103.686 51.3995 104.129 46.4702 104.358 45.067C104.459 44.4369 104.647 43.6275 105.196 42.9273C106 41.905 107.137 41.5157 108.313 41.8574C109.752 42.2747 110.733 43.6359 110.696 45.1679L110.68 56.9673C110.68 57.6003 110.164 58.1156 109.531 58.1156C108.895 58.1156 108.383 57.6003 108.383 56.9645L108.4 45.1399C108.411 44.6329 108.108 44.1904 107.674 44.0672C107.512 44.0196 107.31 43.9607 107.005 44.35C106.829 44.5741 106.714 44.9074 106.627 45.4367C106.411 46.7587 105.952 51.8588 105.585 55.9535C105.434 57.6423 105.294 59.1967 105.184 60.3282C105.128 60.9023 105.084 61.3673 105.047 61.6894C104.997 62.1487 104.876 63.2045 103.86 63.2045H103.857ZM102.992 61.2664C102.885 61.3813 102.801 61.5101 102.753 61.6473C102.807 61.5045 102.888 61.3757 102.992 61.2664ZM103.826 60.9052C103.672 60.9052 103.526 60.936 103.398 60.9892C103.554 60.9248 103.728 60.8967 103.907 60.908C103.879 60.908 103.851 60.9052 103.826 60.9052Z" fill="#3E3A39"/>
<path d="M110.718 67.7895C110.122 67.7895 109.618 67.3302 109.573 66.7252C109.525 66.0922 110.001 65.5405 110.634 65.4929C110.811 65.4789 110.973 65.4285 111.094 65.3808L114.051 59.9418C114.186 59.6954 113.995 59.3033 113.816 59.0176C112.945 57.6452 110.797 58.8888 110.774 58.9C110.228 59.222 109.522 59.04 109.2 58.4939C108.878 57.9477 109.06 57.2419 109.606 56.9198C111.015 56.088 114.116 55.203 115.757 57.7853C116.684 59.2473 116.44 60.3619 116.073 61.0397L112.948 66.7896C112.858 66.9521 112.732 67.0921 112.578 67.1957C112.449 67.2825 111.76 67.7167 110.811 67.7867C110.783 67.7867 110.752 67.7895 110.724 67.7895H110.718Z" fill="#3E3A39"/>
<path d="M113.606 69.8587C113.304 69.8587 112.996 69.8167 112.699 69.7271C111.553 69.3854 110.851 68.4779 110.772 67.24C110.73 66.607 111.212 66.0609 111.845 66.0189C112.478 65.9797 113.024 66.4586 113.066 67.0916C113.088 67.4277 113.186 67.4753 113.36 67.5257C113.688 67.6237 114.046 67.5061 114.175 67.3324L117.819 62.448C117.9 62.3359 117.984 62.1651 117.908 61.969C117.497 60.9188 116.29 61.0896 116.236 61.098C115.606 61.1932 115.024 60.7619 114.928 60.1346C114.833 59.5072 115.264 58.9218 115.892 58.8266C116.953 58.667 119.185 58.9414 120.045 61.1316C120.395 62.0251 120.253 63.0305 119.662 63.8259L116.018 68.7104C115.472 69.4442 114.556 69.8643 113.609 69.8643L113.606 69.8587Z" fill="#3E3A39"/>
<path d="M117.757 70.4878C117.133 70.4878 116.57 70.3057 116.105 69.9556C115.433 69.4459 115.018 68.6225 114.87 67.5078C114.786 66.8776 115.228 66.3007 115.858 66.2166C116.488 66.1354 117.065 66.5751 117.149 67.2053C117.239 67.8803 117.435 68.0791 117.494 68.1211C117.6 68.1996 117.785 68.194 117.92 68.1744C118.158 68.1407 118.379 68.0371 118.527 67.8887L121.331 65.13C121.429 64.9479 121.507 64.7155 121.437 64.497C121.378 64.3177 121.224 64.1637 121.023 64.0853C120.81 64.0125 120.099 64.1525 119.67 64.3177C119.076 64.5446 118.413 64.2505 118.186 63.6568C117.959 63.063 118.253 62.3993 118.847 62.1724C119.272 62.0072 120.751 61.5086 121.869 61.9483C122.714 62.2816 123.356 62.9538 123.627 63.794C123.908 64.665 123.762 65.6145 123.21 66.4715C123.165 66.5443 123.109 66.6115 123.048 66.6704L120.141 69.5327C119.642 70.0228 118.967 70.3505 118.244 70.4541C118.079 70.4766 117.914 70.4906 117.757 70.4906V70.4878Z" fill="#3E3A39"/>
<path d="M103.604 84.4556C103.567 84.4556 103.531 84.4556 103.495 84.45C102.862 84.3912 102.397 83.831 102.456 83.1981L102.674 80.8595C102.744 80.1061 102.685 79.3639 102.498 78.6581C102.29 77.8711 101.895 76.6836 101.201 75.4793C101.184 75.4513 101.17 75.4204 101.156 75.3924C100.988 75.0339 99.526 71.8019 99.8873 69.2252C99.9013 69.116 99.9237 68.9312 99.9517 68.6931C100.411 64.6628 100.764 63.4277 101.59 62.9488C102.848 62.2178 104.663 60.9239 106.122 59.8848C108.662 58.0755 108.76 58.0055 109.407 58.2156C110.275 58.4956 110.992 59.1258 111.373 59.9464C111.852 60.9715 111.807 62.201 111.239 63.6014C111.211 63.6686 111.177 63.733 111.138 63.7946C111.065 63.9066 109.667 66.0688 108.617 67.514C109.821 68.9816 110.947 71.6087 110.11 73.1154C109.802 73.67 109.102 73.8688 108.547 73.5608C107.995 73.2527 107.797 72.5609 108.096 72.0092C108.292 71.4294 107.278 69.1216 106.461 68.5839C106.189 68.4046 106.004 68.1189 105.954 67.7941C105.903 67.472 105.996 67.1443 106.203 66.8894C107.024 65.8924 108.794 63.1813 109.146 62.6379C109.427 61.9069 109.477 61.3132 109.289 60.9155C109.231 60.7894 109.152 60.6942 109.071 60.6186C108.662 60.8959 108.032 61.344 107.455 61.7557C106.026 62.7724 104.268 64.0243 102.937 64.8197C102.78 65.195 102.545 66.2369 102.234 68.9508C102.203 69.2168 102.181 69.4213 102.164 69.5417C101.943 71.1297 102.834 73.5272 103.22 74.3786C104.024 75.7845 104.478 77.1597 104.719 78.0699C104.976 79.039 105.057 80.05 104.962 81.0751L104.744 83.4137C104.688 84.0103 104.186 84.4556 103.601 84.4556H103.604Z" fill="#3E3A39"/>
<path d="M115.62 84.8673C114.998 84.8673 114.489 84.3716 114.472 83.747L114.436 82.2878C114.436 82.2458 114.436 82.2038 114.438 82.1618C114.528 81.0919 114.951 80.0949 115.659 79.2771C119.228 75.16 120.11 68.8892 120.118 68.8276C120.202 68.2002 120.782 67.7605 121.409 67.8417C122.037 67.9257 122.479 68.5027 122.395 69.1328C122.356 69.4157 121.421 76.1374 117.393 80.7811C117.021 81.2124 116.791 81.7361 116.732 82.2963L116.769 83.6882C116.785 84.324 116.284 84.8505 115.648 84.8673C115.637 84.8673 115.629 84.8673 115.617 84.8673H115.62Z" fill="#3E3A39"/>
<path d="M101.724 109.483C101.691 109.483 101.654 109.483 101.621 109.477C100.946 109.421 100.444 108.828 100.5 108.153L102.332 86.2593C102.388 85.5844 102.982 85.083 103.657 85.139C104.332 85.1951 104.833 85.7888 104.777 86.4638L102.945 108.357C102.892 108.998 102.354 109.48 101.724 109.48V109.483Z" fill="#3E3A39"/>
<path d="M116.669 96.0198C116.098 96.0198 115.611 95.5857 115.555 95.006L114.468 83.6462C114.409 83.03 114.86 82.4839 115.476 82.4251C116.095 82.3663 116.639 82.8172 116.697 83.4333L117.784 94.7931C117.843 95.4093 117.392 95.9554 116.776 96.0142C116.739 96.017 116.703 96.0198 116.667 96.0198H116.669Z" fill="#3E3A39"/>
<path d="M105.636 33.0093V18.6359L101.866 19.8459H101.67V15.5411L107.689 13.6562H111.346V33.0093H105.636Z" fill="#3E3A39"/>
<path d="M87.6375 5.36684C88.2789 5.01395 89.2955 4.45381 90.427 4.46501C91.6145 4.47341 92.5444 5.11478 93.1465 6.20986C93.8607 7.5038 93.7039 8.68571 93.0989 9.62395C92.5248 10.5174 91.5949 11.0299 90.934 11.394L90.4466 11.6629L91.7154 13.9623L89.416 15.231L84.834 6.91845L87.6431 5.36964L87.6375 5.36684ZM89.5196 9.97964L90.0069 9.71077C90.2954 9.55113 90.6931 9.33268 90.892 8.96298C91.0908 8.59328 91.0712 8.08635 90.7799 7.55421C90.4887 7.02488 90.0685 6.7364 89.6484 6.70559C89.2283 6.67759 88.8306 6.89604 88.5449 7.05568L88.0576 7.32455L89.5196 9.97684V9.97964Z" fill="#3E3A39"/>
<path d="M101.198 10.452C98.1765 11.113 96.1656 9.47459 95.5494 6.66266C94.9108 3.7527 96.16 1.4253 99.1568 0.767126C102.179 0.106154 104.19 1.74458 104.806 4.55651C105.444 7.46647 104.195 9.79387 101.198 10.452ZM102.1 5.18948C101.669 3.21776 100.812 2.37194 99.5292 2.65202C98.2465 2.93209 97.8208 4.06078 98.2549 6.0325C98.6862 8.00421 99.5432 8.85283 100.826 8.56995C102.109 8.28988 102.534 7.16119 102.1 5.18948Z" fill="#3E3A39"/>
<path d="M109.716 0.0196051L109.643 9.51407L107.016 9.49447L107.088 0L109.716 0.0196051Z" fill="#3E3A39"/>
<path d="M115.853 0.698302L118.135 6.70866L119.323 1.48811L121.538 1.99224L119.432 11.2486L117.217 10.7445L114.693 4.42047L113.45 9.88749L111.234 9.38336L113.341 0.126953L115.853 0.698302Z" fill="#3E3A39"/>
<path d="M131.064 6.67212L130.123 8.43098L128.03 7.31349L124.496 13.926L122.18 12.6881L125.714 6.07557L123.622 4.95808L124.563 3.19922L131.066 6.67492L131.064 6.67212Z" fill="#3E3A39"/>
<path d="M90.1914 163.808L90.7432 163.819L91.3537 152.994L90.6087 157.587L90.1914 163.808Z" fill="#68E6E0"/>
<path d="M21.3385 150.729L25.856 147.494L40.319 143.142L43.0133 112.978L90.6117 107.217L93.1211 121.753L93.2192 119.991L90.41 95.9049C90.0767 93.0454 88.1723 90.6143 85.4779 89.6033L69.7351 83.7077L51.8636 79.6719L42.2571 84.9709L30.1944 92.1043C30.1944 92.1043 24.9542 99.333 24.2176 107.55L18.2969 147.623C19.2771 148.687 20.291 149.724 21.3357 150.726L21.3385 150.729Z" fill="white"/>
<path d="M92.5522 145.586C94.5519 138.624 93.216 122.329 93.216 122.329L93.118 121.752L91.3535 152.991L92.5522 145.583V145.586Z" fill="#68E6E0"/>
<path d="M55.1915 163.27L44.8008 165.908C52.5028 168.824 60.8518 170.423 69.5732 170.423C76.5918 170.423 83.3668 169.387 89.7581 167.465L89.6236 160.52L55.1915 163.27Z" fill="#02D0DA"/>
<path d="M43.0127 112.978L40.3184 143.145L53.5686 139.156L59.635 161.965L55.3919 163.041L90.1909 163.808L90.6082 157.588L91.3532 152.995L93.1177 121.755L90.6082 107.217L43.0127 112.978Z" fill="#02D0DA"/>
<path d="M38.1602 162.662C38.2918 162.729 38.4262 162.794 38.5579 162.861L38.5747 162.673L38.1602 162.665V162.662Z" fill="#68E6E0"/>
<path d="M38.5566 162.86C40.646 163.904 42.7969 164.845 45.0011 165.68L55.3918 163.042L38.5734 162.672L38.5566 162.86Z" fill="white"/>
<path d="M53.5693 139.156L40.3191 143.144L38.5742 162.671L55.3926 163.041L59.6357 161.965L53.5693 139.156Z" fill="white"/>
<path d="M35.291 88.0934C35.291 88.0934 42.234 102.259 43.0126 111.331L54.8933 110.236C54.8933 110.236 48.474 86.8359 43.878 84.9258L35.2938 88.0934H35.291Z" fill="#02D0DA"/>
<path d="M75.6523 83.8398C75.6523 83.8398 83.6988 96.0286 83.6512 107.999L90.611 107.218C90.611 107.218 89.4151 89.7214 83.6512 86.9346L75.6523 83.8398Z" fill="#02D0DA"/>
<path d="M31.7059 15.6009C31.7059 21.7149 37.4418 26.8066 43.5558 26.8066C49.6698 26.8066 56.3607 21.7177 56.3607 15.6009C56.3607 9.48409 51.4623 3.55215 44.0992 4.03107C34.5515 4.65284 31.7031 9.48409 31.7031 15.6009H31.7059Z" fill="#A48B78"/>
<path d="M43.5564 28.0077C36.605 28.0077 30.5078 22.2102 30.5078 15.6033C30.5078 7.71647 35.0562 3.42015 44.0241 2.8376C47.6035 2.60514 50.9531 3.77584 53.4682 6.13406C56.0701 8.57069 57.5628 12.024 57.5628 15.6033C57.5628 22.5883 50.0345 28.0077 43.5564 28.0077ZM44.9484 5.20422C44.6991 5.20422 44.4442 5.21262 44.181 5.22942C36.4902 5.73075 32.908 9.02441 32.908 15.6005C32.908 20.9303 37.8849 25.6047 43.5592 25.6047C48.8162 25.6047 55.1654 21.1404 55.1654 15.6005C55.1654 12.6822 53.9499 9.86743 51.8298 7.88171C50.4966 6.63259 48.2476 5.20422 44.9484 5.20422Z" fill="#3E3A39"/>
<path d="M37.639 21.4311C37.5354 21.4311 37.4289 21.4171 37.3253 21.3891C36.6868 21.2155 36.3059 20.5573 36.4795 19.9187C39.0394 10.4298 47.3323 8.53655 47.6852 8.46094C48.335 8.3209 48.9707 8.73261 49.1108 9.37957C49.2508 10.0265 48.8391 10.6623 48.1949 10.8051C47.8925 10.8724 40.9635 12.508 38.7957 20.5433C38.6529 21.0782 38.1683 21.4311 37.639 21.4311Z" fill="#3E3A39"/>
<path d="M46.654 19.3917C46.654 19.3917 28.3456 24.517 33.7734 47.0712L39.711 55.4566L73.4149 43.772L85.9538 31.404C85.9538 31.404 81.4586 9.50788 57.9101 12.4711C56.0196 12.7091 54.2327 13.4653 52.7343 14.636L46.654 19.3917Z" fill="#A48B78"/>
<path d="M53.0198 60.916L48.8691 84.1537L51.2974 92.2086L71.4906 104.204L77.2853 84.515L69.6141 81.3501L72.3616 66.6855L53.0198 60.916Z" fill="white"/>
<path d="M50.184 66.9801C56.3624 73.9539 69.6127 74.7381 69.6127 74.7381C85.2575 73.8335 83.1066 58.0318 83.1066 58.0318L83.7451 53.4386L85.0531 42.8966L77.956 29.3047L48.1395 30.9403L42.3672 55.6651L50.1812 66.9801H50.184Z" fill="white"/>
<path d="M52.2249 69.0996C52.2249 69.0996 62.0667 75.9446 71.0262 74.8467L69.6119 81.3528C69.6119 81.3528 56.933 80.717 52.0625 71.6399L52.2249 69.0996Z" fill="#DCDDDD"/>
<path d="M71.6095 30.4533C71.6095 30.4533 70.4024 38.3737 61.9274 40.7039L56.578 40.6031C56.578 40.6031 52.2425 47.2632 47.3832 47.8374L43.6863 48.7168L37.6367 47.0728L44.0336 26.7983L61.5577 18.1973L77.015 19.4856C77.015 19.4856 88.5175 25.8657 85.8008 37.1218L85.4788 40.0962C85.4788 40.0962 75.7126 36.416 73.9706 28.1371L71.6067 30.4589L71.6095 30.4533Z" fill="#A48B78"/>
<path d="M69.1748 59.0837C68.4635 59.0837 67.8865 58.5096 67.8809 57.7982C67.8753 57.084 68.4523 56.5014 69.1664 56.4958L69.973 56.4902H69.9814C70.6928 56.4902 71.2698 57.0644 71.2754 57.7758C71.281 58.49 70.704 59.0725 69.9898 59.0781L69.1832 59.0837H69.1748Z" fill="#3E3A39"/>
<path d="M75.5632 47.4138L75.51 47.4153C74.4323 47.4448 73.5825 48.3424 73.6121 49.4201L73.6135 49.4733C73.6431 50.551 74.5407 51.4007 75.6184 51.3712L75.6716 51.3698C76.7493 51.3402 77.599 50.4426 77.5695 49.3649L77.568 49.3117C77.5385 48.234 76.6409 47.3843 75.5632 47.4138Z" fill="#3E3A39"/>
<path d="M58.7429 48.5857L58.6897 48.5871C57.6119 48.6167 56.7622 49.5143 56.7918 50.592L56.7932 50.6452C56.8228 51.7229 57.7204 52.5726 58.7981 52.5431L58.8513 52.5416C59.929 52.5121 60.7787 51.6145 60.7492 50.5368L60.7477 50.4836C60.7182 49.4059 59.8206 48.5561 58.7429 48.5857Z" fill="#3E3A39"/>
<path d="M79.5023 43.0185C79.2671 43.0185 79.0318 42.954 78.819 42.8224C78.7741 42.7972 77.2506 41.8926 74.8447 41.8926C74.1305 41.8926 73.5508 41.3128 73.5508 40.5986C73.5508 39.8844 74.1305 39.3047 74.8447 39.3047C78.0656 39.3047 80.1101 40.5762 80.1969 40.6322C80.8019 41.0159 80.9783 41.8141 80.5974 42.4191C80.351 42.8084 79.9308 43.0213 79.5023 43.0213V43.0185Z" fill="#3E3A39"/>
<path d="M90.8168 168.402C90.1082 168.402 89.5313 167.83 89.5229 167.119L89.4473 159.453C89.4473 157.862 89.5873 156.274 89.8646 154.723C93.6596 133.527 92.5253 124.562 91.321 115.07C91.0269 112.754 90.7244 110.356 90.4835 107.743C90.4191 107.032 90.9429 106.402 91.6542 106.337C92.3628 106.273 92.9958 106.797 93.0602 107.508C93.2955 110.076 93.5951 112.449 93.8864 114.745C95.1131 124.439 96.2726 133.594 92.4076 155.179C92.1556 156.58 92.0295 158.014 92.0295 159.439L92.1052 167.091C92.1136 167.805 91.5394 168.39 90.8252 168.396C90.8196 168.396 90.8168 168.396 90.8112 168.396L90.8168 168.402Z" fill="#3E3A39"/>
<path d="M74.1736 165.816L39.9094 163.41C38.3046 163.298 37.0919 161.904 37.2067 160.299L40.6348 111.449C40.7469 109.844 42.1416 108.631 43.7464 108.746L78.0106 111.152C79.6154 111.264 80.8281 112.658 80.7133 114.263L77.2852 163.114C77.1731 164.718 75.7784 165.931 74.1736 165.816Z" fill="white"/>
<path d="M74.1736 165.816L39.9094 163.41C38.3046 163.298 37.0919 161.904 37.2067 160.299L40.6348 111.449C40.7469 109.844 42.1416 108.631 43.7464 108.746L78.0106 111.152C79.6154 111.264 80.8281 112.658 80.7133 114.263L77.2852 163.114C77.1731 164.718 75.7784 165.931 74.1736 165.816Z" fill="white"/>
<path d="M74.3843 167.119C74.2835 167.119 74.1855 167.116 74.0846 167.108C74.0734 167.108 74.0622 167.108 74.0482 167.105L52.6002 165.004C51.8889 164.934 51.3679 164.301 51.4379 163.59C51.508 162.879 52.1437 162.361 52.8523 162.428L74.2807 164.526C74.7092 164.551 75.1181 164.411 75.443 164.131C75.7707 163.848 75.9667 163.453 75.9975 163.022C76.0479 162.307 76.6613 161.767 77.3783 161.82C78.0897 161.87 78.6274 162.489 78.5798 163.201C78.5014 164.321 77.9917 165.346 77.143 166.083C76.37 166.755 75.401 167.116 74.3899 167.116L74.3843 167.119Z" fill="#3E3A39"/>
<path d="M77.2885 164.408C77.2577 164.408 77.2269 164.408 77.1961 164.405C76.4847 164.355 75.947 163.736 75.9974 163.024L76.1038 161.515C76.1543 160.803 76.7732 160.263 77.4846 160.316C78.196 160.367 78.7337 160.986 78.6833 161.697L78.5769 163.206C78.5293 163.887 77.9607 164.411 77.2885 164.411V164.408Z" fill="#3E3A39"/>
<path d="M38.4141 144.425C38.3833 144.425 38.3525 144.425 38.3216 144.423C37.6075 144.372 37.0725 143.753 37.1201 143.042L39.3439 111.36C39.5064 109.044 41.5257 107.293 43.8363 107.456L78.1004 109.862C79.2207 109.94 80.2458 110.45 80.9823 111.301C81.7189 112.15 82.083 113.234 82.0046 114.357L80.9375 129.559C80.8871 130.27 80.271 130.808 79.5568 130.761C78.8454 130.71 78.3076 130.091 78.3553 129.38L79.4223 114.178C79.484 113.287 78.809 112.508 77.9183 112.447L43.6542 110.041C43.2229 110.01 42.8028 110.15 42.4779 110.436C42.1502 110.719 41.9542 111.114 41.9234 111.545L39.6996 143.227C39.652 143.91 39.0834 144.431 38.4113 144.431L38.4141 144.425Z" fill="#3E3A39"/>
<path d="M65.0839 120.652C65.053 120.652 65.025 120.652 64.9942 120.649L55.1497 119.957C54.8024 119.932 54.4775 119.769 54.2534 119.503L51.9204 116.747L44.2884 116.212C43.5743 116.162 43.0393 115.543 43.0869 114.832C43.1373 114.118 43.7647 113.58 44.4677 113.63L52.643 114.204C52.9903 114.23 53.3152 114.392 53.5393 114.658L55.8723 117.414L64.5237 118.022L67.0388 115.089C67.3048 114.779 67.7053 114.61 68.1114 114.641L76.6621 115.241C77.3762 115.291 77.9112 115.91 77.8636 116.621C77.8132 117.336 77.1886 117.871 76.4828 117.823L68.582 117.268L66.0669 120.201C65.8204 120.489 65.462 120.652 65.0839 120.652Z" fill="#3E3A39"/>
<path d="M63.8392 140.913L68.9281 135.15C68.9281 135.15 73.062 134.329 78.4926 132.861C78.4926 132.861 78.515 132.873 78.557 132.892C80.3243 133.788 80.159 136.371 78.2994 137.062L75.437 138.127L73.5045 143.65L62.0859 143.574L63.8364 140.913H63.8392Z" fill="white"/>
<path d="M72.6794 139.762L82.2606 140.403C82.2606 140.403 84.5544 141.943 83.6946 144.851C83.6946 144.851 85.0866 147.234 84.1063 149.503C84.1063 149.503 85.3246 151.631 83.8655 153.505C83.8655 153.505 84.6105 156.037 81.975 157.572C81.975 157.572 80.1685 159.098 74.7407 157.812L62.8404 155.939L38.1632 160.367L31.9512 148.139L72.6822 139.765L72.6794 139.762Z" fill="white"/>
<path d="M77.8934 159.869C77.154 159.869 76.3221 159.81 75.3923 159.664L63.6797 157.819L58.4423 158.55C57.7337 158.65 57.0811 158.155 56.9831 157.446C56.8851 156.737 57.378 156.085 58.0866 155.987L63.5144 155.231C63.6405 155.214 63.7693 155.214 63.8953 155.234L75.7956 157.11C79.417 157.673 80.9938 156.681 81.1534 156.572C81.215 156.513 81.2458 156.502 81.3242 156.455C82.9571 155.505 82.691 154.122 82.621 153.856C82.5034 153.455 82.5902 153.041 82.8478 152.713C83.7413 151.567 83.0131 150.198 82.9795 150.139C82.789 149.789 82.7638 149.36 82.9207 148.993C83.6208 147.372 82.5846 145.518 82.5762 145.501C82.4025 145.196 82.3577 144.826 82.4557 144.487C82.8955 143.003 82.1729 142.059 81.764 141.67L72.5944 141.056C71.883 141.009 71.3425 140.392 71.3901 139.678C71.4377 138.964 72.051 138.424 72.768 138.474L82.3493 139.115C82.5762 139.129 82.7946 139.205 82.9851 139.331C83.9905 140.006 85.629 141.955 85.066 144.706C85.4581 145.582 86.1051 147.473 85.5085 149.444C85.937 150.534 86.1723 152.223 85.2369 153.797C85.3853 155.149 84.9904 157.278 82.7022 158.65C82.2765 158.964 80.7893 159.874 77.899 159.874L77.8934 159.869Z" fill="#3E3A39"/>
<path d="M56.2981 144.426C55.7071 144.426 55.1722 144.017 55.0377 143.418C54.8809 142.72 55.3178 142.029 56.0152 141.869L61.9527 140.525L67.4898 134.783C68.0023 134.251 68.6549 133.89 69.3775 133.738C70.6462 133.469 74.0463 132.724 78.1606 131.615C78.4406 131.54 78.7515 131.565 79.0204 131.68C79.0204 131.68 79.0652 131.699 79.1464 131.741C80.4235 132.388 81.1657 133.682 81.0845 135.116C81.0033 136.564 80.1099 137.774 78.7543 138.278L75.892 139.343C75.2198 139.592 74.4776 139.25 74.2283 138.581C73.9791 137.911 74.3208 137.166 74.9901 136.917L77.8525 135.853C78.4182 135.643 78.491 135.125 78.4994 134.971C78.5078 134.825 78.4938 134.517 78.2642 134.268C74.3432 135.31 71.1419 136.013 69.9096 136.273C69.6968 136.318 69.5007 136.424 69.3495 136.584L63.5436 142.603C63.3699 142.785 63.1431 142.911 62.8994 142.967L56.5837 144.398C56.4885 144.42 56.3905 144.432 56.2981 144.432V144.426Z" fill="#3E3A39"/>
<path d="M45.5684 50.6504C45.5684 50.6504 41.7202 42.5871 36.9085 48.5218C36.9085 48.5218 28.6408 65.1329 49.5118 62.4554L50.6237 54.5434L45.5684 50.6504Z" fill="white"/>
<path d="M68.4135 76.631C63.9911 76.631 59.8012 74.5753 56.2471 72.5251C55.6282 72.1666 55.4153 71.3768 55.7738 70.7579C56.1323 70.1389 56.9221 69.9261 57.5411 70.2846C62.4367 73.1077 65.8984 74.228 69.1305 74.0235C73.8525 73.7238 77.4122 70.9931 79.7088 65.907C81.4985 61.9412 81.815 57.9782 81.8178 57.9389C81.871 57.2276 82.4955 56.6926 83.2041 56.7458C83.9155 56.7991 84.4504 57.418 84.3972 58.1294C84.3832 58.3058 84.0555 62.5265 82.095 66.9041C79.4147 72.892 74.9868 76.2473 69.2901 76.6086C68.996 76.6282 68.702 76.6366 68.4107 76.6366L68.4135 76.631Z" fill="#3E3A39"/>
<path d="M69.5946 80.9682C69.5134 80.9682 69.4294 80.9598 69.3453 80.943C68.6452 80.8058 68.1858 80.128 68.3231 79.425L69.1689 75.0895C69.3061 74.3893 69.9839 73.93 70.6869 74.0672C71.3871 74.2045 71.8464 74.8822 71.7092 75.5852L70.8633 79.9207C70.7429 80.5397 70.2024 80.9682 69.5946 80.9682Z" fill="#3E3A39"/>
<path d="M49.3271 82.8979C49.2375 82.8979 49.1451 82.8895 49.0554 82.8699C48.3553 82.7215 47.9099 82.0325 48.0612 81.3351L49.9993 72.2747C50.1253 71.6894 50.0805 71.09 49.8732 70.5327L46.546 65.637C46.1455 65.0461 46.2967 64.2423 46.8877 63.839C47.4786 63.4384 48.2824 63.5897 48.6857 64.1806L52.167 69.3004L52.2175 69.4208C52.6684 70.4991 52.7748 71.6726 52.5311 72.8125L50.593 81.87C50.4642 82.4778 49.9265 82.8923 49.3299 82.8951L49.3271 82.8979Z" fill="#3E3A39"/>
<path d="M83.7483 54.7342C83.7035 54.7342 83.6587 54.7342 83.6139 54.7286C82.9025 54.6558 82.3872 54.02 82.46 53.3086L83.7679 40.5709C83.8407 39.8595 84.4793 39.3442 85.1879 39.417C85.8993 39.4898 86.4146 40.1256 86.3418 40.837L85.0338 53.5747C84.9666 54.2413 84.4037 54.737 83.7483 54.737V54.7342Z" fill="#3E3A39"/>
<path d="M43.8519 63.747C40.5498 63.747 38.4745 62.3326 37.2645 61.0302C34.265 57.8066 34.0017 52.7905 34.5394 50.3847C34.9904 48.371 36.4439 46.7129 38.3316 46.0604C42.3199 44.6824 45.017 48.2449 45.129 48.399C45.5547 48.9731 45.4343 49.7825 44.8601 50.2082C44.2888 50.6339 43.4822 50.5135 43.0537 49.9422C42.978 49.8413 41.3536 47.752 39.1774 48.5054C38.13 48.8667 37.3206 49.8021 37.0657 50.9476C36.6232 52.9193 36.9845 56.9272 39.1606 59.2658C40.6226 60.8398 42.7148 61.4335 45.3783 61.0386C46.084 60.935 46.7422 61.4195 46.8486 62.1281C46.9551 62.8339 46.4649 63.4921 45.7592 63.5985C45.0842 63.6993 44.4484 63.7442 43.8547 63.7442L43.8519 63.747Z" fill="#3E3A39"/>
<path d="M85.8033 38.4117C85.7417 38.4117 85.68 38.4061 85.6156 38.3977C84.907 38.2941 84.4169 37.6387 84.5205 36.9329C85.47 30.3736 83.7307 24.9122 79.3504 20.6999C76.0203 17.4987 72.329 16.2355 72.2926 16.2243L72.2478 16.2075C65.4896 13.6785 59.3224 13.3536 54.4071 15.2693C50.7186 16.7089 48.9849 18.9242 48.9681 18.9466C48.534 19.5096 47.7246 19.6216 47.156 19.1903C46.5903 18.759 46.4755 17.9552 46.904 17.3838C46.988 17.2718 48.9961 14.6503 53.2896 12.9251C57.1574 11.3735 63.7391 10.2616 73.1328 13.7737C73.5221 13.9081 77.4291 15.2973 81.0616 18.7562C84.5514 22.0779 88.4276 27.9902 87.0804 37.2998C86.988 37.944 86.4334 38.4089 85.8005 38.4089L85.8033 38.4117Z" fill="#3E3A39"/>
<path d="M61.23 42.205C60.7399 42.205 60.2694 41.9249 60.0509 41.4488C59.754 40.799 60.0397 40.0316 60.6923 39.7347C69.3017 35.8081 69.789 29.8594 69.8058 29.6073C69.8535 28.8987 70.4612 28.3554 71.1726 28.3946C71.8812 28.4366 72.4245 29.0387 72.3909 29.7473C72.3741 30.061 71.884 37.4717 61.765 42.0873C61.5913 42.1658 61.4093 42.205 61.23 42.205Z" fill="#3E3A39"/>
<path d="M46.6833 49.1299C46.1595 49.1299 45.6638 48.8079 45.4705 48.2869C45.2213 47.6176 45.5602 46.8726 46.2295 46.6233C57.9114 42.2682 58.7908 34.062 58.8244 33.7147C58.8888 33.0062 59.5078 32.4852 60.2248 32.5412C60.9334 32.6028 61.4599 33.2218 61.4039 33.9304C61.3703 34.3421 60.432 44.0886 47.1342 49.0487C46.9857 49.1047 46.8317 49.1299 46.6833 49.1299Z" fill="#3E3A39"/>
<path d="M82.664 39.6105C82.5239 39.6105 82.3811 39.5881 82.241 39.5377C76.0514 37.3951 73.6932 28.8277 73.5952 28.4636C73.4103 27.7746 73.8193 27.0633 74.511 26.8784C75.2 26.6936 75.9086 27.1025 76.0962 27.7914C76.1159 27.8671 78.2024 35.3982 83.0897 37.0899C83.7646 37.3223 84.1231 38.0589 83.8879 38.7367C83.703 39.2716 83.2017 39.6077 82.664 39.6077V39.6105Z" fill="#3E3A39"/>
<path d="M34.1997 48.3665C33.6087 48.3665 33.0766 47.9604 32.9394 47.3611C30.2339 35.5112 33.1382 28.6858 36.0538 25.0477C39.2774 21.023 43.1788 19.9111 43.3441 19.8663C44.0331 19.6787 44.7444 20.082 44.9349 20.7709C45.1253 21.4571 44.722 22.1685 44.0359 22.3618C43.4841 22.5186 30.8024 26.3864 35.4628 46.7897C35.6225 47.4871 35.1856 48.1789 34.4882 48.3385C34.3901 48.3609 34.2949 48.3721 34.1997 48.3721V48.3665Z" fill="#3E3A39"/>
<path d="M53.9579 109.606C53.3334 109.606 52.7816 109.152 52.6808 108.513C50.2974 93.4258 42.615 85.9367 42.5366 85.861C42.0212 85.3681 42.0016 84.5503 42.4917 84.0322C42.9847 83.5168 43.7997 83.4944 44.3178 83.9846C44.6595 84.3094 52.706 92.0955 55.2351 108.107C55.3471 108.813 54.8654 109.477 54.1596 109.586C54.0924 109.597 54.0223 109.603 53.9551 109.603L53.9579 109.606Z" fill="#3E3A39"/>
<path d="M43.0107 109.606C42.431 109.606 41.9017 109.211 41.756 108.623C39.0197 97.6049 34.2333 89.6481 34.1857 89.5696C33.816 88.9591 34.0092 88.1637 34.6198 87.7912C35.2303 87.4187 36.0257 87.6119 36.3982 88.2225C36.6027 88.5586 41.4339 96.5743 44.2683 107.998C44.4419 108.693 44.019 109.393 43.3244 109.567C43.2208 109.592 43.1144 109.606 43.0107 109.606Z" fill="#3E3A39"/>
<path d="M83.7453 109.607C83.0872 109.607 82.5242 109.108 82.4598 108.439C80.8718 92.1809 74.3377 84.2408 74.2705 84.1652C73.8111 83.6191 73.8812 82.8041 74.4245 82.3419C74.9706 81.8826 75.7829 81.9498 76.245 82.4932C76.5335 82.8349 83.3588 91.0578 85.0337 108.19C85.1037 108.901 84.5827 109.534 83.8714 109.604C83.8293 109.607 83.7873 109.61 83.7425 109.61L83.7453 109.607Z" fill="#3E3A39"/>
<path d="M68.6745 111.671C68.0359 111.671 67.4813 111.2 67.3945 110.551C67.2993 109.842 67.795 109.19 68.5036 109.094L88.7109 106.35C89.4195 106.254 90.072 106.75 90.1672 107.459C90.2625 108.167 89.7667 108.82 89.0582 108.915L68.8509 111.66C68.7921 111.668 68.7333 111.671 68.6745 111.671Z" fill="#3E3A39"/>
<path d="M90.6098 105.826C89.946 105.826 89.3831 105.319 89.3215 104.647C88.4252 94.7075 84.311 88.5907 84.269 88.5319C83.8657 87.9409 84.0169 87.1371 84.605 86.7338C85.196 86.3305 85.9998 86.4817 86.4031 87.0699C86.588 87.3388 90.9431 93.8112 91.8981 104.415C91.9626 105.126 91.436 105.756 90.7246 105.821C90.6854 105.824 90.6462 105.826 90.607 105.826H90.6098Z" fill="#3E3A39"/>
<path d="M61.9134 91.5673C55.6118 91.5673 49.7779 89.6096 49.3802 89.4751C48.7052 89.2427 48.3439 88.5089 48.5764 87.8311C48.8088 87.1561 49.5426 86.792 50.2204 87.0245C50.3688 87.0749 65.1315 92.0154 71.87 85.9686C72.4022 85.4925 73.22 85.5373 73.6961 86.0666C74.1722 86.5988 74.1274 87.4166 73.5981 87.8927C70.4641 90.7046 66.0865 91.5617 61.9162 91.5617L61.9134 91.5673Z" fill="#3E3A39"/>
<path d="M18.2184 148.909C18.1539 148.909 18.0895 148.903 18.0251 148.895C17.3193 148.788 16.832 148.13 16.9384 147.424L23.5957 102.991C24.6628 95.8742 29.1384 89.7013 35.5689 86.4805C38.0391 85.2454 41.4672 83.7526 44.2203 82.5539C45.9596 81.7977 47.9145 80.9463 48.441 80.6578C48.5838 80.5234 48.7575 80.4225 48.9563 80.3637C49.6425 80.1621 50.3623 80.5514 50.564 81.2375C50.9056 82.397 49.9226 82.848 48.5614 83.4669C47.7268 83.8478 46.5785 84.3464 45.251 84.9261C42.5259 86.1136 39.1314 87.5896 36.7256 88.7939C31.0457 91.6366 27.0939 97.0869 26.1528 103.372L19.4955 147.805C19.4003 148.447 18.8485 148.909 18.2184 148.909ZM48.0321 81.6633C48.0349 81.7613 48.0517 81.8649 48.0825 81.9685C48.0517 81.8677 48.0349 81.7641 48.0321 81.6633Z" fill="#3E3A39"/>
<path d="M68.9614 68.6998C64.8023 68.6998 62.9118 65.4201 62.4917 63.678C62.3517 63.0927 62.6457 62.4905 63.1947 62.2441C69.0622 59.589 73.8935 61.3394 74.0951 61.4151C74.5852 61.5971 74.9101 62.0648 74.9101 62.5886C74.9101 64.4202 74.3556 65.899 73.2661 66.9829C71.5437 68.6942 69.1294 68.697 69.0146 68.6998C68.9978 68.6998 68.981 68.6998 68.9642 68.6998H68.9614ZM65.3344 64.0814C65.8414 64.9944 66.9 66.1931 68.9754 66.1931C68.9866 66.1931 68.9978 66.1931 69.0118 66.1931C69.5271 66.1903 71.8517 66.0307 72.3223 63.5324C71.0087 63.2663 68.3956 62.9975 65.3372 64.0814H65.3344Z" fill="#3E3A39"/>
<path d="M104.725 91.3507L99.4371 91.0566L98.793 109.522L117.124 116.23L118.073 91.0566L114.659 91.3703L104.725 91.3507Z" fill="white"/>
<path d="M102.067 109.117L99.168 123.925C99.168 123.925 109.125 133.576 116.082 126.157L117.401 119.415L117.305 110.75C117.305 110.75 111.474 112.047 102.064 109.117H102.067Z" fill="white"/>
<path d="M111.545 129.752C109.554 129.752 106.927 129.119 103.325 127.554C103.286 127.537 103.249 127.52 103.213 127.498L93.0434 121.824C92.4384 121.487 92.2228 120.723 92.5589 120.118C92.895 119.513 93.6595 119.297 94.2645 119.633L104.381 125.277C112.864 128.951 114.206 126.834 115.757 124.386C116.172 123.734 116.152 121.622 116.147 120.717V120.401C116.147 120.401 116.147 120.378 116.147 120.367L116.824 89.758C116.838 89.0746 117.399 88.5312 118.076 88.5312C118.085 88.5312 118.096 88.5312 118.104 88.5312C118.796 88.5453 119.345 89.1194 119.328 89.8112L118.65 120.404V120.698C118.667 122.597 118.622 124.549 117.875 125.728C116.483 127.926 114.925 129.75 111.548 129.75L111.545 129.752Z" fill="#3E3A39"/>
<path d="M99.1672 100.935C98.8423 100.935 98.5203 100.812 98.2738 100.563C98.0441 100.33 92.6331 94.8464 92.0982 94.2722C87.9503 89.8275 80.0887 86.6543 80.0102 86.6235C79.985 86.6123 79.9626 86.6038 79.9374 86.5926L71.3308 82.5176C70.7062 82.2207 70.4373 81.4729 70.7342 80.8484C71.0311 80.2238 71.7789 79.9549 72.4035 80.2518L80.9765 84.3101C81.6683 84.5901 89.5047 87.8194 93.9299 92.561C94.3416 93.0007 98.1169 96.8349 100.058 98.801C100.545 99.2939 100.54 100.087 100.047 100.574C99.803 100.815 99.4837 100.935 99.1672 100.935Z" fill="#3E3A39"/>
<path d="M110.276 91.9256C106.064 91.9256 102.42 91.8836 102.367 91.8836C101.675 91.8752 101.121 91.3067 101.129 90.6149C101.137 89.9287 101.698 89.377 102.381 89.377H102.395C102.476 89.377 110.649 89.4722 116.651 89.377C116.656 89.377 116.665 89.377 116.67 89.377C117.354 89.377 117.911 89.9259 117.922 90.6093C117.933 91.3011 117.382 91.8724 116.69 91.8808C114.665 91.9144 112.399 91.9228 110.276 91.9228V91.9256Z" fill="#3E3A39"/>
<path d="M99.4366 110.372C99.4366 110.372 99.4198 110.372 99.4086 110.372C98.7168 110.358 98.1679 109.783 98.1819 109.092L98.5936 89.7638C98.6076 89.0805 99.165 88.5371 99.8455 88.5371C99.8539 88.5371 99.8623 88.5371 99.8735 88.5371C100.565 88.5511 101.114 89.1253 101.1 89.817L100.689 109.145C100.675 109.828 100.117 110.372 99.4366 110.372Z" fill="#3E3A39"/>
<path d="M52.4604 139.156L25.8535 147.497L21.3359 150.732C26.2988 155.49 33.0402 160.257 43.5177 165.828L58.2607 162.285L52.4576 139.159L52.4604 139.156Z" fill="white"/>
<path d="M44.4457 166.767C43.8576 166.767 43.3254 166.36 43.1854 165.764C43.0258 165.067 43.4599 164.372 44.1544 164.212L59.3456 160.706C60.043 160.543 60.7376 160.98 60.8972 161.675C61.0568 162.369 60.6227 163.067 59.9281 163.226L44.737 166.733C44.639 166.755 44.5409 166.767 44.4457 166.767Z" fill="#3E3A39"/>
<path d="M26.8053 147.635C26.2339 147.635 25.7102 147.254 25.5561 146.677C25.3713 145.988 25.7802 145.276 26.4692 145.092L53.2301 137.908C53.9191 137.723 54.6305 138.132 54.8153 138.821C55.0002 139.51 54.5913 140.221 53.9023 140.406L27.1414 147.59C27.0293 147.621 26.9173 147.635 26.8053 147.635Z" fill="#3E3A39"/>
<path d="M57.9787 160.146C57.4129 160.146 56.892 159.77 56.7323 159.196C55.0575 153.146 53.0186 142.787 52.999 142.683C52.8617 141.983 53.3183 141.302 54.0184 141.165C54.7186 141.028 55.3992 141.484 55.5364 142.184C55.556 142.288 57.5782 152.55 59.225 158.504C59.4154 159.193 59.0121 159.905 58.3232 160.098C58.2083 160.129 58.0907 160.146 57.9759 160.146H57.9787Z" fill="#3E3A39"/>
</g>
<defs>
<clipPath id="clip0_266_6903">
<rect width="140" height="170.424" fill="white"/>
</clipPath>
</defs>
</svg>
