<svg width="139" height="24" viewBox="0 0 139 24" fill="none" xmlns="http://www.w3.org/2000/svg">
<g id="Music_pc_32px">
<path id="Vector" d="M88.7762 6.23442C89.4834 5.30731 90.5442 4.84375 91.7818 4.84375C93.1373 4.84375 94.1982 5.65498 94.7286 6.98771C95.6126 5.53909 96.8502 4.84375 98.3825 4.84375C100.74 4.84375 102.213 6.75593 102.213 9.71111V17.6495H100.386V9.65317C100.386 7.68304 99.5023 6.4662 98.0878 6.4662C96.6145 6.4662 95.4947 7.85688 95.4947 9.65317V17.5916H93.6677V9.65317C93.6677 7.74099 92.7837 6.4662 91.3693 6.4662C90.0138 6.4662 88.7762 7.97277 88.7762 9.65317V17.5916H86.9492V5.13347H88.4815L88.7762 6.23442Z" fill="#BF0000"/>
<path id="Vector_2" d="M111.937 16.3741C111.053 17.3592 109.815 17.9386 108.46 17.9386C105.749 17.9386 103.922 15.9105 103.922 12.8974V5.13281H105.749V12.8974C105.749 14.9255 106.928 16.2003 108.755 16.2003C110.464 16.2003 111.996 14.6358 111.996 12.9554V5.13281H113.823V17.6489H112.232L111.937 16.3741Z" fill="#BF0000"/>
<path id="Vector_3" d="M122.074 7.68175C121.425 6.92846 120.483 6.46491 119.54 6.46491C118.302 6.46491 117.418 7.16024 117.418 8.20325C117.418 8.84064 117.654 9.3042 118.125 9.65187C118.361 9.8257 118.361 9.8257 120.483 10.6949C122.958 11.7379 123.901 12.8388 123.901 14.4613C123.901 16.5473 122.192 17.88 119.54 17.88C117.595 17.88 116.121 17.1847 115.061 15.852L116.357 14.6931C117.359 15.7361 118.302 16.1996 119.599 16.1996C121.072 16.1996 122.015 15.5622 122.015 14.4613C122.015 13.8818 121.661 13.2444 120.954 12.7229C120.483 12.3753 119.952 12.0855 118.302 11.4482C116.298 10.6369 115.473 9.65187 115.473 8.02941C115.473 6.00135 117.064 4.72656 119.481 4.72656C121.072 4.72656 122.251 5.19012 123.37 6.29107L122.074 7.68175Z" fill="#BF0000"/>
<path id="Vector_4" d="M125.139 3.56843V1.48242H127.26V3.56843H125.139ZM125.257 17.649V5.13294H127.084V17.649H125.257Z" fill="#BF0000"/>
<path id="Vector_5" d="M136.865 8.08735C136.276 7.10229 135.215 6.52284 134.036 6.52284C131.915 6.52284 130.323 8.60886 130.323 11.3902C130.323 14.2295 131.915 16.3155 134.036 16.3155C135.215 16.3155 136.276 15.6781 136.924 14.6351L138.338 15.9099C137.396 17.2426 135.804 17.9959 134.036 17.9959C130.677 17.9959 128.438 15.3304 128.438 11.4481C128.438 7.56585 130.736 4.90039 134.036 4.90039C135.863 4.90039 137.396 5.65367 138.338 6.9864L136.865 8.08735Z" fill="#BF0000"/>
<path id="Vector_6" d="M66.1445 20.082H16.8164L20.765 23.9064L66.1445 20.082Z" fill="#BF0000"/>
<path id="Vector_7" d="M21.4131 4.43751V5.01696C20.4702 4.43751 19.704 4.08984 18.5253 4.08984C15.0482 4.08984 12.4551 7.16092 12.4551 10.9853C12.4551 14.8096 15.1071 17.8807 18.5253 17.8807C19.6451 17.8807 20.4702 17.533 21.4131 16.9536V17.533H24.4188V4.43751H21.4131ZM18.5253 14.7517C16.8162 14.7517 15.5786 13.1292 15.5786 11.0432C15.5786 8.9572 16.8162 7.33475 18.5253 7.33475C20.2344 7.33475 21.4131 8.9572 21.4131 11.0432C21.472 13.1292 20.2344 14.7517 18.5253 14.7517Z" fill="#BF0000"/>
<path id="Vector_8" d="M45.6948 4.4375V12.1442C45.6948 13.5928 44.6929 14.8096 43.2195 14.8096C41.7462 14.8096 40.7443 13.5928 40.7443 12.1442V4.4375H37.6797V12.1442C37.6797 15.3311 39.8603 17.8807 43.1017 17.8807C44.575 17.8807 45.6948 17.0695 45.6948 17.0695V17.533H48.7594V4.4375H45.6948Z" fill="#BF0000"/>
<path id="Vector_9" d="M73.9826 17.5916V9.88497C73.9826 8.43635 74.9844 7.21951 76.4578 7.21951C77.9312 7.21951 78.9331 8.43635 78.9331 9.88497V17.5916H81.9976V9.88497C81.9976 6.69801 79.8171 4.14844 76.5757 4.14844C75.1023 4.14844 73.9826 4.95966 73.9826 4.95966V4.43816H70.918V17.5916H73.9826Z" fill="#BF0000"/>
<path id="Vector_10" d="M3.73324 17.5331V12.4919H5.97275L9.86242 17.5911H13.811L9.09627 11.4489C10.5696 10.4059 11.5126 8.72553 11.5126 6.81335C11.5126 3.68434 8.91947 1.13477 5.73701 1.13477H0.550781V17.5331H3.73324ZM3.73324 4.32173H5.79595C7.21037 4.32173 8.38906 5.48062 8.38906 6.8713C8.38906 8.26197 7.21037 9.42087 5.79595 9.42087H3.73324V4.32173Z" fill="#BF0000"/>
<path id="Vector_11" d="M56.951 14.52C56.6564 14.6938 56.3617 14.8677 55.9492 14.8677C55.4777 14.8677 54.5347 14.52 54.5347 13.2452V7.62458H57.1278V4.43762H54.5347V1.13477H51.4701V4.43762H49.8789V7.56663H51.4701V13.2452C51.4701 16.2004 53.7096 17.9387 56.0081 17.9387C56.8332 17.9387 58.0119 17.649 58.9548 17.1275L56.951 14.52Z" fill="#BF0000"/>
<path id="Vector_12" d="M31.9631 10.6377L37.2082 4.43765H32.965L29.311 9.01529V0.0917969H26.1875V17.5911H29.311V12.2023L33.79 17.5911H38.0333L31.9631 10.6377Z" fill="#BF0000"/>
<path id="Vector_13" d="M63.9644 4.14844C60.4284 4.14844 57.9531 7.16157 57.9531 11.0439C57.9531 15.1 61.1356 17.9393 64.2591 17.9393C65.8503 17.9393 67.913 17.4178 69.6221 14.9841L66.9701 13.4775C64.9074 16.4907 61.4303 14.9841 61.0177 11.971H69.74C70.5062 7.21951 67.3826 4.14844 63.9644 4.14844ZM66.6165 9.30552H61.1356C61.7839 6.23445 66.0271 6.06061 66.6165 9.30552Z" fill="#BF0000"/>
</g>
</svg>
