<svg width="173" height="108" viewBox="0 0 173 108" fill="none" xmlns="http://www.w3.org/2000/svg">
<path d="M114.154 62.8965L114.15 62.8989L85.3066 84.7835L85.3063 84.7838C85.1407 84.9095 84.901 84.8748 84.7673 84.7091L84.7647 84.7059L69.1534 65.4883L69.1532 65.488C69.0116 65.3138 69.041 65.0753 69.2026 64.9536L69.2058 64.9512L98.0496 43.0665L98.05 43.0663C98.2155 42.9406 98.4553 42.9753 98.5889 43.1409L98.5915 43.1442L114.203 62.3617L114.203 62.3621C114.345 62.5362 114.315 62.7748 114.154 62.8965Z" fill="white" stroke="black" stroke-width="2.39602"/>
<path d="M117.342 69.3702L117.348 69.3748L85.6662 85.1059C85.6659 85.106 85.6656 85.1061 85.6653 85.1063C85.4349 85.2194 85.1767 85.1163 85.0766 84.9415L85.0759 84.9403L72.792 63.5448C72.7918 63.5444 72.7916 63.5441 72.7914 63.5438C72.6928 63.3699 72.7455 63.141 72.9546 63.0374L72.9558 63.0369L106.333 46.4598C106.333 46.4597 106.334 46.4595 106.334 46.4594C106.565 46.3463 106.823 46.4494 106.923 46.6242L106.923 46.6252L119.203 68.0214C119.204 68.0216 119.204 68.0219 119.204 68.0222C119.303 68.1962 119.25 68.4251 119.041 68.5287L117.342 69.3702Z" fill="white" stroke="black" stroke-width="2.39602"/>
<path fill-rule="evenodd" clip-rule="evenodd" d="M116.596 58.8398L63.6602 65.0605L70.5503 105.706L123.486 99.4856C125.71 99.2242 127.214 97.2443 126.844 95.0635L125.272 85.7922L128.35 85.4306L126.045 71.8307L122.967 72.1924L121.293 62.3154C120.923 60.1345 118.82 58.5784 116.596 58.8398Z" fill="#FFE42E"/>
<path d="M76.1082 105.053L70.5503 105.706L63.6602 65.0605L116.711 58.8262C119.31 58.5208 121.779 60.2916 122.198 62.7613L127.566 94.4262C127.985 96.896 126.2 99.1666 123.601 99.472L80.1194 104.582" stroke="black" stroke-width="2.39602" stroke-linecap="round" stroke-linejoin="round"/>
<path d="M109.528 80.3976C108.886 76.6102 111.608 73.0723 115.65 72.5973L126.04 71.3763L128.394 85.2615L118.004 86.4825C113.961 86.9575 110.17 84.185 109.528 80.3976Z" fill="#FFE42E" stroke="black" stroke-width="2.39602" stroke-linejoin="bevel"/>
<path d="M117.692 79.4389C117.879 80.5429 117.121 81.5376 116.01 81.6682C114.898 81.7989 113.839 81.0177 113.652 79.9137C113.465 78.8097 114.223 77.8151 115.334 77.6844C116.446 77.5538 117.505 78.335 117.692 79.4389Z" fill="white" stroke="black" stroke-width="2.39602" stroke-linejoin="bevel"/>
<line x1="1.5" y1="-1.5" x2="38.5" y2="-1.5" transform="matrix(0.75211 0.693662 -0.678587 0.701914 0.460938 35.3496)" stroke="#FFE42E" stroke-width="3" stroke-linecap="round"/>
<path d="M37.0958 39.1891C39.1958 38.3416 41.5147 38.3629 42.4928 40.475C43.5006 42.651 42.0715 44.1545 40.0622 45.3299L38.9636 44.5427C39.9796 43.996 40.7935 43.4092 41.2163 42.7373C41.5528 42.1761 41.6297 41.5829 41.3215 40.9173C40.6634 39.4965 39.0993 39.52 37.5533 40.1439C36.8061 40.4454 36.021 40.9294 35.4142 41.4022L36.8548 44.5126C37.1215 45.0886 37.2151 45.5218 37.0948 45.8894C36.9944 46.2338 36.6602 46.5357 36.0804 46.7697C35.0369 47.1908 33.1759 46.9695 32.4704 45.4463C31.7887 43.9743 32.8378 42.2444 34 41.1221L33.0515 39.0741L30.5135 40.0983L30.0274 39.0487L32.5654 38.0245L31.5991 35.938L32.6813 35.5013L33.6476 37.5877L36.5077 36.4335L36.9938 37.4831L34.1337 38.6373L34.934 40.3653C35.624 39.8742 36.3743 39.4802 37.0958 39.1891ZM36.8965 36.0183L37.1445 34.87C38.543 35.05 40.0958 35.3653 41.4275 35.8306L41.1349 36.9817C39.8854 36.5289 38.2009 36.1604 36.8965 36.0183ZM35.8888 45.4645C35.9375 45.3385 35.8674 45.1541 35.7666 44.9365L34.5039 42.2101C33.8315 42.9372 33.107 44.0804 33.5338 45.002C33.9488 45.898 34.9749 46.0005 35.516 45.7821C35.6835 45.7145 35.8262 45.6265 35.8888 45.4645ZM54.0524 34.0021L54.2311 35.3125C51.9434 34.9292 49.6621 34.9231 47.8334 35.0685L50.6433 41.1358L49.4452 41.6193L44.424 30.7776L45.6221 30.2941L47.288 33.8909C49.5378 33.6971 51.7615 33.7112 54.0524 34.0021ZM57.9643 26.2705L64.741 23.5357C66.7907 29.1501 66.0872 32.7156 62.3355 36.4021L61.095 35.8697C64.3695 32.7707 65.3478 29.7324 63.9318 25.1232L59.268 27.0053C59.2195 28.6505 58.8154 30.2872 57.941 31.734L56.6556 31.4019C57.5955 29.8984 58.0284 28.1588 57.9643 26.2705ZM71.6212 31.2267C71.3841 30.7147 71.6136 30.1207 72.1418 29.9076C72.6958 29.684 73.2908 29.9452 73.5279 30.4572C73.771 30.9821 73.5613 31.5528 73.0073 31.7764C72.4791 31.9896 71.8642 31.7515 71.6212 31.2267ZM72.0427 28.3068L70.9862 28.7331L67.7363 21.9471L68.9731 21.4479L72.0427 28.3068Z" fill="black"/>
<line x1="1.5" y1="-1.5" x2="38.5" y2="-1.5" transform="matrix(0.0261035 0.986648 1.01265 0.0193997 87.4766 0.234375)" stroke="#FFE42E" stroke-width="3" stroke-linecap="round"/>
</svg>
