<svg width="86" height="86" viewBox="0 0 86 86" fill="none" xmlns="http://www.w3.org/2000/svg">
<g id="wallet">
<g id="Group">
<path id="Vector" d="M63.2471 29.1138L63.2435 29.117L30.842 57.8719L30.8416 57.8723C30.6556 58.0374 30.3771 58.0187 30.2155 57.8343L30.2123 57.8307L11.3454 36.441L11.345 36.4407C11.1739 36.2468 11.1977 35.9603 11.3793 35.8003L11.3829 35.7971L43.7843 7.04219L43.7847 7.04183C43.9707 6.87667 44.2493 6.89537 44.4108 7.07982L44.414 7.08342L63.281 28.473L63.2813 28.4734C63.4524 28.6673 63.4287 28.9538 63.2471 29.1138Z" fill="white" stroke="black" stroke-width="2.81179"/>
<path id="Vector_2" d="M14.2713 34.5255C13.7286 33.6481 14.0136 32.5016 14.9078 31.9629M14.2713 34.5255L29.3877 58.8232C29.9295 59.6963 31.0957 59.9667 31.9944 59.4271L68.5285 37.3695M14.2713 34.5255L15.465 33.7829L15.4663 33.785M14.2713 34.5255L15.467 33.7861L15.4663 33.785M14.9078 31.9629L68.5285 37.3695M14.9078 31.9629L52.7797 9.09271C53.6784 8.55315 54.8446 8.82357 55.3864 9.69667L14.9078 31.9629ZM68.5285 37.3695L69.8546 36.5689L69.8647 36.5627L69.8617 36.5578L69.8634 36.5552M68.5285 37.3695L67.2159 36.5197L69.1393 35.3585L69.1405 35.3577L69.8634 36.5552M69.8634 36.5552L69.8641 36.5564C69.8675 36.5543 69.8709 36.5523 69.8743 36.5502C70.305 36.2863 70.5922 35.8807 70.7113 35.433L70.6312 35.3811L70.6258 35.3777L69.8634 36.5552ZM15.4663 33.785C15.3449 33.5873 15.396 33.3101 15.6333 33.1672L15.6346 33.1664L53.5033 10.2981L52.78 9.09332L53.5064 10.2962L53.5043 10.2975C53.7658 10.1412 54.0686 10.2394 54.1918 10.438L54.1925 10.4392L69.3026 34.7347L70.4983 33.9952L69.3045 34.7377L69.303 34.7353L15.4663 33.785ZM31.2707 58.2218C31.2703 58.222 31.2699 58.2223 31.2695 58.2225L31.2677 58.2236L31.9943 59.4269L31.2707 58.2218Z" fill="white" stroke="black" stroke-width="2.81179"/>
</g>
<path id="Union" fill-rule="evenodd" clip-rule="evenodd" d="M65.895 24.0565L4.97656 36.4492L14.681 84.153L75.5994 71.7604C78.159 71.2397 79.8119 68.7426 79.2912 66.183L77.0777 55.302L80.6195 54.5814L77.3725 38.62L73.8306 39.3405L71.4724 27.7483C70.9517 25.1887 68.4546 23.5358 65.895 24.0565Z" fill="#FFE42E"/>
<g id="Group_2">
<path id="Vector_3" d="M21.077 82.8519L14.681 84.153L4.97656 36.4492L66.0276 24.0296C69.0187 23.4211 71.9485 25.2948 72.5381 28.1934L80.0983 65.3569C80.688 68.2555 78.7231 71.1249 75.732 71.7334L25.693 81.9128" stroke="black" stroke-width="2.81179" stroke-linecap="round" stroke-linejoin="round"/>
<path id="Vector_4" d="M58.6495 50.3686C57.7452 45.9235 60.7395 41.4581 65.3911 40.5118L77.3483 38.0794L80.6634 54.3757L68.7063 56.8081C64.0547 57.7544 59.5538 54.8137 58.6495 50.3686Z" fill="#FFE42E" stroke="black" stroke-width="2.81179" stroke-linejoin="bevel"/>
<path id="Vector_5" d="M68.0428 48.4581C68.3064 49.7538 67.473 51.0086 66.1936 51.2688C64.9142 51.5291 63.6569 50.6997 63.3933 49.404C63.1297 48.1083 63.9631 46.8535 65.2425 46.5932C66.5218 46.333 67.7792 47.1624 68.0428 48.4581Z" fill="white" stroke="black" stroke-width="2.81179" stroke-linejoin="bevel"/>
</g>
</g>
</svg>
