<svg class="icon-arrow" width="16" height="14" xmlns="http://www.w3.org/2000/svg"><path d="M.608 6.414h13.318L8.312 1a.571.571 0 0 1 0-.828.623.623 0 0 1 .86 0l6.65 6.414.014.017a.585.585 0 0 1 .06.07c.009.012.014.025.021.037.013.021.026.042.036.064.006.015.01.031.015.046.007.021.015.042.02.064A.579.579 0 0 1 16 7l-.001.013a.56.56 0 0 1-.011.103.549.549 0 0 1-.027.085l-.008.024a.583.583 0 0 1-.051.093l-.004.007a.599.599 0 0 1-.078.09l-6.648 6.413a.617.617 0 0 1-.43.172.618.618 0 0 1-.43-.172.571.571 0 0 1 0-.828l5.613-5.414H.608A.597.597 0 0 1 0 7c0-.323.272-.586.608-.586z" fill="#fff" fill-rule="nonzero"/></svg>