<svg width="18" height="16" xmlns="http://www.w3.org/2000/svg"><path d="M5.585 15.29c6.708 0 10.38-5.884 10.38-10.978 0-.166 0-.331-.008-.497a7.685 7.685 0 0 0 1.821-2.002 7.082 7.082 0 0 1-2.098.61A3.851 3.851 0 0 0 17.287.286a7.02 7.02 0 0 1-2.319.933C14.3.467 13.353 0 12.308 0c-2.014 0-3.65 1.73-3.65 3.86 0 .301.036.595.092.88-3.03-.158-5.72-1.7-7.52-4.033A4.032 4.032 0 0 0 .74 2.65c0 1.339.647 2.52 1.622 3.213a3.538 3.538 0 0 1-1.65-.482v.053c0 1.866 1.259 3.431 2.923 3.785-.306.09-.626.135-.96.135-.235 0-.462-.022-.683-.068.462 1.535 1.814 2.649 3.408 2.68C4.148 13.002 2.575 13.62.868 13.62c-.292 0-.583-.016-.868-.053a9.97 9.97 0 0 0 5.585 1.723" fill="#FFF" fill-rule="nonzero"/></svg>