<?xml version="1.0" encoding="utf-8"?>
<!-- Generator: Adobe Illustrator 22.1.0, SVG Export Plug-In . SVG Version: 6.00 Build 0)  -->
<svg version="1.1" xmlns="http://www.w3.org/2000/svg" xmlns:xlink="http://www.w3.org/1999/xlink" x="0px"
	 y="0px" width="77" height="40" viewBox="0 0 77 40" style="enable-background:new 0 0 77 40;" xml:space="preserve">
<style type="text/css">
	.st0{fill:#FFFFFF;}
</style>
<path class="st0" d="M1.7,28.7c0.7-0.9,1.7-1.3,2.8-1.3c1.3,0,2.3,0.8,2.8,2.1c0.8-1.4,2-2.1,3.5-2.1c2.2,0,3.6,1.8,3.6,4.7v7.6
	h-1.7V32c0-1.9-0.8-3.1-2.2-3.1C9.1,28.9,8,30.3,8,32v7.6H6.3V32c0-1.8-0.8-3.1-2.2-3.1c-1.3,0-2.5,1.4-2.5,3.1v7.6H0v-12h1.4
	L1.7,28.7z"/>
<path class="st0" d="M23.6,38.4c-0.8,0.9-2,1.5-3.3,1.5c-2.6,0-4.3-1.9-4.3-4.8v-7.5h1.7v7.5c0,1.9,1.1,3.2,2.8,3.2
	c1.6,0,3.1-1.5,3.1-3.1v-7.5h1.7v12h-1.5L23.6,38.4z"/>
<path class="st0" d="M33.1,30.1c-0.6-0.7-1.5-1.2-2.4-1.2c-1.2,0-2,0.7-2,1.7c0,0.6,0.2,1.1,0.7,1.4c0.2,0.2,0.2,0.2,2.2,1
	c2.3,1,3.2,2.1,3.2,3.6c0,2-1.6,3.3-4.1,3.3c-1.8,0-3.2-0.7-4.2-1.9l1.2-1.1c0.9,1,1.8,1.4,3.1,1.4c1.4,0,2.3-0.6,2.3-1.7
	c0-0.6-0.3-1.2-1-1.7c-0.4-0.3-0.9-0.6-2.5-1.2c-1.9-0.8-2.7-1.7-2.7-3.3c0-1.9,1.5-3.2,3.8-3.2c1.5,0,2.6,0.4,3.7,1.5L33.1,30.1z"
	/>
<path class="st0" d="M36,26.1v-2h2v2H36z M36.2,39.6v-12h1.7v12L36.2,39.6L36.2,39.6z"/>
<path class="st0" d="M47.1,30.5c-0.6-0.9-1.6-1.5-2.7-1.5c-2,0-3.5,2-3.5,4.7c0,2.7,1.5,4.7,3.5,4.7c1.1,0,2.1-0.6,2.7-1.6l1.3,1.2
	c-0.9,1.3-2.4,2-4.1,2c-3.2,0-5.3-2.6-5.3-6.3c0-3.7,2.2-6.3,5.3-6.3c1.7,0,3.2,0.7,4.1,2L47.1,30.5z"/>
<path class="st0" d="M62,19.2H15.4l3.7,3.7L62,19.2z"/>
<path class="st0" d="M19.7,4.2v0.6c-0.9-0.6-1.6-0.9-2.7-0.9c-3.3,0-5.7,3-5.7,6.6c0,3.7,2.5,6.6,5.7,6.6c1.1,0,1.8-0.3,2.7-0.9v0.6
	h2.8V4.2H19.7z M17,14.1c-1.6,0-2.8-1.6-2.8-3.6S15.4,7,17,7c1.6,0,2.7,1.6,2.7,3.6C19.8,12.5,18.6,14.1,17,14.1z"/>
<path class="st0" d="M42.7,4.2v7.4c0,1.4-0.9,2.6-2.3,2.6S38,13,38,11.6V4.2h-2.8v7.4c0,3.1,2.1,5.5,5.1,5.5c1.4,0,2.5-0.8,2.5-0.8
	v0.4h2.9V4.2H42.7z"/>
<path class="st0" d="M69.4,16.8V9.4c0-1.4,0.9-2.6,2.3-2.6c1.4,0,2.3,1.2,2.3,2.6v7.4H77V9.4c0-3.1-2.1-5.5-5.1-5.5
	c-1.4,0-2.5,0.8-2.5,0.8V4.2h-2.9v12.6H69.4z"/>
<path class="st0" d="M3,16.8v-4.9h2.1l3.7,4.9h3.7l-4.5-5.9c1.4-1,2.3-2.6,2.3-4.5c0-3-2.5-5.5-5.5-5.5H0v15.8L3,16.8L3,16.8z
	 M3,4.1h2c1.3,0,2.5,1.1,2.5,2.5S6.3,9,5,9H3V4.1z"/>
<path class="st0" d="M53.3,13.9c-0.3,0.2-0.6,0.3-0.9,0.3c-0.4,0-1.3-0.3-1.3-1.6V7.2h2.5V4.2H51V1h-2.9v3.2h-1.5v3h1.5v5.5
	c0,2.8,2.1,4.5,4.3,4.5c0.8,0,1.9-0.3,2.8-0.8L53.3,13.9z"/>
<path class="st0" d="M29.7,10.1l5-6h-4l-3.5,4.4V0h-3v16.8h3v-5.2l4.2,5.2h4L29.7,10.1z"/>
<path class="st0" d="M60,3.9c-3.3,0-5.7,2.9-5.7,6.6c0,3.9,3,6.6,6,6.6c1.5,0,3.5-0.5,5.1-2.8l-2.5-1.4c-2,2.9-5.2,1.4-5.6-1.4h8.2
	C66.1,6.9,63.2,3.9,60,3.9z M62.5,8.9h-5.2C57.9,5.9,61.9,5.7,62.5,8.9z"/>
</svg>
