<?xml version="1.0" encoding="utf-8"?>
<!-- Generator: Adobe Illustrator 22.1.0, SVG Export Plug-In . SVG Version: 6.00 Build 0)  -->
<svg version="1.1" xmlns="http://www.w3.org/2000/svg" xmlns:xlink="http://www.w3.org/1999/xlink" x="0px"
	 y="0px" width="182" height="32" viewBox="0 0 182 32" style="enable-background:new 0 0 182 32;" xml:space="preserve">
<style type="text/css">
	.st0{fill:#FFFFFF;}
</style>
<path class="st0" d="M116.5,8.3c0.9-1.2,2.3-1.9,4-1.9c1.8,0,3.2,1.1,3.9,2.9c1.2-1.9,2.8-2.9,4.8-2.9c3.1,0,5.1,2.6,5.1,6.5v10.7
	h-2.4V12.8c0-2.6-1.2-4.3-3-4.3c-1.9,0-3.4,1.9-3.4,4.3v10.7H123V12.8c0-2.6-1.2-4.3-3-4.3c-1.8,0-3.4,2-3.4,4.3v10.7h-2.4V6.8h2
	L116.5,8.3z"/>
<path class="st0" d="M147.1,21.9c-1.2,1.3-2.8,2.1-4.6,2.1c-3.6,0-6-2.7-6-6.8V6.8h2.4v10.4c0,2.7,1.6,4.4,4,4.4
	c2.3,0,4.3-2.1,4.3-4.4V6.8h2.4v16.8h-2.1L147.1,21.9z"/>
<path class="st0" d="M160.5,10.2c-0.9-1-2.1-1.6-3.3-1.6c-1.6,0-2.8,0.9-2.8,2.3c0,0.9,0.3,1.5,0.9,1.9c0.3,0.2,0.3,0.2,3.1,1.4
	c3.3,1.4,4.5,2.9,4.5,5.1c0,2.8-2.3,4.6-5.8,4.6c-2.6,0-4.5-0.9-5.9-2.7l1.7-1.6c1.3,1.4,2.6,2,4.3,2c1.9,0,3.2-0.9,3.2-2.3
	c0-0.8-0.5-1.6-1.4-2.3c-0.6-0.5-1.3-0.9-3.5-1.7c-2.6-1.1-3.7-2.4-3.7-4.6c0-2.7,2.1-4.4,5.3-4.4c2.1,0,3.7,0.6,5.1,2.1L160.5,10.2
	z"/>
<path class="st0" d="M164.6,4.7V1.9h2.8v2.8H164.6z M164.7,23.5V6.8h2.4v16.8L164.7,23.5L164.7,23.5z"/>
<path class="st0" d="M180.1,10.7c-0.8-1.3-2.2-2.1-3.7-2.1c-2.8,0-4.9,2.8-4.9,6.5c0,3.8,2.1,6.6,4.9,6.6c1.6,0,3-0.9,3.8-2.3
	l1.9,1.7c-1.2,1.8-3.3,2.8-5.7,2.8c-4.4,0-7.4-3.6-7.4-8.8c0-5.2,3-8.8,7.4-8.8c2.4,0,4.4,1,5.7,2.8L180.1,10.7z"/>
<path class="st0" d="M86.6,26.9H21.5l5.2,5.1L86.6,26.9z"/>
<path class="st0" d="M27.6,5.8v0.8c-1.2-0.8-2.3-1.2-3.8-1.2c-4.6,0-8,4.1-8,9.3s3.5,9.3,8,9.3c1.5,0,2.6-0.5,3.8-1.2v0.8h4V5.8
	H27.6z M23.7,19.7c-2.3,0-3.9-2.2-3.9-5c0-2.8,1.6-5,3.9-5c2.3,0,3.8,2.2,3.8,5C27.6,17.5,26,19.7,23.7,19.7z"/>
<path class="st0" d="M59.6,5.8v10.4c0,1.9-1.3,3.6-3.3,3.6s-3.3-1.6-3.3-3.6V5.8h-4v10.4c0,4.3,2.9,7.7,7.2,7.7
	c1.9,0,3.4-1.1,3.4-1.1v0.6h4V5.8H59.6z"/>
<path class="st0" d="M97,23.5V13.2c0-1.9,1.3-3.6,3.3-3.6c1.9,0,3.3,1.6,3.3,3.6v10.4h4V13.2c0-4.3-2.9-7.7-7.2-7.7
	c-1.9,0-3.4,1.1-3.4,1.1V5.8h-4v17.7H97z"/>
<path class="st0" d="M4.2,23.5v-6.9h3l5.1,6.9h5.2l-6.2-8.3c1.9-1.4,3.2-3.7,3.2-6.2c0-4.2-3.4-7.6-7.6-7.6H0v22L4.2,23.5L4.2,23.5z
	 M4.2,5.7h2.7c1.9,0,3.4,1.6,3.4,3.4s-1.6,3.4-3.4,3.4H4.2V5.7z"/>
<path class="st0" d="M74.5,19.4c-0.4,0.2-0.8,0.5-1.3,0.5c-0.6,0-1.9-0.5-1.9-2.2v-7.6h3.4V5.8h-3.4V1.4h-4v4.4h-2.1V10h2.1v7.6
	c0,4,3,6.3,6,6.3c1.1,0,2.6-0.4,3.9-1.1L74.5,19.4z"/>
<path class="st0" d="M41.5,14.2l6.9-8.3h-5.6L38,12V0h-4.1v23.5H38v-7.2l5.9,7.2h5.6L41.5,14.2z"/>
<path class="st0" d="M83.8,5.5c-4.7,0-7.9,4-7.9,9.3c0,5.5,4.2,9.3,8.3,9.3c2.1,0,4.8-0.7,7.1-4l-3.5-2c-2.7,4-7.3,2-7.9-2h11.5
	C92.4,9.6,88.3,5.5,83.8,5.5z M87.3,12.4H80C80.9,8.3,86.5,8,87.3,12.4z"/>
</svg>
