<svg width="32" height="32" viewBox="0 0 32 32" fill="none" xmlns="http://www.w3.org/2000/svg">
<path fill-rule="evenodd" clip-rule="evenodd" d="M23.2645 26C24.3904 26.0002 25.4888 25.652 26.4088 25.0031C27.3289 24.3542 28.0255 23.4364 28.4032 22.3758C28.7808 21.3152 28.821 20.1636 28.518 19.0793C28.2151 17.9949 27.584 17.0309 26.7114 16.3195C26.8311 15.9208 26.8949 15.5073 26.9009 15.0909C26.9009 13.8854 26.422 12.7292 25.5696 11.8768C24.7171 11.0243 23.561 10.5455 22.3554 10.5455C21.8934 10.5518 21.4351 10.6293 20.9967 10.7752C20.4858 9.37596 19.5573 8.16752 18.3369 7.31342C17.1166 6.45932 15.6632 6.00083 14.1736 6C12.2448 6 10.3949 6.76623 9.03104 8.13013C7.66714 9.49403 6.90091 11.3439 6.90091 13.2727C6.90091 13.4774 6.91509 13.6784 6.93154 13.8786C5.6203 14.4915 4.55734 15.5333 3.91823 16.832C3.27912 18.1306 3.10211 19.6084 3.41643 21.0213C3.73074 22.4341 4.51759 23.6975 5.64699 24.6027C6.77639 25.5079 8.18078 26.0008 9.62818 26H23.2645ZM14.1736 7.61694C15.3315 7.61777 16.4612 7.97425 17.4098 8.63816C18.3587 9.30224 19.0806 10.2418 19.4779 11.3298L20.0167 12.8055L21.5074 12.3094C21.7847 12.2171 22.0744 12.1675 22.3665 12.1624C23.1392 12.1653 23.8796 12.4735 24.4262 13.0201C24.9727 13.5666 25.2809 14.3068 25.2839 15.0793C25.2791 15.3419 25.2383 15.6028 25.1628 15.8544L24.8518 16.8898L25.6897 17.5728C26.3036 18.0733 26.7476 18.7515 26.9607 19.5143C27.1738 20.2772 27.1456 21.0873 26.8799 21.8334C26.6142 22.5796 26.1241 23.2252 25.4769 23.6817C24.8296 24.1382 24.0569 24.3832 23.2649 24.3831H9.62818C8.54877 24.3837 7.5005 24.0161 6.65824 23.341C5.81598 22.666 5.22919 21.7238 4.99478 20.6701C4.76038 19.6165 4.89239 18.5144 5.36901 17.5459C5.84563 16.5775 6.63834 15.8005 7.6162 15.3435L8.63516 14.8672L8.54306 13.7462C8.52721 13.5533 8.51785 13.4074 8.51785 13.2727C8.51785 11.7727 9.11373 10.3341 10.1744 9.27348C11.2348 8.21303 12.674 7.61718 14.1736 7.61694Z" fill="#F53A3A"/>
<rect x="19.2759" y="6" width="9.45931" height="9.45931" rx="4.72966" fill="#F53A3A"/>
<path d="M26.2271 9.45514L23.0589 12.5365L21.4619 11.0483" stroke="#212331" stroke-width="1.07796" stroke-linecap="round" stroke-linejoin="round"/>
</svg>
