<svg width="32" height="32" viewBox="0 0 32 32" fill="none" xmlns="http://www.w3.org/2000/svg">
<mask id="path-1-outside-1_2933_1544" maskUnits="userSpaceOnUse" x="2.68802" y="7.24702" width="25.9904" height="17.5422" fill="black">
<rect fill="white" x="2.68802" y="7.24702" width="25.9904" height="17.5422"/>
<path fill-rule="evenodd" clip-rule="evenodd" d="M26.3594 9.2825L27.0146 13.2489C26.7451 13.2913 26.5039 13.4364 26.3441 13.6524C26.1842 13.8683 26.1188 14.1374 26.1623 14.4004C26.2057 14.6634 26.3544 14.8987 26.5757 15.0547C26.797 15.2107 27.0728 15.2745 27.3423 15.2321L27.9976 19.1985C28.041 19.4615 27.9756 19.7306 27.8158 19.9465C27.6559 20.1625 27.4147 20.3076 27.1452 20.35L6.82093 23.5471C6.55141 23.5895 6.27568 23.5257 6.05438 23.3697C5.83308 23.2137 5.68435 22.9783 5.6409 22.7153L4.98561 18.7489C5.25513 18.7065 5.49635 18.5614 5.6562 18.3454C5.81606 18.1295 5.88145 17.8604 5.83801 17.5975C5.79456 17.3345 5.64582 17.0991 5.42452 16.9431C5.20323 16.7871 4.92749 16.7233 4.65797 16.7657L4.00269 12.7993C3.95924 12.5363 4.02464 12.2672 4.18449 12.0513C4.34435 11.8354 4.58556 11.6902 4.85508 11.6478L25.1793 8.45074C25.4488 8.40835 25.7246 8.47216 25.9459 8.62814C26.1672 8.78413 26.3159 9.01951 26.3594 9.2825ZM25.2546 13.526C25.3832 13.1965 25.5984 12.9059 25.8786 12.6834L25.3432 9.44235L5.0189 12.6394L5.55434 15.8804C5.89203 16.0058 6.18994 16.2157 6.41812 16.489C6.6463 16.7624 6.7967 17.0895 6.8542 17.4376C6.9117 17.7857 6.87428 18.1424 6.74569 18.4718C6.6171 18.8013 6.40188 19.0919 6.12167 19.3145L6.65711 22.5555L26.9814 19.3584L26.4459 16.1174C26.1082 15.992 25.8103 15.7821 25.5821 15.5088C25.354 15.2354 25.2036 14.9083 25.1461 14.5602C25.0886 14.2122 25.126 13.8555 25.2546 13.526ZM9.5682 19.0456L9.8745 18.9975C10.0705 18.9666 10.2557 19.1003 10.288 19.2961L10.4985 20.5703C10.5309 20.7661 10.3982 20.9498 10.2021 20.9807L9.89584 21.0288C9.6998 21.0597 9.51466 20.926 9.48232 20.7302L9.27181 19.456C9.23946 19.2602 9.37216 19.0765 9.5682 19.0456ZM9.3852 16.0231L9.0789 16.0713C8.88286 16.1021 8.75016 16.2858 8.78251 16.4816L8.99301 17.7558C9.02536 17.9516 9.2105 18.0853 9.40654 18.0545L9.71284 18.0063C9.90887 17.9754 10.0416 17.7917 10.0092 17.5959L9.79872 16.3217C9.76637 16.126 9.58123 15.9922 9.3852 16.0231ZM8.58561 13.0959L8.89192 13.0477C9.08795 13.0169 9.27309 13.1506 9.30544 13.3464L9.51594 14.6206C9.54829 14.8164 9.41559 15.0001 9.21956 15.0309L8.91326 15.0791C8.71722 15.1099 8.53208 14.9762 8.49973 14.7804L8.28923 13.5062C8.25688 13.3105 8.38958 13.1267 8.58561 13.0959Z"/>
</mask>
<path fill-rule="evenodd" clip-rule="evenodd" d="M26.3594 9.2825L27.0146 13.2489C26.7451 13.2913 26.5039 13.4364 26.3441 13.6524C26.1842 13.8683 26.1188 14.1374 26.1623 14.4004C26.2057 14.6634 26.3544 14.8987 26.5757 15.0547C26.797 15.2107 27.0728 15.2745 27.3423 15.2321L27.9976 19.1985C28.041 19.4615 27.9756 19.7306 27.8158 19.9465C27.6559 20.1625 27.4147 20.3076 27.1452 20.35L6.82093 23.5471C6.55141 23.5895 6.27568 23.5257 6.05438 23.3697C5.83308 23.2137 5.68435 22.9783 5.6409 22.7153L4.98561 18.7489C5.25513 18.7065 5.49635 18.5614 5.6562 18.3454C5.81606 18.1295 5.88145 17.8604 5.83801 17.5975C5.79456 17.3345 5.64582 17.0991 5.42452 16.9431C5.20323 16.7871 4.92749 16.7233 4.65797 16.7657L4.00269 12.7993C3.95924 12.5363 4.02464 12.2672 4.18449 12.0513C4.34435 11.8354 4.58556 11.6902 4.85508 11.6478L25.1793 8.45074C25.4488 8.40835 25.7246 8.47216 25.9459 8.62814C26.1672 8.78413 26.3159 9.01951 26.3594 9.2825ZM25.2546 13.526C25.3832 13.1965 25.5984 12.9059 25.8786 12.6834L25.3432 9.44235L5.0189 12.6394L5.55434 15.8804C5.89203 16.0058 6.18994 16.2157 6.41812 16.489C6.6463 16.7624 6.7967 17.0895 6.8542 17.4376C6.9117 17.7857 6.87428 18.1424 6.74569 18.4718C6.6171 18.8013 6.40188 19.0919 6.12167 19.3145L6.65711 22.5555L26.9814 19.3584L26.4459 16.1174C26.1082 15.992 25.8103 15.7821 25.5821 15.5088C25.354 15.2354 25.2036 14.9083 25.1461 14.5602C25.0886 14.2122 25.126 13.8555 25.2546 13.526ZM9.5682 19.0456L9.8745 18.9975C10.0705 18.9666 10.2557 19.1003 10.288 19.2961L10.4985 20.5703C10.5309 20.7661 10.3982 20.9498 10.2021 20.9807L9.89584 21.0288C9.6998 21.0597 9.51466 20.926 9.48232 20.7302L9.27181 19.456C9.23946 19.2602 9.37216 19.0765 9.5682 19.0456ZM9.3852 16.0231L9.0789 16.0713C8.88286 16.1021 8.75016 16.2858 8.78251 16.4816L8.99301 17.7558C9.02536 17.9516 9.2105 18.0853 9.40654 18.0545L9.71284 18.0063C9.90887 17.9754 10.0416 17.7917 10.0092 17.5959L9.79872 16.3217C9.76637 16.126 9.58123 15.9922 9.3852 16.0231ZM8.58561 13.0959L8.89192 13.0477C9.08795 13.0169 9.27309 13.1506 9.30544 13.3464L9.51594 14.6206C9.54829 14.8164 9.41559 15.0001 9.21956 15.0309L8.91326 15.0791C8.71722 15.1099 8.53208 14.9762 8.49973 14.7804L8.28923 13.5062C8.25688 13.3105 8.38958 13.1267 8.58561 13.0959Z" fill="#F53A3A"/>
<path d="M27.0146 13.2489L27.0439 13.4262L27.2214 13.3983L27.1921 13.221L27.0146 13.2489ZM26.3441 13.6524L26.1991 13.5451L26.1991 13.5451L26.3441 13.6524ZM26.5757 15.0547L26.4727 15.201L26.4727 15.201L26.5757 15.0547ZM27.3423 15.2321L27.5198 15.2042L27.4905 15.0269L27.313 15.0549L27.3423 15.2321ZM27.8158 19.9465L27.9607 20.0538L27.9607 20.0538L27.8158 19.9465ZM6.05438 23.3697L6.15746 23.2234L6.15746 23.2234L6.05438 23.3697ZM4.98561 18.7489L4.95633 18.5717L4.77885 18.5996L4.80814 18.7768L4.98561 18.7489ZM5.6562 18.3454L5.80118 18.4527L5.80118 18.4527L5.6562 18.3454ZM5.42452 16.9431L5.52761 16.7968L5.52761 16.7968L5.42452 16.9431ZM4.65797 16.7657L4.48049 16.7936L4.50978 16.9709L4.68726 16.943L4.65797 16.7657ZM4.00269 12.7993L3.82521 12.8272L4.00269 12.7993ZM4.18449 12.0513L4.32946 12.1586L4.18449 12.0513ZM25.9459 8.62814L26.049 8.48184L26.049 8.48184L25.9459 8.62814ZM25.8786 12.6834L25.9913 12.8241L26.0732 12.759L26.0561 12.6554L25.8786 12.6834ZM25.2546 13.526L25.0869 13.4598L25.0869 13.4598L25.2546 13.526ZM25.3432 9.44235L25.5206 9.41443L25.4913 9.23717L25.3139 9.26509L25.3432 9.44235ZM5.0189 12.6394L4.98962 12.4622L4.81214 12.4901L4.84142 12.6673L5.0189 12.6394ZM5.55434 15.8804L5.37686 15.9084L5.39397 16.0119L5.49269 16.0486L5.55434 15.8804ZM6.12167 19.3145L6.009 19.1738L5.92708 19.2388L5.94419 19.3424L6.12167 19.3145ZM6.65711 22.5555L6.47963 22.5834L6.50892 22.7607L6.68639 22.7327L6.65711 22.5555ZM26.9814 19.3584L27.0106 19.5357L27.1881 19.5077L27.1588 19.3305L26.9814 19.3584ZM26.4459 16.1174L26.6234 16.0895L26.6063 15.9859L26.5076 15.9493L26.4459 16.1174ZM25.5821 15.5088L25.4443 15.623L25.4443 15.623L25.5821 15.5088ZM10.2021 20.9807L10.1729 20.8034L10.2021 20.9807ZM9.89584 21.0288L9.92512 21.2061L9.89584 21.0288ZM9.48232 20.7302L9.65979 20.7022L9.48232 20.7302ZM9.27181 19.456L9.09433 19.4839L9.27181 19.456ZM9.0789 16.0713L9.04961 15.894L9.0789 16.0713ZM9.3852 16.0231L9.41448 16.2003L9.3852 16.0231ZM9.40654 18.0545L9.43582 18.2317L9.40654 18.0545ZM9.71284 18.0063L9.68355 17.829L9.71284 18.0063ZM10.0092 17.5959L10.1867 17.568L10.0092 17.5959ZM9.79872 16.3217L9.62124 16.3497L9.79872 16.3217ZM8.89192 13.0477L8.86263 12.8705L8.89192 13.0477ZM8.58561 13.0959L8.6149 13.2732L8.58561 13.0959ZM27.1921 13.221L26.5368 9.25458L26.1819 9.31041L26.8372 13.2768L27.1921 13.221ZM26.489 13.7597C26.6207 13.5818 26.8202 13.4614 27.0439 13.4262L26.9854 13.0717C26.6701 13.1213 26.3871 13.2911 26.1991 13.5451L26.489 13.7597ZM26.3397 14.3725C26.3043 14.1578 26.3575 13.9374 26.489 13.7597L26.1991 13.5451C26.0109 13.7993 25.9333 14.1169 25.9848 14.4283L26.3397 14.3725ZM26.6788 14.9084C26.4967 14.78 26.3752 14.5871 26.3397 14.3725L25.9848 14.4283C26.0362 14.7396 26.2122 15.0174 26.4727 15.201L26.6788 14.9084ZM27.313 15.0549C27.0892 15.0901 26.8611 15.0369 26.6788 14.9084L26.4727 15.201C26.733 15.3845 27.0563 15.459 27.3716 15.4094L27.313 15.0549ZM28.175 19.1706L27.5198 15.2042L27.1648 15.26L27.8201 19.2265L28.175 19.1706ZM27.9607 20.0538C28.1489 19.7997 28.2265 19.482 28.175 19.1706L27.8201 19.2265C27.8556 19.4411 27.8024 19.6615 27.6708 19.8393L27.9607 20.0538ZM27.1745 20.5273C27.4897 20.4777 27.7727 20.3078 27.9607 20.0538L27.6708 19.8393C27.5391 20.0171 27.3397 20.1375 27.1159 20.1727L27.1745 20.5273ZM6.85021 23.7243L27.1745 20.5273L27.1159 20.1727L6.79165 23.3698L6.85021 23.7243ZM5.9513 23.516C6.21159 23.6995 6.53494 23.7739 6.85021 23.7243L6.79165 23.3698C6.56788 23.405 6.33976 23.3519 6.15746 23.2234L5.9513 23.516ZM5.46342 22.7432C5.51486 23.0546 5.69084 23.3324 5.9513 23.516L6.15746 23.2234C5.97532 23.095 5.85383 22.902 5.81838 22.6874L5.46342 22.7432ZM4.80814 18.7768L5.46342 22.7432L5.81838 22.6874L5.16309 18.721L4.80814 18.7768ZM5.51123 18.2382C5.37954 18.416 5.18009 18.5365 4.95633 18.5717L5.0149 18.9262C5.33017 18.8766 5.61315 18.7067 5.80118 18.4527L5.51123 18.2382ZM5.66053 17.6254C5.69599 17.84 5.6428 18.0604 5.51123 18.2382L5.80118 18.4527C5.98932 18.1986 6.06692 17.8809 6.01548 17.5695L5.66053 17.6254ZM5.32144 17.0894C5.50358 17.2178 5.62507 17.4107 5.66053 17.6254L6.01548 17.5695C5.96405 17.2582 5.78807 16.9804 5.52761 16.7968L5.32144 17.0894ZM4.68726 16.943C4.91102 16.9078 5.13914 16.9609 5.32144 17.0894L5.52761 16.7968C5.26731 16.6133 4.94396 16.5389 4.62869 16.5884L4.68726 16.943ZM3.82521 12.8272L4.48049 16.7936L4.83545 16.7378L4.18017 12.7714L3.82521 12.8272ZM4.03952 11.944C3.85137 12.1982 3.77377 12.5159 3.82521 12.8272L4.18017 12.7714C4.14471 12.5567 4.1979 12.3363 4.32946 12.1586L4.03952 11.944ZM4.8258 11.4706C4.51052 11.5202 4.22754 11.69 4.03952 11.944L4.32946 12.1586C4.46115 11.9807 4.6606 11.8603 4.88436 11.8251L4.8258 11.4706ZM25.15 8.27349L4.8258 11.4706L4.88436 11.8251L25.2086 8.628L25.15 8.27349ZM26.049 8.48184C25.7887 8.29837 25.4653 8.22389 25.15 8.27349L25.2086 8.628C25.4324 8.5928 25.6605 8.64595 25.8428 8.77444L26.049 8.48184ZM26.5368 9.25458C26.4854 8.94323 26.3094 8.66543 26.049 8.48184L25.8428 8.77444C26.0249 8.90282 26.1464 9.09578 26.1819 9.31041L26.5368 9.25458ZM25.7659 12.5427C25.4614 12.7845 25.227 13.1007 25.0869 13.4598L25.4223 13.5922C25.5393 13.2923 25.7354 13.0273 25.9913 12.8241L25.7659 12.5427ZM25.1657 9.47027L25.7011 12.7113L26.0561 12.6554L25.5206 9.41443L25.1657 9.47027ZM5.04818 12.8167L25.3724 9.61961L25.3139 9.26509L4.98962 12.4622L5.04818 12.8167ZM5.73182 15.8525L5.19638 12.6115L4.84142 12.6673L5.37686 15.9084L5.73182 15.8525ZM6.556 16.3748C6.3073 16.0769 5.98298 15.8486 5.61599 15.7123L5.49269 16.0486C5.80108 16.163 6.07258 16.3545 6.28024 16.6033L6.556 16.3748ZM7.03168 17.4097C6.9689 17.0297 6.80473 16.6728 6.556 16.3748L6.28024 16.6033C6.48787 16.852 6.6245 17.1494 6.67672 17.4655L7.03168 17.4097ZM6.91337 18.538C7.05354 18.1788 7.09445 17.7897 7.03168 17.4097L6.67672 17.4655C6.72895 17.7816 6.69501 18.1059 6.578 18.4057L6.91337 18.538ZM6.23434 19.4552C6.53886 19.2133 6.77322 18.8971 6.91337 18.538L6.578 18.4057C6.46098 18.7055 6.2649 18.9705 6.009 19.1738L6.23434 19.4552ZM6.83459 22.5276L6.29915 19.2865L5.94419 19.3424L6.47963 22.5834L6.83459 22.5276ZM26.9521 19.1811L6.62783 22.3782L6.68639 22.7327L27.0106 19.5357L26.9521 19.1811ZM26.2684 16.1453L26.8039 19.3863L27.1588 19.3305L26.6234 16.0895L26.2684 16.1453ZM25.4443 15.623C25.693 15.9209 26.0173 16.1493 26.3843 16.2855L26.5076 15.9493C26.1992 15.8348 25.9277 15.6433 25.72 15.3945L25.4443 15.623ZM24.9686 14.5881C25.0314 14.9681 25.1955 15.325 25.4443 15.623L25.72 15.3945C25.5124 15.1458 25.3758 14.8484 25.3235 14.5323L24.9686 14.5881ZM25.0869 13.4598C24.9467 13.819 24.9058 14.2082 24.9686 14.5881L25.3235 14.5323C25.2713 14.2162 25.3052 13.892 25.4223 13.5922L25.0869 13.4598ZM9.84521 18.8202L9.53891 18.8684L9.59748 19.2229L9.90378 19.1747L9.84521 18.8202ZM10.4655 19.2682C10.417 18.9745 10.1393 18.7739 9.84521 18.8202L9.90378 19.1747C10.0018 19.1593 10.0944 19.2262 10.1105 19.3241L10.4655 19.2682ZM10.676 20.5424L10.4655 19.2682L10.1105 19.3241L10.3211 20.5982L10.676 20.5424ZM10.2314 21.1579C10.5255 21.1117 10.7245 20.8361 10.676 20.5424L10.3211 20.5982C10.3372 20.6961 10.2709 20.788 10.1729 20.8034L10.2314 21.1579ZM9.92512 21.2061L10.2314 21.1579L10.1729 20.8034L9.86656 20.8516L9.92512 21.2061ZM9.30484 20.7581C9.35336 21.0518 9.63107 21.2524 9.92512 21.2061L9.86656 20.8516C9.76854 20.867 9.67597 20.8001 9.65979 20.7022L9.30484 20.7581ZM9.09433 19.4839L9.30484 20.7581L9.65979 20.7022L9.44929 19.4281L9.09433 19.4839ZM9.53891 18.8684C9.24486 18.9146 9.04581 19.1902 9.09433 19.4839L9.44929 19.4281C9.43312 19.3302 9.49946 19.2383 9.59748 19.2229L9.53891 18.8684ZM9.10818 16.2485L9.41448 16.2003L9.35591 15.8458L9.04961 15.894L9.10818 16.2485ZM8.95999 16.4537C8.94381 16.3558 9.01016 16.2639 9.10818 16.2485L9.04961 15.894C8.75556 15.9402 8.55651 16.2158 8.60503 16.5095L8.95999 16.4537ZM9.17049 17.7279L8.95999 16.4537L8.60503 16.5095L8.81553 17.7837L9.17049 17.7279ZM9.37725 17.8772C9.27923 17.8926 9.18666 17.8258 9.17049 17.7279L8.81553 17.7837C8.86405 18.0774 9.14177 18.278 9.43582 18.2317L9.37725 17.8772ZM9.68355 17.829L9.37725 17.8772L9.43582 18.2317L9.74212 18.1835L9.68355 17.829ZM9.83175 17.6238C9.84792 17.7217 9.78157 17.8136 9.68355 17.829L9.74212 18.1835C10.0362 18.1373 10.2352 17.8617 10.1867 17.568L9.83175 17.6238ZM9.62124 16.3497L9.83175 17.6238L10.1867 17.568L9.9762 16.2938L9.62124 16.3497ZM9.41448 16.2003C9.5125 16.1849 9.60507 16.2518 9.62124 16.3497L9.9762 16.2938C9.92768 16.0001 9.64997 15.7996 9.35591 15.8458L9.41448 16.2003ZM8.86263 12.8705L8.55633 12.9186L8.6149 13.2732L8.9212 13.225L8.86263 12.8705ZM9.48292 13.3185C9.4344 13.0248 9.15669 12.8242 8.86263 12.8705L8.9212 13.225C9.01922 13.2096 9.11179 13.2764 9.12796 13.3743L9.48292 13.3185ZM9.69342 14.5927L9.48292 13.3185L9.12796 13.3743L9.33847 14.6485L9.69342 14.5927ZM9.24884 15.2082C9.5429 15.1619 9.74194 14.8863 9.69342 14.5927L9.33847 14.6485C9.35464 14.7464 9.28829 14.8382 9.19027 14.8537L9.24884 15.2082ZM8.94254 15.2564L9.24884 15.2082L9.19027 14.8537L8.88397 14.9018L8.94254 15.2564ZM8.32225 14.8083C8.37077 15.102 8.64849 15.3026 8.94254 15.2564L8.88397 14.9018C8.78595 14.9173 8.69338 14.8504 8.67721 14.7525L8.32225 14.8083ZM8.11175 13.5342L8.32225 14.8083L8.67721 14.7525L8.46671 13.4783L8.11175 13.5342ZM8.55633 12.9186C8.26228 12.9649 8.06323 13.2405 8.11175 13.5342L8.46671 13.4783C8.45053 13.3804 8.51688 13.2886 8.6149 13.2732L8.55633 12.9186Z" fill="#F53A3A" mask="url(#path-1-outside-1_2933_1544)"/>
</svg>
