<svg width="32" height="32" viewBox="0 0 32 32" fill="none" xmlns="http://www.w3.org/2000/svg">
<path fill-rule="evenodd" clip-rule="evenodd" d="M20.3277 20.7574C18.6019 22.3972 16.8582 23.6597 15.866 24.3324C14.8887 23.6386 13.1722 22.3386 11.4824 20.6628C9.24647 18.4456 6.58944 15.0941 6.62537 11.7222C6.65115 9.31673 8.61287 7.38079 10.9988 7.40657C12.5269 7.42298 13.9035 8.23079 14.6816 9.56829L15.9996 11.8331L17.3652 9.5972C18.1722 8.27689 19.566 7.49798 21.0933 7.51439C23.4793 7.54017 25.3996 9.51751 25.3746 11.9222C25.3379 15.2949 22.6097 18.5886 20.3277 20.7574M21.1106 5.9519C18.9645 5.92924 17.0801 7.0683 16.0325 8.78237C15.0216 7.04565 13.1614 5.86674 11.0153 5.84408C7.76296 5.80971 5.09812 8.43393 5.06296 11.7058C4.98093 19.3222 15.8466 26.2097 15.8466 26.2097C15.8466 26.2097 26.8552 19.5558 26.9364 11.9386C26.9716 8.66674 24.363 5.98705 21.1106 5.9519" fill="#F53A3A"/>
</svg>
