<svg width="32" height="32" viewBox="0 0 32 32" fill="none" xmlns="http://www.w3.org/2000/svg">
<path fill-rule="evenodd" clip-rule="evenodd" d="M24.488 23.0453L9.45466 8.012C11.336 6.35066 13.7973 5.33334 16.5 5.33334C22.3813 5.33334 27.1667 10.1187 27.1667 16C27.1667 18.7013 26.1493 21.164 24.488 23.0453ZM5.83334 16C5.83334 13.2973 6.84934 10.836 8.512 8.95466L23.5453 23.988C21.664 25.6493 19.2013 26.6667 16.5 26.6667C10.6187 26.6667 5.83334 21.8813 5.83334 16ZM16.5 4C9.872 4 4.5 9.372 4.5 16C4.5 22.628 9.872 28 16.5 28C23.1267 28 28.5 22.628 28.5 16C28.5 9.372 23.1267 4 16.5 4Z" fill="#F53A3A"/>
<path d="M8.85244 21L11.5547 12.5511H13.5501L16.2523 21H14.4736L13.2764 16.5988C13.1472 16.158 13.0218 15.7019 12.9001 15.2306C12.7861 14.7517 12.6645 14.288 12.5353 13.8395H12.4897C12.3833 14.2956 12.2654 14.7593 12.1362 15.2306C12.0146 15.7019 11.893 16.158 11.7713 16.5988L10.5627 21H8.85244ZM10.5285 18.8336V17.5224H14.542V18.8336H10.5285ZM17.24 21V12.5511H19.5546C20.4212 12.5511 21.1623 12.7031 21.778 13.0072C22.4013 13.3113 22.8802 13.7711 23.2147 14.3868C23.5567 15.0026 23.7278 15.7855 23.7278 16.7357C23.7278 17.6858 23.5605 18.4764 23.2261 19.1073C22.8916 19.7382 22.4203 20.2133 21.8122 20.5325C21.2041 20.8442 20.482 21 19.6458 21H17.24ZM18.9275 19.6318H19.4406C19.9727 19.6318 20.4288 19.5367 20.8089 19.3467C21.1965 19.1491 21.493 18.8374 21.6982 18.4117C21.9034 17.9785 22.0061 17.4198 22.0061 16.7357C22.0061 16.0515 21.9034 15.5042 21.6982 15.0938C21.493 14.6757 21.1965 14.3754 20.8089 14.193C20.4288 14.003 19.9727 13.908 19.4406 13.908H18.9275V19.6318Z" fill="#F53A3A"/>
</svg>
