<svg width="32" height="32" viewBox="0 0 32 32" fill="none" xmlns="http://www.w3.org/2000/svg">
<path d="M6.1741 27.1336C5.88119 27.1336 5.57302 27.0045 5.32592 26.7574L4.90808 26.3396C4.49579 25.9273 4.41112 25.3428 4.70819 24.95L5.09826 24.4364C4.91641 23.845 5.03718 23.194 5.43698 22.7053L15.7983 10.0424L16.0163 11.0169C16.2703 12.151 16.8381 13.1852 17.6599 14.007C18.4844 14.8316 19.5172 15.4007 20.6458 15.6534L21.6189 15.8713L8.96155 26.2285C8.47292 26.6283 7.82186 26.7491 7.2305 26.5672L6.71687 26.9573C6.56001 27.0767 6.37122 27.135 6.17549 27.135L6.1741 27.1336ZM5.50639 25.5053C5.51333 25.5372 5.53693 25.5941 5.59523 25.6524L6.01307 26.0703C6.06999 26.1272 6.12829 26.1522 6.16022 26.1591L7.10279 25.4442L7.37348 25.5816C7.68999 25.7426 8.07173 25.701 8.3452 25.4761L19.5228 16.3322C18.5705 15.9796 17.7015 15.4229 16.9727 14.6942C16.2453 13.9668 15.69 13.0978 15.3374 12.1413L6.18937 23.3203C5.96587 23.5937 5.92423 23.9755 6.08387 24.292L6.2213 24.5627L5.50639 25.5053Z" fill="#F53A3A"/>
<path fill-rule="evenodd" clip-rule="evenodd" d="M8.96155 26.2285C8.47292 26.6283 7.82186 26.7491 7.2305 26.5672L6.71687 26.9573C6.56001 27.0767 6.37122 27.135 6.17549 27.135L6.1741 27.1336C5.88119 27.1336 5.57302 27.0045 5.32592 26.7574L4.90808 26.3396C4.49579 25.9273 4.41112 25.3428 4.70819 24.95L5.09826 24.4364C4.91641 23.845 5.03718 23.194 5.43698 22.7053L15.7983 10.0424L16.0163 11.0169C16.2703 12.151 16.8381 13.1852 17.6599 14.007C18.4844 14.8316 19.5172 15.4007 20.6458 15.6534L21.6189 15.8713L8.96155 26.2285ZM16.4066 10.9295L16.0093 9.15292L5.1274 22.452C4.68767 22.9895 4.52608 23.6882 4.66304 24.3481L4.38964 24.7081C3.94187 25.3002 4.11042 26.1076 4.62524 26.6224L5.04308 27.0402C5.31191 27.3091 5.64891 27.4792 5.99745 27.5226L6.00987 27.535H6.17549C6.45134 27.535 6.72679 27.4523 6.9588 27.2758L7.31879 27.0024C7.97864 27.1394 8.67739 26.9778 9.21485 26.5381L22.5081 15.6606L20.7332 15.2631C19.6792 15.0271 18.714 14.4955 17.9427 13.7242C17.1747 12.9562 16.6441 11.9898 16.4066 10.9295C16.4066 10.9295 16.4066 10.9294 16.4066 10.9295ZM5.59523 25.6524L6.01307 26.0703C6.06999 26.1272 6.12829 26.1522 6.16022 26.1591L7.10279 25.4442L7.37348 25.5816C7.68999 25.7426 8.07173 25.701 8.3452 25.4761L19.5228 16.3322C19.3803 16.2795 19.2397 16.2221 19.1011 16.1603C18.3136 15.8092 17.5925 15.3139 16.9727 14.6942C16.3539 14.0753 15.8596 13.354 15.5088 12.5635C15.4472 12.4249 15.3901 12.2841 15.3374 12.1413L6.18937 23.3203C5.96587 23.5937 5.92423 23.9755 6.08387 24.292L6.2213 24.5627L5.50639 25.5053C5.51333 25.5372 5.53693 25.5941 5.59523 25.6524ZM6.01073 25.5022L6.69132 24.6049L6.44101 24.1119C6.44107 24.112 6.44095 24.1117 6.44101 24.1119C6.35259 23.9362 6.37596 23.7242 6.49893 23.5736M6.49893 23.5736L15.2269 12.9079C15.5911 13.6721 16.0841 14.3712 16.6899 14.977C17.2963 15.5834 17.9951 16.0774 18.757 16.4419L8.09193 25.1665L8.09114 25.1672C7.94071 25.2909 7.72995 25.3142 7.55486 25.2251L7.06058 24.9742L6.16325 25.6548L6.01073 25.5022" fill="#F53A3A"/>
<path d="M20.9873 16.8472C19.3201 16.8472 17.7528 16.1975 16.5743 15.019C15.3957 13.8404 14.7461 12.2731 14.7461 10.6059C14.7461 8.93874 15.3957 7.37149 16.5743 6.19293C17.7515 5.01298 19.3201 4.36332 20.9873 4.36332C22.6545 4.36332 24.2217 5.01298 25.4003 6.19154C26.5789 7.37011 27.2285 8.93736 27.2285 10.6046C27.2285 12.2718 26.5789 13.839 25.4003 15.0176C24.2217 16.1961 22.6545 16.8458 20.9873 16.8458V16.8472ZM20.9873 5.33504C19.5797 5.33504 18.2568 5.88337 17.2614 6.87869C16.2661 7.87401 15.7178 9.19694 15.7178 10.6046C15.7178 12.0122 16.2661 13.3351 17.2614 14.3304C18.2568 15.3257 19.5797 15.8741 20.9873 15.8741C22.3949 15.8741 23.7178 15.3257 24.7132 14.3304C25.7085 13.3351 26.2568 12.0122 26.2568 10.6046C26.2568 9.19694 25.7085 7.87401 24.7132 6.87869C23.7178 5.88337 22.3949 5.33504 20.9873 5.33504Z" fill="#F53A3A"/>
<path fill-rule="evenodd" clip-rule="evenodd" d="M21.3873 17.2472H20.9873C19.2139 17.2472 17.545 16.5553 16.2914 15.3018C15.0379 14.0483 14.3461 12.3793 14.3461 10.6059C14.3461 8.83259 15.0379 7.16362 16.2914 5.91009C17.5438 4.65499 19.2142 3.96332 20.9873 3.96332C22.7606 3.96332 24.4296 4.65517 25.6831 5.9087C26.9367 7.16223 27.6285 8.8312 27.6285 10.6046C27.6285 12.3779 26.9367 14.0469 25.6831 15.3004C24.5243 16.4592 23.0105 17.138 21.3873 17.234V17.2472ZM20.9873 16.8458C22.6545 16.8458 24.2217 16.1961 25.4003 15.0176C26.5789 13.839 27.2285 12.2718 27.2285 10.6046C27.2285 8.93736 26.5789 7.37011 25.4003 6.19154C24.2217 5.01298 22.6545 4.36332 20.9873 4.36332C19.3201 4.36332 17.7515 5.01298 16.5743 6.19293C15.3957 7.37149 14.7461 8.93874 14.7461 10.6059C14.7461 12.2731 15.3957 13.8404 16.5743 15.019C17.6581 16.1028 19.0706 16.7393 20.5873 16.8346C20.6758 16.8402 20.7647 16.8439 20.8539 16.8458C20.8983 16.8467 20.9428 16.8472 20.9873 16.8472V16.8458ZM20.9873 5.73504C19.6858 5.73504 18.4646 6.24118 17.5443 7.16153C16.6239 8.08189 16.1178 9.3031 16.1178 10.6046C16.1178 11.906 16.6239 13.1272 17.5443 14.0476C18.4646 14.9679 19.6858 15.4741 20.9873 15.4741C22.2888 15.4741 23.51 14.9679 24.4303 14.0476C25.3507 13.1272 25.8568 11.906 25.8568 10.6046C25.8568 9.3031 25.3507 8.08189 24.4303 7.16153C23.51 6.24118 22.2888 5.73504 20.9873 5.73504ZM17.2614 6.87869C18.2568 5.88337 19.5797 5.33504 20.9873 5.33504C22.3949 5.33504 23.7178 5.88337 24.7132 6.87869C25.7085 7.87401 26.2568 9.19694 26.2568 10.6046C26.2568 12.0122 25.7085 13.3351 24.7132 14.3304C23.7178 15.3257 22.3949 15.8741 20.9873 15.8741C19.5797 15.8741 18.2568 15.3257 17.2614 14.3304C16.2661 13.3351 15.7178 12.0122 15.7178 10.6046C15.7178 9.19694 16.2661 7.87401 17.2614 6.87869Z" fill="#F53A3A"/>
<path d="M24.9839 13.4707C21.3225 13.4707 18.3427 10.492 18.3427 6.82924C18.3427 6.69634 18.2805 6.57806 18.1842 6.50003C18.0928 6.57928 18.0025 6.66098 17.916 6.74755C17.8014 6.86216 17.6941 6.98165 17.5929 7.1048C17.5612 7.14381 17.5307 7.18283 17.5002 7.22185C17.6977 11.0431 20.7714 14.1169 24.5925 14.3145C24.6315 14.284 24.6705 14.2535 24.7096 14.2218C24.8327 14.1206 24.951 14.0133 25.0668 13.8975C25.1534 13.8109 25.235 13.7207 25.3143 13.6292C25.2363 13.5329 25.118 13.4707 24.9851 13.4707H24.9839Z" fill="#F53A3A"/>
<path fill-rule="evenodd" clip-rule="evenodd" d="M18.1766 6.0417L18.4054 6.22704C18.5786 6.36741 18.6941 6.5836 18.6941 6.82924C18.6941 10.2979 21.5165 13.1194 24.9839 13.1194H24.9851C25.2307 13.1194 25.4469 13.2348 25.5873 13.4081L25.7726 13.6368L25.5798 13.8593C25.4974 13.9544 25.4098 14.0514 25.3152 14.1459C25.1915 14.2697 25.0647 14.3846 24.9326 14.4932L24.9311 14.4945C24.8895 14.5283 24.8482 14.5605 24.8099 14.5904L24.7054 14.6721L24.5744 14.6653C20.5735 14.4585 17.3562 11.241 17.1494 7.23999L17.1426 7.10895L17.2243 7.00435C17.2542 6.96608 17.2864 6.92486 17.3202 6.88325L17.3214 6.88174C17.4292 6.75061 17.5441 6.62255 17.6675 6.49912C17.7621 6.40459 17.859 6.31694 17.9541 6.23453L18.1766 6.0417ZM18.2837 6.61483C18.2576 6.57095 18.2238 6.53209 18.1842 6.50003C18.0928 6.57928 18.0025 6.66098 17.916 6.74755C17.8014 6.86216 17.6941 6.98165 17.5929 7.1048C17.5612 7.14381 17.5307 7.18283 17.5002 7.22185C17.6977 11.0431 20.7714 14.1169 24.5925 14.3145C24.6315 14.284 24.6705 14.2535 24.7096 14.2218C24.8327 14.1206 24.951 14.0133 25.0668 13.8975C25.1534 13.8109 25.235 13.7207 25.3143 13.6292C25.2822 13.5896 25.2433 13.5558 25.1994 13.5297C25.1368 13.4924 25.0631 13.4709 24.9851 13.4707C24.9854 13.4707 24.9848 13.4707 24.9851 13.4707H24.9839C21.3225 13.4707 18.3427 10.492 18.3427 6.82924C18.3427 6.82951 18.3427 6.82897 18.3427 6.82924C18.3426 6.75125 18.321 6.67752 18.2837 6.61483Z" fill="#F53A3A"/>
<path d="M8.07814 20.5L7.50023 21.206C8.14154 22.2582 9.03646 23.1398 10.0984 23.7689L10.808 23.1886C9.65705 22.5789 8.70483 21.6413 8.07814 20.5Z" fill="#F53A3A"/>
<path fill-rule="evenodd" clip-rule="evenodd" d="M8.13575 19.875L8.3861 20.3309C8.97975 21.412 9.88206 22.3005 10.9725 22.8781L11.4398 23.1257L10.1307 24.1964L9.91933 24.0712C8.80822 23.4129 7.87165 22.4905 7.20022 21.3888L7.0706 21.1762L8.13575 19.875ZM10.0984 23.7689C9.03646 23.1398 8.14154 22.2582 7.50023 21.206L8.07814 20.5C8.13834 20.6097 8.20155 20.7174 8.26765 20.8232C8.82315 21.7121 9.58289 22.4604 10.4802 23.0028C10.5875 23.0677 10.6968 23.1297 10.808 23.1886L10.0984 23.7689Z" fill="#F53A3A"/>
</svg>
