<svg width="299" height="74" viewBox="0 0 299 74" fill="none" xmlns="http://www.w3.org/2000/svg">
<path d="M38.4312 48.166C38.4312 45.982 37.5732 44.266 35.8572 43.018C34.1412 41.718 31.8012 41.068 28.8372 41.068H22.5192V31.396H29.4612C31.9052 31.396 33.8552 30.824 35.3112 29.68C36.8192 28.484 37.5732 26.924 37.5732 25C37.5732 23.076 36.8452 21.568 35.3892 20.476C33.9852 19.384 32.0612 18.838 29.6172 18.838C24.9372 18.838 20.8292 20.996 17.2932 25.312L13.2372 16.42C17.5532 11.532 23.2472 9.088 30.3192 9.088C33.9072 9.088 37.0532 9.686 39.7572 10.882C42.5132 12.078 44.6452 13.742 46.1532 15.874C47.6612 17.954 48.4152 20.398 48.4152 23.206C48.4152 26.066 47.6092 28.588 45.9972 30.772C44.3852 32.956 42.1232 34.646 39.2112 35.842C46.1792 37.922 49.6632 42.316 49.6632 49.024C49.6632 52.248 48.8572 55.082 47.2452 57.526C45.6852 59.918 43.4492 61.79 40.5372 63.142C37.6772 64.442 34.3232 65.092 30.4752 65.092C22.6232 65.092 16.1752 62.336 11.1312 56.824L15.7332 47.854C19.7372 52.794 24.3652 55.264 29.6172 55.264C32.2692 55.264 34.4012 54.614 36.0132 53.314C37.6252 52.014 38.4312 50.298 38.4312 48.166ZM55.7448 37.09C55.7448 31.214 56.6028 26.196 58.3188 22.036C60.0348 17.876 62.4788 14.678 65.6508 12.442C68.8748 10.206 72.6708 9.088 77.0388 9.088C81.4588 9.088 85.2548 10.206 88.4268 12.442C91.6508 14.678 94.1208 17.876 95.8368 22.036C97.6048 26.196 98.4888 31.214 98.4888 37.09C98.4888 42.966 97.6048 48.01 95.8368 52.222C94.1208 56.382 91.6508 59.58 88.4268 61.816C85.2548 64 81.4588 65.092 77.0388 65.092C72.6708 65.092 68.8748 63.974 65.6508 61.738C62.4788 59.502 60.0348 56.304 58.3188 52.144C56.6028 47.932 55.7448 42.914 55.7448 37.09ZM67.1328 37.09C67.1328 42.758 67.9908 47.126 69.7068 50.194C71.4228 53.262 73.8668 54.796 77.0388 54.796C80.2628 54.796 82.7328 53.262 84.4488 50.194C86.1648 47.074 87.0228 42.732 87.0228 37.168C87.0228 31.5 86.1388 27.132 84.3708 24.064C82.6548 20.944 80.2108 19.384 77.0388 19.384C73.8668 19.384 71.4228 20.918 69.7068 23.986C67.9908 27.054 67.1328 31.422 67.1328 37.09ZM104.952 37.09C104.952 31.214 105.81 26.196 107.526 22.036C109.242 17.876 111.686 14.678 114.858 12.442C118.082 10.206 121.878 9.088 126.246 9.088C130.666 9.088 134.462 10.206 137.634 12.442C140.858 14.678 143.328 17.876 145.044 22.036C146.812 26.196 147.696 31.214 147.696 37.09C147.696 42.966 146.812 48.01 145.044 52.222C143.328 56.382 140.858 59.58 137.634 61.816C134.462 64 130.666 65.092 126.246 65.092C121.878 65.092 118.082 63.974 114.858 61.738C111.686 59.502 109.242 56.304 107.526 52.144C105.81 47.932 104.952 42.914 104.952 37.09ZM116.34 37.09C116.34 42.758 117.198 47.126 118.914 50.194C120.63 53.262 123.074 54.796 126.246 54.796C129.47 54.796 131.94 53.262 133.656 50.194C135.372 47.074 136.23 42.732 136.23 37.168C136.23 31.5 135.346 27.132 133.578 24.064C131.862 20.944 129.418 19.384 126.246 19.384C123.074 19.384 120.63 20.918 118.914 23.986C117.198 27.054 116.34 31.422 116.34 37.09Z" fill="#F53A3A"/>
<path d="M179.9 23C179.9 23.552 180.092 24.02 180.476 24.404C180.86 24.764 181.328 24.944 181.88 24.944C182.408 24.944 182.864 24.764 183.248 24.404C183.632 24.02 183.824 23.552 183.824 23C183.824 22.472 183.632 22.016 183.248 21.632C182.864 21.248 182.408 21.056 181.88 21.056C181.328 21.056 180.86 21.248 180.476 21.632C180.092 22.016 179.9 22.472 179.9 23ZM177.704 23C177.704 22.232 177.884 21.536 178.244 20.912C178.628 20.288 179.132 19.784 179.756 19.4C180.404 19.016 181.112 18.824 181.88 18.824C182.648 18.824 183.344 19.016 183.968 19.4C184.592 19.784 185.084 20.288 185.444 20.912C185.828 21.536 186.02 22.232 186.02 23C186.02 23.768 185.828 24.476 185.444 25.124C185.084 25.748 184.592 26.252 183.968 26.636C183.344 26.996 182.648 27.176 181.88 27.176C181.112 27.176 180.404 26.996 179.756 26.636C179.132 26.252 178.628 25.748 178.244 25.124C177.884 24.476 177.704 23.768 177.704 23ZM172.736 21.596C172.712 21.764 172.676 22.04 172.628 22.424C172.58 22.808 172.532 23.216 172.484 23.648C172.436 24.056 172.412 24.416 172.412 24.728C172.412 25.448 172.412 26.24 172.412 27.104C172.412 27.968 172.412 28.832 172.412 29.696C172.412 30.536 172.412 31.304 172.412 32C172.412 32.48 172.412 33.152 172.412 34.016C172.412 34.88 172.412 35.852 172.412 36.932C172.412 38.012 172.412 39.14 172.412 40.316C172.412 41.468 172.412 42.596 172.412 43.7C172.412 44.78 172.412 45.764 172.412 46.652C172.412 47.516 172.412 48.2 172.412 48.704C172.412 49.736 172.1 50.552 171.476 51.152C170.876 51.776 169.94 52.088 168.668 52.088C168.02 52.088 167.36 52.076 166.688 52.052C166.016 52.028 165.356 51.992 164.708 51.944C164.06 51.896 163.424 51.836 162.8 51.764L162.368 47.3C163.136 47.444 163.88 47.552 164.6 47.624C165.344 47.696 165.932 47.732 166.364 47.732C166.844 47.732 167.18 47.636 167.372 47.444C167.564 47.228 167.672 46.892 167.696 46.436C167.696 46.22 167.696 45.752 167.696 45.032C167.72 44.312 167.732 43.46 167.732 42.476C167.732 41.492 167.732 40.448 167.732 39.344C167.732 38.24 167.732 37.184 167.732 36.176C167.732 35.168 167.732 34.292 167.732 33.548C167.732 32.804 167.732 32.288 167.732 32C167.732 31.568 167.732 30.92 167.732 30.056C167.732 29.168 167.732 28.232 167.732 27.248C167.732 26.264 167.732 25.424 167.732 24.728C167.732 24.248 167.696 23.684 167.624 23.036C167.552 22.364 167.48 21.884 167.408 21.596H172.736ZM155.096 27.32C155.648 27.392 156.224 27.464 156.824 27.536C157.424 27.584 158.012 27.608 158.588 27.608C158.876 27.608 159.452 27.608 160.316 27.608C161.204 27.608 162.26 27.608 163.484 27.608C164.708 27.608 166.016 27.608 167.408 27.608C168.824 27.608 170.24 27.608 171.656 27.608C173.096 27.608 174.428 27.608 175.652 27.608C176.9 27.608 177.98 27.608 178.892 27.608C179.804 27.608 180.44 27.608 180.8 27.608C181.304 27.608 181.892 27.584 182.564 27.536C183.26 27.488 183.86 27.428 184.364 27.356V32.072C183.812 32.024 183.212 32 182.564 32C181.916 31.976 181.34 31.964 180.836 31.964C180.476 31.964 179.84 31.964 178.928 31.964C178.04 31.964 176.972 31.964 175.724 31.964C174.5 31.964 173.18 31.964 171.764 31.964C170.348 31.964 168.932 31.964 167.516 31.964C166.1 31.964 164.78 31.964 163.556 31.964C162.332 31.964 161.276 31.964 160.388 31.964C159.524 31.964 158.924 31.964 158.588 31.964C158.06 31.964 157.472 31.976 156.824 32C156.2 32.024 155.624 32.06 155.096 32.108V27.32ZM164.276 37.076C163.868 37.892 163.376 38.768 162.8 39.704C162.224 40.64 161.6 41.576 160.928 42.512C160.28 43.448 159.644 44.324 159.02 45.14C158.396 45.932 157.832 46.592 157.328 47.12L153.44 44.456C154.04 43.904 154.652 43.256 155.276 42.512C155.924 41.744 156.548 40.94 157.148 40.1C157.772 39.26 158.336 38.42 158.84 37.58C159.368 36.74 159.824 35.936 160.208 35.168L164.276 37.076ZM179.756 35.06C180.212 35.636 180.716 36.32 181.268 37.112C181.844 37.904 182.42 38.756 182.996 39.668C183.572 40.556 184.112 41.432 184.616 42.296C185.12 43.136 185.552 43.88 185.912 44.528L181.664 46.832C181.28 46.064 180.836 45.236 180.332 44.348C179.852 43.46 179.348 42.572 178.82 41.684C178.292 40.796 177.764 39.968 177.236 39.2C176.732 38.408 176.264 37.736 175.832 37.184L179.756 35.06ZM190.232 35.996C193.472 35.156 196.4 34.184 199.016 33.08C201.656 31.952 203.972 30.776 205.964 29.552C207.212 28.784 208.46 27.908 209.708 26.924C210.98 25.916 212.168 24.884 213.272 23.828C214.4 22.772 215.348 21.764 216.116 20.804L220.004 24.512C218.9 25.592 217.688 26.684 216.368 27.788C215.072 28.892 213.716 29.948 212.3 30.956C210.884 31.964 209.48 32.888 208.088 33.728C206.72 34.52 205.184 35.336 203.48 36.176C201.8 37.016 200.024 37.808 198.152 38.552C196.28 39.296 194.396 39.956 192.5 40.532L190.232 35.996ZM205.208 31.856L210.32 30.668V46.868C210.32 47.396 210.332 47.972 210.356 48.596C210.38 49.22 210.416 49.796 210.464 50.324C210.512 50.876 210.572 51.296 210.644 51.584H204.956C205.004 51.296 205.04 50.876 205.064 50.324C205.112 49.796 205.148 49.22 205.172 48.596C205.196 47.972 205.208 47.396 205.208 46.868V31.856ZM232.676 22.64C233.3 23.072 234.032 23.6 234.872 24.224C235.712 24.848 236.576 25.532 237.464 26.276C238.376 26.996 239.228 27.704 240.02 28.4C240.812 29.096 241.46 29.72 241.964 30.272L238.292 34.016C237.836 33.512 237.236 32.912 236.492 32.216C235.748 31.52 234.944 30.8 234.08 30.056C233.216 29.312 232.364 28.604 231.524 27.932C230.684 27.26 229.94 26.696 229.292 26.24L232.676 22.64ZM228.176 46.616C230.048 46.352 231.812 45.98 233.468 45.5C235.124 45.02 236.66 44.468 238.076 43.844C239.492 43.22 240.788 42.572 241.964 41.9C244.004 40.676 245.876 39.284 247.58 37.724C249.284 36.164 250.772 34.544 252.044 32.864C253.316 31.16 254.324 29.504 255.068 27.896L257.876 32.972C256.964 34.58 255.836 36.188 254.492 37.796C253.172 39.404 251.672 40.94 249.992 42.404C248.312 43.844 246.5 45.14 244.556 46.292C243.332 47.036 242.012 47.744 240.596 48.416C239.18 49.064 237.68 49.64 236.096 50.144C234.536 50.672 232.904 51.08 231.2 51.368L228.176 46.616ZM264.304 46.544C264.304 46.088 264.304 45.344 264.304 44.312C264.304 43.256 264.304 42.044 264.304 40.676C264.304 39.284 264.304 37.832 264.304 36.32C264.304 34.808 264.304 33.356 264.304 31.964C264.304 30.548 264.304 29.3 264.304 28.22C264.304 27.14 264.304 26.348 264.304 25.844C264.304 25.22 264.268 24.5 264.196 23.684C264.148 22.868 264.064 22.148 263.944 21.524H269.56C269.488 22.148 269.416 22.844 269.344 23.612C269.272 24.356 269.236 25.1 269.236 25.844C269.236 26.516 269.236 27.428 269.236 28.58C269.236 29.732 269.236 31.016 269.236 32.432C269.236 33.824 269.236 35.252 269.236 36.716C269.236 38.156 269.236 39.548 269.236 40.892C269.236 42.236 269.236 43.412 269.236 44.42C269.236 45.404 269.236 46.112 269.236 46.544C269.236 46.88 269.248 47.36 269.272 47.984C269.296 48.584 269.344 49.208 269.416 49.856C269.488 50.504 269.536 51.08 269.56 51.584H263.944C264.04 50.864 264.124 50.024 264.196 49.064C264.268 48.104 264.304 47.264 264.304 46.544ZM268.156 30.848C269.356 31.16 270.7 31.568 272.188 32.072C273.676 32.552 275.176 33.068 276.688 33.62C278.2 34.172 279.616 34.724 280.936 35.276C282.28 35.804 283.396 36.296 284.284 36.752L282.232 41.72C281.224 41.192 280.108 40.664 278.884 40.136C277.66 39.584 276.412 39.056 275.14 38.552C273.892 38.048 272.656 37.58 271.432 37.148C270.232 36.716 269.14 36.332 268.156 35.996V30.848Z" fill="#F53A3A"/>
</svg>
