<svg width="275" height="81" viewBox="0 0 275 81" fill="none" xmlns="http://www.w3.org/2000/svg">
<path d="M99.6953 46.609C99.6953 39.541 100.811 33.372 103.043 28.102C105.275 22.832 108.406 18.771 112.436 15.919C116.528 13.005 121.302 11.548 126.758 11.548C133.95 11.548 140.336 13.997 145.916 18.895L141.266 29.311C138.972 26.955 136.771 25.281 134.663 24.289C132.555 23.235 130.261 22.708 127.781 22.708C123.069 22.708 119.411 24.475 116.807 28.009C114.203 31.543 112.777 36.72 112.529 43.54C115.133 37.836 120.124 34.984 127.502 34.984C131.408 34.984 134.849 35.883 137.825 37.681C140.801 39.479 143.126 41.959 144.8 45.121C146.474 48.221 147.311 51.848 147.311 56.002C147.311 60.404 146.319 64.279 144.335 67.627C142.413 70.975 139.716 73.61 136.244 75.532C132.834 77.392 128.835 78.322 124.247 78.322C116.497 78.322 110.452 75.563 106.112 70.045C101.834 64.465 99.6953 56.653 99.6953 46.609ZM114.11 56.56C114.11 59.846 115.04 62.543 116.9 64.651C118.822 66.759 121.271 67.813 124.247 67.813C127.285 67.813 129.765 66.759 131.687 64.651C133.609 62.543 134.57 59.815 134.57 56.467C134.57 53.181 133.64 50.515 131.78 48.469C129.92 46.423 127.44 45.4 124.34 45.4C121.302 45.4 118.822 46.423 116.9 48.469C115.04 50.515 114.11 53.212 114.11 56.56ZM154.726 44.935C154.726 37.929 155.749 31.946 157.795 26.986C159.841 22.026 162.755 18.213 166.537 15.547C170.381 12.881 174.907 11.548 180.115 11.548C185.385 11.548 189.911 12.881 193.693 15.547C197.537 18.213 200.482 22.026 202.528 26.986C204.636 31.946 205.69 37.929 205.69 44.935C205.69 51.941 204.636 57.955 202.528 62.977C200.482 67.937 197.537 71.75 193.693 74.416C189.911 77.02 185.385 78.322 180.115 78.322C174.907 78.322 170.381 76.989 166.537 74.323C162.755 71.657 159.841 67.844 157.795 62.884C155.749 57.862 154.726 51.879 154.726 44.935ZM168.304 44.935C168.304 51.693 169.327 56.901 171.373 60.559C173.419 64.217 176.333 66.046 180.115 66.046C183.959 66.046 186.904 64.217 188.95 60.559C190.996 56.839 192.019 51.662 192.019 45.028C192.019 38.27 190.965 33.062 188.857 29.404C186.811 25.684 183.897 23.824 180.115 23.824C176.333 23.824 173.419 25.653 171.373 29.311C169.327 32.969 168.304 38.177 168.304 44.935Z" fill="#F53A3A"/>
<path d="M214.428 18.772H236.764V46.452H232.636V22.644H218.364V46.516H214.428V18.772ZM217.116 29.524H234.332V33.3H217.116V29.524ZM217.116 40.532H234.364V44.404H217.116V40.532ZM253.116 36.372H261.852V39.092H253.116V36.372ZM252.892 31.604H263.676V43.924H252.892V41.076H260.06V34.452H252.892V31.604ZM251.292 31.604H254.78V45.556H251.292V31.604ZM245.948 22.516H253.948V25.108H245.948V22.516ZM260.796 22.516H268.86V25.108H260.796V22.516ZM267.292 18.068H271.164V42.356C271.164 43.38 271.047 44.1907 270.812 44.788C270.577 45.3854 270.14 45.844 269.5 46.164C268.839 46.484 268.028 46.6867 267.068 46.772C266.129 46.8574 264.967 46.9 263.58 46.9C263.537 46.516 263.452 46.0894 263.324 45.62C263.196 45.1507 263.047 44.6707 262.876 44.18C262.705 43.7107 262.524 43.3054 262.332 42.964C262.908 43.0067 263.473 43.0387 264.028 43.06C264.604 43.06 265.116 43.06 265.564 43.06C266.033 43.0387 266.353 43.028 266.524 43.028C266.823 43.028 267.025 42.9747 267.132 42.868C267.239 42.7614 267.292 42.5694 267.292 42.292V18.068ZM246.236 18.068H256.38V29.684H246.236V26.932H252.764V20.852H246.236V18.068ZM269.34 18.068V20.852H262.172V26.996H269.34V29.748H258.524V18.068H269.34ZM244.028 18.068H247.836V46.9H244.028V18.068Z" fill="#F53A3A"/>
<path d="M218.02 50.82L221.796 51.94C221.22 53.1134 220.537 54.2654 219.748 55.396C218.959 56.5267 218.105 57.572 217.188 58.532C216.292 59.492 215.396 60.3347 214.5 61.06C214.287 60.804 213.988 60.516 213.604 60.196C213.22 59.876 212.825 59.5667 212.42 59.268C212.015 58.9694 211.663 58.724 211.364 58.532C212.729 57.636 214.009 56.5054 215.204 55.14C216.399 53.7747 217.337 52.3347 218.02 50.82ZM217.764 54.212H239.812V57.572H216.836L217.764 54.212ZM212.068 61.668H240.996V65.092H212.068V61.668ZM212.58 69.156H240.516V72.58H212.58V69.156ZM222.084 55.396H225.284V70.948H222.084V55.396ZM216.388 55.396H219.812V70.98H216.388V55.396ZM227.652 55.396H230.852V70.98H227.652V55.396ZM233.284 55.396H236.804V70.98H233.284V55.396ZM221.124 74.372L224.676 73.988C224.889 74.948 225.071 75.9934 225.22 77.124C225.391 78.2547 225.487 79.2147 225.508 80.004L221.732 80.548C221.732 80.036 221.7 79.428 221.636 78.724C221.593 78.02 221.529 77.284 221.444 76.516C221.359 75.748 221.252 75.0334 221.124 74.372ZM227.492 74.468L231.076 73.86C231.353 74.4787 231.62 75.1507 231.876 75.876C232.132 76.6014 232.356 77.3054 232.548 77.988C232.74 78.6707 232.879 79.2894 232.964 79.844L229.124 80.58C229.017 79.7907 228.804 78.82 228.484 77.668C228.185 76.516 227.855 75.4494 227.492 74.468ZM233.828 74.276L237.508 73.124C238.02 73.7854 238.532 74.5 239.044 75.268C239.556 76.036 240.047 76.804 240.516 77.572C240.985 78.3187 241.348 78.9907 241.604 79.588L237.668 80.9C237.433 80.324 237.103 79.652 236.676 78.884C236.271 78.116 235.812 77.3374 235.3 76.548C234.809 75.7374 234.319 74.98 233.828 74.276ZM215.364 73.252L219.076 74.18C218.713 75.396 218.212 76.612 217.572 77.828C216.932 79.044 216.217 80.0787 215.428 80.932L211.748 79.428C212.473 78.7454 213.167 77.8387 213.828 76.708C214.489 75.5774 215.001 74.4254 215.364 73.252ZM248.58 50.98H252.1V80.804H248.58V50.98ZM243.716 61.508H256.836V65.092H243.716V61.508ZM247.876 63.396L250.02 64.452C249.743 65.5187 249.423 66.6494 249.06 67.844C248.697 69.0174 248.292 70.1907 247.844 71.364C247.396 72.5374 246.927 73.6467 246.436 74.692C245.945 75.716 245.423 76.612 244.868 77.38C244.761 76.9747 244.601 76.5374 244.388 76.068C244.196 75.5774 243.983 75.0974 243.748 74.628C243.535 74.1587 243.332 73.7534 243.14 73.412C243.78 72.6227 244.399 71.652 244.996 70.5C245.615 69.3267 246.18 68.1214 246.692 66.884C247.204 65.6254 247.599 64.4627 247.876 63.396ZM252.068 65.252C252.239 65.4227 252.484 65.6894 252.804 66.052C253.145 66.4147 253.519 66.8307 253.924 67.3C254.329 67.748 254.713 68.2067 255.076 68.676C255.46 69.124 255.801 69.5294 256.1 69.892C256.42 70.2547 256.644 70.532 256.772 70.724L254.436 73.732C254.223 73.2627 253.945 72.7187 253.604 72.1C253.263 71.46 252.889 70.8094 252.484 70.148C252.079 69.4654 251.684 68.8254 251.3 68.228C250.916 67.6307 250.585 67.14 250.308 66.756L252.068 65.252ZM243.684 53.444L246.372 52.74C246.649 53.508 246.895 54.34 247.108 55.236C247.343 56.132 247.535 57.0067 247.684 57.86C247.833 58.7134 247.94 59.4814 248.004 60.164L245.124 60.932C245.103 60.2494 245.017 59.4814 244.868 58.628C244.74 57.7534 244.569 56.868 244.356 55.972C244.164 55.0547 243.94 54.212 243.684 53.444ZM254.212 52.58L257.444 53.284C257.188 54.1587 256.911 55.0547 256.612 55.972C256.313 56.8894 256.015 57.7747 255.716 58.628C255.417 59.46 255.14 60.196 254.884 60.836L252.452 60.132C252.687 59.4494 252.911 58.6707 253.124 57.796C253.359 56.9 253.572 55.9934 253.764 55.076C253.956 54.1587 254.105 53.3267 254.212 52.58ZM266.34 50.82H269.924V80.868H266.34V50.82ZM256.772 70.852L273.22 67.908L273.796 71.46L257.348 74.436L256.772 70.852ZM258.564 55.172L260.452 52.58C261.049 52.9214 261.668 53.316 262.308 53.764C262.969 54.212 263.588 54.6707 264.164 55.14C264.761 55.6094 265.231 56.0467 265.572 56.452L263.588 59.332C263.268 58.9054 262.82 58.4467 262.244 57.956C261.689 57.4654 261.092 56.9747 260.452 56.484C259.812 55.9934 259.183 55.556 258.564 55.172ZM257.124 63.236L258.916 60.484C259.556 60.804 260.217 61.188 260.9 61.636C261.583 62.0627 262.233 62.5 262.852 62.948C263.471 63.3747 263.972 63.7907 264.356 64.196L262.404 67.268C262.063 66.8627 261.593 66.4254 260.996 65.956C260.399 65.4654 259.759 64.9854 259.076 64.516C258.415 64.0254 257.764 63.5987 257.124 63.236Z" fill="#F53A3A"/>
<path d="M229 5.92C228.752 5.92 228.54 5.832 228.364 5.656C228.188 5.48 228.1 5.268 228.1 5.02C228.1 4.772 228.188 4.56 228.364 4.384C228.54 4.208 228.752 4.12 229 4.12C229.248 4.12 229.46 4.208 229.636 4.384C229.812 4.56 229.9 4.772 229.9 5.02C229.9 5.268 229.812 5.48 229.636 5.656C229.46 5.832 229.248 5.92 229 5.92ZM229 8.092L232.96 4.132L233.308 4.48L229.348 8.44L233.308 12.4L232.96 12.748L229 8.788L225.028 12.76L224.68 12.412L228.652 8.44L224.692 4.48L225.04 4.132L229 8.092ZM226.48 8.44C226.48 8.688 226.392 8.9 226.216 9.076C226.04 9.252 225.828 9.34 225.58 9.34C225.332 9.34 225.12 9.252 224.944 9.076C224.768 8.9 224.68 8.688 224.68 8.44C224.68 8.192 224.768 7.98 224.944 7.804C225.12 7.628 225.332 7.54 225.58 7.54C225.828 7.54 226.04 7.628 226.216 7.804C226.392 7.98 226.48 8.192 226.48 8.44ZM231.52 8.44C231.52 8.192 231.608 7.98 231.784 7.804C231.96 7.628 232.172 7.54 232.42 7.54C232.668 7.54 232.88 7.628 233.056 7.804C233.232 7.98 233.32 8.192 233.32 8.44C233.32 8.688 233.232 8.9 233.056 9.076C232.88 9.252 232.668 9.34 232.42 9.34C232.172 9.34 231.96 9.252 231.784 9.076C231.608 8.9 231.52 8.688 231.52 8.44ZM229 10.96C229.248 10.96 229.46 11.048 229.636 11.224C229.812 11.4 229.9 11.612 229.9 11.86C229.9 12.108 229.812 12.32 229.636 12.496C229.46 12.672 229.248 12.76 229 12.76C228.752 12.76 228.54 12.672 228.364 12.496C228.188 12.32 228.1 12.108 228.1 11.86C228.1 11.612 228.188 11.4 228.364 11.224C228.54 11.048 228.752 10.96 229 10.96ZM238.864 4.168H243.64V4.696H238.864V4.168ZM243.472 4.168H243.592L243.7 4.132L244.084 4.36C243.724 5.04 243.248 5.644 242.656 6.172C242.064 6.692 241.404 7.152 240.676 7.552C239.948 7.944 239.188 8.272 238.396 8.536C237.612 8.8 236.832 9.012 236.056 9.172C236.032 9.092 235.992 9 235.936 8.896C235.888 8.792 235.836 8.708 235.78 8.644C236.532 8.516 237.288 8.328 238.048 8.08C238.816 7.832 239.548 7.528 240.244 7.168C240.948 6.8 241.58 6.376 242.14 5.896C242.7 5.416 243.144 4.876 243.472 4.276V4.168ZM239.68 2.968L240.328 3.088C239.936 3.712 239.416 4.344 238.768 4.984C238.12 5.616 237.328 6.18 236.392 6.676C236.36 6.628 236.316 6.58 236.26 6.532C236.212 6.484 236.16 6.436 236.104 6.388C236.056 6.34 236.008 6.3 235.96 6.268C236.56 5.964 237.1 5.628 237.58 5.26C238.06 4.884 238.476 4.5 238.828 4.108C239.188 3.708 239.472 3.328 239.68 2.968ZM238.828 4.552C239.276 5.264 239.876 5.884 240.628 6.412C241.388 6.94 242.26 7.376 243.244 7.72C244.228 8.056 245.276 8.3 246.388 8.452C246.348 8.492 246.304 8.544 246.256 8.608C246.208 8.672 246.164 8.736 246.124 8.8C246.092 8.864 246.06 8.924 246.028 8.98C244.916 8.804 243.864 8.536 242.872 8.176C241.88 7.808 240.992 7.344 240.208 6.784C239.432 6.216 238.804 5.548 238.324 4.78L238.828 4.552ZM235.696 9.652H246.316V10.204H235.696V9.652ZM240.676 8.2H241.264V13.888H240.676V8.2ZM240.28 9.856L240.76 10.072C240.4 10.576 239.952 11.06 239.416 11.524C238.88 11.98 238.304 12.388 237.688 12.748C237.08 13.108 236.484 13.404 235.9 13.636C235.876 13.58 235.84 13.524 235.792 13.468C235.744 13.412 235.696 13.352 235.648 13.288C235.6 13.232 235.552 13.184 235.504 13.144C236.088 12.944 236.68 12.676 237.28 12.34C237.888 12.004 238.452 11.624 238.972 11.2C239.5 10.768 239.936 10.32 240.28 9.856ZM241.66 9.856C241.996 10.32 242.424 10.768 242.944 11.2C243.472 11.624 244.044 12 244.66 12.328C245.276 12.648 245.888 12.904 246.496 13.096C246.448 13.136 246.396 13.184 246.34 13.24C246.292 13.304 246.244 13.364 246.196 13.42C246.156 13.484 246.12 13.54 246.088 13.588C245.48 13.372 244.868 13.088 244.252 12.736C243.636 12.376 243.06 11.972 242.524 11.524C241.988 11.068 241.54 10.588 241.18 10.084L241.66 9.856ZM254.368 3.124H254.944V13.9H254.368V3.124ZM252.28 3.556L252.844 3.664C252.74 4.232 252.608 4.788 252.448 5.332C252.296 5.868 252.12 6.368 251.92 6.832C251.728 7.296 251.508 7.712 251.26 8.08C251.228 8.048 251.18 8.012 251.116 7.972C251.06 7.932 251 7.896 250.936 7.864C250.88 7.824 250.828 7.792 250.78 7.768C251.02 7.424 251.236 7.028 251.428 6.58C251.62 6.132 251.788 5.652 251.932 5.14C252.076 4.62 252.192 4.092 252.28 3.556ZM252.196 5.524H257.836V6.1H252.04L252.196 5.524ZM250.804 9.076H258.34V9.652H250.804V9.076ZM250.396 3.028L250.948 3.196C250.7 3.868 250.412 4.528 250.084 5.176C249.756 5.816 249.404 6.42 249.028 6.988C248.652 7.556 248.256 8.064 247.84 8.512C247.824 8.472 247.792 8.42 247.744 8.356C247.704 8.284 247.66 8.216 247.612 8.152C247.564 8.08 247.52 8.024 247.48 7.984C247.864 7.576 248.236 7.108 248.596 6.58C248.956 6.044 249.288 5.476 249.592 4.876C249.904 4.268 250.172 3.652 250.396 3.028ZM249.16 5.992L249.712 5.44L249.736 5.452V13.864H249.16V5.992ZM259.816 4.6H270.22V5.164H259.816V4.6ZM262.576 8.872H268.456V9.388H262.576V8.872ZM262.192 6.808H268.348V7.36H262.768V13.888H262.192V6.808ZM268.192 6.808H268.768V13.024C268.768 13.24 268.736 13.4 268.672 13.504C268.616 13.616 268.5 13.7 268.324 13.756C268.148 13.804 267.892 13.828 267.556 13.828C267.22 13.836 266.788 13.84 266.26 13.84C266.244 13.76 266.216 13.664 266.176 13.552C266.136 13.448 266.092 13.356 266.044 13.276C266.348 13.284 266.624 13.288 266.872 13.288C267.128 13.296 267.348 13.296 267.532 13.288C267.716 13.288 267.848 13.288 267.928 13.288C268.032 13.28 268.1 13.256 268.132 13.216C268.172 13.176 268.192 13.112 268.192 13.024V6.808ZM263.872 2.992L264.448 3.136C264.184 3.992 263.844 4.84 263.428 5.68C263.012 6.52 262.516 7.304 261.94 8.032C261.364 8.76 260.7 9.392 259.948 9.928C259.924 9.88 259.888 9.832 259.84 9.784C259.792 9.728 259.748 9.676 259.708 9.628C259.668 9.572 259.628 9.524 259.588 9.484C260.124 9.108 260.616 8.676 261.064 8.188C261.52 7.692 261.924 7.16 262.276 6.592C262.636 6.024 262.948 5.436 263.212 4.828C263.484 4.22 263.704 3.608 263.872 2.992ZM262.576 10.924H268.456V11.464H262.576V10.924Z" fill="white"/>
<path d="M22.144 36.39V42.054H20.992V37.51H18.672V36.39H22.144ZM22.144 41.558C22.528 42.1553 23.0613 42.598 23.744 42.886C24.4267 43.1633 25.2373 43.3233 26.176 43.366C26.624 43.3767 27.1627 43.3873 27.792 43.398C28.432 43.398 29.104 43.398 29.808 43.398C30.512 43.3873 31.1893 43.3713 31.84 43.35C32.5013 43.3287 33.0773 43.302 33.568 43.27C33.5253 43.3553 33.4773 43.4673 33.424 43.606C33.3707 43.7447 33.3173 43.8887 33.264 44.038C33.2213 44.1873 33.1893 44.326 33.168 44.454C32.72 44.4647 32.192 44.4753 31.584 44.486C30.9867 44.5073 30.352 44.518 29.68 44.518C29.0187 44.5287 28.3787 44.5287 27.76 44.518C27.152 44.5073 26.624 44.4967 26.176 44.486C25.1413 44.4433 24.2507 44.2727 23.504 43.974C22.7573 43.6753 22.1333 43.206 21.632 42.566C21.2267 42.918 20.8107 43.2647 20.384 43.606C19.9573 43.958 19.5147 44.31 19.056 44.662L18.464 43.478C18.8587 43.222 19.2907 42.9287 19.76 42.598C20.2293 42.2567 20.6773 41.91 21.104 41.558H22.144ZM18.928 31.174L19.776 30.438C20.1173 30.6727 20.464 30.9447 20.816 31.254C21.1787 31.5527 21.5093 31.8567 21.808 32.166C22.1067 32.4647 22.3413 32.7527 22.512 33.03L21.6 33.862C21.44 33.5847 21.2107 33.2913 20.912 32.982C20.624 32.662 20.3093 32.3473 19.968 32.038C19.6267 31.718 19.28 31.43 18.928 31.174ZM25.344 32.758L26.096 32.07C26.608 32.2513 27.1467 32.4647 27.712 32.71C28.288 32.9447 28.8373 33.1847 29.36 33.43C29.8933 33.6753 30.336 33.9047 30.688 34.118L29.888 34.886C29.5573 34.6727 29.1307 34.438 28.608 34.182C28.096 33.926 27.552 33.6753 26.976 33.43C26.4 33.174 25.856 32.95 25.344 32.758ZM23.808 34.086H32.08V35.014H24.944V42.374H23.808V34.086ZM31.52 34.086H32.672V41.174C32.672 41.4727 32.6347 41.702 32.56 41.862C32.4853 42.0113 32.3413 42.134 32.128 42.23C31.9147 42.3153 31.632 42.3687 31.28 42.39C30.9387 42.4007 30.496 42.406 29.952 42.406C29.9307 42.2567 29.888 42.0913 29.824 41.91C29.76 41.718 29.6907 41.558 29.616 41.43C30 41.4407 30.3413 41.446 30.64 41.446C30.9493 41.446 31.152 41.446 31.248 41.446C31.3547 41.4353 31.424 41.4087 31.456 41.366C31.4987 41.3233 31.52 41.2593 31.52 41.174V34.086ZM23.824 30.726H31.808V31.686H23.824V30.726ZM24.432 36.422H31.968V37.318H24.432V36.422ZM24.432 38.774H31.968V39.718H24.432V38.774ZM27.648 34.47H28.736V42.31H27.648V34.47ZM31.408 30.726H31.68L31.92 30.662L32.672 31.254C32.3093 31.5847 31.8987 31.9153 31.44 32.246C30.9813 32.566 30.5013 32.8647 30 33.142C29.4987 33.4193 29.0027 33.6593 28.512 33.862C28.4373 33.7553 28.336 33.6327 28.208 33.494C28.08 33.3553 27.968 33.2433 27.872 33.158C28.32 32.9767 28.768 32.7633 29.216 32.518C29.664 32.2727 30.08 32.0167 30.464 31.75C30.848 31.4727 31.1627 31.206 31.408 30.95V30.726ZM41.584 37.862H42.816V44.79H41.584V37.862ZM39.008 35.654V37.222H45.072V35.654H39.008ZM37.856 34.742H46.288V38.134H37.856V34.742ZM36.432 39.462H47.136V40.55H37.632V44.07H36.432V39.462ZM46.544 39.462H47.76V42.822C47.76 43.1313 47.7173 43.3713 47.632 43.542C47.5573 43.7233 47.392 43.862 47.136 43.958C46.88 44.0433 46.544 44.0913 46.128 44.102C45.712 44.1233 45.1947 44.134 44.576 44.134C44.544 43.974 44.4853 43.7927 44.4 43.59C44.3253 43.3873 44.2453 43.206 44.16 43.046C44.48 43.0567 44.7787 43.0673 45.056 43.078C45.344 43.078 45.5893 43.078 45.792 43.078C45.9947 43.078 46.1387 43.078 46.224 43.078C46.352 43.0567 46.4373 43.03 46.48 42.998C46.5227 42.966 46.544 42.902 46.544 42.806V39.462ZM41.488 30.054H42.704V32.982H41.488V30.054ZM35.376 32.55H48.736V35.99H47.552V33.606H36.528V35.99H35.376V32.55ZM36.688 30.662L37.776 30.214C38.032 30.502 38.2827 30.822 38.528 31.174C38.784 31.526 38.9813 31.83 39.12 32.086L37.984 32.63C37.8667 32.3527 37.68 32.0273 37.424 31.654C37.1787 31.2807 36.9333 30.95 36.688 30.662ZM46.208 30.198L47.456 30.63C47.1893 30.9713 46.912 31.318 46.624 31.67C46.336 32.0113 46.0747 32.3047 45.84 32.55L44.848 32.15C45.008 31.9793 45.168 31.7767 45.328 31.542C45.4987 31.3073 45.6587 31.0727 45.808 30.838C45.968 30.5927 46.1013 30.3793 46.208 30.198Z" fill="white"/>
<path d="M7.91625 66.77C7.15625 66.77 6.48292 66.6767 5.89625 66.49C5.32292 66.3033 4.81625 66.0567 4.37625 65.75C3.93625 65.4433 3.55625 65.11 3.23625 64.75L4.17625 63.57C4.60292 64.01 5.10292 64.4033 5.67625 64.75C6.26292 65.0833 6.96958 65.25 7.79625 65.25C8.38292 65.25 8.89625 65.1433 9.33625 64.93C9.78958 64.7033 10.1429 64.39 10.3963 63.99C10.6496 63.5767 10.7763 63.09 10.7763 62.53C10.7763 61.9433 10.6296 61.43 10.3363 60.99C10.0563 60.55 9.58292 60.21 8.91625 59.97C8.24958 59.7167 7.34958 59.59 6.21625 59.59V58.19C7.22958 58.19 8.02958 58.07 8.61625 57.83C9.20292 57.5767 9.62292 57.2367 9.87625 56.81C10.1429 56.3833 10.2763 55.91 10.2763 55.39C10.2763 54.6833 10.0563 54.1233 9.61625 53.71C9.17625 53.2833 8.56958 53.07 7.79625 53.07C7.20958 53.07 6.65625 53.2033 6.13625 53.47C5.62958 53.7367 5.16958 54.0767 4.75625 54.49L3.77625 53.33C4.33625 52.8233 4.94292 52.41 5.59625 52.09C6.26292 51.7567 7.01625 51.59 7.85625 51.59C8.68292 51.59 9.41625 51.7367 10.0563 52.03C10.7096 52.31 11.2163 52.7233 11.5763 53.27C11.9496 53.8167 12.1363 54.4767 12.1363 55.25C12.1363 56.1433 11.8963 56.8833 11.4163 57.47C10.9363 58.0567 10.3096 58.49 9.53625 58.77V58.87C10.1096 59.0033 10.6296 59.2367 11.0963 59.57C11.5629 59.9033 11.9363 60.3233 12.2163 60.83C12.4963 61.3367 12.6363 61.9233 12.6363 62.59C12.6363 63.4567 12.4229 64.2033 11.9963 64.83C11.5696 65.4567 11.0029 65.9367 10.2963 66.27C9.58958 66.6033 8.79625 66.77 7.91625 66.77ZM19.31 66.77C18.39 66.77 17.5833 66.49 16.89 65.93C16.21 65.37 15.6833 64.5233 15.31 63.39C14.9367 62.2567 14.75 60.8367 14.75 59.13C14.75 57.4233 14.9367 56.0167 15.31 54.91C15.6833 53.79 16.21 52.9567 16.89 52.41C17.5833 51.8633 18.39 51.59 19.31 51.59C20.2433 51.59 21.05 51.87 21.73 52.43C22.41 52.9767 22.9367 53.8033 23.31 54.91C23.6833 56.0167 23.87 57.4233 23.87 59.13C23.87 60.8367 23.6833 62.2567 23.31 63.39C22.9367 64.5233 22.41 65.37 21.73 65.93C21.05 66.49 20.2433 66.77 19.31 66.77ZM19.31 65.29C19.87 65.29 20.3567 65.0767 20.77 64.65C21.1967 64.2233 21.5233 63.5567 21.75 62.65C21.99 61.73 22.11 60.5567 22.11 59.13C22.11 57.7033 21.99 56.5433 21.75 55.65C21.5233 54.7433 21.1967 54.0833 20.77 53.67C20.3567 53.2433 19.87 53.03 19.31 53.03C18.7633 53.03 18.2767 53.2433 17.85 53.67C17.4233 54.0833 17.09 54.7433 16.85 55.65C16.6233 56.5433 16.51 57.7033 16.51 59.13C16.51 60.5567 16.6233 61.73 16.85 62.65C17.09 63.5567 17.4233 64.2233 17.85 64.65C18.2767 65.0767 18.7633 65.29 19.31 65.29ZM28.3638 51.07H41.4838V67.79H39.8838V52.57H29.9038V67.89H28.3638V51.07ZM29.4038 57.99H40.5638V59.47H29.4038V57.99ZM29.3638 65.09H40.5838V66.59H29.3638V65.09ZM51.8038 61.97H57.8638V63.13H51.8038V61.97ZM51.7238 58.95H58.5438V66.25H51.7238V65.07H57.1438V60.13H51.7238V58.95ZM51.0838 58.95H52.4438V67.27H51.0838V58.95ZM47.3838 53.41H52.9438V54.51H47.3838V53.41ZM56.6037 53.41H62.2838V54.51H56.6037V53.41ZM61.6438 50.57H63.1638V66.13C63.1638 66.5967 63.0971 66.9633 62.9638 67.23C62.8438 67.4967 62.6171 67.6967 62.2838 67.83C61.9638 67.9633 61.5238 68.0433 60.9638 68.07C60.4171 68.0967 59.7304 68.11 58.9038 68.11C58.8771 67.9633 58.8371 67.7967 58.7838 67.61C58.7304 67.4233 58.6638 67.2367 58.5838 67.05C58.5171 66.8633 58.4504 66.7033 58.3838 66.57C58.7838 66.5833 59.1704 66.59 59.5438 66.59C59.9304 66.59 60.2704 66.59 60.5638 66.59C60.8571 66.59 61.0638 66.59 61.1838 66.59C61.3571 66.5767 61.4771 66.5367 61.5438 66.47C61.6104 66.4033 61.6438 66.2833 61.6438 66.11V50.57ZM47.5038 50.57H53.9038V57.43H47.5038V56.29H52.5038V51.73H47.5038V50.57ZM62.4038 50.57V51.73H57.1438V56.31H62.4038V57.47H55.7238V50.57H62.4038ZM46.6438 50.57H48.1438V68.13H46.6438V50.57Z" fill="white"/>
<path d="M0.25 59.51H67.75" stroke="white"/>
<path d="M88.5 49.01L75.5 58.51L75.5 39.51L88.5 49.01Z" fill="white"/>
</svg>
