<svg width="41" height="40" viewBox="0 0 41 40" fill="none" xmlns="http://www.w3.org/2000/svg">
<path fill-rule="evenodd" clip-rule="evenodd" d="M13.2081 9.08696C15.3665 7.64477 17.9041 6.875 20.5 6.875C23.981 6.875 27.3194 8.25781 29.7808 10.7192C32.2422 13.1806 33.625 16.519 33.625 20C33.625 22.5959 32.8552 25.1335 31.413 27.2919C29.9709 29.4503 27.921 31.1325 25.5227 32.1259C23.1244 33.1193 20.4854 33.3792 17.9394 32.8728C15.3934 32.3664 13.0548 31.1163 11.2192 29.2808C9.38367 27.4452 8.13363 25.1066 7.6272 22.5606C7.12077 20.0146 7.38069 17.3756 8.37409 14.9773C9.36749 12.579 11.0498 10.5292 13.2081 9.08696ZM14.2498 29.354C16.0999 30.5902 18.275 31.25 20.5 31.25C23.4837 31.25 26.3452 30.0647 28.455 27.955C30.5647 25.8452 31.75 22.9837 31.75 20C31.75 17.775 31.0902 15.5999 29.854 13.7498C28.6179 11.8998 26.8609 10.4578 24.8052 9.60635C22.7495 8.75487 20.4875 8.53208 18.3052 8.96617C16.123 9.40025 14.1184 10.4717 12.5451 12.045C10.9717 13.6184 9.90026 15.6229 9.46617 17.8052C9.03209 19.9875 9.25488 22.2495 10.1064 24.3052C10.9578 26.3609 12.3998 28.1179 14.2498 29.354ZM18.9625 21.4438V22.0907L22.0187 22.1188V21.575C22.0165 21.2466 22.1005 20.9233 22.2625 20.6375C22.5477 20.2387 22.9036 19.8956 23.3125 19.625C23.8946 19.2284 24.3971 18.7259 24.7937 18.1438C25.1506 17.585 25.3303 16.9315 25.3093 16.2688C25.3242 15.5709 25.1282 14.8847 24.7469 14.3C24.3427 13.7291 23.7966 13.2735 23.1625 12.9782C22.4296 12.6473 21.6321 12.4839 20.8281 12.5C19.8907 12.4769 18.9606 12.6693 18.1094 13.0625C17.384 13.4277 16.7299 13.9198 16.1781 14.5157L17.6031 16.8125C17.9439 16.35 18.3627 15.9502 18.8406 15.6313C19.3312 15.3036 19.9101 15.1335 20.5 15.1438C20.9362 15.1019 21.3741 15.204 21.7469 15.4344C21.8947 15.5408 22.0139 15.682 22.0941 15.8456C22.1742 16.0091 22.2127 16.1899 22.2062 16.3719C22.2164 16.7066 22.1177 17.0356 21.925 17.3094C21.6131 17.6956 21.2431 18.0309 20.8281 18.3032C20.2258 18.6869 19.7192 19.2032 19.3469 19.8125C19.088 20.317 18.9561 20.8769 18.9625 21.4438ZM19.7244 27.3606C19.9709 27.4589 20.2347 27.5063 20.5 27.5C20.7682 27.5072 21.0351 27.4603 21.2848 27.362C21.5344 27.2638 21.7617 27.1162 21.9531 26.9282C22.1475 26.748 22.3015 26.5287 22.4049 26.2847C22.5083 26.0407 22.5588 25.7775 22.5531 25.5125C22.5602 25.246 22.5103 24.981 22.4068 24.7353C22.3034 24.4896 22.1487 24.2688 21.9531 24.0875C21.5635 23.7121 21.041 23.5064 20.5 23.5157C20.235 23.512 19.972 23.5607 19.7259 23.6588C19.4797 23.7569 19.2554 23.9026 19.0656 24.0875C18.87 24.2688 18.7153 24.4896 18.6119 24.7353C18.5084 24.981 18.4585 25.246 18.4656 25.5125C18.4599 25.7775 18.5104 26.0407 18.6138 26.2847C18.7172 26.5287 18.8712 26.748 19.0656 26.9282C19.2538 27.1152 19.4779 27.2623 19.7244 27.3606Z" fill="#F56611"/>
</svg>
