<svg width="48" height="49" viewBox="0 0 48 49" fill="none" xmlns="http://www.w3.org/2000/svg">
<path d="M41.6391 18.657H41.6495L41.6395 18.637C41.6395 18.6437 41.6394 18.6504 41.6391 18.657Z" fill="#F53A3A"/>
<path fill-rule="evenodd" clip-rule="evenodd" d="M27.9795 9.63698C27.5595 9.31698 26.9495 9.06698 26.2395 8.91698C25.4095 8.74698 24.5195 8.65698 23.6195 8.66698H19.3995V14.867H22.0395V12.867H23.6195C24.5195 12.877 25.4095 12.787 26.2395 12.617C26.9495 12.467 27.5495 12.217 27.9795 11.897C28.3995 11.557 28.6195 11.167 28.5895 10.767C28.6195 10.367 28.3995 9.96698 27.9795 9.62698V9.63698ZM25.7295 11.187C25.6095 11.317 25.4295 11.427 25.2095 11.507C24.6895 11.667 24.0795 11.747 23.4595 11.737H22.0495V9.81698H23.4595C24.0795 9.80698 24.6895 9.88698 25.2095 10.047C25.4395 10.127 25.6195 10.247 25.7295 10.367C25.8495 10.497 25.8895 10.637 25.8695 10.777C25.8895 10.917 25.8495 11.057 25.7295 11.187Z" fill="#F53A3A"/>
<path fill-rule="evenodd" clip-rule="evenodd" d="M5.06516 37.957C5.46529 42.8109 13.4954 46.687 23.3495 46.687C33.4595 46.687 41.2095 42.807 41.6095 37.957H41.6195V37.807C41.6195 37.767 41.6245 37.7295 41.6295 37.692C41.6345 37.6545 41.6395 37.617 41.6395 37.577H41.6195V31.767C41.6195 31.727 41.6245 31.6895 41.6295 31.652C41.6345 31.6145 41.6395 31.577 41.6395 31.537H41.6195V25.647C41.6195 25.607 41.6245 25.5695 41.6295 25.532C41.6345 25.4945 41.6395 25.457 41.6395 25.417H41.6195V18.867C41.6195 18.827 41.6245 18.7895 41.6295 18.752C41.6337 18.7208 41.6378 18.6896 41.6391 18.657H41.6295V11.997C41.6295 11.957 41.6345 11.9195 41.6395 11.882C41.6445 11.8445 41.6495 11.807 41.6495 11.767C41.6495 6.73698 33.4595 2.65698 23.3495 2.65698C13.2395 2.65698 5.04953 6.74698 5.04953 11.777L5.01953 11.777V37.957H5.06516ZM8.01953 37.577H8.04953C8.04953 40.067 14.1995 43.687 23.3495 43.687C32.4995 43.687 38.3895 40.217 38.6295 37.737V36.557C35.3495 39.027 29.7395 40.657 23.3495 40.657C16.9307 40.657 11.2858 39.0123 8.01953 36.5241V37.577ZM8.01953 31.547H8.04953C8.04953 34.037 14.1995 37.657 23.3495 37.657C32.4995 37.657 38.3895 34.187 38.6295 31.707V30.437C35.3495 32.907 29.7395 34.537 23.3495 34.537C16.9307 34.537 11.2858 32.8923 8.01953 30.4041V31.547ZM8.01953 25.427H8.04953C8.04953 27.917 14.1995 31.537 23.3495 31.537C32.4995 31.537 38.3895 28.067 38.6295 25.587V23.667C35.3495 26.137 29.7395 27.767 23.3495 27.767C16.9307 27.767 11.2858 26.1223 8.01953 23.6341V25.427ZM8.01953 18.657H8.04953C8.04953 21.147 14.1995 24.767 23.3495 24.767C32.4995 24.767 38.3895 21.297 38.6295 18.817V16.787C35.3495 19.257 29.7395 20.887 23.3495 20.887C16.9307 20.887 11.2858 19.2423 8.01953 16.7541V18.657ZM8.04953 11.777C8.04953 14.267 14.0095 17.887 23.3495 17.887C32.4995 17.887 38.3895 14.417 38.6295 11.937V11.777H38.6495C38.6495 9.28698 32.6895 5.66698 23.3495 5.66698C14.0095 5.66698 8.04953 9.28698 8.04953 11.777Z" fill="#F53A3A"/>
</svg>
