<svg width="20" height="20" viewBox="0 0 20 20" fill="none" xmlns="http://www.w3.org/2000/svg">
<path fill-rule="evenodd" clip-rule="evenodd" d="M13.4622 13.8059C12.0816 15.1178 10.6866 16.1278 9.89287 16.6659C9.111 16.1109 7.73787 15.0709 6.38599 13.7303C4.59724 11.9565 2.47162 9.27527 2.50037 6.57777C2.52099 4.65339 4.09037 3.10464 5.99912 3.12527C7.22162 3.13839 8.32287 3.78464 8.94537 4.85464L9.99974 6.66652L11.0922 4.87777C11.7379 3.82152 12.8529 3.19839 14.0747 3.21152C15.9835 3.23214 17.5197 4.81402 17.4997 6.73777C17.4704 9.43589 15.2879 12.0709 13.4622 13.8059ZM14.0885 1.96152C12.3716 1.94339 10.8641 2.85464 10.026 4.22589C9.21725 2.83652 7.72912 1.89339 6.01224 1.87527C3.41037 1.84777 1.27849 3.94714 1.25037 6.56464C1.18474 12.6578 9.87724 18.1678 9.87724 18.1678C9.87724 18.1678 18.6841 12.8446 18.7491 6.75089C18.7772 4.13339 16.6904 1.98964 14.0885 1.96152Z" fill="#686868"/>
</svg>
