<svg width="48" height="48" viewBox="0 0 48 48" fill="none" xmlns="http://www.w3.org/2000/svg">
<path fill-rule="evenodd" clip-rule="evenodd" d="M30 34.5H42V23.4075L40.395 21H7.605L6 23.4075V34.5H18V28.5H30V34.5ZM27 34.5H21V31.5H27V34.5ZM36.4965 7.5H11.5035L9.594 18H38.406L36.4965 7.5ZM42.891 19.3365L44.496 21.744C44.8245 22.2375 45 22.8165 45 23.4075V34.5C45 36.156 43.656 37.5 42 37.5V40.5C42 42.156 40.656 43.5 39 43.5H37.5C35.844 43.5 34.5 42.156 34.5 40.5V37.5H13.5V40.5C13.5 42.156 12.156 43.5 10.5 43.5H9C7.344 43.5 6 42.156 6 40.5V37.5C4.344 37.5 3 36.156 3 34.5V23.4075C3 22.8165 3.1755 22.2375 3.504 21.744L5.109 19.3365C5.4525 18.822 5.946 18.456 6.5025 18.234L8.5515 6.963C8.811 5.5365 10.0545 4.5 11.5035 4.5H36.4965C37.9455 4.5 39.189 5.5365 39.4485 6.963L41.4975 18.234C42.054 18.456 42.5475 18.822 42.891 19.3365ZM11.25 25.5C10.008 25.5 9 26.508 9 27.75C9 28.992 10.008 30 11.25 30C12.492 30 13.5 28.992 13.5 27.75C13.5 26.508 12.492 25.5 11.25 25.5ZM36.75 25.5C35.508 25.5 34.5 26.508 34.5 27.75C34.5 28.992 35.508 30 36.75 30C37.992 30 39 28.992 39 27.75C39 26.508 37.992 25.5 36.75 25.5Z" fill="#F53A3A"/>
</svg>
