<svg width="43" height="42" viewBox="0 0 43 42" fill="none" xmlns="http://www.w3.org/2000/svg">
<g clip-path="url(#clip0_2745_1531)">
<rect width="40" height="40" rx="20" transform="matrix(-1 0 0 1 41.5 1)" fill="#F53A3A"/>
<path fill-rule="evenodd" clip-rule="evenodd" d="M1.5 21C1.5 9.95431 10.4543 1 21.5 0.999999C32.5457 0.999999 41.5 9.9543 41.5 21C41.5 32.0457 32.5457 41 21.5 41C10.4543 41 1.5 32.0457 1.5 21ZM19 12.0877L19.981 11L29 21L19.981 31L19 29.9123L27.038 21L19 12.0877Z" fill="#020717"/>
</g>
<rect x="0.5" y="-0.5" width="41" height="41" rx="20.5" transform="matrix(-1 0 0 1 42.5 1)" stroke="#D1D1D1"/>
<defs>
<clipPath id="clip0_2745_1531">
<rect width="40" height="40" rx="20" transform="matrix(-1 0 0 1 41.5 1)" fill="white"/>
</clipPath>
</defs>
</svg>
