<svg width="78" height="40" viewBox="0 0 78 40" fill="none" xmlns="http://www.w3.org/2000/svg">
<path d="M2.17149 28.6911C2.84009 27.7997 3.84298 27.354 5.01302 27.354C6.2945 27.354 7.2974 28.1339 7.79884 29.4153C8.63459 28.0225 9.80463 27.354 11.2533 27.354C13.4819 27.354 14.8748 29.1924 14.8748 32.0337V39.666H13.1476V31.978C13.1476 30.0838 12.3119 28.9139 10.9747 28.9139C9.58177 28.9139 8.52315 30.2509 8.52315 31.978V39.6103H6.79595V31.978C6.79595 30.1395 5.9602 28.9139 4.62301 28.9139C3.34153 28.9139 2.17149 30.3624 2.17149 31.978V39.6103H0.5V27.6326H1.94863L2.17149 28.6911Z" fill="white"/>
<path d="M24.0677 38.4401C23.2319 39.3872 22.0619 39.9443 20.7804 39.9443C18.2174 39.9443 16.4902 37.9944 16.4902 35.0975V27.6323H18.2174V35.0975C18.2174 37.0474 19.3318 38.273 21.059 38.273C22.6748 38.273 24.1234 36.7688 24.1234 35.1532V27.6323H25.8506V39.6657H24.3462L24.0677 38.4401Z" fill="white"/>
<path d="M33.5944 30.1391C32.9816 29.4148 32.0902 28.9692 31.1988 28.9692C30.0289 28.9692 29.1933 29.6377 29.1933 30.6405C29.1933 31.2533 29.4161 31.699 29.8618 32.0332C30.0846 32.2004 30.0846 32.2004 32.0902 33.036C34.43 34.0388 35.3214 35.0973 35.3214 36.6572C35.3214 38.6628 33.7058 39.9441 31.1988 39.9441C29.3604 39.9441 27.9676 39.2756 26.9648 37.9942L28.1905 36.88C29.1375 37.8828 30.0289 38.3285 31.2545 38.3285C32.6473 38.3285 33.5387 37.7157 33.5387 36.6572C33.5387 36.1001 33.2044 35.4873 32.5359 34.9859C32.0902 34.6516 31.5888 34.3731 30.0289 33.7602C28.1348 32.9803 27.3548 32.0332 27.3548 30.4733C27.3548 28.5235 28.859 27.2979 31.1431 27.2979C32.6473 27.2979 33.7615 27.7435 34.82 28.802L33.5944 30.1391Z" fill="white"/>
<path d="M36.4932 26.1281V24.1226H38.4987V26.1281H36.4932ZM36.6603 39.6657V27.6323H38.3873V39.6657H36.6603Z" fill="white"/>
<path d="M47.6354 30.4737C47.0782 29.5267 46.0754 28.9696 44.961 28.9696C42.9552 28.9696 41.4509 30.9751 41.4509 33.6492C41.4509 36.379 42.9552 38.3846 44.961 38.3846C46.0754 38.3846 47.0782 37.7718 47.6911 36.769L49.0283 37.9946C48.1369 39.276 46.6325 40.0002 44.961 40.0002C41.7852 40.0002 39.668 37.4375 39.668 33.7049C39.668 29.9723 41.8409 27.4097 44.961 27.4097C46.6882 27.4097 48.1369 28.1339 49.0283 29.4152L47.6354 30.4737Z" fill="white"/>
<path d="M62.5125 19.2202H15.8779L19.6109 22.8971L62.5125 19.2202Z" fill="white"/>
<path d="M20.2238 4.17801V4.73511C19.3323 4.17801 18.608 3.84375 17.4937 3.84375C14.2064 3.84375 11.7549 6.7964 11.7549 10.4733C11.7549 14.1502 14.2621 17.1028 17.4937 17.1028C18.5523 17.1028 19.3323 16.7685 20.2238 16.2114V16.7685H23.0653V4.17801H20.2238ZM17.4937 14.0944C15.8779 14.0944 14.7078 12.5346 14.7078 10.529C14.7078 8.52342 15.8779 6.96353 17.4937 6.96353C19.1094 6.96353 20.2238 8.52342 20.2238 10.529C20.2795 12.5346 19.1094 14.0944 17.4937 14.0944Z" fill="white"/>
<path d="M43.1789 4.17822V11.5877C43.1789 12.9805 42.2318 14.1504 40.8388 14.1504C39.4459 14.1504 38.4988 12.9805 38.4988 11.5877V4.17822H35.6572V11.5877C35.6572 14.6518 37.7187 17.103 40.7831 17.103C42.176 17.103 43.2346 16.3231 43.2346 16.3231V16.7688H46.1319V4.17822H43.1789Z" fill="white"/>
<path d="M69.9226 16.8247V9.41522C69.9226 8.02246 70.8698 6.85255 72.2627 6.85255C73.6556 6.85255 74.6028 8.02246 74.6028 9.41522V16.8247H77.5001V9.41522C77.5001 6.35116 75.4386 3.8999 72.3742 3.8999C70.9813 3.8999 69.9226 4.67985 69.9226 4.67985V4.17845H67.0254V16.8247H69.9226Z" fill="white"/>
<path d="M3.50868 16.7689V11.9221H5.6259L9.30318 16.8247H13.0362L8.57887 10.9194C9.97178 9.91658 10.8632 8.30098 10.8632 6.46254C10.8632 3.45418 8.41172 1.00293 5.40304 1.00293H0.5V16.7689H3.50868ZM3.50868 4.067H5.45876C6.79595 4.067 7.91027 5.1812 7.91027 6.51825C7.91027 7.8553 6.79595 8.9695 5.45876 8.9695H3.50868V4.067Z" fill="white"/>
<path d="M53.82 13.872C53.5414 14.0391 53.2629 14.2063 52.8729 14.2063C52.4272 14.2063 51.5359 13.872 51.5359 12.6464V7.24248H53.9871V4.17842H51.5359V1.00293H48.6389V4.17842H47.1348V7.18677H48.6389V12.6464C48.6389 15.4876 50.7559 17.1589 52.9286 17.1589C53.7086 17.1589 54.8228 16.8804 55.7142 16.379L53.82 13.872Z" fill="white"/>
<path d="M30.1965 10.1393L35.1553 4.17827H31.1437L27.6893 8.57939V0H24.7363V16.8245H27.6893V11.6435L31.9237 16.8245H35.9353L30.1965 10.1393Z" fill="white"/>
<path d="M60.4506 3.8999C57.1077 3.8999 54.7676 6.79684 54.7676 10.5294C54.7676 14.4291 57.7763 17.159 60.7292 17.159C62.2336 17.159 64.1836 16.6576 65.7994 14.3177L63.2922 12.8693C61.3421 15.7662 58.0548 14.3177 57.6648 11.4208H65.9108C66.6352 6.85255 63.6822 3.8999 60.4506 3.8999ZM62.9579 8.85812H57.7763C58.3891 5.90547 62.4007 5.73834 62.9579 8.85812Z" fill="white"/>
</svg>
