<?xml version="1.0" encoding="utf-8"?>
<!-- Generator: Adobe Illustrator 20.1.0, SVG Export Plug-In . SVG Version: 6.00 Build 0)  -->
<svg version="1.1" id="レイヤー_1" xmlns="http://www.w3.org/2000/svg" xmlns:xlink="http://www.w3.org/1999/xlink" x="0px"
	 y="0px" viewBox="0 0 1200 3000" style="enable-background:new 0 0 1200 3000;" xml:space="preserve">
<style type="text/css">
	.st0{clip-path:url(#SVGID_2_);}
	.st1{fill:none;stroke:#FFFFFF;stroke-miterlimit:10;}
	.st2{fill:#FFFFFF;}
</style>
<g>
	<g>
		<defs>
			<polygon id="SVGID_1_" points="653.8,1413.4 689.2,1448.8 629.1,1508.9 648.5,1528.3 555.6,1528.3 555.6,1454.1 574.3,1454.1 
				584.3,1464.1 635.1,1413.4 			"/>
		</defs>
		<clipPath id="SVGID_2_">
			<use xlink:href="#SVGID_1_"  style="overflow:visible;"/>
		</clipPath>
		<g class="st0">
			<line class="st1" x1="689.2" y1="1448.8" x2="555.5" y2="1448.8"/>
			<line class="st1" x1="689.2" y1="1453.6" x2="555.5" y2="1453.6"/>
			<line class="st1" x1="689.2" y1="1458.5" x2="602.5" y2="1458.5"/>
			<line class="st1" x1="689.2" y1="1463.4" x2="618.4" y2="1463.4"/>
			<line class="st1" x1="579.4" y1="1460.5" x2="556.1" y2="1460.5"/>
			<line class="st1" x1="584.5" y1="1465.9" x2="561.2" y2="1465.9"/>
			<line class="st1" x1="589" y1="1471" x2="565.7" y2="1471"/>
			<line class="st1" x1="689.2" y1="1468.4" x2="614.8" y2="1468.4"/>
			<line class="st1" x1="689.2" y1="1473.3" x2="595" y2="1473.3"/>
			<line class="st1" x1="689.2" y1="1478.2" x2="555.5" y2="1478.2"/>
			<line class="st1" x1="689.2" y1="1483.2" x2="555.5" y2="1483.2"/>
			<line class="st1" x1="689.2" y1="1488.1" x2="555.5" y2="1488.1"/>
			<line class="st1" x1="689.2" y1="1493" x2="555.5" y2="1493"/>
			<line class="st1" x1="689.2" y1="1498" x2="555.5" y2="1498"/>
			<line class="st1" x1="689.2" y1="1502.9" x2="555.5" y2="1502.9"/>
			<line class="st1" x1="689.2" y1="1507.8" x2="555.5" y2="1507.8"/>
			<line class="st1" x1="689.2" y1="1512.8" x2="555.5" y2="1512.8"/>
			<line class="st1" x1="689.2" y1="1517.7" x2="555.5" y2="1517.7"/>
			<line class="st1" x1="689.2" y1="1522.6" x2="555.5" y2="1522.6"/>
			<line class="st1" x1="689.2" y1="1444" x2="555.5" y2="1444"/>
			<line class="st1" x1="689.2" y1="1439.2" x2="555.5" y2="1439.2"/>
			<line class="st1" x1="689.2" y1="1434.4" x2="555.5" y2="1434.4"/>
			<line class="st1" x1="689.2" y1="1429.6" x2="555.5" y2="1429.6"/>
			<line class="st1" x1="689.2" y1="1424.8" x2="555.5" y2="1424.8"/>
			<line class="st1" x1="689.2" y1="1420" x2="555.5" y2="1420"/>
		</g>
	</g>
	<g>
		<path class="st2" d="M653,1415.4l33.4,33.4l-58.7,58.7l-1.4,1.4l1.4,1.4l16,16h-86.1v-70.2h15.9l9.5,9.5l1.4,1.4l1.4-1.4
			l50.2-50.2H653 M653.8,1413.4h-18.7l-50.8,50.8l-10.1-10.1h-18.7v74.2h92.9l-19.4-19.4l60.1-60.1L653.8,1413.4L653.8,1413.4z"/>
	</g>
	<g>
		<polygon class="st2" points="556.6,1527.3 556.6,1456.5 575,1474.9 635.1,1414.8 669.1,1448.8 609,1508.9 627.4,1527.3 		"/>
		<path class="st2" d="M635.1,1416.2l32.6,32.6l-58.7,58.7l-1.4,1.4l1.4,1.4l16,16h-67.4v-67.4l16,16l1.4,1.4l1.4-1.4L635.1,1416.2
			 M635.1,1413.4l-60.1,60.1l-19.4-19.4v74.2h74.2l-19.4-19.4l60.1-60.1L635.1,1413.4L635.1,1413.4z"/>
	</g>
</g>
</svg>
