<svg width="267" height="235" viewBox="0 0 267 235" fill="none" xmlns="http://www.w3.org/2000/svg">
<path d="M55.3366 6.102C55.2993 5.92467 55.2573 5.75667 55.2106 5.598C55.1733 5.43933 55.1266 5.29 55.0706 5.15L56.3306 4.926C56.34 5.05667 56.3586 5.21533 56.3866 5.402C56.4146 5.57933 56.438 5.74267 56.4566 5.892C56.4753 5.98533 56.5173 6.20467 56.5826 6.55C56.648 6.886 56.7273 7.31067 56.8206 7.824C56.9233 8.33733 57.0353 8.89267 57.1566 9.49C57.278 10.0873 57.3993 10.6893 57.5206 11.296C57.642 11.9027 57.754 12.472 57.8566 13.004C57.9593 13.536 58.048 13.9887 58.1226 14.362C58.2066 14.7353 58.2626 14.9873 58.2906 15.118C58.3373 15.3233 58.3886 15.538 58.4446 15.762C58.5006 15.986 58.5613 16.196 58.6266 16.392L57.3526 16.63C57.3153 16.3967 57.2826 16.1727 57.2546 15.958C57.2266 15.734 57.1893 15.5193 57.1426 15.314C57.124 15.1927 57.0773 14.95 57.0026 14.586C56.9373 14.2127 56.8533 13.7647 56.7506 13.242C56.648 12.7193 56.536 12.1593 56.4146 11.562C56.2933 10.9553 56.172 10.3533 56.0506 9.756C55.9386 9.15867 55.8313 8.60333 55.7286 8.09C55.626 7.57667 55.5373 7.14267 55.4626 6.788C55.3973 6.43333 55.3553 6.20467 55.3366 6.102ZM51.3886 8.118C51.5566 8.10867 51.734 8.09933 51.9206 8.09C52.1166 8.07133 52.3266 8.048 52.5506 8.02C52.7653 7.992 53.064 7.95467 53.4466 7.908C53.8293 7.852 54.2586 7.79133 54.7346 7.726C55.22 7.65133 55.7193 7.572 56.2326 7.488C56.7553 7.404 57.2593 7.32467 57.7446 7.25C58.23 7.166 58.6686 7.09133 59.0606 7.026C59.4526 6.96067 59.7606 6.90467 59.9846 6.858C60.19 6.82067 60.3766 6.78333 60.5446 6.746C60.722 6.69933 60.8666 6.65733 60.9786 6.62L61.2166 7.81C61.114 7.81933 60.9646 7.838 60.7686 7.866C60.582 7.88467 60.3953 7.908 60.2086 7.936C59.966 7.97333 59.644 8.02467 59.2426 8.09C58.8413 8.15533 58.3933 8.23 57.8986 8.314C57.4133 8.38867 56.914 8.468 56.4006 8.552C55.8873 8.62667 55.388 8.706 54.9026 8.79C54.4266 8.86467 54.002 8.93467 53.6286 9C53.2553 9.056 52.966 9.10267 52.7606 9.14C52.5646 9.168 52.378 9.20067 52.2006 9.238C52.0326 9.27533 51.8413 9.322 51.6266 9.378L51.3886 8.118ZM51.3466 12.164C51.5146 12.1547 51.7153 12.1407 51.9486 12.122C52.182 12.094 52.392 12.066 52.5786 12.038C52.8306 12.01 53.1666 11.9633 53.5866 11.898C54.016 11.8327 54.4966 11.758 55.0286 11.674C55.57 11.5807 56.1253 11.4873 56.6946 11.394C57.2733 11.3007 57.8333 11.2073 58.3746 11.114C58.916 11.0207 59.4106 10.9367 59.8586 10.862C60.316 10.778 60.68 10.7127 60.9506 10.666C61.2213 10.6193 61.4593 10.5727 61.6646 10.526C61.87 10.4793 62.0473 10.4373 62.1966 10.4L62.4206 11.576C62.2806 11.5853 62.0986 11.6087 61.8746 11.646C61.66 11.674 61.422 11.7113 61.1606 11.758C60.8526 11.8047 60.4653 11.8653 59.9986 11.94C59.5413 12.0147 59.042 12.0987 58.5006 12.192C57.9593 12.276 57.404 12.3647 56.8346 12.458C56.2746 12.542 55.7333 12.6307 55.2106 12.724C54.688 12.808 54.2213 12.8873 53.8106 12.962C53.4 13.0273 53.0733 13.0833 52.8306 13.13C52.56 13.1767 52.322 13.2187 52.1166 13.256C51.9206 13.2933 51.748 13.3353 51.5986 13.382L51.3466 12.164ZM69.2386 7.432C69.2666 7.55333 69.2946 7.68867 69.3226 7.838C69.36 7.98733 69.3973 8.15067 69.4346 8.328C69.4906 8.524 69.57 8.82733 69.6726 9.238C69.7846 9.63933 69.9153 10.1013 70.0646 10.624C70.214 11.1467 70.3633 11.688 70.5126 12.248C70.6713 12.7987 70.8206 13.3307 70.9606 13.844C71.11 14.3573 71.236 14.8053 71.3386 15.188C71.4506 15.5613 71.53 15.832 71.5766 16C71.614 16.084 71.6466 16.182 71.6746 16.294C71.712 16.4153 71.7493 16.532 71.7866 16.644C71.824 16.7653 71.8566 16.868 71.8846 16.952L70.6946 17.26C70.676 17.1013 70.648 16.9333 70.6106 16.756C70.5826 16.588 70.5406 16.4153 70.4846 16.238C70.438 16.0793 70.3586 15.804 70.2466 15.412C70.144 15.02 70.018 14.5627 69.8686 14.04C69.7286 13.5173 69.584 12.976 69.4346 12.416C69.2853 11.856 69.136 11.3147 68.9866 10.792C68.8466 10.2693 68.7206 9.812 68.6086 9.42C68.506 9.01867 68.4266 8.734 68.3706 8.566C68.324 8.38867 68.2726 8.23 68.2166 8.09C68.1606 7.95 68.1 7.82867 68.0346 7.726L69.2386 7.432ZM75.9586 9.35C75.8186 9.64867 75.6273 9.98467 75.3846 10.358C75.1513 10.7313 74.89 11.1093 74.6006 11.492C74.3206 11.8747 74.036 12.2387 73.7466 12.584C73.4666 12.92 73.21 13.2047 72.9766 13.438L71.9826 12.948C72.2813 12.696 72.5846 12.402 72.8926 12.066C73.2006 11.7207 73.49 11.3707 73.7606 11.016C74.0313 10.6613 74.2413 10.344 74.3906 10.064C74.3066 10.0733 74.1106 10.1107 73.8026 10.176C73.504 10.2413 73.1306 10.3207 72.6826 10.414C72.244 10.498 71.7633 10.5913 71.2406 10.694C70.718 10.7967 70.1906 10.904 69.6586 11.016C69.136 11.1187 68.6413 11.2167 68.1746 11.31C67.708 11.4033 67.302 11.4873 66.9566 11.562C66.6206 11.6273 66.3826 11.674 66.2426 11.702L65.9626 10.638C66.1586 10.6193 66.3453 10.6007 66.5226 10.582C66.7093 10.554 66.91 10.5213 67.1246 10.484C67.218 10.4653 67.4093 10.428 67.6986 10.372C67.9973 10.316 68.3566 10.2507 68.7766 10.176C69.206 10.092 69.6633 10.008 70.1486 9.924C70.634 9.83067 71.1193 9.73733 71.6046 9.644C72.0993 9.55067 72.5613 9.462 72.9906 9.378C73.42 9.294 73.7886 9.224 74.0966 9.168C74.4046 9.10267 74.6146 9.056 74.7266 9.028C74.8106 9.00933 74.8993 8.986 74.9926 8.958C75.0953 8.92067 75.184 8.888 75.2586 8.86L75.9586 9.35ZM81.0266 5.738C81.2786 5.906 81.568 6.116 81.8946 6.368C82.2213 6.61067 82.5526 6.872 82.8886 7.152C83.234 7.42267 83.556 7.68867 83.8546 7.95C84.1533 8.21133 84.4006 8.44 84.5966 8.636L83.7146 9.518C83.5373 9.34067 83.3086 9.12133 83.0286 8.86C82.7486 8.59867 82.4406 8.328 82.1046 8.048C81.7686 7.75867 81.4373 7.488 81.1106 7.236C80.784 6.97467 80.49 6.76 80.2286 6.592L81.0266 5.738ZM79.8226 15.118C80.644 14.9967 81.3906 14.8287 82.0626 14.614C82.744 14.3993 83.3646 14.1567 83.9246 13.886C84.4846 13.6153 84.984 13.3447 85.4226 13.074C86.1413 12.626 86.804 12.1127 87.4106 11.534C88.0173 10.946 88.5493 10.3393 89.0066 9.714C89.464 9.08867 89.828 8.49133 90.0986 7.922L90.7706 9.112C90.4533 9.69067 90.0613 10.2787 89.5946 10.876C89.128 11.4733 88.6006 12.0473 88.0126 12.598C87.4246 13.1487 86.776 13.648 86.0666 14.096C85.6 14.3853 85.0866 14.67 84.5266 14.95C83.976 15.23 83.3693 15.4867 82.7066 15.72C82.0533 15.944 81.3393 16.126 80.5646 16.266L79.8226 15.118ZM101.705 7.6C101.705 7.88 101.803 8.12267 101.999 8.328C102.204 8.524 102.451 8.622 102.741 8.622C103.021 8.622 103.259 8.524 103.455 8.328C103.66 8.12267 103.763 7.88 103.763 7.6C103.763 7.31067 103.66 7.068 103.455 6.872C103.259 6.676 103.021 6.578 102.741 6.578C102.451 6.578 102.204 6.676 101.999 6.872C101.803 7.068 101.705 7.31067 101.705 7.6ZM101.033 7.6C101.033 7.28267 101.107 6.998 101.257 6.746C101.415 6.48467 101.621 6.27933 101.873 6.13C102.134 5.97133 102.423 5.892 102.741 5.892C103.049 5.892 103.329 5.97133 103.581 6.13C103.842 6.27933 104.047 6.48467 104.197 6.746C104.355 6.998 104.435 7.28267 104.435 7.6C104.435 7.908 104.355 8.19267 104.197 8.454C104.047 8.706 103.842 8.91133 103.581 9.07C103.329 9.21933 103.049 9.294 102.741 9.294C102.423 9.294 102.134 9.21933 101.873 9.07C101.621 8.91133 101.415 8.706 101.257 8.454C101.107 8.19267 101.033 7.908 101.033 7.6ZM92.5906 12.318C92.7773 12.1593 92.9406 12.01 93.0806 11.87C93.23 11.73 93.398 11.5667 93.5846 11.38C93.7526 11.212 93.944 10.9973 94.1586 10.736C94.3826 10.4747 94.6206 10.1947 94.8726 9.896C95.134 9.588 95.3906 9.28 95.6426 8.972C95.8946 8.65467 96.128 8.37 96.3426 8.118C96.716 7.67933 97.0846 7.43667 97.4486 7.39C97.8126 7.334 98.2326 7.53 98.7086 7.978C98.998 8.23933 99.3106 8.54733 99.6466 8.902C99.992 9.24733 100.333 9.59733 100.669 9.952C101.005 10.3067 101.308 10.6287 101.579 10.918C101.896 11.2447 102.251 11.6227 102.643 12.052C103.035 12.472 103.436 12.906 103.847 13.354C104.257 13.7927 104.64 14.2033 104.995 14.586L104.029 15.608C103.702 15.2067 103.352 14.7913 102.979 14.362C102.615 13.9233 102.251 13.4987 101.887 13.088C101.532 12.668 101.205 12.29 100.907 11.954C100.701 11.7207 100.473 11.4687 100.221 11.198C99.9686 10.9273 99.7166 10.6567 99.4646 10.386C99.2126 10.1153 98.9746 9.86333 98.7506 9.63C98.536 9.39667 98.354 9.21 98.2046 9.07C97.934 8.80867 97.71 8.68733 97.5326 8.706C97.3646 8.72467 97.1593 8.87867 96.9166 9.168C96.7486 9.37333 96.5573 9.616 96.3426 9.896C96.128 10.1667 95.904 10.4513 95.6706 10.75C95.4373 11.0487 95.2133 11.3333 94.9986 11.604C94.784 11.8747 94.5973 12.108 94.4386 12.304C94.2986 12.4813 94.154 12.668 94.0046 12.864C93.8646 13.06 93.7433 13.2327 93.6406 13.382L92.5906 12.318ZM107.277 9.938C107.417 9.94733 107.589 9.96133 107.795 9.98C108 9.98933 108.224 9.99867 108.467 10.008C108.719 10.008 108.971 10.008 109.223 10.008C109.372 10.008 109.601 10.008 109.909 10.008C110.226 10.008 110.595 10.008 111.015 10.008C111.435 10.008 111.878 10.008 112.345 10.008C112.821 10.008 113.292 10.008 113.759 10.008C114.235 10.008 114.683 10.008 115.103 10.008C115.532 10.008 115.901 10.008 116.209 10.008C116.517 10.008 116.745 10.008 116.895 10.008C117.249 10.008 117.553 9.99867 117.805 9.98C118.057 9.96133 118.257 9.94733 118.407 9.938V11.31C118.267 11.3007 118.057 11.2867 117.777 11.268C117.506 11.2493 117.217 11.24 116.909 11.24C116.759 11.24 116.526 11.24 116.209 11.24C115.891 11.24 115.523 11.24 115.103 11.24C114.692 11.24 114.249 11.24 113.773 11.24C113.297 11.24 112.821 11.24 112.345 11.24C111.878 11.24 111.435 11.24 111.015 11.24C110.604 11.24 110.24 11.24 109.923 11.24C109.605 11.24 109.372 11.24 109.223 11.24C108.84 11.24 108.476 11.2493 108.131 11.268C107.785 11.2773 107.501 11.2913 107.277 11.31V9.938ZM122.329 5.738C122.581 5.906 122.871 6.116 123.197 6.368C123.524 6.61067 123.855 6.872 124.191 7.152C124.537 7.42267 124.859 7.68867 125.157 7.95C125.456 8.21133 125.703 8.44 125.899 8.636L125.017 9.518C124.84 9.34067 124.611 9.12133 124.331 8.86C124.051 8.59867 123.743 8.328 123.407 8.048C123.071 7.75867 122.74 7.488 122.413 7.236C122.087 6.97467 121.793 6.76 121.531 6.592L122.329 5.738ZM121.125 15.118C121.947 14.9967 122.693 14.8287 123.365 14.614C124.047 14.3993 124.667 14.1567 125.227 13.886C125.787 13.6153 126.287 13.3447 126.725 13.074C127.444 12.626 128.107 12.1127 128.713 11.534C129.32 10.946 129.852 10.3393 130.309 9.714C130.767 9.08867 131.131 8.49133 131.401 7.922L132.073 9.112C131.756 9.69067 131.364 10.2787 130.897 10.876C130.431 11.4733 129.903 12.0473 129.315 12.598C128.727 13.1487 128.079 13.648 127.369 14.096C126.903 14.3853 126.389 14.67 125.829 14.95C125.279 15.23 124.672 15.4867 124.009 15.72C123.356 15.944 122.642 16.126 121.867 16.266L121.125 15.118ZM135.559 6.396C135.793 6.424 136.049 6.44733 136.329 6.466C136.609 6.47533 136.861 6.48 137.085 6.48H143.987C144.155 6.48 144.333 6.48 144.519 6.48C144.715 6.47067 144.883 6.46133 145.023 6.452C145.014 6.61067 145.005 6.79267 144.995 6.998C144.986 7.194 144.981 7.376 144.981 7.544V14.768C144.981 15.02 144.986 15.2813 144.995 15.552C145.014 15.8227 145.028 16.014 145.037 16.126H143.777C143.787 16.014 143.791 15.846 143.791 15.622C143.801 15.3887 143.805 15.146 143.805 14.894V7.6H137.099C136.838 7.6 136.553 7.60467 136.245 7.614C135.947 7.62333 135.718 7.63267 135.559 7.642V6.396ZM135.377 14.124C135.555 14.1427 135.783 14.1613 136.063 14.18C136.353 14.1987 136.642 14.208 136.931 14.208H144.435V15.342H136.959C136.679 15.342 136.39 15.3467 136.091 15.356C135.802 15.3653 135.564 15.3793 135.377 15.398V14.124ZM148.579 9.938C148.719 9.94733 148.892 9.96133 149.097 9.98C149.303 9.98933 149.527 9.99867 149.769 10.008C150.021 10.008 150.273 10.008 150.525 10.008C150.675 10.008 150.903 10.008 151.211 10.008C151.529 10.008 151.897 10.008 152.317 10.008C152.737 10.008 153.181 10.008 153.647 10.008C154.123 10.008 154.595 10.008 155.061 10.008C155.537 10.008 155.985 10.008 156.405 10.008C156.835 10.008 157.203 10.008 157.511 10.008C157.819 10.008 158.048 10.008 158.197 10.008C158.552 10.008 158.855 9.99867 159.107 9.98C159.359 9.96133 159.56 9.94733 159.709 9.938V11.31C159.569 11.3007 159.359 11.2867 159.079 11.268C158.809 11.2493 158.519 11.24 158.211 11.24C158.062 11.24 157.829 11.24 157.511 11.24C157.194 11.24 156.825 11.24 156.405 11.24C155.995 11.24 155.551 11.24 155.075 11.24C154.599 11.24 154.123 11.24 153.647 11.24C153.181 11.24 152.737 11.24 152.317 11.24C151.907 11.24 151.543 11.24 151.225 11.24C150.908 11.24 150.675 11.24 150.525 11.24C150.143 11.24 149.779 11.2493 149.433 11.268C149.088 11.2773 148.803 11.2913 148.579 11.31V9.938ZM170.335 5.92C170.457 6.088 170.597 6.298 170.755 6.55C170.914 6.79267 171.068 7.04467 171.217 7.306C171.376 7.56733 171.507 7.81 171.609 8.034L170.811 8.398C170.699 8.15533 170.573 7.91267 170.433 7.67C170.303 7.418 170.163 7.17533 170.013 6.942C169.873 6.69933 169.724 6.47533 169.565 6.27L170.335 5.92ZM172.029 5.22C172.151 5.37867 172.291 5.57933 172.449 5.822C172.617 6.06467 172.781 6.31667 172.939 6.578C173.098 6.83933 173.233 7.07733 173.345 7.292L172.561 7.684C172.44 7.44133 172.309 7.19867 172.169 6.956C172.029 6.71333 171.88 6.47533 171.721 6.242C171.572 6.00867 171.418 5.78933 171.259 5.584L172.029 5.22ZM165.421 14.95C165.421 14.8193 165.421 14.558 165.421 14.166C165.421 13.774 165.421 13.3073 165.421 12.766C165.421 12.2153 165.421 11.6367 165.421 11.03C165.421 10.4233 165.421 9.83533 165.421 9.266C165.421 8.69667 165.421 8.19267 165.421 7.754C165.421 7.31533 165.421 6.998 165.421 6.802C165.421 6.606 165.412 6.368 165.393 6.088C165.384 5.808 165.356 5.56067 165.309 5.346H166.695C166.667 5.56067 166.644 5.808 166.625 6.088C166.607 6.35867 166.597 6.59667 166.597 6.802C166.597 7.166 166.597 7.60467 166.597 8.118C166.597 8.622 166.597 9.16333 166.597 9.742C166.597 10.3113 166.597 10.8807 166.597 11.45C166.597 12.01 166.597 12.5373 166.597 13.032C166.597 13.5173 166.597 13.9327 166.597 14.278C166.597 14.614 166.597 14.838 166.597 14.95C166.597 15.09 166.597 15.2627 166.597 15.468C166.607 15.6733 166.621 15.874 166.639 16.07C166.658 16.2753 166.672 16.4527 166.681 16.602H165.337C165.365 16.378 165.384 16.112 165.393 15.804C165.412 15.496 165.421 15.2113 165.421 14.95ZM166.345 9.014C166.803 9.154 167.311 9.322 167.871 9.518C168.431 9.70467 168.996 9.90533 169.565 10.12C170.144 10.3347 170.69 10.554 171.203 10.778C171.726 10.9927 172.183 11.198 172.575 11.394L172.085 12.584C171.684 12.3693 171.231 12.15 170.727 11.926C170.233 11.702 169.719 11.4827 169.187 11.268C168.655 11.0533 168.142 10.862 167.647 10.694C167.162 10.526 166.728 10.3813 166.345 10.26V9.014ZM178.343 5.094H182.305V6.158H178.343V5.094ZM181.773 5.094H182.837C182.837 5.50467 182.856 5.99 182.893 6.55C182.931 7.11 183.01 7.712 183.131 8.356C183.253 8.99067 183.439 9.65333 183.691 10.344C183.943 11.0347 184.284 11.7253 184.713 12.416C185.143 13.0973 185.679 13.76 186.323 14.404C186.977 15.048 187.765 15.6407 188.689 16.182C188.615 16.2473 188.517 16.3313 188.395 16.434C188.283 16.546 188.176 16.658 188.073 16.77C187.98 16.8913 187.901 16.994 187.835 17.078C186.902 16.5087 186.099 15.8833 185.427 15.202C184.765 14.5113 184.209 13.7927 183.761 13.046C183.323 12.2993 182.968 11.5527 182.697 10.806C182.436 10.05 182.235 9.322 182.095 8.622C181.965 7.91267 181.876 7.25467 181.829 6.648C181.792 6.04133 181.773 5.52333 181.773 5.094ZM181.367 7.838L182.557 8.048C182.221 9.46667 181.783 10.7453 181.241 11.884C180.709 13.0227 180.061 14.026 179.295 14.894C178.539 15.7527 177.643 16.4853 176.607 17.092C176.551 17.0173 176.463 16.9287 176.341 16.826C176.229 16.7233 176.108 16.616 175.977 16.504C175.856 16.4013 175.749 16.3173 175.655 16.252C177.214 15.4307 178.451 14.32 179.365 12.92C180.28 11.5107 180.947 9.81667 181.367 7.838ZM190.313 7.292H201.177V8.37H190.313V7.292ZM200.771 7.292H201.849C201.849 7.292 201.849 7.32933 201.849 7.404C201.849 7.47867 201.845 7.558 201.835 7.642C201.835 7.726 201.831 7.796 201.821 7.852C201.747 9.29867 201.667 10.5307 201.583 11.548C201.509 12.5653 201.42 13.4053 201.317 14.068C201.224 14.7213 201.117 15.2393 200.995 15.622C200.883 15.9953 200.748 16.266 200.589 16.434C200.421 16.6393 200.244 16.7793 200.057 16.854C199.88 16.9287 199.656 16.98 199.385 17.008C199.152 17.0267 198.825 17.0313 198.405 17.022C197.995 17.0127 197.575 16.9987 197.145 16.98C197.136 16.8213 197.099 16.6393 197.033 16.434C196.977 16.2287 196.893 16.0513 196.781 15.902C197.267 15.9393 197.71 15.9673 198.111 15.986C198.522 15.9953 198.816 16 198.993 16C199.143 16 199.264 15.986 199.357 15.958C199.46 15.93 199.553 15.8693 199.637 15.776C199.768 15.6547 199.885 15.4167 199.987 15.062C200.099 14.698 200.197 14.194 200.281 13.55C200.375 12.8967 200.459 12.0753 200.533 11.086C200.617 10.0967 200.697 8.90667 200.771 7.516V7.292ZM194.891 4.268H195.983V6.69C195.983 7.334 195.955 8.01533 195.899 8.734C195.843 9.44333 195.722 10.1713 195.535 10.918C195.349 11.6553 195.064 12.3927 194.681 13.13C194.299 13.8673 193.785 14.5813 193.141 15.272C192.497 15.9533 191.685 16.588 190.705 17.176C190.649 17.0827 190.575 16.9847 190.481 16.882C190.388 16.7793 190.29 16.6767 190.187 16.574C190.085 16.4807 189.987 16.406 189.893 16.35C190.827 15.79 191.597 15.1927 192.203 14.558C192.819 13.9233 193.305 13.27 193.659 12.598C194.023 11.9167 194.289 11.2353 194.457 10.554C194.635 9.87267 194.751 9.20533 194.807 8.552C194.863 7.89867 194.891 7.278 194.891 6.69V4.268ZM209.199 16.168C208.518 16.168 207.925 16.0513 207.421 15.818C206.927 15.5847 206.539 15.258 206.259 14.838C205.989 14.418 205.853 13.928 205.853 13.368C205.853 12.864 205.97 12.43 206.203 12.066C206.446 11.6927 206.754 11.3613 207.127 11.072C207.501 10.7827 207.897 10.5167 208.317 10.274C208.737 10.022 209.134 9.77467 209.507 9.532C209.89 9.28 210.198 9.00467 210.431 8.706C210.674 8.40733 210.795 8.062 210.795 7.67C210.795 7.334 210.693 7.04933 210.487 6.816C210.282 6.57333 209.997 6.452 209.633 6.452C209.213 6.452 208.873 6.592 208.611 6.872C208.359 7.14267 208.233 7.50667 208.233 7.964C208.233 8.31867 208.327 8.692 208.513 9.084C208.7 9.46667 208.952 9.85867 209.269 10.26C209.596 10.6613 209.955 11.058 210.347 11.45C210.749 11.842 211.159 12.2293 211.579 12.612C211.999 12.9853 212.405 13.34 212.797 13.676C213.208 14.0213 213.595 14.32 213.959 14.572C214.323 14.824 214.613 15.0153 214.827 15.146L214.225 16.182C213.927 15.9953 213.595 15.776 213.231 15.524C212.867 15.2627 212.452 14.9267 211.985 14.516C211.435 14.0213 210.875 13.508 210.305 12.976C209.745 12.444 209.227 11.9027 208.751 11.352C208.275 10.792 207.893 10.232 207.603 9.672C207.314 9.112 207.169 8.56133 207.169 8.02C207.169 7.516 207.272 7.082 207.477 6.718C207.692 6.34467 207.981 6.05533 208.345 5.85C208.719 5.64467 209.139 5.542 209.605 5.542C210.287 5.542 210.823 5.73333 211.215 6.116C211.617 6.49867 211.817 7.00267 211.817 7.628C211.817 8.104 211.701 8.524 211.467 8.888C211.234 9.252 210.935 9.57867 210.571 9.868C210.217 10.148 209.834 10.4187 209.423 10.68C209.013 10.932 208.625 11.1887 208.261 11.45C207.897 11.702 207.599 11.9773 207.365 12.276C207.141 12.5747 207.029 12.92 207.029 13.312C207.029 13.9 207.239 14.3527 207.659 14.67C208.089 14.9873 208.635 15.146 209.297 15.146C209.792 15.146 210.268 15.006 210.725 14.726C211.183 14.446 211.598 14.0727 211.971 13.606C212.335 13.1673 212.639 12.696 212.881 12.192C213.124 11.6787 213.297 11.1047 213.399 10.47H214.575C214.426 11.1793 214.207 11.8467 213.917 12.472C213.637 13.088 213.283 13.6713 212.853 14.222C212.405 14.81 211.887 15.2813 211.299 15.636C210.721 15.9907 210.021 16.168 209.199 16.168ZM28.36 27.614H34.926V28.622H28.36V27.614ZM22.27 26.55H28.794V27.544H22.27V26.55ZM32.21 24.24H33.246V35.692C33.246 36.0373 33.1993 36.2987 33.106 36.476C33.0127 36.6627 32.8587 36.8027 32.644 36.896C32.4387 36.9893 32.1447 37.0453 31.762 37.064C31.3887 37.092 30.908 37.106 30.32 37.106C30.3013 37.0033 30.2733 36.8867 30.236 36.756C30.1987 36.6253 30.1567 36.49 30.11 36.35C30.0633 36.2193 30.0167 36.1027 29.97 36C30.4087 36.0187 30.8053 36.028 31.16 36.028C31.5147 36.028 31.7527 36.028 31.874 36.028C31.9953 36.0187 32.0793 35.9907 32.126 35.944C32.182 35.8973 32.21 35.8133 32.21 35.692V24.24ZM28.528 30.484L29.382 30.092C29.606 30.4093 29.8253 30.7547 30.04 31.128C30.2547 31.5013 30.4413 31.87 30.6 32.234C30.768 32.5887 30.8893 32.906 30.964 33.186L30.04 33.648C29.9653 33.3587 29.8487 33.032 29.69 32.668C29.5407 32.304 29.3633 31.9307 29.158 31.548C28.962 31.1653 28.752 30.8107 28.528 30.484ZM22.718 29.546L23.46 28.944C23.8893 29.392 24.3233 29.8727 24.762 30.386C25.2007 30.8993 25.6207 31.4173 26.022 31.94C26.4327 32.4627 26.8013 32.9713 27.128 33.466C27.4547 33.9513 27.7207 34.3947 27.926 34.796L27.086 35.524C26.89 35.104 26.6333 34.6467 26.316 34.152C25.9987 33.648 25.6393 33.13 25.238 32.598C24.846 32.066 24.4307 31.5387 23.992 31.016C23.5627 30.484 23.138 29.994 22.718 29.546ZM24.958 24.254H25.966V27.138H24.958V24.254ZM26.554 27.866L27.576 28.006C27.3427 29.4153 27.0207 30.6847 26.61 31.814C26.1993 32.934 25.672 33.928 25.028 34.796C24.384 35.6547 23.6 36.392 22.676 37.008C22.6293 36.9333 22.564 36.8447 22.48 36.742C22.396 36.6393 22.3027 36.5367 22.2 36.434C22.1067 36.3407 22.0227 36.2613 21.948 36.196C22.844 35.6453 23.5953 34.9733 24.202 34.18C24.8087 33.3773 25.3033 32.4487 25.686 31.394C26.0687 30.3393 26.358 29.1633 26.554 27.866ZM40.092 31.296L40.792 30.764C41.464 31.1467 42.0147 31.5667 42.444 32.024C42.8827 32.4813 43.2093 32.948 43.424 33.424C43.648 33.9 43.774 34.3573 43.802 34.796C43.8393 35.2347 43.7833 35.6267 43.634 35.972C43.494 36.308 43.2793 36.5693 42.99 36.756C42.766 36.9053 42.5467 37.008 42.332 37.064C42.1267 37.12 41.8793 37.1527 41.59 37.162C41.4407 37.162 41.2633 37.1573 41.058 37.148C40.862 37.148 40.6613 37.1433 40.456 37.134C40.4467 36.994 40.414 36.8307 40.358 36.644C40.3113 36.4667 40.2413 36.3127 40.148 36.182C40.3907 36.2007 40.624 36.2147 40.848 36.224C41.072 36.2333 41.2587 36.238 41.408 36.238C41.5853 36.238 41.7487 36.224 41.898 36.196C42.0567 36.168 42.2013 36.1027 42.332 36C42.5653 35.8507 42.7147 35.6033 42.78 35.258C42.8453 34.9033 42.7987 34.502 42.64 34.054C42.4907 33.5967 42.206 33.13 41.786 32.654C41.3753 32.1687 40.8107 31.716 40.092 31.296ZM41.534 31.772L42.276 32.15C41.8653 32.486 41.3613 32.808 40.764 33.116C40.176 33.4147 39.56 33.69 38.916 33.942C38.2813 34.194 37.67 34.3947 37.082 34.544C37.0167 34.432 36.9233 34.3013 36.802 34.152C36.69 34.0027 36.5873 33.8813 36.494 33.788C37.0727 33.6667 37.6793 33.5033 38.314 33.298C38.9487 33.0927 39.5507 32.8593 40.12 32.598C40.6893 32.3273 41.1607 32.052 41.534 31.772ZM42.472 33.046L43.242 33.452C42.8593 33.816 42.416 34.166 41.912 34.502C41.408 34.838 40.8713 35.1553 40.302 35.454C39.7327 35.7527 39.154 36.0187 38.566 36.252C37.978 36.4853 37.4133 36.6813 36.872 36.84C36.8067 36.7187 36.7133 36.5787 36.592 36.42C36.4707 36.2613 36.3587 36.1353 36.256 36.042C36.7973 35.9113 37.362 35.7387 37.95 35.524C38.538 35.3093 39.112 35.0713 39.672 34.81C40.232 34.5487 40.7547 34.2687 41.24 33.97C41.7253 33.662 42.136 33.354 42.472 33.046ZM39.784 25.178H43.914V26.018H39.784V25.178ZM42.346 29.658L43.158 30.064C42.654 30.4187 42.052 30.7547 41.352 31.072C40.652 31.38 39.924 31.66 39.168 31.912C38.412 32.1547 37.6887 32.3647 36.998 32.542C36.9607 32.486 36.9047 32.4113 36.83 32.318C36.7647 32.2153 36.6947 32.1173 36.62 32.024C36.5547 31.9213 36.494 31.8373 36.438 31.772C37.138 31.632 37.852 31.4593 38.58 31.254C39.3173 31.0393 40.0127 30.7967 40.666 30.526C41.3287 30.2553 41.8887 29.966 42.346 29.658ZM43.564 29.84C43.8347 30.792 44.2127 31.6647 44.698 32.458C45.1927 33.2513 45.79 33.9373 46.49 34.516C47.1993 35.0853 48.0113 35.5193 48.926 35.818C48.8513 35.8833 48.7673 35.9673 48.674 36.07C48.59 36.1727 48.5107 36.28 48.436 36.392C48.3613 36.504 48.296 36.6067 48.24 36.7C47.2973 36.336 46.462 35.8367 45.734 35.202C45.0153 34.5673 44.404 33.816 43.9 32.948C43.396 32.08 42.99 31.1187 42.682 30.064L43.564 29.84ZM47.624 30.456L48.478 31.072C48.1233 31.3333 47.7313 31.5993 47.302 31.87C46.882 32.1313 46.4573 32.3833 46.028 32.626C45.5987 32.8593 45.1973 33.0647 44.824 33.242L44.166 32.696C44.53 32.5093 44.922 32.29 45.342 32.038C45.7713 31.7767 46.1867 31.506 46.588 31.226C46.9893 30.946 47.3347 30.6893 47.624 30.456ZM38.734 27.866V29.476H46.378V27.866H38.734ZM37.74 27.054H47.414V30.288H37.74V27.054ZM40.148 24.184L41.254 24.408C40.7593 25.108 40.1527 25.8127 39.434 26.522C38.7247 27.2313 37.8893 27.8753 36.928 28.454C36.8813 28.37 36.8113 28.2813 36.718 28.188C36.634 28.0947 36.5453 28.0107 36.452 27.936C36.368 27.852 36.284 27.7867 36.2 27.74C36.816 27.3947 37.376 27.0213 37.88 26.62C38.384 26.2187 38.8273 25.808 39.21 25.388C39.5927 24.968 39.9053 24.5667 40.148 24.184ZM41.94 27.446H42.976V29.938H41.94V27.446ZM43.508 25.178H43.746L43.914 25.122L44.628 25.598C44.4787 25.85 44.3013 26.116 44.096 26.396C43.8907 26.676 43.676 26.9373 43.452 27.18C43.2373 27.4227 43.0273 27.6373 42.822 27.824C42.7287 27.7493 42.6027 27.6653 42.444 27.572C42.2947 27.4693 42.164 27.3853 42.052 27.32C42.2387 27.152 42.4253 26.956 42.612 26.732C42.808 26.508 42.9807 26.2747 43.13 26.032C43.2887 25.7893 43.4147 25.57 43.508 25.374V25.178ZM60.77 25.948C60.77 26.2 60.8587 26.4193 61.036 26.606C61.2227 26.7833 61.442 26.872 61.694 26.872C61.9553 26.872 62.1747 26.7833 62.352 26.606C62.5387 26.4193 62.632 26.2 62.632 25.948C62.632 25.6867 62.5387 25.4673 62.352 25.29C62.1747 25.1033 61.9553 25.01 61.694 25.01C61.442 25.01 61.2227 25.1033 61.036 25.29C60.8587 25.4673 60.77 25.6867 60.77 25.948ZM60.126 25.948C60.126 25.6587 60.196 25.3973 60.336 25.164C60.4853 24.9213 60.6767 24.73 60.91 24.59C61.1433 24.4407 61.4047 24.366 61.694 24.366C61.9833 24.366 62.2447 24.4407 62.478 24.59C62.7207 24.73 62.912 24.9213 63.052 25.164C63.2013 25.3973 63.276 25.6587 63.276 25.948C63.276 26.2373 63.2013 26.4987 63.052 26.732C62.912 26.9653 62.7207 27.1567 62.478 27.306C62.2447 27.446 61.9833 27.516 61.694 27.516C61.4047 27.516 61.1433 27.446 60.91 27.306C60.6767 27.1567 60.4853 26.9653 60.336 26.732C60.196 26.4987 60.126 26.2373 60.126 25.948ZM61.344 26.886C61.2973 26.9793 61.2553 27.0867 61.218 27.208C61.19 27.32 61.162 27.446 61.134 27.586C61.0593 27.95 60.9613 28.356 60.84 28.804C60.7187 29.252 60.5693 29.714 60.392 30.19C60.224 30.6567 60.028 31.1093 59.804 31.548C59.58 31.9867 59.328 32.388 59.048 32.752C58.6187 33.2933 58.1427 33.7973 57.62 34.264C57.0973 34.7307 56.5 35.1507 55.828 35.524C55.156 35.8973 54.3907 36.2193 53.532 36.49L52.58 35.44C53.4947 35.216 54.2833 34.936 54.946 34.6C55.618 34.264 56.206 33.886 56.71 33.466C57.214 33.0367 57.6573 32.5747 58.04 32.08C58.376 31.6507 58.6653 31.17 58.908 30.638C59.16 30.0967 59.37 29.5553 59.538 29.014C59.706 28.4633 59.818 27.964 59.874 27.516C59.7433 27.516 59.496 27.516 59.132 27.516C58.768 27.516 58.3387 27.516 57.844 27.516C57.3493 27.516 56.8313 27.516 56.29 27.516C55.758 27.516 55.2447 27.516 54.75 27.516C54.2553 27.516 53.826 27.516 53.462 27.516C53.098 27.516 52.8507 27.516 52.72 27.516C52.44 27.516 52.1833 27.5207 51.95 27.53C51.7167 27.5393 51.5067 27.5487 51.32 27.558V26.312C51.4507 26.3307 51.5953 26.3493 51.754 26.368C51.9127 26.3773 52.076 26.3867 52.244 26.396C52.412 26.4053 52.5707 26.41 52.72 26.41C52.832 26.41 53.0327 26.41 53.322 26.41C53.6113 26.41 53.952 26.41 54.344 26.41C54.7453 26.41 55.17 26.41 55.618 26.41C56.0753 26.41 56.5233 26.41 56.962 26.41C57.41 26.41 57.8253 26.41 58.208 26.41C58.6 26.41 58.9313 26.41 59.202 26.41C59.4727 26.41 59.6547 26.41 59.748 26.41C59.8507 26.41 59.9673 26.4053 60.098 26.396C60.2287 26.3867 60.3593 26.368 60.49 26.34L61.344 26.886ZM66.734 25.57C66.9207 25.598 67.1213 25.6167 67.336 25.626C67.5507 25.6353 67.77 25.64 67.994 25.64C68.134 25.64 68.386 25.64 68.75 25.64C69.1233 25.64 69.5433 25.64 70.01 25.64C70.486 25.64 70.9573 25.64 71.424 25.64C71.9 25.64 72.3247 25.64 72.698 25.64C73.0713 25.64 73.3373 25.64 73.496 25.64C73.72 25.64 73.944 25.6353 74.168 25.626C74.392 25.6167 74.5927 25.598 74.77 25.57V26.732C74.602 26.7133 74.4013 26.704 74.168 26.704C73.944 26.6947 73.7153 26.69 73.482 26.69C73.3233 26.69 73.0573 26.69 72.684 26.69C72.32 26.69 71.9047 26.69 71.438 26.69C70.9713 26.69 70.5 26.69 70.024 26.69C69.5573 26.69 69.1373 26.69 68.764 26.69C68.4 26.69 68.1433 26.69 67.994 26.69C67.7793 26.69 67.5647 26.6947 67.35 26.704C67.1353 26.7133 66.93 26.7227 66.734 26.732V25.57ZM75.792 29.266C75.764 29.322 75.7267 29.392 75.68 29.476C75.6427 29.5507 75.6193 29.616 75.61 29.672C75.4233 30.3627 75.1667 31.058 74.84 31.758C74.5133 32.4487 74.0887 33.0787 73.566 33.648C72.8287 34.4507 72.0307 35.076 71.172 35.524C70.3227 35.972 69.45 36.322 68.554 36.574L67.686 35.58C68.6753 35.3747 69.5947 35.0527 70.444 34.614C71.2933 34.1753 72.0167 33.6433 72.614 33.018C73.0433 32.57 73.3933 32.0707 73.664 31.52C73.944 30.96 74.1493 30.428 74.28 29.924C74.1773 29.924 73.9813 29.924 73.692 29.924C73.412 29.924 73.0667 29.924 72.656 29.924C72.2453 29.924 71.802 29.924 71.326 29.924C70.8593 29.924 70.3833 29.924 69.898 29.924C69.422 29.924 68.974 29.924 68.554 29.924C68.1433 29.924 67.784 29.924 67.476 29.924C67.1773 29.924 66.9673 29.924 66.846 29.924C66.678 29.924 66.4727 29.9287 66.23 29.938C65.9873 29.938 65.7353 29.9473 65.474 29.966V28.79C65.7353 28.818 65.9827 28.8413 66.216 28.86C66.4493 28.8693 66.6593 28.874 66.846 28.874C66.9487 28.874 67.1447 28.874 67.434 28.874C67.7233 28.874 68.0733 28.874 68.484 28.874C68.8947 28.874 69.338 28.874 69.814 28.874C70.29 28.874 70.766 28.874 71.242 28.874C71.718 28.874 72.1613 28.874 72.572 28.874C72.9827 28.874 73.3327 28.874 73.622 28.874C73.9207 28.874 74.1213 28.874 74.224 28.874C74.3827 28.874 74.532 28.8647 74.672 28.846C74.812 28.8273 74.9193 28.7993 74.994 28.762L75.792 29.266ZM80.678 25.738C80.93 25.906 81.2193 26.116 81.546 26.368C81.8727 26.6107 82.204 26.872 82.54 27.152C82.8853 27.4227 83.2073 27.6887 83.506 27.95C83.8047 28.2113 84.052 28.44 84.248 28.636L83.366 29.518C83.1887 29.3407 82.96 29.1213 82.68 28.86C82.4 28.5987 82.092 28.328 81.756 28.048C81.42 27.7587 81.0887 27.488 80.762 27.236C80.4353 26.9747 80.1413 26.76 79.88 26.592L80.678 25.738ZM79.474 35.118C80.2953 34.9967 81.042 34.8287 81.714 34.614C82.3953 34.3993 83.016 34.1567 83.576 33.886C84.136 33.6153 84.6353 33.3447 85.074 33.074C85.7927 32.626 86.4553 32.1127 87.062 31.534C87.6687 30.946 88.2007 30.3393 88.658 29.714C89.1153 29.0887 89.4793 28.4913 89.75 27.922L90.422 29.112C90.1047 29.6907 89.7127 30.2787 89.246 30.876C88.7793 31.4733 88.252 32.0473 87.664 32.598C87.076 33.1487 86.4273 33.648 85.718 34.096C85.2513 34.3853 84.738 34.67 84.178 34.95C83.6273 35.23 83.0207 35.4867 82.358 35.72C81.7047 35.944 80.9907 36.126 80.216 36.266L79.474 35.118ZM97.884 26.55C98.2667 26.606 98.71 26.6527 99.214 26.69C99.7273 26.718 100.255 26.732 100.796 26.732C101.347 26.7227 101.869 26.704 102.364 26.676C102.868 26.6387 103.293 26.592 103.638 26.536V27.67C103.265 27.7073 102.826 27.74 102.322 27.768C101.827 27.7867 101.309 27.796 100.768 27.796C100.236 27.796 99.718 27.7867 99.214 27.768C98.71 27.74 98.2667 27.7073 97.884 27.67V26.55ZM98.43 32.248C98.3647 32.5 98.3133 32.7287 98.276 32.934C98.2387 33.1393 98.22 33.34 98.22 33.536C98.22 33.6947 98.2527 33.8533 98.318 34.012C98.3927 34.1613 98.514 34.2967 98.682 34.418C98.8593 34.53 99.102 34.6233 99.41 34.698C99.718 34.7633 100.11 34.796 100.586 34.796C101.221 34.796 101.818 34.768 102.378 34.712C102.938 34.6467 103.498 34.5533 104.058 34.432L104.086 35.608C103.647 35.7013 103.134 35.776 102.546 35.832C101.967 35.8787 101.314 35.902 100.586 35.902C99.41 35.902 98.5467 35.7153 97.996 35.342C97.4547 34.9687 97.184 34.4553 97.184 33.802C97.184 33.5687 97.2027 33.3213 97.24 33.06C97.2867 32.7893 97.3473 32.486 97.422 32.15L98.43 32.248ZM95.21 25.472C95.1913 25.5467 95.1633 25.6447 95.126 25.766C95.098 25.878 95.0653 25.9947 95.028 26.116C95 26.228 94.9767 26.326 94.958 26.41C94.9113 26.6713 94.8553 26.9747 94.79 27.32C94.7247 27.656 94.6593 28.02 94.594 28.412C94.538 28.7947 94.482 29.1867 94.426 29.588C94.3793 29.98 94.3373 30.3627 94.3 30.736C94.272 31.1093 94.258 31.4547 94.258 31.772C94.258 32.1173 94.2673 32.444 94.286 32.752C94.314 33.06 94.3467 33.3867 94.384 33.732C94.468 33.5173 94.5567 33.2887 94.65 33.046C94.7433 32.8033 94.8367 32.5653 94.93 32.332C95.0327 32.0893 95.1213 31.8747 95.196 31.688L95.784 32.136C95.6627 32.472 95.532 32.8407 95.392 33.242C95.252 33.6433 95.126 34.0307 95.014 34.404C94.9113 34.768 94.8367 35.0573 94.79 35.272C94.7713 35.3747 94.7527 35.4867 94.734 35.608C94.7153 35.7293 94.7107 35.8273 94.72 35.902C94.7293 35.9767 94.734 36.056 94.734 36.14C94.7433 36.2333 94.7527 36.3173 94.762 36.392L93.754 36.462C93.614 35.9673 93.4927 35.3327 93.39 34.558C93.2873 33.774 93.236 32.9107 93.236 31.968C93.236 31.4547 93.2593 30.932 93.306 30.4C93.3527 29.8587 93.4133 29.336 93.488 28.832C93.5627 28.3187 93.6327 27.852 93.698 27.432C93.7727 27.0027 93.8287 26.6433 93.866 26.354C93.894 26.186 93.9173 26.018 93.936 25.85C93.9547 25.6727 93.964 25.5093 93.964 25.36L95.21 25.472ZM118.534 26.536C118.478 26.6013 118.413 26.6807 118.338 26.774C118.273 26.8673 118.212 26.956 118.156 27.04C117.979 27.3573 117.713 27.7493 117.358 28.216C117.013 28.6733 116.611 29.1447 116.154 29.63C115.697 30.106 115.202 30.5307 114.67 30.904L113.746 30.162C114.073 29.9753 114.39 29.7513 114.698 29.49C115.015 29.2193 115.309 28.9393 115.58 28.65C115.86 28.3513 116.103 28.062 116.308 27.782C116.523 27.4927 116.691 27.2407 116.812 27.026C116.663 27.026 116.42 27.026 116.084 27.026C115.757 27.026 115.365 27.026 114.908 27.026C114.46 27.026 113.979 27.026 113.466 27.026C112.953 27.026 112.444 27.026 111.94 27.026C111.436 27.026 110.965 27.026 110.526 27.026C110.087 27.026 109.719 27.026 109.42 27.026C109.121 27.026 108.925 27.026 108.832 27.026C108.571 27.026 108.309 27.0353 108.048 27.054C107.787 27.0633 107.516 27.082 107.236 27.11V25.836C107.479 25.8733 107.74 25.906 108.02 25.934C108.3 25.9527 108.571 25.962 108.832 25.962C108.925 25.962 109.126 25.962 109.434 25.962C109.742 25.962 110.115 25.962 110.554 25.962C111.002 25.962 111.487 25.962 112.01 25.962C112.533 25.962 113.051 25.962 113.564 25.962C114.087 25.962 114.577 25.962 115.034 25.962C115.491 25.962 115.879 25.962 116.196 25.962C116.523 25.962 116.747 25.962 116.868 25.962C116.961 25.962 117.069 25.962 117.19 25.962C117.321 25.9527 117.447 25.9387 117.568 25.92C117.689 25.9013 117.783 25.8873 117.848 25.878L118.534 26.536ZM112.948 28.384C112.948 29.14 112.925 29.8493 112.878 30.512C112.831 31.1747 112.738 31.7953 112.598 32.374C112.458 32.9527 112.243 33.4893 111.954 33.984C111.674 34.4693 111.296 34.9267 110.82 35.356C110.344 35.776 109.751 36.1633 109.042 36.518L108.006 35.678C108.202 35.6127 108.412 35.5287 108.636 35.426C108.86 35.314 109.07 35.188 109.266 35.048C109.817 34.7213 110.255 34.3527 110.582 33.942C110.909 33.5313 111.151 33.088 111.31 32.612C111.478 32.1267 111.59 31.618 111.646 31.086C111.711 30.5447 111.744 29.9847 111.744 29.406C111.744 29.2287 111.739 29.0607 111.73 28.902C111.73 28.7433 111.716 28.5707 111.688 28.384H112.948ZM126.262 27.936C126.327 28.076 126.411 28.286 126.514 28.566C126.617 28.8367 126.724 29.126 126.836 29.434C126.957 29.742 127.065 30.036 127.158 30.316C127.251 30.5867 127.321 30.8013 127.368 30.96L126.332 31.324C126.295 31.1653 126.229 30.9507 126.136 30.68C126.052 30.4093 125.954 30.12 125.842 29.812C125.73 29.4947 125.618 29.2007 125.506 28.93C125.394 28.6593 125.305 28.4447 125.24 28.286L126.262 27.936ZM131.33 28.72C131.283 28.86 131.241 28.9907 131.204 29.112C131.176 29.224 131.148 29.3267 131.12 29.42C130.933 30.1853 130.681 30.9367 130.364 31.674C130.047 32.402 129.636 33.0833 129.132 33.718C128.488 34.5393 127.76 35.2253 126.948 35.776C126.145 36.3267 125.352 36.7513 124.568 37.05L123.644 36.112C124.185 35.944 124.731 35.72 125.282 35.44C125.842 35.16 126.369 34.824 126.864 34.432C127.368 34.04 127.811 33.606 128.194 33.13C128.53 32.7193 128.829 32.2573 129.09 31.744C129.361 31.2307 129.585 30.6847 129.762 30.106C129.939 29.5273 130.061 28.9393 130.126 28.342L131.33 28.72ZM123.014 28.636C123.089 28.7947 123.182 29.0093 123.294 29.28C123.406 29.5507 123.523 29.8493 123.644 30.176C123.775 30.4933 123.896 30.8013 124.008 31.1C124.129 31.3893 124.223 31.6227 124.288 31.8L123.224 32.192C123.168 32.0147 123.084 31.7767 122.972 31.478C122.869 31.17 122.753 30.8527 122.622 30.526C122.491 30.1993 122.365 29.9007 122.244 29.63C122.132 29.3593 122.043 29.1633 121.978 29.042L123.014 28.636ZM144.77 25.948C144.77 26.2 144.859 26.4193 145.036 26.606C145.223 26.7833 145.442 26.872 145.694 26.872C145.955 26.872 146.175 26.7833 146.352 26.606C146.539 26.4193 146.632 26.2 146.632 25.948C146.632 25.6867 146.539 25.4673 146.352 25.29C146.175 25.1033 145.955 25.01 145.694 25.01C145.442 25.01 145.223 25.1033 145.036 25.29C144.859 25.4673 144.77 25.6867 144.77 25.948ZM144.126 25.948C144.126 25.6587 144.196 25.3973 144.336 25.164C144.485 24.9213 144.677 24.73 144.91 24.59C145.143 24.4407 145.405 24.366 145.694 24.366C145.983 24.366 146.245 24.4407 146.478 24.59C146.721 24.73 146.912 24.9213 147.052 25.164C147.201 25.3973 147.276 25.6587 147.276 25.948C147.276 26.2373 147.201 26.4987 147.052 26.732C146.912 26.9653 146.721 27.1567 146.478 27.306C146.245 27.446 145.983 27.516 145.694 27.516C145.405 27.516 145.143 27.446 144.91 27.306C144.677 27.1567 144.485 26.9653 144.336 26.732C144.196 26.4987 144.126 26.2373 144.126 25.948ZM145.344 26.886C145.297 26.9793 145.255 27.0867 145.218 27.208C145.19 27.32 145.162 27.446 145.134 27.586C145.059 27.95 144.961 28.356 144.84 28.804C144.719 29.252 144.569 29.714 144.392 30.19C144.224 30.6567 144.028 31.1093 143.804 31.548C143.58 31.9867 143.328 32.388 143.048 32.752C142.619 33.2933 142.143 33.7973 141.62 34.264C141.097 34.7307 140.5 35.1507 139.828 35.524C139.156 35.8973 138.391 36.2193 137.532 36.49L136.58 35.44C137.495 35.216 138.283 34.936 138.946 34.6C139.618 34.264 140.206 33.886 140.71 33.466C141.214 33.0367 141.657 32.5747 142.04 32.08C142.376 31.6507 142.665 31.17 142.908 30.638C143.16 30.0967 143.37 29.5553 143.538 29.014C143.706 28.4633 143.818 27.964 143.874 27.516C143.743 27.516 143.496 27.516 143.132 27.516C142.768 27.516 142.339 27.516 141.844 27.516C141.349 27.516 140.831 27.516 140.29 27.516C139.758 27.516 139.245 27.516 138.75 27.516C138.255 27.516 137.826 27.516 137.462 27.516C137.098 27.516 136.851 27.516 136.72 27.516C136.44 27.516 136.183 27.5207 135.95 27.53C135.717 27.5393 135.507 27.5487 135.32 27.558V26.312C135.451 26.3307 135.595 26.3493 135.754 26.368C135.913 26.3773 136.076 26.3867 136.244 26.396C136.412 26.4053 136.571 26.41 136.72 26.41C136.832 26.41 137.033 26.41 137.322 26.41C137.611 26.41 137.952 26.41 138.344 26.41C138.745 26.41 139.17 26.41 139.618 26.41C140.075 26.41 140.523 26.41 140.962 26.41C141.41 26.41 141.825 26.41 142.208 26.41C142.6 26.41 142.931 26.41 143.202 26.41C143.473 26.41 143.655 26.41 143.748 26.41C143.851 26.41 143.967 26.4053 144.098 26.396C144.229 26.3867 144.359 26.368 144.49 26.34L145.344 26.886ZM158.21 24.8C158.331 24.9587 158.462 25.1547 158.602 25.388C158.742 25.612 158.877 25.8407 159.008 26.074C159.139 26.3073 159.255 26.522 159.358 26.718L158.602 27.054C158.462 26.774 158.285 26.4473 158.07 26.074C157.855 25.7007 157.655 25.3833 157.468 25.122L158.21 24.8ZM159.75 24.24C159.871 24.408 160.002 24.6087 160.142 24.842C160.291 25.0753 160.436 25.3087 160.576 25.542C160.716 25.766 160.833 25.9667 160.926 26.144L160.17 26.48C160.021 26.172 159.839 25.8407 159.624 25.486C159.409 25.1313 159.204 24.8233 159.008 24.562L159.75 24.24ZM159.134 27.586C159.078 27.6793 159.022 27.8007 158.966 27.95C158.91 28.09 158.859 28.216 158.812 28.328C158.691 28.7947 158.513 29.308 158.28 29.868C158.056 30.4187 157.781 30.9787 157.454 31.548C157.127 32.108 156.754 32.6447 156.334 33.158C155.699 33.9327 154.939 34.6373 154.052 35.272C153.165 35.9067 152.069 36.4713 150.762 36.966L149.74 36.042C150.599 35.79 151.369 35.4867 152.05 35.132C152.731 34.768 153.343 34.3667 153.884 33.928C154.435 33.4893 154.92 33.0227 155.34 32.528C155.704 32.0987 156.035 31.6273 156.334 31.114C156.633 30.6007 156.889 30.0873 157.104 29.574C157.328 29.0513 157.482 28.58 157.566 28.16H152.386L152.834 27.152C152.946 27.152 153.156 27.152 153.464 27.152C153.772 27.152 154.122 27.152 154.514 27.152C154.915 27.152 155.312 27.152 155.704 27.152C156.096 27.152 156.437 27.152 156.726 27.152C157.015 27.152 157.207 27.152 157.3 27.152C157.487 27.152 157.655 27.1427 157.804 27.124C157.963 27.1053 158.098 27.0727 158.21 27.026L159.134 27.586ZM154.444 25.472C154.332 25.6587 154.22 25.8547 154.108 26.06C153.996 26.2653 153.903 26.4333 153.828 26.564C153.557 27.0773 153.212 27.6327 152.792 28.23C152.372 28.818 151.868 29.406 151.28 29.994C150.701 30.5727 150.039 31.1093 149.292 31.604L148.312 30.89C148.919 30.526 149.46 30.1387 149.936 29.728C150.421 29.308 150.841 28.8833 151.196 28.454C151.56 28.0247 151.868 27.614 152.12 27.222C152.372 26.8207 152.573 26.466 152.722 26.158C152.797 26.0367 152.876 25.8687 152.96 25.654C153.053 25.43 153.119 25.2247 153.156 25.038L154.444 25.472ZM164.608 35.552C164.664 35.44 164.701 35.3327 164.72 35.23C164.739 35.1273 164.748 35.006 164.748 34.866C164.748 34.726 164.748 34.4647 164.748 34.082C164.748 33.6993 164.748 33.242 164.748 32.71C164.748 32.178 164.748 31.6227 164.748 31.044C164.748 30.456 164.748 29.8867 164.748 29.336C164.748 28.776 164.748 28.2813 164.748 27.852C164.748 27.4133 164.748 27.082 164.748 26.858C164.748 26.7367 164.739 26.592 164.72 26.424C164.711 26.256 164.697 26.0973 164.678 25.948C164.669 25.7987 164.65 25.6773 164.622 25.584H166.008C165.98 25.752 165.957 25.9573 165.938 26.2C165.919 26.4333 165.91 26.6527 165.91 26.858C165.91 27.0447 165.91 27.3153 165.91 27.67C165.91 28.0247 165.91 28.4307 165.91 28.888C165.91 29.336 165.91 29.812 165.91 30.316C165.91 30.82 165.91 31.3147 165.91 31.8C165.91 32.2853 165.91 32.738 165.91 33.158C165.91 33.5687 165.91 33.9187 165.91 34.208C165.91 34.4973 165.91 34.6933 165.91 34.796C166.582 34.628 167.273 34.39 167.982 34.082C168.701 33.774 169.401 33.4147 170.082 33.004C170.773 32.584 171.417 32.1267 172.014 31.632C172.621 31.128 173.139 30.5913 173.568 30.022L174.198 31.002C173.293 32.1313 172.135 33.1207 170.726 33.97C169.326 34.8193 167.753 35.496 166.008 36C165.933 36.0187 165.845 36.0467 165.742 36.084C165.639 36.1307 165.532 36.1867 165.42 36.252L164.608 35.552ZM176.928 29.938C177.068 29.9473 177.241 29.9613 177.446 29.98C177.651 29.9893 177.875 29.9987 178.118 30.008C178.37 30.008 178.622 30.008 178.874 30.008C179.023 30.008 179.252 30.008 179.56 30.008C179.877 30.008 180.246 30.008 180.666 30.008C181.086 30.008 181.529 30.008 181.996 30.008C182.472 30.008 182.943 30.008 183.41 30.008C183.886 30.008 184.334 30.008 184.754 30.008C185.183 30.008 185.552 30.008 185.86 30.008C186.168 30.008 186.397 30.008 186.546 30.008C186.901 30.008 187.204 29.9987 187.456 29.98C187.708 29.9613 187.909 29.9473 188.058 29.938V31.31C187.918 31.3007 187.708 31.2867 187.428 31.268C187.157 31.2493 186.868 31.24 186.56 31.24C186.411 31.24 186.177 31.24 185.86 31.24C185.543 31.24 185.174 31.24 184.754 31.24C184.343 31.24 183.9 31.24 183.424 31.24C182.948 31.24 182.472 31.24 181.996 31.24C181.529 31.24 181.086 31.24 180.666 31.24C180.255 31.24 179.891 31.24 179.574 31.24C179.257 31.24 179.023 31.24 178.874 31.24C178.491 31.24 178.127 31.2493 177.782 31.268C177.437 31.2773 177.152 31.2913 176.928 31.31V29.938ZM198.684 25.92C198.805 26.088 198.945 26.298 199.104 26.55C199.263 26.7927 199.417 27.0447 199.566 27.306C199.725 27.5673 199.855 27.81 199.958 28.034L199.16 28.398C199.048 28.1553 198.922 27.9127 198.782 27.67C198.651 27.418 198.511 27.1753 198.362 26.942C198.222 26.6993 198.073 26.4753 197.914 26.27L198.684 25.92ZM200.378 25.22C200.499 25.3787 200.639 25.5793 200.798 25.822C200.966 26.0647 201.129 26.3167 201.288 26.578C201.447 26.8393 201.582 27.0773 201.694 27.292L200.91 27.684C200.789 27.4413 200.658 27.1987 200.518 26.956C200.378 26.7133 200.229 26.4753 200.07 26.242C199.921 26.0087 199.767 25.7893 199.608 25.584L200.378 25.22ZM193.77 34.95C193.77 34.8193 193.77 34.558 193.77 34.166C193.77 33.774 193.77 33.3073 193.77 32.766C193.77 32.2153 193.77 31.6367 193.77 31.03C193.77 30.4233 193.77 29.8353 193.77 29.266C193.77 28.6967 193.77 28.1927 193.77 27.754C193.77 27.3153 193.77 26.998 193.77 26.802C193.77 26.606 193.761 26.368 193.742 26.088C193.733 25.808 193.705 25.5607 193.658 25.346H195.044C195.016 25.5607 194.993 25.808 194.974 26.088C194.955 26.3587 194.946 26.5967 194.946 26.802C194.946 27.166 194.946 27.6047 194.946 28.118C194.946 28.622 194.946 29.1633 194.946 29.742C194.946 30.3113 194.946 30.8807 194.946 31.45C194.946 32.01 194.946 32.5373 194.946 33.032C194.946 33.5173 194.946 33.9327 194.946 34.278C194.946 34.614 194.946 34.838 194.946 34.95C194.946 35.09 194.946 35.2627 194.946 35.468C194.955 35.6733 194.969 35.874 194.988 36.07C195.007 36.2753 195.021 36.4527 195.03 36.602H193.686C193.714 36.378 193.733 36.112 193.742 35.804C193.761 35.496 193.77 35.2113 193.77 34.95ZM194.694 29.014C195.151 29.154 195.66 29.322 196.22 29.518C196.78 29.7047 197.345 29.9053 197.914 30.12C198.493 30.3347 199.039 30.554 199.552 30.778C200.075 30.9927 200.532 31.198 200.924 31.394L200.434 32.584C200.033 32.3693 199.58 32.15 199.076 31.926C198.581 31.702 198.068 31.4827 197.536 31.268C197.004 31.0533 196.491 30.862 195.996 30.694C195.511 30.526 195.077 30.3813 194.694 30.26V29.014ZM212.278 24.912C212.278 24.9587 212.269 25.0427 212.25 25.164C212.241 25.2853 212.231 25.4067 212.222 25.528C212.222 25.64 212.217 25.7287 212.208 25.794C212.199 25.9713 212.194 26.214 212.194 26.522C212.194 26.83 212.194 27.166 212.194 27.53C212.194 27.894 212.194 28.2627 212.194 28.636C212.203 29.0093 212.208 29.3593 212.208 29.686C212.217 30.0127 212.222 30.288 212.222 30.512L211.144 29.98C211.144 29.8493 211.144 29.6533 211.144 29.392C211.144 29.1213 211.144 28.8133 211.144 28.468C211.144 28.1133 211.139 27.7633 211.13 27.418C211.13 27.0727 211.125 26.7553 211.116 26.466C211.107 26.1767 211.097 25.9527 211.088 25.794C211.079 25.6073 211.065 25.43 211.046 25.262C211.027 25.0847 211.013 24.968 211.004 24.912H212.278ZM204.844 26.858C205.227 26.858 205.661 26.8533 206.146 26.844C206.631 26.8253 207.145 26.8067 207.686 26.788C208.237 26.7693 208.792 26.7553 209.352 26.746C209.912 26.7367 210.449 26.7273 210.962 26.718C211.485 26.7087 211.965 26.704 212.404 26.704C212.824 26.704 213.244 26.704 213.664 26.704C214.084 26.704 214.476 26.704 214.84 26.704C215.213 26.704 215.54 26.7087 215.82 26.718C216.109 26.718 216.338 26.718 216.506 26.718L216.492 27.754C216.1 27.7353 215.573 27.7213 214.91 27.712C214.257 27.6933 213.417 27.684 212.39 27.684C211.783 27.684 211.149 27.6933 210.486 27.712C209.833 27.7213 209.175 27.7353 208.512 27.754C207.849 27.7727 207.205 27.8007 206.58 27.838C205.964 27.866 205.395 27.8987 204.872 27.936L204.844 26.858ZM212.194 30.932C212.194 31.548 212.101 32.066 211.914 32.486C211.737 32.906 211.485 33.2187 211.158 33.424C210.841 33.6293 210.467 33.732 210.038 33.732C209.749 33.732 209.464 33.6853 209.184 33.592C208.913 33.4893 208.666 33.34 208.442 33.144C208.227 32.9387 208.055 32.6913 207.924 32.402C207.803 32.1033 207.742 31.7673 207.742 31.394C207.742 30.9273 207.854 30.512 208.078 30.148C208.302 29.784 208.601 29.4947 208.974 29.28C209.357 29.0653 209.767 28.958 210.206 28.958C210.757 28.958 211.209 29.084 211.564 29.336C211.928 29.5787 212.203 29.9147 212.39 30.344C212.577 30.764 212.67 31.2447 212.67 31.786C212.67 32.2527 212.6 32.7287 212.46 33.214C212.329 33.6993 212.105 34.166 211.788 34.614C211.48 35.062 211.055 35.4727 210.514 35.846C209.982 36.21 209.305 36.5133 208.484 36.756L207.546 35.832C208.181 35.6827 208.75 35.4913 209.254 35.258C209.758 35.0247 210.183 34.74 210.528 34.404C210.873 34.068 211.135 33.676 211.312 33.228C211.499 32.78 211.592 32.2667 211.592 31.688C211.592 31.0533 211.457 30.596 211.186 30.316C210.915 30.036 210.589 29.896 210.206 29.896C209.963 29.896 209.735 29.9567 209.52 30.078C209.305 30.19 209.128 30.358 208.988 30.582C208.857 30.806 208.792 31.072 208.792 31.38C208.792 31.8187 208.932 32.1593 209.212 32.402C209.501 32.6447 209.837 32.766 210.22 32.766C210.509 32.766 210.757 32.6867 210.962 32.528C211.167 32.36 211.312 32.1127 211.396 31.786C211.489 31.45 211.499 31.0347 211.424 30.54L212.194 30.932ZM220.832 25.682C220.991 25.7007 221.159 25.7147 221.336 25.724C221.523 25.7333 221.686 25.738 221.826 25.738C221.966 25.738 222.195 25.7333 222.512 25.724C222.839 25.7147 223.203 25.7053 223.604 25.696C224.015 25.6773 224.421 25.6633 224.822 25.654C225.233 25.6353 225.597 25.6167 225.914 25.598C226.241 25.5793 226.479 25.5653 226.628 25.556C226.833 25.5373 226.992 25.5187 227.104 25.5C227.216 25.4813 227.309 25.4627 227.384 25.444L228.028 26.256C227.907 26.34 227.776 26.4287 227.636 26.522C227.505 26.6153 227.375 26.718 227.244 26.83C227.067 26.9607 226.829 27.152 226.53 27.404C226.231 27.6467 225.9 27.922 225.536 28.23C225.181 28.5287 224.831 28.8227 224.486 29.112C224.141 29.4013 223.828 29.6627 223.548 29.896C223.875 29.784 224.201 29.7093 224.528 29.672C224.864 29.6253 225.186 29.602 225.494 29.602C226.269 29.602 226.955 29.7467 227.552 30.036C228.159 30.316 228.63 30.7033 228.966 31.198C229.311 31.6927 229.484 32.2573 229.484 32.892C229.484 33.6387 229.288 34.292 228.896 34.852C228.504 35.412 227.949 35.8413 227.23 36.14C226.511 36.448 225.657 36.602 224.668 36.602C224.033 36.602 223.487 36.518 223.03 36.35C222.573 36.182 222.218 35.9487 221.966 35.65C221.723 35.3513 221.602 35.006 221.602 34.614C221.602 34.2967 221.691 33.998 221.868 33.718C222.045 33.438 222.297 33.214 222.624 33.046C222.951 32.878 223.329 32.794 223.758 32.794C224.383 32.794 224.901 32.9247 225.312 33.186C225.723 33.438 226.04 33.774 226.264 34.194C226.488 34.6047 226.614 35.048 226.642 35.524L225.634 35.692C225.597 35.0947 225.41 34.6047 225.074 34.222C224.747 33.83 224.304 33.634 223.744 33.634C223.427 33.634 223.161 33.7227 222.946 33.9C222.731 34.0773 222.624 34.2873 222.624 34.53C222.624 34.866 222.797 35.132 223.142 35.328C223.487 35.524 223.935 35.622 224.486 35.622C225.279 35.622 225.965 35.5147 226.544 35.3C227.132 35.0853 227.58 34.7727 227.888 34.362C228.205 33.9513 228.364 33.4567 228.364 32.878C228.364 32.4207 228.229 32.01 227.958 31.646C227.687 31.282 227.314 30.9973 226.838 30.792C226.371 30.5773 225.835 30.47 225.228 30.47C224.64 30.47 224.113 30.5353 223.646 30.666C223.179 30.7873 222.741 30.9647 222.33 31.198C221.929 31.4313 221.527 31.7253 221.126 32.08C220.734 32.4253 220.314 32.822 219.866 33.27L219.068 32.444C219.357 32.2107 219.675 31.9493 220.02 31.66C220.375 31.3613 220.729 31.0673 221.084 30.778C221.439 30.4793 221.765 30.204 222.064 29.952C222.372 29.6907 222.629 29.476 222.834 29.308C223.03 29.1493 223.273 28.9487 223.562 28.706C223.861 28.454 224.169 28.1927 224.486 27.922C224.803 27.6513 225.102 27.3947 225.382 27.152C225.671 26.9093 225.905 26.7133 226.082 26.564C225.933 26.564 225.713 26.5733 225.424 26.592C225.135 26.6013 224.813 26.6153 224.458 26.634C224.103 26.6433 223.749 26.6573 223.394 26.676C223.049 26.6947 222.731 26.7133 222.442 26.732C222.162 26.7413 221.947 26.7507 221.798 26.76C221.649 26.7693 221.495 26.7787 221.336 26.788C221.177 26.7973 221.023 26.816 220.874 26.844L220.832 25.682ZM242.896 27.642C242.737 27.7447 242.569 27.8427 242.392 27.936C242.215 28.0293 242.023 28.1273 241.818 28.23C241.585 28.3607 241.295 28.51 240.95 28.678C240.605 28.846 240.236 29.0327 239.844 29.238C239.452 29.4433 239.06 29.658 238.668 29.882C238.276 30.106 237.907 30.33 237.562 30.554C236.909 30.974 236.395 31.4173 236.022 31.884C235.658 32.3507 235.476 32.85 235.476 33.382C235.476 33.9607 235.751 34.4227 236.302 34.768C236.862 35.104 237.693 35.272 238.794 35.272C239.307 35.272 239.839 35.2533 240.39 35.216C240.941 35.1693 241.468 35.1087 241.972 35.034C242.485 34.9593 242.919 34.88 243.274 34.796V36.042C242.929 36.1073 242.518 36.1633 242.042 36.21C241.575 36.266 241.071 36.308 240.53 36.336C239.989 36.3733 239.429 36.392 238.85 36.392C238.187 36.392 237.581 36.336 237.03 36.224C236.479 36.1213 235.999 35.958 235.588 35.734C235.187 35.51 234.874 35.216 234.65 34.852C234.426 34.4787 234.314 34.0307 234.314 33.508C234.314 32.9947 234.421 32.5233 234.636 32.094C234.851 31.6553 235.159 31.24 235.56 30.848C235.961 30.456 236.437 30.078 236.988 29.714C237.343 29.4713 237.721 29.238 238.122 29.014C238.533 28.7807 238.934 28.5567 239.326 28.342C239.718 28.1273 240.082 27.9313 240.418 27.754C240.763 27.5767 241.053 27.4273 241.286 27.306C241.482 27.1847 241.659 27.0773 241.818 26.984C241.977 26.8813 242.131 26.7693 242.28 26.648L242.896 27.642ZM235.812 25.108C236.027 25.7053 236.255 26.2887 236.498 26.858C236.75 27.4273 237.002 27.9593 237.254 28.454C237.515 28.9487 237.753 29.3873 237.968 29.77L237.002 30.344C236.769 29.9613 236.521 29.5087 236.26 28.986C235.999 28.4633 235.737 27.908 235.476 27.32C235.215 26.732 234.958 26.1487 234.706 25.57L235.812 25.108Z" fill="white"/>
<path d="M67.72 56.8V54.24H66.2V56.8H67.72ZM67.72 61.46V58.92H66.2V61.46H67.72ZM59.32 58.92V61.46H60.76V58.92H59.32ZM64.22 58.92H62.74V61.46H64.22V58.92ZM62.74 56.8H64.22V54.24H62.74V56.8ZM59.32 54.24V56.8H60.76V54.24H59.32ZM57.22 56.8V55.36C56.82 55.74 56.44 56.1 56.04 56.4C55.6 55.98 54.64 55.22 54.1 54.84C55.78 53.74 57.36 51.92 58.24 50.06L60.56 50.74C60.34 51.22 60.08 51.68 59.78 52.14H71.78V54.24H69.9V56.8H72.5V58.92H69.9V61.46H72.22V63.58H54.84V61.46H57.22V58.92H54.54V56.8H57.22ZM56.6 68.76L54.34 67.84C55.22 67 56.12 65.46 56.58 64L58.88 64.56C58.44 66.08 57.58 67.72 56.6 68.76ZM60.16 64.7L62.36 64.44C62.6 65.66 62.84 67.24 62.86 68.18L60.54 68.52C60.54 67.56 60.38 65.92 60.16 64.7ZM64.12 64.74L66.36 64.36C66.84 65.54 67.34 67.1 67.52 68.08L65.14 68.54C65.02 67.58 64.56 65.96 64.12 64.74ZM68.08 64.64L70.36 63.92C71.26 65.14 72.38 66.82 72.88 67.92L70.44 68.74C70.02 67.68 68.96 65.92 68.08 64.64ZM87.88 53.56L86.66 55.34C86.04 54.56 84.66 53.48 83.56 52.74L84.7 51.14C85.82 51.8 87.24 52.82 87.88 53.56ZM82.64 57.76L83.76 56.06C84.92 56.68 86.4 57.64 87.12 58.36L85.92 60.26C85.26 59.52 83.8 58.46 82.64 57.76ZM80.84 51.16L82.84 51.6C82.32 53.2 81.74 55.1 81.24 56.26L79.74 55.84C80.14 54.58 80.62 52.56 80.84 51.16ZM76.96 55.84L75.18 56.32C75.14 55.08 74.74 53.14 74.28 51.7L75.94 51.26C76.46 52.7 76.86 54.6 76.96 55.84ZM82.42 62.42L80.96 64.26C80.66 63.62 80.1 62.58 79.52 61.66V68.68H77.32V61.62C76.68 63.48 75.88 65.34 75.02 66.54C74.82 65.82 74.3 64.74 73.94 64.08C74.94 62.86 75.96 60.72 76.58 58.9H74.3V56.68H77.32V50.14H79.52V56.68H82.48V58.9H79.52V59.04C80.1 59.62 82 61.86 82.42 62.42ZM93 62.88L90.6 63.32V68.72H88.36V63.72L82.78 64.72L82.42 62.5L88.36 61.44V50.04H90.6V61.04L92.64 60.66L93 62.88ZM102.22 50.76C102.16 51.12 102.08 51.98 102.04 52.5C102.02 52.94 102 53.42 101.98 53.92C103.3 53.76 104.62 53.5 105.66 53.2L105.72 55.68C104.58 55.94 103.2 56.14 101.9 56.3C101.88 56.9 101.88 57.52 101.88 58.1C101.88 58.34 101.88 58.58 101.88 58.84C103.24 58.5 104.62 58.32 105.72 58.32C108.8 58.32 111.22 59.92 111.22 62.68C111.22 65.04 109.98 66.82 106.8 67.62C105.88 67.82 105 67.88 104.18 67.94L103.26 65.36C104.16 65.36 105.02 65.34 105.72 65.22C107.34 64.92 108.62 64.12 108.62 62.66C108.62 61.3 107.42 60.5 105.68 60.5C104.44 60.5 103.14 60.7 101.92 61.06C101.96 62.64 102 64.2 102 64.88C102 67.36 101.12 68.02 99.8 68.02C97.86 68.02 95.12 66.34 95.12 64.22C95.12 62.48 97.12 60.66 99.58 59.6C99.56 59.12 99.56 58.64 99.56 58.18C99.56 57.62 99.56 57.06 99.56 56.5C99.18 56.52 98.82 56.54 98.5 56.54C97.16 56.54 96.38 56.52 95.7 56.44L95.66 54.02C96.84 54.16 97.7 54.18 98.42 54.18C98.78 54.18 99.18 54.16 99.58 54.14C99.6 53.44 99.6 52.86 99.6 52.52C99.6 52.1 99.52 51.12 99.46 50.76H102.22ZM107.92 52.92C109.46 53.66 111.78 54.98 112.84 55.74L111.64 57.78C110.68 56.96 108.06 55.46 106.82 54.86L107.92 52.92ZM97.58 64.12C97.58 64.74 98.52 65.28 99.04 65.28C99.4 65.28 99.68 65.12 99.68 64.44C99.68 63.94 99.66 63.02 99.62 61.94C98.4 62.6 97.58 63.42 97.58 64.12ZM120.82 50.68V52.48H115.12V50.68H120.82ZM121.4 53.36V55.24H114.16V53.36H121.4ZM118.92 63.52H116.96V65.82H118.92V63.52ZM120.9 61.64V67.68H116.96V68.46H115V61.64H120.9ZM115.06 60.66V58.88H120.94V60.66H115.06ZM115.06 57.96V56.14H120.94V57.96H115.06ZM125.56 64.72L127.58 64.36L127.74 66.32C125.68 66.78 123.5 67.24 121.78 67.6L121.3 65.42C121.9 65.34 122.6 65.22 123.36 65.1V60.2H121.68V58.16H127.12V60.2H125.56V64.72ZM132.62 56H129.68C129.82 61.72 130.28 65.74 131.04 65.8C131.3 65.8 131.46 64.88 131.54 63.38C131.9 63.9 132.84 64.56 133.2 64.8C132.68 68.06 131.68 68.76 130.94 68.74C128.46 68.68 127.72 63.96 127.48 56H121.7V53.84H127.42C127.4 52.64 127.38 51.4 127.38 50.08H129.66V51.08L131.26 50.26C131.9 51 132.64 52.02 132.98 52.7L131.26 53.66C130.96 52.98 130.28 51.92 129.66 51.14C129.64 52.06 129.64 52.96 129.66 53.84H132.62V56ZM140.92 51.14C140.8 51.98 140.7 53 140.66 53.8C140.58 55.96 140.42 60.44 140.42 62.92C140.42 64.94 141.62 65.6 143.18 65.6C146.48 65.6 148.58 63.7 150.02 61.52L151.84 63.72C150.56 65.64 147.72 68.32 143.16 68.32C139.88 68.32 137.76 66.88 137.76 63.46C137.76 60.78 137.96 55.52 137.96 53.8C137.96 52.86 137.88 51.9 137.7 51.1L140.92 51.14ZM158.1 60.56V61.92H160.58V60.56H158.1ZM160.58 54.5H158.1V55.66H160.58V54.5ZM158.1 57.48V58.74H160.58V57.48H158.1ZM163.98 61.92V64H154.16V61.92H155.96V54.5H154.4V52.42H155.96V50.3H158.1V52.42H160.58V50.3H162.76V52.42H164.12V54.5H162.76V61.92H163.98ZM156.64 64.14L158.86 64.8C158.16 66.26 156.98 67.82 155.9 68.8C155.46 68.38 154.54 67.7 154 67.38C155.04 66.6 156.08 65.34 156.64 64.14ZM167 60H169.9V57.54H167.02V58.28C167.02 58.8 167.02 59.38 167 60ZM169.9 53.1H167.02V55.44H169.9V53.1ZM172.2 50.94V66.1C172.2 67.28 171.98 67.9 171.28 68.28C170.58 68.66 169.56 68.72 168.08 68.7C168 68.08 167.7 67.04 167.4 66.44C168.26 66.5 169.22 66.48 169.5 66.48C169.8 66.48 169.9 66.38 169.9 66.06V62.12H166.86C166.64 64.48 166.14 66.98 165.06 68.78C164.68 68.36 163.7 67.64 163.18 67.44C163.24 67.32 163.32 67.22 163.38 67.1L161.72 68.04C161.32 67.26 160.36 65.94 159.58 65.02L161.38 64.04C162.1 64.84 163.04 65.94 163.54 66.76C164.7 64.26 164.8 60.88 164.8 58.28V50.94H172.2ZM180.56 52.54H177.48V53.6H180.56V52.54ZM177.48 56.34H180.56V55.2H177.48V56.34ZM182.78 58.04H177.48V68.74H175.12V50.82H182.78V58.04ZM186.42 56.38H189.6V55.2H186.42V56.38ZM189.6 52.54H186.42V53.6H189.6V52.54ZM181.8 65.14H185.1V63.9H181.8V65.14ZM185.1 62.2V61H181.8V62.2H185.1ZM192 50.82V65.92C192 67.2 191.74 67.9 190.94 68.28C190.16 68.68 189 68.74 187.28 68.74C187.22 68.24 187 67.5 186.76 66.88H181.8V67.9H179.64V59.26H180.62V59.24L187.34 59.26V66.34C188.12 66.36 188.86 66.36 189.12 66.34C189.48 66.34 189.6 66.22 189.6 65.9V58.08H184.16V50.82H192ZM202.6 51.34C202.48 51.86 202.34 52.5 202.24 53C202.12 53.6 201.96 54.34 201.82 55.06C202.5 55.02 203.08 54.98 203.5 54.98C205.62 54.98 207.12 55.92 207.12 58.8C207.12 61.16 206.84 64.4 205.98 66.14C205.32 67.54 204.22 67.98 202.7 67.98C201.94 67.98 200.98 67.84 200.3 67.7L199.88 65.06C200.64 65.28 201.8 65.48 202.32 65.48C203 65.48 203.5 65.28 203.82 64.62C204.36 63.48 204.64 61.06 204.64 59.08C204.64 57.48 203.94 57.26 202.7 57.26C202.38 57.26 201.88 57.3 201.3 57.34C200.54 60.38 199.06 65.12 197.22 68.06L194.62 67.02C196.56 64.4 197.94 60.36 198.68 57.62C197.96 57.7 197.32 57.78 196.96 57.82C196.38 57.92 195.34 58.06 194.72 58.16L194.48 55.44C195.22 55.5 195.88 55.46 196.62 55.44C197.24 55.42 198.18 55.36 199.2 55.26C199.48 53.76 199.66 52.3 199.62 51.04L202.6 51.34ZM211.5 49.68C212.02 50.44 212.76 51.7 213.1 52.4L211.52 53.08C211.1 52.26 210.46 51.08 209.9 50.32L211.5 49.68ZM209.12 50.58C209.62 51.32 210.34 52.58 210.72 53.32L209.74 53.74C210.94 55.6 212.44 58.94 213 60.72L210.46 61.88C209.94 59.66 208.52 56.14 207.1 54.38L208.9 53.6C208.5 52.84 208 51.88 207.54 51.24L209.12 50.58Z" fill="white"/>
<path d="M20.0678 104.64H18.0518V105.696H20.0678V104.64ZM22.9598 105.696V104.64H20.8718V105.696H22.9598ZM20.8718 107.448H22.9598V106.356H20.8718V107.448ZM18.0518 107.448H20.0678V106.356H18.0518V107.448ZM18.0518 108.132V110.124H17.2118V103.956H20.6318C19.9238 103.608 19.0718 103.224 18.3518 102.96L18.9158 102.456C19.4318 102.636 20.0198 102.876 20.5838 103.116C21.1598 102.864 21.7478 102.516 22.2278 102.168H17.2238V101.46H23.0798L23.2478 101.412L23.7998 101.832C23.1638 102.432 22.2638 103.032 21.3758 103.476C21.7238 103.644 22.0358 103.812 22.2998 103.956H23.8118V109.236C23.8118 109.668 23.7158 109.884 23.4038 110.016C23.0918 110.136 22.5878 110.148 21.7838 110.148C21.7478 109.932 21.6398 109.62 21.5318 109.416C22.0958 109.44 22.6118 109.428 22.7558 109.428C22.9118 109.428 22.9598 109.38 22.9598 109.224V108.132H20.8718V110.076H20.0678V108.132H18.0518ZM16.2398 103.164L15.5798 103.776C15.2078 103.188 14.3438 102.348 13.5878 101.784L14.2118 101.232C14.9678 101.772 15.8558 102.576 16.2398 103.164ZM15.9758 105.66V109.512C16.5518 110.412 17.5838 110.808 18.9878 110.856C20.2958 110.916 23.0318 110.88 24.4598 110.784C24.3638 110.988 24.2318 111.396 24.1838 111.66C22.8518 111.72 20.3078 111.744 18.9878 111.684C17.4158 111.624 16.3358 111.204 15.6038 110.256C14.9918 110.784 14.3558 111.3 13.6718 111.804L13.2397 110.94C13.8158 110.58 14.4998 110.076 15.1118 109.584V106.5H13.3838V105.66H15.9758ZM28.6118 105.12V106.296H33.1358V105.12H28.6118ZM35.1278 107.952V110.46C35.1278 110.928 35.0318 111.168 34.6598 111.3C34.2878 111.444 33.6878 111.444 32.7638 111.444C32.7158 111.192 32.5718 110.868 32.4518 110.628C33.1718 110.652 33.8078 110.652 33.9878 110.64C34.1678 110.628 34.2278 110.592 34.2278 110.448V108.768H31.4438V111.924H30.5438V108.768H27.5798V111.384H26.6918V107.952H30.5438V106.968H27.7598V104.448H34.0238V106.968H31.4438V107.952H35.1278ZM33.9638 101.052L34.8878 101.376C34.4918 101.904 34.0358 102.456 33.6878 102.816L32.9678 102.516C33.3038 102.12 33.7358 101.484 33.9638 101.052ZM35.8598 102.816V105.372H34.9838V103.596H26.7638V105.372H25.9118V102.816H27.8318C27.6518 102.42 27.2558 101.832 26.8958 101.4L27.6878 101.076C28.0838 101.496 28.5038 102.084 28.7078 102.48L27.9638 102.816H30.4718V100.956H31.3718V102.816H35.8598ZM40.0117 111.156C38.6318 111.156 37.7678 110.58 37.1918 109.956L37.7438 109.236C38.2598 109.776 38.9318 110.244 39.9277 110.244C40.9718 110.244 41.7158 109.62 41.7158 108.6C41.7158 107.556 41.0078 106.848 38.9798 106.848V106.008C40.7918 106.008 41.4158 105.276 41.4158 104.328C41.4158 103.488 40.8398 102.936 39.9277 102.936C39.2198 102.936 38.5958 103.284 38.1038 103.788L37.5158 103.092C38.1758 102.48 38.9558 102.036 39.9758 102.036C41.4518 102.036 42.5318 102.852 42.5318 104.244C42.5318 105.312 41.8958 106.02 40.9718 106.368V106.416C42.0038 106.656 42.8318 107.448 42.8318 108.648C42.8318 110.22 41.5718 111.156 40.0117 111.156ZM46.836 111.156C45.156 111.156 44.088 109.632 44.088 106.572C44.088 103.512 45.156 102.036 46.836 102.036C48.504 102.036 49.572 103.524 49.572 106.572C49.572 109.632 48.504 111.156 46.836 111.156ZM46.836 110.28C47.832 110.28 48.504 109.164 48.504 106.572C48.504 104.004 47.832 102.912 46.836 102.912C45.828 102.912 45.156 104.004 45.156 106.572C45.156 109.164 45.828 110.28 46.836 110.28ZM53.2163 110.124H59.1683V106.776H53.2163V110.124ZM59.1683 102.66H53.2163V105.9H59.1683V102.66ZM52.3163 101.784H60.1043V111.732H59.1683V111H53.2163V111.78H52.3163V101.784ZM66.7523 102.168H64.1603V103.164H66.7523V102.168ZM64.1603 104.88H66.7523V103.824H64.1603V104.88ZM67.6043 105.564H64.1603V111.924H63.2723V101.472H67.6043V105.564ZM69.5363 107.16H66.7163V108.264H69.5363V107.16ZM66.7163 110.1H69.5363V108.936H66.7163V110.1ZM70.3643 110.808H66.7163V111.408H65.9123V106.464H70.3643V110.808ZM69.5243 104.892H72.2123V103.824H69.5243V104.892ZM72.2123 102.168H69.5243V103.164H72.2123V102.168ZM73.1123 101.472V110.736C73.1123 111.3 72.9803 111.6 72.5843 111.756C72.2003 111.9 71.5643 111.912 70.5683 111.912C70.5323 111.66 70.3883 111.24 70.2563 111C70.9883 111.036 71.7203 111.024 71.9363 111.012C72.1403 111.012 72.2123 110.94 72.2123 110.724V105.576H68.6723V101.472H73.1123ZM30.396 122.8C30.396 125.32 28.74 127 25.896 127.372L25.332 126.484C25.716 126.448 26.088 126.388 26.364 126.328C27.9 125.98 29.412 124.84 29.412 122.764C29.412 120.952 28.248 119.452 26.208 119.284C26.052 120.4 25.824 121.624 25.488 122.74C24.756 125.212 23.808 126.472 22.692 126.472C21.624 126.472 20.556 125.248 20.556 123.268C20.556 120.664 22.872 118.384 25.8 118.384C28.608 118.384 30.396 120.364 30.396 122.8ZM21.492 123.184C21.492 124.696 22.188 125.368 22.728 125.368C23.292 125.368 23.928 124.564 24.54 122.536C24.84 121.54 25.08 120.4 25.212 119.296C22.908 119.584 21.492 121.552 21.492 123.184ZM35.196 117.664C35.676 118.984 36.276 120.28 36.804 121.228C37.932 120.544 39.228 119.908 39.888 119.548C40.236 119.344 40.488 119.188 40.74 118.984L41.268 119.836C40.992 120.004 40.692 120.16 40.344 120.34C39.528 120.76 37.872 121.552 36.696 122.332C35.58 123.052 34.908 123.844 34.908 124.756C34.908 125.752 35.856 126.376 37.752 126.376C39.06 126.376 40.656 126.208 41.592 125.968V127.036C40.68 127.192 39.3 127.336 37.8 127.336C35.544 127.336 33.912 126.664 33.912 124.864C33.912 123.628 34.704 122.656 35.988 121.756C35.436 120.772 34.8 119.368 34.248 118.06L35.196 117.664ZM46.32 118.576C47.184 118.684 48.288 118.732 49.488 118.732C50.64 118.732 51.864 118.648 52.728 118.564V119.548C51.912 119.608 50.604 119.692 49.488 119.692C48.288 119.692 47.268 119.632 46.32 119.56V118.576ZM46.8 123.412C46.644 123.892 46.548 124.336 46.548 124.78C46.548 125.692 47.484 126.328 49.404 126.328C51.06 126.328 52.608 126.148 53.508 125.848L53.52 126.88C52.656 127.12 51.132 127.3 49.428 127.3C46.992 127.3 45.576 126.496 45.576 124.984C45.576 124.372 45.72 123.808 45.828 123.316L46.8 123.412ZM58.284 118.24C58.5 118.264 58.8 118.276 59.124 118.276C59.76 118.276 62.496 118.216 63.252 118.168C63.456 118.144 63.744 118.108 63.924 118.06L64.5 118.756C64.344 118.84 64.092 119.008 63.972 119.104C63.084 119.848 61.644 121.024 60.648 121.84C61.296 121.6 61.884 121.516 62.364 121.516C64.356 121.516 65.724 122.632 65.724 124.264C65.724 126.556 63.456 127.804 59.484 127.48L59.22 126.508C62.544 126.916 64.716 126.028 64.716 124.252C64.716 123.1 63.732 122.308 62.196 122.308C60.12 122.308 59.028 123.364 57.528 124.804L56.796 124.06C58.548 122.692 61.716 120.04 62.736 118.996C62.004 119.032 59.76 119.128 59.16 119.164C58.896 119.176 58.56 119.212 58.308 119.248L58.284 118.24Z" fill="white"/>
<path d="M80.4324 109.38C80.4324 104.82 81.1524 100.84 82.5924 97.44C84.0324 94.04 86.0524 91.42 88.6524 89.58C91.2924 87.7 94.3724 86.76 97.8924 86.76C102.532 86.76 106.652 88.34 110.252 91.5L107.252 98.22C105.772 96.7 104.352 95.62 102.992 94.98C101.632 94.3 100.152 93.96 98.5524 93.96C95.5124 93.96 93.1524 95.1 91.4724 97.38C89.7924 99.66 88.8724 103 88.7124 107.4C90.3924 103.72 93.6124 101.88 98.3724 101.88C100.892 101.88 103.112 102.46 105.032 103.62C106.952 104.78 108.452 106.38 109.532 108.42C110.612 110.42 111.152 112.76 111.152 115.44C111.152 118.28 110.512 120.78 109.232 122.94C107.992 125.1 106.252 126.8 104.012 128.04C101.812 129.24 99.2324 129.84 96.2724 129.84C91.2724 129.84 87.3724 128.06 84.5724 124.5C81.8124 120.9 80.4324 115.86 80.4324 109.38ZM89.7324 115.8C89.7324 117.92 90.3324 119.66 91.5324 121.02C92.7724 122.38 94.3524 123.06 96.2724 123.06C98.2324 123.06 99.8324 122.38 101.072 121.02C102.312 119.66 102.932 117.9 102.932 115.74C102.932 113.62 102.332 111.9 101.132 110.58C99.9324 109.26 98.3324 108.6 96.3324 108.6C94.3724 108.6 92.7724 109.26 91.5324 110.58C90.3324 111.9 89.7324 113.64 89.7324 115.8ZM115.936 108.3C115.936 103.78 116.596 99.92 117.916 96.72C119.236 93.52 121.116 91.06 123.556 89.34C126.036 87.62 128.956 86.76 132.316 86.76C135.716 86.76 138.636 87.62 141.076 89.34C143.556 91.06 145.456 93.52 146.776 96.72C148.136 99.92 148.816 103.78 148.816 108.3C148.816 112.82 148.136 116.7 146.776 119.94C145.456 123.14 143.556 125.6 141.076 127.32C138.636 129 135.716 129.84 132.316 129.84C128.956 129.84 126.036 128.98 123.556 127.26C121.116 125.54 119.236 123.08 117.916 119.88C116.596 116.64 115.936 112.78 115.936 108.3ZM124.696 108.3C124.696 112.66 125.356 116.02 126.676 118.38C127.996 120.74 129.876 121.92 132.316 121.92C134.796 121.92 136.696 120.74 138.016 118.38C139.336 115.98 139.996 112.64 139.996 108.36C139.996 104 139.316 100.64 137.956 98.28C136.636 95.88 134.756 94.68 132.316 94.68C129.876 94.68 127.996 95.86 126.676 98.22C125.356 100.58 124.696 103.94 124.696 108.3Z" fill="#F53A3A"/>
<path d="M153.328 100.264H175.672V124.652H153.328V100.264ZM157.668 110.26H171.248V104.408H157.668V110.26ZM157.668 114.292V120.508H171.248V114.292H157.668ZM198.688 121.516H200.032C200.788 121.516 200.872 121.208 200.872 120.592V110.848H193.228V100.096H204.848V122.524C204.848 124.568 203.644 125.492 202.356 125.492H197.036L196.616 122.944H186.228V112.08H198.688V121.516ZM180.152 100.096H191.52V110.848H184.072V125.492H180.152V100.096ZM200.872 102.952H197.036V104.24H200.872V102.952ZM187.712 102.952H184.072V104.24H187.712V102.952ZM200.872 106.648H197.036V107.964H200.872V106.648ZM187.712 106.648H184.072V107.964H187.712V106.648ZM194.908 114.936H189.98V116.252H194.908V114.936ZM194.908 118.52H189.98V119.892H194.908V118.52ZM210.28 101.188L214.648 101.44C213.836 105.444 213.416 109.868 213.416 113.956C213.416 116.952 213.752 120.424 214.256 123.616L209.86 124.036C209.384 120.76 209.104 117.316 209.104 113.956C209.104 109.644 209.58 105.276 210.28 101.188ZM217.784 107.292L217.728 103.176C222.264 102.7 226.324 102.616 231.224 102.812L231.168 106.9C226.548 106.732 222.264 106.844 217.784 107.292ZM217.728 113.62L221.732 114.572C221.228 115.272 221.06 116 221.06 116.812C221.06 118.436 222.628 119.136 225.932 119.136C228.256 119.136 229.88 119.024 232.036 118.716L231.728 122.804C229.936 123 227.92 123.14 225.988 123.14C224.056 123.14 222.012 122.972 220.416 122.44C218.064 121.684 216.664 119.92 216.664 117.512C216.664 116.252 217.168 114.712 217.728 113.62ZM237.308 121.096C237.308 119.304 238.736 117.96 240.5 117.96C242.32 117.96 243.692 119.304 243.692 121.096C243.692 122.86 242.32 124.204 240.5 124.204C238.736 124.204 237.308 122.86 237.308 121.096ZM242.628 115.496H238.428L238.036 101.132H243.02L242.628 115.496Z" fill="#F53A3A"/>
<path d="M6.70809 177.357L1.20009 163.842H3.47809L9.00309 177.357H6.70809ZM28.2266 165.423L28.6176 167.412C27.3256 167.667 25.9656 167.854 24.6226 167.973C25.1496 169.401 25.9996 170.795 27.0196 172.053L24.8436 173.056C23.8236 171.747 22.8376 169.877 22.2596 168.126C20.0326 168.211 17.5846 168.228 14.7286 168.075L14.7626 166.052C17.3976 166.188 19.7436 166.205 21.7326 166.137C21.5456 165.185 21.3926 164.267 21.2906 163.315L23.5686 163.145C23.6706 164.233 23.8236 165.049 24.0446 165.984C25.5066 165.882 26.8156 165.712 28.2266 165.423ZM19.7606 175.283C20.4406 175.47 21.2736 175.555 22.3276 175.555C23.5346 175.555 24.9456 175.487 26.3396 175.283L26.0336 177.391C24.7756 177.527 23.3986 177.578 22.1916 177.578C21.1546 177.578 20.1176 177.459 19.1656 177.255C17.3126 176.864 15.6126 175.742 15.6126 173.6C15.6126 172.716 15.8846 171.917 16.3096 171.22L18.4006 171.781C18.0096 172.325 17.8396 172.835 17.8396 173.396C17.8396 174.467 18.6556 175.045 19.7606 175.283ZM35.5536 165.066L36.0126 163.145C38.7496 163.485 40.9936 163.927 43.1526 164.607L42.6256 166.511C40.4666 165.814 38.2056 165.389 35.5536 165.066ZM34.3636 173.209L32.5956 172.733C33.0206 170.03 33.5136 167.599 33.9726 165.78L36.1826 166.069C35.8426 167.242 35.5366 168.619 35.2816 170.03C36.6246 169.163 38.3926 168.823 39.8716 168.84C42.6426 168.874 44.8186 170.217 44.8186 172.818C44.8186 173.175 44.7846 173.481 44.7336 173.787C44.1046 176.728 40.7386 177.765 36.6076 177.952L35.7406 175.929C38.8516 175.844 42.5236 175.385 42.5236 172.801C42.5236 171.458 41.4016 170.761 39.7696 170.744C37.8146 170.727 35.9106 171.577 34.3636 173.209ZM49.7146 163.825L51.9926 163.961C51.5336 166.409 51.2786 169.095 51.2786 171.543C51.2786 173.362 51.4656 175.402 51.7546 177.306L49.4426 177.527C49.1876 175.606 49.0176 173.566 49.0176 171.543C49.0176 168.959 49.3066 166.307 49.7146 163.825ZM54.0836 167.344L54.0496 165.185C56.7356 164.913 59.1666 164.845 62.0906 164.981L62.0566 167.123C59.3026 167.021 56.7356 167.089 54.0836 167.344ZM53.9986 171.339L56.1236 171.832C55.8006 172.325 55.6986 172.784 55.6986 173.311C55.6986 174.467 56.9056 174.858 58.9116 174.858C60.3226 174.858 61.3086 174.79 62.5666 174.603L62.3796 176.762C61.3426 176.881 60.1356 176.966 58.9456 176.966C57.8066 176.966 56.5826 176.864 55.6476 176.558C54.2026 176.082 53.4036 175.011 53.4036 173.6C53.4036 172.852 53.6756 171.985 53.9986 171.339ZM69.8036 172.58H67.5766L67.3726 163.842H70.0076L69.8036 172.58ZM66.9306 175.861C66.9306 174.858 67.7296 174.144 68.6816 174.144C69.6506 174.144 70.4326 174.858 70.4326 175.861C70.4326 176.83 69.6506 177.561 68.6816 177.561C67.7296 177.561 66.9306 176.83 66.9306 175.861ZM77.2526 168.704L76.4196 166.613L80.1256 163.842H82.2166V177.357H79.7686V166.715L77.2526 168.704ZM85.1104 163.451H99.4924V177.867H85.1104V163.451ZM87.1504 165.372V175.878H97.4354V165.372H87.1504ZM88.5274 166.834H96.0414V174.331H88.5274V166.834ZM90.3634 168.551V172.597H94.1544V168.551H90.3634ZM102.654 163.298H115.931V177.952H102.654V163.298ZM104.745 167.463H113.806V165.219H104.745V167.463ZM104.745 169.282V171.645H113.806V169.282H104.745ZM104.745 173.464V175.98H113.806V173.464H104.745ZM133.662 170.438C133.679 173.702 131.996 176.099 128.494 177.612L126.828 175.912C129.837 174.807 131.299 172.954 131.299 170.37C131.282 168.245 130.007 166.477 127.559 166.086C127.304 168.84 126.794 171.237 126.165 172.801C125.196 175.317 124.108 176.456 122.476 176.456C121.235 176.456 120.419 175.674 119.858 174.824C119.331 174.042 118.991 172.903 118.991 171.594C118.957 169.571 119.62 167.599 121.048 166.205C122.493 164.743 124.533 163.978 126.658 163.978C128.902 163.978 130.823 164.76 132.149 166.239C133.203 167.412 133.645 168.959 133.662 170.438ZM124.023 172.019C124.516 170.795 125.06 168.602 125.349 166.12C124.227 166.307 123.309 166.783 122.578 167.582C121.32 168.942 121.133 170.625 121.167 171.645C121.184 172.308 121.354 172.954 121.592 173.379C121.881 173.855 122.153 174.144 122.561 174.127C122.986 174.127 123.513 173.396 124.023 172.019ZM144.712 169.163C147.857 169.163 150.22 170.455 150.22 173.243C150.22 175.963 148.112 177.323 144.695 177.68L143.675 175.776C145.069 175.64 146.344 175.351 147.075 174.807C147.619 174.399 147.925 173.872 147.925 173.158C147.925 171.696 146.599 170.999 144.797 170.999C143.981 170.999 143.046 171.135 142.145 171.339V175.062C142.145 175.912 142.009 176.524 141.618 176.932C141.244 177.357 140.649 177.595 139.782 177.595C138.167 177.595 136.11 176.354 136.11 174.178C136.11 172.206 138.048 170.795 139.986 170.013V167.718H136.756V165.695H139.986V163.213H142.145V165.695H145.511V167.718H142.145V169.401C143.029 169.231 143.93 169.163 144.712 169.163ZM151.257 167.259L149.88 168.823C148.758 167.667 147.16 166.443 145.715 165.593L147.007 164.08C148.554 164.981 150.067 166.086 151.257 167.259ZM139.918 175.436C140.02 175.334 140.037 175.147 140.037 174.909V172.07C139.068 172.58 138.116 173.345 138.116 174.212C138.116 175.113 138.949 175.589 139.476 175.589C139.646 175.589 139.816 175.555 139.918 175.436ZM162.256 174.79C164.228 175.657 166.047 175.98 168.206 176.082L167.39 178.377C164.959 178.003 162.358 177.391 160.233 176.15C157.972 177.374 155.847 178.003 153.314 178.445L152.43 176.184C154.334 175.98 156.527 175.572 158.244 174.773C157.037 173.736 156.204 172.716 155.32 171.39L157.105 170.319C157.972 171.577 159.009 172.733 160.25 173.617C161.559 172.665 162.545 171.56 163.497 170.268H153.688V168.279H159.23V166.392H152.447V164.318H159.23V162.652H161.321V164.318H168.155V166.392H161.321V168.279H166.047V170.285C164.993 172.087 163.871 173.464 162.256 174.79ZM175.686 175.589C176.893 171.781 177.964 166.681 178.321 162.669L180.548 162.771C180.106 166.596 179.069 171.781 177.845 175.402C179.273 175.249 181.211 175.045 182.605 174.79C182.214 173.26 181.67 171.764 181.075 170.302L183.047 169.741C184.016 171.968 185.172 175.555 185.41 177.952L183.234 178.462C183.166 177.85 183.098 177.238 182.979 176.643C181.058 177.068 176.859 177.595 174.802 177.765L174.445 175.64C174.87 175.64 175.278 175.623 175.686 175.589ZM173.884 170.251C174.547 170.047 175.21 169.826 175.839 169.571L175.924 171.543C175.244 171.815 174.581 172.07 173.884 172.308V176.932C173.884 178.088 173.119 178.411 172.116 178.411H169.94L169.634 176.354H171.3C171.742 176.354 171.861 176.32 171.861 175.946V172.971C171.096 173.209 170.365 173.43 169.617 173.6L169.345 171.543C170.178 171.339 171.028 171.101 171.861 170.88V167.429H169.447V165.508H171.861V162.703H173.884V165.508H175.839V167.429H173.884V170.251ZM187.45 164.335L189.779 164.437C189.66 165.865 189.575 167.446 189.575 168.874C189.575 170.438 189.745 172.172 190.034 173.277C190.357 174.246 190.765 174.722 191.139 174.722C191.513 174.722 191.819 174.178 192.074 173.447C192.295 172.852 192.482 172.138 192.618 171.356L194.692 172.648C194.522 173.396 194.369 173.906 194.165 174.518C193.536 176.184 192.584 177.272 191.156 177.272C189.626 177.272 188.521 176.065 187.943 174.263C187.45 172.869 187.263 170.829 187.263 168.704C187.263 167.327 187.331 165.763 187.45 164.335ZM196.494 165.729L198.602 164.862C200.574 167.378 201.628 170.574 201.968 173.991L199.656 174.756C199.316 171.509 198.415 168.534 196.494 165.729ZM210.23 162.635H212.389V163.91H218.713V168.398H216.622V165.848H205.997V168.398H203.923V163.91H210.23V162.635ZM206.269 166.97H216.35V168.891H206.269V166.97ZM203.498 170.064H219.138V172.053H214.412V175.946C214.412 176.252 214.582 176.303 214.854 176.303H216.69C217.183 176.303 217.183 175.81 217.2 173.77L219.189 174.365C219.172 175.113 219.121 176.626 218.9 177.289C218.679 177.969 218.22 178.241 217.523 178.241H213.783C212.967 178.241 212.321 177.918 212.321 177.017V172.053H210.026C209.788 175.708 207.714 177.663 204.263 178.513L203.26 176.439C205.776 175.946 207.833 174.909 207.969 172.053H203.498V170.064ZM220.668 163.264H235.747V165.338C234.115 167.191 231.718 168.551 229.44 169.418V176.694C229.44 177.765 229.117 178.394 227.604 178.394H224.323L223.881 176.252H226.686C227.077 176.252 227.247 176.133 227.247 175.742V167.395H228.93C230.188 166.936 231.463 166.29 232.398 165.338H220.668V163.264ZM244.655 171.832C244.655 173.957 246.525 175.13 250.01 175.385L249.143 177.544C244.893 177.255 242.377 174.977 242.377 171.9C242.377 169.792 243.312 167.854 245.25 166.63C242.853 166.749 240.133 166.902 238.28 167.072L238.161 164.862C241.986 164.709 248.786 164.488 252.237 164.335L252.356 166.358C251.149 166.426 249.704 166.63 248.633 167.004C246.032 167.905 244.655 169.69 244.655 171.832ZM250.061 167.922L251.166 167.31C251.914 168.296 252.407 169.214 252.832 170.166L251.659 170.795C251.2 169.707 250.758 168.908 250.061 167.922ZM248.123 168.789L249.228 168.177C249.976 169.163 250.486 170.081 250.894 171.033L249.721 171.645C249.262 170.557 248.82 169.758 248.123 168.789ZM260.268 177.357H257.99L263.498 163.842H265.793L260.268 177.357Z" fill="#F2E205"/>
<path d="M27.36 211.504H17.632V221.232H14.368V211.504H4.64V208.24H14.368V198.512H17.632V208.24H27.36V211.504Z" fill="#F53A3A"/>
<path d="M34.9753 226.344C34.9753 223.827 35.4019 221.565 36.2552 219.56C37.1086 217.555 38.5166 215.656 40.4792 213.864C42.4846 212.072 45.1299 210.259 48.4153 208.424C50.8046 207.059 52.4686 205.843 53.4073 204.776C54.3459 203.667 54.8153 202.429 54.8153 201.064C54.8153 199.528 54.2606 198.312 53.1513 197.416C52.0419 196.52 50.4846 196.072 48.4792 196.072C46.4313 196.072 44.4473 196.691 42.5273 197.928C40.6073 199.123 39.0286 200.787 37.7913 202.92L34.0793 195.56C35.7859 193.213 37.9619 191.357 40.6073 189.992C43.2953 188.627 46.0686 187.944 48.9272 187.944C53.5779 187.944 57.2473 189.139 59.9353 191.528C62.6659 193.875 64.0312 197.053 64.0312 201.064C64.0312 203.837 63.1353 206.333 61.3433 208.552C59.5513 210.771 56.5433 213.075 52.3193 215.464C50.1859 216.701 48.5006 217.811 47.2633 218.792C46.0686 219.773 45.2153 220.733 44.7033 221.672C44.2339 222.611 43.9993 223.677 43.9993 224.872H64.5433V233H34.9753V226.344ZM69.9068 210.92C69.9068 206.099 70.6108 201.981 72.0188 198.568C73.4268 195.155 75.4321 192.531 78.0348 190.696C80.6801 188.861 83.7948 187.944 87.3788 187.944C91.0054 187.944 94.1201 188.861 96.7228 190.696C99.3681 192.531 101.395 195.155 102.803 198.568C104.253 201.981 104.979 206.099 104.979 210.92C104.979 215.741 104.253 219.88 102.803 223.336C101.395 226.749 99.3681 229.373 96.7228 231.208C94.1201 233 91.0054 233.896 87.3788 233.896C83.7948 233.896 80.6801 232.979 78.0348 231.144C75.4321 229.309 73.4268 226.685 72.0188 223.272C70.6108 219.816 69.9068 215.699 69.9068 210.92ZM79.2508 210.92C79.2508 215.571 79.9548 219.155 81.3628 221.672C82.7708 224.189 84.7761 225.448 87.3788 225.448C90.0241 225.448 92.0508 224.189 93.4588 221.672C94.8668 219.112 95.5708 215.549 95.5708 210.984C95.5708 206.333 94.8454 202.749 93.3948 200.232C91.9868 197.672 89.9814 196.392 87.3788 196.392C84.7761 196.392 82.7708 197.651 81.3628 200.168C79.9548 202.685 79.2508 206.269 79.2508 210.92ZM110.282 210.92C110.282 206.099 110.986 201.981 112.394 198.568C113.802 195.155 115.807 192.531 118.41 190.696C121.055 188.861 124.17 187.944 127.754 187.944C131.38 187.944 134.495 188.861 137.098 190.696C139.743 192.531 141.77 195.155 143.178 198.568C144.628 201.981 145.354 206.099 145.354 210.92C145.354 215.741 144.628 219.88 143.178 223.336C141.77 226.749 139.743 229.373 137.098 231.208C134.495 233 131.38 233.896 127.754 233.896C124.17 233.896 121.055 232.979 118.41 231.144C115.807 229.309 113.802 226.685 112.394 223.272C110.986 219.816 110.282 215.699 110.282 210.92ZM119.626 210.92C119.626 215.571 120.33 219.155 121.738 221.672C123.146 224.189 125.151 225.448 127.754 225.448C130.399 225.448 132.426 224.189 133.834 221.672C135.242 219.112 135.946 215.549 135.946 210.984C135.946 206.333 135.22 202.749 133.77 200.232C132.362 197.672 130.356 196.392 127.754 196.392C125.151 196.392 123.146 197.651 121.738 200.168C120.33 202.685 119.626 206.269 119.626 210.92Z" fill="#F53A3A"/>
<path d="M172.94 209C172.94 209.491 173.111 209.907 173.452 210.248C173.793 210.568 174.209 210.728 174.7 210.728C175.169 210.728 175.575 210.568 175.916 210.248C176.257 209.907 176.428 209.491 176.428 209C176.428 208.531 176.257 208.125 175.916 207.784C175.575 207.443 175.169 207.272 174.7 207.272C174.209 207.272 173.793 207.443 173.452 207.784C173.111 208.125 172.94 208.531 172.94 209ZM170.988 209C170.988 208.317 171.148 207.699 171.468 207.144C171.809 206.589 172.257 206.141 172.812 205.8C173.388 205.459 174.017 205.288 174.7 205.288C175.383 205.288 176.001 205.459 176.556 205.8C177.111 206.141 177.548 206.589 177.868 207.144C178.209 207.699 178.38 208.317 178.38 209C178.38 209.683 178.209 210.312 177.868 210.888C177.548 211.443 177.111 211.891 176.556 212.232C176.001 212.552 175.383 212.712 174.7 212.712C174.017 212.712 173.388 212.552 172.812 212.232C172.257 211.891 171.809 211.443 171.468 210.888C171.148 210.312 170.988 209.683 170.988 209ZM166.572 207.752C166.551 207.901 166.519 208.147 166.476 208.488C166.433 208.829 166.391 209.192 166.348 209.576C166.305 209.939 166.284 210.259 166.284 210.536C166.284 211.176 166.284 211.88 166.284 212.648C166.284 213.416 166.284 214.184 166.284 214.952C166.284 215.699 166.284 216.381 166.284 217C166.284 217.427 166.284 218.024 166.284 218.792C166.284 219.56 166.284 220.424 166.284 221.384C166.284 222.344 166.284 223.347 166.284 224.392C166.284 225.416 166.284 226.419 166.284 227.4C166.284 228.36 166.284 229.235 166.284 230.024C166.284 230.792 166.284 231.4 166.284 231.848C166.284 232.765 166.007 233.491 165.452 234.024C164.919 234.579 164.087 234.856 162.956 234.856C162.38 234.856 161.793 234.845 161.196 234.824C160.599 234.803 160.012 234.771 159.436 234.728C158.86 234.685 158.295 234.632 157.74 234.568L157.356 230.6C158.039 230.728 158.7 230.824 159.34 230.888C160.001 230.952 160.524 230.984 160.908 230.984C161.335 230.984 161.633 230.899 161.804 230.728C161.975 230.536 162.071 230.237 162.092 229.832C162.092 229.64 162.092 229.224 162.092 228.584C162.113 227.944 162.124 227.187 162.124 226.312C162.124 225.437 162.124 224.509 162.124 223.528C162.124 222.547 162.124 221.608 162.124 220.712C162.124 219.816 162.124 219.037 162.124 218.376C162.124 217.715 162.124 217.256 162.124 217C162.124 216.616 162.124 216.04 162.124 215.272C162.124 214.483 162.124 213.651 162.124 212.776C162.124 211.901 162.124 211.155 162.124 210.536C162.124 210.109 162.092 209.608 162.028 209.032C161.964 208.435 161.9 208.008 161.836 207.752H166.572ZM150.892 212.84C151.383 212.904 151.895 212.968 152.428 213.032C152.961 213.075 153.484 213.096 153.996 213.096C154.252 213.096 154.764 213.096 155.532 213.096C156.321 213.096 157.26 213.096 158.348 213.096C159.436 213.096 160.599 213.096 161.836 213.096C163.095 213.096 164.353 213.096 165.612 213.096C166.892 213.096 168.076 213.096 169.164 213.096C170.273 213.096 171.233 213.096 172.044 213.096C172.855 213.096 173.42 213.096 173.74 213.096C174.188 213.096 174.711 213.075 175.308 213.032C175.927 212.989 176.46 212.936 176.908 212.872V217.064C176.417 217.021 175.884 217 175.308 217C174.732 216.979 174.22 216.968 173.772 216.968C173.452 216.968 172.887 216.968 172.076 216.968C171.287 216.968 170.337 216.968 169.228 216.968C168.14 216.968 166.967 216.968 165.708 216.968C164.449 216.968 163.191 216.968 161.932 216.968C160.673 216.968 159.5 216.968 158.412 216.968C157.324 216.968 156.385 216.968 155.596 216.968C154.828 216.968 154.295 216.968 153.996 216.968C153.527 216.968 153.004 216.979 152.428 217C151.873 217.021 151.361 217.053 150.892 217.096V212.84ZM159.052 221.512C158.689 222.237 158.252 223.016 157.74 223.848C157.228 224.68 156.673 225.512 156.076 226.344C155.5 227.176 154.935 227.955 154.38 228.68C153.825 229.384 153.324 229.971 152.876 230.44L149.42 228.072C149.953 227.581 150.497 227.005 151.052 226.344C151.628 225.661 152.183 224.947 152.716 224.2C153.271 223.453 153.772 222.707 154.22 221.96C154.689 221.213 155.095 220.499 155.436 219.816L159.052 221.512ZM172.812 219.72C173.217 220.232 173.665 220.84 174.156 221.544C174.668 222.248 175.18 223.005 175.692 223.816C176.204 224.605 176.684 225.384 177.132 226.152C177.58 226.899 177.964 227.56 178.284 228.136L174.508 230.184C174.167 229.501 173.772 228.765 173.324 227.976C172.897 227.187 172.449 226.397 171.98 225.608C171.511 224.819 171.041 224.083 170.572 223.4C170.124 222.696 169.708 222.099 169.324 221.608L172.812 219.72ZM181.484 220.552C184.364 219.805 186.967 218.941 189.292 217.96C191.639 216.957 193.697 215.912 195.468 214.824C196.577 214.141 197.687 213.363 198.796 212.488C199.927 211.592 200.983 210.675 201.964 209.736C202.967 208.797 203.809 207.901 204.492 207.048L207.948 210.344C206.967 211.304 205.889 212.275 204.716 213.256C203.564 214.237 202.359 215.176 201.1 216.072C199.841 216.968 198.593 217.789 197.356 218.536C196.14 219.24 194.775 219.965 193.26 220.712C191.767 221.459 190.188 222.163 188.524 222.824C186.86 223.485 185.185 224.072 183.5 224.584L181.484 220.552ZM194.796 216.872L199.34 215.816V230.216C199.34 230.685 199.351 231.197 199.372 231.752C199.393 232.307 199.425 232.819 199.468 233.288C199.511 233.779 199.564 234.152 199.628 234.408H194.572C194.615 234.152 194.647 233.779 194.668 233.288C194.711 232.819 194.743 232.307 194.764 231.752C194.785 231.197 194.796 230.685 194.796 230.216V216.872ZM216.332 208.68C216.887 209.064 217.537 209.533 218.284 210.088C219.031 210.643 219.799 211.251 220.588 211.912C221.399 212.552 222.156 213.181 222.86 213.8C223.564 214.419 224.14 214.973 224.588 215.464L221.324 218.792C220.919 218.344 220.385 217.811 219.724 217.192C219.063 216.573 218.348 215.933 217.58 215.272C216.812 214.611 216.055 213.981 215.308 213.384C214.561 212.787 213.9 212.285 213.324 211.88L216.332 208.68ZM212.332 229.992C213.996 229.757 215.564 229.427 217.036 229C218.508 228.573 219.873 228.083 221.132 227.528C222.391 226.973 223.543 226.397 224.588 225.8C226.401 224.712 228.065 223.475 229.58 222.088C231.095 220.701 232.417 219.261 233.548 217.768C234.679 216.253 235.575 214.781 236.236 213.352L238.732 217.864C237.921 219.293 236.919 220.723 235.724 222.152C234.551 223.581 233.217 224.947 231.724 226.248C230.231 227.528 228.62 228.68 226.892 229.704C225.804 230.365 224.631 230.995 223.372 231.592C222.113 232.168 220.78 232.68 219.372 233.128C217.985 233.597 216.535 233.96 215.02 234.216L212.332 229.992ZM244.908 229.928C244.908 229.523 244.908 228.861 244.908 227.944C244.908 227.005 244.908 225.928 244.908 224.712C244.908 223.475 244.908 222.184 244.908 220.84C244.908 219.496 244.908 218.205 244.908 216.968C244.908 215.709 244.908 214.6 244.908 213.64C244.908 212.68 244.908 211.976 244.908 211.528C244.908 210.973 244.876 210.333 244.812 209.608C244.769 208.883 244.695 208.243 244.588 207.688H249.58C249.516 208.243 249.452 208.861 249.388 209.544C249.324 210.205 249.292 210.867 249.292 211.528C249.292 212.125 249.292 212.936 249.292 213.96C249.292 214.984 249.292 216.125 249.292 217.384C249.292 218.621 249.292 219.891 249.292 221.192C249.292 222.472 249.292 223.709 249.292 224.904C249.292 226.099 249.292 227.144 249.292 228.04C249.292 228.915 249.292 229.544 249.292 229.928C249.292 230.227 249.303 230.653 249.324 231.208C249.345 231.741 249.388 232.296 249.452 232.872C249.516 233.448 249.559 233.96 249.58 234.408H244.588C244.673 233.768 244.748 233.021 244.812 232.168C244.876 231.315 244.908 230.568 244.908 229.928ZM248.332 215.976C249.399 216.253 250.593 216.616 251.916 217.064C253.239 217.491 254.572 217.949 255.916 218.44C257.26 218.931 258.519 219.421 259.692 219.912C260.887 220.381 261.879 220.819 262.668 221.224L260.844 225.64C259.948 225.171 258.956 224.701 257.868 224.232C256.78 223.741 255.671 223.272 254.54 222.824C253.431 222.376 252.332 221.96 251.244 221.576C250.177 221.192 249.207 220.851 248.332 220.552V215.976Z" fill="#F53A3A"/>
</svg>
