<svg width="75" height="32" viewBox="0 0 75 32" fill="none" xmlns="http://www.w3.org/2000/svg">
<g clip-path="url(#clip0_4964_6682)">
<path d="M2.13281 12.7219V10.5397H11.0417V4.10278H2.22393V1.93689H13.4202V12.7219H2.13281Z" fill="#BF0000"/>
<path d="M28.2362 13.6075C26.8483 12.2804 25.3997 11.0444 23.8437 9.88549C22.3787 11.3341 20.4278 12.6472 18.2759 13.6075L16.6895 11.6705C19.0376 10.8154 20.9605 9.62614 22.5469 7.87147C23.5703 6.71259 24.5913 5.14016 25.0189 3.75231H17.6194V1.58643H28.0843C27.7175 4.08876 26.9254 6.10278 25.3226 8.17755C26.9091 9.2453 28.3437 10.3434 29.7923 11.6261L28.2362 13.6098V13.6075Z" fill="#BF0000"/>
<path d="M31.2578 12.1121C33.2718 9.36682 34.2017 5.58178 34.676 1.6472L37.0873 2.21262C36.5382 6.66822 35.669 10.2056 33.6246 13.2126L31.2601 12.1145L31.2578 12.1121ZM42.7742 13.2103C40.9284 10.0374 39.9073 6.19159 39.2344 2.21028L41.676 1.50935C42.2718 4.98832 43.4307 9.09112 45.1854 12.1425L42.7742 13.2103ZM44.0265 0C45.0639 0 45.9027 0.824766 45.9027 1.83178C45.9027 2.83878 45.0639 3.67757 44.0265 3.67757C42.9891 3.67757 42.1503 2.88551 42.1503 1.83178C42.1503 0.778037 42.9751 0 44.0265 0ZM44.0265 2.76168C44.5288 2.76168 44.9564 2.36449 44.9564 1.83178C44.9564 1.35981 44.5288 0.946262 44.0265 0.946262C43.5242 0.946262 43.1106 1.35748 43.1106 1.83178C43.1106 2.38084 43.4915 2.76168 44.0265 2.76168Z" fill="#BF0000"/>
<path d="M53.7848 13.9486L53.0115 12.2453V13.9486H51.0208V13.0467C49.5162 13.2617 47.9998 13.3762 46.4671 13.4182L46.3105 11.6425C46.5839 11.6425 46.8549 11.6425 47.14 11.6285V7.2313H46.4087V5.59812H59.9274V7.2313H53.0091V12.1425C53.654 11.986 54.2264 11.7991 54.8433 11.5561C54.3129 10.9696 53.9554 10.4392 53.626 9.72195L55.3012 9.26401H53.3526V7.75933H59.4671V9.27803C59.1377 10.1378 58.7218 10.8388 58.0933 11.5257C58.7381 11.7991 59.411 11.9836 60.0839 12.1425L59.0232 13.9906C58.0933 13.7033 57.2475 13.3738 56.432 12.8318C55.5582 13.3621 54.7428 13.6776 53.7825 13.9486H53.7848ZM58.8386 0.859802V5.14251H47.4671V0.859802H58.8386ZM49.0722 7.23363V7.86447H51.0208V7.23363H49.0722ZM49.0722 9.03737V9.63784H51.0208V9.03737H49.0722ZM51.0208 11.4579V10.7991H49.0722V11.5864C49.7171 11.5584 50.376 11.514 51.0208 11.4579ZM49.6026 2.09111V2.60747H56.7054V2.09111H49.6026ZM49.6026 3.50933V4.03971H56.7054V3.50933H49.6026ZM56.4624 10.5561C56.8783 10.1542 57.1493 9.76868 57.4507 9.26634H55.3596C55.6891 9.75232 56.0185 10.1542 56.4624 10.5561Z" fill="#BF0000"/>
<path d="M65.1125 0.946267V6.05842H63.0938C63.0658 6.44393 63.0518 6.83178 62.9934 7.21729H65.3135C65.3135 8.39253 65.213 10.7266 65.0985 11.7851C65.0261 12.3154 64.942 12.8738 64.6546 13.3458C64.3532 13.8481 63.8532 14.0047 63.2948 14.0047H61.3625L61.0051 11.8855L62.4957 11.9136C62.7831 11.9136 62.9116 11.8855 63.0261 11.5257C63.199 10.9953 63.241 9.83645 63.2831 9.24767H60.748C61.0494 7.91589 61.192 5.52337 61.22 4.1215H63.1826V2.91823H60.7761V0.946267H65.1149H65.1125ZM65.5565 5.09814L65.3555 3.17991C65.7574 3.17991 66.1709 3.16589 66.6008 3.16589C67.0728 2.27804 67.4466 1.46262 67.7317 0.474304L69.8929 0.731314C69.5074 1.60515 69.1336 2.29206 68.6476 3.12384C69.5775 3.10982 70.4373 3.08178 71.3695 3.00935C71.1406 2.57944 70.9396 2.25 70.6546 1.86449L72.4303 1.10515C73.1312 2.07944 73.963 3.62617 74.4069 4.72898L72.4443 5.5444C72.3438 5.25701 72.2434 5 72.1429 4.71496C71.699 4.77337 71.2551 4.81543 70.8252 4.84346V5.77337H73.8625V10.4136H70.7107V11.6893C71.0401 11.6752 71.3555 11.6472 71.6709 11.6168C71.5705 11.3154 71.5144 11.1729 71.3695 10.9019L73.1593 10.472C73.6756 11.4883 74.0331 12.5771 74.3906 13.6659L72.3275 14.1098C72.2691 13.8224 72.213 13.5514 72.1406 13.264C70.2784 13.5351 67.3859 13.736 65.4817 13.8224L65.2083 11.9042C66.4396 11.9042 67.6709 11.8318 68.9023 11.7897V10.4159H65.8649V5.77571H68.9023V4.96028C67.7854 5.0187 66.6826 5.07477 65.5518 5.10281L65.5565 5.09814ZM67.8041 7.53272V8.57711H68.9069V7.53272H67.8041ZM70.8275 7.53272V8.57711H71.9303V7.53272H70.8275Z" fill="#BF0000"/>
<path d="M3.67512 20.757H1.43213V18.6822H6.69615V17.6612H9.07699V18.6822H14.341V20.757H12.1588C12.0676 21.1378 11.9462 21.535 11.7919 21.9159H15.0116V23.9743H0.714844V21.9159H3.96484C3.85737 21.4579 3.81297 21.1986 3.67512 20.757ZM13.5443 31.7266H2.16344V24.6472H13.5443V31.7266ZM4.51391 26.4018V27.3621H11.2265V26.4018H4.51391ZM4.51391 28.8575V29.9112H11.2265V28.8575H4.51391ZM6.084 20.757C6.1611 21.0327 6.29662 21.6261 6.34335 21.9159H9.31765C9.46952 21.549 9.59335 21.1238 9.66811 20.757H6.084Z" fill="#BF0000"/>
<path d="M30.2328 27.8832H25.9314C27.2585 28.7079 28.9664 29.3318 30.4921 29.7453L29.5155 31.7593C27.5786 31.042 25.6113 30.021 24.2375 28.785V32.0046H22.0552V28.8014C20.6814 30.0677 18.7141 31.0888 16.8216 31.7757L15.7842 29.8084C17.3403 29.4112 19.1253 28.7546 20.4664 27.8855H15.9804V25.993H22.0529V25.2313H19.7491V23.9182C18.8029 24.5444 17.5529 25.2313 16.6066 25.6425L15.5996 23.5677C16.6674 23.1261 17.9945 22.4836 18.9407 21.8902L19.7491 23.5537V20.3341L18.7258 21.7523C17.8262 21.0047 16.8636 20.3948 15.7959 19.7687L17.0459 18.0747C17.9454 18.5771 18.9828 19.2032 19.7468 19.8294V18.486H21.7001C21.8519 18.1799 21.9734 17.8761 22.0505 17.5864H24.4454C24.3683 17.8761 24.2468 18.2126 24.1253 18.486H26.5365V19.8738C27.4057 19.4018 28.4127 18.7453 29.1767 18.0747L30.4898 19.7687C29.7118 20.4556 28.5365 21.2173 27.5762 21.7967L26.5389 20.3481V23.3691L27.4244 21.8598C28.5692 22.4252 29.651 23.035 30.6136 23.7056L29.4688 25.7032C28.5529 24.9719 27.5319 24.3761 26.5389 23.8411V25.229H24.2351V25.9906H30.2305V27.8832H30.2328ZM21.8122 20.0561V21.0327H24.4828V20.0561H21.8122ZM21.8122 23.5187H24.4828V22.5117H21.8122V23.5187Z" fill="#BF0000"/>
<path d="M32.309 19.3692H44.7716C44.7412 21.0467 44.3908 22.6192 43.6267 23.9463C43.0006 25.014 42.101 25.9136 40.8954 26.5701L39.2015 24.9836C39.08 26.1425 38.851 27.1355 38.4702 27.9883C37.83 29.4369 36.7319 30.5818 35.0379 31.4977L33.1781 29.8645C34.8113 29.0864 35.7249 28.2173 36.2599 27.1028C36.7786 25.9883 36.9165 24.6308 36.9305 22.7547H39.3253C39.3253 23.5327 39.2786 24.25 39.2179 24.9065C40.8814 24.1285 41.6594 23.0304 41.9936 21.5187H32.3066V19.3668L32.309 19.3692Z" fill="#BF0000"/>
<path d="M61.1266 19.2477C61.1266 20.2991 60.2878 21.0934 59.2504 21.0934C59.1593 21.0934 59.0682 21.0934 58.9747 21.0771C58.7013 23.8224 57.984 25.8972 56.7177 27.5C55.3439 29.1939 53.3298 30.4299 50.5845 31.3434L48.9817 29.4673C51.4373 28.8107 53.178 27.8645 54.4116 26.4322C55.463 25.2126 56.1196 23.6705 56.4256 21.7804H47.3789V19.5981H57.4023C57.3859 19.4906 57.3719 19.3691 57.3719 19.2477C57.3719 18.2406 58.1967 17.4182 59.2481 17.4182C60.2995 17.4182 61.1242 18.243 61.1242 19.2477H61.1266ZM60.1803 19.2477C60.1803 18.7757 59.7527 18.3621 59.2504 18.3621C58.7481 18.3621 58.3345 18.7734 58.3345 19.2477C58.3345 19.7967 58.7154 20.1776 59.2504 20.1776C59.7527 20.1776 60.1803 19.7804 60.1803 19.2477Z" fill="#BF0000"/>
<path d="M63.4902 26.2196V18.729H65.8711V26.2196H63.4902ZM65.5043 29.5748C68.2963 28.9486 70.0346 27.8201 70.5229 26.0958C70.7215 25.3949 70.7823 24.5701 70.7823 23.6402V18.6659H73.1631V23.6402C73.1631 24.7079 73.086 25.6682 72.9201 26.4626C72.4015 28.9042 70.1444 30.6425 66.9085 31.528L65.5043 29.5748Z" fill="#BF0000"/>
</g>
<defs>
<clipPath id="clip0_4964_6682">
<rect width="73.6916" height="32" fill="white" transform="translate(0.714844)"/>
</clipPath>
</defs>
</svg>
