<svg width="48" height="48" viewBox="0 0 48 48" fill="none" xmlns="http://www.w3.org/2000/svg">
<path d="M24 3C19.8466 3 15.7865 4.23163 12.333 6.53914C8.8796 8.84665 6.18798 12.1264 4.59854 15.9636C3.0091 19.8009 2.59323 24.0233 3.40352 28.0969C4.21381 32.1705 6.21386 35.9123 9.15077 38.8492C12.0877 41.7861 15.8295 43.7862 19.9031 44.5965C23.9767 45.4068 28.1991 44.9909 32.0364 43.4015C35.8736 41.812 39.1534 39.1204 41.4609 35.667C43.7684 32.2135 45 28.1534 45 24C45 18.4305 42.7875 13.089 38.8493 9.15076C34.911 5.21249 29.5696 3 24 3ZM24 42C20.4399 42 16.9598 40.9443 13.9997 38.9665C11.0397 36.9886 8.73256 34.1774 7.37018 30.8883C6.0078 27.5992 5.65134 23.98 6.34587 20.4884C7.04041 16.9967 8.75474 13.7894 11.2721 11.2721C13.7894 8.75473 16.9967 7.0404 20.4884 6.34586C23.98 5.65133 27.5992 6.00779 30.8883 7.37017C34.1774 8.73255 36.9886 11.0397 38.9665 13.9997C40.9443 16.9598 42 20.4399 42 24C42 28.7739 40.1036 33.3523 36.7279 36.7279C33.3523 40.1036 28.7739 42 24 42Z" fill="#D80000"/>
<path d="M11.8029 29H10V20H15.622V21.6778H11.8029V23.7H15.2166V25.3889H11.8029V29Z" fill="#D80000"/>
<path d="M16.85 29V20H19.7303C20.413 20 21.0104 20.1222 21.5225 20.3556C22.5466 20.8333 23.1334 21.7333 23.1334 23.0111C23.1334 24.1667 22.6213 25.0444 21.7252 25.5444L24.2108 29H22.0666L20.0077 26C19.8796 26.0111 19.7516 26.0111 19.6236 26.0111H18.6635V29H16.85ZM18.6635 21.6222V24.4H19.6556C20.6797 24.4 21.2558 23.9778 21.2558 23.0111C21.2558 22.0889 20.6797 21.6222 19.6556 21.6222H18.6635Z" fill="#D80000"/>
<path d="M30.8062 29H24.9709V20H30.7102V21.6556H26.7738V23.6222H30.2942V25.2778H26.7738V27.3444H30.8062V29Z" fill="#D80000"/>
<path d="M38 29H32.1647V20H37.904V21.6556H33.9675V23.6222H37.4879V25.2778H33.9675V27.3444H38V29Z" fill="#D80000"/>
</svg>
