<svg width="48" height="48" viewBox="0 0 48 48" fill="none" xmlns="http://www.w3.org/2000/svg">
<path d="M41.6391 17.99H41.6495L41.6395 17.97C41.6395 17.9767 41.6394 17.9834 41.6391 17.99Z" fill="#D80000"/>
<path fill-rule="evenodd" clip-rule="evenodd" d="M27.9795 8.96999C27.5595 8.64999 26.9495 8.39999 26.2395 8.24999C25.4095 8.07999 24.5195 7.98999 23.6195 7.99999H19.3995V14.2H22.0395V12.2H23.6195C24.5195 12.21 25.4095 12.12 26.2395 11.95C26.9495 11.8 27.5495 11.55 27.9795 11.23C28.3995 10.89 28.6195 10.5 28.5895 10.1C28.6195 9.69999 28.3995 9.29999 27.9795 8.95999V8.96999ZM25.7295 10.52C25.6095 10.65 25.4295 10.76 25.2095 10.84C24.6895 11 24.0795 11.08 23.4595 11.07H22.0495V9.14999H23.4595C24.0795 9.13999 24.6895 9.21999 25.2095 9.37999C25.4395 9.45999 25.6195 9.57999 25.7295 9.69999C25.8495 9.82999 25.8895 9.96999 25.8695 10.11C25.8895 10.25 25.8495 10.39 25.7295 10.52Z" fill="#D80000"/>
<path fill-rule="evenodd" clip-rule="evenodd" d="M5.06516 37.29C5.46529 42.1439 13.4954 46.02 23.3495 46.02C33.4595 46.02 41.2095 42.14 41.6095 37.29H41.6195V37.14C41.6195 37.1 41.6245 37.0625 41.6295 37.025C41.6345 36.9875 41.6395 36.95 41.6395 36.91H41.6195V31.1C41.6195 31.06 41.6245 31.0225 41.6295 30.985C41.6345 30.9475 41.6395 30.91 41.6395 30.87H41.6195V24.98C41.6195 24.94 41.6245 24.9025 41.6295 24.865C41.6345 24.8275 41.6395 24.79 41.6395 24.75H41.6195V18.2C41.6195 18.16 41.6245 18.1225 41.6295 18.085C41.6337 18.0538 41.6378 18.0226 41.6391 17.99H41.6295V11.33C41.6295 11.29 41.6345 11.2525 41.6395 11.215C41.6445 11.1775 41.6495 11.14 41.6495 11.1C41.6495 6.06999 33.4595 1.98999 23.3495 1.98999C13.2395 1.98999 5.04953 6.07999 5.04953 11.11L5.01953 11.11V37.29H5.06516ZM8.01953 36.91H8.04953C8.04953 39.4 14.1995 43.02 23.3495 43.02C32.4995 43.02 38.3895 39.55 38.6295 37.07V35.89C35.3495 38.36 29.7395 39.99 23.3495 39.99C16.9307 39.99 11.2858 38.3454 8.01953 35.8571V36.91ZM8.01953 30.88H8.04953C8.04953 33.37 14.1995 36.99 23.3495 36.99C32.4995 36.99 38.3895 33.52 38.6295 31.04V29.77C35.3495 32.24 29.7395 33.87 23.3495 33.87C16.9307 33.87 11.2858 32.2254 8.01953 29.7371V30.88ZM8.01953 24.76H8.04953C8.04953 27.25 14.1995 30.87 23.3495 30.87C32.4995 30.87 38.3895 27.4 38.6295 24.92V23C35.3495 25.47 29.7395 27.1 23.3495 27.1C16.9307 27.1 11.2858 25.4554 8.01953 22.9671V24.76ZM8.01953 17.99H8.04953C8.04953 20.48 14.1995 24.1 23.3495 24.1C32.4995 24.1 38.3895 20.63 38.6295 18.15V16.12C35.3495 18.59 29.7395 20.22 23.3495 20.22C16.9307 20.22 11.2858 18.5754 8.01953 16.0871V17.99ZM8.04953 11.11C8.04953 13.6 14.0095 17.22 23.3495 17.22C32.4995 17.22 38.3895 13.75 38.6295 11.27V11.11H38.6495C38.6495 8.61999 32.6895 4.99999 23.3495 4.99999C14.0095 4.99999 8.04953 8.61999 8.04953 11.11Z" fill="#D80000"/>
</svg>
