<svg width="41" height="40" viewBox="0 0 41 40" fill="none" xmlns="http://www.w3.org/2000/svg">
<path fill-rule="evenodd" clip-rule="evenodd" d="M10.1875 12.5L10.1875 25.625H14.917C14.9751 26.2689 15.0923 26.8957 15.2632 27.5H10.1875L10.1875 28.4375C10.1875 28.9553 10.6072 29.375 11.125 29.375H15.9995C16.3424 30.0458 16.7566 30.6742 17.2322 31.25H11.125C9.5717 31.25 8.3125 29.9908 8.3125 28.4375V9.6875C8.3125 8.1342 9.5717 6.875 11.125 6.875H20.5C22.0533 6.875 23.3125 8.1342 23.3125 9.6875V14.545C22.6643 14.6641 22.0372 14.8438 21.4375 15.078V12.5L10.1875 12.5ZM11.125 8.75H20.5C21.0178 8.75 21.4375 9.16973 21.4375 9.6875V10.625L10.1875 10.625V9.6875C10.1875 9.16973 10.6072 8.75 11.125 8.75Z" fill="#EF0AA1"/>
<path d="M22.0973 26.25V27.675H24.2946V29.375H26.1106V27.6875H28.2716V26.25H26.1106V25.4188H28.2716V23.9813H26.952L28.9375 20H26.9278L25.245 23.9813L23.5985 20H21.4375L23.429 23.9813H22.0973V25.4188H24.2704V26.25H22.0973Z" fill="#EF0AA1"/>
<path fill-rule="evenodd" clip-rule="evenodd" d="M25.1875 33.125C29.8474 33.125 33.625 29.3474 33.625 24.6875C33.625 20.0276 29.8474 16.25 25.1875 16.25C20.5276 16.25 16.75 20.0276 16.75 24.6875C16.75 29.3474 20.5276 33.125 25.1875 33.125ZM25.1875 31.25C28.8119 31.25 31.75 28.3119 31.75 24.6875C31.75 21.0631 28.8119 18.125 25.1875 18.125C21.5631 18.125 18.625 21.0631 18.625 24.6875C18.625 28.3119 21.5631 31.25 25.1875 31.25Z" fill="#EF0AA1"/>
</svg>
