<svg width="41" height="40" viewBox="0 0 41 40" fill="none" xmlns="http://www.w3.org/2000/svg">
<path fill-rule="evenodd" clip-rule="evenodd" d="M10.9744 7.18164H21.7513C23.3078 7.18164 24.5695 8.44339 24.5695 9.99982V32.0035C24.5695 33.5599 23.3078 34.8216 21.7513 34.8216H10.9744C9.41799 34.8216 8.15625 33.5599 8.15625 32.0035V9.99982C8.15625 8.44338 9.41799 7.18164 10.9744 7.18164ZM10.9744 9.18164C10.5226 9.18164 10.1562 9.54795 10.1562 9.99982V32.0035C10.1562 32.4553 10.5226 32.8216 10.9744 32.8216H21.7513C22.2032 32.8216 22.5695 32.4553 22.5695 32.0035V9.99982C22.5695 9.54795 22.2032 9.18164 21.7513 9.18164H10.9744Z" fill="#E228A3"/>
<path d="M24.5792 11H22.5V13H24.5792V11Z" fill="white"/>
<path d="M25 27H22V29H25V27Z" fill="white"/>
<path d="M14 30.0879L17.9782 30.0879" stroke="#E228A3" stroke-linecap="round"/>
<rect x="17.2178" y="13.7651" width="18.3956" height="12.7135" rx="1.25" fill="white" stroke="#E228A3" stroke-width="1.5"/>
<path d="M18 18H35" stroke="#E228A3" stroke-linecap="round"/>
<path d="M27.4023 21.6655H30.6923" stroke="#E228A3" stroke-linecap="round"/>
</svg>
