<svg width="41" height="41" viewBox="0 0 41 41" fill="none" xmlns="http://www.w3.org/2000/svg">
<path fill-rule="evenodd" clip-rule="evenodd" d="M13.2081 9.66899C15.3665 8.2268 17.9041 7.45703 20.5 7.45703C23.981 7.45703 27.3194 8.83984 29.7808 11.3013C32.2422 13.7627 33.625 17.1011 33.625 20.582C33.625 23.1779 32.8552 25.7155 31.413 27.8739C29.9709 30.0323 27.921 31.7145 25.5227 32.7079C23.1244 33.7013 20.4854 33.9613 17.9394 33.4548C15.3934 32.9484 13.0548 31.6984 11.2192 29.8628C9.38367 28.0272 8.13363 25.6886 7.6272 23.1426C7.12077 20.5966 7.38069 17.9576 8.37409 15.5593C9.36749 13.161 11.0498 11.1112 13.2081 9.66899ZM14.2498 29.9361C16.0999 31.1722 18.275 31.832 20.5 31.832C23.4837 31.832 26.3452 30.6468 28.455 28.537C30.5647 26.4272 31.75 23.5657 31.75 20.582C31.75 18.357 31.0902 16.1819 29.854 14.3319C28.6179 12.4818 26.8609 11.0399 24.8052 10.1884C22.7495 9.3369 20.4875 9.11411 18.3052 9.5482C16.123 9.98228 14.1184 11.0537 12.5451 12.6271C10.9717 14.2004 9.90026 16.205 9.46617 18.3873C9.03209 20.5696 9.25488 22.8316 10.1064 24.8872C10.9578 26.9429 12.3998 28.6999 14.2498 29.9361ZM18.9625 22.0258V22.6727L22.0187 22.7008V22.1571C22.0165 21.8286 22.1005 21.5053 22.2625 21.2196C22.5477 20.8208 22.9036 20.4776 23.3125 20.2071C23.8946 19.8104 24.3971 19.308 24.7937 18.7258C25.1506 18.167 25.3303 17.5135 25.3093 16.8508C25.3242 16.1529 25.1282 15.4668 24.7469 14.8821C24.3427 14.3112 23.7966 13.8555 23.1625 13.5602C22.4296 13.2293 21.6321 13.066 20.8281 13.0821C19.8907 13.0589 18.9606 13.2513 18.1094 13.6446C17.384 14.0097 16.7299 14.5018 16.1781 15.0977L17.6031 17.3946C17.9439 16.932 18.3627 16.5323 18.8406 16.2133C19.3312 15.8856 19.9101 15.7156 20.5 15.7258C20.9362 15.6839 21.3741 15.786 21.7469 16.0164C21.8947 16.1228 22.0139 16.2641 22.0941 16.4276C22.1742 16.5911 22.2127 16.7719 22.2062 16.9539C22.2164 17.2887 22.1177 17.6176 21.925 17.8914C21.6131 18.2776 21.2431 18.6129 20.8281 18.8852C20.2258 19.2689 19.7192 19.7852 19.3469 20.3946C19.088 20.899 18.9561 21.4589 18.9625 22.0258ZM19.7244 27.9426C19.9709 28.0409 20.2347 28.0883 20.5 28.0821C20.7682 28.0893 21.0351 28.0423 21.2848 27.9441C21.5344 27.8458 21.7617 27.6983 21.9531 27.5102C22.1475 27.33 22.3015 27.1107 22.4049 26.8667C22.5083 26.6227 22.5588 26.3595 22.5531 26.0946C22.5602 25.828 22.5103 25.5631 22.4068 25.3173C22.3034 25.0716 22.1487 24.8508 21.9531 24.6696C21.5635 24.2941 21.041 24.0885 20.5 24.0977C20.235 24.0941 19.972 24.1427 19.7259 24.2408C19.4797 24.339 19.2554 24.4846 19.0656 24.6696C18.87 24.8508 18.7153 25.0716 18.6119 25.3173C18.5084 25.5631 18.4585 25.828 18.4656 26.0946C18.4599 26.3595 18.5104 26.6227 18.6138 26.8667C18.7172 27.1107 18.8712 27.33 19.0656 27.5102C19.2538 27.6973 19.4779 27.8444 19.7244 27.9426Z" fill="#0BA90B"/>
</svg>
