<svg width="49" height="48" viewBox="0 0 49 48" fill="none" xmlns="http://www.w3.org/2000/svg">
<g id="Point Outline">
<path id="Union" fill-rule="evenodd" clip-rule="evenodd" d="M12.733 6.53914C16.1864 4.23163 20.2465 3 24.3999 3C29.9695 3 35.3109 5.21249 39.2492 9.15076C43.1874 13.089 45.3999 18.4305 45.3999 24C45.3999 28.1534 44.1683 32.2135 41.8608 35.667C39.5533 39.1204 36.2735 41.812 32.4363 43.4015C28.599 44.9909 24.3766 45.4068 20.303 44.5965C16.2294 43.7862 12.4876 41.7861 9.55068 38.8492C6.61378 35.9123 4.61373 32.1705 3.80344 28.0969C2.99315 24.0233 3.40902 19.8009 4.99846 15.9636C6.5879 12.1264 9.27952 8.84665 12.733 6.53914ZM14.3997 38.9665C17.3597 40.9443 20.8399 42 24.3999 42C29.1738 42 33.7522 40.1036 37.1278 36.7279C40.5035 33.3523 42.3999 28.7739 42.3999 24C42.3999 20.4399 41.3442 16.9598 39.3664 13.9997C37.3885 11.0397 34.5773 8.73255 31.2882 7.37017C27.9992 6.00779 24.38 5.65133 20.8883 6.34586C17.3966 7.0404 14.1894 8.75473 11.672 11.2721C9.15466 13.7894 7.44033 16.9967 6.74579 20.4884C6.05126 23.98 6.40772 27.5992 7.7701 30.8883C9.13247 34.1774 11.4396 36.9886 14.3997 38.9665ZM19.57 15.42V33.135H23.32V27.435H25.57C26.8473 27.465 28.1161 27.2194 29.29 26.715C30.2983 26.2871 31.1589 25.5725 31.765 24.66C32.3688 23.6953 32.6717 22.5726 32.635 21.435C32.6713 20.2881 32.3687 19.1559 31.765 18.18C31.1637 17.2632 30.3016 16.5475 29.29 16.125C28.1127 15.6332 26.8456 15.3931 25.57 15.42H19.57ZM23.32 18.675H25.33C26.2076 18.6386 27.0756 18.8687 27.82 19.335C28.143 19.5758 28.3993 19.8951 28.5647 20.2625C28.73 20.63 28.799 21.0335 28.765 21.435C28.7995 21.8323 28.7306 22.2317 28.565 22.5944C28.3994 22.9572 28.1427 23.2709 27.82 23.505C27.074 23.9661 26.206 24.1909 25.33 24.15H23.32V18.675Z" fill="#D80000"/>
</g>
</svg>
